<svg xmlns="http://www.w3.org/2000/svg" viewBox="0 0 94.15 77.03"><defs><style>.cls-1{fill:#fff;}</style></defs><g id="Capa_2" data-name="Capa 2"><g id="Capa_1-2" data-name="Capa 1"><path class="cls-1" d="M71.25,0,62.63,8.61c-.39-.06-.79-.09-1.19-.12-2.82-1.15-7.86-1.95-13.76,2.59l-.14.12-1.94,2c-7.29-5-13.08-1.9-14.71-.83l-8-8L0,27.25l9.4,9.4a22.2,22.2,0,0,0,4.14,11.91,31,31,0,0,0,3.8,4.61c1.79,1.82,3.6,3.61,5.4,5.41-1.95,2.85-1.11,5.2.93,7.33s4.06,2.45,6.92,1.62a.09.09,0,0,1,.07,0c2.05,3.08,3.95,4.57,6,4.73.85.83,1.69,1.66,2.55,2.48A7.93,7.93,0,0,0,48.63,76a5.31,5.31,0,0,0,2.21-2.44C56,77.89,59.44,78,63.49,71.9a.06.06,0,0,1,.07,0c2.86.83,4.81.57,6.92-1.63s3-4.75.57-7.81c0,0-.64-.84-.61-.83a4.84,4.84,0,0,0,3.83-2c2-2.58,1.87-5.29-.27-8l2.81-2.81a31,31,0,0,0,3.8-4.61A22.12,22.12,0,0,0,84.75,32.3l9.4-9.39ZM18.73,49.85a21.22,21.22,0,0,1-5.48-9.34,17.17,17.17,0,0,1-.4-2.4,17.36,17.36,0,0,1-.06-2L4,27.26,22.91,8.32,29,14.39l.4.4,0,.07,2.93.24.19-.47c1.16-.79,6-3.46,12.37,1.43l8.47,8.52A2.22,2.22,0,0,1,54,26.19a2.26,2.26,0,0,1-.67,1.6l-.55.56a2.28,2.28,0,0,1-3.22,0l-8.67-8.71L38.76,21.1l2.35,2.75,1,1c-1,1-2,2-3,3a1.71,1.71,0,0,0-.46.79l-.15.16C32.7,34.64,26.85,40.46,21,46.31A9.15,9.15,0,0,0,18.73,49.85ZM46.84,73.47a2.87,2.87,0,0,1-2.36,1,5.06,5.06,0,0,1-3-1.83l-1.22-1.22a18.28,18.28,0,0,0,3.07-2.15,5.28,5.28,0,0,0,2.21,2.45,7.76,7.76,0,0,0,1.85.76A2.14,2.14,0,0,1,46.84,73.47Zm12.5-1.17c-1.3,1.53-2.79,1.66-4.69-.1-.29-.28-.58-.56-.88-.83A7.61,7.61,0,0,0,55,70.43q1.63-1.58,3.25-3.17l.35.35C60.34,69.4,60.57,70.85,59.34,72.3Zm9.06-4.74c-1.31,1.79-3.32,1.83-5.12,0L60.6,64.92c1.47-1.44,2.95-2.87,4.42-4.32l2.49,2.49C69.11,64.7,69.38,66.22,68.4,67.56Zm3.67-10.62a3,3,0,0,1-4.23,1.6l-.45-.29c1.42-1.4,2.83-2.82,4.24-4.24A2.75,2.75,0,0,1,72.07,56.94Zm9.29-25.22a16.39,16.39,0,0,1-.46,4.44,21.17,21.17,0,0,1-5.51,9.38C71.79,49.33,68,53,64.33,56.64c-3.88,3.87-7.74,7.77-11.64,11.61a5.06,5.06,0,0,1-3,1.83,2.94,2.94,0,0,1-2.36-1,3.5,3.5,0,0,1-.57-2.91,6.69,6.69,0,0,1,1.87-2.62C50.38,61.79,52.18,60,54,58.22c.87-.87,1.73-1.74,2.59-2.63s3.57-2.93,2.08-4.33-3.33,1.2-4.16,2S52.73,55,51.85,55.89c-4.1,4-8.15,8.07-12.35,12-1.9,1.77-3.39,1.63-4.69.1s-1-2.89.79-4.68l13.95-14a3.34,3.34,0,0,0,1.34-2.07c.08-.74-.19-1.39-.94-1.51a2.71,2.71,0,0,0-2.66,1.12q-8.2,8.2-16.42,16.41c-1.8,1.79-3.81,1.75-5.12,0-1-1.35-.71-2.86.89-4.47Q35,50.4,43.33,42.07c.91-.91,1.62-1.92.51-3s-2-.12-2.8.7q-6.42,6.44-12.86,12.85a8.53,8.53,0,0,1-1.87,1.53,3,3,0,0,1-4.23-1.59c-.68-1.71.2-2.8,1.28-3.88,7.11-7.09,14.23-14.18,21.28-21.32l2.91,2.92a5.08,5.08,0,0,0,7.19,0l.56-.56a5.07,5.07,0,0,0,.17-7L49,16.26h0L47.74,15l1.73-1.73a12.49,12.49,0,0,1,7-2.84A12.65,12.65,0,0,1,63.26,12l1.91-1.91L71.24,4,90.17,22.91Z"/></g></g></svg>