<svg xmlns="http://www.w3.org/2000/svg" viewBox="0 0 493.06 297.32"><defs><style>.cls-1{fill:#f5f5f5;}.cls-2{fill:#ececec;}.cls-3{fill:#e1e1e1;}.cls-4{fill:#fff;}.cls-5{opacity:0.5;}.cls-6{fill:#ff4f5b;}.cls-7{opacity:0.2;}.cls-8{fill:#1a2e35;}.cls-9{fill:#163d6b;}.cls-10{fill:#ea0029;}.cls-11{opacity:0.3;}.cls-12{fill:#fafafa;}.cls-13{fill:#ffbf9d;}.cls-14{fill:#ff9a6c;}.cls-15{opacity:0.78;}.cls-16{fill:#375a64;}.cls-17{opacity:0.6;}.cls-18{fill:#ccc;}</style></defs><g id="Capa_2" data-name="Capa 2"><g id="Capa_1-2" data-name="Capa 1"><path class="cls-1" d="M298,32.75A31,31,0,1,1,262.78,6.57,31,31,0,0,1,298,32.75Z"/><path class="cls-2" d="M290.64,33.81a23.65,23.65,0,1,1-26.8-20A23.62,23.62,0,0,1,290.64,33.81Z"/><path class="cls-3" d="M290.53,33.08a14.16,14.16,0,0,1-1-2.72,25.19,25.19,0,0,0-3.74-6.79,24.53,24.53,0,0,0-3.72-3.8,23.4,23.4,0,0,0-5.17-3.19,23.05,23.05,0,0,0-6.43-1.85,22.85,22.85,0,0,0-3.53-.21,25.18,25.18,0,0,0-3.64.35,27.28,27.28,0,0,0-3.53.92,24.32,24.32,0,0,0-3.25,1.41,22.91,22.91,0,0,0-2.9,1.82,21.72,21.72,0,0,0-2.5,2.13,23.7,23.7,0,0,0-3.75,4.78,24.34,24.34,0,0,0-2.18,4.85A25.18,25.18,0,0,0,244,38.44c0,1.85.12,2.88,0,2.91a7.13,7.13,0,0,1-.67-2.88,21.73,21.73,0,0,1,.65-8,23.55,23.55,0,0,1,6-10.44,23,23,0,0,1,2.64-2.34,24.11,24.11,0,0,1,6.6-3.55,24.25,24.25,0,0,1,7.73-1.37,23.92,23.92,0,0,1,3.81.25,23,23,0,0,1,3.6.81,22.72,22.72,0,0,1,3.29,1.29A24,24,0,0,1,283,18.63a23.66,23.66,0,0,1,3.78,4.18,22.11,22.11,0,0,1,3.39,7.34A7.11,7.11,0,0,1,290.53,33.08Z"/><path class="cls-2" d="M460,166.4s-6.88-4-14,12.33-9.62,25.63-9.62,25.63-1.93,3.44-4.34,1.41-5.9-8-9.7-6.65c-4,1.39-5,5.95-3.84,12.49s3.18,21,3.36,22.27-.45,3.22-2.31,2.1-12.84-12-17.68-6.44,1.4,23.2,2.05,25.15.3,2.81-.61,3.36-4.25-3.45-7.5-6.4-7.53-5.81-10.06-2.4-2.57,17,11.6,38.14l7.2,9.37,11.8-1.37c25.08-4.47,34.8-13.91,35.51-18.1s-4.31-5.29-8.69-5.58-9.58.07-9.82-1,.15-1.88,2-2.77,18.91-8.66,19.54-16-14.8-7.7-16.9-8.26-1.13-2.36-.09-3.13,12.85-9.32,18.37-13,8.07-7.62,6.34-11.43-8.39-2-11.53-2.37-2-4.11-2-4.11,5-8.27,11.79-24.71-1-18.65-1-18.65"/><path class="cls-3" d="M405,294.31c5.05-12.05,12.17-28.65,20.1-46.95s15.09-34.88,20.2-46.9c2.55-6,4.62-10.87,6.05-14.25l1.65-3.87c.19-.43.33-.77.44-1s.16-.33.16-.33a3.25,3.25,0,0,1-.12.35l-.4,1-1.58,3.9c-1.38,3.39-3.4,8.27-5.93,14.3-5,12.05-12.17,28.65-20.1,47s-15.08,34.88-20.2,46.91"/><path class="cls-3" d="M426.83,207.66a3.5,3.5,0,0,1,.36.78c.2.51.47,1.26.8,2.18.65,1.86,1.48,4.44,2.35,7.31s1.59,5.38,2.18,7.35c.26.88.48,1.62.67,2.23a3.86,3.86,0,0,1,.21.83,3.5,3.5,0,0,1-.36-.78c-.2-.51-.48-1.26-.79-2.19-.64-1.86-1.44-4.45-2.3-7.32s-1.63-5.37-2.23-7.34c-.27-.87-.5-1.61-.68-2.22A4,4,0,0,1,426.83,207.66Z"/><path class="cls-3" d="M434.49,228.48c0-.1,5.22-2.06,11.73-4.36s11.83-4.09,11.87-4-5.22,2.06-11.73,4.36S434.53,228.59,434.49,228.48Z"/><path class="cls-3" d="M421.06,256a3.63,3.63,0,0,1,.86-.1l2.37-.14c2-.12,4.76-.29,7.8-.59s5.79-.66,7.77-.93l2.35-.33a4.34,4.34,0,0,1,.87-.07,3.18,3.18,0,0,1-.84.23c-.55.12-1.35.28-2.33.45-2,.35-4.73.75-7.78,1.05s-5.82.43-7.82.48c-1,0-1.82,0-2.38,0A3.36,3.36,0,0,1,421.06,256Z"/><path class="cls-3" d="M410,238.73a3.75,3.75,0,0,1,.51.63c.3.42.73,1,1.26,1.8,1.05,1.52,2.47,3.65,4,6s2.94,4.51,3.92,6.08c.5.78.89,1.42,1.16,1.87a2.82,2.82,0,0,1,.37.71,3.27,3.27,0,0,1-.51-.63c-.3-.42-.73-1-1.25-1.79-1.05-1.53-2.48-3.66-4-6s-2.94-4.51-3.93-6.08c-.5-.78-.89-1.42-1.15-1.86A3.08,3.08,0,0,1,410,238.73Z"/><path class="cls-3" d="M395,261.55a6,6,0,0,1,.64.82l1.62,2.29c1.35,1.95,3.2,4.66,5.22,7.67s3.83,5.74,5.12,7.73l1.52,2.37a6,6,0,0,1,.51.9,4.24,4.24,0,0,1-.64-.81c-.43-.61-1-1.38-1.62-2.3-1.36-2-3.21-4.66-5.23-7.66s-3.83-5.75-5.12-7.74l-1.52-2.37A3.92,3.92,0,0,1,395,261.55Z"/><path class="cls-3" d="M409.45,282.71a6.83,6.83,0,0,1,1.1-.15l3-.28c2.53-.24,6-.59,9.87-1.08s7.32-1,9.83-1.4l3-.46a6.82,6.82,0,0,1,1.1-.13,4.91,4.91,0,0,1-1.07.28c-.69.16-1.7.36-2.95.6-2.5.46-6,1-9.83,1.52s-7.36.78-9.9.95c-1.27.08-2.3.14-3,.16A5.68,5.68,0,0,1,409.45,282.71Z"/><path class="cls-3" d="M197.29,216.44,56.39,172.58A6.85,6.85,0,0,1,51.88,164L79,77a6.88,6.88,0,0,1,8.6-4.52l140.9,43.86a6.87,6.87,0,0,1,4.51,8.6l-27.09,87A6.87,6.87,0,0,1,197.29,216.44Z"/><path class="cls-4" d="M205.08,134.57a11.13,11.13,0,1,1-7.32-13.94A11.13,11.13,0,0,1,205.08,134.57Z"/><path class="cls-4" d="M205.83,146.75a12.17,12.17,0,0,1-2-.44,11.59,11.59,0,1,1,14.51-7.62,11.6,11.6,0,0,1-12.49,8.06Zm2.76-22.1a10.68,10.68,0,1,0,3.63,20,10.58,10.58,0,0,0,5.23-6.28h0a10.69,10.69,0,0,0-7-13.37A11,11,0,0,0,208.59,124.65Z"/><path class="cls-4" d="M74.71,138.72l-2.66,8.55-.88-.28,2.41-7.77-2-.62.24-.78Z"/><path class="cls-4" d="M81.08,149.22l-.24.78-6-1.86.2-.63,4.63-2.37c1.26-.65,1.63-1.17,1.81-1.76.31-1-.2-1.81-1.51-2.22a3,3,0,0,0-2.63.23l-.45-.74a4,4,0,0,1,3.41-.27c1.73.54,2.56,1.76,2.11,3.19-.25.81-.74,1.47-2.23,2.23l-3.8,2Z"/><path class="cls-4" d="M90.54,150.56,88.83,150l-.7,2.25-.88-.27.7-2.25-4.83-1.5.2-.64,6.3-4.25,1,.3-6.09,4.16L88.22,149l.61-2,.86.26-.62,2,1.71.53Z"/><path class="cls-4" d="M103.64,154.63l-1.71-.53-.7,2.25-.88-.27.7-2.25-4.82-1.5.19-.64,6.3-4.25,1,.3-6.09,4.16,3.71,1.15.61-2,.86.26-.62,2,1.71.53Z"/><path class="cls-4" d="M111.2,156.69c-.46,1.46-1.82,2.28-3.91,1.63a4.64,4.64,0,0,1-2.73-2.06l.65-.56a3.93,3.93,0,0,0,2.32,1.81c1.45.45,2.44,0,2.76-1.06s-.13-2-2.3-2.67l-1.82-.57,1.77-4.15,4.68,1.46-.24.78-3.91-1.22-1.14,2.64,1.1.34C111,153.86,111.67,155.18,111.2,156.69Z"/><path class="cls-4" d="M119.66,159.29a2.79,2.79,0,0,1-3.74,1.71c-2.27-.7-3-2.66-2.17-5.36.9-2.91,3-3.93,5.28-3.21a4.05,4.05,0,0,1,1.88,1.1l-.57.6a3.08,3.08,0,0,0-1.54-.92c-1.84-.58-3.39.24-4.12,2.56-.06.19-.12.44-.18.71a2.88,2.88,0,0,1,3.07-.66A2.72,2.72,0,0,1,119.66,159.29Zm-.88-.25a2,2,0,0,0-1.57-2.51,2.07,2.07,0,0,0-2.78,1.18c-.3.94.21,2.08,1.69,2.54A2,2,0,0,0,118.78,159Z"/><path class="cls-4" d="M131.32,163c-.44,1.43-1.82,2.21-3.88,1.57a4.66,4.66,0,0,1-2.74-2.06l.64-.56a3.94,3.94,0,0,0,2.35,1.81c1.41.44,2.4,0,2.73-1s-.19-1.92-1.78-2.41l-.61-.19.2-.65,3.3-2.23-4.38-1.36.25-.78,5.49,1.71-.19.62-3.37,2.29C131.14,160.41,131.75,161.66,131.32,163Z"/><path class="cls-4" d="M139.93,165.6a2.79,2.79,0,0,1-3.74,1.71c-2.27-.7-3-2.66-2.17-5.36.9-2.91,3-3.93,5.28-3.21a4.05,4.05,0,0,1,1.88,1.1l-.57.6a3.08,3.08,0,0,0-1.54-.92c-1.84-.58-3.39.24-4.12,2.56-.06.19-.12.44-.18.71a2.86,2.86,0,0,1,3.07-.66A2.72,2.72,0,0,1,139.93,165.6Zm-.88-.25a2,2,0,0,0-1.57-2.51A2.07,2.07,0,0,0,134.7,164c-.3.94.21,2.08,1.69,2.54A2,2,0,0,0,139.05,165.35Z"/><path class="cls-4" d="M149.66,162.05l-.2.62-6,6.81-1-.29,5.94-6.68-4.4-1.37-.49,1.6-.87-.27.74-2.38Z"/><path class="cls-4" d="M161.88,165.85l-.19.62-6.05,6.82-.95-.3,5.93-6.67L156.23,165l-.5,1.6-.87-.27.74-2.38Z"/><path class="cls-4" d="M168.37,174.64c-.47,1.51-2,2.05-4.08,1.42s-3-2-2.54-3.48a2.23,2.23,0,0,1,2.31-1.59,2,2,0,0,1-.76-2.3c.43-1.39,1.89-1.89,3.69-1.33s2.75,1.81,2.32,3.2a2,2,0,0,1-1.95,1.46A2.24,2.24,0,0,1,168.37,174.64Zm-.9-.3c.33-1.05-.37-2-1.88-2.46s-2.61-.09-2.94,1,.36,2,1.87,2.47S167.14,175.41,167.47,174.34Zm-1.67-3.15c1.34.41,2.32.06,2.6-.87s-.36-1.81-1.64-2.21-2.29-.07-2.59.88S164.47,170.77,165.8,171.19Z"/><path class="cls-4" d="M177.29,175.26c-.91,2.9-3,3.92-5.28,3.2a4.17,4.17,0,0,1-1.89-1.09l.58-.6a3.12,3.12,0,0,0,1.53.92c1.85.57,3.4-.24,4.12-2.57a6.4,6.4,0,0,0,.18-.7,2.87,2.87,0,0,1-3.07.65,2.7,2.7,0,0,1-2.08-3.46,2.78,2.78,0,0,1,3.73-1.72C177.39,170.6,178.13,172.56,177.29,175.26Zm-.68-2.08c.29-.94-.21-2.07-1.69-2.53a2,2,0,1,0-1.09,3.72A2.08,2.08,0,0,0,176.61,173.18Z"/><path class="cls-4" d="M187.27,173.75l-2.67,8.55-.87-.27,2.41-7.77-2-.63.24-.78Z"/><path class="cls-4" d="M193.64,184.26l-.24.78-6-1.87.19-.62,4.64-2.38c1.26-.65,1.63-1.16,1.81-1.75.31-1-.2-1.82-1.51-2.22a3,3,0,0,0-2.63.22l-.45-.73a4.07,4.07,0,0,1,3.41-.28c1.73.54,2.56,1.76,2.11,3.19-.25.82-.74,1.47-2.24,2.24l-3.79,1.95Z"/><path class="cls-4" d="M201.83,185c-.44,1.43-1.82,2.21-3.89,1.56a4.66,4.66,0,0,1-2.73-2.05l.64-.57a3.92,3.92,0,0,0,2.34,1.82c1.42.44,2.41,0,2.74-1s-.2-1.92-1.78-2.42l-.61-.19.2-.64,3.29-2.23-4.37-1.36.24-.79,5.5,1.71-.2.63-3.36,2.29C201.64,182.35,202.26,183.6,201.83,185Z"/><rect class="cls-4" x="165.16" y="149.97" width="3.89" height="71.72" transform="translate(-59.99 290.16) rotate(-72.71)"/><rect class="cls-4" x="179.53" y="180.04" width="3.89" height="36.78" transform="matrix(0.3, -0.95, 0.95, 0.3, -61.92, 312.75)"/><g class="cls-5"><rect class="cls-2" x="74.45" y="112.22" width="30.09" height="22.48" rx="4.96" transform="translate(40.74 -21.02) rotate(17.29)"/></g><path class="cls-3" d="M73.63,123.78l.43-1.38L88.86,127a3.25,3.25,0,0,0,1.93-6.2L76,116.21l.43-1.38,14.79,4.61a4.68,4.68,0,1,1-2.78,8.94Z"/><rect class="cls-3" x="97.96" y="121.35" width="1.44" height="10.64" transform="translate(-51.64 183.11) rotate(-72.66)"/><rect class="cls-4" x="84.62" y="103" width="77.39" height="6.64" transform="matrix(0.95, 0.3, -0.3, 0.95, 37.18, -31.85)"/><path class="cls-1" d="M110.3,257.71a19.63,19.63,0,1,1-22.24-16.55A19.61,19.61,0,0,1,110.3,257.71Z"/><path class="cls-2" d="M105.68,258.38a15,15,0,1,1-17-12.61A14.94,14.94,0,0,1,105.68,258.38Z"/><path class="cls-3" d="M105.61,257.92a8.3,8.3,0,0,1-.65-1.72,16.08,16.08,0,0,0-2.37-4.29A14.77,14.77,0,0,0,97,247.48a13.71,13.71,0,0,0-2-.72,14.49,14.49,0,0,0-2.12-.45,14.85,14.85,0,0,0-2.23-.13,14.28,14.28,0,0,0-4.54.81,13.94,13.94,0,0,0-2,.89A14.26,14.26,0,0,0,82.24,249a14.95,14.95,0,0,0-3.95,4.37,15.31,15.31,0,0,0-2.12,7.91,8.63,8.63,0,0,1,0,1.84,4.34,4.34,0,0,1-.43-1.82,14,14,0,0,1,.41-5.09,15.9,15.9,0,0,1,1.33-3.31,15.66,15.66,0,0,1,2.45-3.3,14,14,0,0,1,1.68-1.47,14.63,14.63,0,0,1,2-1.27,15.75,15.75,0,0,1,2.21-1,16.09,16.09,0,0,1,2.41-.63,17.49,17.49,0,0,1,2.48-.24,15.91,15.91,0,0,1,2.41.16,14,14,0,0,1,2.28.52,13,13,0,0,1,2.08.81,15,15,0,0,1,5.82,4.9,13.65,13.65,0,0,1,2.14,4.64A4.42,4.42,0,0,1,105.61,257.92Z"/><path class="cls-6" d="M403.58,265.88c-1.44,2.05-4.22,1.37-5.51.12a10.38,10.38,0,0,1-2.34-4.78c-1.13-4-2.28-8.09-1.43-12.11a6.77,6.77,0,0,1,1.54-3.29,3.49,3.49,0,0,1,3.33-1.1c1.4.37,2.28,1.74,2.91,3.05a29,29,0,0,1,2.85,12.38,10,10,0,0,1-1.35,5.73"/><g class="cls-7"><path d="M403.58,265.88c-1.44,2.05-4.22,1.37-5.51.12a10.38,10.38,0,0,1-2.34-4.78c-1.13-4-2.28-8.09-1.43-12.11a6.77,6.77,0,0,1,1.54-3.29,3.49,3.49,0,0,1,3.33-1.1c1.4.37,2.28,1.74,2.91,3.05a29,29,0,0,1,2.85,12.38,10,10,0,0,1-1.35,5.73"/></g><path class="cls-6" d="M398.21,276.25a12.44,12.44,0,0,0-7.71-.94,6.4,6.4,0,0,0-3.81,1.7c-.95,1.05-1.13,2.9,0,3.8a3.63,3.63,0,0,0,2.4.61c2,0,4.3-.38,5.93.85.93.69,1.55,1.86,2.66,2.2a2.61,2.61,0,0,0,2.88-1.28,4.46,4.46,0,0,0,.33-3.31A5.05,5.05,0,0,0,398.21,276.25Z"/><path class="cls-6" d="M407.51,268.82a7.44,7.44,0,0,1-1.16-6.85,13.2,13.2,0,0,1,4.06-5.89,21.75,21.75,0,0,1,7.27-4.29,7.84,7.84,0,0,1,3.27-.56,3.44,3.44,0,0,1,2.74,1.66c.77,1.46,0,3.23-.76,4.68a56.17,56.17,0,0,1-4.77,7.27,13,13,0,0,1-5.25,4.5c-2.19.83-4.45.73-5.61-.78"/><path class="cls-8" d="M403.67,296.76a5.23,5.23,0,0,1-.13-.93c-.06-.68-.15-1.53-.24-2.54a36.18,36.18,0,0,0-.58-3.72,27.26,27.26,0,0,0-1.35-4.39,16.31,16.31,0,0,0-2.24-4,8.43,8.43,0,0,0-2.84-2.36,7.75,7.75,0,0,0-2.39-.74A3.81,3.81,0,0,1,393,278a4.85,4.85,0,0,1,.94,0,7.14,7.14,0,0,1,2.49.65,8.24,8.24,0,0,1,3,2.38,15.86,15.86,0,0,1,2.33,4,27.27,27.27,0,0,1,1.34,4.47,33.12,33.12,0,0,1,.5,3.77c.08,1.08.11,2,.12,2.55A3.6,3.6,0,0,1,403.67,296.76Z"/><path class="cls-8" d="M403.5,294.81a1.62,1.62,0,0,1,0-.43c0-.33,0-.74,0-1.24,0-1.07,0-2.62-.06-4.53-.09-3.83-.42-9.11-1.06-14.92s-1.49-11-2.27-14.79q-.27-1.41-.54-2.52c-.16-.75-.3-1.39-.44-1.9s-.21-.89-.29-1.2a1.41,1.41,0,0,1-.07-.43,2.77,2.77,0,0,1,.15.41l.35,1.18c.16.51.33,1.15.51,1.89s.4,1.58.6,2.52a140.15,140.15,0,0,1,2.38,14.8c.64,5.82.93,11.11.95,15,0,1.92,0,3.47-.06,4.55,0,.5-.06.91-.08,1.23A2.14,2.14,0,0,1,403.5,294.81Z"/><path class="cls-8" d="M403.47,284.59a9.78,9.78,0,0,1,0-1.29,35,35,0,0,1,.4-3.5,44.6,44.6,0,0,1,1.13-5.08,46.2,46.2,0,0,1,2.13-6,32,32,0,0,1,6.25-9.73,14.69,14.69,0,0,1,1.47-1.36c.22-.19.42-.38.63-.53l.57-.4a6.9,6.9,0,0,1,1.08-.69,37.5,37.5,0,0,0-3.55,3.17,33.6,33.6,0,0,0-6.1,9.7,48.67,48.67,0,0,0-2.14,6,51.19,51.19,0,0,0-1.21,5c-.26,1.45-.42,2.64-.51,3.46A8.24,8.24,0,0,1,403.47,284.59Z"/><rect class="cls-9" x="170.63" y="41.28" width="109.71" height="172.93" rx="3.18" transform="translate(-26.13 189.82) rotate(-43.39)"/><path class="cls-10" d="M321.73,149.7,209,30.42a4.4,4.4,0,0,0-6.22-.17L181.41,50.42a1.78,1.78,0,0,0-.53,1.57c2.13,11.93,10.67,22.6,20.84,29.67,12.29,8.54,26.85,13,40.69,18.74s27.73,13.21,36,25.67c7.83,11.76,9.68,26.34,13.67,39.9a76.59,76.59,0,0,0,4,10.77,1.76,1.76,0,0,0,2.81.55l22.61-21.38A4.39,4.39,0,0,0,321.73,149.7Z"/><path class="cls-4" d="M181.73,87.22l-1-1.08-1.42,1.35-.53-.56,1.43-1.35-2.89-3,.4-.38,6.3-.53.59.62-6.12.54,2.23,2.35L181.94,84l.51.54-1.25,1.18,1,1.09Z"/><path class="cls-4" d="M185.62,91.08c-.91.85-2.23.85-3.46-.46A3.86,3.86,0,0,1,181,88l.7-.15a3.22,3.22,0,0,0,1,2.27c.85.9,1.73,1,2.41.36s.64-1.47-.31-2.48l-.37-.38.41-.39,3.3-.28-2.62-2.77.5-.46,3.29,3.48-.4.37-3.37.29C186.55,89.1,186.48,90.26,185.62,91.08Z"/><path class="cls-4" d="M189.79,95.42c-.92.87-2.24.9-3.49-.42a3.84,3.84,0,0,1-1.14-2.6l.7-.14a3.17,3.17,0,0,0,.94,2.25c.87.92,1.78,1,2.44.36s.72-1.5-.58-2.87l-1.09-1.16,3-2.28,2.81,3-.5.47-2.34-2.48L188.61,91l.66.69C190.81,93.28,190.75,94.51,189.79,95.42Z"/><path class="cls-4" d="M194.33,100.17a2.33,2.33,0,0,1-3.41-.28c-1.36-1.44-1.1-3.16.61-4.78s3.75-1.64,5.14-.17a3.49,3.49,0,0,1,.92,1.56l-.66.2a2.63,2.63,0,0,0-.74-1.29c-1.11-1.17-2.57-1.21-4,.18-.12.11-.27.27-.42.44a2.39,2.39,0,0,1,2.5.78A2.26,2.26,0,0,1,194.33,100.17Zm-.54-.54a1.62,1.62,0,0,0-.11-2.46,1.64,1.64,0,1,0-2.31,2.25A1.62,1.62,0,0,0,193.79,99.63Z"/><path class="cls-4" d="M203.77,113.4l.49-2.9-2.93.31-.59-.62,3.61-.37.53-3.4.59.62-.44,2.72,2.75-.28.57.6-3.43.34-.55,3.6Z"/><path class="cls-4" d="M207.68,117.53l.48-2.9-2.93.31-.58-.62,3.61-.37.53-3.4.58.62-.44,2.73,2.75-.29.57.6-3.43.34-.55,3.6Z"/><path class="cls-4" d="M211.58,121.66l.49-2.9-2.94.31-.58-.62,3.61-.37.53-3.4.59.62-.44,2.72,2.75-.28.57.6-3.43.34-.55,3.6Z"/><path class="cls-4" d="M215.49,125.79l.48-2.9-2.93.31-.59-.62,3.61-.37.54-3.4.58.62-.44,2.73,2.75-.29.57.6-3.43.34-.55,3.6Z"/><path class="cls-4" d="M229,140.05l.48-2.9-2.93.31-.58-.62,3.61-.37.53-3.4.58.62-.43,2.73,2.75-.29.57.61-3.43.34-.55,3.6Z"/><path class="cls-4" d="M232.88,144.18l.48-2.9-2.93.31-.59-.62,3.61-.37.53-3.4.59.62-.44,2.73,2.75-.29.57.61-3.43.34-.55,3.6Z"/><path class="cls-4" d="M236.78,148.31l.48-2.9-2.93.31-.58-.62,3.61-.37.53-3.4.58.62-.43,2.73,2.74-.29.58.61-3.43.34-.56,3.6Z"/><path class="cls-4" d="M240.69,152.44l.48-2.9-2.93.31-.59-.62,3.61-.37.53-3.4.59.62-.44,2.73,2.75-.29.57.61-3.43.34-.55,3.6Z"/><path class="cls-4" d="M258.21,160.13l-5.41,5.12-.53-.56,4.92-4.65L256,158.76l.5-.46Z"/><path class="cls-4" d="M259,168.65c-.91.86-2.23.86-3.46-.45a3.88,3.88,0,0,1-1.15-2.61l.7-.14a3.23,3.23,0,0,0,1,2.27c.85.89,1.73,1,2.41.36s.64-1.48-.31-2.48l-.37-.39.41-.39,3.3-.27-2.62-2.77.5-.47,3.29,3.48-.4.37-3.37.29C259.89,166.67,259.82,167.83,259,168.65Z"/><path class="cls-4" d="M263.91,174.16l-1-1.09-1.42,1.35-.53-.56,1.42-1.34-2.88-3.06.4-.38,6.3-.52.59.62-6.12.53,2.22,2.36,1.26-1.19.51.54-1.25,1.19,1,1.08Z"/><path class="cls-4" d="M266.93,179.21l-.49.47-3.59-3.8.39-.37,4.34.17a2.46,2.46,0,0,0,2-.54c.63-.59.6-1.4-.18-2.23a2.56,2.56,0,0,0-2-.91l0-.71a3.37,3.37,0,0,1,2.59,1.18c1,1.1,1.14,2.33.23,3.18a3,3,0,0,1-2.53.71l-3.55-.13Z"/><path class="cls-4" d="M162,91.71a2,2,0,0,1,3.21,1.64l-.71,0a1.13,1.13,0,0,0-.32-.93,1.08,1.08,0,0,0-1.6-.05,1.09,1.09,0,0,0,0,1.61,1.11,1.11,0,0,0,.92.36V95a2,2,0,0,1-1.46-3.3Z"/><path class="cls-4" d="M165.53,96.93l-1.13-1.19-.77.29-.58-.61,3.67-1.29.56.59-1.49,3.59-.6-.62Zm.28-.61.6-1.35L165,95.5Z"/><path class="cls-4" d="M167.6,100.23l.25-1.17,0,0-.49-.52-.72.68-.56-.6,2.58-2.44,1.06,1.11a1.33,1.33,0,0,1,.12,2,1.15,1.15,0,0,1-1.32.24l-.28,1.37Zm1.57-2.54-.46-.49-.9.86.46.48c.34.37.69.39,1,.13S169.51,98.06,169.17,97.69Z"/><path class="cls-4" d="M168.68,100.86l.64-.22a2.07,2.07,0,0,0,.54,1.11c.33.35.59.38.74.23.49-.45-1.26-1.64-.3-2.55.43-.41,1.14-.41,1.83.33a2.38,2.38,0,0,1,.62,1.11l-.63.25a2.07,2.07,0,0,0-.47-.91c-.34-.36-.6-.37-.76-.21-.48.45,1.27,1.64.32,2.54-.43.4-1.14.39-1.84-.34A2.58,2.58,0,0,1,168.68,100.86Z"/><path class="cls-4" d="M176.66,104.64l-2.59,2.44-.56-.6,1.06-1-1.11-1.17-1.06,1-.57-.6,2.59-2.44.56.6-1,1,1.11,1.17,1-1Z"/><path class="cls-4" d="M175.8,106.31a1.95,1.95,0,1,1,0,2.68A1.85,1.85,0,0,1,175.8,106.31Zm2.1,2.22a1.11,1.11,0,1,0-1.53-1.61,1.11,1.11,0,1,0,1.53,1.61Z"/><path class="cls-4" d="M180.19,108.37l.57.6-2.1,2,1.22,1.3-.48.46-1.79-1.89Z"/><path class="cls-4" d="M182.3,110.61l1.11,1.17a1.78,1.78,0,1,1-2.58,2.44l-1.11-1.17Zm-1,3.12a1.06,1.06,0,0,0,1.6.09,1,1,0,0,0,0-1.6l-.51-.55-1.61,1.51Z"/><path class="cls-4" d="M185,117.65l-.48.45-1.89-2,2.58-2.44,1.84,2-.47.46-1.29-1.36-.56.53,1.13,1.2-.46.44-1.14-1.2-.59.56Z"/><path class="cls-4" d="M186.51,120.23l.24-1.18,0,0-.5-.52-.72.68-.56-.6,2.58-2.44,1.06,1.12a1.33,1.33,0,0,1,.12,2,1.15,1.15,0,0,1-1.31.24l-.29,1.36Zm1.56-2.54-.46-.49-.9.85.46.49c.35.36.69.39,1,.12S188.42,118.05,188.07,117.69Z"/><path class="cls-4" d="M151.65,101l1.38-.08a1.58,1.58,0,0,0,.32,1.44c.44.46.94.44,1.49-.08l2.37-2.24-1.65-1.74.92-.88,2.74,2.9L156,103.37a2.22,2.22,0,0,1-3.53-.06A2.79,2.79,0,0,1,151.65,101Z"/><path class="cls-4" d="M155.57,105.15a1,1,0,0,1,1.31,1.38.92.92,0,0,1-1.35,0A.94.94,0,0,1,155.57,105.15Z"/><path class="cls-4" d="M168.86,110.51l-6.52,3.08-1.17-1.24,2.34-4.28-4.44,2.06-1.17-1.23,3.44-6.34,1.13,1.19L160,108.18l4.61-2.13,1,1.06-2.46,4.48,4.63-2.18Z"/><path class="cls-4" d="M169.32,111a.88.88,0,0,1,1.27.11.85.85,0,0,1,.06,1.25,1,1,0,0,1-1.33-1.36Zm-1,1.23,1,1.11L165.52,117l-1.05-1.11Z"/><path class="cls-4" d="M171.77,113l1,1.11-5.28,5-1-1.11Z"/><path class="cls-4" d="M173.79,115.13l1.05,1.11-5.28,5-1-1.11Z"/><path class="cls-4" d="M175.39,117.42a.87.87,0,0,1,1.27.1.86.86,0,1,1-1.27-.1Zm-1,1.22,1,1.11-3.82,3.62-1.05-1.11Z"/><path class="cls-4" d="M177.94,125.72l-2.18,2.06-1-1,.47-.45a1.74,1.74,0,0,1-1.63-.67,1.69,1.69,0,0,1-.19-2.52c.67-.64,1.59-.61,2.69.56l.84.88c.47-.45.48-1-.08-1.59a2.55,2.55,0,0,0-1.4-.77l.4-1.13a4.1,4.1,0,0,1,2,1.21C179,123.44,179.1,124.62,177.94,125.72Zm-2-.19.39-.37-.72-.76c-.49-.52-.84-.5-1.09-.26s-.24.67.13,1.06A1.12,1.12,0,0,0,175.92,125.53Z"/><path class="cls-4" d="M185,133.18l-2.19,2.07-1.05-1.11,2-1.91c.62-.59.64-1.13.22-1.58s-1.12-.55-1.8.1l-1.92,1.81-1.05-1.1,2-1.91c.62-.59.65-1.12.22-1.58s-1.12-.54-1.8.11l-1.92,1.81-1.05-1.11,3.83-3.62,1,1.06-.44.42a2.13,2.13,0,0,1,1.63.73,2,2,0,0,1,.57,1.85,2.38,2.38,0,0,1,1.93.79A2,2,0,0,1,185,133.18Z"/><path class="cls-4" d="M183.75,135.53l1.15-.38a3.58,3.58,0,0,0,.89,1.68c.48.51.8.57,1,.37.63-.59-2.2-2.3-.67-3.74.73-.69,1.86-.52,2.91.6a4.25,4.25,0,0,1,1.06,1.79l-1.14.37a3,3,0,0,0-.76-1.37c-.47-.5-.83-.56-1-.37-.66.61,2.16,2.33.65,3.75-.71.67-1.84.49-2.92-.65A4.65,4.65,0,0,1,183.75,135.53Z"/><path class="cls-4" d="M227.93,178.28c1.64-1.55,3.43-1.52,4.59-.3s1.08,3-.56,4.57-3.43,1.53-4.59.3S226.28,179.83,227.93,178.28Zm2.93,3.11c1.14-1.07,1.23-1.91.68-2.49s-1.38-.52-2.51.55-1.22,1.91-.69,2.48S229.73,182.46,230.86,181.39Z"/><path class="cls-4" d="M235.46,188.08a2.35,2.35,0,0,1-3.44-.32c-1.3-1.37-1.25-3,.36-4.55a3.33,3.33,0,0,1,5.08,0,3.69,3.69,0,0,1,1,1.71l-1.25.37a2.22,2.22,0,0,0-.63-1.16,1.81,1.81,0,0,0-2.77,0,2.33,2.33,0,0,1,1.61.81A2.19,2.19,0,0,1,235.46,188.08ZM234.34,187a1,1,0,0,0-.05-1.55,1.07,1.07,0,0,0-1.56-.16,1.05,1.05,0,0,0,.09,1.58A1,1,0,0,0,234.34,187Z"/><path class="cls-4" d="M242.07,186.23l.93,1-8.92,4-.93-1Z"/><path class="cls-4" d="M241.43,195.67l-.94.89-3.55-3.76.74-.71,3.63.21c.84,0,1.17-.12,1.41-.35.39-.37.36-.86-.13-1.38a1.66,1.66,0,0,0-1.48-.56l-.25-1.35a3.15,3.15,0,0,1,2.79,1.1c1,1.11,1.18,2.39.28,3.24a2.71,2.71,0,0,1-2.36.65l-2.16-.12Z"/><path class="cls-4" d="M246.23,200.53l-.77-.81-1,1-1.07-1.13,1.05-1-2.54-2.69.78-.73,5.37-.64,1.15,1.21-5,.66,1.26,1.33.93-.88,1,1.09-.93.88.77.81Z"/><path class="cls-6" d="M269.58,139c2.81-4.31,1.71-10-2.06-13.55a13.43,13.43,0,0,0-3.93-2.58c-3.6-1.5-8.37-.41-10.26,3-1.54,2.79-.92,6.27.16,9.27s3,6.35,6.07,7.57a8.43,8.43,0,0,0,8.83-2.22A9.57,9.57,0,0,0,269.58,139Z"/><rect class="cls-6" x="136.2" y="140.73" width="214.84" height="155.92" rx="12.89"/><path class="cls-8" d="M351,153.63l0-.47a10.38,10.38,0,0,0-.14-1.38,12.75,12.75,0,0,0-1.89-5.05,13.07,13.07,0,0,0-2.64-3,12.91,12.91,0,0,0-4.2-2.31c-.41-.14-.85-.23-1.29-.35s-.9-.14-1.36-.21l-1.43-.07h-7.93l-77.09.06-53.23,0H150.7a19.72,19.72,0,0,0-3.92.22,12.44,12.44,0,0,0-6.85,3.69,12.28,12.28,0,0,0-2.26,3.26,11.91,11.91,0,0,0-1.16,3.82,32.32,32.32,0,0,0-.13,4.07V176.8q0,16.89,0,34.47v72.48a12.78,12.78,0,0,0,3.16,8.37,12.54,12.54,0,0,0,7.82,4.22,40.65,40.65,0,0,0,4.56.13H268.85l61.1,0h7.12a17.26,17.26,0,0,0,3.46-.23,12.57,12.57,0,0,0,3.25-1.09,11.58,11.58,0,0,0,2.81-1.9,13,13,0,0,0,2.21-2.53,12.61,12.61,0,0,0,2.05-6.25c.08-8.86,0-17.4,0-25.53,0-32.54.05-58.88.07-77.08,0-9.1,0-16.16,0-21,0-2.39,0-4.21,0-5.45s0-1.85,0-1.85,0,.63,0,1.85,0,3.06,0,5.45c0,4.8,0,11.86,0,21,0,18.2,0,44.54.07,77.08,0,8.14,0,16.65,0,25.55a12.94,12.94,0,0,1-2.1,6.39,13.27,13.27,0,0,1-2.25,2.6,14.46,14.46,0,0,1-1.37,1.08,14,14,0,0,1-1.51.86,13,13,0,0,1-3.33,1.13,18,18,0,0,1-3.52.23H330l-61.1,0H151.93a39.68,39.68,0,0,1-4.61-.13,12.92,12.92,0,0,1-8.06-4.35,13.11,13.11,0,0,1-3.25-8.62V211.27q0-17.57,0-34.47V156a33.26,33.26,0,0,1,.13-4.11,12.2,12.2,0,0,1,1.2-3.93,12.63,12.63,0,0,1,2.33-3.36,12.9,12.9,0,0,1,7-3.79l1-.15,1,0c.67,0,1.32,0,2,0h49.11l53.23,0,77.09.06h7.93l1.44.07c.47.08.93.13,1.38.23s.88.21,1.29.35a12.86,12.86,0,0,1,6.88,5.37,12.58,12.58,0,0,1,1.86,5.09,11.43,11.43,0,0,1,.12,1.38C351,153.47,351,153.63,351,153.63Z"/><path class="cls-8" d="M343.51,150.35a13.06,13.06,0,0,1,4.44,0,13.06,13.06,0,0,1-4.44,0Z"/><path class="cls-8" d="M325.42,150.35a54,54,0,0,1,9.05,0,54,54,0,0,1-9.05,0Z"/><path class="cls-8" d="M307.33,150.35a53.86,53.86,0,0,1,9,0,53.86,53.86,0,0,1-9,0Z"/><path class="cls-8" d="M289.23,150.35a54,54,0,0,1,9,0,54,54,0,0,1-9,0Z"/><path class="cls-8" d="M271.14,150.35a53.86,53.86,0,0,1,9,0,53.86,53.86,0,0,1-9,0Z"/><path class="cls-8" d="M253,150.35a54,54,0,0,1,9,0,54,54,0,0,1-9,0Z"/><path class="cls-8" d="M235,150.35a54,54,0,0,1,9.05,0,54,54,0,0,1-9.05,0Z"/><path class="cls-8" d="M216.85,150.35a26.55,26.55,0,0,1,4.53-.19,26.38,26.38,0,0,1,4.52.19,54,54,0,0,1-9.05,0Z"/><path class="cls-8" d="M198.76,150.35a26.47,26.47,0,0,1,4.52-.19,26.55,26.55,0,0,1,4.53.19,27.84,27.84,0,0,1-4.53.19A27.76,27.76,0,0,1,198.76,150.35Z"/><path class="cls-8" d="M180.67,150.35a26.38,26.38,0,0,1,4.52-.19,26.38,26.38,0,0,1,4.52.19,27.66,27.66,0,0,1-4.52.19A27.66,27.66,0,0,1,180.67,150.35Z"/><path class="cls-8" d="M162.57,150.35a26.55,26.55,0,0,1,4.53-.19,26.47,26.47,0,0,1,4.52.19,27.76,27.76,0,0,1-4.52.19A27.84,27.84,0,0,1,162.57,150.35Z"/><path class="cls-8" d="M149.09,154.78a25.35,25.35,0,0,1-.19-4.43l.19-.19h1.73l1.41,0a4.31,4.31,0,0,1,1.3.14,4.56,4.56,0,0,1-1.3.13l-1.41,0-.84,0h-.89l.19-.19A25.35,25.35,0,0,1,149.09,154.78Z"/><path class="cls-8" d="M149.09,171.36a22.16,22.16,0,0,1-.19-4.14,22.31,22.31,0,0,1,.19-4.15,22.31,22.31,0,0,1,.19,4.15A22.16,22.16,0,0,1,149.09,171.36Z"/><path class="cls-8" d="M149.09,188a22.31,22.31,0,0,1-.19-4.15,22.31,22.31,0,0,1,.19-4.15,22.31,22.31,0,0,1,.19,4.15A22.31,22.31,0,0,1,149.09,188Z"/><path class="cls-8" d="M149.09,204.53a22.31,22.31,0,0,1-.19-4.15,22.16,22.16,0,0,1,.19-4.14,22.16,22.16,0,0,1,.19,4.14A22.31,22.31,0,0,1,149.09,204.53Z"/><path class="cls-8" d="M149.09,221.11a45.31,45.31,0,0,1,0-8.29,45.31,45.31,0,0,1,0,8.29Z"/><path class="cls-8" d="M149.09,237.69a45.31,45.31,0,0,1,0-8.29,45.31,45.31,0,0,1,0,8.29Z"/><path class="cls-8" d="M149.09,254.27a45.31,45.31,0,0,1,0-8.29,45.31,45.31,0,0,1,0,8.29Z"/><path class="cls-8" d="M149.09,270.85a45.31,45.31,0,0,1,0-8.29,45.31,45.31,0,0,1,0,8.29Z"/><path class="cls-8" d="M153.53,283.58a26.75,26.75,0,0,1-4.44.19c-.39-.39-.11-.11-.19-.2h0v-1.7c0-.49,0-1,0-1.41a4.75,4.75,0,0,1,.14-1.3,4.75,4.75,0,0,1,.14,1.3c0,.46,0,.92,0,1.41,0,.27,0,.55,0,.83v.87h0l-.19-.19A24.89,24.89,0,0,1,153.53,283.58Z"/><path class="cls-8" d="M171.36,283.58a27,27,0,0,1-4.46.19,27,27,0,0,1-4.46-.19,25.12,25.12,0,0,1,4.46-.2A25.12,25.12,0,0,1,171.36,283.58Z"/><path class="cls-8" d="M189.19,283.58a27,27,0,0,1-4.46.19,27,27,0,0,1-4.46-.19,25.12,25.12,0,0,1,4.46-.2A25.12,25.12,0,0,1,189.19,283.58Z"/><path class="cls-8" d="M207,283.58a26.9,26.9,0,0,1-4.46.19,26.83,26.83,0,0,1-4.45-.19,25,25,0,0,1,4.45-.2A25,25,0,0,1,207,283.58Z"/><path class="cls-8" d="M224.85,283.58a52.32,52.32,0,0,1-8.91,0,25,25,0,0,1,4.46-.2A25,25,0,0,1,224.85,283.58Z"/><path class="cls-8" d="M242.69,283.58a52.44,52.44,0,0,1-8.92,0,49.83,49.83,0,0,1,8.92,0Z"/><path class="cls-8" d="M260.52,283.58a52.44,52.44,0,0,1-8.92,0,49.83,49.83,0,0,1,8.92,0Z"/><path class="cls-8" d="M278.35,283.58a52.44,52.44,0,0,1-8.92,0,49.83,49.83,0,0,1,8.92,0Z"/><path class="cls-8" d="M296.18,283.58a52.32,52.32,0,0,1-8.91,0,49.72,49.72,0,0,1,8.91,0Z"/><path class="cls-8" d="M314,283.58a52.32,52.32,0,0,1-8.91,0,49.72,49.72,0,0,1,8.91,0Z"/><path class="cls-8" d="M331.85,283.58a52.44,52.44,0,0,1-8.92,0,49.83,49.83,0,0,1,8.92,0Z"/><path class="cls-8" d="M345.2,283.58a13.06,13.06,0,0,1-4.44,0,12.42,12.42,0,0,1,4.44,0Z"/><g class="cls-11"><path d="M210.33,227.21s0,7.4-2.19,11.87-3,6.19-7.68,7.91-64.26,8.25-64.26,8.25V235.12Z"/></g><g class="cls-11"><path d="M209.27,199.34S210,191.8,191,189c-21.66-3.21-54.81-7.14-54.81-7.14v14.27Z"/></g><rect class="cls-6" x="127.58" y="192.5" width="82.75" height="48.73" rx="10.58"/><path class="cls-8" d="M138.17,241.23l-.64,0a9.3,9.3,0,0,1-1.83-.24,10.56,10.56,0,0,1-5.93-3.78,10.61,10.61,0,0,1-2.11-4.69,15.92,15.92,0,0,1-.18-3v-3.18c0-4.4,0-9.41,0-14.94,0-2.77,0-5.67,0-8.7a10.69,10.69,0,0,1,4.25-8.2,10.43,10.43,0,0,1,4.57-2,13,13,0,0,1,2.56-.18h13.28l47.63,0a10.71,10.71,0,0,1,8.38,4,11.52,11.52,0,0,1,1.6,2.7,11.4,11.4,0,0,1,.75,3c.08,1,.05,2.05.05,3.07v17.75c0,1.92,0,3.82,0,5.69,0,.94,0,1.86,0,2.81a12.88,12.88,0,0,1-.18,1.39,11.62,11.62,0,0,1-.36,1.35,10.79,10.79,0,0,1-7.71,7,11.64,11.64,0,0,1-1.29.23l-1.31.06h-7.51l-18.11,0-26.23-.06-7.13,0-1.85,0-.63,0s.21,0,.63,0l1.85,0,7.13,0,26.23-.06,18.11,0h5a22,22,0,0,0,5.06-.29A10.43,10.43,0,0,0,209.6,234a15.36,15.36,0,0,0,.55-5.44v-5.69q0-5.74,0-11.73v-6c0-1,0-2,0-3a11.28,11.28,0,0,0-.72-2.91,11.11,11.11,0,0,0-1.55-2.61,11.66,11.66,0,0,0-2.25-2.07,10.47,10.47,0,0,0-5.83-1.78l-47.63,0H138.83a13.76,13.76,0,0,0-2.5.17,10.22,10.22,0,0,0-4.44,1.94,10.39,10.39,0,0,0-4.14,8c0,3,0,5.92,0,8.69,0,5.53,0,10.54,0,14.94,0,1.1,0,2.16,0,3.18a16.35,16.35,0,0,0,.16,2.93,10.52,10.52,0,0,0,2,4.63,10.36,10.36,0,0,0,3.06,2.67,10.56,10.56,0,0,0,2.77,1.12,10.16,10.16,0,0,0,1.83.29C138,241.2,138.17,241.23,138.17,241.23Z"/><circle class="cls-8" cx="185.41" cy="218.7" r="17.72"/><path class="cls-12" d="M190,233.17a18.75,18.75,0,0,0,4.22-2.22,15.05,15.05,0,0,0,3.58-3.69,13.87,13.87,0,0,0,1.91-12,15.19,15.19,0,0,0-2.25-4.62,19.23,19.23,0,0,0-3.33-3.41,1.73,1.73,0,0,1,.29.17,7.07,7.07,0,0,1,.78.55,13.53,13.53,0,0,1,2.48,2.53,15,15,0,0,1,2.37,4.68,14,14,0,0,1-2,12.35,14.85,14.85,0,0,1-3.71,3.72,14,14,0,0,1-3.13,1.64,8.94,8.94,0,0,1-.92.28A1.24,1.24,0,0,1,190,233.17Z"/><path class="cls-6" d="M462.71,105.16a32.73,32.73,0,1,1-35.5-29.6A32.69,32.69,0,0,1,462.71,105.16Z"/><g class="cls-11"><path d="M454.88,105.07c-.15,0-.36-1.06-.93-2.92a26.39,26.39,0,0,0-3.54-7.36,26.11,26.11,0,0,0-3.69-4.22,24.79,24.79,0,0,0-5.26-3.66,24.3,24.3,0,0,0-6.66-2.32,23.94,23.94,0,0,0-3.71-.43,26.22,26.22,0,0,0-3.85.16,27.36,27.36,0,0,0-3.77.77A24.06,24.06,0,0,0,420,86.38a23.36,23.36,0,0,0-3.15,1.75,22.51,22.51,0,0,0-2.76,2.1,24.58,24.58,0,0,0-6.8,9.79,26.42,26.42,0,0,0-1.69,8c-.1,1.95,0,3-.19,3.06s-.43-1-.55-3.06A23.17,23.17,0,0,1,406,99.57a25.12,25.12,0,0,1,6.9-10.65,23.86,23.86,0,0,1,2.92-2.3,24.27,24.27,0,0,1,3.38-1.93,25.05,25.05,0,0,1,3.77-1.43,28.77,28.77,0,0,1,4.07-.83,27.59,27.59,0,0,1,4.15-.16,24.85,24.85,0,0,1,4,.48,25.79,25.79,0,0,1,7.13,2.61,25,25,0,0,1,9.25,8.69,23.26,23.26,0,0,1,3.14,7.92C455,104,455,105.06,454.88,105.07Z"/></g><path class="cls-8" d="M405.28,110.36a.51.51,0,0,1,.05.2l.1.58c.05.27.1.58.16,1a9.64,9.64,0,0,0,.25,1.29,25.27,25.27,0,0,0,3.18,7.67,26.1,26.1,0,0,0,3.56,4.49l1.17,1.06c.2.18.39.37.61.54l.65.49c.45.32.88.68,1.36,1l1.46.89a25.71,25.71,0,0,0,6.77,2.63,27,27,0,0,0,7.77.52,26.69,26.69,0,0,0,7.55-1.93,25.54,25.54,0,0,0,6.18-3.82l1.28-1.15c.42-.38.77-.82,1.15-1.21l.56-.61c.18-.2.33-.42.49-.63l1-1.26a26.33,26.33,0,0,0,2.69-5.07,25.19,25.19,0,0,0,1.72-8.12,9.64,9.64,0,0,0,0-1.31c0-.37,0-.69,0-1V106a.63.63,0,0,1,0-.2s0,.07,0,.2,0,.35,0,.59,0,.59.06,1a8.06,8.06,0,0,1,0,1.31,24.43,24.43,0,0,1-1.61,8.22,25.19,25.19,0,0,1-2.68,5.15c-.31.42-.63.85-1,1.28-.16.21-.32.44-.5.65l-.56.61c-.38.41-.74.85-1.16,1.24l-1.29,1.17a25.78,25.78,0,0,1-6.26,3.9,27,27,0,0,1-7.66,2,27.45,27.45,0,0,1-7.89-.53,25.82,25.82,0,0,1-6.86-2.69l-1.49-.91c-.48-.32-.91-.68-1.36-1l-.67-.5c-.21-.17-.4-.37-.61-.55l-1.17-1.08a25.24,25.24,0,0,1-3.57-4.58,24.12,24.12,0,0,1-3.09-7.78,9.29,9.29,0,0,1-.22-1.3q-.08-.56-.12-1l-.07-.59C405.28,110.43,405.28,110.36,405.28,110.36Z"/><path class="cls-6" d="M416.59,201.64a19,19,0,1,1-8.89-25.34A19,19,0,0,1,416.59,201.64Z"/><g class="cls-11"><path d="M412.71,199.27a8.57,8.57,0,0,1,.41-1.74,15.06,15.06,0,0,0,.43-4.72,14.69,14.69,0,0,0-.59-3.21,13.93,13.93,0,0,0-1.53-3.39,14.08,14.08,0,0,0-2.63-3.14,14.34,14.34,0,0,0-1.73-1.32,16,16,0,0,0-2-1.07,15.58,15.58,0,0,0-2.11-.74,16.09,16.09,0,0,0-2.14-.4,13.34,13.34,0,0,0-2.09-.06,12.89,12.89,0,0,0-2,.22,14.63,14.63,0,0,0-3.55,1.14,15,15,0,0,0-2.76,1.72,15.19,15.19,0,0,0-3.22,3.48c-.64.94-.93,1.51-1,1.47a4.23,4.23,0,0,1,.64-1.69A13.47,13.47,0,0,1,390,182a14.68,14.68,0,0,1,2.87-1.94,14.94,14.94,0,0,1,3.75-1.32,13.61,13.61,0,0,1,2.14-.28,14.22,14.22,0,0,1,4.57.46,14.47,14.47,0,0,1,4.4,2,15.42,15.42,0,0,1,1.85,1.43,14.16,14.16,0,0,1,1.55,1.65,15.62,15.62,0,0,1,1.23,1.77,15.06,15.06,0,0,1,1.54,3.67,14.5,14.5,0,0,1,.48,3.43,13.48,13.48,0,0,1-.79,4.88A4.12,4.12,0,0,1,412.71,199.27Z"/></g><path class="cls-8" d="M386.4,187.13s-.23.6-.59,1.68a15,15,0,0,0-.68,4.77,15.51,15.51,0,0,0,.45,3.29,15.29,15.29,0,0,0,1.44,3.52,14.75,14.75,0,0,0,2.58,3.31,14.43,14.43,0,0,0,8,3.84,15.08,15.08,0,0,0,4.2-.06,15.8,15.8,0,0,0,3.64-1.09,15,15,0,0,0,2.85-1.72,14.65,14.65,0,0,0,3.28-3.51c.62-1,.91-1.53.94-1.51a1.66,1.66,0,0,1-.18.42,11.49,11.49,0,0,1-.63,1.17,13.79,13.79,0,0,1-3.25,3.65,15.47,15.47,0,0,1-2.87,1.79,15.87,15.87,0,0,1-3.72,1.15,15.09,15.09,0,0,1-4.31.08,14.6,14.6,0,0,1-8.23-3.94,15,15,0,0,1-2.63-3.41,14.12,14.12,0,0,1-1.85-7,14,14,0,0,1,.81-4.81,12,12,0,0,1,.51-1.23A2.56,2.56,0,0,1,386.4,187.13Z"/><path class="cls-6" d="M102.69,198.93a31,31,0,1,1-35.16-26.18A31,31,0,0,1,102.69,198.93Z"/><g class="cls-11"><path d="M95.27,199.26a14.12,14.12,0,0,1-1-2.73,25.24,25.24,0,0,0-3.75-6.78,23.48,23.48,0,0,0-8.88-7,22.94,22.94,0,0,0-10-2.05,25,25,0,0,0-3.63.35,23.73,23.73,0,0,0-3.53.92,22.58,22.58,0,0,0-3.26,1.41,21.72,21.72,0,0,0-2.89,1.82,22.72,22.72,0,0,0-2.51,2.13A23.52,23.52,0,0,0,49.9,197a25.1,25.1,0,0,0-1.17,7.65,13.87,13.87,0,0,1,0,2.91c-.1,0-.46-1-.68-2.87a21.94,21.94,0,0,1,.65-8.05,24,24,0,0,1,2.11-5.23,24.25,24.25,0,0,1,3.87-5.21,21.4,21.4,0,0,1,2.65-2.34,22.84,22.84,0,0,1,3.1-2,23.86,23.86,0,0,1,3.49-1.55,26.64,26.64,0,0,1,3.81-1,25,25,0,0,1,3.92-.37,24,24,0,0,1,3.82.25A23.53,23.53,0,0,1,79,180a23.79,23.79,0,0,1,12.5,9,21.76,21.76,0,0,1,3.38,7.34C95.37,198.18,95.38,199.24,95.27,199.26Z"/></g><path class="cls-8" d="M48.58,206.85s0,.06.06.19l.13.54.2.9a7.9,7.9,0,0,0,.31,1.2,23.4,23.4,0,0,0,3.41,7.1,24.66,24.66,0,0,0,3.61,4.07l1.16.94c.2.16.39.33.6.47l.64.43c.44.29.87.6,1.34.87l1.44.77A24.25,24.25,0,0,0,68,226.46a23.57,23.57,0,0,0,14.43-2.13,24.23,24.23,0,0,0,5.65-3.94l1.15-1.15c.37-.39.69-.82,1-1.22l.49-.6c.16-.2.29-.42.44-.62.28-.42.56-.84.84-1.24a25.35,25.35,0,0,0,2.28-4.94,23.82,23.82,0,0,0,1.2-7.78,8,8,0,0,0,0-1.24c0-.36,0-.66-.07-.91l0-.57c0-.12,0-.19,0-.19a1.3,1.3,0,0,1,0,.19c0,.15,0,.33.07.56s.06.56.11.91a9,9,0,0,1,.08,1.24,22.76,22.76,0,0,1-1.1,7.87,24.39,24.39,0,0,1-2.26,5L91.48,217c-.15.21-.28.43-.44.64l-.5.61c-.34.4-.66.84-1,1.23l-1.17,1.18a24.47,24.47,0,0,1-5.72,4,26,26,0,0,1-7.16,2.27,25.75,25.75,0,0,1-7.5-.1,24.22,24.22,0,0,1-6.64-2.19l-1.46-.78c-.47-.27-.9-.6-1.35-.89l-.65-.44c-.21-.15-.4-.32-.61-.48l-1.17-1a24.27,24.27,0,0,1-3.62-4.15,23.06,23.06,0,0,1-3.33-7.21,7.59,7.59,0,0,1-.27-1.22c-.07-.35-.12-.65-.17-.9L48.6,207A1.29,1.29,0,0,1,48.58,206.85Z"/><path class="cls-8" d="M493.06,296.68c0,.11-110.39.19-246.52.19S0,296.79,0,296.68s110.36-.19,246.54-.19S493.06,296.58,493.06,296.68Z"/><path class="cls-13" d="M378.12,157.8a39.64,39.64,0,0,0-.26-5l-10.11,2.25c-.11.64-1.38,8.71-1.17,9.5L378,167.74S378.12,158.09,378.12,157.8Z"/><path class="cls-13" d="M378.13,167s0-.09.05-.22c.12-1.1.05-5.91-.54-6.11s-2.3.14-2.41.77.27,6,.27,6,.12.85,1.55,1.06C377.94,168.67,378.13,167,378.13,167Z"/><path class="cls-13" d="M375.25,168.72s0-.09.05-.22c.12-1.1.05-5.91-.54-6.12s-2.3.15-2.41.78.27,6.05.27,6.05.11.85,1.55,1.06C375.05,170.4,375.25,168.72,375.25,168.72Z"/><path class="cls-13" d="M372.43,169.58s0-.08.05-.22c.12-1.1,0-5.91-.54-6.11s-2.3.14-2.42.78.28,6,.28,6,.11.85,1.54,1.06C372.23,171.26,372.43,169.58,372.43,169.58Z"/><path class="cls-13" d="M369.62,170.4s0-.09.05-.23c.12-1.1.05-5.91-.54-6.11s-2.3.14-2.41.78.27,6,.27,6,.12.86,1.55,1.06C369.42,172.07,369.62,170.4,369.62,170.4Z"/><path class="cls-14" d="M375.21,162.84a9.77,9.77,0,0,1,.22,2.34,9.4,9.4,0,0,1-.07,2.32,8.93,8.93,0,0,1-.23-2.34A8.53,8.53,0,0,1,375.21,162.84Z"/><path class="cls-14" d="M372.37,162.83a17.08,17.08,0,0,1,.27,3.32,18.57,18.57,0,0,1,0,3.34,18.37,18.37,0,0,1-.27-3.33A18.43,18.43,0,0,1,372.37,162.83Z"/><g class="cls-15"><path class="cls-14" d="M369.49,163.06a17.36,17.36,0,0,1,.27,3.33,18.57,18.57,0,0,1,0,3.34,18.37,18.37,0,0,1-.27-3.33A18.62,18.62,0,0,1,369.49,163.06Z"/></g><path class="cls-13" d="M367.68,155.35s-4,9.1-3.41,9.66a13.45,13.45,0,0,0,2.46,1.43Z"/><path class="cls-13" d="M345.56,33.41l-2.94,34-17-1.36c-.1-2,0-9.68,0-9.68s-7.09-1.1-7.17-8.19c0-3.44.45-10.55,1-16.95a13.12,13.12,0,0,1,13.84-12h0A13.12,13.12,0,0,1,345.56,33.41Z"/><path class="cls-14" d="M325.62,56.27a16.48,16.48,0,0,0,9.23-2.63s-2.18,5.1-9.25,4.46Z"/><path class="cls-8" d="M321.31,36.19a1,1,0,0,0,1,1,1,1,0,0,0,1-.91,1,1,0,0,0-1-1A1,1,0,0,0,321.31,36.19Z"/><path class="cls-8" d="M320.94,34.8c.12.13.89-.44,2-.43s1.88.54,2,.41-.07-.3-.41-.55a2.77,2.77,0,0,0-1.61-.49,2.69,2.69,0,0,0-1.58.5C321,34.5,320.88,34.74,320.94,34.8Z"/><path class="cls-8" d="M332,36.19a1,1,0,0,0,1,1,1,1,0,0,0,1-.91,1,1,0,0,0-1-1A1,1,0,0,0,332,36.19Z"/><path class="cls-8" d="M331.64,35c.12.13.89-.43,2-.43s1.89.55,2,.41-.06-.29-.41-.55a2.85,2.85,0,0,0-1.61-.49,2.57,2.57,0,0,0-1.57.51C331.69,34.7,331.58,34.94,331.64,35Z"/><path class="cls-8" d="M327.69,43.08a6.77,6.77,0,0,0-1.77-.32c-.28,0-.54-.09-.59-.28a1.41,1.41,0,0,1,.19-.82l.82-2.12A36.73,36.73,0,0,0,328.19,34a35.79,35.79,0,0,0-2.29,5.38c-.28.74-.54,1.45-.79,2.13A1.59,1.59,0,0,0,325,42.6a.7.7,0,0,0,.45.41,2.24,2.24,0,0,0,.48.06A7.45,7.45,0,0,0,327.69,43.08Z"/><path class="cls-8" d="M330.89,43.83c-.18,0-.18,1.17-1.19,2s-2.27.71-2.28.87.28.23.81.25a3,3,0,0,0,1.91-.67,2.58,2.58,0,0,0,.92-1.68C331.1,44.11,331,43.82,330.89,43.83Z"/><path class="cls-8" d="M331.36,30.74c.11.29,1.19.15,2.47.3s2.31.51,2.48.24-.1-.4-.52-.69a4.38,4.38,0,0,0-3.77-.42C331.55,30.36,331.31,30.59,331.36,30.74Z"/><path class="cls-8" d="M321.34,31.65c.19.25.94,0,1.84,0s1.67.16,1.84-.1,0-.37-.37-.6a2.5,2.5,0,0,0-1.5-.41,2.56,2.56,0,0,0-1.47.5C321.36,31.27,321.25,31.53,321.34,31.65Z"/><path class="cls-8" d="M347.08,29c-.41,3.44-1.35,7.79-1.62,11.31a1.73,1.73,0,0,1-.25.93c-.51.67-1.71,2.11-2.32,1.54-1.49-1.39-2.08-5.28-2.37-7.3s-.25-4.07-.53-6.09l0-.15a5.55,5.55,0,0,0-2.05-3.59,4.48,4.48,0,0,0-.84-.44c-2.08-.73-5.55.62-7.62,1.38-1.07.39-2.11.87-3.15,1.34a7.33,7.33,0,0,1-7.31-.61c-1.26-.91-1.37-3.8-.82-5.63,1.49-4.94,7.7-6.63,15.66-4.75S347.88,22,347.08,29Z"/><path class="cls-13" d="M343.17,36.61c.12,0,4.86-1.44,4.71,3.41s-5,3.69-5,3.55S343.17,36.61,343.17,36.61Z"/><path class="cls-14" d="M344.43,41.78s.08.06.22.13a.87.87,0,0,0,.63,0,2.1,2.1,0,0,0,1-1.85,2.78,2.78,0,0,0-.2-1.21,1,1,0,0,0-.61-.67.43.43,0,0,0-.51.21c-.07.14,0,.24-.07.24s-.1-.08-.05-.28a.5.5,0,0,1,.2-.3.66.66,0,0,1,.47-.11,1.22,1.22,0,0,1,.86.78,3,3,0,0,1,.25,1.36,2.21,2.21,0,0,1-1.3,2.05.89.89,0,0,1-.77-.15C344.43,41.9,344.41,41.79,344.43,41.78Z"/><path class="cls-16" d="M347,29.36a7.47,7.47,0,0,1-7,.12,21.92,21.92,0,0,0,3.49.42A22.37,22.37,0,0,0,347,29.36Z"/><path class="cls-16" d="M346.83,30.74a5.66,5.66,0,0,1-3.32.93,5.74,5.74,0,0,1-3.35-.8,20.8,20.8,0,0,0,3.35.41A19.28,19.28,0,0,0,346.83,30.74Z"/><path class="cls-8" d="M313.13,272l3.14,14.49s-13.67,8.06-13.35,10.8l28.32-5.09-4-22.78Z"/><path class="cls-16" d="M331.24,292.23l-.49-2.28-27,5.73s-1.16.78-.86,1.64Z"/><path class="cls-8" d="M345.33,273.62l.47,14.82s-14.91,5.46-15.09,8.2l28.77.13.22-23.12Z"/><g class="cls-17"><path class="cls-16" d="M359.48,296.77l-.07-2.33-27.56.75s-1.28.55-1.14,1.45Z"/></g><path class="cls-8" d="M311.58,284.46s-14.75-72.35-14.76-73.8l26.34-13.93,10.2,84.91Z"/><path class="cls-8" d="M344.75,286.88l-20.37-125.4v-27L352.21,137c.35,1,9.46,150,9.46,150l-2.87-.17H344.75"/><polygon class="cls-8" points="308.37 132.52 296.81 210.66 322.64 204.4 333.16 135.06 308.37 132.52"/><path class="cls-16" d="M332.25,139.15a3.58,3.58,0,0,0,0,.38c0,.27.07.64.12,1.12.11,1,.28,2.45.49,4.31.44,3.74,1.1,9.14,2,15.82,1.73,13.34,4.34,31.75,7.15,52.09,1.4,10.18,2.69,19.87,3.78,28.71.29,2.2.51,4.36.82,6.45l.93,6.06c.6,3.91,1.15,7.55,1.65,10.88,1,6.66,1.79,12,2.31,15.77.26,1.86.45,3.31.56,4.3.06.49.1.86.12,1.12a2.55,2.55,0,0,1,0,.28c0,.08-.05,0,0,0v0s.05,0,.05,0a2.19,2.19,0,0,0,0-.29c0-.25,0-.63-.07-1.12-.1-1-.26-2.44-.5-4.31-.48-3.73-1.23-9.12-2.2-15.78-.49-3.33-1-7-1.61-10.89q-.43-2.94-.91-6.07c-.3-2.08-.52-4.24-.8-6.45-1.08-8.83-2.36-18.53-3.76-28.71-2.81-20.34-5.46-38.74-7.25-52.08-.88-6.66-1.59-12.05-2.08-15.8l-.56-4.3q-.11-.72-.15-1.11C332.28,139.28,332.25,139.15,332.25,139.15Z"/><path class="cls-16" d="M316.72,283.79s0-.13-.05-.38-.1-.61-.17-1.08c-.17-1-.41-2.36-.71-4.16-.64-3.63-1.56-8.85-2.69-15.3-2.3-12.92-5.47-30.75-9-50.44a11.52,11.52,0,0,1-.22-3.65c.15-1.21.36-2.43.53-3.63.38-2.41.74-4.78,1.1-7.11.74-4.66,1.46-9.15,2.17-13.43,1.43-8.55,2.8-16.23,4-22.67s2.31-11.63,3.13-15.21c.39-1.79.74-3.17,1-4.11.1-.46.18-.81.24-1.07s.08-.36.08-.36a2.81,2.81,0,0,0-.11.36c-.07.25-.16.6-.28,1.06-.24.93-.62,2.31-1,4.09-.87,3.57-2,8.76-3.24,15.19s-2.66,14.12-4.1,22.67c-.72,4.27-1.45,8.76-2.19,13.42q-.54,3.51-1.11,7.11c-.17,1.21-.37,2.41-.53,3.65a11.88,11.88,0,0,0,.22,3.76c3.54,19.69,6.75,37.5,9.08,50.42,1.17,6.44,2.13,11.65,2.79,15.27.33,1.79.6,3.19.78,4.15l.21,1.08Z"/><path class="cls-16" d="M324.38,160.6c-.1,0,1.11,8.12,2.69,18.09s2.94,18.06,3,18-1.11-8.12-2.69-18.09S324.48,160.58,324.38,160.6Z"/><path class="cls-16" d="M344.51,286.66a2.83,2.83,0,0,0,.67.11c.43.05,1.05.11,1.83.17,1.54.13,3.69.24,6.06.28s4.51,0,6.06-.08c.78,0,1.41-.07,1.84-.11a2.51,2.51,0,0,0,.67-.09,20.44,20.44,0,0,0-2.51-.05c-1.55,0-3.69,0-6.06,0s-4.5-.11-6.05-.17A20.27,20.27,0,0,0,344.51,286.66Z"/><path class="cls-16" d="M311.58,284.46a5,5,0,0,0,.86,0l2.34-.24c2-.23,4.7-.57,7.71-1s5.73-.76,7.7-1l2.33-.35a4.64,4.64,0,0,0,.84-.17,3.14,3.14,0,0,0-.86,0c-.56.05-1.36.13-2.34.25-2,.22-4.71.55-7.71.94s-5.73.77-7.7,1.06l-2.33.36A3.21,3.21,0,0,0,311.58,284.46Z"/><path class="cls-16" d="M272.8,86.34,289.41,99s15.46-26.36,16.82-28,4.84-3.39,4.84-3.39l-1.92,33.8s-8.36,21.33-19.83,20.17c-8.78-.88-24-24.06-24-24.06Z"/><g class="cls-7"><path d="M289.1,98.57a14.61,14.61,0,0,0-1.68,12.16,1.82,1.82,0,0,0,.68,1.07,1.31,1.31,0,0,0,1.66-.56,3.82,3.82,0,0,0,.43-1.87,4.26,4.26,0,0,0,1.23,1.61,1.47,1.47,0,0,0,1.87-.07c.55-.6.24-1.56-.09-2.32q-2.11-4.8-4.24-9.62"/></g><path class="cls-8" d="M277,90.12a63.24,63.24,0,0,1-3.8,6.38,61.82,61.82,0,0,1-4.19,6.13,62.32,62.32,0,0,1,3.81-6.38A60.83,60.83,0,0,1,277,90.12Z"/><path class="cls-8" d="M272.75,89.66s.17-.26.55-.12a.7.7,0,0,1,0,1.29.69.69,0,0,1-1-.76c.1-.4.4-.45.4-.39s-.1.18-.09.42.21.49.51.33a.33.33,0,0,0,0-.6C273,89.68,272.78,89.72,272.75,89.66Z"/><path class="cls-8" d="M289.43,107a9.29,9.29,0,0,1-.75-4,9.06,9.06,0,0,1,.63-4c.13,0-.22,1.8-.18,4S289.56,106.94,289.43,107Z"/><path class="cls-8" d="M292.65,106.86a13.11,13.11,0,0,1-2.13-3.73A13.31,13.31,0,0,1,289.27,99c.13,0,.73,1.77,1.67,3.93S292.76,106.8,292.65,106.86Z"/><path class="cls-16" d="M345.83,64.37l-2.52-5H325.15L322.29,65l-11.22,2.54L306.24,140a5,5,0,0,0,.64,2.63h0L351,144.27l1.79.73c1.59-1,.6-5,.62-6.9l.56-35.84,8.73-28.64Z"/><g class="cls-7"><path d="M327,66.88l3.21-3.21q1.8,4.35,3.61,8.7a92,92,0,0,0,11.81-8.27L333.41,68l-3.1-8.22a31.32,31.32,0,0,1-3.07,7.11"/></g><path class="cls-16" d="M378.2,155.11l-11.89.62,0-34.13L354,102.26l8.73-28.64c1.8.71,15.35,34.74,18.8,44a10.29,10.29,0,0,1,.64,4.18Z"/><path class="cls-8" d="M311.07,82.52c.13,0-.46,7-1.32,15.63s-1.64,15.6-1.76,15.59.46-7,1.32-15.64S311,82.51,311.07,82.52Z"/><path class="cls-8" d="M330.3,59.82a41.82,41.82,0,0,1-2.16,5.82l-.24.58a1.57,1.57,0,0,1-.4.61.74.74,0,0,1-.79,0c-.21-.11-.34-.22-.5-.32l-1.64-1.11a7.75,7.75,0,0,1-1.44-1.11,7.29,7.29,0,0,1,1.62.85l1.68,1c.32.2.65.44.8.27a3.8,3.8,0,0,0,.49-1A43.4,43.4,0,0,1,330.3,59.82Z"/><path class="cls-8" d="M344.75,64.25A19.69,19.69,0,0,1,342,65.37c-1.73.64-4.13,1.49-6.79,2.4l-1.46.49-.2.07-.08-.19c-.93-2.27-1.74-4.28-2.3-5.72a16.21,16.21,0,0,1-.83-2.36,14.9,14.9,0,0,1,1.1,2.24c.63,1.42,1.49,3.4,2.45,5.67l-.28-.13,1.45-.5c2.66-.91,5.08-1.71,6.84-2.27A19.66,19.66,0,0,1,344.75,64.25Z"/><path class="cls-8" d="M360.85,74.64c0,.14-2.53.83-5.49,2.16s-5.2,2.75-5.28,2.63a5.85,5.85,0,0,1,1.39-1.05,26.88,26.88,0,0,1,3.71-2A27.54,27.54,0,0,1,359.13,75,6.18,6.18,0,0,1,360.85,74.64Z"/><path class="cls-8" d="M330.3,59.82s0,.07,0,.22l0,.63c0,.56.05,1.38.06,2.45,0,2.12,0,5.19-.14,9-.27,7.59-1.22,18-2.74,29.53-.73,5.75-1.54,11.21-2.09,16.19a106,106,0,0,0-.72,13.28,67,67,0,0,0,.71,8.94c.12,1,.29,1.86.37,2.41,0,.26.07.46.1.63a1.73,1.73,0,0,1,0,.22.8.8,0,0,1-.07-.21c0-.17-.08-.37-.14-.62-.1-.55-.3-1.35-.46-2.4a61.76,61.76,0,0,1-.85-9,101.44,101.44,0,0,1,.63-13.33c.52-5,1.32-10.46,2.06-16.2,1.51-11.48,2.51-21.92,2.86-29.5.19-3.78.25-6.85.28-9,0-1,0-1.85,0-2.45,0-.25,0-.46,0-.63A.89.89,0,0,1,330.3,59.82Z"/><path class="cls-8" d="M378.85,149.89a44.83,44.83,0,0,1-6.31-.08,42.79,42.79,0,0,1-6.28-.54,90.2,90.2,0,0,1,12.59.62Z"/><path class="cls-8" d="M368.3,151.22c0,.05,0,.17,0,.32s.19.25.35.13.1-.27-.05-.37-.26-.06-.3-.11.07-.24.4-.2a.58.58,0,0,1,.43.35.59.59,0,0,1-.19.68.6.6,0,0,1-.71,0,.57.57,0,0,1-.24-.5C368,151.24,368.27,151.16,368.3,151.22Z"/><g class="cls-7"><path d="M354.16,102.17l-3.88-7a96.23,96.23,0,0,0,2.56,36.93q.6-14.88,1.19-29.77"/></g><path class="cls-8" d="M334.47,89.31a3.55,3.55,0,0,1,.7,0l2.07-.05c1.8,0,4.39-.08,7.51-.1H345l0,.21c-.2,2.73-.43,5.9-.68,9.27v.12l-.11.06-.46.25c-1.75.91-3.43,1.8-5,2.64l-.13.06-.11-.09-4.66-3.81-.08-.06v-.1c.22-2.5.4-4.59.54-6.14.06-.67.12-1.22.16-1.66a2.63,2.63,0,0,1,.08-.55,3.47,3.47,0,0,1,0,.63c0,.45,0,1-.08,1.71-.08,1.52-.2,3.57-.33,6l-.07-.16,4.7,3.77-.23,0,5-2.65.46-.25-.12.19c.27-3.38.52-6.54.74-9.27l.2.21c-3,0-5.58-.06-7.39-.1l-2.11-.05A6.74,6.74,0,0,1,334.47,89.31Z"/><path class="cls-8" d="M312.66,142.94c0,.12-.94-.05-1.53-.94s-.41-1.81-.3-1.77.16.78.67,1.52S312.7,142.81,312.66,142.94Z"/><path class="cls-8" d="M313.81,142.46a3.12,3.12,0,0,1-1.25-2.05,3.17,3.17,0,0,1,.12-2.39c.13,0,0,1.06.32,2.28S313.91,142.38,313.81,142.46Z"/><path class="cls-8" d="M347.11,137.48a7.42,7.42,0,0,1-3.05,6.5,26.39,26.39,0,0,0,2-3A24.27,24.27,0,0,0,347.11,137.48Z"/><path class="cls-13" d="M271.87,87.72s-13.43-10.18-15.32-10.86c-3.12-1.13-3.87-.83-3.87-.83L260.05,84s-7.8,2.63-8.36,2.94-.84,2,1.06,2c1.56,0,9,.18,9,.18l6.16,4.5Z"/><path class="cls-8" d="M390.79,0h.44l1.31,0c.28,0,.6,0,1,0l1.15.16,1.34.2,1.5.37A24.07,24.07,0,0,1,404.75,4a26,26,0,0,1,7.52,7.31,26.38,26.38,0,0,1,4.26,12,27.28,27.28,0,0,1,.07,3.51c0,.59,0,1.2-.12,1.79l-.27,1.81a25.66,25.66,0,0,1-2.44,7.15,27.69,27.69,0,0,1-4.67,6.43,27.07,27.07,0,0,1-6.73,4.83,24.4,24.4,0,0,1-8.2,2.52,15.89,15.89,0,0,1-2.18.18,18.28,18.28,0,0,1-2.22,0,25.88,25.88,0,0,1-13.24-4.27l.27,0-9,3.61-.53.21.15-.55q1.35-4.95,2.64-9.6l0,.23a25.81,25.81,0,0,1-4.79-11,23.81,23.81,0,0,1-.35-5.62,17.27,17.27,0,0,1,.26-2.7c.06-.44.13-.87.2-1.31s.21-.85.31-1.27a25.73,25.73,0,0,1,10-14.61,24.69,24.69,0,0,1,6-3.14l1.34-.48,1.27-.33,1.17-.29c.37-.07.74-.11,1.07-.16.68-.08,1.28-.2,1.8-.23l1.32,0,.81,0h.27l-.27,0-.8.06L388.4.2c-.51,0-1.11.17-1.78.27A25.56,25.56,0,0,0,366.2,19.41c-.09.42-.22.83-.3,1.25s-.13.86-.19,1.29a16.63,16.63,0,0,0-.24,2.65,22.91,22.91,0,0,0,.36,5.51,25.28,25.28,0,0,0,4.73,10.73l.08.11,0,.13q-1.28,4.65-2.62,9.61l-.38-.34,9-3.62.14,0,.13.08a25.39,25.39,0,0,0,12.95,4.17,17.31,17.31,0,0,0,2.16,0,15.32,15.32,0,0,0,2.14-.18,23.91,23.91,0,0,0,8-2.45,26.72,26.72,0,0,0,6.59-4.72,27.23,27.23,0,0,0,4.58-6.27,25.32,25.32,0,0,0,2.42-7c.09-.59.18-1.19.27-1.77s.08-1.18.12-1.76a26.38,26.38,0,0,0-.05-3.45,25.41,25.41,0,0,0-11.47-19A24.31,24.31,0,0,0,397.43,1L396,.63,394.62.41,393.48.23c-.35,0-.67-.05-1-.07l-1.3-.1A2.19,2.19,0,0,1,390.79,0Z"/><path class="cls-6" d="M399.22,31.86a1,1,0,0,1-.3,0l-.87,0-3.23.05L384,32.05h-.09V32c-.08-.58-.17-1.18-.26-1.8-.75-5.26-1.42-10-1.86-13l.06.06h-2.89l-.76,0h-.27a1.39,1.39,0,0,1,.27,0l.76,0,2.89-.05h.06v.06c.45,3.06,1.15,7.75,1.93,13,.09.62.18,1.22.26,1.8l-.1-.09,10.85,0h4.1Z"/><path class="cls-6" d="M384.2,32.17l0,0h-.37l-.05-.37,0,0h0l0-.09-.21-1.49L381.68,17.3l-3.53,0c-.3,0-.35,0-.35-.11v0l0,0s0,0,.33-.05l.77,0,2.71,0v-.07l.08.07H382l0,.13a.5.5,0,0,0,0,.12l.07.06H382c.45,3.07,1.14,7.68,1.9,12.83l.24,1.63,10.68,0,4.1,0c.35,0,.4,0,.4.11s0,.1-.4.12l-.87,0-3.23,0-10.63.09Zm0-.23v0l2.88,0Zm-1-5.24.72,5.06h0l-.23-1.61Q383.45,28.38,383.21,26.7Z"/><path class="cls-6" d="M383.51,28.79h.3l.87,0,3.27,0,11.26-.11-.1.09c.32-1.9.67-4,1-6.08.19-1.09.37-2.16.55-3.18l.1.12-13.27,0h-5l1.06,0,3.93-.05,13.27-.12h.12l0,.12c-.18,1-.36,2.1-.55,3.19-.36,2.12-.71,4.17-1,6.07v.08h-.08l-11.26,0h-4.36S383.51,28.8,383.51,28.79Z"/><path class="cls-6" d="M388,28.92l-4.37,0c-.07,0-.16,0-.16-.1s.08-.09.16-.1l1.1,0,3.27-.05,11.09-.1,1-5.91c.17-1,.34-2,.51-3l-13,0-5.27,0c-.09,0-.18,0-.18-.11s.09-.09.18-.1l1.34,0,3.93-.06,13.1-.11v0l0,0H401l-.06.35,0,0h0l-1.52,8.87h0l0,0-.06.35H399l0,0v0ZM399,28.7h0Zm1.73-9.06c-.16,1-.33,2-.51,3l-1,5.88h0l1.52-8.87Zm-.15-.2-3.25,0,3.25,0Z"/><path class="cls-6" d="M387.81,36.07s0-.14-.09-.36a1.53,1.53,0,0,0-.56-.79,1.44,1.44,0,1,0-1.36,2.5,1.47,1.47,0,0,0,1.37-.19,1.5,1.5,0,0,0,.55-.8c.07-.23.07-.36.09-.36a.71.71,0,0,1,0,.38,1.53,1.53,0,0,1-.54.89,1.6,1.6,0,0,1-2.6-1.25,1.6,1.6,0,0,1,2.58-1.29,1.58,1.58,0,0,1,.56.89A.87.87,0,0,1,387.81,36.07Z"/><path class="cls-6" d="M386.26,37.78a1.58,1.58,0,0,1-.55-.09,1.71,1.71,0,0,1,0-3.22,1.68,1.68,0,0,1,1.61.26,1.61,1.61,0,0,1,.59.94,1.12,1.12,0,0,1,0,.4,1.36,1.36,0,0,1,0,.4,1.6,1.6,0,0,1-.57.94A1.69,1.69,0,0,1,386.26,37.78Zm-.32-3.19-.19.06a1.52,1.52,0,0,0,0,2.86,1.39,1.39,0,0,0,.19.06l-.19-.06a1.53,1.53,0,0,1,0-2.86Zm.36.14a1.4,1.4,0,0,0-.48.09,1.35,1.35,0,1,0,1.29,2.33,1.44,1.44,0,0,0,.53-.74c0-.12.05-.22.06-.28a.13.13,0,0,1,0-.06l0-.06a1.59,1.59,0,0,0-.06-.28,1.44,1.44,0,0,0-.53-.74A1.34,1.34,0,0,0,386.3,34.73Z"/><path class="cls-6" d="M397.63,36s0-.13-.09-.36a1.54,1.54,0,0,0-.57-.79,1.46,1.46,0,0,0-1.37-.18,1.44,1.44,0,0,0,0,2.69,1.47,1.47,0,0,0,1.37-.2,1.5,1.5,0,0,0,.55-.8c.07-.22.07-.36.09-.36a1.12,1.12,0,0,1,0,.38,1.52,1.52,0,0,1-.55.89,1.59,1.59,0,0,1-1.51.27A1.64,1.64,0,0,1,394.47,36a1.61,1.61,0,0,1,2.59-1.29,1.5,1.5,0,0,1,.55.89A1,1,0,0,1,397.63,36Z"/><path class="cls-6" d="M396.08,37.73a1.56,1.56,0,0,1-.55-.1,1.71,1.71,0,0,1-1.15-1.6,1.73,1.73,0,0,1,1.13-1.62,1.68,1.68,0,0,1,1.61.26,1.58,1.58,0,0,1,.58.94,1.13,1.13,0,0,1,0,.4,1.07,1.07,0,0,1,0,.4,1.62,1.62,0,0,1-.58,1A1.69,1.69,0,0,1,396.08,37.73Zm-.33-3.19-.18.05a1.52,1.52,0,0,0,0,2.87l.21,0-.21-.06a1.52,1.52,0,0,1,0-2.86Zm.37.14a1.17,1.17,0,0,0-.48.09,1.34,1.34,0,0,0,0,2.51,1.39,1.39,0,0,0,1.28-.18,1.43,1.43,0,0,0,.52-.75,1.52,1.52,0,0,0,.06-.27.2.2,0,0,0,0-.07.13.13,0,0,0,0-.06c0-.06,0-.16-.06-.27a1.37,1.37,0,0,0-.53-.74A1.39,1.39,0,0,0,396.12,34.68Z"/><path class="cls-10" d="M422.18,120.11a14,14,0,0,1-3.47-4.94,15.4,15.4,0,0,1-1.17-6l-2.61-.76a1.48,1.48,0,0,1-.9-.72,1.49,1.49,0,0,1-.13-1.15,1.54,1.54,0,0,1,.73-.93,1.41,1.41,0,0,1,1.15-.14l2.1.61a13.77,13.77,0,0,1,.34-1.34c.1-.35.29-.89.56-1.62l-2.13-.62a1.46,1.46,0,0,1-.9-.73,1.53,1.53,0,0,1,.6-2.05,1.44,1.44,0,0,1,1.15-.12l2.77.81a15.81,15.81,0,0,1,6.66-5.72,12.75,12.75,0,0,1,9.13-.41,13.68,13.68,0,0,1,5.5,3,1.54,1.54,0,0,1,.5,1.71,1.59,1.59,0,0,1-.81,1,1.67,1.67,0,0,1-1.31.14,2.2,2.2,0,0,1-.7-.42,13,13,0,0,0-4.19-2,9.44,9.44,0,0,0-6,.15,11.1,11.1,0,0,0-4.92,3.63l11.62,3.39a1.42,1.42,0,0,1,.9.72,1.44,1.44,0,0,1,.13,1.15,1.48,1.48,0,0,1-.72.88,1.41,1.41,0,0,1-1.15.14l-12.39-3.61a10.94,10.94,0,0,0-.6,1.62c-.08.29-.19.74-.31,1.35l10.42,3a1.52,1.52,0,0,1,.92.75,1.48,1.48,0,0,1,.13,1.18,1.44,1.44,0,0,1-.72.92,1.62,1.62,0,0,1-1.19.09l-9.77-2.85a11,11,0,0,0,2.2,5.92,9.6,9.6,0,0,0,5.1,3.49,13.11,13.11,0,0,0,4.58.6,2.26,2.26,0,0,1,.82,0,1.7,1.7,0,0,1,1.18,2.09,1.64,1.64,0,0,1-1.35,1.18,13.77,13.77,0,0,1-6.24-.43A13.52,13.52,0,0,1,422.18,120.11Z"/><path class="cls-10" d="M394.67,201.18a8.48,8.48,0,0,1-2.09-3,9.24,9.24,0,0,1-.7-3.63l-1.58-.46a.91.91,0,0,1-.55-.43.89.89,0,0,1-.07-.7.92.92,0,0,1,.44-.55.84.84,0,0,1,.69-.09l1.27.37a7,7,0,0,1,.21-.81c.06-.21.17-.54.33-1l-1.28-.38a.86.86,0,0,1-.55-.43.88.88,0,0,1-.07-.69.86.86,0,0,1,.43-.55.89.89,0,0,1,.7-.07l1.67.49a9.44,9.44,0,0,1,4-3.45,7.67,7.67,0,0,1,5.51-.25,8.2,8.2,0,0,1,3.31,1.81,1,1,0,0,1,.31,1,1,1,0,0,1-.49.6,1,1,0,0,1-.79.08,1.44,1.44,0,0,1-.43-.25,8,8,0,0,0-2.52-1.19,5.76,5.76,0,0,0-3.65.1,6.56,6.56,0,0,0-3,2.19l7,2a.92.92,0,0,1,.62,1.13.92.92,0,0,1-.44.53.84.84,0,0,1-.69.09l-7.47-2.18a7.27,7.27,0,0,0-.37,1c-.05.18-.11.45-.18.82l6.28,1.83a.88.88,0,0,1,.55.45.89.89,0,0,1,.09.71.88.88,0,0,1-.44.55.92.92,0,0,1-.71.06l-5.9-1.72a6.52,6.52,0,0,0,1.33,3.57,5.77,5.77,0,0,0,3.07,2.11,8.07,8.07,0,0,0,2.76.36,1.52,1.52,0,0,1,.5,0,1,1,0,0,1,.62.5.93.93,0,0,1,.09.76,1,1,0,0,1-.81.71,8.74,8.74,0,0,1-7.07-2.08Z"/><path class="cls-18" d="M264.55,51.24a13.82,13.82,0,0,1-5.25-3,15.36,15.36,0,0,1-3.64-4.93l-2.68.44a1.51,1.51,0,0,1-1.13-.27,1.41,1.41,0,0,1-.6-1,1.52,1.52,0,0,1,.26-1.15,1.4,1.4,0,0,1,1-.62l2.15-.35c-.08-.3-.16-.75-.26-1.36-.06-.36-.12-.93-.19-1.71L252,37.7a1.51,1.51,0,0,1-1.13-.27,1.44,1.44,0,0,1-.6-1,1.49,1.49,0,0,1,1.25-1.73l2.85-.46a15.68,15.68,0,0,1,3.57-8A12.68,12.68,0,0,1,266,22a13.75,13.75,0,0,1,6.25.35,1.56,1.56,0,0,1,1.19,1.33,1.59,1.59,0,0,1-.31,1.24,1.62,1.62,0,0,1-1.12.69,2.16,2.16,0,0,1-.82-.08,13.26,13.26,0,0,0-4.62,0,9.42,9.42,0,0,0-5.39,2.74,11,11,0,0,0-2.89,5.38l11.95-1.92a1.43,1.43,0,0,1,1.13.27,1.48,1.48,0,0,1,.33,2.08,1.41,1.41,0,0,1-1,.63l-12.74,2a11.89,11.89,0,0,0,.15,1.72c.05.3.15.75.31,1.35l10.71-1.73a1.52,1.52,0,0,1,1.14.28,1.46,1.46,0,0,1,.63,1,1.41,1.41,0,0,1-.26,1.14,1.54,1.54,0,0,1-1,.59l-10.05,1.62a11,11,0,0,0,4.53,4.4,9.53,9.53,0,0,0,6.1,1,13.26,13.26,0,0,0,4.39-1.42,2.7,2.7,0,0,1,.75-.34,1.7,1.7,0,0,1,1.28.3,1.64,1.64,0,0,1,.69,1.08,1.61,1.61,0,0,1-.72,1.64,13.68,13.68,0,0,1-5.82,2.3A13.47,13.47,0,0,1,264.55,51.24Z"/><path class="cls-18" d="M89,268.91a8.53,8.53,0,0,1-3.21-1.82,9.5,9.5,0,0,1-2.23-3l-1.64.27a.9.9,0,0,1-.69-.16.91.91,0,0,1-.37-.61,1,1,0,0,1,.16-.7.89.89,0,0,1,.6-.38l1.32-.21c0-.18-.1-.46-.16-.83,0-.22-.08-.57-.12-1l-1.34.21a.9.9,0,0,1-.69-.16.91.91,0,0,1-.37-.6.93.93,0,0,1,.77-1.06l1.74-.28A9.76,9.76,0,0,1,85,253.61,7.82,7.82,0,0,1,89.92,251a8.41,8.41,0,0,1,3.82.21,1,1,0,0,1,.54,1.58,1,1,0,0,1-.68.42,1.37,1.37,0,0,1-.5,0,8.14,8.14,0,0,0-2.83,0,5.83,5.83,0,0,0-3.3,1.68,6.72,6.72,0,0,0-1.76,3.29L92.52,257a.93.93,0,0,1,.29,1.83L85,260a6.57,6.57,0,0,0,.09,1.05c0,.18.09.46.18.83l6.56-1.06a.95.95,0,0,1,1.08.79.86.86,0,0,1-.16.7,1,1,0,0,1-.63.36l-6.14,1a6.7,6.7,0,0,0,2.77,2.69,5.78,5.78,0,0,0,3.72.59,8,8,0,0,0,2.69-.87,1.41,1.41,0,0,1,.46-.2,1,1,0,0,1,.78.18,1,1,0,0,1,.42.66,1,1,0,0,1-.43,1,8.53,8.53,0,0,1-3.57,1.41A8.39,8.39,0,0,1,89,268.91Z"/><path class="cls-10" d="M71.4,218.74a13.91,13.91,0,0,1-5.73-1.88,15.31,15.31,0,0,1-4.54-4.11l-2.55.95a1.42,1.42,0,0,1-1.16,0,1.47,1.47,0,0,1-.78-.84,1.51,1.51,0,0,1,0-1.18,1.38,1.38,0,0,1,.84-.8l2-.77c-.14-.28-.31-.7-.53-1.28-.12-.34-.3-.88-.52-1.63l-2.08.77a1.44,1.44,0,0,1-1.15,0,1.5,1.5,0,0,1-.79-.85,1.4,1.4,0,0,1,0-1.15,1.45,1.45,0,0,1,.84-.79l2.71-1A15.75,15.75,0,0,1,60,195.53a12.75,12.75,0,0,1,7.07-5.8,13.89,13.89,0,0,1,6.2-.89,1.57,1.57,0,0,1,1.43,1.07,1.68,1.68,0,0,1-.06,1.28,1.7,1.7,0,0,1-1,.9,2.32,2.32,0,0,1-.82.08,13.46,13.46,0,0,0-4.53.93,9.51,9.51,0,0,0-4.75,3.75,11,11,0,0,0-1.76,5.85l11.33-4.24a1.46,1.46,0,0,1,1.16,0,1.51,1.51,0,0,1,.74,2,1.46,1.46,0,0,1-.84.81L62.11,205.8a12.11,12.11,0,0,0,.48,1.66c.11.28.3.71.57,1.26l10.16-3.8a1.47,1.47,0,0,1,1.18.05,1.49,1.49,0,0,1,.81.86,1.4,1.4,0,0,1,0,1.17,1.57,1.57,0,0,1-.89.78l-9.53,3.57a10.89,10.89,0,0,0,5.3,3.43,9.6,9.6,0,0,0,6.17-.26,13.16,13.16,0,0,0,4-2.26,2.52,2.52,0,0,1,.67-.48,1.71,1.71,0,0,1,2.2,1,1.62,1.62,0,0,1-.38,1.75,13.88,13.88,0,0,1-5.26,3.4A13.57,13.57,0,0,1,71.4,218.74Z"/></g></g></svg>