<svg xmlns="http://www.w3.org/2000/svg" viewBox="0 0 70.56 78.11"><defs><style>.cls-1,.cls-2{fill:#fff;}.cls-2{stroke:#fff;stroke-miterlimit:10;}</style></defs><g id="Capa_2" data-name="Capa 2"><g id="Capa_1-2" data-name="Capa 1"><path class="cls-1" d="M22.41,33.28a22.42,22.42,0,1,0,21.16,29.8c1.52.06,2.9.08,4,.08,6.88,0,22.89-.72,22.89-7.47V46.57a3.11,3.11,0,0,0,.06-.62,2.78,2.78,0,0,0-.06-.58V38a3.11,3.11,0,0,0,.06-.62,2.78,2.78,0,0,0-.06-.58V28.51a3,3,0,0,0-.12-1.62A4,4,0,0,0,70.5,26V16.84a3.08,3.08,0,0,0,.06-.61,2.88,2.88,0,0,0-.06-.59V7.4a3.18,3.18,0,0,0,.06-.62,3,3,0,0,0-.19-1A2.93,2.93,0,0,0,69.16,4.1C64.48.14,49.58,0,47.61,0S30.73.14,26.05,4.1a2.84,2.84,0,0,0-1.2,1.64,2.79,2.79,0,0,0-.2,1,3.18,3.18,0,0,0,.06.62v8.24a2.88,2.88,0,0,0-.06.59,3.08,3.08,0,0,0,.06.61v9s0,0,0,.06V26a4,4,0,0,0,.12.93,3,3,0,0,0-.12,1.62V33.4A21.72,21.72,0,0,0,22.41,33.28ZM67.88,55.51v.23c-.13,2.52-9.17,4.55-20.27,4.55-1.11,0-2.18,0-3.24-.06a22.62,22.62,0,0,0,.46-4.54c0-.39,0-.79,0-1.18,1,0,2,0,2.81,0,5.16,0,15.45-.41,20.27-3.45Zm0-8.61v.23c-.13,2.52-9.17,4.55-20.27,4.55-1.08,0-2.13,0-3.16-.06A21.93,21.93,0,0,0,42.08,45c2.1.12,4,.16,5.53.16,5.16,0,15.45-.41,20.27-3.46Zm0-20.34v.24c-.13,2.51-9.17,4.55-20.27,4.55s-20.16-2-20.28-4.55V20.53c4.83,3,15.12,3.46,20.29,3.46s15.45-.41,20.27-3.46ZM47.61,3.31c11.51,0,18.64,2.13,19.85,3.47-1.21,1.33-8.34,3.47-19.85,3.47S29,8.11,27.76,6.78C29,5.44,36.09,3.31,47.61,3.31Zm0,10.25c1.82,0,14.62-.12,20.27-3.25v6.26c-.13,2.51-9.17,4.55-20.27,4.55s-20.16-2-20.28-4.55V10.31C33,13.44,45.78,13.56,47.61,13.56Zm0,21.11c1.82,0,14.62-.11,20.27-3.24v6.26c-.13,2.51-9.17,4.55-20.27,4.55-2.67,0-5.21-.12-7.54-.34a22.42,22.42,0,0,0-12.75-8.07v-2.4C33,34.56,45.78,34.67,47.61,34.67ZM42,55.69A19.55,19.55,0,1,1,22.41,36.15,19.57,19.57,0,0,1,42,55.69Z"/><path class="cls-2" d="M7.31,55.69a15.11,15.11,0,1,0,15.1-15.1A15.13,15.13,0,0,0,7.31,55.69Zm28.29,0A13.19,13.19,0,1,1,22.41,42.5,13.2,13.2,0,0,1,35.6,55.69Z"/></g></g></svg>