<svg xmlns="http://www.w3.org/2000/svg" viewBox="0 0 322.05 689.4"><defs><style>.cls-1{fill:#b87e4f;}.cls-2{fill:#322924;}.cls-3{fill:#f2c879;}.cls-11,.cls-4{fill:#fff;}.cls-5{fill:#6a678c;}.cls-6{fill:#383d5a;}.cls-7{fill:#735141;}.cls-8{fill:#f5a271;}.cls-9{fill:#7b3e2e;}.cls-10{fill:#a9cbe6;}.cls-11{opacity:0.5;}</style></defs><g id="Capa_2" data-name="Capa 2"><g id="Capa_1-2" data-name="Capa 1"><path class="cls-1" d="M127.81,268.86,106,283.6l0,0-3,2c-5.16,1.35-13.85-3.51-22-12.15a75.55,75.55,0,0,1-5-5.93,68.62,68.62,0,0,1-8.3-13.8c-3.44-7.73-4.19-14.44-1.59-17.73l2.71-1.83L91.9,218.57Z"/><ellipse class="cls-2" cx="110.02" cy="243.61" rx="13.75" ry="31.54" transform="translate(-133.96 134.42) rotate(-41.58)"/><path class="cls-2" d="M35.47,339.87c-15.11,0-30.67-6.88-31.63-8.39a.67.67,0,0,1,.05-.84.54.54,0,0,1,.76,0,.58.58,0,0,1,.17.37c1.9,2,25.85,11.63,42.23,6.09a.53.53,0,0,1,.68.34.55.55,0,0,1-.34.68A37.46,37.46,0,0,1,35.47,339.87Zm-30.8-8.49Z"/><path class="cls-2" d="M253.85,459.85c0,7.91-45.91,14.31-102.57,14.31s-102.56-6.4-102.56-14.31c0-6.36,29.94-11.78,71.27-13.61,9.86-.45,20.37-.69,31.29-.69q9.78,0,19.05.26C217.89,447,253.85,452.86,253.85,459.85Z"/><polygon class="cls-3" points="143.94 688.87 66.9 688.87 60.53 376.01 150.31 376.01 143.94 688.87"/><polygon class="cls-3" points="240.48 688.87 163.44 688.87 141.43 376.01 246.86 376.01 240.48 688.87"/><path class="cls-4" d="M170.33,374.46V139.82H120V374.73c-38.43,1.8-66.29,7.14-66.29,13.44,0,7.78,42.46,14.08,94.84,14.08s94.83-6.3,94.83-14.08C243.37,381.5,212.19,375.92,170.33,374.46Z"/><path class="cls-2" d="M230.28,689.4h0a.54.54,0,0,1-.53-.54l4.1-253.8a.54.54,0,0,1,.54-.53h0a.54.54,0,0,1,.53.54l-4.1,253.8A.54.54,0,0,1,230.28,689.4Z"/><path class="cls-5" d="M274.24,192.19c-2.21,31.11-5.73,78.65-9.34,127.91-.69,9.22-1.36,18.53-2,27.79l-.25,3.48c-.78,10.66-1.55,21.26-2.3,31.62-2.07,28.18-4,54.78-5.53,76.86h-.92c0-7-36-12.81-83.52-14V162.25H120v284c-41.33,1.83-71.27,7.25-71.27,13.61-1.91-27.45-4.43-62-7-97.82-.73-9.78-1.44-19.64-2.17-29.51-4-54.29-7.93-108.09-10.36-142a42.06,42.06,0,0,1,29-43.14c3.06-1,6.09-1.94,9.16-2.82a286.61,286.61,0,0,1,120.86-8.77A325.68,325.68,0,0,1,227,143.66c5.94,1.62,11.89,3.36,17.87,5.31,1.29.43,2.55.9,3.78,1.42A42.08,42.08,0,0,1,274.24,192.19Z"/><path class="cls-5" d="M68,281.89c-2.73,24.22-2.49,47.67-2,69.18-13-1.89-34.48.38-48.84,3.41C11.57,350.12.29,332.71.19,329.25c-1.68-53.79,7.78-111,33-159.95,25.12,8.54,38.41,15.91,62.61,23.43C78.94,222.22,71.31,252.61,68,281.89Z"/><polygon class="cls-6" points="110.7 215.65 100.16 226.22 50.2 215.6 110.7 215.65"/><path class="cls-6" d="M110.7,282.9H60.53a.54.54,0,0,1-.54-.54V215.65a.54.54,0,0,1,.54-.54H110.7a.54.54,0,0,1,.54.54v66.71A.54.54,0,0,1,110.7,282.9Zm-49.64-1.08h49.11V216.19H61.06Z"/><path class="cls-5" d="M233.71,281.89c2.73,24.22,2.5,47.67,2,69.18,13-1.89,37.8,2.58,52.16,5.61A35.33,35.33,0,0,0,300,339c.34-1.16.64-2.32.86-3.48.21-3.48.56-4.74.67-8.2,1.67-53.79-7.78-109-33-158-25.13,8.54-38.41,15.91-62.61,23.43C222.8,222.22,230.43,252.61,233.71,281.89Z"/><path class="cls-1" d="M264.9,320.1c-.78,10.38-1.53,20.87-2.3,31.27-23.93-18.61-35.73-66.43-35.1-142.2.19-24.82-.09-47.73-.48-65.51,5.94,1.62,11.89,3.36,17.87,5.31,1.29.43,2.55.9,3.78,1.42.3,17,.49,37.44.32,59C248.47,271.4,256.47,303.51,264.9,320.1Z"/><path class="cls-1" d="M73.26,269.72Q72.84,283,71.5,294.59C67.85,326.35,59,348.11,45,359.54A40.8,40.8,0,0,1,41.69,362c-.73-9.78-1.44-19.64-2.17-29.51,4-7.39,7.87-18.72,10.21-36.13.79-5.86,1.42-12.42,1.78-19.75.88-16.25.63-36.3-1.31-61-1.78-22.87-3.09-44.55-4-62.16a42.22,42.22,0,0,1,11.92-6.1c3.06-1,6.09-1.94,9.16-2.82.86,18.27,2.24,42.73,4.32,69.4A510.32,510.32,0,0,1,73.26,269.72Z"/><path class="cls-2" d="M262.85,347.89l-.25,3.48c-.78,10.66-1.55,21.26-2.3,31.62-15.54-10.55-15-46.94-14.34-46.9Z"/><path class="cls-2" d="M73.26,269.72Q72.84,283,71.5,294.59l-21.77,1.8-17.65-1.95a89,89,0,0,1,19.43-17.8C58,272.45,65.57,269.27,73.26,269.72Z"/><polygon class="cls-2" points="78.89 162.4 119.99 162.25 121.42 139.82 78.89 162.4"/><polygon class="cls-2" points="211.43 162.4 170.33 162.25 168.91 139.82 211.43 162.4"/><path class="cls-5" d="M186.94,320.27,46,362.74A35.54,35.54,0,0,1,1.71,339c-.34-1.16-.64-2.32-.86-3.48a34.74,34.74,0,0,1-.66-6.77,34.24,34.24,0,0,1,.19-3.66,35.54,35.54,0,0,1,25.1-30.34L68,281.89l98.42-29.67Z"/><path class="cls-5" d="M321.9,314.85c0,22.44-15.64,50.73-40.32,49.42a40.24,40.24,0,0,1-38.21-40.64c0-22.45,15.09-41.27,36.2-41.27S321.9,314.85,321.9,314.85Z"/><ellipse class="cls-2" cx="172.31" cy="90.78" rx="16.36" ry="16.25"/><path class="cls-7" d="M172.38,87.65a16.63,16.63,0,0,1-3.61-.36.53.53,0,0,1-.38-.65.53.53,0,0,1,.65-.39c.45.11,11.16,2.67,16.9-7.54a.54.54,0,0,1,.93.53A16,16,0,0,1,172.38,87.65Z"/><path class="cls-8" d="M170.33,86.77v84.66a54.09,54.09,0,0,1-26.12,6.43A54.64,54.64,0,0,1,120,172.42V86.77Z"/><path class="cls-2" d="M152.13,109.06C144.89,114.39,120,120,120,120V102.63l6.4-.13Z"/><ellipse class="cls-2" cx="110.71" cy="66.19" rx="26.09" ry="17.09" transform="translate(-17.39 81.23) rotate(-37.57)"/><path class="cls-2" d="M144.18,68.6c2.81,15.9-20.86,38.68-39.54,37.3-18.74-1.08-14.25-16.58-6.27-29.29,8.12-13.61,10.27-20.17,19.1-21.86C125.83,53.17,142.08,53,144.18,68.6Z"/><path class="cls-2" d="M171.83,86.74,132,84.58l1.71-51a23.26,23.26,0,0,1,20.59-22.34l7.22-.83c11.51-1.75,23.92,6.18,24.71,20l2.45,40A16,16,0,0,1,171.83,86.74Z"/><path class="cls-8" d="M170.33,54.57V84.82a26.75,26.75,0,0,1-26.76,26.75h-7.65A25.21,25.21,0,0,1,110.7,86.38V29.71h19c-3.46,2.28-3.48,4.49,5.76,5.65C156,37.94,165.38,50.38,170.33,54.57Z"/><path class="cls-8" d="M167.85,64.75c-3.95,4.24-4.71,10-1.7,12.76s8.66,1.64,12.61-2.6,4.71-10,1.7-12.75S171.8,60.51,167.85,64.75Z"/><path class="cls-2" d="M99.87,35.49C87.34,52.93,74,58.1,80,67.36c5,7.69,21.85,9.77,41.65-7.74,23.53-20.8,35.51-39,23.53-49.43-5.65-4.91-20.5-5.6-30,1.59C109.73,15.84,105.27,28,99.87,35.49Z"/><path class="cls-2" d="M186.94,320.27C181.22,322,173,312,167.17,297c-.86-2.28-1.7-4.69-2.45-7.18-3.85-12.77-4.75-24.63-2.86-31.55.88-3.27,2.41-5.42,4.51-6.06s4.58.32,7.12,2.55c5.41,4.69,11.26,15.07,15.13,27.84.75,2.49,1.39,4.94,1.91,7.33C194,305.61,192.66,318.53,186.94,320.27Z"/><path class="cls-2" d="M321.62,317.58c-1.4,5.12-5.94,8.88-12.28,11-.36.1-.73.23-1.09.34-7.29,2.11-16.68,2.09-26.4-.56a57,57,0,0,1-11-4.19c-.58-.28-1.14-.58-1.68-.88-11.62-6.41-18.44-16-16.14-24.35,1.81-6.67,9-11.07,18.55-12.38.65-.09,1.31-.17,2-.24a55,55,0,0,1,19.19,1.87,56.32,56.32,0,0,1,13.72,5.68,43.55,43.55,0,0,1,8.14,6C320.39,305.38,323.18,311.76,321.62,317.58Z"/><path class="cls-8" d="M308.25,328.89c-7.29,2.11-16.68,2.09-26.4-.56a57,57,0,0,1-11-4.19c0-5.95.06-21.9,1.08-29.17a76.4,76.4,0,0,1,1.65-8.68c2.24-8.55,4.73-8.55,4.73-8.55l29,1.18s-.77,4.36-.79,14.92c0,3.91,0,8.7.3,14.42Z"/><path class="cls-6" d="M120.05,117.55,120,146.38l-41.09,16S103.63,122.46,120.05,117.55Z"/><path class="cls-6" d="M170.33,117.39v28.07l41.16,16.78S186.75,122.3,170.33,117.39Z"/><path class="cls-6" d="M250.19,252.59a.56.56,0,0,1-.4-.17c-13.54-14.53-46.45-30.87-46.77-31a.54.54,0,0,1-.25-.72.54.54,0,0,1,.72-.24c.31.15,29.8,14.79,44.61,28.77-6.4-12.34-29.27-56.53-30-59.15a.54.54,0,0,1,1-.31c.68,2.32,20.95,41.61,31.57,62.06a.53.53,0,0,1-.16.69A.63.63,0,0,1,250.19,252.59Z"/><path class="cls-8" d="M203.25,286.12,190.53,290,167.17,297c-.86-2.28-1.7-4.69-2.45-7.18-3.85-12.77-4.75-24.63-2.86-31.55l11.63-3.51,18.59-5.63Z"/><path class="cls-8" d="M239.33,270.9,216.88,288a20.69,20.69,0,0,1-31.24-7.6L173.5,254.79l62.56-18.53Z"/><path class="cls-9" d="M203.86,267.32a.55.55,0,0,1-.52-.37.54.54,0,0,1,.35-.67c.75-.25,24.16-6.84,29.47-8.25a.54.54,0,1,1,.28,1c-5,1.33-28.71,8-29.42,8.23A.44.44,0,0,1,203.86,267.32Z"/><path class="cls-9" d="M203.86,255.86a.52.52,0,0,1-.45-.24.53.53,0,0,1,.14-.74c2.46-1.68,17.24-5.61,30.89-9.17,3.37-.88,6-1.57,6.71-1.79a.54.54,0,0,1,.67.35.52.52,0,0,1-.34.67c-.7.23-3.25.89-6.77,1.81-9.8,2.55-28,7.3-30.55,9A.51.51,0,0,1,203.86,255.86Z"/><path class="cls-6" d="M315,215.16a9.73,9.73,0,0,0-7.63-11.43l-64.47-12.84a9.45,9.45,0,0,0-2.75-.11l.28-1.62-5,3.34h0a9.59,9.59,0,0,0-3.92,6L211.87,297a9.7,9.7,0,0,0,7.62,11.42L284,321.3a9.69,9.69,0,0,0,6.13-.82l6-3.83-1.29-1.12a10.28,10.28,0,0,0,.56-1.86Z"/><path class="cls-10" d="M319.79,212l-4.54,22.72v0l-4.72,23.79-10.36,52a9.72,9.72,0,0,1-11.44,7.63l-64.46-12.83a9.72,9.72,0,0,1-7.63-11.43l19.63-98.5a9.71,9.71,0,0,1,11.43-7.63l64.46,12.83A9.72,9.72,0,0,1,319.79,212Z"/><path class="cls-4" d="M279.94,238.31c-2.25,3.53-6.57,4.8-9.66,2.83s-3.76-6.42-1.51-9.95,6.57-4.8,9.66-2.83S282.19,234.78,279.94,238.31Z"/><path class="cls-2" d="M315.25,234.75l-4.72,23.79-8.8,7.5-35.2,6.5C268.44,271.7,311.26,243,315.25,234.75Z"/><path class="cls-8" d="M278.09,268.68c4.38-1.18,13.1-2.75,17.32-4.42,16.37-6.48,16.22-11.31,16.22-11.31s6.67,2.37,7.26,7.4a4.89,4.89,0,0,1,0,1.53,15.07,15.07,0,0,1-4.52,7.58,24.11,24.11,0,0,1-6.23,4.23,73.16,73.16,0,0,1-13,4.43A98.59,98.59,0,0,1,282,280.38a44.37,44.37,0,0,1-10.55-.15c-2.22-.26-8.69-1.29-9-3.71C261.91,272.72,275.53,269.37,278.09,268.68Z"/><path class="cls-8" d="M265.81,283.28l11.1-2.72c4.09-1.28,8.13-2.6,12.08-4a104.64,104.64,0,0,0,11.24-4.65c3.53-1.67,6.65-3.18,9.38-4.39l1.52-.68a4.28,4.28,0,0,1,5.86,5.08,16.22,16.22,0,0,1-4.78,7.3,26.13,26.13,0,0,1-6.35,4.25,75.18,75.18,0,0,1-13.32,4.71,109.33,109.33,0,0,1-13.38,2.61c-7.7,1.46-17.57.19-18.26-1.75C259.43,284.9,265.81,283.28,265.81,283.28Z"/><path class="cls-8" d="M271.36,295.6c1.7-.68,3.51-1.13,4.6-1.54,5.43-2.05,11-3.81,16.24-6.28a68.5,68.5,0,0,0,9.28-5c2.86-1.81,5.45-3.43,8.32-5l.71-.39a4.41,4.41,0,0,1,6.29,5.38c-1.72,4.66-5.33,7.89-9,10.2a57.15,57.15,0,0,1-11.5,5.26,78.83,78.83,0,0,1-11.8,3.08,73.8,73.8,0,0,1-12,1.29c-1.94.05-5.41-.8-5.45-2.74S269.08,296.5,271.36,295.6Z"/><path class="cls-8" d="M287.56,300.63c2.87-1.48,5.65-3,8.3-4.59,1.33-.79,2.6-1.58,3.84-2.41s2.37-1.71,3.43-2.54l6.19-4.56,1.06-.78a4.36,4.36,0,0,1,6.09.93,4.31,4.31,0,0,1,.81,3.09c-.56,4.74-3.47,8.34-6.42,10.89a40.33,40.33,0,0,1-9.74,5.75,60.53,60.53,0,0,1-10.18,3.4,54.91,54.91,0,0,1-10.54,1.54c-1.8.08-4.8-.72-4.87-2.52-.06-1.3,2.14-3.06,3.23-3.63Z"/><path class="cls-7" d="M92.87,74c-9.23,0-12.05-4.64-12.18-4.87a.53.53,0,0,1,.19-.73.54.54,0,0,1,.73.19c0,.06,3.62,5.83,16,4,14.63-2.21,31.61-20,38.22-27.57,9.92-11.31,13.15-15.69,13.47-24.29a.53.53,0,0,1,.54-.51h0a.53.53,0,0,1,.51.55c-.33,9-3.63,13.43-13.73,25C130,53.3,112.78,71.32,97.8,73.58A33.69,33.69,0,0,1,92.87,74Z"/><path class="cls-7" d="M188.67,69.27h0a.54.54,0,0,1-.5-.58c.31-4.35-.88-7.83-3.54-10.35a14.94,14.94,0,0,0-9-3.76.55.55,0,0,1-.61-.46.52.52,0,0,1,.44-.6,15.66,15.66,0,0,1,9.81,3.91c3,2.75,4.36,6.57,4,11.34A.54.54,0,0,1,188.67,69.27Z"/><path class="cls-7" d="M91.94,99.18a.53.53,0,0,1-.51-.38C87.2,84.62,102.54,77.5,102.7,77.43a.54.54,0,1,1,.44,1c-.6.27-14.64,6.81-10.68,20.08a.54.54,0,0,1-.36.67A.44.44,0,0,1,91.94,99.18Z"/><path class="cls-2" d="M145.25,51.57a20.45,20.45,0,0,1,5-.7,31.34,31.34,0,0,1,4.85.24,30.26,30.26,0,0,1,9.39,2.54,2.23,2.23,0,0,1-.72,4.23h0a45.78,45.78,0,0,1-9.38-.17c-1.53-.16-3.06-.37-4.58-.66a27.07,27.07,0,0,1-4.5-1.19l-.21-.09a2.22,2.22,0,0,1-1.28-2.87A2.26,2.26,0,0,1,145.25,51.57Z"/><path class="cls-2" d="M133.77,56.89a27.12,27.12,0,0,1-4.51,1.16c-1.52.28-3,.47-4.59.62a45.86,45.86,0,0,1-9.38.08h0a2.23,2.23,0,0,1-.68-4.24A30.31,30.31,0,0,1,124,52.05a31.34,31.34,0,0,1,4.85-.19,20.54,20.54,0,0,1,5,.73,2.23,2.23,0,0,1,1.53,2.75A2.21,2.21,0,0,1,134,56.81Z"/><path class="cls-2" d="M115.51,66.57a.59.59,0,0,1-.22,0,.53.53,0,0,1-.27-.7A8.69,8.69,0,0,1,120.79,61a20.08,20.08,0,0,1,8.47-.45.55.55,0,0,1,.55.54.53.53,0,0,1-.53.53h-.06a19.18,19.18,0,0,0-8.12.41,7.69,7.69,0,0,0-5.1,4.26A.53.53,0,0,1,115.51,66.57Z"/><path class="cls-2" d="M144.13,66.8a.54.54,0,0,1-.22,0,.55.55,0,0,1-.28-.71,8.69,8.69,0,0,1,5.78-4.85,20.07,20.07,0,0,1,8.47-.46.55.55,0,0,1,.55.54.53.53,0,0,1-.53.54h-.06a19.2,19.2,0,0,0-8.12.4,7.69,7.69,0,0,0-5.1,4.26A.54.54,0,0,1,144.13,66.8Z"/><path class="cls-9" d="M137,83.71c-3.58,0-4.33-2.22-4.36-2.31a.64.64,0,0,1,0-.2l.63-10.59a.53.53,0,0,1,.57-.51.54.54,0,0,1,.5.57l-.62,10.47c.15.32.88,1.49,3.31,1.49h0c4.26,0,5.15-1.46,5.16-1.47a.55.55,0,0,1,.73-.22.54.54,0,0,1,.22.71c-.1.21-1.16,2-6.11,2.06Z"/><path class="cls-9" d="M143.37,92.34c-3.2,0-6.93-.25-9-.38l-1.23-.08a.54.54,0,1,1,0-1.07l1.3.07c3,.2,11,.73,13.5,0,5.33-1.49,4.35-5.66,4.31-5.84a.53.53,0,0,1,.38-.65.54.54,0,0,1,.66.39c0,.05,1.3,5.36-5.06,7.13A21.31,21.31,0,0,1,143.37,92.34Z"/><path class="cls-6" d="M20,304.6a.54.54,0,0,1-.42-.87c.11-.13,10.89-12.91,35.64-19.45,24.57-6.5,110.18-32.29,111.05-32.55a.54.54,0,1,1,.31,1c-.87.26-86.5,26.06-111.09,32.56-24.42,6.46-35,19-35.08,19.09A.52.52,0,0,1,20,304.6Z"/><path class="cls-6" d="M33,364.25c-7.88,0-10.85-2.08-11.05-2.22a.54.54,0,1,1,.63-.87h0c.08,0,8.19,5.6,33.74-2.1l130.44-39.3.31,1L56.65,360.09C46,363.29,38.39,364.25,33,364.25Z"/><path class="cls-6" d="M281.58,364.81h-.06c-41.93-5.18-38.72-48-38.68-48.45a.53.53,0,0,1,.58-.49.55.55,0,0,1,.49.58c0,.42-3.15,42.24,37.74,47.3a.54.54,0,0,1,.47.59A.55.55,0,0,1,281.58,364.81Z"/><path class="cls-6" d="M183.28,195.77a2.81,2.81,0,1,1-2.81-2.81A2.81,2.81,0,0,1,183.28,195.77Z"/><path class="cls-6" d="M183.28,230.61a2.81,2.81,0,1,1-2.81-2.82A2.81,2.81,0,0,1,183.28,230.61Z"/><path class="cls-6" d="M184.89,354.48a2.81,2.81,0,1,1-2.81-2.81A2.81,2.81,0,0,1,184.89,354.48Z"/><path class="cls-6" d="M184.89,393.92a2.81,2.81,0,1,1-2.81-2.81A2.81,2.81,0,0,1,184.89,393.92Z"/><circle class="cls-2" cx="124.71" cy="65.62" r="2.9"/><circle class="cls-2" cx="152.89" cy="65.62" r="2.9"/><path class="cls-2" d="M150.32,490.77a.53.53,0,0,1-.52-.39l-8.73-31.65a60.88,60.88,0,0,1-3.91-21.53V402.25a.54.54,0,0,1,1.07,0V437.2a60,60,0,0,0,3.86,21.2l8.74,31.69a.54.54,0,0,1-.37.66Z"/><path class="cls-2" d="M138.71,448.69a.53.53,0,0,1-.53-.47.54.54,0,0,1,.46-.6A10.75,10.75,0,0,0,148,437V402.25a.54.54,0,0,1,.54-.54.54.54,0,0,1,.54.54V437a11.84,11.84,0,0,1-10.29,11.73Z"/><path class="cls-9" d="M277.41,280.76c-1.2,0-1.89,0-1.91,0a.54.54,0,0,1-.51-.57.53.53,0,0,1,.57-.5,75.52,75.52,0,0,0,24.05-3.35c12.47-3.94,19.2-11.51,18.71-14.33a.54.54,0,0,1,1.06-.18c.62,3.54-6.82,11.55-19.45,15.54A77.74,77.74,0,0,1,277.41,280.76Z"/><path class="cls-9" d="M272.3,292a.53.53,0,0,1-.54-.51.52.52,0,0,1,.51-.56,112,112,0,0,0,24.73-4.6c14.23-4.5,18.37-11.89,19.3-14A.53.53,0,0,1,317,272a.53.53,0,0,1,.28.7c-1,2.26-5.3,10-20,14.64a112.67,112.67,0,0,1-25,4.65Z"/><path class="cls-9" d="M272.3,303.13a.53.53,0,0,1-.54-.51.52.52,0,0,1,.51-.56,111.3,111.3,0,0,0,24.73-4.6c14.23-4.49,18.37-11.88,19.3-14a.54.54,0,0,1,1,.43c-1,2.26-5.3,10-20,14.64a111.63,111.63,0,0,1-25,4.64Z"/><path class="cls-6" d="M60.53,308.79h0a.54.54,0,0,1-.52-.56c.63-19.6,23.1-31.77,23.32-31.89a.54.54,0,0,1,.73.23.53.53,0,0,1-.22.72c-.22.12-22.15,12-22.76,31A.53.53,0,0,1,60.53,308.79Z"/><path class="cls-6" d="M131.83,334.69c-15.6,0-33.27-4.37-34.24-4.61a.54.54,0,0,1-.39-.65.53.53,0,0,1,.65-.39c.31.07,31.08,7.68,47.16,3.07a.54.54,0,0,1,.3,1A50.2,50.2,0,0,1,131.83,334.69Z"/><path class="cls-6" d="M257.49,354.17a.53.53,0,0,1-.41-.2c-9.29-11.21-3.56-28.91-3.32-29.66a.55.55,0,0,1,.68-.34.54.54,0,0,1,.34.68c-.06.18-5.78,17.89,3.12,28.64a.53.53,0,0,1-.07.75A.5.5,0,0,1,257.49,354.17Z"/><path class="cls-6" d="M45.8,419.3h-.09a.54.54,0,0,1-.44-.62c2.37-14.7,26.33-38.39,27.87-39.54a.54.54,0,1,1,.64.86c-1.45,1.09-25.18,24.75-27.45,38.85A.53.53,0,0,1,45.8,419.3Z"/><path class="cls-6" d="M15,214.73a.53.53,0,0,1-.24-.06.54.54,0,0,1-.24-.72C22.28,198.27,41,189.6,43.14,189.36a.54.54,0,0,1,.59.48.54.54,0,0,1-.47.59c-1.1.12-20,8.35-27.83,24A.53.53,0,0,1,15,214.73Z"/><path class="cls-2" d="M150,16.82l-.11,0a.53.53,0,0,1-.42-.63c1.08-5.21-2.39-11.26-4.56-14.4l-.11-.17a.54.54,0,0,1,.9-.59l.1.15c2.26,3.28,5.88,9.62,4.72,15.23A.53.53,0,0,1,150,16.82Z"/><path class="cls-2" d="M151.91,15.66a.54.54,0,0,1-.47-.26c-1.91-3.31,1.64-11.53,3.15-14.15.61-1.06.87-1.25,1.2-1.25A.54.54,0,0,1,156,1c-1,1-5.42,10.76-3.64,13.83a.54.54,0,0,1-.19.73A.54.54,0,0,1,151.91,15.66Z"/><path class="cls-2" d="M137.69,689.4h0a.53.53,0,0,1-.52-.55l5.78-223.42a.54.54,0,0,1,.54-.52h0a.53.53,0,0,1,.52.55l-5.79,223.42A.54.54,0,0,1,137.69,689.4Z"/><rect class="cls-11" x="139.18" y="66.55" width="18.03" height="8.17"/><path class="cls-4" d="M157.21,75.53h-18a.8.8,0,0,1-.8-.8V66.55a.8.8,0,0,1,.8-.8h18a.8.8,0,0,1,.81.8v8.18A.8.8,0,0,1,157.21,75.53ZM140,73.92h16.42V67.36H140Z"/><rect class="cls-11" x="111.91" y="66.55" width="16.28" height="8.17"/><path class="cls-4" d="M128.19,75.53H111.91a.8.8,0,0,1-.81-.8V66.55a.8.8,0,0,1,.81-.8h16.28a.8.8,0,0,1,.8.8v8.18A.8.8,0,0,1,128.19,75.53Zm-15.48-1.61h14.67V67.36H112.71Z"/><path class="cls-4" d="M139.18,72H128.77a.81.81,0,1,1,0-1.61h10.41a.81.81,0,1,1,0,1.61Z"/><path class="cls-4" d="M157.21,70.64,171,62.2Z"/><path class="cls-4" d="M157.21,71.45a.79.79,0,0,1-.68-.39.81.81,0,0,1,.26-1.11l13.8-8.44a.81.81,0,1,1,.84,1.38l-13.8,8.44A.79.79,0,0,1,157.21,71.45Z"/></g></g></svg>