<svg xmlns="http://www.w3.org/2000/svg" viewBox="0 0 70.31 75.24"><defs><style>.cls-1{fill:none;stroke:#fff;stroke-linecap:round;stroke-linejoin:round;stroke-width:3.31px;}</style></defs><g id="Capa_2" data-name="Capa 2"><g id="Capa_1-2" data-name="Capa 1"><polygon class="cls-1" points="37.07 20.4 37.07 1.66 56.59 20.4 37.07 20.4"/><path class="cls-1" d="M56.59,28.54V20.4L37.07,1.66H3.47A1.78,1.78,0,0,0,1.66,3.4V71.84a1.78,1.78,0,0,0,1.81,1.74H54.78a1.78,1.78,0,0,0,1.81-1.74v-8"/><line class="cls-1" x1="37.71" y1="61.44" x2="9.44" y2="61.44"/><line class="cls-1" x1="31.12" y1="53.5" x2="9.44" y2="53.5"/><line class="cls-1" x1="29.91" y1="45.56" x2="9.44" y2="45.56"/><line class="cls-1" x1="31.96" y1="37.62" x2="9.44" y2="37.62"/><line class="cls-1" x1="39.61" y1="29.68" x2="9.44" y2="29.68"/><line class="cls-1" x1="32.49" y1="21.73" x2="9.44" y2="21.73"/><line class="cls-1" x1="31.57" y1="13.79" x2="9.44" y2="13.79"/><ellipse class="cls-1" cx="49.28" cy="46.17" rx="19.38" ry="19.03"/><polygon class="cls-1" points="63.42 40.74 58.9 35.67 47.39 48.58 40.87 41.26 36.34 46.33 47.39 58.72 51.91 53.65 51.91 53.65 63.42 40.74"/></g></g></svg>