<svg xmlns="http://www.w3.org/2000/svg" viewBox="0 0 302.09 379.05"><defs><style>.cls-1{fill:#e1e1e1;}.cls-2{fill:#fafafa;}.cls-3{fill:#1a2e35;}.cls-4{fill:#ff735d;}.cls-5{opacity:0.6;}.cls-6{fill:#fff;}.cls-7{fill:#375a64;}.cls-8{fill:#ffc19d;}.cls-9{fill:#ff9c6a;}.cls-10{opacity:0.1;}.cls-11{opacity:0.2;}.cls-12{fill:#ea0029;}.cls-13{fill:#163d6b;}</style></defs><g id="Capa_2" data-name="Capa 2"><g id="Capa_1-2" data-name="Capa 1"><path class="cls-1" d="M22.47,265.64A29.58,29.58,0,0,0,9.86,261.3c-2.06-.21-4.31-.15-6,1.1a1.23,1.23,0,0,0-.61,1.09,1.38,1.38,0,0,0,.58.75,18,18,0,0,0,18.61,1.4"/><path class="cls-1" d="M22.15,265.29A61.16,61.16,0,0,1,14,258.12a20.51,20.51,0,0,1-5.1-9.44,3.8,3.8,0,0,1,.4-3.16c6.49,5.07,11.59,11.63,12.85,19.77"/><path class="cls-1" d="M22.4,265.6a29.59,29.59,0,0,1,.15-10.7,14.48,14.48,0,0,1,5.7-8.82c1.12,2.62.64,5.64-.15,8.38a40.63,40.63,0,0,1-5.65,11.89"/><path class="cls-1" d="M28.77,277a18.67,18.67,0,0,0-10.12,5.12,19.14,19.14,0,0,0-5.78,9.93c3.79-.23,7-2.91,9.34-5.9s3.94-6.29,6.51-9.09"/><path class="cls-1" d="M30.15,278.82A25,25,0,0,1,33,255.23c2.2,7.83,1.39,16.67-2.88,23.59"/><path class="cls-1" d="M38.56,288.84a18,18,0,0,0-17.25,9.92c-.21.43-.4,1-.11,1.36a1.27,1.27,0,0,0,1.14.33c3.4-.22,6.41-2.26,8.9-4.59s4.65-5,7.4-7"/><path class="cls-1" d="M38.29,288.29A32.11,32.11,0,0,1,38,270.35c.63-2.31,1.69-4.74,3.83-5.82a.73.73,0,0,1,.59-.11.83.83,0,0,1,.37.43,10.8,10.8,0,0,1,.9,5.15,31.71,31.71,0,0,1-.81,5.21c-.67,3.19-1,6.61-2.78,9.35A22.66,22.66,0,0,0,39,286.62c-.33.7-.33.94-.63,1.5"/><path class="cls-1" d="M60.55,291.61a23.11,23.11,0,0,1,4.06-19c.29-.38.67-.79,1.15-.74.73.06.92,1,.88,1.77a34.29,34.29,0,0,1-6.09,18"/><path class="cls-1" d="M62.56,293a27.65,27.65,0,0,0,22.7-4.62A18.45,18.45,0,0,0,73,286.85c-4.1.94-7.86,2.78-10.41,6.13"/><path class="cls-1" d="M64.25,288.8a26.22,26.22,0,0,1,20.61-11.91c-.94,3.32-3.67,5.89-6.74,7.45a37.13,37.13,0,0,1-9.89,2.89c-1.32.26-3.13.54-4,1.57"/><path class="cls-1" d="M61,268.54a60.51,60.51,0,0,0,2.63-12.07,20.1,20.1,0,0,0-2.4-11.94c-4,7.72-4.39,16.73-.35,24.42"/><path class="cls-1" d="M74.4,261.75c4.66-8.47,14.18-15.24,23.8-16.19C94.49,254.8,84.36,262,74.4,261.75"/><path class="cls-1" d="M71.47,263.41c7,1.06,12.87,5.5,19.37,8.19a8.59,8.59,0,0,0,4.38.84,3.43,3.43,0,0,0,2.15-6.06,9.24,9.24,0,0,0-3.18-1.93c-7.08-2.95-14.67-3-22.13-1.24"/><path class="cls-1" d="M67.44,268.29c1.58.45,2.11,1.26,3.36,2.33a36.23,36.23,0,0,0,14.7,7.54c.56.14,1.29.2,1.57-.31s-.06-1-.38-1.37a20.17,20.17,0,0,0-8.87-6c-3.39-1.27-6.33-2.79-10.38-2.46"/><path class="cls-1" d="M62.9,238.83a27.79,27.79,0,0,0,21.32,7.25,1.44,1.44,0,0,0,1-.34c.54-.59-.11-1.49-.73-2-6.27-4.88-13.86-6.91-21.56-4.93"/><path class="cls-1" d="M68.29,236.86a29.73,29.73,0,0,1,26.6-4.39A21.16,21.16,0,0,1,82.21,238a40.35,40.35,0,0,1-13.92-1.18"/><path class="cls-1" d="M66.15,223.32c-.62-6.25-.22-11.19-.66-17.48,0-.5-.14-1.1-.61-1.28-.65-.26-1.2.55-1.41,1.22a20,20,0,0,0,2.67,17.41"/><path class="cls-1" d="M65.7,224a36.82,36.82,0,0,0,10.36-10.08c2-2.8,3.77-6.15,3.31-9.59a9.92,9.92,0,0,0-7.48,3.71,20.93,20.93,0,0,0-3.81,7.67c-.83,2.75-1.41,5.58-2.38,8.29"/><path class="cls-1" d="M75.88,221.19a83.47,83.47,0,0,0,25.5-15c-3-1.23-6.53-.5-9.58.73a30.27,30.27,0,0,0-16.06,14.24"/><path class="cls-1" d="M68.56,227.44a52.06,52.06,0,0,0,14.16.07c4.59-.77,8.93-2.59,13.22-4.4a1.53,1.53,0,0,0,.9-.68,1,1,0,0,0-.32-1.13,2.87,2.87,0,0,0-1.13-.53,24.51,24.51,0,0,0-14.29.86,65.44,65.44,0,0,0-12.54,5.81"/><path class="cls-1" d="M41.67,239a25,25,0,0,1-.22-20.73c1.95,3,2.19,6.77,1.83,10.31s-1.44,7.19-1.51,10.75"/><path class="cls-1" d="M28.84,232.57a28.94,28.94,0,0,0-21.49,9.16,20.13,20.13,0,0,0,11.77-2.18A60.11,60.11,0,0,0,29.2,232.8"/><path class="cls-1" d="M20.21,229.69c-3.92-.32-7.69-.81-11.47.35A13.78,13.78,0,0,0,0,237.45a20.58,20.58,0,0,0,10.75-2,60.78,60.78,0,0,0,9.46-5.73"/><path class="cls-1" d="M33,229.82c-3.53-2.31-7.16-4.67-11.27-5.63S12.85,223.94,10,227c3.32,2,7.36,2.18,11.22,2.18s8.58-.05,12.22,1.24"/><path class="cls-1" d="M33,230c-6-5.93-8.32-16.57-5.89-24.67A37.6,37.6,0,0,1,33,230"/><path class="cls-1" d="M49.6,213.22c1.14-2.65,1.94-5.42,3-8.12a23.33,23.33,0,0,1,4.22-7.48,11.1,11.1,0,0,1,7.47-3.87,30.08,30.08,0,0,1-14.5,19.51"/><path class="cls-1" d="M46.6,216.72c-1.88-2.6-4.06-6.12-6.61-8.05s-5.88-3.11-9-2.36A21,21,0,0,0,46.6,216.72"/><path class="cls-1" d="M47.2,213.43a44.83,44.83,0,0,1-3-9.64,15.06,15.06,0,0,1,1.51-9.8c3.31,6.26,4.38,13,1.64,19.51"/><path class="cls-1" d="M49.63,194c1.88-6.21,7.56-10.78,13.7-12.87a5,5,0,0,1,2.4-.36,2.07,2.07,0,0,1,1.77,1.47c.22,1.06-.65,2-1.47,2.71A46.8,46.8,0,0,1,49.63,194"/><path class="cls-1" d="M49.7,188.91c.24-4,.49-8.06,1.79-11.85s3.81-7.35,7.46-9c.62,4-1.16,8.07-3.31,11.54s-4.75,6.76-6,10.64"/><path class="cls-1" d="M49.6,191.67c-1.55-4.52-1.71-10.27-4.42-14.21-1.89-2.75-4.92-4.63-6.56-7.55a11.47,11.47,0,0,0,.39,8.57,24.54,24.54,0,0,0,5,7.17c2,2.14,3.72,3.76,5.58,6"/><path class="cls-1" d="M49.63,324.88c-.12,0-.22-30.17-.23-67.39s.08-67.4.2-67.4.23,30.17.23,67.4S49.75,324.88,49.63,324.88Z"/><path class="cls-1" d="M76,234.49a6.13,6.13,0,0,1-1.13.43L71.75,236c-2.64.9-6.25,2.2-10.18,3.8s-7.55,3-9.64,4.83A7.21,7.21,0,0,0,50,247.17c-.3.71-.35,1.14-.39,1.13a1.11,1.11,0,0,1,0-.32,5,5,0,0,1,.23-.87,6.72,6.72,0,0,1,1.89-2.74,17.12,17.12,0,0,1,4.18-2.59c1.67-.79,3.53-1.6,5.49-2.41,3.94-1.61,7.59-2.87,10.25-3.69,1.33-.42,2.42-.72,3.17-.93A6.77,6.77,0,0,1,76,234.49Z"/><path class="cls-1" d="M84.65,213.26a1.83,1.83,0,0,1-.32.34l-1,.91-3.62,3.28-12,10.72C63,232.69,59,236.68,56.14,239.69c-1.4,1.5-2.51,2.74-3.27,3.61l-.87,1a1.93,1.93,0,0,1-.33.33,2,2,0,0,1,.26-.38c.18-.25.45-.61.81-1.06.72-.9,1.79-2.18,3.18-3.71a153,153,0,0,1,11.5-11.3c4.72-4.17,9-7.92,12.12-10.62l3.71-3.18,1-.85A1.86,1.86,0,0,1,84.65,213.26Z"/><path class="cls-1" d="M62.64,232.76c-.12-.06.86-2.32,1.84-5.19s1.45-5.28,1.57-5.26a17.37,17.37,0,0,1-1.16,5.4,34.67,34.67,0,0,1-1.46,3.63A5.67,5.67,0,0,1,62.64,232.76Z"/><path class="cls-1" d="M49.66,251a4.77,4.77,0,0,1-.72-.84l-1.86-2.38c-1.56-2-3.71-4.79-6.12-7.83s-4.63-5.77-6.24-7.74c-.76-.94-1.39-1.73-1.9-2.35a5.89,5.89,0,0,1-.65-.89,5.53,5.53,0,0,1,.78.78c.49.53,1.17,1.3,2,2.26,1.67,1.92,3.93,4.62,6.35,7.67s4.53,5.86,6,7.92c.75,1,1.34,1.87,1.74,2.46A6,6,0,0,1,49.66,251Z"/><path class="cls-1" d="M43.88,243.6a10.73,10.73,0,0,1-2.43-4.54,12.87,12.87,0,0,1-.54-4.57l.19,0c-.09.35-.15.53-.19.53a1.4,1.4,0,0,1,0-.56h.19a20.73,20.73,0,0,0,.77,4.45A33.17,33.17,0,0,0,43.88,243.6Z"/><path class="cls-1" d="M36.41,234.21a7.26,7.26,0,0,0-1.69-1,11.23,11.23,0,0,0-4.69-.38,28.41,28.41,0,0,0-4.73.77,15.15,15.15,0,0,1-1.95.46,6.78,6.78,0,0,1,1.86-.76,21.91,21.91,0,0,1,4.78-.9,10.18,10.18,0,0,1,4.85.52A3,3,0,0,1,36.41,234.21Z"/><path class="cls-1" d="M34.64,231.93c0,.07-1-.39-2.59-.94a26.66,26.66,0,0,0-6.46-1.33A27,27,0,0,0,19,230c-1.67.3-2.68.62-2.7.54a2.49,2.49,0,0,1,.69-.29,16,16,0,0,1,1.95-.55,23,23,0,0,1,13.23,1,14.47,14.47,0,0,1,1.85.84A2.64,2.64,0,0,1,34.64,231.93Z"/><path class="cls-1" d="M49.6,222.31a53.64,53.64,0,0,1-1.89-6.56,55,55,0,0,1-1.47-6.68,51.47,51.47,0,0,1,1.89,6.57A52.43,52.43,0,0,1,49.6,222.31Z"/><path class="cls-1" d="M49.72,222.31a31.28,31.28,0,0,0-2.09-3.93,17.22,17.22,0,0,0-3.09-3.18s.51.13,1.19.61A9.43,9.43,0,0,1,48,218.13,8.6,8.6,0,0,1,49.72,222.31Z"/><path class="cls-1" d="M49.63,308.8c-.05,0-.13-.73-.47-2a28.59,28.59,0,0,0-2-5.22,72.29,72.29,0,0,0-10.7-15.08c-2.39-2.73-4.71-5.3-6.67-7.77A53.82,53.82,0,0,1,25,271.84a32.29,32.29,0,0,1-2.41-5.11c-.22-.62-.39-1.12-.48-1.46a2.91,2.91,0,0,1-.12-.52s.26.69.76,1.92a36.59,36.59,0,0,0,2.51,5,57.24,57.24,0,0,0,4.82,6.78c2,2.44,4.3,5,6.69,7.74a68.53,68.53,0,0,1,10.65,15.22,26.06,26.06,0,0,1,1.9,5.32c.14.65.23,1.16.27,1.51A2.19,2.19,0,0,1,49.63,308.8Z"/><path class="cls-1" d="M73.46,281.88a12.29,12.29,0,0,1-1.25.7A28.2,28.2,0,0,0,69,284.72a37.57,37.57,0,0,0-4.25,3.88c-1.49,1.58-3,3.41-4.6,5.38-3.14,3.93-6.08,7.42-7.83,10.2a37.92,37.92,0,0,0-2,3.36,12.38,12.38,0,0,1-.69,1.26,1.48,1.48,0,0,1,.12-.36c.09-.22.22-.56.42-1A32.66,32.66,0,0,1,52,304a111.5,111.5,0,0,1,7.76-10.32c1.57-2,3.13-3.8,4.65-5.37a33.26,33.26,0,0,1,4.36-3.85,23,23,0,0,1,3.34-2.05c.42-.21.75-.33,1-.43A1.35,1.35,0,0,1,73.46,281.88Z"/><path class="cls-1" d="M73.93,290.61a17.14,17.14,0,0,1-2.64.39A34.78,34.78,0,0,0,65,292.23a18.78,18.78,0,0,0-5.61,2.94c-1.29,1-1.9,1.83-2,1.78a2.13,2.13,0,0,1,.39-.61,10.26,10.26,0,0,1,1.38-1.41,17.08,17.08,0,0,1,5.66-3.12,28.62,28.62,0,0,1,6.37-1.12A15.54,15.54,0,0,1,73.93,290.61Z"/><path class="cls-1" d="M58.23,296c-.14-.08,1.05-1.9,2-4.34s1.06-4.63,1.22-4.6a4.19,4.19,0,0,1,0,1.41,16.1,16.1,0,0,1-.77,3.34,16.61,16.61,0,0,1-1.54,3.06A4.39,4.39,0,0,1,58.23,296Z"/><path class="cls-1" d="M81.18,258.44a2.45,2.45,0,0,1-.42.22l-1.24.57c-.55.23-1.21.53-2,.92s-1.62.78-2.52,1.32l-1.44.82c-.5.29-1,.63-1.52,1-1.06.64-2.13,1.44-3.26,2.25a61.38,61.38,0,0,0-6.81,6,62.29,62.29,0,0,0-5.75,7c-.77,1.16-1.53,2.25-2.13,3.34-.31.53-.64,1-.91,1.55l-.77,1.46c-.51.93-.88,1.81-1.23,2.57s-.64,1.42-.86,2l-.52,1.25c-.12.29-.19.44-.21.43a2.36,2.36,0,0,1,.13-.46c.12-.34.26-.76.44-1.29s.45-1.24.79-2,.69-1.67,1.19-2.61l.75-1.48c.26-.52.58-1,.89-1.58.59-1.1,1.34-2.2,2.11-3.38a57.36,57.36,0,0,1,5.77-7.08,59.35,59.35,0,0,1,6.88-6c1.15-.8,2.23-1.59,3.3-2.23.54-.32,1-.66,1.55-.94l1.46-.8c.92-.53,1.8-.91,2.56-1.27s1.43-.65,2-.86l1.27-.49A2.85,2.85,0,0,1,81.18,258.44Z"/><path class="cls-1" d="M62.32,271.08a3,3,0,0,1,1-1.55,6.52,6.52,0,0,1,4.17-1.6,11.32,11.32,0,0,1,4.4.86,5.84,5.84,0,0,1,1.66.81,10.63,10.63,0,0,1-1.76-.52,13.39,13.39,0,0,0-4.28-.72,6.83,6.83,0,0,0-4,1.41A11,11,0,0,0,62.32,271.08Z"/><path class="cls-1" d="M59.5,274a15.79,15.79,0,0,0,1.19-3.86,15.45,15.45,0,0,0-.27-4,2.62,2.62,0,0,1,.49,1.13,7.87,7.87,0,0,1,.21,2.95,8.08,8.08,0,0,1-.88,2.83C59.87,273.67,59.54,274,59.5,274Z"/><path class="cls-1" d="M28.79,313.12c.65,11.53,4.13,23.26,9.47,35.12H61.5c5.1-11.74,8.34-23.45,8.91-35.12Z"/><path class="cls-2" d="M66.65,331.78c0,.12-7.66.22-17.1.22s-17.09-.1-17.09-.22,7.65-.22,17.09-.22S66.65,331.66,66.65,331.78Z"/><path class="cls-2" d="M66.13,336c0,.12-7.18.22-16,.22s-16-.1-16-.22,7.17-.22,16-.22S66.13,335.84,66.13,336Z"/><path class="cls-2" d="M38.64,320.69a33.81,33.81,0,0,1,.21,5.36,33.73,33.73,0,0,1-.21,5.35,65.28,65.28,0,0,1,0-10.71Z"/><path class="cls-2" d="M51.09,320.69a70,70,0,0,1,0,11.09,70,70,0,0,1,0-11.09Z"/><path class="cls-2" d="M62.78,320.6a72.79,72.79,0,0,1,0,11.31,72.79,72.79,0,0,1,0-11.31Z"/><path class="cls-2" d="M69.67,320.69c0,.12-9,.22-20,.22s-20.05-.1-20.05-.22,9-.22,20.05-.22S69.67,320.57,69.67,320.69Z"/><path class="cls-3" d="M267.57,349.06,153.83,349a24.78,24.78,0,0,1-24.76-24.78l.06-285.13a24.77,24.77,0,0,1,24.79-24.77l113.73.06a24.78,24.78,0,0,1,24.76,24.78l-.05,285.14A24.79,24.79,0,0,1,267.57,349.06Z"/><path class="cls-2" d="M267.53,24.46l-22,0a5.49,5.49,0,0,0-5.36,5.6v4a5.47,5.47,0,0,1-5.35,5.59l-43,0a5.48,5.48,0,0,1-5.35-5.6V30a5.48,5.48,0,0,0-5.35-5.6H154a17.35,17.35,0,0,0-17.36,17.35l0,278.31A17.36,17.36,0,0,0,154,337.41l113.51.06a17.35,17.35,0,0,0,17.36-17.35l.05-278.31A17.34,17.34,0,0,0,267.53,24.46Z"/><path class="cls-3" d="M148.54,62.13l.22,0,.59,0,2.2-.06-.08.08c0-.49,0-1,0-1.6,0-.3,0-.57,0-.92a.86.86,0,0,1,.76-.69c.36,0,.66,0,1.06,0a.88.88,0,0,1,.74.87c0,.75,0,1.52,0,2.33L153.9,62l2.77,0-.13.14c0-1.12,0-2.28,0-3.46,0-.3,0-.59,0-.88s-.16-.43-.38-.64l-1.21-1.19-1.17-1.16-.57-.56a1.4,1.4,0,0,0-.56-.42.72.72,0,0,0-.62.12c-.16.13-.34.34-.51.5l-1,1c-.62.64-1.28,1.24-1.75,1.8a1.94,1.94,0,0,0-.14,1v1l0,1.58c0,.39,0,.72,0,1a2.89,2.89,0,0,1,0,.37,1.06,1.06,0,0,1,0-.33c0-.28,0-.6,0-1s0-1,0-1.59c0-.31,0-.64,0-1a2.11,2.11,0,0,1,.15-1.14c.51-.64,1.12-1.19,1.75-1.86l1-1c.18-.17.32-.34.54-.53a1,1,0,0,1,.82-.16,1.5,1.5,0,0,1,.68.48l.57.56,1.17,1.15,1.22,1.19a1.17,1.17,0,0,1,.46.82c0,.3,0,.59,0,.89,0,1.18,0,2.34,0,3.45v.14h-3v-.12c0-.81,0-1.58,0-2.33a.65.65,0,0,0-.54-.65h-1a.65.65,0,0,0-.58.52,8.58,8.58,0,0,0,0,.88c0,.57,0,1.11,0,1.6v.07h-.07l-2.24,0h-.58C148.6,62.14,148.53,62.14,148.54,62.13Z"/><path class="cls-3" d="M268.82,55.05a.81.81,0,0,1-.83.82.83.83,0,0,1-.83-.83.84.84,0,0,1,.84-.82A.83.83,0,0,1,268.82,55.05Z"/><path class="cls-3" d="M268.81,58a.82.82,0,0,1-.83.82.83.83,0,0,1-.83-.83.82.82,0,0,1,.83-.82A.83.83,0,0,1,268.81,58Z"/><path class="cls-3" d="M268.8,61a.83.83,0,0,1-1.66,0,.82.82,0,0,1,.83-.82A.83.83,0,0,1,268.8,61Z"/><path class="cls-3" d="M107.84,320.37s-50.35-30.08-62.48-15.81,9.75,27.31,14,30.2,47.44,20.43,47.44,20.43l12.36-11.73Z"/><path class="cls-4" d="M86.52,333.65l-21.35,9.94-19.16,3a2.41,2.41,0,0,0-2,2.92h0a2.4,2.4,0,0,0,1.42,1.69c4.6,1.91,21.56,8.84,23.08,8,1.76-1,23.22-9,23.22-9Z"/><g class="cls-5"><path class="cls-6" d="M44,349.51l26,9.08-.91.4a3.6,3.6,0,0,1-2.5.16c-2.21-.67-8.27-2.63-21.09-7.89A2.39,2.39,0,0,1,44,349.51Z"/></g><g class="cls-5"><path class="cls-6" d="M75,351.11a1.46,1.46,0,0,0-1.9.4,1.41,1.41,0,0,0,.38,1.9,1.54,1.54,0,0,0,2-.44,1.44,1.44,0,0,0-.61-1.92"/></g><path class="cls-3" d="M55.62,350.31a7.54,7.54,0,0,0,.84-2.63,7.11,7.11,0,0,0-.61-2.69s.33.16.63.63a3.76,3.76,0,0,1,.5,2.08,3.7,3.7,0,0,1-.69,2C56,350.18,55.66,350.35,55.62,350.31Z"/><path class="cls-3" d="M52.05,350a17.82,17.82,0,0,0,.09-2.32,20.48,20.48,0,0,0-.65-2.23c.09-.11,1,.73,1.17,2.17A2.69,2.69,0,0,1,52.05,350Z"/><path class="cls-3" d="M60.57,351.55A23.76,23.76,0,0,0,61,348a25.91,25.91,0,0,0-.65-3.53,6.61,6.61,0,0,1,.27,7.1Z"/><path class="cls-3" d="M67.32,349.06c-.16,0-.18-1.41-.81-3s-1.53-2.64-1.42-2.75a6,6,0,0,1,2.23,5.73Z"/><path class="cls-3" d="M73.66,346.3a12,12,0,0,0-.76-3.13,11.38,11.38,0,0,0-2-2.54c0-.06.41.06.91.43A5.25,5.25,0,0,1,73.37,343a5.1,5.1,0,0,1,.52,2.37C73.86,346,73.72,346.32,73.66,346.3Z"/><path class="cls-3" d="M74.13,342.68a2,2,0,0,1,.8-.38,6.17,6.17,0,0,1,2.42-.29,2.73,2.73,0,0,1,1.67.55,1,1,0,0,1,.24,1.09,1.58,1.58,0,0,1-.82.77A3.42,3.42,0,0,1,74.35,343a4,4,0,0,1,.33-4.4,1.41,1.41,0,0,1,1-.51,1,1,0,0,1,.87.71,3.39,3.39,0,0,1-.12,1.74,6.93,6.93,0,0,1-1,2.21c-.34.47-.58.68-.6.66a10.92,10.92,0,0,0,1.27-2.95,3.18,3.18,0,0,0,.07-1.53.52.52,0,0,0-.47-.39,1,1,0,0,0-.65.38,3.55,3.55,0,0,0-.25,3.81,3,3,0,0,0,3.46,1.3,1.18,1.18,0,0,0,.6-.51.52.52,0,0,0-.13-.6,2.48,2.48,0,0,0-1.41-.5A9.39,9.39,0,0,0,74.13,342.68Z"/><path class="cls-3" d="M78.94,335.87s50.66-26.8,57.48-30.09c5.87-2.83,24.23-8.77,29.56,8.81s-30.23,41-30.23,41l-29-.39L97.32,351l-11.16,2.73Z"/><path class="cls-7" d="M161.06,332.26a4.65,4.65,0,0,1-.51,1c-.35.62-.94,1.45-1.68,2.49a74,74,0,0,1-6.51,7.42c-2.71,2.75-5.28,5.1-7.19,6.75-1,.83-1.74,1.48-2.3,1.92a5.34,5.34,0,0,1-.89.65,4.84,4.84,0,0,1,.77-.79l2.19-2c1.84-1.72,4.38-4.11,7.07-6.84a94.77,94.77,0,0,0,6.59-7.3C160.16,333.54,161,332.21,161.06,332.26Z"/><path class="cls-4" d="M112.28,356.12l21.44,9.75,14.73,12.6a2.42,2.42,0,0,0,3.51-.39h0a2.42,2.42,0,0,0,.36-2.18c-1.54-4.73-7.3-22.13-8.91-22.75-1.86-.73-21.93-11.79-21.93-11.79Z"/><g class="cls-5"><path class="cls-6" d="M152,378.08l-10-25.62.9.43a3.65,3.65,0,0,1,1.75,1.8c.93,2.11,3.38,8,7.72,21.15a2.41,2.41,0,0,1-.39,2.24Z"/></g><g class="cls-5"><path class="cls-6" d="M133,353.5a1.45,1.45,0,0,0,1.54,1.19,1.4,1.4,0,0,0,1.19-1.52,1.54,1.54,0,0,0-1.64-1.25,1.45,1.45,0,0,0-1.06,1.72"/></g><path class="cls-3" d="M145,368.76a7.44,7.44,0,0,0-2.55,1.06,7.26,7.26,0,0,0-1.64,2.22c-.06,0-.1-.36.07-.89a3.81,3.81,0,0,1,1.26-1.74,3.73,3.73,0,0,1,2-.79C144.71,368.58,145,368.7,145,368.76Z"/><path class="cls-3" d="M147.14,371.64c.05.15-1,.49-1.82,1.44s-1.12,2-1.26,1.94a2.65,2.65,0,0,1,.88-2.29C145.91,371.66,147.14,371.5,147.14,371.64Z"/><path class="cls-3" d="M142.75,364.19a23.29,23.29,0,0,0-3,2,23.26,23.26,0,0,0-2.25,2.79,6.59,6.59,0,0,1,5.21-4.82Z"/><path class="cls-3" d="M136.48,360.68c.1.12-1,1.05-1.75,2.55s-1,2.88-1.16,2.87a4.68,4.68,0,0,1,.71-3.11A4.61,4.61,0,0,1,136.48,360.68Z"/><path class="cls-3" d="M130.26,357.66a11.47,11.47,0,0,0-1.89,2.6,11.62,11.62,0,0,0-.65,3.16c-.06,0-.22-.35-.26-1a5.26,5.26,0,0,1,1.9-4.32C129.86,357.73,130.23,357.6,130.26,357.66Z"/><path class="cls-3" d="M127.2,359.65a2,2,0,0,1-.81-.35,6.25,6.25,0,0,1-1.8-1.66,2.73,2.73,0,0,1-.66-1.63,1,1,0,0,1,.67-.89,1.57,1.57,0,0,1,1.11.13,3.42,3.42,0,0,1,1.55,4.06,4,4,0,0,1-3.56,2.6,1.37,1.37,0,0,1-1-.43,1,1,0,0,1,0-1.12,3.36,3.36,0,0,1,1.4-1.05,7,7,0,0,1,2.34-.65,2.06,2.06,0,0,1,.89,0,10.8,10.8,0,0,0-3.07.95,3.17,3.17,0,0,0-1.2.94.51.51,0,0,0,0,.61,1,1,0,0,0,.71.25,3.54,3.54,0,0,0,3.06-2.29,3,3,0,0,0-1.26-3.47,1.11,1.11,0,0,0-.78-.12.53.53,0,0,0-.38.48,2.48,2.48,0,0,0,.54,1.39A9.09,9.09,0,0,0,127.2,359.65Z"/><path class="cls-3" d="M121.49,362.15c-.6-.36-24.78-11.89-24.78-11.89l25.34-10.75,14.39,8.54Z"/><path class="cls-7" d="M153.85,334.12l-.34.08-1,.27-3.82,1.08-14,4L88.36,353l-2.24.54.22.12L79.11,335.8,79,336l29.55-15.79,8.51-4.59,2.26-1.23.58-.33c.13-.07.2-.11.19-.12l-.2.09-.6.3L117,315.55,108.47,320,78.86,335.71l-.15.08.06.15L86,353.75l.06.15.16,0,2.24-.55c1.15-.26,2.27-.61,3.38-.93l3.32-1,6.5-1.89,12.28-3.59,20.79-6.1,14-4.14,3.8-1.14,1-.31Z"/><path class="cls-7" d="M121.49,362.15a10,10,0,0,0,1-.83L125,359c2.15-2,5.09-4.76,8.33-7.83l3.25-3.11.18-.17-.21-.12-7.31-4.08-2.14-1.15a4,4,0,0,0-.79-.38,4.51,4.51,0,0,0,.73.48l2.09,1.25,7.24,4.2,0-.29-3.26,3.09c-3.24,3.08-6.15,5.88-8.25,7.92l-2.47,2.43A7.48,7.48,0,0,0,121.49,362.15Z"/><path class="cls-7" d="M74.33,311.21c0,.1,5.89,3.1,13.26,6.71S101,324.38,101,324.29s-5.9-3.1-13.27-6.71S74.37,311.12,74.33,311.21Z"/><path class="cls-7" d="M116.33,238.8c.51,0,18.39.9,21.78,4.72S145.78,303,145.78,303a30.53,30.53,0,0,0-8.89,2.81L105.5,321.74l-12.74-7.59a3.3,3.3,0,0,1-.64-5.07h0L78.31,244.85a32.51,32.51,0,0,1,8.78-4.13C92.36,239.13,116.33,238.8,116.33,238.8Z"/><path class="cls-7" d="M84.36,242.82s-5.44.88-7.69,4.07c-5.28,7.49-21.7,34.23-24.58,40.69-3,6.85-.44,11,1.29,14.06,1.87,3.3,13.13,3.95,18.55-1.21,2.33-2.21,15.16-12.57,15.16-12.57Z"/><path class="cls-3" d="M77.65,252.71a3.4,3.4,0,0,0,.18.56c.14.39.32.91.56,1.57.47,1.37,1.12,3.36,1.84,5.85,1.47,5,3.22,11.91,5,19.61L89.87,300c.59,2.52,1.09,4.56,1.45,6,.17.67.32,1.21.42,1.61a4.88,4.88,0,0,0,.18.56,3.43,3.43,0,0,0-.1-.58L91.46,306c-.32-1.45-.77-3.49-1.33-6-1.12-5.06-2.65-12.06-4.48-19.76s-3.63-14.64-5.16-19.6c-.76-2.48-1.45-4.46-2-5.82-.27-.65-.48-1.16-.63-1.55A3.88,3.88,0,0,0,77.65,252.71Z"/><path class="cls-7" d="M137.32,242.84a13,13,0,0,1,5.33,2.86c1.95,2,23.58,36.3,25.76,45.91,1.26,5.58-5.45,16.59-11.93,15.66-8.48-1.21-39.74-15.34-39.74-15.34l8.08-15.18,17.9,3.95-12.37-14,6.34-24.27"/><path class="cls-3" d="M58.78,284.72a1.79,1.79,0,0,0,.33-.17L60,284l3.34-2.12c2.81-1.81,6.68-4.32,10.94-7.11l2.84-1.88-.25-.05c2.41,3.55,4.55,6.64,6.11,8.83a25.5,25.5,0,0,0,2.63,3.42l-2.43-3.56c-1.54-2.27-3.63-5.37-6-8.9l-.11-.15-.15.1-2.85,1.87c-4.26,2.8-8.11,5.34-10.88,7.21L60,283.87l-.88.61C58.87,284.63,58.77,284.71,58.78,284.72Z"/><polygon class="cls-8" points="110.4 270.36 124.36 277.62 117.92 289.72 109.29 283.28 110.4 270.36"/><path class="cls-1" d="M96.77,270.79l-9.21-7.05a1.8,1.8,0,0,0-1.13-.37l-12.61.34a1,1,0,0,0-.94.94,1.73,1.73,0,0,0,.45,1.36l19.55,15.33,15.32-1.53Z"/><path class="cls-8" d="M110.4,270.36s-5-4.14-6.16-4.42-6.68-.57-6.68-.57l-4.75,2.36,2.73,2.1a4.36,4.36,0,0,0,2.62-1.06l3.17.4Z"/><path class="cls-8" d="M104.67,268.36l-8.35,2.33-11.86,1a2.57,2.57,0,0,0,2.19,2.77c1.41.24,3.88.55,3.88.55a4,4,0,0,0,2.27,2.79A6.11,6.11,0,0,0,94.46,280a1.4,1.4,0,0,0,.34.18c1.12.39,3.19,3.59,4.67,4.09s9.82-1,9.82-1l1.11-12.92Z"/><path class="cls-9" d="M101.87,274.9s-.66.1-1.71.24a31.64,31.64,0,0,1-4.15.3,30.86,30.86,0,0,1-4.14-.25c-1.06-.13-1.71-.27-1.72-.23a3,3,0,0,0,.45.14c.29.07.71.16,1.24.25a24.86,24.86,0,0,0,4.18.32,26.12,26.12,0,0,0,4.16-.37c.53-.1.95-.19,1.24-.26A3,3,0,0,0,101.87,274.9Z"/><path class="cls-9" d="M100.09,278.16a2,2,0,0,0,0,.81,1.75,1.75,0,0,0,.39.82,1.48,1.48,0,0,0,1,.41,2.76,2.76,0,0,0,1.07-.24c.31-.14.56-.28.78-.39a7.7,7.7,0,0,0,.73-.34,1.92,1.92,0,0,0-.79.2,4.91,4.91,0,0,1-1.79.55,1.24,1.24,0,0,1-.9-.34,1.67,1.67,0,0,1-.39-.71A4.45,4.45,0,0,0,100.09,278.16Z"/><path class="cls-9" d="M94,278.61a3.67,3.67,0,0,0,.88.28,22.25,22.25,0,0,0,2.19.4,20.54,20.54,0,0,0,2.22.15,3.26,3.26,0,0,0,.93-.05c0-.06-1.41-.11-3.12-.33S94,278.54,94,278.61Z"/><path class="cls-9" d="M100,282.36a2.17,2.17,0,0,0,1.31.67,2.31,2.31,0,0,0,1.47-.06c0-.07-.65,0-1.42-.16S100.05,282.31,100,282.36Z"/><path class="cls-9" d="M97.07,282c0,.07.38.19.87.29a2,2,0,0,0,.91.06,3.9,3.9,0,0,0-1.78-.35Z"/><path class="cls-9" d="M96.32,270.69a22.4,22.4,0,0,0,3.9-1.06c1.07-.34,2-.67,2.71-.94a4.92,4.92,0,0,0,1.08-.49,8.43,8.43,0,0,0-1.13.34l-2.72.88-2.72.88A11.58,11.58,0,0,0,96.32,270.69Z"/><path class="cls-8" d="M84.14,273s.93-.26,0-1.75-3.74.09-3.74.09l-3.61,1.88s-.9,1.77,0,2.31l.67.93s-1.45,1.3-1,2.54a1.88,1.88,0,0,0,1.84,1.15s-.3,2.44.44,3.43a2.68,2.68,0,0,0,1.47,1.12,4.38,4.38,0,0,0,2.86,2.8c2.32.74,3.54.85,4.23-.1a10.69,10.69,0,0,0,1.17-2.18s5.19-2.35,5.37-3.68,0-1.47,0-1.47a2.52,2.52,0,0,0,0-1.94c-.46-.85-2.5-.25-2.5-.25L84.93,279s5.28-2.12,5.94-2.87.06-1.76-2-1.64-8.38.93-8.38.93a1.88,1.88,0,0,1,.77-.75c.43-.15,1.76-.83,1.76-.83Z"/><path class="cls-9" d="M82.05,282.59c0,.06,2.65-.45,5.9-1.15s5.86-1.3,5.85-1.36-2.65.45-5.9,1.14S82,282.53,82.05,282.59Z"/><path class="cls-9" d="M84.9,286.27a7.85,7.85,0,0,0,1.91-.38,13.18,13.18,0,0,0,1.31-.41,2.81,2.81,0,0,0,.38-.18.29.29,0,0,0,.1-.08s0-.06,0-.05-.81.23-1.84.51A9.87,9.87,0,0,0,84.9,286.27Z"/><path class="cls-9" d="M79.77,279.62c0,.06,1.27-.12,2.84-.28s2.84-.26,2.84-.32a13,13,0,0,0-2.86.1A12.69,12.69,0,0,0,79.77,279.62Z"/><path class="cls-9" d="M78.39,276.21c0,.06.57-.27,1.29-.49s1.35-.23,1.35-.3a2.35,2.35,0,0,0-1.41.09A2.39,2.39,0,0,0,78.39,276.21Z"/><path class="cls-3" d="M73.45,264.83h.23l.68,0,2.48-.16c2.09-.12,5-.2,8.18-.09a4.5,4.5,0,0,1,2.22.39,8,8,0,0,1,.87.66l.83.66,2.88,2.3,2,1.53.54.41a1,1,0,0,0,.2.13l-.17-.17-.52-.44-1.91-1.58-2.85-2.34-.82-.67c-.29-.22-.57-.47-.9-.68a2.83,2.83,0,0,0-1.13-.36c-.4-.05-.8-.05-1.2-.06a79,79,0,0,0-8.19.15c-1,.08-1.9.16-2.48.23l-.67.09Z"/><path class="cls-6" d="M81.21,266.41a.62.62,0,0,1,.62-.2h0l.09,0h0a.87.87,0,0,1,.47.3.53.53,0,0,1,0,.66.68.68,0,0,1-.36.15.86.86,0,0,1-.72-.23A.59.59,0,0,1,81.21,266.41Z"/><path class="cls-3" d="M140.91,302.34a3.14,3.14,0,0,0-.45-.23l-1.33-.6-5-2.21-17.32-7.54.09.25,5.33-10,2.76-5.18-.21.09,17.58,3.72h0a36.35,36.35,0,0,1,8.93,4.55c1,.68,1.7,1.26,2.2,1.66l.56.45c.12.1.19.15.2.14l-.18-.17-.53-.49c-.48-.41-1.19-1-2.16-1.72a34.54,34.54,0,0,0-8.93-4.7h0l-17.56-3.8-.14,0-.06.12-2.76,5.18c-1.87,3.51-3.66,6.89-5.32,10l-.09.18.18.07,17.38,7.41,5,2.12,1.35.55A3,3,0,0,0,140.91,302.34Z"/><path class="cls-3" d="M132.19,269.15a14,14,0,0,0,1.36,1.86c.88,1.12,2.11,2.65,3.52,4.3s2.72,3.13,3.72,4.14a11,11,0,0,0,1.26,1.14c.17.11.29.22.45.2a.1.1,0,0,0,0-.14s0,0,0,0,0,.09-.05.11a1.45,1.45,0,0,1-.33-.24c-.29-.27-.68-.69-1.16-1.21-.94-1.06-2.22-2.55-3.62-4.2l-3.61-4.23A14,14,0,0,0,132.19,269.15Z"/><path class="cls-3" d="M129.16,261.83c.08,0-.08-1.15,0-3a18.94,18.94,0,0,1,.45-3.17A21.78,21.78,0,0,1,130.9,252a21.1,21.1,0,0,1,2-3.4,19.37,19.37,0,0,1,2.08-2.43c1.31-1.29,2.27-1.92,2.23-2a2.92,2.92,0,0,0-.69.41,7.56,7.56,0,0,0-.77.56,11.86,11.86,0,0,0-.95.81,17.44,17.44,0,0,0-2.18,2.43,18.43,18.43,0,0,0-3.29,7.24,18.06,18.06,0,0,0-.38,3.24,10.24,10.24,0,0,0,0,1.26,6.11,6.11,0,0,0,.08.94A4.18,4.18,0,0,0,129.16,261.83Z"/><path class="cls-3" d="M107.55,314.75c0-.07-.92,0-2.38-.15a21.71,21.71,0,0,1-10.61-3.82c-1.21-.83-1.88-1.44-1.93-1.39s.14.18.43.47A13.76,13.76,0,0,0,94.4,311a19.33,19.33,0,0,0,10.76,3.87,15.26,15.26,0,0,0,1.75,0A2.3,2.3,0,0,0,107.55,314.75Z"/><path class="cls-3" d="M97.73,298.13a3.09,3.09,0,0,0,.44.65c.31.4.77,1,1.36,1.66,1.16,1.38,2.83,3.24,4.77,5.2s3.8,3.64,5.18,4.81c.69.59,1.25,1.05,1.65,1.36a3.31,3.31,0,0,0,.65.46,3.67,3.67,0,0,0-.55-.57l-1.57-1.45c-1.33-1.22-3.15-2.92-5.09-4.87s-3.63-3.78-4.84-5.12c-.57-.61-1-1.14-1.44-1.58A3.35,3.35,0,0,0,97.73,298.13Z"/><path class="cls-3" d="M114.15,221.12A65.56,65.56,0,0,0,115.5,210a22.83,22.83,0,0,0-2.37-10.87c-.27-.51-2.42-3.82-3-3.69-.39.09,1.09,3.26.93,3.63a19.28,19.28,0,0,0-.64,11.43,50.94,50.94,0,0,0,3.71,10.65"/><path class="cls-8" d="M96.1,244.53c-.38-2.62-.69-4.69-.71-4.69s-9.13.31-10.92-8.53C83.6,227,82.53,218.1,81.65,210a16.8,16.8,0,0,1,13.57-18.31l.86-.17c9.32-1.21,15.56,6,16.52,15.38L117,239.5l-15.27,14.22Z"/><path class="cls-9" d="M95.39,239.84a21.73,21.73,0,0,0,10.89-5.61s-1.59,7-10.58,7.87Z"/><path class="cls-3" d="M85.71,217.19a1.28,1.28,0,0,0,1.46,1,1.23,1.23,0,0,0,1.09-1.39,1.29,1.29,0,0,0-1.47-1A1.22,1.22,0,0,0,85.71,217.19Z"/><path class="cls-3" d="M84.25,213.32c.18.13,1-.76,2.37-1s2.49.24,2.61,0-.16-.35-.66-.59a3.5,3.5,0,0,0-2.12-.23,3.33,3.33,0,0,0-1.85,1C84.24,212.93,84.16,213.26,84.25,213.32Z"/><path class="cls-3" d="M98,215.56a1.28,1.28,0,0,0,1.46,1,1.23,1.23,0,0,0,1.09-1.39,1.29,1.29,0,0,0-1.46-1A1.22,1.22,0,0,0,98,215.56Z"/><path class="cls-3" d="M97.69,211.33c.19.13,1-.76,2.38-1s2.49.23,2.6,0-.16-.36-.65-.59a3.54,3.54,0,0,0-2.13-.24,3.43,3.43,0,0,0-1.85,1C97.69,210.94,97.6,211.27,97.69,211.33Z"/><path class="cls-3" d="M94.8,222.72a9.41,9.41,0,0,0-2.29,0c-.35,0-.7,0-.8-.2a1.79,1.79,0,0,1,0-1.07c.17-.91.35-1.85.53-2.85a46.76,46.76,0,0,0,1-7.36,46.56,46.56,0,0,0-1.58,7.27q-.25,1.49-.48,2.85a2,2,0,0,0,.08,1.4.89.89,0,0,0,.67.4,2.93,2.93,0,0,0,.61,0A8.83,8.83,0,0,0,94.8,222.72Z"/><path class="cls-3" d="M99,222.9c-.22,0,.06,1.51-1,2.8s-2.67,1.43-2.64,1.63.41.22,1.08.12a3.81,3.81,0,0,0,2.22-1.29,3.27,3.27,0,0,0,.75-2.32C99.32,223.21,99.08,222.87,99,222.9Z"/><path class="cls-3" d="M96.71,205.79c.21.34,1.53-.09,3.17-.2s3,.07,3.16-.3c.06-.17-.23-.48-.82-.74a5.49,5.49,0,0,0-4.82.38C96.86,205.28,96.62,205.62,96.71,205.79Z"/><path class="cls-3" d="M84,208.68c.3.27,1.17-.23,2.3-.46s2.12-.19,2.28-.56c.07-.17-.14-.45-.62-.67a3.27,3.27,0,0,0-2-.15,3.23,3.23,0,0,0-1.72,1C83.88,208.21,83.81,208.55,84,208.68Z"/><path class="cls-8" d="M113.12,213.6c.14-.1,5.75-3,6.71,3.13s-5.36,5.8-5.4,5.63S113.12,213.6,113.12,213.6Z"/><path class="cls-9" d="M115.93,219.76s.12.05.31.11a1.09,1.09,0,0,0,.8-.11,2.67,2.67,0,0,0,.84-2.55,3.53,3.53,0,0,0-.53-1.47,1.23,1.23,0,0,0-.93-.69.53.53,0,0,0-.58.39c-.06.18,0,.3,0,.31s-.15-.08-.14-.34a.76.76,0,0,1,.18-.42.89.89,0,0,1,.57-.25,1.52,1.52,0,0,1,1.25.77,3.66,3.66,0,0,1,.64,1.65,2.78,2.78,0,0,1-1.14,2.87,1.12,1.12,0,0,1-1,0C116,219.9,115.91,219.77,115.93,219.76Z"/><path class="cls-3" d="M84.1,199.3c-1.07-.4,1.42-4,3.68-5.5,3.43-2.21,8.88-4.06,12.4-3.61,4.25.55,7.93,2.08,10.52,5.48a24.23,24.23,0,0,1,4.52,11.86,7.42,7.42,0,0,1-.31,3.86c-.65,1.47-2.16,2.56-1.81,4.41a2.58,2.58,0,0,1-.36,2c-.94,1.36-2.47.44-3.27-.58-1.69-2.19-2.26-5-2.79-7.75a17.86,17.86,0,0,1-.47-5.86c.14-1.06.48-2.09.57-3.16a3.68,3.68,0,0,0-.89-3,3.09,3.09,0,0,0-.57-.43,6.42,6.42,0,0,0-6.49-.27c-3.26,1.73-8.86,4.42-10.56,3.48a9.46,9.46,0,0,1-3.15-2.37Z"/><path class="cls-4" d="M207.46,278.4a19.11,19.11,0,1,1,19.11-19.11A19.13,19.13,0,0,1,207.46,278.4Zm0-37.28a18.17,18.17,0,1,0,18.17,18.17A18.19,18.19,0,0,0,207.46,241.12Z"/><polygon class="cls-4" points="199.21 259.19 201.85 256.55 206.94 261.07 215.27 252.42 217.72 255.06 206.56 266.16 199.21 259.19"/><path class="cls-3" d="M261.75,213.2c0,.14-22.68.25-50.64.25s-50.66-.11-50.66-.25,22.68-.24,50.66-.24S261.75,213.07,261.75,213.2Z"/><path class="cls-3" d="M247.2,222c0,.13-17.24.24-38.51.24s-38.51-.11-38.51-.24,17.24-.24,38.51-.24S247.2,221.9,247.2,222Z"/><path class="cls-4" d="M147.79,131a37,37,0,1,1-17.41-49.41A37,37,0,0,1,147.79,131Z"/><g class="cls-10"><path class="cls-6" d="M130.38,81.58A37,37,0,0,0,81,99s23,12.29,33.15,5.54S130.38,81.58,130.38,81.58Z"/></g><path class="cls-4" d="M139.5,126.37a28.16,28.16,0,1,1-13.24-37.56A28.16,28.16,0,0,1,139.5,126.37Z"/><g class="cls-11"><path d="M139.5,126.37a28.16,28.16,0,1,1-13.24-37.56A28.16,28.16,0,0,1,139.5,126.37Z"/></g><path class="cls-4" d="M139.71,127.77a27.78,27.78,0,1,1-13.06-37.06A27.78,27.78,0,0,1,139.71,127.77Z"/><g class="cls-11"><path class="cls-6" d="M139.71,127.77a27.78,27.78,0,1,1-13.06-37.06A27.78,27.78,0,0,1,139.71,127.77Z"/></g><path class="cls-3" d="M102.07,140.85l.22.08.62.25,1,.41a11,11,0,0,0,1.39.5l1.79.53a6.34,6.34,0,0,0,1,.24l1.12.22a11.48,11.48,0,0,0,1.22.21l1.3.12c.45,0,.91.11,1.39.11h1.46a29.61,29.61,0,0,0,6.47-.82l1.71-.51c.29-.09.59-.17.88-.27l.86-.35c.58-.25,1.18-.46,1.76-.74l1.73-.9.44-.23c.15-.08.28-.18.42-.27l.85-.55.85-.56a9.29,9.29,0,0,0,.82-.62c.53-.44,1.09-.86,1.62-1.32l1.53-1.49a27.7,27.7,0,0,0,7.55-15.77c.07-.71.14-1.42.2-2.12s0-1.4,0-2.09c0-.35,0-.69,0-1s-.07-.68-.1-1-.07-.67-.1-1c0-.17,0-.33-.06-.5l-.09-.48-.39-1.92c-.14-.63-.35-1.23-.52-1.83l-.27-.89c-.11-.29-.23-.57-.34-.85l-.68-1.66a29.29,29.29,0,0,0-3.42-5.55L135.44,97c-.3-.36-.65-.68-.95-1l-.92-.94a9.88,9.88,0,0,0-.92-.81l-.88-.74a7.05,7.05,0,0,0-.83-.66l-1.54-1.06a9.79,9.79,0,0,0-1.27-.77l-.95-.53-.58-.33-.2-.12s.07,0,.21.09l.59.31,1,.51a9.59,9.59,0,0,1,1.29.75l1.55,1a7.37,7.37,0,0,1,.85.65l.89.74c.3.27.64.5.94.81l.92.94c.32.33.66.64,1,1l.93,1.15a29.77,29.77,0,0,1,3.47,5.57c.23.55.45,1.11.69,1.67.11.29.24.57.34.86s.19.6.28.9c.17.6.39,1.21.54,1.84s.25,1.28.39,1.93l.1.49c0,.17,0,.34.05.5,0,.34.07.68.11,1s.07.68.1,1a9,9,0,0,1,0,1c0,.7,0,1.4,0,2.11s-.13,1.43-.2,2.15a27.92,27.92,0,0,1-7.62,15.92l-1.55,1.5c-.53.47-1.1.89-1.64,1.33a10.06,10.06,0,0,1-.83.63l-.86.56-.85.55c-.15.09-.28.19-.43.27l-.44.23-1.76.91c-.58.28-1.19.49-1.77.73l-.87.35c-.29.1-.59.18-.88.27l-1.74.51a29.31,29.31,0,0,1-6.52.79h-1.47c-.48,0-.94-.09-1.39-.12l-1.31-.14a11,11,0,0,1-1.22-.22l-1.14-.23a6.87,6.87,0,0,1-1-.25l-1.78-.55a10.13,10.13,0,0,1-1.39-.54l-1-.43-.61-.27A1.22,1.22,0,0,1,102.07,140.85Z"/><path class="cls-6" d="M78.42,117a1.55,1.55,0,0,1,0-.34c0-.24,0-.56,0-1s0-.93,0-1.52,0-1.27.11-2c0-.37.08-.76.11-1.16s.13-.82.19-1.25c.11-.87.33-1.79.53-2.75a40,40,0,0,1,2-6.08,39.15,39.15,0,0,1,3-5.64c.56-.81,1.07-1.6,1.63-2.28.27-.34.52-.68.78-1l.77-.88c.48-.57,1-1,1.38-1.46s.79-.77,1.1-1l.73-.63c.16-.14.25-.22.26-.21s-.07.09-.23.25l-.68.67c-.31.28-.67.63-1.07,1.07s-.88.9-1.34,1.48l-.75.88c-.26.31-.5.66-.77,1-.54.68-1,1.47-1.6,2.28a37.94,37.94,0,0,0-5,11.64c-.21,1-.43,1.86-.56,2.72-.06.43-.15.85-.19,1.25s-.09.78-.13,1.15c-.1.74-.12,1.41-.16,2s0,1.09,0,1.51,0,.7,0,1A2.3,2.3,0,0,1,78.42,117Z"/><path class="cls-6" d="M128.87,89.25a5,5,0,0,1-.8-.42c-.25-.15-.56-.32-.93-.5s-.78-.42-1.26-.62-1-.46-1.55-.67-1.19-.44-1.83-.67a32.56,32.56,0,0,0-4.34-1,31,31,0,0,0-4.44-.37c-.68,0-1.33,0-1.94.06s-1.18.09-1.69.15-1,.14-1.39.2-.76.13-1,.19a4.8,4.8,0,0,1-.89.15,5.89,5.89,0,0,1,.87-.25,9.43,9.43,0,0,1,1-.24c.41-.08.87-.18,1.39-.24s1.09-.15,1.7-.19,1.27-.06,2-.08a30,30,0,0,1,4.49.34,30.91,30.91,0,0,1,4.36,1.07c.66.23,1.28.44,1.84.69s1.09.48,1.56.71.88.46,1.24.66.67.39.92.55A5.61,5.61,0,0,1,128.87,89.25Z"/><path class="cls-6" d="M103.27,148.62a3.63,3.63,0,0,1-.67-.12c-.43-.1-1-.27-1.79-.51a26.82,26.82,0,0,1-10.42-6.38c-.56-.56-1-1-1.27-1.37a4.57,4.57,0,0,1-.42-.54,3.55,3.55,0,0,1,.5.47c.3.32.75.76,1.32,1.3a31,31,0,0,0,4.85,3.7,30.45,30.45,0,0,0,5.5,2.63c.73.27,1.34.47,1.76.59A2.82,2.82,0,0,1,103.27,148.62Z"/><circle class="cls-4" cx="174.76" cy="42.46" r="36.73" transform="translate(-4.53 28.36) rotate(-9.16)"/><g class="cls-10"><path class="cls-6" d="M166.24,6.73A36.73,36.73,0,0,0,139,51s25.38-4.87,29-16.42S166.24,6.73,166.24,6.73Z"/></g><circle class="cls-4" cx="174.06" cy="42.03" r="27.92" transform="translate(-4.99 44.12) rotate(-14.24)"/><g class="cls-11"><circle cx="174.06" cy="42.03" r="27.92" transform="translate(-4.99 44.12) rotate(-14.24)"/></g><path class="cls-4" d="M202.26,36.5a27.55,27.55,0,1,1-33.19-20.41A27.55,27.55,0,0,1,202.26,36.5Z"/><g class="cls-11"><path class="cls-6" d="M202.26,36.5a27.55,27.55,0,1,1-33.19-20.41A27.55,27.55,0,0,1,202.26,36.5Z"/></g><path class="cls-3" d="M181.42,70.07l.22-.08.63-.2,1-.32A8.9,8.9,0,0,0,184.7,69l1.71-.7a9.14,9.14,0,0,0,1-.46l1-.54a10.58,10.58,0,0,0,1.07-.6l1.08-.72a13.43,13.43,0,0,0,1.13-.78l1.13-.91a29.47,29.47,0,0,0,4.47-4.67l1-1.47c.16-.24.34-.49.5-.75l.45-.81c.29-.54.62-1.08.89-1.66s.51-1.18.77-1.78l.2-.45c.06-.15.1-.31.16-.47l.3-.95c.11-.32.21-.64.31-1a8.4,8.4,0,0,0,.24-1c.14-.67.32-1.35.43-2s.17-1.4.25-2.11a29.7,29.7,0,0,0-.65-8.75,30,30,0,0,0-3.37-8.11l-1.17-1.76c-.41-.56-.87-1.08-1.3-1.62a9.72,9.72,0,0,0-.66-.78l-.71-.71-.7-.71c-.12-.12-.23-.24-.36-.35l-.37-.32L192,20.83c-.51-.39-1.05-.72-1.55-1.08l-.77-.52-.79-.44-1.55-.86a29.16,29.16,0,0,0-6.1-2.14l-1.42-.31c-.46-.1-.92-.12-1.36-.19l-1.3-.15c-.41-.06-.82,0-1.22-.05l-1.14,0a9.11,9.11,0,0,0-1.05,0l-1.84.14a10.53,10.53,0,0,0-1.46.2l-1.07.18-.66.11a.61.61,0,0,1-.22,0l.22-.05.65-.14,1.06-.21a10.59,10.59,0,0,1,1.47-.23l1.84-.16a7.38,7.38,0,0,1,1.06,0h1.15c.39,0,.81,0,1.23.05l1.3.14c.44.06.91.08,1.37.18l1.43.3a28.72,28.72,0,0,1,6.15,2.13l1.58.86c.26.14.54.28.8.44l.77.52c.51.36,1.06.69,1.56,1.09l1.51,1.24.38.32c.13.11.24.23.36.35l.71.71.72.73a8.34,8.34,0,0,1,.67.78c.43.54.9,1.07,1.31,1.63L199,28.18a30.13,30.13,0,0,1,3.41,8.19,29.93,29.93,0,0,1,.65,8.84c-.09.71-.17,1.42-.26,2.12s-.29,1.37-.43,2.05c-.09.33-.13.68-.25,1l-.31,1c-.11.32-.21.64-.31,1-.06.16-.1.32-.16.47l-.2.46c-.27.6-.53,1.2-.78,1.79s-.62,1.12-.91,1.67l-.45.82c-.17.26-.35.5-.52.75-.34.5-.68,1-1,1.48a29.37,29.37,0,0,1-4.53,4.68l-1.14.91c-.37.3-.77.52-1.14.78l-1.1.71c-.35.25-.73.4-1.07.6l-1,.52a7.59,7.59,0,0,1-1,.46l-1.72.68a9.94,9.94,0,0,1-1.41.46l-1,.29-.65.18Z"/><path class="cls-6" d="M148.33,66.48a1.72,1.72,0,0,1-.23-.24l-.63-.71c-.27-.31-.6-.7-.94-1.17s-.77-1-1.17-1.62l-.64-1c-.22-.34-.42-.71-.64-1.08-.45-.74-.86-1.58-1.3-2.45a39.8,39.8,0,0,1-2.24-5.94,39.61,39.61,0,0,1-1.18-6.25c-.08-1-.17-1.89-.16-2.76,0-.44,0-.86,0-1.26s0-.79,0-1.16c0-.74.11-1.4.16-2a14.3,14.3,0,0,1,.2-1.49c.06-.38.12-.69.16-.93s.07-.33.07-.33a1.1,1.1,0,0,1,0,.34c0,.24-.06.55-.11.94s-.12.9-.15,1.49-.11,1.24-.11,2c0,.37,0,.75,0,1.15s0,.82,0,1.25c0,.86.11,1.78.19,2.75a40.18,40.18,0,0,0,1.19,6.19A40.54,40.54,0,0,0,143,58.13c.43.87.82,1.71,1.27,2.45.21.37.41.74.62,1.08l.62,1c.38.63.79,1.16,1.13,1.63s.64.88.9,1.2l.59.74A1.44,1.44,0,0,1,148.33,66.48Z"/><path class="cls-6" d="M169.87,13.58a5.25,5.25,0,0,1-.88.17c-.28.05-.63.11-1,.2s-.86.16-1.36.3-1,.27-1.61.46-1.19.4-1.83.63a32.32,32.32,0,0,0-4,1.9,31.8,31.8,0,0,0-3.65,2.5c-.52.43-1,.84-1.46,1.26s-.85.8-1.21,1.17-.67.71-1,1-.5.58-.68.8c-.37.44-.58.69-.59.68a4.2,4.2,0,0,1,.5-.75c.17-.23.39-.51.66-.83s.55-.68.92-1,.74-.79,1.19-1.2.94-.84,1.46-1.29a27.37,27.37,0,0,1,7.7-4.43c.65-.23,1.26-.46,1.85-.62s1.13-.31,1.64-.43,1-.19,1.37-.26.76-.12,1-.15A5.82,5.82,0,0,1,169.87,13.58Z"/><path class="cls-6" d="M187.19,75.3a3.06,3.06,0,0,1-.59.33c-.39.19-1,.45-1.7.73a26.68,26.68,0,0,1-12,1.58c-.78-.08-1.4-.17-1.83-.26a2.77,2.77,0,0,1-.66-.16,3.06,3.06,0,0,1,.67,0c.44.06,1.06.12,1.83.18a30.6,30.6,0,0,0,6-.18,29.62,29.62,0,0,0,5.88-1.4c.73-.25,1.32-.47,1.72-.64A4.82,4.82,0,0,1,187.19,75.3Z"/><path class="cls-4" d="M300.37,47.82a36.73,36.73,0,1,1-23.95-46.1A36.73,36.73,0,0,1,300.37,47.82Z"/><g class="cls-10"><path class="cls-6" d="M276.42,1.72a36.73,36.73,0,0,0-46.1,24s24.26,8.88,33.32.84S276.42,1.72,276.42,1.72Z"/></g><path class="cls-4" d="M291.59,44.43a27.92,27.92,0,1,1-18.2-35A27.93,27.93,0,0,1,291.59,44.43Z"/><g class="cls-11"><path d="M291.59,44.43a27.92,27.92,0,1,1-18.2-35A27.93,27.93,0,0,1,291.59,44.43Z"/></g><path class="cls-4" d="M292,45.78a27.55,27.55,0,1,1-18-34.57A27.54,27.54,0,0,1,292,45.78Z"/><g class="cls-11"><path class="cls-6" d="M292,45.78a27.55,27.55,0,1,1-18-34.57A27.54,27.54,0,0,1,292,45.78Z"/></g><path class="cls-3" d="M256.85,63.84l.23,0,.64.15,1,.27a10.79,10.79,0,0,0,1.45.3l1.82.27a7.06,7.06,0,0,0,1,.1l1.14,0a12.13,12.13,0,0,0,1.22,0l1.3-.06c.45,0,.91,0,1.37-.09l1.44-.2A30,30,0,0,0,275.8,63l1.61-.75c.27-.12.55-.24.83-.38l.79-.46c.54-.32,1.09-.62,1.62-1l1.58-1.13.4-.28.38-.33.75-.65.76-.67a8.29,8.29,0,0,0,.72-.73c.46-.5.95-1,1.41-1.52l1.29-1.67a29.75,29.75,0,0,0,3.95-7.84A29.94,29.94,0,0,0,293.17,37c0-.71-.06-1.41-.1-2.11s-.19-1.38-.28-2.06a8.83,8.83,0,0,0-.16-1l-.24-1-.24-1-.12-.48-.17-.46c-.21-.62-.43-1.23-.64-1.83s-.52-1.16-.77-1.72l-.39-.84c-.14-.27-.3-.53-.45-.79l-.89-1.54a29.53,29.53,0,0,0-4.13-5l-1-1c-.35-.32-.73-.58-1.08-.86s-.69-.54-1-.79a10.63,10.63,0,0,0-1-.68l-1-.6a6.12,6.12,0,0,0-.91-.53l-1.66-.83a10.33,10.33,0,0,0-1.35-.58l-1-.39-.62-.24-.21-.1.22.07.63.22,1,.37a9.31,9.31,0,0,1,1.37.55l1.67.81a8.56,8.56,0,0,1,.92.52l1,.61a11.85,11.85,0,0,1,1,.66l1,.8c.35.28.74.53,1.09.85s.7.66,1.07,1a29.55,29.55,0,0,1,4.18,5l.91,1.54c.15.27.31.53.45.8l.4.84c.25.57.55,1.14.78,1.74s.43,1.22.65,1.84l.17.47c.05.16.08.32.12.48.08.33.16.65.25,1l.24,1c.09.33.11.68.17,1,.09.68.22,1.37.29,2.08s.06,1.41.1,2.13a30.1,30.1,0,0,1-1.29,8.77,30.2,30.2,0,0,1-4,7.92l-1.31,1.68c-.46.54-1,1-1.43,1.54-.24.24-.46.51-.72.73l-.77.67-.76.66-.38.33-.41.28c-.53.39-1.07.77-1.59,1.14s-1.1.65-1.64,1l-.81.46c-.27.14-.55.26-.83.39l-1.63.74a29.22,29.22,0,0,1-6.29,1.68l-1.45.2c-.47.06-.93,0-1.38.07l-1.31,0a12.13,12.13,0,0,1-1.22,0l-1.15-.07A8.46,8.46,0,0,1,262,65l-1.83-.3a9.21,9.21,0,0,1-1.45-.33l-1-.28-.64-.18Z"/><path class="cls-6" d="M230.32,43.74a1.76,1.76,0,0,1-.07-.32c-.05-.25-.1-.55-.17-.94a13.32,13.32,0,0,1-.21-1.49c-.06-.58-.15-1.24-.17-2,0-.37,0-.76,0-1.16s0-.82,0-1.26c0-.87.07-1.79.14-2.77a40.6,40.6,0,0,1,1.13-6.25,40.52,40.52,0,0,1,2.21-6c.43-.87.83-1.71,1.28-2.46.22-.37.42-.74.63-1.08l.64-1c.39-.63.81-1.15,1.15-1.63s.67-.86.94-1.17l.62-.72c.14-.16.22-.25.23-.24a1.25,1.25,0,0,1-.19.27c-.15.2-.34.45-.58.75s-.57.72-.89,1.2-.74,1-1.12,1.64c-.2.31-.4.64-.61,1s-.41.71-.62,1.09c-.44.74-.83,1.58-1.26,2.45a41.17,41.17,0,0,0-2.16,5.92,41.54,41.54,0,0,0-1.15,6.21c-.08,1-.17,1.88-.17,2.75,0,.43,0,.85,0,1.25s0,.78,0,1.15c0,.73.09,1.4.13,2s.1,1.08.16,1.49.09.69.12.94A1.63,1.63,0,0,1,230.32,43.74Z"/><path class="cls-6" d="M276,9.46a5.16,5.16,0,0,1-.85-.3c-.26-.11-.59-.24-1-.37s-.82-.3-1.32-.43-1-.31-1.62-.44-1.22-.27-1.89-.4a28.71,28.71,0,0,0-8.81-.16c-.67.11-1.31.19-1.9.33s-1.14.25-1.64.38-.94.27-1.33.39-.73.23-1,.33a5.53,5.53,0,0,1-.85.27,6.05,6.05,0,0,1,.81-.37c.27-.12.6-.25,1-.38s.83-.29,1.33-.42,1-.3,1.64-.42,1.24-.24,1.92-.36A30.86,30.86,0,0,1,265,6.83a31.19,31.19,0,0,1,4.43.44c.67.14,1.32.26,1.9.43s1.14.31,1.63.47.93.33,1.31.48.71.29,1,.41A6.33,6.33,0,0,1,276,9.46Z"/><path class="cls-6" d="M259.11,71.3a2.93,2.93,0,0,1-.68,0A17.35,17.35,0,0,1,256.6,71a26.19,26.19,0,0,1-5.84-1.76,27.17,27.17,0,0,1-5.28-3.05c-.62-.47-1.11-.87-1.43-1.17a2.72,2.72,0,0,1-.49-.48,3.42,3.42,0,0,1,.56.4c.34.27.84.64,1.48,1.09a29.43,29.43,0,0,0,11,4.78c.76.16,1.38.27,1.81.34A3.68,3.68,0,0,1,259.11,71.3Z"/><path class="cls-12" d="M118.54,134.24a18.44,18.44,0,0,1-7.82-1.4,20.08,20.08,0,0,1-6.67-4.54L100.9,130a1.94,1.94,0,0,1-1.51.16,1.92,1.92,0,0,1-1.18-1,2,2,0,0,1-.18-1.54,1.86,1.86,0,0,1,1-1.2l2.52-1.37c-.23-.34-.53-.86-.92-1.57-.23-.42-.56-1.1-1-2L97,122.89a2,2,0,0,1-2.69-.79,1.93,1.93,0,0,1-.17-1.52,2,2,0,0,1,1-1.18l3.35-1.81a20.79,20.79,0,0,1,.92-11.52,16.86,16.86,0,0,1,8.15-8.86,18.24,18.24,0,0,1,7.92-2.29,2,2,0,0,1,2.06,1.14,2.06,2.06,0,0,1,.16,1.67,2.15,2.15,0,0,1-1.09,1.34,2.57,2.57,0,0,1-1,.26,17.23,17.23,0,0,0-5.73,2,12.45,12.45,0,0,0-5.51,5.75,14.61,14.61,0,0,0-1.23,8l14-7.62a1.94,1.94,0,0,1,1.51-.16,2,2,0,0,1,1.18,1,2,2,0,0,1,.15,1.49,1.86,1.86,0,0,1-1,1.2l-14.92,8.11a13.26,13.26,0,0,0,.93,2.07c.19.36.51.87,1,1.55l12.55-6.82a1.9,1.9,0,0,1,1.55-.15,1.93,1.93,0,0,1,1.21,1,1.86,1.86,0,0,1,.18,1.53,2,2,0,0,1-1,1.18l-11.78,6.4a14.41,14.41,0,0,0,7.55,3.5,12.69,12.69,0,0,0,8-1.46,17.64,17.64,0,0,0,4.83-3.69,3.58,3.58,0,0,1,.79-.75,2.27,2.27,0,0,1,3,.86,2.11,2.11,0,0,1-.17,2.35,18.24,18.24,0,0,1-6.23,5.4A17.85,17.85,0,0,1,118.54,134.24Z"/><path class="cls-12" d="M171.47,55.76a13.92,13.92,0,0,1-4.91-3.43,15.19,15.19,0,0,1-3.13-5.22l-2.7.18a1.46,1.46,0,0,1-1.09-.37,1.54,1.54,0,0,1-.14-2.13,1.43,1.43,0,0,1,1-.53l2.16-.14c-.05-.3-.09-.76-.13-1.37,0-.36,0-.93,0-1.7l-2.2.14a1.5,1.5,0,0,1-.19-3L163,38a15.63,15.63,0,0,1,4.28-7.6,12.69,12.69,0,0,1,8.37-3.48,13.88,13.88,0,0,1,6.15.93,1.56,1.56,0,0,1,1,1.43,1.6,1.6,0,0,1-.42,1.2,1.65,1.65,0,0,1-1.17.57,2,2,0,0,1-.8-.15,12.9,12.9,0,0,0-4.57-.41,9.34,9.34,0,0,0-5.59,2.2,10.9,10.9,0,0,0-3.36,5l12-.78a1.44,1.44,0,0,1,1.09.36,1.47,1.47,0,0,1,.51,1,1.51,1.51,0,0,1-.37,1.07,1.4,1.4,0,0,1-1,.52l-12.78.84a10.78,10.78,0,0,0,0,1.71c0,.3.07.76.17,1.36l10.74-.7a1.58,1.58,0,0,1,1.64,1.43,1.39,1.39,0,0,1-.37,1.11,1.52,1.52,0,0,1-1.07.49l-10.08.65a10.79,10.79,0,0,0,4.06,4.78,9.54,9.54,0,0,0,5.93,1.53,12.81,12.81,0,0,0,4.48-1,2.55,2.55,0,0,1,.78-.26,1.63,1.63,0,0,1,1.23.42,1.59,1.59,0,0,1,.58,1.13,1.62,1.62,0,0,1-.86,1.56,13.74,13.74,0,0,1-6,1.72A13.5,13.5,0,0,1,171.47,55.76Z"/><path class="cls-12" d="M262.4,51a14,14,0,0,1-4.91-3.43,15.2,15.2,0,0,1-3.13-5.21l-2.69.17a1.44,1.44,0,0,1-1.09-.36,1.48,1.48,0,0,1-.51-1,1.55,1.55,0,0,1,.37-1.11,1.43,1.43,0,0,1,1-.53l2.15-.14c0-.3-.09-.76-.13-1.36,0-.36,0-.93,0-1.71l-2.2.14A1.5,1.5,0,0,1,250,33.91a1.42,1.42,0,0,1,1-.5l2.87-.19a15.54,15.54,0,0,1,4.27-7.59,12.67,12.67,0,0,1,8.38-3.49,13.85,13.85,0,0,1,6.14.93,1.55,1.55,0,0,1,1,1.44,1.58,1.58,0,0,1-.42,1.19,1.66,1.66,0,0,1-1.17.58,2.22,2.22,0,0,1-.8-.16,13.11,13.11,0,0,0-4.57-.41,9.34,9.34,0,0,0-5.59,2.2A11,11,0,0,0,257.88,33l12-.78a1.38,1.38,0,0,1,1.08.37,1.45,1.45,0,0,1,.51,1,1.49,1.49,0,0,1-.37,1.06,1.4,1.4,0,0,1-1,.53L257.28,36a10.78,10.78,0,0,0,0,1.71c0,.3.08.76.17,1.36l10.75-.7a1.47,1.47,0,0,1,1.11.39,1.55,1.55,0,0,1,.16,2.16,1.55,1.55,0,0,1-1.07.48l-10.09.66a10.91,10.91,0,0,0,4.06,4.78,9.55,9.55,0,0,0,5.94,1.53,13.14,13.14,0,0,0,4.48-1,2.42,2.42,0,0,1,.77-.25,1.67,1.67,0,0,1,1.24.42,1.63,1.63,0,0,1-.29,2.68,13.61,13.61,0,0,1-6,1.72A13.39,13.39,0,0,1,262.4,51Z"/><path class="cls-13" d="M171,111.36c0-1.79.93-2.35,2.35-2.35h6.12c3.37,0,6.08,1.66,6.08,5.57,0,3.19-2.22,5.56-6.1,5.56H175v4.76a2,2,0,0,1-4,0Zm4,5.7h3.73a2.53,2.53,0,0,0,2.8-2.48c0-1.76-1.24-2.49-3.22-2.49H175Z"/><path class="cls-13" d="M187.93,115.16a1.61,1.61,0,1,1,3.22,0v1.37h0c.41-1.49,1.22-3,3-3a1.79,1.79,0,0,1,1.95,1.73,1.63,1.63,0,0,1-1.75,1.79h-.64c-1.44,0-2.22,1-2.22,4v4.15a1.78,1.78,0,0,1-3.56,0Z"/><path class="cls-13" d="M200.4,120.87a3.08,3.08,0,0,0,3.29,3.25c2.69,0,2.69-1.76,4.13-1.76a1.47,1.47,0,0,1,1.46,1.39c0,2.15-3.44,3.15-5.59,3.15-5,0-6.85-3.37-6.85-6.47,0-4.15,2.51-6.93,6.73-6.93s6.44,2.91,6.44,5.83c0,1.22-.36,1.54-1.56,1.54Zm6.25-2.05a3.06,3.06,0,0,0-3-2.83,3.2,3.2,0,0,0-3.25,2.83Z"/><path class="cls-13" d="M218.31,113.5c3,0,5.2,1.69,5.2,3.34a1.51,1.51,0,0,1-1.66,1.54c-1.68,0-1.07-2.1-3.63-2.1-1.4,0-3,1-3,4.18,0,2.22,1.05,3.66,3,3.66,2.49,0,1.95-2.3,3.83-2.3a1.41,1.41,0,0,1,1.49,1.37c0,1.56-1.76,3.71-5.42,3.71-4.39,0-6.46-2.71-6.46-6.44C211.63,116.36,214,113.5,218.31,113.5Z"/><path class="cls-13" d="M227.39,108.6a1.86,1.86,0,1,1-1.85,1.85A1.85,1.85,0,0,1,227.39,108.6Zm-1.78,6.68a1.78,1.78,0,0,1,3.56,0v9.84a1.78,1.78,0,0,1-3.56,0Z"/><path class="cls-13" d="M238.25,113.5c4.29,0,6.59,2.93,6.59,6.69,0,3.56-1.73,6.71-6.59,6.71s-6.59-3.15-6.59-6.71C231.66,116.43,234,113.5,238.25,113.5Zm0,10.76c2.12,0,3-1.9,3-4.07s-1-4-3-4-3,1.73-3,4S236.13,124.26,238.25,124.26Z"/><path class="cls-13" d="M171.48,139.41h-.61c-1,0-1.41-.39-1.41-1.17s.41-1.17,1.41-1.17h.61V134.9a1.78,1.78,0,1,1,3.56,0v2.17h1.08c1,0,1.61.32,1.61,1.17s-.56,1.17-1.61,1.17H175v7.13c0,.53.3.83.93.83h.51a1.12,1.12,0,0,1,1.25,1.19c0,1-.88,1.59-2.59,1.59-2.58,0-3.66-1.08-3.66-3.17Z"/><path class="cls-13" d="M185.64,136.75c4.29,0,6.58,2.93,6.58,6.69,0,3.56-1.73,6.71-6.58,6.71s-6.59-3.15-6.59-6.71C179.05,139.68,181.34,136.75,185.64,136.75Zm0,10.76c2.12,0,3-1.9,3-4.07s-.95-4.05-3-4.05-3,1.73-3,4.05S183.51,147.51,185.64,147.51Z"/><path class="cls-13" d="M194.52,138.44c0-1.1.51-1.69,1.61-1.69a1.48,1.48,0,0,1,1.61,1.69V139h0a3.73,3.73,0,0,1,3.76-2.25c3,0,5.58,2.18,5.58,6.79,0,3.41-1.73,6.61-5.49,6.61a3.81,3.81,0,0,1-3.51-1.81h0v4.76a1.78,1.78,0,1,1-3.56,0Zm6.22,1.1c-2.07,0-2.85,1.85-2.85,3.87,0,1.83.68,4,2.85,4s2.83-2.3,2.83-4C203.57,141.32,202.64,139.58,200.74,139.54Z"/><path class="cls-13" d="M212.46,144.12a3.08,3.08,0,0,0,3.29,3.25c2.68,0,2.68-1.76,4.12-1.76a1.47,1.47,0,0,1,1.47,1.39c0,2.15-3.44,3.15-5.59,3.15-5,0-6.86-3.37-6.86-6.47,0-4.14,2.52-6.93,6.74-6.93s6.44,2.91,6.44,5.84c0,1.21-.37,1.53-1.56,1.53Zm6.24-2.05a3,3,0,0,0-3-2.83,3.2,3.2,0,0,0-3.24,2.83Z"/><path class="cls-13" d="M226.68,137.07a2,2,0,1,1-2,2A2,2,0,0,1,226.68,137.07Zm0,8.93a2,2,0,1,1-2,2A2,2,0,0,1,226.68,146Z"/><path class="cls-12" d="M176.2,201.76a2.49,2.49,0,0,1-1.06-.81,2.17,2.17,0,0,1-.39-1.32,2.36,2.36,0,0,1,.64-1.65,2.07,2.07,0,0,1,1.59-.7,2.87,2.87,0,0,1,1.07.23,23.66,23.66,0,0,0,8.9,1.62,17.06,17.06,0,0,0,7.36-1.43,4.92,4.92,0,0,0,3-4.78q0-7.06-12.38-7.06H184a2.39,2.39,0,0,1-2.35-2.35,2.25,2.25,0,0,1,.7-1.65,2.22,2.22,0,0,1,1.65-.7h.33c3.74,0,6.59-.57,8.57-1.71a5.51,5.51,0,0,0,3-5.07,4.94,4.94,0,0,0-2.24-4.25c-1.5-1-3.7-1.57-6.61-1.57a20.39,20.39,0,0,0-8.68,1.85,2.67,2.67,0,0,1-1,.22,2,2,0,0,1-1.46-.58,2,2,0,0,1-.61-1.49,2,2,0,0,1,1.12-1.9,23.36,23.36,0,0,1,11.08-2.86q6.44,0,10,2.64a8.71,8.71,0,0,1,3.53,7.44,8.93,8.93,0,0,1-1.93,6.08,11.63,11.63,0,0,1-4.84,3.27,12.25,12.25,0,0,1,5.68,3.05c1.66,1.55,2.49,3.85,2.49,6.92a9.14,9.14,0,0,1-4.06,8Q194.29,204,187.9,204A30.73,30.73,0,0,1,176.2,201.76Z"/><path class="cls-12" d="M224.65,202.15a18.65,18.65,0,0,1-6.3-5,20.62,20.62,0,0,1-3.75-7.27H211a2,2,0,0,1-2-2,2,2,0,0,1,.59-1.45,1.91,1.91,0,0,1,1.43-.62h2.91c0-.41-.06-1-.06-1.85,0-.48,0-1.25.11-2.29h-3a2,2,0,1,1,0-4h3.86a21.09,21.09,0,0,1,6.41-9.83,17,17,0,0,1,11.56-3.95,18.4,18.4,0,0,1,8.17,1.8,2.08,2.08,0,0,1,1.29,2,2.18,2.18,0,0,1-.67,1.57,2.21,2.21,0,0,1-1.63.67,2.92,2.92,0,0,1-1.06-.28,17.72,17.72,0,0,0-6.1-.95,12.62,12.62,0,0,0-7.7,2.46,14.71,14.71,0,0,0-4.95,6.5h16.17a2,2,0,0,1,1.43.58,2,2,0,0,1,0,2.83,1.91,1.91,0,0,1-1.43.62H219.08a14.92,14.92,0,0,0-.17,2.29c0,.41,0,1,.12,1.85h14.5a2.12,2.12,0,0,1,2.07,2.07,1.94,1.94,0,0,1-.59,1.46,2.08,2.08,0,0,1-1.48.56H219.92a14.7,14.7,0,0,0,5,6.77,12.8,12.8,0,0,0,7.84,2.57,17.49,17.49,0,0,0,6.1-1A3.59,3.59,0,0,1,240,198a2.22,2.22,0,0,1,1.63.68,2.2,2.2,0,0,1-.62,3.58A18.54,18.54,0,0,1,232.8,204,18.1,18.1,0,0,1,224.65,202.15Z"/></g></g></svg>