<svg xmlns="http://www.w3.org/2000/svg" viewBox="0 0 95.04 95.04"><defs><style>.cls-1{fill:none;stroke:#fff;stroke-linecap:round;stroke-linejoin:round;stroke-width:3.31px;}</style></defs><g id="Capa_2" data-name="Capa 2"><g id="Capa_1-2" data-name="Capa 1"><path class="cls-1" d="M45.45,61.93a3.2,3.2,0,0,1-3.3-3.19v-.23c0-7.33,4.23-11.81,8-15.75,3.42-3.63,5.53-6,5.53-9.53a7.07,7.07,0,0,0-6.58-6.9c-4-.27-8.57,1.56-9.78,6.2a3.31,3.31,0,0,1-6.4-1.66C35.05,22.62,43,19.31,49.5,19.73a13.79,13.79,0,0,1,12.76,13.5c0,6.31-3.9,10.43-7.34,14.07s-6.16,6.51-6.16,11.21A3.4,3.4,0,0,1,45.45,61.93Z"/><circle class="cls-1" cx="45.71" cy="71.58" r="3.76"/><circle class="cls-1" cx="47.52" cy="47.52" r="39.75" transform="translate(-14.7 22.13) rotate(-22.8)"/><circle class="cls-1" cx="47.52" cy="47.52" r="45.86" transform="translate(-7.12 86.65) rotate(-80.61)"/></g></g></svg>