<svg xmlns="http://www.w3.org/2000/svg" viewBox="0 0 467.94 448.74"><defs><style>.cls-1{fill:#f5f5f5;}.cls-2{fill:#e1e1e1;}.cls-3{fill:#ececec;}.cls-4{fill:#263238;}.cls-5{fill:#e8505b;}.cls-6,.cls-8{opacity:0.3;}.cls-7{opacity:0.1;}.cls-9{opacity:0.4;}.cls-10{fill:#ffbe9d;}.cls-11{fill:#fff;}.cls-12{fill:#eb996e;}.cls-13{fill:#455a64;}.cls-14{fill:#fafafa;}</style></defs><g id="Capa_2" data-name="Capa 2"><g id="Capa_1-2" data-name="Capa 1"><path class="cls-1" d="M264.11,446.57c-18.26-8.65-25.55-29.2-28.13-48.35-.43-3.2-1.34-6.49-.3-9.54s4.24-5.54,7.31-4.68c2.55.71,4,3.28,5.75,5.33a18.83,18.83,0,0,0,8.66,5.85c2.2.71,4.81.93,6.62-.51,2.49-2,2.17-5.82,1.62-9q-1.56-8.82-3.1-17.65a29.89,29.89,0,0,1-.64-9.55c.48-3.17,2.18-6.32,5-7.67s6.88-.25,8,2.74a29.82,29.82,0,0,1,.75,3.92c.31,1.3,1.17,2.65,2.48,2.8s2.44-.95,3.22-2c2.73-3.74,4.25-8.23,5.62-12.67s2.68-9,5.05-12.94,6-7.44,10.49-8.46,9.77,1,11.67,5.21.07,9.22-2.15,13.31a71.85,71.85,0,0,1-12.32,16.49,5.83,5.83,0,0,0-2,3.05c-.33,2.23,2,4,4.21,4.32,2.49.39,5-.29,7.52-.41s5.37.5,6.7,2.68c1.84,3-.29,6.85-2.58,9.52a61.14,61.14,0,0,1-16.14,13.35c-2.18,1.25-4.5,2.41-6.1,4.36s-2.25,5-.74,7,4.54,2.25,6.9,1.39,4.32-2.56,6.49-3.82c4.06-2.38,9.73-3,13.14.26,2.25,2.15,3,5.56,2.56,8.66a23.16,23.16,0,0,1-3.47,8.62,61.65,61.65,0,0,1-22.86,22.63c-9.49,5.2-18.67,7.73-29.3,5.76"/><path class="cls-2" d="M267,433.8a285.49,285.49,0,0,1,6.08-32.39c.69-2.84,1.36-5.65,2-8.41s1.34-5.5,2.16-8.14A143.42,143.42,0,0,1,282.85,370c2-4.65,4.06-9,6-13s3.88-7.77,5.76-11.09a114.79,114.79,0,0,1,10.05-15c1.32-1.67,2.39-2.94,3.13-3.78l.84-1c.19-.22.29-.32.3-.31a3,3,0,0,1-.26.35c-.19.25-.46.57-.79,1-.71.87-1.74,2.16-3,3.85A121.77,121.77,0,0,0,295,346.09c-1.85,3.33-3.73,7.06-5.68,11.1s-4,8.38-6,13A146.76,146.76,0,0,0,277.83,385c-.81,2.62-1.47,5.33-2.14,8.1s-1.34,5.57-2,8.41a295.43,295.43,0,0,0-6.12,32.32"/><path class="cls-2" d="M277.44,384.81a6.06,6.06,0,0,1-.54-1.29c-.31-.85-.72-2.09-1.21-3.62-1-3.07-2.19-7.36-3.5-12.09s-2.58-9-3.6-12.05c-.51-1.52-.93-2.75-1.24-3.6a7.22,7.22,0,0,1-.41-1.34,5.74,5.74,0,0,1,.62,1.26c.37.82.86,2,1.42,3.54,1.13,3,2.46,7.29,3.77,12s2.45,8.9,3.34,12.13c.41,1.45.76,2.68,1,3.67A6.46,6.46,0,0,1,277.44,384.81Z"/><path class="cls-2" d="M316.8,370.34a8.78,8.78,0,0,1-1.59.47c-1,.27-2.52.65-4.34,1.18-3.65,1-8.65,2.64-14.09,4.64s-10.27,4.06-13.73,5.63c-1.74.78-3.13,1.44-4.09,1.9a8.69,8.69,0,0,1-1.52.65,9.68,9.68,0,0,1,1.42-.86c.93-.52,2.29-1.24,4-2.07,3.42-1.68,8.26-3.78,13.71-5.81a146.13,146.13,0,0,1,14.18-4.48c1.84-.48,3.35-.8,4.4-1A8.78,8.78,0,0,1,316.8,370.34Z"/><path class="cls-2" d="M267.38,433s-.14-.14-.36-.45l-.95-1.35c-.81-1.18-1.95-2.92-3.32-5.08-2.75-4.32-6.35-10.41-10.25-17.19s-7.44-12.9-10.09-17.27c-1.3-2.13-2.36-3.88-3.16-5.18L238.4,385a1.81,1.81,0,0,1-.26-.51,2.33,2.33,0,0,1,.36.45l.94,1.35c.82,1.18,1.95,2.91,3.32,5.07,2.75,4.33,6.36,10.42,10.25,17.2s7.44,12.89,10.09,17.27l3.16,5.17c.34.57.63,1,.86,1.41A2.42,2.42,0,0,1,267.38,433Z"/><path class="cls-2" d="M318.44,406.43a2.2,2.2,0,0,1-.5.31l-1.48.79L311,410.38c-4.61,2.41-10.95,5.81-17.94,9.58s-13.37,7.12-18,9.43c-2.33,1.16-4.23,2.08-5.55,2.69l-1.53.69a2,2,0,0,1-.55.2,1.83,1.83,0,0,1,.5-.31c.39-.21.88-.48,1.48-.79l5.46-2.86c4.62-2.4,10.95-5.81,17.95-9.57s13.37-7.12,18-9.43c2.33-1.16,4.22-2.08,5.55-2.69l1.53-.69A2,2,0,0,1,318.44,406.43Z"/><path class="cls-3" d="M131.59,219.09s-12.59,1.75-5.52,29.33,13.07,41.79,13.07,41.79,1,6.25-4.09,6.05-15.3-4.28-18.78,1.16c-3.62,5.63-.46,12.42,7.44,19.53s24.63,23.31,26.14,24.78,2.6,4.51-.85,4.93-28-2.46-28.63,9.25,24.58,27.9,27.31,29.72,3.16,3.25,2.55,4.83-8.76-.16-15.77-.69-15.22.08-15,6.87,13.44,23.94,52.13,36.7l18.32,4.74,13.54-13.33c27.23-30.3,30.21-51.78,27-57.76s-10.65-2.43-16.47,1.52-12,9.5-13.33,8.43-1.66-2.52-.2-5.46,15.34-29.53,8.94-39.36-26.24,4.84-29.45,6.19-3.75-1.86-3.18-3.85,7-24.4,10.37-34.49,2.68-17.56-3.25-20.65c-5.72-3-12.6,5.66-16.88,8.33s-6.55-3.22-6.55-3.22-1.86-15.31-9.43-42.76-19.64-22.53-19.64-22.53"/><path class="cls-2" d="M189.85,442.63c-5.48-20.17-14.62-56.2-22.62-87.09s-15.28-58.83-20.65-79c-2.7-10.08-4.88-18.25-6.4-23.92-.75-2.8-1.33-5-1.73-6.5-.19-.73-.33-1.3-.44-1.7s-.13-.58-.13-.58.08.19.19.56l.49,1.68,1.84,6.48c1.59,5.63,3.84,13.78,6.58,23.87,5.48,20.18,12.81,48.12,20.82,79s17.07,66.93,22.45,87.14"/><path class="cls-2" d="M130.4,303.71a6.46,6.46,0,0,1,1.2.65c.76.45,1.84,1.12,3.16,2,2.64,1.7,6.23,4.15,10.15,6.92l10,7.13,3,2.13a6.17,6.17,0,0,1,1.09.84,7,7,0,0,1-1.21-.64c-.76-.45-1.84-1.13-3.15-2-2.63-1.73-6.18-4.22-10.09-7l-10-7.05-3.05-2.13A5.8,5.8,0,0,1,130.4,303.71Z"/><path class="cls-2" d="M160.55,322.45c-.14-.09,4.57-7.71,10.53-17s10.88-16.8,11-16.71-4.58,7.71-10.53,17S160.68,322.54,160.55,322.45Z"/><path class="cls-2" d="M170.7,370.43a6.35,6.35,0,0,1,1-1l2.86-2.5c2.41-2.11,5.72-5,9.26-8.42s6.65-6.51,8.88-8.82l2.64-2.72a7.31,7.31,0,0,1,1-1,6.06,6.06,0,0,1-.85,1.11c-.57.69-1.43,1.67-2.51,2.86-2.15,2.38-5.22,5.59-8.77,9s-6.92,6.27-9.4,8.31c-1.24,1-2.26,1.82-3,2.36A6.34,6.34,0,0,1,170.7,370.43Z"/><path class="cls-2" d="M139.7,359.49a5.42,5.42,0,0,1,1.26.3l3.35,1c2.82.9,6.71,2.18,11,3.63s8.15,2.8,10.94,3.8l3.29,1.21a6.29,6.29,0,0,1,1.19.52,5.3,5.3,0,0,1-1.26-.3l-3.35-1c-2.83-.9-6.71-2.18-11-3.63s-8.15-2.8-10.94-3.8L140.88,360A5.62,5.62,0,0,1,139.7,359.49Z"/><path class="cls-2" d="M143.28,403a9.28,9.28,0,0,1,1.6.4l4.31,1.32c3.62,1.13,8.62,2.73,14.12,4.54s10.48,3.47,14.08,4.71l4.24,1.49a8.48,8.48,0,0,1,1.53.62,9.28,9.28,0,0,1-1.6-.4l-4.3-1.32c-3.63-1.13-8.62-2.73-14.13-4.54s-10.48-3.47-14.07-4.71l-4.25-1.49A8.48,8.48,0,0,1,143.28,403Z"/><path class="cls-2" d="M182.3,415.49a9.22,9.22,0,0,1,1.24-1.26l3.5-3.3c3-2.79,7-6.66,11.41-11.06s8.24-8.47,11-11.44l3.29-3.52a9.62,9.62,0,0,1,1.25-1.24,11.23,11.23,0,0,1-1.08,1.39c-.73.88-1.8,2.13-3.16,3.65-2.7,3.05-6.52,7.18-10.91,11.58s-8.5,8.23-11.53,10.94c-1.52,1.36-2.77,2.44-3.64,3.17A10.86,10.86,0,0,1,182.3,415.49Z"/><path class="cls-1" d="M76.91,54.64,66.57,51.41s-2.71,8.68-11.79,6a8.74,8.74,0,0,1-6.43-7.86,9.68,9.68,0,0,1,3.35-8.15c2.65-2.35,7.32-3.78,13.9-.37l7.28-23.32L62.65,14.54,58.39,28.2s-15.5-.77-20.43,15C33.24,58.36,45.71,66.1,51.51,67.91,56,69.3,71.41,72.94,76.91,54.64Z"/><rect class="cls-1" x="65.29" y="1.39" width="10.87" height="10.15" transform="translate(136.32 33.7) rotate(-162.67)"/><path class="cls-3" d="M105.45,28.31l4.15-1.09a3.65,3.65,0,0,1,2.68-4.5A3.49,3.49,0,0,1,116.09,24a3.88,3.88,0,0,1,.59,3.43c-.4,1.34-1.66,2.8-4.58,3l2.46,9.33,4.1-1.08-1.45-5.47a8.27,8.27,0,0,0,3.68-9.33c-1.59-6.05-7.4-6-9.72-5.41C109.39,19,103.45,21,105.45,28.31Z"/><rect class="cls-3" x="115.5" y="41.14" width="4.3" height="4.01" transform="matrix(0.97, -0.26, 0.26, 0.97, -7.11, 31.43)"/><path class="cls-3" d="M447.57,135.57l4,1.46a3.64,3.64,0,0,1,4.76-2.17,3.48,3.48,0,0,1,2.41,3.22,3.86,3.86,0,0,1-1.47,3.16c-1.09.88-3,1.36-5.5-.1l-3.29,9.08,4,1.44,1.93-5.32a8.27,8.27,0,0,0,8.34-5.57c2.13-5.89-2.66-9.17-4.92-10C456.1,130.15,450.06,128.44,447.57,135.57Z"/><rect class="cls-3" x="447" y="152.7" width="4.3" height="4.01" transform="translate(79.55 -143.73) rotate(19.91)"/><path class="cls-1" d="M20.16,181.7l8.53-3.29s-2.76-7.15,4.63-10.15a7.4,7.4,0,0,1,8.37,1.83,8.2,8.2,0,0,1,2.06,7.14c-.53,2.94-2.87,6.33-9,7.53L42.15,204l8.43-3.25-4.34-11.26s10.65-7.61,5.63-20.63c-4.8-12.47-17.09-11.06-21.88-9.21C26.33,161,14.21,166.72,20.16,181.7Z"/><rect class="cls-1" x="44.89" y="206.01" width="9.17" height="8.56" transform="translate(-72.29 31.84) rotate(-21.07)"/><path class="cls-1" d="M450.88,214l-6,2.33s2,5.07-3.28,7.19a5.25,5.25,0,0,1-5.94-1.3,5.78,5.78,0,0,1-1.45-5.05c.37-2.09,2-4.49,6.37-5.34l-5.24-13.62-6,2.3,3.08,8a12.5,12.5,0,0,0-4,14.62c3.4,8.84,12.11,7.84,15.5,6.53C446.51,228.67,455.1,224.64,450.88,214Z"/><rect class="cls-1" x="426.86" y="190.73" width="6.5" height="6.07" transform="translate(901.13 219.96) rotate(158.93)"/><path class="cls-4" d="M467.94,448.38c0,.16-104.76.28-234,.28s-234-.12-234-.28,104.74-.27,234-.27S467.94,448.23,467.94,448.38Z"/><path class="cls-5" d="M67.2,420.86c1-3.9-1.55-7.81-4.41-10.64s-6.29-5.36-7.78-9.1c-2.42-6.05.83-13.9-3.29-18.95-2.43-3-6.77-4-8.93-7.14a16.41,16.41,0,0,1-1.93-5.68,57.59,57.59,0,0,0-14.34-26.83,50,50,0,0,0,5.63,25.86c1.66,3.18,3.71,6.27,4.27,9.82.89,5.76-2.32,11.69-.91,17.34,1.62,6.47,8.89,10.8,9.23,17.45.29,5.63-4.61,10.57-4.25,16.2A15.23,15.23,0,0,0,43,435.86c4.35,7.23,10.74,12.21,20.43,12.05l11.86.42Z"/><g class="cls-6"><path d="M67.2,420.86c1-3.9-1.55-7.81-4.41-10.64s-6.29-5.36-7.78-9.1c-2.42-6.05.83-13.9-3.29-18.95-2.43-3-6.77-4-8.93-7.14a16.41,16.41,0,0,1-1.93-5.68,57.59,57.59,0,0,0-14.34-26.83,50,50,0,0,0,5.63,25.86c1.66,3.18,3.71,6.27,4.27,9.82.89,5.76-2.32,11.69-.91,17.34,1.62,6.47,8.89,10.8,9.23,17.45.29,5.63-4.61,10.57-4.25,16.2A15.23,15.23,0,0,0,43,435.86c4.35,7.23,10.74,12.21,20.43,12.05l11.86.42Z"/></g><path class="cls-4" d="M77.7,448.64a9.6,9.6,0,0,0,3.27-.07,20.38,20.38,0,0,0,3.85-1A16.18,16.18,0,0,0,89.58,445a6.58,6.58,0,0,0,2-2.61,12.1,12.1,0,0,0,.56-3.55,36.74,36.74,0,0,1,.28-3.84,10.49,10.49,0,0,1,1.45-3.81c1.4-2.46,3.72-4.79,4.47-8.12s.23-6.84-.32-10.41-1.09-7.44.28-11.14,3.87-7.07,5.17-11.25.69-8.77,1-13.25a17.59,17.59,0,0,1,1.54-6.59c1-2.1,2.3-4.08,3.34-6.3,2.1-4.47,2.47-9.53,3-14.5q.42-3.75.85-7.58a36.79,36.79,0,0,1,1.32-7.59,66,66,0,0,1,2.84-7.34,25,25,0,0,0,1.38-3.84,38.21,38.21,0,0,0,.38-4.08,48.2,48.2,0,0,0-.32-8.22c-.32-2.73-.81-5.45-1.11-8.19,0-.17,0-.33,0-.48l-.06-.54-.49.24a18.43,18.43,0,0,0-6.39,5.39,29.17,29.17,0,0,0-3.92,7.23c-2,5.1-2.7,10.45-3.7,15.54s-2.26,10.12-4.87,14.36c-1.3,2.11-2.88,4-4.25,6.1a16.71,16.71,0,0,0-3,6.76c-.7,5,2.07,9.43,1.49,13.88a15.36,15.36,0,0,1-2.17,6.16c-1.07,1.89-2.34,3.65-3.54,5.42a35.91,35.91,0,0,0-3.19,5.47,17.53,17.53,0,0,0-1.45,5.95c-.29,4,.27,7.8,0,11.39a26.11,26.11,0,0,1-2.93,9.75c-1.43,2.92-3,5.56-4.37,8.12-.67,1.28-1.29,2.53-1.8,3.78a19.32,19.32,0,0,0-1,3.75,23.79,23.79,0,0,0-.09,6.77,17.09,17.09,0,0,0,3.4,8.64,7.65,7.65,0,0,0,1,1,4.21,4.21,0,0,0,.78.66c.44.33.68.48.68.48a15.1,15.1,0,0,1-2.3-2.27,17.13,17.13,0,0,1-3.22-8.58,23.67,23.67,0,0,1,.15-6.68,18.37,18.37,0,0,1,1-3.66,38.51,38.51,0,0,1,1.81-3.73c1.35-2.54,3-5.17,4.43-8.11a26.79,26.79,0,0,0,3-9.92c.31-3.66-.24-7.47.06-11.38a16.94,16.94,0,0,1,1.43-5.75,34.67,34.67,0,0,1,3.15-5.37c1.2-1.75,2.48-3.52,3.59-5.45a16.07,16.07,0,0,0,2.27-6.41c.57-4.74-2.18-9.18-1.46-13.84A16.11,16.11,0,0,1,94.53,351c1.36-2,2.94-4,4.28-6.12,2.69-4.36,4-9.47,5-14.59s1.72-10.42,3.67-15.41a28.32,28.32,0,0,1,3.82-7,17.58,17.58,0,0,1,6.12-5.17l-.55-.3c0,.15,0,.32,0,.48.3,2.78.8,5.5,1.12,8.2a47.73,47.73,0,0,1,.31,8.09c-.08,1.33-.16,2.71-.36,4a24.84,24.84,0,0,1-1.33,3.7,67,67,0,0,0-2.87,7.43,37.63,37.63,0,0,0-1.33,7.71c-.28,2.56-.57,5.09-.84,7.59-.57,5-.94,10-3,14.29-1,2.15-2.33,4.13-3.32,6.3a18.35,18.35,0,0,0-1.59,6.83c-.26,4.58.34,9.06-.9,13.12s-3.82,7.4-5.13,11.23-.82,7.88-.25,11.43,1.15,7.05.38,10.2-2.94,5.5-4.37,8a11,11,0,0,0-1.47,4,33.33,33.33,0,0,0-.25,3.89,11.83,11.83,0,0,1-.51,3.45,6.34,6.34,0,0,1-1.84,2.49,16.28,16.28,0,0,1-4.65,2.63,20.55,20.55,0,0,1-3.8,1,15.77,15.77,0,0,1-2.41.23C78,448.63,77.7,448.64,77.7,448.64Z"/><path class="cls-4" d="M115.19,308.84a1.4,1.4,0,0,0-.11.36c-.07.28-.16.63-.26,1.06-.24.94-.51,2.35-1,4.11s-1.55,3.75-2.47,6.2-1.92,5.25-2.82,8.42-1.7,6.68-2.54,10.44-1.73,7.79-3.8,11.59c-1,1.93-2.07,3.88-2.94,6a28.34,28.34,0,0,0-1.71,6.81A136.07,136.07,0,0,1,95,378.2c-2.38,9.73-4.64,19-6.71,27.42s-4,16-5.62,22.37S79.86,439.45,79,443.08c-.41,1.74-.74,3.11-1,4.11-.1.44-.17.79-.24,1.08a1.29,1.29,0,0,0,0,.37,2.47,2.47,0,0,0,.13-.35c.08-.28.18-.63.31-1.06l1.11-4.08,4-15c1.65-6.37,3.61-13.93,5.79-22.32s4.37-17.7,6.77-27.43A135.84,135.84,0,0,0,98.32,364a27.26,27.26,0,0,1,1.65-6.64c.84-2.08,1.91-4,2.89-6,2.08-3.88,3-8,3.78-11.77s1.59-7.28,2.45-10.44,1.79-6,2.7-8.41,1.92-4.45,2.35-6.27.64-3.2.83-4.15c.07-.44.14-.8.19-1.09S115.21,308.84,115.19,308.84Z"/><path class="cls-5" d="M79.79,448.68c7.75-4.61,10-18.6,6.74-27s-8.89-16.11-9.76-25.09c-.67-6.9,1.59-14,0-20.72-2.17-9.1-11-16.15-11-25.5.06-5.25,3-10.19,2.81-15.43-.3-6.43-5.23-11.54-8.29-17.2-4.68-8.67-5-18.93-6.59-28.65s-5.3-20.14-13.92-24.92c-1.27,8.26-3.45,13.91-2.76,25.09.24,4,4.91,11.71,5.54,20.51.38,5.26.64,10.53,1,15.8S44.2,335.9,46,340.69c1.4,3.67,3.67,7,4.71,10.8,2,7.14-.62,14.87,1,22.09,1.35,6.13,5.58,11.4,6.45,17.61,1.22,8.72-4.43,17.79-1.54,26.11,1.43,4.13,4.83,7.45,5.8,11.71.74,3.31-.07,6.81.61,10.14,1.09,5.35,11.3,9.51,16.75,9.18"/><path class="cls-4" d="M42,272.36a1.34,1.34,0,0,0,0,.46c0,.35.1.8.17,1.36.18,1.19.38,2.94.78,5.21s1.61,4.84,2.55,7.93,2,6.63,2.84,10.61,1.62,8.38,2.4,13.12,1.63,9.9,4,14.83c1.08,2.47,2.3,4.95,3.22,7.6a33.75,33.75,0,0,1,1.63,8.37,167.59,167.59,0,0,0,2.28,18.06c2.37,12.23,4.63,23.88,6.69,34.49s4.12,20.07,5.77,28.09,3,14.4,3.95,18.92c.48,2.19.85,3.91,1.12,5.14.12.55.23,1,.3,1.33a3.46,3.46,0,0,0,.13.45,1.53,1.53,0,0,0-.05-.47c-.06-.34-.14-.78-.23-1.34-.24-1.23-.56-3-1-5.17-.88-4.53-2.15-11-3.71-19l-5.61-28.12-6.63-34.48a168.43,168.43,0,0,1-2.28-18,34.68,34.68,0,0,0-1.69-8.54c-1-2.7-2.18-5.19-3.27-7.65-2.34-4.86-3.16-9.93-4-14.65s-1.57-9.14-2.49-13.13-1.94-7.55-3-10.63-2.19-5.64-2.66-7.86-.69-4-.91-5.16c-.11-.56-.19-1-.25-1.35A2.13,2.13,0,0,0,42,272.36Z"/><path class="cls-5" d="M415.7,51h-4.22a3.58,3.58,0,0,1-3.68,3.6,3.42,3.42,0,0,1-3.31-2.18,3.78,3.78,0,0,1,.3-3.41c.72-1.18,2.29-2.26,5.13-1.76V37.71h-4.17v5.57a8.16,8.16,0,0,0-5.85,8c0,6.17,5.53,7.61,7.9,7.61C409.61,58.85,415.78,58.41,415.7,51Z"/><rect class="cls-5" x="405.7" y="31.8" width="4.23" height="3.95" transform="translate(815.63 67.55) rotate(180)"/><path class="cls-4" d="M438.8,45.32a2,2,0,0,0,0-.53c0-.39,0-.91,0-1.57,0-.35,0-.74,0-1.16l-.2-1.38c-.07-.51-.15-1-.23-1.62s-.29-1.17-.45-1.8A29.06,29.06,0,0,0,434,28.51a31.29,31.29,0,0,0-8.81-9,31.74,31.74,0,0,0-14.39-5.14,33,33,0,0,0-4.23-.08c-.71.05-1.44,0-2.16.14l-2.18.33a31,31,0,0,0-8.61,2.94,33,33,0,0,0-7.73,5.62,32.59,32.59,0,0,0-5.82,8.1,29.62,29.62,0,0,0-3,9.87,19.17,19.17,0,0,0-.22,2.63,23.57,23.57,0,0,0-.05,2.66,32.1,32.1,0,0,0,.67,5.33,31.2,31.2,0,0,0,4.47,10.62l0-.32q-2.22,5.51-4.34,10.81l-.26.64.67-.19,11.55-3.17-.28-.06A31,31,0,0,0,402.45,76a28.32,28.32,0,0,0,6.77.42,21.82,21.82,0,0,0,3.25-.31l1.58-.24c.52-.1,1-.26,1.53-.38A30.94,30.94,0,0,0,433.17,63.4,30,30,0,0,0,437,56.22c.2-.56.4-1.1.58-1.62s.27-1,.39-1.53l.35-1.41c.09-.45.13-.88.19-1.29.11-.82.25-1.53.28-2.16s0-1.15.05-1.59,0-.72,0-1a1,1,0,0,0,0-.33,1.68,1.68,0,0,0,0,.33c0,.24-.05.56-.08,1s-.06,1-.1,1.58-.21,1.34-.33,2.15a30.78,30.78,0,0,1-22.8,24.58c-.5.12-1,.27-1.51.36l-1.55.24a22.38,22.38,0,0,1-3.19.28,27.22,27.22,0,0,1-6.64-.44,30.53,30.53,0,0,1-12.92-5.69l-.12-.09-.16,0-11.57,3.15.41.46,4.35-10.8.07-.17-.1-.16a30.46,30.46,0,0,1-5-15.58,22.69,22.69,0,0,1,.05-2.61,19.94,19.94,0,0,1,.21-2.57,29,29,0,0,1,3-9.66,31.69,31.69,0,0,1,5.67-7.93A32.76,32.76,0,0,1,394,18.23a30.42,30.42,0,0,1,8.42-2.91l2.14-.33c.7-.1,1.42-.09,2.12-.14a31.83,31.83,0,0,1,4.15.06A30.61,30.61,0,0,1,433.7,28.72a29.65,29.65,0,0,1,3.88,8.61c.17.63.32,1.22.47,1.78s.18,1.1.27,1.6.15.95.22,1.37.06.8.09,1.15c0,.66.08,1.17.11,1.56A3.69,3.69,0,0,0,438.8,45.32Z"/><path class="cls-5" d="M122.76,170.31H184s0-51.39,53.41-52.31c27.73-.48,42.11,17.69,48,31.61,6.78,16.16,4.73,34.58-4.36,49.57-10.38,17.12-32.74,34.32-74,27l-.39,136.36h60.52V281.75S352,259.81,352,166.27c0-89.5-72.38-108.84-111.27-110.08-21.65-.69-29.49-1.62-56.26,2.18C150.35,63.21,122,102.82,122.76,170.31Z"/><rect class="cls-5" x="206.43" y="391.02" width="61.42" height="57.36"/><rect class="cls-7" x="206.43" y="391.02" width="61.42" height="57.36"/><path class="cls-7" d="M122.76,170.31H184s0-51.39,53.41-52.31c27.73-.48,42.11,17.69,48,31.61,6.78,16.16,4.73,34.58-4.36,49.57-10.38,17.12-32.74,34.32-74,27l-.39,136.36h60.52V281.75S352,259.81,352,166.27c0-89.5-72.38-108.84-111.27-110.08-21.65-.69-29.49-1.62-56.26,2.18C150.35,63.21,122,102.82,122.76,170.31Z"/><path class="cls-5" d="M97.41,170.31h61.21s0-51.39,53.4-52.31c27.74-.48,42.12,17.69,48,31.61,6.79,16.16,4.74,34.58-4.36,49.57-10.38,17.12-33.13,32.67-74.37,25.41v138h60.52V281.75s84.88-21.94,84.88-115.48C326.65,76.77,246.39,56,212,56,185.76,56,96.26,62.33,97.41,170.31Z"/><path class="cls-8" d="M97.41,170.31h61.21s0-51.39,53.4-52.31c27.74-.48,42.12,17.69,48,31.61,6.79,16.16,4.74,34.58-4.36,49.57-10.38,17.12-33.13,32.67-74.37,25.41v138h60.52V281.75s84.88-21.94,84.88-115.48C326.65,76.77,246.39,56,212,56,185.76,56,96.26,62.33,97.41,170.31Z"/><rect class="cls-5" x="181.08" y="391.02" width="61.42" height="57.36"/><rect class="cls-8" x="181.08" y="391.02" width="61.42" height="57.36"/><path class="cls-4" d="M218.94,118.28a5.74,5.74,0,0,1-.92,0c-.6,0-1.47-.2-2.61-.21a53.26,53.26,0,0,0-9.6.39A69.68,69.68,0,0,0,192,121.67a60.45,60.45,0,0,0-7.72,3.32,41.18,41.18,0,0,0-7.55,4.89,38,38,0,0,0-6.18,6.53,63.27,63.27,0,0,0-4.63,7,62.33,62.33,0,0,0-5.48,13.12,53.12,53.12,0,0,0-1.84,9.43c-.13,1.13-.16,2-.2,2.61a5,5,0,0,1-.08.91,5.27,5.27,0,0,1,0-.91c0-.61,0-1.49.1-2.63a48,48,0,0,1,1.68-9.51,60.62,60.62,0,0,1,5.41-13.27,62.79,62.79,0,0,1,4.64-7.1,37.47,37.47,0,0,1,6.26-6.62,41,41,0,0,1,7.65-5,60.56,60.56,0,0,1,7.8-3.32,66.71,66.71,0,0,1,14-3.16,49.55,49.55,0,0,1,9.66-.23c1.14,0,2,.25,2.61.32A8.67,8.67,0,0,1,218.94,118.28Z"/><path class="cls-4" d="M311.15,107.36l-.19-.24-.54-.74c-.48-.69-1.16-1.64-2-2.86-.45-.62-.91-1.33-1.46-2.06L305,99.14l-2.19-2.66c-.8-.93-1.73-1.83-2.66-2.82s-1.89-2-3-3l-3.42-3.09c-.6-.53-1.18-1.09-1.81-1.62l-2-1.55c-1.34-1-2.68-2.17-4.14-3.21A131.74,131.74,0,0,0,265.82,69.3l-5.58-2.53-5.55-2.15c-1.81-.75-3.65-1.28-5.43-1.87s-3.52-1.2-5.27-1.61l-5.07-1.33c-1.64-.44-3.27-.69-4.83-1s-3.06-.69-4.53-.87l-4.22-.61c-2.68-.46-5.14-.55-7.28-.77-1.07-.08-2.07-.19-3-.24l-2.53-.07-3.5-.11-.91,0a1,1,0,0,1-.31,0l.31,0h4.42l2.53,0c.92,0,1.92.13,3,.2,2.15.18,4.62.25,7.31.68l4.23.58c1.48.17,3,.55,4.56.84s3.2.58,4.85,1l5.1,1.31c1.75.4,3.49,1,5.29,1.6s3.64,1.11,5.45,1.86l5.58,2.15,5.61,2.54a130.64,130.64,0,0,1,20.12,11.93c1.45,1,2.79,2.2,4.14,3.24l2,1.57c.63.53,1.22,1.1,1.81,1.64l3.42,3.13c1.07,1,2,2.1,3,3.08s1.84,1.92,2.63,2.85L305.28,99l1.88,2.35c.54.75,1,1.47,1.42,2.1l1.93,2.92.49.77Q311.17,107.35,311.15,107.36Z"/><path class="cls-4" d="M304.78,238.76a4.24,4.24,0,0,1-.46.64l-1.42,1.76c-.61.76-1.37,1.68-2.31,2.71s-1.95,2.24-3.18,3.49-2.54,2.65-4,4.06-3.12,2.9-4.84,4.44a142.44,142.44,0,0,1-11.89,9.24,144.24,144.24,0,0,1-12.86,7.83c-2.06,1.06-4,2.1-5.88,2.94s-3.62,1.66-5.23,2.33-3.1,1.24-4.39,1.74-2.43.9-3.36,1.2l-2.15.69a4.82,4.82,0,0,1-.75.21,3.33,3.33,0,0,1,.72-.31l2.11-.8c.91-.33,2-.74,3.31-1.28s2.77-1.08,4.35-1.81,3.35-1.46,5.19-2.38,3.79-1.9,5.83-3c4.05-2.22,8.4-4.83,12.8-7.84s8.36-6.18,11.87-9.17c1.72-1.53,3.39-3,4.85-4.39s2.86-2.76,4.08-4,2.29-2.41,3.23-3.43,1.74-1.9,2.38-2.64l1.49-1.69A4,4,0,0,1,304.78,238.76Z"/><path class="cls-4" d="M240.7,357.78c-.16,0-.28-17-.28-38s.12-38,.28-38,.27,17,.27,38S240.85,357.78,240.7,357.78Z"/><path class="cls-4" d="M243,444.5c-.15,0-.28-11.95-.28-26.68s.13-26.69.28-26.69.28,11.95.28,26.69S243.18,444.5,243,444.5Z"/><path class="cls-5" d="M303.28,162.17c-1.07,2.14,2.89,3.86,5.18,4.55a20.62,20.62,0,0,0,7.1.49c3.16-.17,6.43-.47,9.18-2a14.6,14.6,0,0,0,5.53-6.21,43.46,43.46,0,0,0,2.81-7.93S308,152.67,303.28,162.17Z"/><g class="cls-9"><path d="M303.28,162.17c-1.07,2.14,2.89,3.86,5.18,4.55a20.62,20.62,0,0,0,7.1.49c3.16-.17,6.43-.47,9.18-2a14.6,14.6,0,0,0,5.53-6.21,43.46,43.46,0,0,0,2.81-7.93S308,152.67,303.28,162.17Z"/></g><path class="cls-5" d="M374,155.39a24,24,0,0,0,14.13,4.44c2.41,0,5-.5,6.73-2.12.82-.75,1.43-1.7,2.27-2.42.57-.49,1.24-.86,1.77-1.38a2.25,2.25,0,0,0,.78-2,4.09,4.09,0,0,0-1.46-2.34c-2.88-1.64-6.31-1.58-9.61-1.5a32.62,32.62,0,0,0-9.7,1.9c-2.56.86-5.25,2.08-6.55,4.45"/><g class="cls-9"><path d="M399.7,151.9a4.39,4.39,0,0,0-1.87-2.13c-2.88-1.64-5.9-1.79-9.2-1.71a32.62,32.62,0,0,0-9.7,1.9c-2.56.86-5.25,2.08-6.55,4.45l1.64,1a24,24,0,0,0,14.13,4.44c2.41,0,5-.5,6.73-2.12.82-.75,1.43-1.7,2.27-2.42.57-.49,1.24-.86,1.77-1.38A2.25,2.25,0,0,0,399.7,151.9Z"/></g><path class="cls-5" d="M325.13,193.43l52.84.69a.67.67,0,0,0,.65-.88l-6.2-19.33s.92-9.66,2.18-21.29c1.92-17.64,4.46-39.82,4.5-39.76C375.49,102.74,354.17,101,354.17,101l-24.31,1.45L329,101l-7,3.25a32.12,32.12,0,0,0-4.39,2.48c-4.62,3.09-15.75,10.17-17.78,18.07-4.69,18.28,3.25,38.68,3.25,38.68l5.11-4a37.47,37.47,0,0,1,4-2.71l10.24,27.44a4.82,4.82,0,0,0-2.22,3.52c-.09,2.22,1.1,4.9,4.86,5.66"/><g class="cls-6"><path d="M347.78,161.09c1.68-9,.79-18.27-.1-27.39-2.93,7.46-2.83,15.87-5.93,23.26a10.19,10.19,0,0,0-.83,2.44,2.74,2.74,0,0,0,.71,2.39c.84.77,2.1.36,3.24.22a12.2,12.2,0,0,0,2.91-.92"/></g><g class="cls-9"><path d="M328.32,181.94c4.27,1.47,8.75-1.27,13.24-1.76,3-.32,5.94.36,8.88.84a66.33,66.33,0,0,0,18,.44,6.88,6.88,0,0,0,2.65-.68,3.2,3.2,0,0,0,1.38-2.63c-10-1-19.95-1.64-29.93-2.66a18.62,18.62,0,0,0-7.48.24c-3,.93-5.34,3.3-7.47,5.63"/></g><path class="cls-5" d="M398.18,148.4c-4.32-9.71-19.53-36.58-19.53-36.58l-11.78,14.76,2.75,29s6.22-6.94,23.61-7.08a8.47,8.47,0,0,1,6.47,3.41Z"/><path class="cls-4" d="M327.47,143.27a41.55,41.55,0,0,1-2-6.34,39.52,39.52,0,0,1-1.45-6.48,40.27,40.27,0,0,1,2,6.34A39.52,39.52,0,0,1,327.47,143.27Z"/><path class="cls-4" d="M366,124.62a7.32,7.32,0,0,1,1.09.92,30.64,30.64,0,0,1,2.62,2.89,27.81,27.81,0,0,1,5.62,11.5,21.33,21.33,0,0,1,.34,7.1c-.27,2.17-.69,4.08-1,5.69s-.45,2.93-.53,3.84A11.41,11.41,0,0,1,374,158a5.57,5.57,0,0,1-.07-1.43,34.61,34.61,0,0,1,.36-3.88c.22-1.63.59-3.55.84-5.69a21.68,21.68,0,0,0-.38-6.92,29,29,0,0,0-5.39-11.38C367.43,126.05,365.9,124.7,366,124.62Z"/><path class="cls-4" d="M355.2,191.12a4.56,4.56,0,0,1-1.15.34,13.26,13.26,0,0,1-1.38.26,17,17,0,0,1-1.85.23,27.22,27.22,0,0,1-4.85,0,30.87,30.87,0,0,1-5.83-1.17,30.2,30.2,0,0,1-5.47-2.34,26.47,26.47,0,0,1-4-2.72,17,17,0,0,1-1.4-1.23,11.4,11.4,0,0,1-1-1,5.08,5.08,0,0,1-.75-.92c.07-.08,1.21,1.19,3.38,2.85a30.77,30.77,0,0,0,4,2.59A30.5,30.5,0,0,0,346,191.42a30.6,30.6,0,0,0,4.77.14C353.52,191.42,355.18,191,355.2,191.12Z"/><path class="cls-4" d="M371.51,185.08a3.4,3.4,0,0,1,.41,1.54,9.6,9.6,0,0,1-.28,3.87,6.77,6.77,0,0,1-2.08,3.28c-.77.64-1.37.85-1.4.79s.47-.4,1.13-1.08a7.47,7.47,0,0,0,1.82-3.15C371.91,187.53,371.31,185.09,371.51,185.08Z"/><path class="cls-4" d="M368.64,188.81a5.77,5.77,0,0,1-2.27,5.85c-.12-.11.87-1.17,1.49-2.79S368.48,188.82,368.64,188.81Z"/><path class="cls-4" d="M359.18,153.94a22.76,22.76,0,0,1-1.88,2.71,21.54,21.54,0,0,1-1.86,2.74,9.84,9.84,0,0,1,3.74-5.45Z"/><path class="cls-4" d="M322.92,128.27a25,25,0,0,1-2.34-1.55,30.08,30.08,0,0,0-12.52-4.67c-1.71-.24-2.78-.27-2.78-.36a9.24,9.24,0,0,1,2.83,0,25.41,25.41,0,0,1,12.69,4.74A10.05,10.05,0,0,1,322.92,128.27Z"/><path class="cls-4" d="M378.66,111.46a45.91,45.91,0,0,0-5.36,5,46.39,46.39,0,0,0-4,6.13,6.45,6.45,0,0,1,.74-2,20.78,20.78,0,0,1,2.86-4.43,21,21,0,0,1,3.88-3.58A7,7,0,0,1,378.66,111.46Z"/><path class="cls-4" d="M356.84,102.73a1.81,1.81,0,0,1,.24.49,8.29,8.29,0,0,1,.49,1.49,12.45,12.45,0,0,1,0,5.74,14.07,14.07,0,0,1-4.32,7.3,14.6,14.6,0,0,1-9.75,3.47,16.45,16.45,0,0,1-9.84-3.29,18.64,18.64,0,0,1-5.42-6.56,20.26,20.26,0,0,1-1.81-5.46,15.39,15.39,0,0,1-.19-1.55,2.22,2.22,0,0,1,0-.54c.06,0,.12.74.41,2.05a21.93,21.93,0,0,0,1.94,5.32,18.84,18.84,0,0,0,5.38,6.33,16.18,16.18,0,0,0,9.54,3.15,14.34,14.34,0,0,0,9.42-3.3,13.9,13.9,0,0,0,4.27-7,12.9,12.9,0,0,0,.19-5.6C357.1,103.44,356.78,102.75,356.84,102.73Z"/><g class="cls-6"><path d="M360.55,155.82c0-.53-.09-1.15-.55-1.42a1,1,0,0,0-1,0,2.42,2.42,0,0,0-.76.63,13,13,0,0,0-2.84,4.53l5.2-.45C360.61,158,360.58,156.91,360.55,155.82Z"/></g><g class="cls-6"><path d="M377.79,144.89a16.94,16.94,0,0,0-3.76-8c2.24,7.33,1.49,11.47.23,16.49l.27-.7C376,149.7,378.19,147.86,377.79,144.89Z"/></g><polygon class="cls-10" points="367.42 391.25 364.25 438.79 343.58 438.54 340.33 389.12 367.42 391.25"/><path class="cls-5" d="M364.84,432.53v1.37s23.3,9.38,23.54,13.8l-46.27-.27.72-15.39C349.69,435.26,356.89,435.66,364.84,432.53Z"/><path class="cls-11" d="M347.49,437a1.88,1.88,0,0,0-1.32,2.14,1.82,1.82,0,0,0,2.12,1.33,2,2,0,0,0,1.38-2.28,1.88,1.88,0,0,0-2.35-1.14"/><path class="cls-4" d="M342.11,447.43l.18-3.7,44.28,1.61s2.05.91,1.81,2.36Z"/><path class="cls-4" d="M365,434c0,.23-1.14.32-2.25,1s-1.72,1.67-1.92,1.58.13-1.39,1.5-2.24S365.05,433.83,365,434Z"/><path class="cls-4" d="M369.84,436.07c.06.22-.93.6-1.7,1.55s-1,2-1.22,1.95-.37-1.29.62-2.46S369.84,435.85,369.84,436.07Z"/><path class="cls-4" d="M372.57,441.89c-.21.05-.52-1.08.07-2.31s1.65-1.72,1.74-1.54-.56.85-1,1.87S372.79,441.87,372.57,441.89Z"/><path class="cls-4" d="M363.65,43.63c1.19-3-.25-6.56-2.83-8.46a12.31,12.31,0,0,0-9.19-1.81,36.52,36.52,0,0,0-9.05,3.13,10.21,10.21,0,0,0-17.34,5.67,6.5,6.5,0,0,0-7.7,8.53l14.33,5,15.64,27.52A12.52,12.52,0,0,0,365.93,66.6a11.09,11.09,0,0,0,2.2-2.72,11,11,0,0,0,5.06-6.78C374.55,51.05,369.81,44.35,363.65,43.63Z"/><path class="cls-10" d="M354.17,101c-.89-4.48-1.51-7.55-1.5-7.52s8.44-3.28,7.86-15.08c-.29-5.87-2.53-15.12-4.6-22.63-1.87-6.76-8.17-14.21-14.85-12.06L320.9,53.58c-2,.65-2.38,2.56-1.9,4.63l0,1,7.85,32.49,3.32,14.52a12.26,12.26,0,0,0,13.69,9.3h0A12.27,12.27,0,0,0,354.17,101Z"/><path class="cls-4" d="M355.79,63.63a1.49,1.49,0,0,1-1.1,1.77,1.43,1.43,0,0,1-1.79-1,1.49,1.49,0,0,1,1.1-1.77A1.42,1.42,0,0,1,355.79,63.63Z"/><path class="cls-4" d="M354.92,61.37c-.14.23-1.42-.36-3,0s-2.56,1.36-2.77,1.21,0-.45.44-.93a4.05,4.05,0,0,1,2.17-1.2,3.93,3.93,0,0,1,2.43.26C354.76,61,355,61.27,354.92,61.37Z"/><path class="cls-4" d="M340.46,67.14a1.51,1.51,0,0,1-1.1,1.78,1.44,1.44,0,0,1-1.79-1,1.49,1.49,0,0,1,1.1-1.77A1.44,1.44,0,0,1,340.46,67.14Z"/><path class="cls-4" d="M339.68,65.11c-.14.23-1.42-.36-3,0s-2.57,1.37-2.78,1.21,0-.45.44-.92a4.09,4.09,0,0,1,2.17-1.2,4,4,0,0,1,2.44.25C339.52,64.69,339.76,65,339.68,65.11Z"/><path class="cls-4" d="M347.67,75.08a9.94,9.94,0,0,1,2.46-1c.39-.13.76-.29.77-.58a2.11,2.11,0,0,0-.52-1.13l-1.84-2.82c-2.56-4-4.51-7.35-4.35-7.45s2.38,3.07,4.94,7.09L350.92,72a2.35,2.35,0,0,1,.54,1.53,1,1,0,0,1-.54.73,2.67,2.67,0,0,1-.66.24A10.56,10.56,0,0,1,347.67,75.08Z"/><path class="cls-12" d="M352.67,93.49a29.66,29.66,0,0,1-16.15-.87s5.55,7.25,16.75,3.79Z"/><path class="cls-4" d="M340,62.86c-.1.46-1.72.44-3.57.9s-3.3,1.15-3.6.79c-.13-.17.08-.61.64-1.11A6.14,6.14,0,0,1,336,62.17a6.05,6.05,0,0,1,2.88,0C339.64,62.35,340,62.65,340,62.86Z"/><path class="cls-4" d="M354.32,56.36c-.25.43-1.61.33-3.16.63s-2.8.84-3.18.53c-.17-.15,0-.56.46-1a5.37,5.37,0,0,1,5.11-.94C354.18,55.83,354.43,56.16,354.32,56.36Z"/><path class="cls-4" d="M325.86,46a8,8,0,0,0,10.83,5.8c1.68-.68,3.4-2,5.11-1.34s2.35,3,4,4c2.37,1.33,5.23-1,7.95-.75,2.09.18,3.72,1.81,5.36,3.13s3.92,2.41,5.77,1.42A23.54,23.54,0,0,0,363,53.1a8,8,0,0,0-3.88-3.67c-.92-.36-1.94-.49-2.83-.94-1.91-1-2.77-3.21-4.16-4.85a8.74,8.74,0,0,0-7.43-3c-2.29.23-4.47,1.39-6.77,1.29-1.71-.07-3.34-.83-5-.8-3.32.06-5.82,3-7.66,5.73"/><path class="cls-4" d="M337,48.41c-1.52-.11-4.64-.43-5.66-1.51a9,9,0,0,0-8.53-2.8,7.39,7.39,0,0,0-5.32,7.06,10.63,10.63,0,0,0-7.73,7.6,12.33,12.33,0,0,0,2.64,11.14,21.59,21.59,0,0,1,1.74,2.52,18.09,18.09,0,0,0-1.88,2.85c-2.42,5.37,4.15,7.42,4.15,7.42,0,3.6,3.34,3.59,5.47,3.58s3.31,5.67,5,5.45L325.2,74.17a2.25,2.25,0,0,0,.77.14c4,.07,3-7.53,1.67-9.5a22.61,22.61,0,0,0,3-4.85,16.4,16.4,0,0,0,.16-8.12C332.21,51.63,337.7,48.46,337,48.41Z"/><path class="cls-10" d="M325.8,75.1a3.41,3.41,0,0,0-5.47-1.83c-1,.91-1.62,2.44-1,5,1.71,6.82,8.21,3.69,8.17,3.5S326.53,77.91,325.8,75.1Z"/><path class="cls-12" d="M324.79,79.7s-.1.12-.28.26a1.22,1.22,0,0,1-.88.24c-.79-.08-1.68-1.08-2-2.3a4,4,0,0,1-.1-1.78,1.44,1.44,0,0,1,.67-1.14.63.63,0,0,1,.78.15c.14.17.13.32.17.32s.12-.15,0-.42a.76.76,0,0,0-.37-.36.94.94,0,0,0-.7,0,1.73,1.73,0,0,0-1,1.37,4.13,4.13,0,0,0,.06,2c.39,1.37,1.42,2.48,2.48,2.52a1.31,1.31,0,0,0,1-.46C324.82,79.87,324.82,79.71,324.79,79.7Z"/><path class="cls-13" d="M362.39,65.57c0-.06.62-.48,1.49-1.55a10,10,0,0,0,2.13-5.3,9.67,9.67,0,0,0-.38-3.93A8.52,8.52,0,0,0,363.21,51a10,10,0,0,0-9.75-1.9c-.32.11-.61.27-.91.39s-.57.32-.84.47l-.42.24v-.47a3.42,3.42,0,0,0-.86-2.22,5.35,5.35,0,0,0-2-1.4,7.22,7.22,0,0,0-4.55-.34c-2.92.67-5.4,2-7.75,2.27A7.42,7.42,0,0,1,330.89,47a4.19,4.19,0,0,1-1-1.06c-.17-.29-.25-.45-.23-.46A5.66,5.66,0,0,0,331,46.84a7.38,7.38,0,0,0,5.11.86,17.89,17.89,0,0,0,3.56-1,33,33,0,0,1,4.14-1.35,9.41,9.41,0,0,1,2.4-.24,7.16,7.16,0,0,1,2.46.57,5.9,5.9,0,0,1,2.16,1.53,4,4,0,0,1,1,2.58l-.43-.23c.29-.16.58-.34.89-.5s.64-.31,1-.42a10.43,10.43,0,0,1,10.27,2,9,9,0,0,1,2.52,4,10.15,10.15,0,0,1,.33,4.11A9.86,9.86,0,0,1,364,64.16a6.46,6.46,0,0,1-1.18,1.1A2.49,2.49,0,0,1,362.39,65.57Z"/><path class="cls-13" d="M361,41.61a7.59,7.59,0,0,0-2.19-.76,5.82,5.82,0,0,0-2.61.24A5.18,5.18,0,0,0,353.51,43l-.26.38-.16-.43a8,8,0,0,0-6.46-4.8c-2.33-.26-4.45.79-6.21,1.8a27.44,27.44,0,0,1-4.93,2.55,7.78,7.78,0,0,1-3.73.44,4.37,4.37,0,0,1-1-.28,1,1,0,0,1-.31-.16s.47.14,1.33.22a8.09,8.09,0,0,0,3.57-.59,29.78,29.78,0,0,0,4.8-2.62,16.39,16.39,0,0,1,3-1.45,8.13,8.13,0,0,1,3.56-.46,8.36,8.36,0,0,1,6.85,5.18l-.42,0a5.5,5.5,0,0,1,3-2.05,5.81,5.81,0,0,1,2.77-.14,5.2,5.2,0,0,1,1.67.63C360.86,41.44,361,41.59,361,41.61Z"/><path class="cls-5" d="M347.05,78.21a2.29,2.29,0,0,0-1.86-.54,2.72,2.72,0,0,0-1.78,1.3l0,0-.06.09,0,0a1.26,1.26,0,0,0-.2.8,1.93,1.93,0,0,0,1.1,1.44,2.45,2.45,0,0,0,2.78-.41A2,2,0,0,0,347.05,78.21Z"/><path class="cls-4" d="M347.58,81.51c-.08,0-.18-.32-.46-.76a3.34,3.34,0,0,0-3.44-1.57c-.52.08-.84.22-.88.15s.22-.33.78-.53a3.19,3.19,0,0,1,2.29.13,3.15,3.15,0,0,1,1.59,1.64C347.69,81.12,347.65,81.5,347.58,81.51Z"/><path class="cls-5" d="M326,82.82c.05,0,.31.53-.09,1.33a2.2,2.2,0,0,1-1.13,1,2.19,2.19,0,0,1-2.88-1.81,2.17,2.17,0,0,1,.43-1.46c.56-.71,1.17-.72,1.17-.66s-.47.24-.84.88a1.83,1.83,0,0,0-.25,1.18,1.76,1.76,0,0,0,2.2,1.39,1.88,1.88,0,0,0,1-.74C325.94,83.34,325.86,82.82,326,82.82Z"/><path class="cls-5" d="M322.37,82.41c.06,0,0,.36-.49.59a1.33,1.33,0,0,1-.88.08,1.41,1.41,0,0,1-1-1.79,1.36,1.36,0,0,1,.55-.69c.45-.26.78-.16.77-.09s-.26.13-.53.4a1,1,0,0,0-.2,1.22,1,1,0,0,0,1.13.5C322.12,82.55,322.31,82.36,322.37,82.41Z"/><path class="cls-10" d="M334,176.53s26.24,1.52,41.75,1.66c12,.11,17.37-3.08,19.77-10.79,2-6.49-2.32-18.91-2.32-18.91-8.12,0-13.13,1.16-18.36,3.61l1.39,5.68L334,161.43Z"/><path class="cls-12" d="M385.08,163.84a15.3,15.3,0,0,0-9.07-6.18,3.86,3.86,0,0,1,1.69.15,11.28,11.28,0,0,1,6.63,4.52A3.63,3.63,0,0,1,385.08,163.84Z"/><path class="cls-10" d="M324.42,152.06h0S316.3,154,310.35,158l6.33,17.24c2.12,5.65,8.61,8.43,13.74,5.5,8-4.56,10.8-17.87,10.8-17.87l8.77-38-14.53-9.1-11,36.33"/><path class="cls-10" d="M335.46,115.73l.59-12.51L332.8,90.56c-.18-.7-.27-1.58.3-2a1.55,1.55,0,0,1,2,.07c.89.9,5.13,12,5.13,12s6.42-3.87,7.57-4.05,2.58,3.27,2.67,3.54a20.23,20.23,0,0,1,0,2.33s4,.11,4.33.66a13.48,13.48,0,0,1,.46,3.37s1.68.54,2,1.82.81,3.37,0,3.83-2.46,1.38-2.46,1.38-.68,6.49-.85,7.08-3.9,4.22-3.9,4.22Z"/><path class="cls-12" d="M322,181s.39.23,1.21.49a8.26,8.26,0,0,0,3.75.3,10.47,10.47,0,0,0,5.42-2.5,25.11,25.11,0,0,0,5.05-6.39,28.41,28.41,0,0,0,2-4.38,45.69,45.69,0,0,0,1.36-5.08q1.24-5.35,2.68-11.5c1.91-8.17,4.05-17.31,6.35-27.16l0-.07.06,0c.73-.72,1.46-1.46,2.19-2.21.36-.38.72-.77,1.06-1.16.17-.2.35-.4.49-.6s.12-.38.17-.66c.29-2.12.51-4.31.75-6.52v-.14l.13-.07,2-1.13a4.49,4.49,0,0,0,.47-.28.51.51,0,0,0,.19-.35,3.36,3.36,0,0,0,0-1.1,16.72,16.72,0,0,0-.47-2.3,2.86,2.86,0,0,0-1.69-1.37l-.18-.06v-.19c0-.61-.07-1.24-.14-1.87a7.19,7.19,0,0,0-.14-.93,1.5,1.5,0,0,0-.12-.39c0-.07,0,0-.07-.07l-.17-.07a18.68,18.68,0,0,0-3.89-.44h-.27v-.28c0-.65,0-1.38,0-2.07a2.12,2.12,0,0,0-.24-.71c-.12-.25-.24-.5-.37-.75a8.2,8.2,0,0,0-.86-1.4,2.45,2.45,0,0,0-.54-.53.51.51,0,0,0-.57-.06,12.3,12.3,0,0,0-1.49.68c-2,1-3.9,2.15-5.78,3.27l-.28.17-.12-.3q-1.5-3.77-3-7.43c-.48-1.22-1-2.43-1.45-3.64a1.51,1.51,0,0,0-1.16-1.09,1.18,1.18,0,0,0-1.38.51,1.22,1.22,0,0,0-.16.75c0,.24.14.6.21.89l.48,1.82c.32,1.21.64,2.41.95,3.6.62,2.38,1.24,4.72,1.84,7v.08q-.32,6.53-.6,12.5v.06L326,147.21c-1.17,3.76-2.09,6.71-2.72,8.75-.32,1-.56,1.75-.73,2.29s-.28.78-.28.78.06-.28.21-.8l.67-2.31c.6-2,1.48-5,2.6-8.78,2.28-7.59,5.54-18.42,9.47-31.48v.06c.18-4,.37-8.16.57-12.51v.08l-1.86-7c-.31-1.19-.63-2.39-.95-3.6l-.48-1.83a9,9,0,0,1-.24-1,1.79,1.79,0,0,1,.23-1.08,1.65,1.65,0,0,1,.86-.72,2.17,2.17,0,0,1,1.1,0,2.31,2.31,0,0,1,1,.5,2.18,2.18,0,0,1,.57.91c.48,1.21,1,2.42,1.45,3.64l3,7.43-.4-.14c1.9-1.12,3.82-2.25,5.82-3.29a14.12,14.12,0,0,1,1.57-.72,1.27,1.27,0,0,1,.54-.07,1,1,0,0,1,.5.2,2.77,2.77,0,0,1,.67.65,8.55,8.55,0,0,1,.92,1.49c.14.25.26.51.38.78a2.38,2.38,0,0,1,.29.9c0,.75,0,1.45,0,2.13l-.27-.29a18.72,18.72,0,0,1,4.05.47,1.25,1.25,0,0,1,.27.12.7.7,0,0,1,.27.27,2,2,0,0,1,.18.54c.07.34.11.66.15,1,.07.65.11,1.28.14,1.91l-.19-.25a3.33,3.33,0,0,1,2,1.68,16,16,0,0,1,.51,2.45,3.75,3.75,0,0,1,0,1.29,1.11,1.11,0,0,1-.38.65,5.78,5.78,0,0,1-.54.32l-2,1.14.14-.21c-.24,2.21-.47,4.39-.76,6.54l-.07.41a1.2,1.2,0,0,1-.19.47c-.17.24-.35.44-.53.65-.35.4-.72.79-1.08,1.17-.74.76-1.47,1.5-2.21,2.22l.07-.13c-2.33,9.84-4.49,19-6.43,27.14-1,4.09-1.88,7.93-2.73,11.49a43.72,43.72,0,0,1-1.4,5.11,29,29,0,0,1-2,4.42,25.17,25.17,0,0,1-5.16,6.42,10.56,10.56,0,0,1-5.57,2.48,8.24,8.24,0,0,1-3.8-.38,7.65,7.65,0,0,1-.9-.41A1.45,1.45,0,0,1,322,181Z"/><path class="cls-12" d="M350.44,102.44c0,.08-.36.12-.92.15a10.56,10.56,0,0,0-2.11.25,4.12,4.12,0,0,0-1.8,1c-.39.36-.55.67-.63.63s0-.4.34-.89a3.56,3.56,0,0,1,1.95-1.24,6.22,6.22,0,0,1,2.27-.1C350.1,102.27,350.44,102.37,350.44,102.44Z"/><path class="cls-12" d="M347.33,102.56c-.14,0-.15-.38,0-.73s.35-.59.5-.54.15.38,0,.73S347.47,102.61,347.33,102.56Z"/><path class="cls-12" d="M355.41,106.41a10.1,10.1,0,0,1-3.15.43,2.16,2.16,0,0,0-1.75.85c-.28.43-.19.79-.27.81s-.33-.36-.08-1a1.73,1.73,0,0,1,.76-.84,3.22,3.22,0,0,1,1.27-.37A8.75,8.75,0,0,1,355.41,106.41Z"/><path class="cls-12" d="M354.7,110.22c.15,0,.24.79.2,1.75s-.2,1.73-.36,1.73-.24-.79-.19-1.75S354.55,110.21,354.7,110.22Z"/><path class="cls-11" d="M359.11,138.77l.94-3.25a.88.88,0,0,1,1.48-.38l1.23,1.26.77-3.06a.89.89,0,0,1,1.66-.17l1.74,3.62Z"/><path class="cls-11" d="M366.94,138.18a14,14,0,0,1-3.74,1.21,13.8,13.8,0,0,1-3.88.68,14.21,14.21,0,0,1,3.75-1.21A14.73,14.73,0,0,1,366.94,138.18Z"/><path class="cls-11" d="M303.92,120.07a13.9,13.9,0,0,0-.94,1.26,10.6,10.6,0,0,0-1.44,4,29.29,29.29,0,0,0-.19,6.35c.12,2.4.31,5,.6,7.79a139.24,139.24,0,0,0,2.24,14c.38,1.77.72,3.2.95,4.19q.17.66.27,1.14l.09.4s-.05-.13-.13-.39l-.31-1.13c-.26-1-.63-2.41-1-4.18a126.39,126.39,0,0,1-2.31-14c-.29-2.76-.48-5.4-.58-7.8a27.66,27.66,0,0,1,.24-6.39,10.31,10.31,0,0,1,1.52-4A6,6,0,0,1,303.92,120.07Z"/><path class="cls-11" d="M326.22,105.66a1.31,1.31,0,0,1-.24.13l-.7.33c-.6.29-1.48.72-2.53,1.3a91.09,91.09,0,0,0-8,5c-3,2.08-5.71,4-7.67,5.44l-2.33,1.65-.64.44-.23.14.21-.18.61-.47,2.29-1.7c1.93-1.44,4.6-3.42,7.63-5.51a80.08,80.08,0,0,1,8-4.93c1.06-.56,1.95-1,2.57-1.24l.72-.29A.84.84,0,0,1,326.22,105.66Z"/><path class="cls-11" d="M376.76,112.55s-.06,0-.17-.13l-.48-.41a18.52,18.52,0,0,0-1.86-1.39,37.4,37.4,0,0,0-6.81-3.45,69.11,69.11,0,0,0-7.26-2.41c-.95-.27-1.72-.46-2.25-.59l-.61-.16a1.26,1.26,0,0,1-.21-.06.74.74,0,0,1,.22,0l.62.12c.54.1,1.31.27,2.27.52a58,58,0,0,1,7.3,2.36,34.33,34.33,0,0,1,6.82,3.52A13.5,13.5,0,0,1,376.76,112.55Z"/><path class="cls-11" d="M326.52,193.45a1.61,1.61,0,0,1-.41-.14,7,7,0,0,1-1.05-.56,5.15,5.15,0,0,1-2.31-3.13,6.09,6.09,0,0,1,.41-3.87,5.29,5.29,0,0,1,.62-1,1.34,1.34,0,0,1,.29-.32,11.72,11.72,0,0,0-.76,1.41,6.19,6.19,0,0,0-.34,3.76,5.16,5.16,0,0,0,2.18,3.05C326,193.18,326.54,193.41,326.52,193.45Z"/><path class="cls-11" d="M323.15,182a4.5,4.5,0,0,1,.5,1.33,5.15,5.15,0,0,1,.3,1.39,4.49,4.49,0,0,1-.51-1.33A4.57,4.57,0,0,1,323.15,182Z"/><path class="cls-4" d="M337.48,419.59l32.33-.17-.59-111.76L368.92,194l-43.79-.55-7.87,14.84a53.41,53.41,0,0,0-6.05,19.23c-.55,5.14,3.3,21.89,4.64,26.15l12,38.22Z"/><path class="cls-4" d="M378.4,194.13,413.92,291a44.68,44.68,0,0,1-4.38,37.84L368.3,409.29l-23.18-29,34.5-72.11L349.2,258.89l5.12-64.66,14.33-.23Z"/><path class="cls-13" d="M366,226.57s0,.17,0,.5.05.83.09,1.46c.07,1.31.17,3.19.3,5.61.23,4.9.57,12,1,20.65s.88,19.11,1.41,30.63c.26,5.77.54,11.82.82,18.09.2,3.14.11,6.33.15,9.58s0,6.53,0,9.86c0,26.63.08,50.74.11,68.22,0,8.71,0,15.77,0,20.67,0,2.42,0,4.31,0,5.62,0,.63,0,1.11,0,1.47s0,.49,0,.49,0-.16,0-.49l0-1.46c0-1.32,0-3.2-.06-5.62,0-4.91-.09-12-.15-20.68-.07-17.47-.17-41.58-.28-68.21,0-3.33,0-6.62,0-9.86s.06-6.44-.14-9.58c-.27-6.27-.53-12.32-.78-18.08-.49-11.53-.93-21.91-1.3-30.63s-.62-15.76-.82-20.66c-.08-2.42-.15-4.31-.19-5.62,0-.62,0-1.11,0-1.46A3.8,3.8,0,0,1,366,226.57Z"/><path class="cls-13" d="M365.16,196a4.87,4.87,0,0,1,.22,1.05c.11.68.24,1.67.38,2.9.29,2.45.58,5.85.75,9.61s.18,7.18.12,9.65c0,1.23-.07,2.23-.12,2.92a4,4,0,0,1-.13,1.06,33,33,0,0,1-.14-4c0-2.46-.11-5.86-.28-9.61s-.4-7.15-.59-9.6A32,32,0,0,1,365.16,196Z"/><path class="cls-13" d="M358,198.22c.06.07-.55.35-.71,1.21a1.35,1.35,0,0,0,.41,1.29,1.5,1.5,0,0,0,1.59.29,1.54,1.54,0,0,0,.82-1.39,1.39,1.39,0,0,0-.71-1.16,2.68,2.68,0,0,0-1.39-.24s.1-.14.38-.22a1.73,1.73,0,0,1,1.19.12,1.76,1.76,0,0,1,1,1.47,2,2,0,0,1-1.09,1.92,2,2,0,0,1-2.18-.42,1.75,1.75,0,0,1-.43-1.75,1.79,1.79,0,0,1,.68-1C357.86,198.21,358,198.19,358,198.22Z"/><path class="cls-13" d="M341.07,196.3a3.23,3.23,0,0,1,.29,1,9.76,9.76,0,0,1,.1,2.88,11.68,11.68,0,0,1-1.23,4.1,10.85,10.85,0,0,1-8.28,5.95,11.68,11.68,0,0,1-4.28-.16,9.9,9.9,0,0,1-2.7-1,3.12,3.12,0,0,1-.87-.6,17.9,17.9,0,0,0,3.65,1.23,11.12,11.12,0,0,0,13.32-9.56A18.7,18.7,0,0,0,341.07,196.3Z"/><path class="cls-13" d="M382.66,205.58a4.43,4.43,0,0,1-2-.24,9.5,9.5,0,0,1-6.43-7.08,4.39,4.39,0,0,1,0-2c.1,0,.1.78.42,2a10.41,10.41,0,0,0,2.29,4.13,10.19,10.19,0,0,0,3.88,2.67C381.89,205.4,382.67,205.48,382.66,205.58Z"/><path class="cls-13" d="M395.28,310a6.74,6.74,0,0,1-1.87,1.49,9.18,9.18,0,0,1-2.41,1,5.78,5.78,0,0,1-3.26-.09,9.52,9.52,0,0,1-4.53-3.6,8.61,8.61,0,0,1-1.24-2,13.34,13.34,0,0,1,1.55,1.8,10.12,10.12,0,0,0,4.39,3.32,6.79,6.79,0,0,0,5.3-.78A19.5,19.5,0,0,1,395.28,310Z"/><path class="cls-13" d="M387.19,316.16a26.69,26.69,0,0,1-3.35-4.23,26.4,26.4,0,0,1-2.89-4.54,52.81,52.81,0,0,1,6.24,8.77Z"/><path class="cls-14" d="M332.88,230.33c-.14.06-.52-.55-.85-1.36s-.47-1.52-.33-1.57.52.55.85,1.36S333,230.27,332.88,230.33Z"/><path class="cls-14" d="M353.4,233.26c-.16,0-.28-.52-.28-1.17s.12-1.17.28-1.17.27.52.27,1.17S353.55,233.26,353.4,233.26Z"/><path class="cls-14" d="M345,244.4c-.15,0-.32-.64-.37-1.44s0-1.48.18-1.49.32.64.37,1.45S345.12,244.39,345,244.4Z"/><path class="cls-14" d="M329.55,252.61c-.12.09-.56-.3-1.13-.71s-1.07-.71-1-.86.71,0,1.35.42S329.68,252.52,329.55,252.61Z"/><path class="cls-14" d="M356.72,263c-.13-.09,0-.55.36-1s.69-.81.81-.72,0,.54-.35,1S356.85,263.05,356.72,263Z"/><path class="cls-14" d="M339.91,265.9c-.15,0-.27-.88-.27-2s.12-1.95.27-1.95.28.87.28,1.95S340.06,265.9,339.91,265.9Z"/><path class="cls-14" d="M334.46,277.79c-.09.12-.64-.13-1.23-.56s-1-.88-.92-1,.65.13,1.24.56S334.55,277.66,334.46,277.79Z"/><path class="cls-14" d="M351.44,281.92c.06.14-.28.43-.76.65s-.93.27-1,.13.29-.42.77-.64S351.38,281.78,351.44,281.92Z"/><path class="cls-14" d="M339.91,301.27c-.13.07-.68-.75-1.22-1.83s-.87-2-.73-2.08.68.75,1.22,1.83S340.05,301.2,339.91,301.27Z"/><path class="cls-14" d="M358.67,299.51c-.13-.07.11-.78.54-1.59s.89-1.41,1-1.34-.11.79-.54,1.6S358.81,299.58,358.67,299.51Z"/><path class="cls-14" d="M350.47,315.93c-.16,0-.15-.86-.31-1.86s-.42-1.78-.28-1.85.65.67.82,1.77S350.61,316,350.47,315.93Z"/><path class="cls-14" d="M341.67,325.31c-.11.1-.64-.3-1.18-.89s-.89-1.16-.77-1.26.64.29,1.18.89S341.78,325.21,341.67,325.31Z"/><path class="cls-14" d="M363,328.87c-.11-.11.28-.68.87-1.28s1.15-1,1.26-.89-.28.68-.87,1.28S363.12,329,363,328.87Z"/><path class="cls-14" d="M350.74,342.91c-.15,0-.15-.83,0-1.8s.39-1.75.54-1.73.16.83,0,1.81S350.89,342.93,350.74,342.91Z"/><path class="cls-14" d="M342.48,349.72c-.13.08-.6-.47-1-1.22s-.69-1.42-.55-1.5.59.47,1,1.22S342.61,349.65,342.48,349.72Z"/><path class="cls-14" d="M362.38,358.33c.09.12-.45.66-1.21,1.2s-1.44.88-1.53.75.46-.66,1.21-1.2S362.29,358.2,362.38,358.33Z"/><path class="cls-14" d="M345.8,369.49c-.14-.06.05-.91.13-2s.06-1.92.22-1.95.44.87.33,2S345.94,369.54,345.8,369.49Z"/><path class="cls-14" d="M352.42,385.5c-.12.1-.57-.26-1-.8s-.68-1.06-.56-1.15.56.26,1,.8S352.54,385.41,352.42,385.5Z"/><path class="cls-14" d="M345.19,396.25c-.13.09-.71-.54-1.3-1.41s-1-1.63-.85-1.72.71.55,1.3,1.41S345.31,396.16,345.19,396.25Z"/><path class="cls-14" d="M365.12,382.77c-.14-.06-.12-.45,0-.88s.41-.74.55-.69.13.45,0,.88S365.27,382.82,365.12,382.77Z"/><path class="cls-14" d="M356.33,408.37c-.14-.08.13-.83.33-1.77s.29-1.74.45-1.75.32.84.09,1.87S356.46,408.44,356.33,408.37Z"/><path class="cls-14" d="M362,244.57c-.13.07-.47-.36-.75-.95s-.39-1.12-.25-1.19.48.37.75,1S362.18,244.51,362,244.57Z"/><path class="cls-14" d="M347.34,211.57c.08.13-.66.73-1.45,1.58s-1.34,1.62-1.48,1.54.22-1,1.08-1.92S347.27,211.44,347.34,211.57Z"/><path class="cls-14" d="M360.43,211.18c-.15,0-.4-.6-.77-1.33s-.71-1.31-.6-1.41.7.36,1.1,1.17S360.58,211.15,360.43,211.18Z"/><path class="cls-14" d="M319.64,222c-.14-.06,0-.76.32-1.57s.7-1.43.84-1.37,0,.76-.33,1.57S319.78,222,319.64,222Z"/><path class="cls-14" d="M321,238c-.1.12-.71-.22-1.35-.76s-1.1-1.08-1-1.19.7.22,1.35.76S321.05,237.83,321,238Z"/><path class="cls-14" d="M347.73,198.86c-.14.06-.43-.33-.65-.87s-.27-1-.13-1.08.43.34.64.88S347.87,198.81,347.73,198.86Z"/><path class="cls-14" d="M373.36,206.69c-.14,0-.13-.67,0-1.43s.42-1.34.57-1.3.14.67,0,1.42S373.51,206.72,373.36,206.69Z"/><path class="cls-14" d="M379.39,218.8c-.14-.06.05-.85.43-1.77s.8-1.61.94-1.55-.05.85-.43,1.76S379.53,218.86,379.39,218.8Z"/><path class="cls-14" d="M375.09,228.57c-.14.07-.64-.66-1.13-1.64s-.77-1.81-.63-1.88.64.67,1.13,1.64S375.23,228.5,375.09,228.57Z"/><path class="cls-14" d="M384.28,238.34c-.15-.05,0-.67.23-1.37s.6-1.22.74-1.17,0,.67-.23,1.37S384.42,238.4,384.28,238.34Z"/><path class="cls-14" d="M376.07,247.92c-.13.08-.46-.21-.73-.64s-.38-.84-.25-.93.45.21.72.64S376.2,247.84,376.07,247.92Z"/><path class="cls-14" d="M377.82,267.66c-.11.11-.77-.42-1.47-1.18s-1.18-1.45-1.07-1.55.77.42,1.47,1.18S377.93,267.56,377.82,267.66Z"/><path class="cls-14" d="M388.57,256.32c-.12.1-.69-.44-1.29-1.2s-1-1.44-.86-1.53.7.44,1.3,1.19S388.69,256.23,388.57,256.32Z"/><path class="cls-14" d="M394.48,272c-.14-.06.1-.86.53-1.77s.9-1.61,1-1.54-.1.86-.54,1.77S394.61,272,394.48,272Z"/><path class="cls-14" d="M381.93,284.85c-.13.09-.63-.5-1.31-1.13s-1.3-1.07-1.23-1.21.86.12,1.61.81S382.06,284.78,381.93,284.85Z"/><path class="cls-14" d="M382.71,298.14c0,.16-.52.28-1.17.28s-1.17-.12-1.17-.28.52-.27,1.17-.27S382.71,298,382.71,298.14Z"/><path class="cls-14" d="M395.61,294.43c-.13-.08.14-.74.34-1.57s.28-1.55.44-1.56.33.76.1,1.69S395.73,294.51,395.61,294.43Z"/><path class="cls-14" d="M408.42,298.89c-.14.05-.53-.7-.87-1.66s-.5-1.79-.35-1.84.53.69.87,1.66S408.57,298.84,408.42,298.89Z"/><path class="cls-14" d="M406.38,317.11c-.13-.07.19-1,.73-2s1.09-1.8,1.22-1.73-.19,1-.73,2S406.52,317.18,406.38,317.11Z"/><path class="cls-14" d="M394.69,327.83c-.14.05-.58-.68-1-1.64s-.61-1.8-.47-1.85.58.67,1,1.64S394.83,327.77,394.69,327.83Z"/><path class="cls-14" d="M381.73,332c0,.16-.43.28-1,.28s-1-.12-1-.28.44-.27,1-.27S381.73,331.8,381.73,332Z"/><path class="cls-14" d="M389.16,349c-.15,0-.44-.59-.66-1.4s-.27-1.5-.12-1.54.44.59.66,1.4S389.31,348.92,389.16,349Z"/><path class="cls-14" d="M379.78,343.29c-.13-.08,0-.58.35-1.12s.69-.91.82-.84,0,.58-.35,1.12S379.91,343.37,379.78,343.29Z"/><path class="cls-14" d="M379.58,362.05c-.15,0-.36-.71-.46-1.63s-.08-1.67.07-1.69.37.71.47,1.63S379.74,362,379.58,362.05Z"/></g></g></svg>