<svg xmlns="http://www.w3.org/2000/svg" xmlns:xlink="http://www.w3.org/1999/xlink" viewBox="0 0 198 121.51"><defs><style>.cls-1,.cls-3{fill:none;}.cls-2{clip-path:url(#clip-path);}.cls-3,.cls-4{stroke:#163d6b;stroke-linecap:round;stroke-linejoin:round;stroke-width:1.5px;}.cls-4{fill:#d2e3ff;}.cls-5{fill:#ea0029;}.cls-6{fill:#bdd0fb;}.cls-7{fill:url(#linear-gradient);}.cls-8{fill:url(#linear-gradient-2);}.cls-9{fill:#f4f7fa;}.cls-10{fill:url(#linear-gradient-3);}.cls-11{fill:url(#linear-gradient-4);}.cls-12{fill:url(#linear-gradient-5);}.cls-13{fill:url(#linear-gradient-6);}.cls-14{fill:url(#linear-gradient-7);}.cls-15{fill:#fff;}.cls-16{clip-path:url(#clip-path-2);}.cls-17{fill:url(#linear-gradient-8);}.cls-18{fill:url(#linear-gradient-9);}.cls-19{fill:url(#linear-gradient-10);}.cls-20{fill:url(#linear-gradient-11);}.cls-21{fill:url(#linear-gradient-12);}.cls-22{fill:url(#linear-gradient-13);}.cls-23{fill:url(#linear-gradient-14);}.cls-24{fill:url(#linear-gradient-15);}.cls-25{fill:url(#linear-gradient-16);}.cls-26{fill:url(#linear-gradient-17);}.cls-27{fill:url(#linear-gradient-18);}</style><clipPath id="clip-path" transform="translate(23.71 9.76)"><rect class="cls-1" width="146" height="99"/></clipPath><linearGradient id="linear-gradient" x1="196.32" y1="-95.56" x2="182.74" y2="-58.97" gradientUnits="userSpaceOnUse"><stop offset="0" stop-color="#ff928e"/><stop offset="1" stop-color="#fe7062"/></linearGradient><linearGradient id="linear-gradient-2" x1="152.8" y1="90.08" x2="184.11" y2="-18.99" gradientTransform="translate(-20.41 1.37) rotate(-0.14)" gradientUnits="userSpaceOnUse"><stop offset="0" stop-color="#febbba"/><stop offset="1" stop-color="#ff928e"/></linearGradient><linearGradient id="linear-gradient-3" x1="148.96" y1="98.89" x2="180.26" y2="-10.18" gradientTransform="matrix(1, -0.01, 0, 1, 5.17, 5.04)" xlink:href="#linear-gradient-2"/><linearGradient id="linear-gradient-4" x1="150.1" y1="99.21" x2="181.41" y2="-9.85" gradientTransform="matrix(1, -0.01, 0, 1, 5.17, 5.04)" xlink:href="#linear-gradient-2"/><linearGradient id="linear-gradient-5" x1="151.25" y1="99.54" x2="182.55" y2="-9.52" gradientTransform="matrix(1, -0.01, 0, 1, 5.17, 5.04)" xlink:href="#linear-gradient-2"/><linearGradient id="linear-gradient-6" x1="196.41" y1="-95.53" x2="182.83" y2="-58.94" xlink:href="#linear-gradient"/><linearGradient id="linear-gradient-7" x1="152.86" y1="90.1" x2="184.17" y2="-18.97" xlink:href="#linear-gradient-2"/><clipPath id="clip-path-2" transform="translate(23.71 9.76)"><rect class="cls-1" x="-10.06" y="10.97" width="69.49" height="75" rx="12"/></clipPath><linearGradient id="linear-gradient-8" x1="47.85" y1="48.92" x2="58.23" y2="83.56" gradientUnits="userSpaceOnUse"><stop offset="0" stop-color="#09005d"/><stop offset="1" stop-color="#1a0f91"/></linearGradient><linearGradient id="linear-gradient-9" x1="-11.33" y1="59.9" x2="-0.79" y2="95.06" xlink:href="#linear-gradient-8"/><linearGradient id="linear-gradient-10" x1="100.16" y1="-131.25" x2="86.58" y2="-94.66" xlink:href="#linear-gradient"/><linearGradient id="linear-gradient-11" x1="23.86" y1="47.76" x2="25.44" y2="74.23" gradientTransform="matrix(1, 0, 0, 1, 0, 0)" xlink:href="#linear-gradient-2"/><linearGradient id="linear-gradient-12" x1="20.75" y1="26.63" x2="42.9" y2="56.19" gradientTransform="matrix(1, 0, 0, 1, 0, 0)" xlink:href="#linear-gradient-2"/><linearGradient id="linear-gradient-13" x1="27.25" y1="21.76" x2="49.41" y2="51.32" gradientTransform="matrix(1, 0, 0, 1, 0, 0)" xlink:href="#linear-gradient-2"/><linearGradient id="linear-gradient-14" x1="13.19" y1="32.3" x2="35.34" y2="61.85" gradientTransform="matrix(1, 0, 0, 1, 0, 0)" xlink:href="#linear-gradient-2"/><linearGradient id="linear-gradient-15" x1="12.88" y1="36.83" x2="34.39" y2="36.83" xlink:href="#linear-gradient-8"/><linearGradient id="linear-gradient-16" x1="23.79" y1="44.82" x2="23.79" y2="4.95" xlink:href="#linear-gradient-8"/><linearGradient id="linear-gradient-17" x1="3.26" y1="53.96" x2="14.46" y2="91.31" xlink:href="#linear-gradient-8"/><linearGradient id="linear-gradient-18" x1="39.44" y1="43.73" x2="51.7" y2="84.6" xlink:href="#linear-gradient-8"/></defs><g id="Capa_2" data-name="Capa 2"><g id="Capa_1-2" data-name="Capa 1"><g class="cls-2"><path class="cls-3" d="M173.54-.16l-2.2,93.32L171,107.59a3.43,3.43,0,0,1-3.44,3.41H-18a3.42,3.42,0,0,1-3.43-3.41l-.21-14.44L-23,1a6,6,0,0,1,6.3-5.29L164.67-9A8.68,8.68,0,0,1,171-6.48,8.64,8.64,0,0,1,173.54-.16Z" transform="translate(23.71 9.76)"/><path class="cls-4" d="M166.46,104.69a3.24,3.24,0,0,1-3.27,3.2H-13.56a3.24,3.24,0,0,1-3.27-3.2L-18.3,5.18a5.65,5.65,0,0,1,6-4.93L160.44-4.13a8.33,8.33,0,0,1,6,2.35,8,8,0,0,1,2.42,5.9Z" transform="translate(23.71 9.76)"/><path class="cls-5" d="M132.07,11.41c0,1.64-.91,3-1.94,3l-61.31.37c-1.16,0-2.1-1.43-2.09-3.18h0c0-1.74,1-3.19,2.12-3.19h61.43c1,0,1.84,1.37,1.79,3Z" transform="translate(23.71 9.76)"/><path class="cls-5" d="M131.41,82.21c0,1.64-.9,2.93-1.92,2.94L69,85.49c-1.14,0-2.07-1.34-2.06-3.08h0c0-1.75,1-3.09,2.09-3.09h60.58c1,0,1.81,1.25,1.76,2.89Z" transform="translate(23.71 9.76)"/><path class="cls-5" d="M131.42,70.87c0,1.64-.91,2.92-1.93,2.93l-60.69.33c-1.15,0-2.08-1.31-2.07-3.06h0c0-1.74,1-3.07,2.1-3.07h60.82c1,0,1.81,1.23,1.77,2.87Z" transform="translate(23.71 9.76)"/><path class="cls-5" d="M132.07,24c0,1.37-1.56,2.49-3.39,2.51L70.2,27c-1.93,0-3.48-1.11-3.47-2.52v-.16c0-1.41,1.59-2.57,3.53-2.58l58.58-.35c1.83,0,3.28,1.09,3.23,2.47Z" transform="translate(23.71 9.76)"/><path class="cls-5" d="M131.85,36.29c-.06,1.36-1.57,2.47-3.4,2.48l-58.32.44c-1.92,0-3.47-1.11-3.44-2.5v-.16c0-1.4,1.6-2.55,3.53-2.56l58.43-.3c1.82,0,3.25,1.09,3.2,2.44Z" transform="translate(23.71 9.76)"/><path class="cls-6" d="M163.09,108.49H143.2a.25.25,0,0,1,0-.5h19.89a4.83,4.83,0,0,0,4.51-5V41.85a.25.25,0,1,1,.5,0V103A5.33,5.33,0,0,1,163.09,108.49Z" transform="translate(23.71 9.76)"/><path class="cls-6" d="M-18,41.85a.25.25,0,0,1-.25-.25V6.23A6.2,6.2,0,0,1-11.93-.15H3.89A.25.25,0,0,1,4.14.1a.25.25,0,0,1-.25.25H-11.93a5.65,5.65,0,0,0-5.81,5.88V41.6A.25.25,0,0,1-18,41.85Z" transform="translate(23.71 9.76)"/><path class="cls-7" d="M157.45,38.4l-13.24.12a4.45,4.45,0,0,1-4.44-4.46l0-13.48a4.42,4.42,0,0,1,4.42-4.45l13.23.14a4.43,4.43,0,0,1,4.31,4.45l0,13.23A4.39,4.39,0,0,1,157.45,38.4Z" transform="translate(23.71 9.76)"/><path class="cls-8" d="M156.52,37.13l-11.37.09a4.1,4.1,0,0,1-4.09-4.11l0-11.57a4.08,4.08,0,0,1,4.07-4.11l11.37.11a4.09,4.09,0,0,1,4,4.11l0,11.37A4.05,4.05,0,0,1,156.52,37.13ZM145.11,18a3.5,3.5,0,0,0-3.51,3.53l0,11.56a3.53,3.53,0,0,0,3.52,3.55l11.37-.09A3.48,3.48,0,0,0,159.93,33l0-11.39a3.53,3.53,0,0,0-3.44-3.54Z" transform="translate(23.71 9.76)"/><path class="cls-9" d="M141.32,23l18.87.09Z" transform="translate(23.71 9.76)"/><polygon class="cls-10" points="183.89 33.09 165.03 33.02 165.03 32.44 183.89 32.53 183.89 33.09"/><path class="cls-9" d="M141.33,27.32l18.87,0Z" transform="translate(23.71 9.76)"/><polygon class="cls-11" points="183.9 37.37 165.04 37.37 165.03 36.79 183.9 36.81 183.9 37.37"/><path class="cls-9" d="M141.34,31.67l18.87-.06Z" transform="translate(23.71 9.76)"/><polygon class="cls-12" points="183.91 41.65 165.05 41.72 165.05 41.14 183.91 41.09 183.91 41.65"/><path class="cls-13" d="M153.49,34.81l-5.27,0a2.48,2.48,0,0,1-2.46-2.48l0-10.07a2.44,2.44,0,0,1,2.44-2.47l5.27,0a2.47,2.47,0,0,1,2.42,2.48l0,10A2.47,2.47,0,0,1,153.49,34.81Z" transform="translate(23.71 9.76)"/><path class="cls-14" d="M153.49,35.09l-5.27,0a2.74,2.74,0,0,1-2.74-2.76l0-10.07a2.72,2.72,0,0,1,2.72-2.76l5.27,0a2.76,2.76,0,0,1,2.7,2.78l0,10A2.75,2.75,0,0,1,153.49,35.09Zm-5.31-15A2.16,2.16,0,0,0,146,22.3l0,10.06a2.19,2.19,0,0,0,2.18,2.19l5.27,0a2.17,2.17,0,0,0,2.13-2.2l0-10a2.2,2.2,0,0,0-2.15-2.2Z" transform="translate(23.71 9.76)"/><rect class="cls-15" x="13.67" y="20.72" width="69.49" height="75" rx="12"/><g class="cls-16"><path class="cls-17" d="M65.55,83a94,94,0,0,0-7.63-23.16L50.66,85.06s.12.29.33.92l12.1,0A2.5,2.5,0,0,0,65.55,83Z" transform="translate(23.71 9.76)"/><path class="cls-18" d="M2.65,86c.8-2.84,1.41-4.68,1.41-4.68L-7.82,59.87s-2.7,3.21-5.59,21.7A3.77,3.77,0,0,0-9.71,86Z" transform="translate(23.71 9.76)"/><path class="cls-19" d="M43.56,86,40.34,52.22C26,46.9,7.81,52.85,7.81,52.85L6.32,86Z" transform="translate(23.71 9.76)"/><path class="cls-20" d="M17.24,41.57,17,50.48a2,2,0,0,0,1.35,2c2.28.8,7,2,11.46.42a2,2,0,0,0,1.31-2.19l-1.34-9.11Z" transform="translate(23.71 9.76)"/><path class="cls-21" d="M12.68,25.31s1.57,16,5,20c0,0,10.32.94,14.07-1.25A59.12,59.12,0,0,0,34.1,25.46S34.62,15.79,23.94,15C11.43,14.05,12.68,25.31,12.68,25.31Z" transform="translate(23.71 9.76)"/><path class="cls-22" d="M33,30.31s.94-2.81,2.5-2.81S35.2,35,33,35Z" transform="translate(23.71 9.76)"/><path class="cls-23" d="M14.1,31.05s-1.3-2.66-2.85-2.45,1.32,7.39,3.49,7.1Z" transform="translate(23.71 9.76)"/><path class="cls-24" d="M12.88,27.3S14.11,42.64,18.3,48a2.09,2.09,0,0,0,1.53.81c2.14.11,7.61.32,10.69-.36a2.27,2.27,0,0,0,1.65-1.59A20.79,20.79,0,0,0,33,43.72c.11-2.38.65-9,1.35-18l-.64-1c-.19,2.08-1.47,15.32-3.48,15.62a2.87,2.87,0,0,1-.91,0c-1.22-.24-1.6-1.21-2.45-1.83a4.85,4.85,0,0,0-5.46.27,7.24,7.24,0,0,1-2,1.53,4.13,4.13,0,0,1-1.48.35c-1.48-.06-2.94-5.86-3.76-13.76Z" transform="translate(23.71 9.76)"/><path class="cls-25" d="M29.88,21.32s-8,6.92-16.65,6.89c0,0-4.93-11.11,4.77-12.95s10,.52,10,.52S39.34,13.43,34.3,27Z" transform="translate(23.71 9.76)"/><path class="cls-26" d="M2.62,86h8.54l4.09-34.91c-11.22,1-23.07,8.8-23.07,8.8L1,81.28A42,42,0,0,1,2.62,86Z" transform="translate(23.71 9.76)"/><path class="cls-27" d="M51.27,86A57.7,57.7,0,0,1,53,80.25l4.93-20.38c-9.83-7.68-25.2-9.48-25.2-9.48L38.47,86Z" transform="translate(23.71 9.76)"/></g></g></g></g></svg>