<svg xmlns="http://www.w3.org/2000/svg" xmlns:xlink="http://www.w3.org/1999/xlink" viewBox="0 0 256.64 74.18"><defs><style>.cls-1,.cls-2{fill:none;}.cls-2,.cls-3{stroke:#163d6b;stroke-linecap:round;stroke-linejoin:round;stroke-width:1.5px;}.cls-3{fill:#d2e3ff;}.cls-4{fill:#ea0029;}.cls-5{fill:#bdd0fb;}.cls-6{fill:url(#linear-gradient);}.cls-7{fill:url(#linear-gradient-2);}.cls-8{fill:#f4f7fa;}.cls-9{fill:url(#linear-gradient-3);}.cls-10{fill:url(#linear-gradient-4);}.cls-11{fill:url(#linear-gradient-5);}.cls-12{fill:url(#linear-gradient-6);}.cls-13{fill:url(#linear-gradient-7);}.cls-14{fill:#fff;}.cls-15{clip-path:url(#clip-path);}.cls-16{fill:url(#linear-gradient-8);}.cls-17{fill:url(#linear-gradient-9);}.cls-18{fill:url(#linear-gradient-10);}.cls-19{fill:url(#linear-gradient-11);}.cls-20{fill:url(#linear-gradient-12);}.cls-21{fill:url(#linear-gradient-13);}.cls-22{fill:url(#linear-gradient-14);}.cls-23{fill:url(#linear-gradient-15);}.cls-24{fill:url(#linear-gradient-16);}.cls-25{fill:url(#linear-gradient-17);}.cls-26{fill:url(#linear-gradient-18);}.cls-27{fill:url(#linear-gradient-19);}.cls-28{fill:url(#linear-gradient-20);}.cls-29{fill:url(#linear-gradient-21);}.cls-30{fill:url(#linear-gradient-22);}.cls-31{fill:url(#linear-gradient-23);}.cls-32{fill:url(#linear-gradient-24);}.cls-33{fill:url(#linear-gradient-25);}</style><linearGradient id="linear-gradient" x1="132.25" y1="-50.45" x2="124.11" y2="-28.51" gradientUnits="userSpaceOnUse"><stop offset="0" stop-color="#ff928e"/><stop offset="1" stop-color="#fe7062"/></linearGradient><linearGradient id="linear-gradient-2" x1="111.6" y1="60.54" x2="130.37" y2="-4.87" gradientTransform="translate(-17.7 1.21) rotate(-0.14)" gradientUnits="userSpaceOnUse"><stop offset="0" stop-color="#febbba"/><stop offset="1" stop-color="#ff928e"/></linearGradient><linearGradient id="linear-gradient-3" x1="108.34" y1="68.99" x2="127.12" y2="3.58" gradientTransform="matrix(1, -0.01, 0, 1, -15.68, -5.45)" xlink:href="#linear-gradient-2"/><linearGradient id="linear-gradient-4" x1="109.03" y1="69.19" x2="127.81" y2="3.78" gradientTransform="matrix(1, -0.01, 0, 1, -15.68, -5.45)" xlink:href="#linear-gradient-2"/><linearGradient id="linear-gradient-5" x1="109.72" y1="69.39" x2="128.49" y2="3.98" gradientTransform="matrix(1, -0.01, 0, 1, -15.57, -5.85)" xlink:href="#linear-gradient-2"/><linearGradient id="linear-gradient-6" x1="132.3" y1="-50.43" x2="124.16" y2="-28.49" xlink:href="#linear-gradient"/><linearGradient id="linear-gradient-7" x1="111.63" y1="60.55" x2="130.41" y2="-4.86" xlink:href="#linear-gradient-2"/><clipPath id="clip-path"><rect class="cls-1" x="8.48" y="13.43" width="41.67" height="44.98" rx="12"/></clipPath><linearGradient id="linear-gradient-8" x1="43.21" y1="36.19" x2="49.44" y2="56.97" gradientUnits="userSpaceOnUse"><stop offset="0" stop-color="#09005d"/><stop offset="1" stop-color="#1a0f91"/></linearGradient><linearGradient id="linear-gradient-9" x1="7.72" y1="42.78" x2="14.04" y2="63.86" xlink:href="#linear-gradient-8"/><linearGradient id="linear-gradient-10" x1="74.58" y1="-71.85" x2="66.44" y2="-49.91" xlink:href="#linear-gradient"/><linearGradient id="linear-gradient-11" x1="28.82" y1="35.5" x2="29.77" y2="51.37" gradientTransform="matrix(1, 0, 0, 1, 0, 0)" xlink:href="#linear-gradient-2"/><linearGradient id="linear-gradient-12" x1="26.96" y1="22.83" x2="40.25" y2="40.55" gradientTransform="matrix(1, 0, 0, 1, 0, 0)" xlink:href="#linear-gradient-2"/><linearGradient id="linear-gradient-13" x1="30.86" y1="19.9" x2="44.14" y2="37.63" gradientTransform="matrix(1, 0, 0, 1, 0, 0)" xlink:href="#linear-gradient-2"/><linearGradient id="linear-gradient-14" x1="22.43" y1="26.22" x2="35.71" y2="43.95" gradientTransform="matrix(1, 0, 0, 1, 0, 0)" xlink:href="#linear-gradient-2"/><linearGradient id="linear-gradient-15" x1="22.24" y1="28.94" x2="35.14" y2="28.94" xlink:href="#linear-gradient-8"/><linearGradient id="linear-gradient-16" x1="28.78" y1="33.74" x2="28.78" y2="9.83" xlink:href="#linear-gradient-8"/><linearGradient id="linear-gradient-17" x1="16.47" y1="39.22" x2="23.19" y2="61.62" xlink:href="#linear-gradient-8"/><linearGradient id="linear-gradient-18" x1="38.17" y1="33.08" x2="45.52" y2="57.59" xlink:href="#linear-gradient-8"/><linearGradient id="linear-gradient-19" x1="269.66" y1="-51.56" x2="261.45" y2="-29.45" xlink:href="#linear-gradient"/><linearGradient id="linear-gradient-20" x1="248.7" y1="60.63" x2="267.63" y2="-5.29" xlink:href="#linear-gradient-2"/><linearGradient id="linear-gradient-21" x1="245.14" y1="70.28" x2="264.06" y2="4.36" gradientTransform="matrix(1, -0.01, 0, 1, -15.68, -5.45)" xlink:href="#linear-gradient-2"/><linearGradient id="linear-gradient-22" x1="245.83" y1="70.48" x2="264.75" y2="4.56" gradientTransform="matrix(1, -0.01, 0, 1, -15.68, -5.45)" xlink:href="#linear-gradient-2"/><linearGradient id="linear-gradient-23" x1="246.52" y1="70.67" x2="265.45" y2="4.76" gradientTransform="matrix(1, -0.01, 0, 1, -15.57, -6.31)" xlink:href="#linear-gradient-2"/><linearGradient id="linear-gradient-24" x1="269.71" y1="-51.54" x2="261.5" y2="-29.43" xlink:href="#linear-gradient"/><linearGradient id="linear-gradient-25" x1="248.74" y1="60.64" x2="267.66" y2="-5.28" xlink:href="#linear-gradient-2"/></defs><g id="Capa_2" data-name="Capa 2"><g id="Capa_1-2" data-name="Capa 1"><path class="cls-2" d="M118.59,6.76l-1.32,56-.21,8.66A2.05,2.05,0,0,1,115,73.43H3.73a2.05,2.05,0,0,1-2-2.05l-.13-8.66L.75,7.44A3.58,3.58,0,0,1,4.52,4.27L113.27,1.46a5.18,5.18,0,0,1,5.32,5.3Z"/><path class="cls-3" d="M114.34,69.64a2,2,0,0,1-2,1.92H6.39a2,2,0,0,1-2-1.92L3.54,10a3.38,3.38,0,0,1,3.6-3L110.73,4.38a5,5,0,0,1,3.62,1.41,4.8,4.8,0,0,1,1.45,3.54Z"/><path class="cls-4" d="M93.72,13.7c0,1-.55,1.79-1.17,1.79l-36.76.22c-.7,0-1.26-.86-1.26-1.9h0c0-1.05.58-1.92,1.28-1.92H92.65c.62,0,1.1.82,1.07,1.81Z"/><path class="cls-4" d="M93.32,56.16c0,1-.54,1.76-1.15,1.76l-36.25.2c-.69,0-1.24-.8-1.24-1.84h0c0-1.05.57-1.86,1.26-1.86H92.27c.61,0,1.08.75,1,1.74Z"/><path class="cls-4" d="M93.33,49.36c0,1-.55,1.75-1.16,1.75l-36.4.2c-.69,0-1.24-.78-1.24-1.83h0c0-1,.57-1.84,1.26-1.84H92.27c.61,0,1.08.73,1.06,1.72Z"/><path class="cls-4" d="M93.72,21.24a1.88,1.88,0,0,1-2,1.5L56.62,23c-1.16,0-2.1-.66-2.09-1.51v-.1c0-.84,1-1.54,2.12-1.54l35.13-.21c1.1,0,2,.65,1.94,1.47Z"/><path class="cls-4" d="M93.58,28.62a1.88,1.88,0,0,1-2,1.49l-35,.26c-1.15,0-2.08-.66-2.06-1.5v-.1c0-.84,1-1.52,2.12-1.53l35-.18c1.1,0,2,.65,1.93,1.47Z"/><path class="cls-5" d="M112.32,71.92H100.4a.16.16,0,0,1-.16-.15.15.15,0,0,1,.16-.15h11.92a2.89,2.89,0,0,0,2.7-3V32a.16.16,0,0,1,.16-.15.15.15,0,0,1,.15.15V68.64A3.2,3.2,0,0,1,112.32,71.92Z"/><path class="cls-5" d="M3.73,32a.15.15,0,0,1-.15-.15V10.59A3.71,3.71,0,0,1,7.36,6.77h9.49a.15.15,0,0,1,.15.15.15.15,0,0,1-.15.15H7.36a3.38,3.38,0,0,0-3.48,3.52V31.8A.15.15,0,0,1,3.73,32Z"/><path class="cls-6" d="M108.94,29.89,101,30a2.66,2.66,0,0,1-2.66-2.68l0-8.08A2.65,2.65,0,0,1,101,16.53l7.93.08a2.67,2.67,0,0,1,2.59,2.67l0,7.94A2.65,2.65,0,0,1,108.94,29.89Z"/><path class="cls-7" d="M108.38,29.12l-6.82.06a2.46,2.46,0,0,1-2.45-2.47l0-6.94a2.44,2.44,0,0,1,2.44-2.46l6.82.06a2.45,2.45,0,0,1,2.39,2.47l0,6.82A2.43,2.43,0,0,1,108.38,29.12Zm-6.84-11.46a2.11,2.11,0,0,0-2.11,2.12l0,6.93a2.11,2.11,0,0,0,2.11,2.12l6.82,0a2.1,2.1,0,0,0,2.05-2.12l0-6.82a2.11,2.11,0,0,0-2.06-2.13Z"/><path class="cls-8" d="M99.27,20.63l11.31.05Z"/><polygon class="cls-9" points="110.58 20.85 99.27 20.81 99.27 20.46 110.58 20.51 110.58 20.85"/><path class="cls-8" d="M99.27,23.24h0Z"/><polygon class="cls-10" points="110.59 23.42 99.27 23.41 99.27 23.07 110.58 23.08 110.59 23.42"/><path class="cls-8" d="M99.28,25.85l11.31,0Z"/><rect class="cls-11" x="99.28" y="25.66" width="11.31" height="0.34" transform="translate(-0.09 0.35) rotate(-0.19)"/><path class="cls-12" d="M106.56,27.73l-3.16,0a1.48,1.48,0,0,1-1.47-1.49l0-6a1.48,1.48,0,0,1,1.47-1.49l3.16,0A1.47,1.47,0,0,1,108,20.26l0,6A1.49,1.49,0,0,1,106.56,27.73Z"/><path class="cls-13" d="M106.56,27.9l-3.16,0a1.65,1.65,0,0,1-1.64-1.66v-6a1.63,1.63,0,0,1,1.63-1.66l3.16,0a1.66,1.66,0,0,1,1.62,1.67v6A1.64,1.64,0,0,1,106.56,27.9Zm-3.18-9a1.31,1.31,0,0,0-1.3,1.32l0,6a1.31,1.31,0,0,0,1.3,1.32l3.16,0a1.31,1.31,0,0,0,1.28-1.32v-6a1.31,1.31,0,0,0-1.29-1.32Z"/><rect class="cls-14" x="8.5" y="13.43" width="41.67" height="44.98" rx="12"/><g class="cls-15"><path class="cls-16" d="M53.83,56.65a56.74,56.74,0,0,0-4.58-13.89L44.9,57.87s.07.17.2.55l7.25,0A1.5,1.5,0,0,0,53.83,56.65Z"/><path class="cls-17" d="M16.11,58.42c.47-1.71.84-2.81.84-2.81L9.83,42.76s-1.62,1.93-3.35,13a2.26,2.26,0,0,0,2.21,2.64Z"/><path class="cls-18" d="M40.64,58.42,38.71,38.17c-8.63-3.19-19.51.38-19.51.38l-.89,19.87Z"/><path class="cls-19" d="M24.85,31.79l-.16,5.34a1.21,1.21,0,0,0,.81,1.18,10.72,10.72,0,0,0,6.88.25,1.2,1.2,0,0,0,.78-1.31l-.81-5.46Z"/><path class="cls-20" d="M22.12,22s.94,9.57,3,12c0,0,6.19.56,8.44-.75A35.47,35.47,0,0,0,35,22.13s.31-5.81-6.1-6.29C21.37,15.28,22.12,22,22.12,22Z"/><path class="cls-21" d="M34.31,25s.56-1.68,1.5-1.68-.19,4.5-1.5,4.5Z"/><path class="cls-22" d="M23,25.48s-.78-1.6-1.71-1.47.79,4.43,2.09,4.26Z"/><path class="cls-23" d="M22.24,23.23s.74,9.2,3.25,12.41a1.27,1.27,0,0,0,.92.48,29.75,29.75,0,0,0,6.41-.22,1.36,1.36,0,0,0,1-.95,11.85,11.85,0,0,0,.52-1.88c.06-1.42.39-5.38.81-10.77l-.38-.61c-.12,1.25-.88,9.19-2.09,9.37a2,2,0,0,1-.55,0c-.73-.15-.95-.73-1.46-1.11a3,3,0,0,0-3.28.16,4.19,4.19,0,0,1-1.2.92,2.37,2.37,0,0,1-.89.21c-.88,0-1.76-3.51-2.25-8.25Z"/><path class="cls-24" d="M32.44,19.64s-4.78,4.15-10,4.13c0,0-2.95-6.66,2.86-7.76s6,.31,6,.31,6.8-1.41,3.78,6.73Z"/><path class="cls-25" d="M16.09,58.42h5.12l2.45-20.93c-6.72.61-13.83,5.27-13.83,5.27L15.12,55.6A26.08,26.08,0,0,1,16.09,58.42Z"/><path class="cls-26" d="M45.26,58.42c.29-1.2.64-2.31,1-3.43l3-12.23c-5.89-4.61-15.11-5.68-15.11-5.68l3.44,21.34Z"/></g><path class="cls-2" d="M255.89,6.1l-1.33,56.39-.21,8.73a2.07,2.07,0,0,1-2.07,2.06H140.14a2.07,2.07,0,0,1-2.08-2.06l-.12-8.73-.81-55.71a3.61,3.61,0,0,1,3.81-3.19L250.53.75a5.23,5.23,0,0,1,5.36,5.35Z"/><path class="cls-3" d="M251.61,69.46a2,2,0,0,1-2,1.94H142.81a2,2,0,0,1-2-1.94L140,9.33a3.42,3.42,0,0,1,3.62-3L248,3.7a5,5,0,0,1,3.64,1.42,4.81,4.81,0,0,1,1.47,3.56Z"/><path class="cls-4" d="M230.43,55.88c0,1-.55,1.77-1.16,1.77l-36.54.21c-.69,0-1.25-.81-1.24-1.86h0c0-1.06.57-1.87,1.26-1.87h36.61c.62,0,1.09.76,1.07,1.75Z"/><path class="cls-4" d="M230.43,49c0,1-.55,1.76-1.17,1.76l-36.68.2c-.69,0-1.25-.79-1.25-1.84h0c0-1.06.58-1.86,1.27-1.86h36.76c.62,0,1.1.74,1.07,1.74Z"/><path class="cls-4" d="M230.82,20.69c-.06.82-1.88,1.5-4.07,1.51l-70.3.29c-2.32,0-4.19-.67-4.18-1.52v-.1c0-.85,1.91-1.55,4.24-1.56l70.42-.21c2.2,0,3.94.66,3.88,1.49Z"/><path class="cls-4" d="M230.69,28.11c-.06.82-1.83,1.48-4,1.48l-68.15.06c-2.25,0-4.06-.68-4-1.53V28c0-.85,1.86-1.53,4.12-1.53l68.27,0c2.13,0,3.81.67,3.75,1.49Z"/><path class="cls-5" d="M249.57,71.76h-12a.15.15,0,0,1-.15-.15.15.15,0,0,1,.15-.15h12a2.92,2.92,0,0,0,2.73-3v-37a.15.15,0,0,1,.15-.15.15.15,0,0,1,.15.15v37A3.22,3.22,0,0,1,249.57,71.76Z"/><path class="cls-5" d="M140.13,31.48a.15.15,0,0,1-.15-.15V10A3.75,3.75,0,0,1,143.8,6.1h9.55a.16.16,0,0,1,.16.15.16.16,0,0,1-.16.16H143.8A3.42,3.42,0,0,0,140.28,10V31.33A.14.14,0,0,1,140.13,31.48Z"/><path class="cls-27" d="M246.16,29.4l-8,.07a2.68,2.68,0,0,1-2.68-2.69l0-8.15a2.67,2.67,0,0,1,2.67-2.69l8,.08a2.68,2.68,0,0,1,2.6,2.7l0,8A2.65,2.65,0,0,1,246.16,29.4Z"/><path class="cls-28" d="M245.6,28.63l-6.87.06a2.47,2.47,0,0,1-2.47-2.49l0-7a2.46,2.46,0,0,1,2.46-2.48l6.87.06A2.47,2.47,0,0,1,248,19.28l0,6.87A2.45,2.45,0,0,1,245.6,28.63Zm-6.9-11.55a2.11,2.11,0,0,0-2.12,2.13l0,7a2.13,2.13,0,0,0,2.13,2.14l6.87-.05a2.11,2.11,0,0,0,2.06-2.14V19.27a2.12,2.12,0,0,0-2.08-2.14Z"/><path class="cls-8" d="M236.41,20.08l11.41.05Z"/><polygon class="cls-29" points="247.82 20.3 236.41 20.25 236.41 19.9 247.82 19.96 247.82 20.3"/><path class="cls-8" d="M236.42,22.71h0Z"/><polygon class="cls-30" points="247.82 22.88 236.42 22.88 236.42 22.53 247.82 22.54 247.82 22.88"/><path class="cls-8" d="M236.43,25.33l11.4,0Z"/><rect class="cls-31" x="236.43" y="25.14" width="11.4" height="0.34" transform="translate(-0.08 0.81) rotate(-0.19)"/><path class="cls-32" d="M243.77,27.23l-3.19,0a1.49,1.49,0,0,1-1.48-1.5l0-6.08a1.49,1.49,0,0,1,1.48-1.5l3.19,0a1.51,1.51,0,0,1,1.46,1.51l0,6A1.5,1.5,0,0,1,243.77,27.23Z"/><path class="cls-33" d="M243.77,27.4l-3.19,0a1.66,1.66,0,0,1-1.65-1.67l0-6.08A1.65,1.65,0,0,1,240.56,18l3.19,0a1.67,1.67,0,0,1,1.63,1.68v6A1.66,1.66,0,0,1,243.77,27.4Zm-3.21-9.06a1.32,1.32,0,0,0-1.31,1.33l0,6.08a1.31,1.31,0,0,0,1.31,1.32h3.19a1.32,1.32,0,0,0,1.29-1.33l0-6a1.31,1.31,0,0,0-1.29-1.33Z"/></g></g></svg>