<svg xmlns="http://www.w3.org/2000/svg" xmlns:xlink="http://www.w3.org/1999/xlink" viewBox="0 0 170.73 105.25"><defs><style>.cls-1,.cls-2{fill:none;}.cls-2,.cls-3{stroke:#163d6b;stroke-linecap:round;stroke-linejoin:round;stroke-width:1.5px;}.cls-3{fill:#d2e3ff;}.cls-4{fill:#ea0029;}.cls-5{fill:#bdd0fb;}.cls-6{fill:url(#linear-gradient);}.cls-7{fill:url(#linear-gradient-2);}.cls-8{fill:#f4f7fa;}.cls-9{fill:url(#linear-gradient-3);}.cls-10{fill:url(#linear-gradient-4);}.cls-11{fill:url(#linear-gradient-5);}.cls-12{fill:url(#linear-gradient-6);}.cls-13{fill:url(#linear-gradient-7);}.cls-14{fill:#fff;}.cls-15{clip-path:url(#clip-path);}.cls-16{fill:url(#linear-gradient-8);}.cls-17{fill:url(#linear-gradient-9);}.cls-18{fill:url(#linear-gradient-10);}.cls-19{fill:url(#linear-gradient-11);}.cls-20{fill:url(#linear-gradient-12);}.cls-21{fill:url(#linear-gradient-13);}.cls-22{fill:url(#linear-gradient-14);}.cls-23{fill:url(#linear-gradient-15);}.cls-24{fill:url(#linear-gradient-16);}.cls-25{fill:url(#linear-gradient-17);}.cls-26{fill:url(#linear-gradient-18);}.cls-27{fill:url(#Degradado_sin_nombre_11);}.cls-28{fill:url(#Degradado_sin_nombre_11-2);}.cls-29{fill:url(#Degradado_sin_nombre_11-3);}</style><linearGradient id="linear-gradient" x1="188.68" y1="-72.54" x2="177.08" y2="-41.28" gradientUnits="userSpaceOnUse"><stop offset="0" stop-color="#ff928e"/><stop offset="1" stop-color="#fe7062"/></linearGradient><linearGradient id="linear-gradient-2" x1="154.04" y1="85.93" x2="180.79" y2="-7.26" gradientTransform="translate(-20 1.37) rotate(-0.14)" gradientUnits="userSpaceOnUse"><stop offset="0" stop-color="#febbba"/><stop offset="1" stop-color="#ff928e"/></linearGradient><linearGradient id="linear-gradient-3" x1="150.43" y1="94.53" x2="177.18" y2="1.34" gradientTransform="matrix(1, -0.01, 0, 1, -18.13, -4.71)" xlink:href="#linear-gradient-2"/><linearGradient id="linear-gradient-4" x1="151.41" y1="94.81" x2="178.15" y2="1.62" gradientTransform="matrix(1, -0.01, 0, 1, -18.13, -4.71)" xlink:href="#linear-gradient-2"/><linearGradient id="linear-gradient-5" x1="152.38" y1="95.09" x2="179.13" y2="1.9" gradientTransform="matrix(1, -0.01, 0, 1, -18.13, -4.71)" xlink:href="#linear-gradient-2"/><linearGradient id="linear-gradient-6" x1="188.75" y1="-72.51" x2="177.15" y2="-41.25" xlink:href="#linear-gradient"/><linearGradient id="linear-gradient-7" x1="154.09" y1="85.95" x2="180.84" y2="-7.24" xlink:href="#linear-gradient-2"/><clipPath id="clip-path"><rect class="cls-1" x="12.34" y="18.48" width="59.37" height="64.08" rx="12"/></clipPath><linearGradient id="linear-gradient-8" x1="61.82" y1="50.91" x2="70.69" y2="80.51" gradientUnits="userSpaceOnUse"><stop offset="0" stop-color="#09005d"/><stop offset="1" stop-color="#1a0f91"/></linearGradient><linearGradient id="linear-gradient-9" x1="11.26" y1="60.29" x2="20.26" y2="90.33" xlink:href="#linear-gradient-8"/><linearGradient id="linear-gradient-10" x1="106.52" y1="-103.03" x2="94.91" y2="-71.77" xlink:href="#linear-gradient"/><linearGradient id="linear-gradient-11" x1="41.32" y1="49.92" x2="42.67" y2="72.53" gradientTransform="matrix(1, 0, 0, 1, 0, 0)" xlink:href="#linear-gradient-2"/><linearGradient id="linear-gradient-12" x1="38.67" y1="31.86" x2="57.6" y2="57.12" gradientTransform="matrix(1, 0, 0, 1, 0, 0)" xlink:href="#linear-gradient-2"/><linearGradient id="linear-gradient-13" x1="44.22" y1="27.7" x2="63.15" y2="52.96" gradientTransform="matrix(1, 0, 0, 1, 0, 0)" xlink:href="#linear-gradient-2"/><linearGradient id="linear-gradient-14" x1="32.21" y1="36.7" x2="51.14" y2="61.96" gradientTransform="matrix(1, 0, 0, 1, 0, 0)" xlink:href="#linear-gradient-2"/><linearGradient id="linear-gradient-15" x1="31.95" y1="40.58" x2="50.32" y2="40.58" xlink:href="#linear-gradient-8"/><linearGradient id="linear-gradient-16" x1="41.26" y1="47.41" x2="41.26" y2="13.34" xlink:href="#linear-gradient-8"/><linearGradient id="linear-gradient-17" x1="23.73" y1="55.22" x2="33.29" y2="87.13" xlink:href="#linear-gradient-8"/><linearGradient id="linear-gradient-18" x1="54.64" y1="46.48" x2="65.11" y2="81.4" xlink:href="#linear-gradient-8"/><radialGradient id="Degradado_sin_nombre_11" cx="52.81" cy="-37.32" r="88" gradientTransform="translate(-2.19 55.49) scale(1.35 0.48)" gradientUnits="userSpaceOnUse"><stop offset="0" stop-color="#fff"/><stop offset="0.22" stop-color="#fff" stop-opacity="0.76"/><stop offset="0.6" stop-color="#fff" stop-opacity="0.36"/><stop offset="0.87" stop-color="#fff" stop-opacity="0.1"/><stop offset="1" stop-color="#fff" stop-opacity="0"/></radialGradient><radialGradient id="Degradado_sin_nombre_11-2" cx="79.18" cy="-6.84" r="88" gradientTransform="translate(11.82 133.7) rotate(-45) scale(1.35 0.48)" xlink:href="#Degradado_sin_nombre_11"/><radialGradient id="Degradado_sin_nombre_11-3" cx="80.74" cy="-2.4" r="88" gradientTransform="translate(11.82 133.7) rotate(-45) scale(1.35 0.48)" xlink:href="#Degradado_sin_nombre_11"/></defs><g id="Capa_2" data-name="Capa 2"><g id="Capa_1-2" data-name="Capa 1"><path class="cls-2" d="M169.22,9l-1.89,79.73L167,101a2.92,2.92,0,0,1-2.93,2.91H5.58A2.93,2.93,0,0,1,2.64,101L2.47,88.7,1.33,10A5.09,5.09,0,0,1,6.7,5.43l154.94-4A7.4,7.4,0,0,1,169.22,9Z"/><path class="cls-3" d="M163.16,98.56a2.77,2.77,0,0,1-2.79,2.73H9.35a2.77,2.77,0,0,1-2.79-2.73l-1.25-85a4.83,4.83,0,0,1,5.12-4.22L158,5.58a7.12,7.12,0,0,1,5.15,2,6.84,6.84,0,0,1,2.07,5Z"/><path class="cls-4" d="M133.78,18.86c0,1.4-.78,2.55-1.66,2.56l-52.38.31c-1,0-1.79-1.22-1.79-2.71h0c0-1.5.82-2.73,1.82-2.73h52.49c.88,0,1.56,1.17,1.52,2.57Z"/><path class="cls-4" d="M133.22,79.35c0,1.4-.77,2.51-1.64,2.51l-51.65.29c-1,0-1.77-1.14-1.76-2.63h0c0-1.49.81-2.64,1.79-2.64h51.75c.87,0,1.55,1.07,1.51,2.47Z"/><path class="cls-4" d="M133.22,69.67c0,1.4-.77,2.49-1.64,2.5l-51.86.28c-1,0-1.77-1.12-1.77-2.61h0c0-1.49.81-2.63,1.8-2.63h52c.87,0,1.55,1.05,1.51,2.46Z"/><path class="cls-4" d="M133.78,29.6c0,1.17-1.33,2.13-2.89,2.14l-50,.42c-1.65,0-3-.95-3-2.16v-.13c0-1.21,1.37-2.2,3-2.21l50.05-.3c1.57,0,2.8.94,2.76,2.11Z"/><path class="cls-4" d="M133.59,40.12c-.05,1.16-1.34,2.1-2.9,2.12l-49.83.37c-1.64,0-3-.94-2.94-2.14v-.13c0-1.2,1.37-2.18,3-2.18l49.91-.26c1.56,0,2.79.92,2.74,2.09Z"/><path class="cls-5" d="M160.28,101.8h-17a.21.21,0,1,1,0-.42h17a4.13,4.13,0,0,0,3.86-4.25V44.87a.21.21,0,0,1,.21-.22.22.22,0,0,1,.22.22V97.13A4.55,4.55,0,0,1,160.28,101.8Z"/><path class="cls-5" d="M5.57,44.87a.22.22,0,0,1-.22-.22V14.43A5.31,5.31,0,0,1,10.75,9H24.26a.21.21,0,0,1,.21.22.21.21,0,0,1-.21.21H10.75a4.83,4.83,0,0,0-5,5V44.65A.22.22,0,0,1,5.57,44.87Z"/><path class="cls-6" d="M155.46,41.92l-11.3.1a3.8,3.8,0,0,1-3.8-3.8l0-11.52a3.77,3.77,0,0,1,3.78-3.8l11.31.11a3.79,3.79,0,0,1,3.68,3.81l0,11.3A3.77,3.77,0,0,1,155.46,41.92Z"/><path class="cls-7" d="M154.67,40.84l-9.71.07a3.5,3.5,0,0,1-3.5-3.51l0-9.88A3.46,3.46,0,0,1,144.92,24l9.71.08A3.5,3.5,0,0,1,158,27.61l0,9.72A3.47,3.47,0,0,1,154.67,40.84ZM144.92,24.5a3,3,0,0,0-3,3l0,9.88a3,3,0,0,0,3,3l9.71-.07a3,3,0,0,0,2.92-3l0-9.73a3,3,0,0,0-2.93-3Z"/><path class="cls-8" d="M141.68,28.74l16.12.07Z"/><polygon class="cls-9" points="157.8 29.05 141.69 28.99 141.68 28.5 157.8 28.57 157.8 29.05"/><path class="cls-8" d="M141.69,32.46h0Z"/><polygon class="cls-10" points="157.81 32.71 141.69 32.7 141.69 32.21 157.81 32.23 157.81 32.71"/><path class="cls-8" d="M141.7,36.17l16.12-.05Z"/><polygon class="cls-11" points="157.82 36.37 141.7 36.42 141.7 35.93 157.82 35.88 157.82 36.37"/><path class="cls-12" d="M152.08,38.85l-4.5,0a2.12,2.12,0,0,1-2.1-2.12l0-8.6a2.09,2.09,0,0,1,2.09-2.11l4.5,0a2.11,2.11,0,0,1,2.07,2.12l0,8.53A2.1,2.1,0,0,1,152.08,38.85Z"/><path class="cls-13" d="M152.08,39.09l-4.5,0a2.34,2.34,0,0,1-2.34-2.36l0-8.6a2.32,2.32,0,0,1,2.32-2.36l4.51,0a2.37,2.37,0,0,1,2.31,2.37l0,8.53A2.35,2.35,0,0,1,152.08,39.09Zm-4.53-12.8a1.85,1.85,0,0,0-1.85,1.87l0,8.6a1.86,1.86,0,0,0,1.86,1.87l4.5,0a1.85,1.85,0,0,0,1.82-1.88l0-8.53a1.87,1.87,0,0,0-1.83-1.88Z"/><rect class="cls-14" x="12.37" y="18.48" width="59.37" height="64.08" rx="12"/><g class="cls-15"><path class="cls-16" d="M77,80.06a81,81,0,0,0-6.52-19.8L64.22,81.79s.11.24.29.78l10.34,0A2.13,2.13,0,0,0,77,80.06Z"/><path class="cls-17" d="M23.2,82.57c.68-2.43,1.21-4,1.21-4L14.26,60.26S12,63,9.48,78.81a3.22,3.22,0,0,0,3.16,3.76Z"/><path class="cls-18" d="M58.15,82.57,55.4,53.73c-12.29-4.54-27.79.54-27.79.54l-1.27,28.3Z"/><path class="cls-19" d="M35.67,44.63l-.23,7.61a1.71,1.71,0,0,0,1.15,1.68c1.95.69,6,1.73,9.79.37a1.74,1.74,0,0,0,1.12-1.88l-1.15-7.78Z"/><path class="cls-20" d="M31.77,30.73s1.34,13.63,4.28,17.11c0,0,8.82.8,12-1.07a50.86,50.86,0,0,0,2-15.9s.44-8.27-8.69-8.95C30.7,21.11,31.77,30.73,31.77,30.73Z"/><path class="cls-21" d="M49.14,35s.8-2.41,2.14-2.41S51,39,49.14,39Z"/><path class="cls-22" d="M33,35.64s-1.12-2.27-2.44-2.09,1.13,6.32,3,6.06Z"/><path class="cls-23" d="M32,32.44S33,45.54,36.58,50.12a1.76,1.76,0,0,0,1.3.69c1.83.09,6.5.27,9.13-.31a2,2,0,0,0,1.42-1.36,18.54,18.54,0,0,0,.74-2.68c.09-2,.55-7.66,1.15-15.35l-.54-.86c-.17,1.77-1.26,13.09-3,13.35a2.7,2.7,0,0,1-.77,0c-1.05-.21-1.37-1-2.1-1.57a4.19,4.19,0,0,0-4.67.23,5.82,5.82,0,0,1-1.7,1.31,3.54,3.54,0,0,1-1.27.3c-1.26-.05-2.51-5-3.21-11.75Z"/><path class="cls-24" d="M46.47,27.33s-6.81,5.91-14.23,5.89c0,0-4.21-9.5,4.08-11.07s8.55.45,8.55.45,9.68-2,5.37,9.59Z"/><path class="cls-25" d="M23.18,82.57h7.29L34,52.75c-9.58.87-19.71,7.51-19.71,7.51l7.54,18.3A36.52,36.52,0,0,1,23.18,82.57Z"/><path class="cls-26" d="M64.74,82.57c.42-1.71.91-3.28,1.47-4.89l4.22-17.42C62,53.7,48.89,52.17,48.89,52.17l4.91,30.4Z"/></g><path class="cls-27" d="M169.07,57.66a4.68,4.68,0,0,1,.29-1.64.33.33,0,0,0,0-.1V56l0-.06a5.79,5.79,0,0,1,0-.84c-2-11.13.06-22.56,1-33.73.15-1.87.24-3.75.29-5.62-10.94-6.29-26.46-11.48-44.9-15-3,.13-6.07.31-9.1.48-5.72.32-11.3,0-17,.05-11.91,0-23.93.77-35.83,1.19-12.36.43-24.72.65-37.08,1.09-6.07.22-12.23.17-18.29.63A24.46,24.46,0,0,0,.46,6C.36,8.82.4,11.67.26,14.51.19,15.73.1,17,0,18.16c.13,3,.51,6,.43,9C.4,28,.34,28.92.26,29.8a5.86,5.86,0,0,1,.12,2A5.68,5.68,0,0,1,.19,34,4.12,4.12,0,0,1,.66,38c-.93,2.59-.06,5.6,0,8.31C.8,50,.57,53.6.61,57.22c.05,5,.2,9.86-.08,14.75,19.4,4.86,43.09,7.71,68.69,7.71,42,0,79-7.7,100.13-19.31A14.57,14.57,0,0,1,169.07,57.66Z"/><path class="cls-28" d="M170.56,4.43c-.46-.53-.93-1.07-1.43-1.59A14.11,14.11,0,0,0,166.06.4c-5-.43-9.94-.41-15-.39-5.66,0-11.14,1.05-16.76.51-5.88,0-11.76.37-17.63.7-5.72.32-11.3,0-17,.05s-11.32.19-17,.42A322.1,322.1,0,0,0,55.52,26C29.25,52.26,10.05,80,1.28,102a5.39,5.39,0,0,1,1.78,2.67c0,.09,0,.17.07.26,6.55-.63,13.39.18,19.93.23,7.07.06,14.15,0,21.22,0l.32,0c8.32-.67,17,.13,25.39,0,7.71-.09,15.86-.87,23.6-.32,7.13-6,14.28-12.49,21.33-19.54,27.81-27.81,47.7-57.23,55.68-79.89C170.59,5.14,170.57,4.79,170.56,4.43Z"/><path class="cls-29" d="M170.56,4.44c-.46-.54-.93-1.08-1.43-1.6A14.11,14.11,0,0,0,166.06.4c-5-.43-9.94-.41-15-.39-5.66,0-11.14,1.05-16.76.51-5.88,0-11.76.37-17.63.7-5.72.32-11.3,0-17,.05-4.61,0-9.23.13-13.86.3A323.58,323.58,0,0,0,58.52,26C31.08,53.43,11.35,82.43,3.17,105c6.53-.62,13.37.19,19.89.24,7.07.06,14.15,0,21.22,0l.32,0c8.32-.67,17,.13,25.39,0s17.3-1,25.64-.16l.64.11c7.23-6,14.49-12.65,21.65-19.81,24.92-24.92,43.48-51.13,52.81-72.61C170.74,10,170.67,7.21,170.56,4.44Z"/></g></g></svg>