<svg xmlns="http://www.w3.org/2000/svg" xmlns:xlink="http://www.w3.org/1999/xlink" viewBox="0 0 119.34 73.47"><defs><style>.cls-1,.cls-2{fill:none;}.cls-2,.cls-3{stroke:#163d6b;stroke-linecap:round;stroke-linejoin:round;stroke-width:1.5px;}.cls-3{fill:#d2e3ff;}.cls-4{fill:#ea0029;}.cls-5{fill:#bdd0fb;}.cls-6{fill:url(#linear-gradient);}.cls-7{fill:url(#linear-gradient-2);}.cls-8{fill:#f4f7fa;}.cls-9{fill:url(#linear-gradient-3);}.cls-10{fill:url(#linear-gradient-4);}.cls-11{fill:url(#linear-gradient-5);}.cls-12{fill:url(#linear-gradient-6);}.cls-13{fill:url(#linear-gradient-7);}.cls-14{fill:#fff;}.cls-15{clip-path:url(#clip-path);}.cls-16{fill:url(#linear-gradient-8);}.cls-17{fill:url(#linear-gradient-9);}.cls-18{fill:url(#linear-gradient-10);}.cls-19{fill:url(#linear-gradient-11);}.cls-20{fill:url(#linear-gradient-12);}.cls-21{fill:url(#linear-gradient-13);}.cls-22{fill:url(#linear-gradient-14);}.cls-23{fill:url(#linear-gradient-15);}.cls-24{fill:url(#linear-gradient-16);}.cls-25{fill:url(#linear-gradient-17);}.cls-26{fill:url(#linear-gradient-18);}</style><linearGradient id="linear-gradient" x1="132.25" y1="-51.16" x2="124.11" y2="-29.22" gradientUnits="userSpaceOnUse"><stop offset="0" stop-color="#ff928e"/><stop offset="1" stop-color="#fe7062"/></linearGradient><linearGradient id="linear-gradient-2" x1="111.6" y1="59.83" x2="130.37" y2="-5.58" gradientTransform="translate(-17.7 1.21) rotate(-0.14)" gradientUnits="userSpaceOnUse"><stop offset="0" stop-color="#febbba"/><stop offset="1" stop-color="#ff928e"/></linearGradient><linearGradient id="linear-gradient-3" x1="108.34" y1="68.29" x2="127.12" y2="2.88" gradientTransform="matrix(1, -0.01, 0, 1, -15.68, -5.45)" xlink:href="#linear-gradient-2"/><linearGradient id="linear-gradient-4" x1="109.03" y1="68.48" x2="127.81" y2="3.07" gradientTransform="matrix(1, -0.01, 0, 1, -15.68, -5.45)" xlink:href="#linear-gradient-2"/><linearGradient id="linear-gradient-5" x1="109.72" y1="68.68" x2="128.49" y2="3.27" gradientTransform="matrix(1, -0.01, 0, 1, -15.57, -5.85)" xlink:href="#linear-gradient-2"/><linearGradient id="linear-gradient-6" x1="132.3" y1="-51.14" x2="124.16" y2="-29.2" xlink:href="#linear-gradient"/><linearGradient id="linear-gradient-7" x1="111.63" y1="59.84" x2="130.41" y2="-5.57" xlink:href="#linear-gradient-2"/><clipPath id="clip-path"><rect class="cls-1" x="8.48" y="12.73" width="41.67" height="44.98" rx="12"/></clipPath><linearGradient id="linear-gradient-8" x1="43.21" y1="35.49" x2="49.44" y2="56.26" gradientUnits="userSpaceOnUse"><stop offset="0" stop-color="#09005d"/><stop offset="1" stop-color="#1a0f91"/></linearGradient><linearGradient id="linear-gradient-9" x1="7.72" y1="42.07" x2="14.04" y2="63.16" xlink:href="#linear-gradient-8"/><linearGradient id="linear-gradient-10" x1="74.58" y1="-72.56" x2="66.44" y2="-50.62" xlink:href="#linear-gradient"/><linearGradient id="linear-gradient-11" x1="28.82" y1="34.79" x2="29.77" y2="50.66" gradientTransform="matrix(1, 0, 0, 1, 0, 0)" xlink:href="#linear-gradient-2"/><linearGradient id="linear-gradient-12" x1="26.96" y1="22.12" x2="40.25" y2="39.85" gradientTransform="matrix(1, 0, 0, 1, 0, 0)" xlink:href="#linear-gradient-2"/><linearGradient id="linear-gradient-13" x1="30.86" y1="19.2" x2="44.14" y2="36.92" gradientTransform="matrix(1, 0, 0, 1, 0, 0)" xlink:href="#linear-gradient-2"/><linearGradient id="linear-gradient-14" x1="22.43" y1="25.52" x2="35.71" y2="43.24" gradientTransform="matrix(1, 0, 0, 1, 0, 0)" xlink:href="#linear-gradient-2"/><linearGradient id="linear-gradient-15" x1="22.24" y1="28.24" x2="35.14" y2="28.24" xlink:href="#linear-gradient-8"/><linearGradient id="linear-gradient-16" x1="28.78" y1="33.03" x2="28.78" y2="9.12" xlink:href="#linear-gradient-8"/><linearGradient id="linear-gradient-17" x1="16.47" y1="38.51" x2="23.19" y2="60.91" xlink:href="#linear-gradient-8"/><linearGradient id="linear-gradient-18" x1="38.17" y1="32.38" x2="45.52" y2="56.89" xlink:href="#linear-gradient-8"/></defs><g id="Capa_2" data-name="Capa 2"><g id="Capa_1-2" data-name="Capa 1"><path class="cls-2" d="M118.59,6.06l-1.32,56-.21,8.65a2.05,2.05,0,0,1-2.06,2H3.73a2.05,2.05,0,0,1-2-2L1.55,62,.75,6.74A3.58,3.58,0,0,1,4.52,3.57L113.27.75a5.19,5.19,0,0,1,5.32,5.31Z"/><path class="cls-3" d="M114.34,68.93a1.94,1.94,0,0,1-2,1.92H6.39a1.94,1.94,0,0,1-2-1.92L3.54,9.26a3.38,3.38,0,0,1,3.6-3L110.73,3.67a5,5,0,0,1,3.62,1.41,4.8,4.8,0,0,1,1.45,3.54Z"/><path class="cls-4" d="M93.72,13c0,1-.55,1.79-1.17,1.8L55.79,15c-.7,0-1.26-.86-1.26-1.91h0c0-1,.58-1.91,1.28-1.91H92.65c.62,0,1.1.82,1.07,1.8Z"/><path class="cls-4" d="M93.32,55.45c0,1-.54,1.76-1.15,1.76l-36.25.21c-.69,0-1.24-.8-1.24-1.85h0c0-1,.57-1.85,1.26-1.85H92.27c.61,0,1.08.75,1,1.73Z"/><path class="cls-4" d="M93.33,48.65c0,1-.55,1.75-1.16,1.76l-36.4.2c-.69,0-1.24-.79-1.24-1.84h0c0-1,.57-1.84,1.26-1.84H92.27c.61,0,1.08.74,1.06,1.72Z"/><path class="cls-4" d="M93.72,20.53a1.87,1.87,0,0,1-2,1.5l-35.07.3c-1.16,0-2.1-.67-2.09-1.52v-.09c0-.85,1-1.54,2.12-1.55L91.78,19c1.1,0,2,.66,1.94,1.48Z"/><path class="cls-4" d="M93.58,27.91a1.88,1.88,0,0,1-2,1.49l-35,.26c-1.15,0-2.08-.66-2.06-1.5v-.09c0-.84,1-1.53,2.12-1.53l35-.19c1.1,0,2,.66,1.93,1.47Z"/><path class="cls-5" d="M112.32,71.21H100.4a.15.15,0,1,1,0-.3h11.92a2.88,2.88,0,0,0,2.7-3V31.25a.15.15,0,0,1,.16-.15.15.15,0,0,1,.15.15V67.93A3.2,3.2,0,0,1,112.32,71.21Z"/><path class="cls-5" d="M3.73,31.25a.15.15,0,0,1-.15-.15V9.89A3.72,3.72,0,0,1,7.36,6.06h9.49a.15.15,0,0,1,0,.3H7.36A3.39,3.39,0,0,0,3.88,9.89V31.1A.15.15,0,0,1,3.73,31.25Z"/><path class="cls-6" d="M108.94,29.18l-7.94.07a2.66,2.66,0,0,1-2.66-2.67l0-8.09A2.63,2.63,0,0,1,101,15.83l7.93.08a2.66,2.66,0,0,1,2.59,2.67l0,7.93A2.64,2.64,0,0,1,108.94,29.18Z"/><path class="cls-7" d="M108.38,28.42l-6.82,0A2.46,2.46,0,0,1,99.11,26l0-6.93a2.43,2.43,0,0,1,2.44-2.46l6.82.06a2.44,2.44,0,0,1,2.39,2.46l0,6.82A2.44,2.44,0,0,1,108.38,28.42ZM101.54,17a2.11,2.11,0,0,0-2.11,2.12l0,6.93a2.11,2.11,0,0,0,2.11,2.13l6.82-.05A2.1,2.1,0,0,0,110.43,26l0-6.83A2.1,2.1,0,0,0,108.35,17Z"/><path class="cls-8" d="M99.27,19.93l11.31.05Z"/><polygon class="cls-9" points="110.58 20.15 99.27 20.1 99.27 19.76 110.58 19.81 110.58 20.15"/><path class="cls-8" d="M99.27,22.54h0Z"/><polygon class="cls-10" points="110.59 22.71 99.27 22.71 99.27 22.36 110.58 22.37 110.59 22.71"/><path class="cls-8" d="M99.28,25.14l11.31,0Z"/><rect class="cls-11" x="99.28" y="24.96" width="11.31" height="0.34" transform="translate(-0.08 0.35) rotate(-0.19)"/><path class="cls-12" d="M106.56,27l-3.16,0a1.47,1.47,0,0,1-1.47-1.48l0-6A1.47,1.47,0,0,1,103.38,18l3.16,0A1.48,1.48,0,0,1,108,19.55l0,6A1.47,1.47,0,0,1,106.56,27Z"/><path class="cls-13" d="M106.56,27.19l-3.16,0a1.64,1.64,0,0,1-1.64-1.65v-6a1.62,1.62,0,0,1,1.63-1.65l3.16,0a1.65,1.65,0,0,1,1.62,1.66v6A1.63,1.63,0,0,1,106.56,27.19Zm-3.18-9a1.29,1.29,0,0,0-1.3,1.31l0,6a1.31,1.31,0,0,0,1.3,1.32l3.16,0a1.3,1.3,0,0,0,1.28-1.32v-6a1.31,1.31,0,0,0-1.29-1.32Z"/><rect class="cls-14" x="8.5" y="12.73" width="41.67" height="44.98" rx="12"/><g class="cls-15"><path class="cls-16" d="M53.83,56a56.72,56.72,0,0,0-4.58-13.9L44.9,57.16s.07.17.2.55h7.25A1.5,1.5,0,0,0,53.83,56Z"/><path class="cls-17" d="M16.11,57.71c.47-1.7.84-2.8.84-2.8L9.83,42.05S8.21,44,6.48,55.07a2.26,2.26,0,0,0,2.21,2.64Z"/><path class="cls-18" d="M40.64,57.71,38.71,37.47c-8.63-3.19-19.51.38-19.51.38l-.89,19.86Z"/><path class="cls-19" d="M24.85,31.08l-.16,5.34a1.2,1.2,0,0,0,.81,1.18,10.64,10.64,0,0,0,6.88.26,1.22,1.22,0,0,0,.78-1.32l-.81-5.46Z"/><path class="cls-20" d="M22.12,21.33s.94,9.56,3,12c0,0,6.19.56,8.44-.75A35.4,35.4,0,0,0,35,21.42s.31-5.8-6.1-6.28C21.37,14.58,22.12,21.33,22.12,21.33Z"/><path class="cls-21" d="M34.31,24.33s.56-1.69,1.5-1.69-.19,4.5-1.5,4.5Z"/><path class="cls-22" d="M23,24.77s-.78-1.6-1.71-1.47.79,4.44,2.09,4.26Z"/><path class="cls-23" d="M22.24,22.52s.74,9.2,3.25,12.41a1.25,1.25,0,0,0,.92.49,30.4,30.4,0,0,0,6.41-.22,1.36,1.36,0,0,0,1-1,12.15,12.15,0,0,0,.52-1.88c.06-1.43.39-5.38.81-10.78l-.38-.6c-.12,1.24-.88,9.18-2.09,9.37a1.8,1.8,0,0,1-.55,0c-.73-.15-.95-.73-1.46-1.1a2.91,2.91,0,0,0-3.28.16,4.57,4.57,0,0,1-1.2.92,2.6,2.6,0,0,1-.89.21c-.88,0-1.76-3.52-2.25-8.25Z"/><path class="cls-24" d="M32.44,18.94s-4.78,4.14-10,4.13c0,0-2.95-6.66,2.86-7.77s6,.32,6,.32,6.8-1.41,3.78,6.73Z"/><path class="cls-25" d="M16.09,57.71h5.12l2.45-20.93c-6.72.61-13.83,5.27-13.83,5.27l5.29,12.84A26.84,26.84,0,0,1,16.09,57.71Z"/><path class="cls-26" d="M45.26,57.71c.29-1.2.64-2.3,1-3.43l3-12.23c-5.89-4.6-15.11-5.68-15.11-5.68l3.44,21.34Z"/></g></g></g></svg>