<svg xmlns="http://www.w3.org/2000/svg" xmlns:xlink="http://www.w3.org/1999/xlink" viewBox="0 0 169.39 104.04"><defs><style>.cls-1,.cls-2{fill:none;}.cls-2,.cls-3{stroke:#163d6b;stroke-linecap:round;stroke-linejoin:round;stroke-width:1.5px;}.cls-3{fill:#d2e3ff;}.cls-4{fill:#ea0029;}.cls-5{fill:#bdd0fb;}.cls-6{fill:url(#linear-gradient);}.cls-7{fill:url(#linear-gradient-2);}.cls-8{fill:#f4f7fa;}.cls-9{fill:url(#linear-gradient-3);}.cls-10{fill:url(#linear-gradient-4);}.cls-11{fill:url(#linear-gradient-5);}.cls-12{fill:url(#linear-gradient-6);}.cls-13{fill:url(#linear-gradient-7);}.cls-14{fill:#fff;}.cls-15{clip-path:url(#clip-path);}.cls-16{fill:url(#linear-gradient-8);}.cls-17{fill:url(#linear-gradient-9);}.cls-18{fill:url(#linear-gradient-10);}.cls-19{fill:url(#linear-gradient-11);}.cls-20{fill:url(#linear-gradient-12);}.cls-21{fill:url(#linear-gradient-13);}.cls-22{fill:url(#linear-gradient-14);}.cls-23{fill:url(#linear-gradient-15);}.cls-24{fill:url(#linear-gradient-16);}.cls-25{fill:url(#linear-gradient-17);}.cls-26{fill:url(#linear-gradient-18);}</style><linearGradient id="linear-gradient" x1="188.1" y1="-73.2" x2="176.5" y2="-41.94" gradientUnits="userSpaceOnUse"><stop offset="0" stop-color="#ff928e"/><stop offset="1" stop-color="#fe7062"/></linearGradient><linearGradient id="linear-gradient-2" x1="152.97" y1="86.35" x2="179.72" y2="-6.84" gradientTransform="translate(-19.51 0.28) rotate(-0.14)" gradientUnits="userSpaceOnUse"><stop offset="0" stop-color="#febbba"/><stop offset="1" stop-color="#ff928e"/></linearGradient><linearGradient id="linear-gradient-3" x1="148.36" y1="98.87" x2="175.11" y2="5.68" gradientTransform="matrix(1, -0.01, 0, 1, -16.64, -9.74)" xlink:href="#linear-gradient-2"/><linearGradient id="linear-gradient-4" x1="149.34" y1="99.15" x2="176.09" y2="5.97" gradientTransform="matrix(1, -0.01, 0, 1, -16.64, -9.74)" xlink:href="#linear-gradient-2"/><linearGradient id="linear-gradient-5" x1="150.32" y1="99.43" x2="177.07" y2="6.25" gradientTransform="matrix(1, -0.01, 0, 1, -16.64, -9.74)" xlink:href="#linear-gradient-2"/><linearGradient id="linear-gradient-6" x1="188.18" y1="-73.18" x2="176.57" y2="-41.92" xlink:href="#linear-gradient"/><linearGradient id="linear-gradient-7" x1="153.02" y1="86.36" x2="179.77" y2="-6.82" xlink:href="#linear-gradient-2"/><clipPath id="clip-path"><rect class="cls-1" x="11.77" y="17.82" width="59.37" height="64.08" rx="12"/></clipPath><linearGradient id="linear-gradient-8" x1="61.25" y1="50.24" x2="70.12" y2="79.84" gradientUnits="userSpaceOnUse"><stop offset="0" stop-color="#09005d"/><stop offset="1" stop-color="#1a0f91"/></linearGradient><linearGradient id="linear-gradient-9" x1="10.68" y1="59.62" x2="19.69" y2="89.66" xlink:href="#linear-gradient-8"/><linearGradient id="linear-gradient-10" x1="105.94" y1="-103.7" x2="94.34" y2="-72.44" xlink:href="#linear-gradient"/><linearGradient id="linear-gradient-11" x1="40.75" y1="49.25" x2="42.1" y2="71.87" gradientTransform="matrix(1, 0, 0, 1, 0, 0)" xlink:href="#linear-gradient-2"/><linearGradient id="linear-gradient-12" x1="38.09" y1="31.2" x2="57.02" y2="56.45" gradientTransform="matrix(1, 0, 0, 1, 0, 0)" xlink:href="#linear-gradient-2"/><linearGradient id="linear-gradient-13" x1="43.65" y1="27.03" x2="62.58" y2="52.29" gradientTransform="matrix(1, 0, 0, 1, 0, 0)" xlink:href="#linear-gradient-2"/><linearGradient id="linear-gradient-14" x1="31.63" y1="36.04" x2="50.56" y2="61.29" gradientTransform="matrix(1, 0, 0, 1, 0, 0)" xlink:href="#linear-gradient-2"/><linearGradient id="linear-gradient-15" x1="31.37" y1="39.91" x2="49.75" y2="39.91" xlink:href="#linear-gradient-8"/><linearGradient id="linear-gradient-16" x1="40.69" y1="46.74" x2="40.69" y2="12.68" xlink:href="#linear-gradient-8"/><linearGradient id="linear-gradient-17" x1="23.15" y1="54.55" x2="32.72" y2="86.46" xlink:href="#linear-gradient-8"/><linearGradient id="linear-gradient-18" x1="54.06" y1="45.81" x2="64.53" y2="80.73" xlink:href="#linear-gradient-8"/></defs><g id="Capa_2" data-name="Capa 2"><g id="Capa_1-2" data-name="Capa 1"><path class="cls-2" d="M168.64,8.31,166.76,88l-.29,12.33a2.94,2.94,0,0,1-2.94,2.92H5a2.93,2.93,0,0,1-2.93-2.92L1.89,88,.75,9.28A5.11,5.11,0,0,1,6.13,4.76l154.93-4a7.4,7.4,0,0,1,7.58,7.56Z"/><path class="cls-3" d="M162.59,97.89a2.77,2.77,0,0,1-2.79,2.74H8.78A2.77,2.77,0,0,1,6,97.89l-1.26-85A4.83,4.83,0,0,1,9.85,8.66L157.44,4.92a7.1,7.1,0,0,1,5.16,2,6.8,6.8,0,0,1,2.06,5Z"/><path class="cls-4" d="M133.21,18.19c0,1.4-.79,2.55-1.67,2.56l-52.38.31c-1,0-1.79-1.22-1.78-2.71h0c0-1.49.82-2.73,1.81-2.73h52.49c.88,0,1.57,1.17,1.53,2.57Z"/><path class="cls-4" d="M132.64,78.69c0,1.4-.77,2.5-1.64,2.51l-51.65.28c-1,0-1.76-1.13-1.76-2.62h0c0-1.49.81-2.65,1.79-2.65h51.76c.87,0,1.54,1.07,1.5,2.48Z"/><path class="cls-4" d="M132.65,69c0,1.4-.78,2.49-1.65,2.5l-51.86.28c-1,0-1.77-1.12-1.76-2.61h0c0-1.49.81-2.63,1.79-2.63h52c.88,0,1.56,1.06,1.52,2.46Z"/><path class="cls-4" d="M133.2,28.93c0,1.17-1.33,2.13-2.89,2.14l-50,.42c-1.65,0-3-.95-3-2.16V29.2c0-1.21,1.36-2.2,3-2.21l50.06-.29c1.56,0,2.79.93,2.76,2.1Z"/><path class="cls-4" d="M133,39.45c0,1.16-1.34,2.11-2.89,2.12L80.28,42c-1.64,0-3-1-2.94-2.14v-.14c0-1.19,1.37-2.17,3-2.18l49.92-.26c1.56,0,2.78.93,2.74,2.09Z"/><path class="cls-5" d="M159.71,101.14h-17a.22.22,0,0,1-.22-.22.21.21,0,0,1,.22-.21h17a4.11,4.11,0,0,0,3.85-4.24V44.2a.22.22,0,1,1,.43,0V96.47A4.55,4.55,0,0,1,159.71,101.14Z"/><path class="cls-5" d="M5,44.2A.21.21,0,0,1,4.78,44V13.77a5.3,5.3,0,0,1,5.39-5.45H23.68a.21.21,0,0,1,.22.21.22.22,0,0,1-.22.22H10.17a4.82,4.82,0,0,0-5,5V44A.22.22,0,0,1,5,44.2Z"/><path class="cls-6" d="M154.89,41.25l-11.31.1a3.78,3.78,0,0,1-3.79-3.8l0-11.52a3.77,3.77,0,0,1,3.77-3.8l11.31.11a3.79,3.79,0,0,1,3.68,3.81l0,11.3A3.74,3.74,0,0,1,154.89,41.25Z"/><path class="cls-7" d="M154.1,40.17l-9.72.07a3.48,3.48,0,0,1-3.49-3.51l0-9.88a3.48,3.48,0,0,1,3.48-3.51l9.71.09a3.49,3.49,0,0,1,3.41,3.51l0,9.72A3.46,3.46,0,0,1,154.1,40.17Zm-9.76-16.34a3,3,0,0,0-3,3l0,9.88a3,3,0,0,0,3,3l9.71-.07a3,3,0,0,0,2.92-3l0-9.72a3,3,0,0,0-2.93-3Z"/><path class="cls-8" d="M141.11,28.07l16.12.07Z"/><polygon class="cls-9" points="157.23 28.39 141.11 28.32 141.11 27.83 157.23 27.9 157.23 28.39"/><path class="cls-8" d="M141.12,31.79h0Z"/><polygon class="cls-10" points="157.24 32.04 141.12 32.04 141.12 31.54 157.24 31.56 157.24 32.04"/><path class="cls-8" d="M141.13,35.51l16.12,0Z"/><polygon class="cls-11" points="157.25 35.7 141.13 35.75 141.13 35.26 157.25 35.22 157.25 35.7"/><path class="cls-12" d="M151.5,38.18l-4.5,0a2.12,2.12,0,0,1-2.1-2.12l0-8.6A2.09,2.09,0,0,1,147,25.38l4.5,0a2.11,2.11,0,0,1,2.07,2.13l0,8.52A2.09,2.09,0,0,1,151.5,38.18Z"/><path class="cls-13" d="M151.51,38.43l-4.51,0a2.35,2.35,0,0,1-2.34-2.36l0-8.6A2.34,2.34,0,0,1,147,25.13l4.5,0a2.36,2.36,0,0,1,2.31,2.37l0,8.52A2.34,2.34,0,0,1,151.51,38.43ZM147,25.62a1.86,1.86,0,0,0-1.85,1.87l0,8.6A1.87,1.87,0,0,0,147,38l4.5,0a1.87,1.87,0,0,0,1.83-1.88l0-8.53a1.88,1.88,0,0,0-1.84-1.88Z"/><rect class="cls-14" x="11.79" y="17.82" width="59.37" height="64.08" rx="12"/><g class="cls-15"><path class="cls-16" d="M76.37,79.39A80.32,80.32,0,0,0,69.85,59.6l-6.2,21.52s.1.25.28.79l10.34,0A2.14,2.14,0,0,0,76.37,79.39Z"/><path class="cls-17" d="M22.63,81.91c.68-2.43,1.2-4,1.2-4L13.68,59.6s-2.3,2.74-4.77,18.54a3.22,3.22,0,0,0,3.15,3.77Z"/><path class="cls-18" d="M57.58,81.91,54.83,53.06C42.54,48.52,27,53.6,27,53.6L25.76,81.91Z"/><path class="cls-19" d="M35.09,44l-.23,7.61A1.73,1.73,0,0,0,36,53.26c2,.68,6,1.73,9.8.36a1.72,1.72,0,0,0,1.11-1.87L45.78,44Z"/><path class="cls-20" d="M31.2,30.07s1.33,13.63,4.27,17.1c0,0,8.82.8,12-1.07a50.62,50.62,0,0,0,2-15.9s.44-8.27-8.68-8.95C30.13,20.45,31.2,30.07,31.2,30.07Z"/><path class="cls-21" d="M48.57,34.34s.8-2.4,2.13-2.4-.26,6.41-2.13,6.41Z"/><path class="cls-22" d="M32.41,35S31.3,32.7,30,32.88,31.1,39.2,33,39Z"/><path class="cls-23" d="M31.37,31.77S32.42,44.88,36,49.45a1.78,1.78,0,0,0,1.31.69,42.6,42.6,0,0,0,9.13-.31,2,2,0,0,0,1.41-1.36,19,19,0,0,0,.75-2.67c.08-2,.55-7.67,1.15-15.35l-.55-.87c-.17,1.78-1.25,13.09-3,13.35a2.49,2.49,0,0,1-.77,0c-1.05-.21-1.37-1-2.09-1.57a4.16,4.16,0,0,0-4.67.23A6.2,6.2,0,0,1,37,42.87a3.25,3.25,0,0,1-1.26.3c-1.26-.05-2.52-5-3.22-11.75Z"/><path class="cls-24" d="M45.89,26.66s-6.8,5.91-14.22,5.89c0,0-4.21-9.49,4.07-11.07s8.55.45,8.55.45,9.69-2,5.38,9.59Z"/><path class="cls-25" d="M22.6,81.91h7.29l3.5-29.83C23.81,53,13.68,59.6,13.68,59.6l7.54,18.29A36.68,36.68,0,0,1,22.6,81.91Z"/><path class="cls-26" d="M64.17,81.91A48,48,0,0,1,65.64,77L69.85,59.6C61.46,53,48.32,51.5,48.32,51.5l4.91,30.41Z"/></g></g></g></svg>