<svg xmlns="http://www.w3.org/2000/svg" viewBox="0 0 88.73 120.26"><defs><style>.cls-1{fill:none;}.cls-1,.cls-2{stroke:#163d6b;}.cls-1,.cls-2,.cls-3{stroke-linecap:round;stroke-linejoin:round;stroke-width:1.5px;}.cls-2,.cls-3{fill:#e8505b;}.cls-3{stroke:#fff;}.cls-4{fill:#d2e3ff;}</style></defs><g id="Capa_2" data-name="Capa 2"><g id="Capa_1-2" data-name="Capa 1"><path class="cls-1" d="M6.1.75,62.49,2.08l23.43.21A2.07,2.07,0,0,1,88,4.37V116.5a2.07,2.07,0,0,1-2.06,2.08l-23.43.12-55.71.81a3.6,3.6,0,0,1-3.19-3.8L.75,6.11A5.24,5.24,0,0,1,6.1.75Z"/><path class="cls-2" d="M83.35,5a2,2,0,0,1,1.93,2V113.83a2,2,0,0,1-1.93,2l-74,.88a3.41,3.41,0,0,1-3-3.62L3.7,8.67A5,5,0,0,1,5.12,5,4.76,4.76,0,0,1,8.68,3.57Z"/><circle class="cls-3" cx="45.32" cy="50.72" r="24.09"/><rect class="cls-4" x="21.23" y="87.06" width="50.63" height="3.27" rx="1.63"/></g></g></svg>