<svg xmlns="http://www.w3.org/2000/svg" viewBox="0 0 56.26 74.92"><defs><style>.cls-1{fill:#183d6b;}.cls-2{fill:#ea0029;}.cls-3{fill:none;}.cls-4{fill:#fff;}</style></defs><g id="Capa_2" data-name="Capa 2"><g id="Capa_1-2" data-name="Capa 1"><path class="cls-1" d="M37.11,74.92H1.18A1.18,1.18,0,0,1,0,73.74V1.18A1.18,1.18,0,0,1,1.18,0h53.9a1.14,1.14,0,0,1,.83.35,1.18,1.18,0,0,1,.35.83l-.21,54.63a1.15,1.15,0,0,1-.34.82L38,74.57A1.19,1.19,0,0,1,37.11,74.92ZM2.36,72.56H36.62L53.69,55.32l.2-53H2.36Z"/><path class="cls-1" d="M37.11,74.92a1.2,1.2,0,0,1-.45-.09,1.18,1.18,0,0,1-.73-1.09V64.82c0-7,3.11-10.2,10.09-10.2h8.85a1.18,1.18,0,0,1,.84,2L38,74.57A1.18,1.18,0,0,1,37.11,74.92ZM46,57c-5.64,0-7.73,2.13-7.73,7.84v6.05L52.05,57Z"/><rect class="cls-1" x="1.29" y="1.18" width="53.67" height="18.15"/><circle class="cls-2" cx="27.99" cy="40.56" r="16.18"/><path class="cls-3" d="M33.87,31.68H22.1a3,3,0,0,0-3,3V46.45a3,3,0,0,0,3,3H33.87a3,3,0,0,0,3-3V34.67A3,3,0,0,0,33.87,31.68ZM22,35.39a.12.12,0,0,1,.11-.12l.36,0h0a.12.12,0,0,0,.11-.12V33.34a.12.12,0,0,1,.12-.12l.39,0a8.37,8.37,0,0,1,4.68,1.3.12.12,0,0,0,.14,0,8.45,8.45,0,0,1,4.66-1.29l.39,0a.12.12,0,0,1,.12.12v1.77a.12.12,0,0,0,.11.12h0l.36,0a.13.13,0,0,1,.11.12v1.73a.12.12,0,0,1-.12.13h-.81a.12.12,0,0,1-.12-.13v-.74a.12.12,0,0,0-.12-.12c-1,0-3,.15-4.15,1.36l0,0,0,0H27.4l-.08-.09c-1.12-1.21-3.15-1.37-4.15-1.36a.12.12,0,0,0-.12.12v.74a.12.12,0,0,1-.12.12h-.81a.12.12,0,0,1-.12-.12Zm3.82,11a.12.12,0,0,1-.12.14H25a.12.12,0,0,1-.12-.12V40.76a.38.38,0,0,0-.37-.38h-.75a.12.12,0,0,0-.12.12v5.88a.12.12,0,0,1-.12.12H23a1.83,1.83,0,0,1-1.84-1.83V38a.12.12,0,0,1,.12-.12h3.26a2.88,2.88,0,0,1,2.88,2.88v3.36a.14.14,0,0,1-.05.1l0,0-1.24,1.23A1,1,0,0,0,25.82,46.36Zm3.71.14,0,0-1.15,1.7a.44.44,0,0,1-.35.18.41.41,0,0,1-.35-.18L26.48,46.5a.53.53,0,0,1,.07-.69l.86-.86.3-.3a.42.42,0,0,1,.3-.12.44.44,0,0,1,.3.12l.25.26.91.9A.55.55,0,0,1,29.53,46.5Zm5.29-2.85a2.88,2.88,0,0,1-2.88,2.88H30.31a.13.13,0,0,1-.12-.14,1,1,0,0,0-.26-.9L28.7,44.26l-.09-.08a.11.11,0,0,1-.05-.09V40.76a2.88,2.88,0,0,1,2.88-2.88H34.7a.12.12,0,0,1,.12.12Z"/><path class="cls-3" d="M23.77,35.22a7.43,7.43,0,0,1,3.37.91.12.12,0,0,0,.18-.1v-.5a.12.12,0,0,0-.05-.1,6.66,6.66,0,0,0-3.48-1.16.12.12,0,0,0-.13.12v.7A.13.13,0,0,0,23.77,35.22Z"/><path class="cls-3" d="M28.57,36.14a7.42,7.42,0,0,1,3.36-.91.13.13,0,0,0,.12-.12v-.7a.12.12,0,0,0-.13-.12,6.67,6.67,0,0,0-3.49,1.15.13.13,0,0,0,0,.1V36A.12.12,0,0,0,28.57,36.14Z"/><path class="cls-4" d="M27.32,44.26l0,0a.14.14,0,0,0,.05-.1V40.76a2.88,2.88,0,0,0-2.88-2.88H21.27a.12.12,0,0,0-.12.12v6.67A1.83,1.83,0,0,0,23,46.5h.55a.12.12,0,0,0,.12-.12V40.5a.12.12,0,0,1,.12-.12h.75a.38.38,0,0,1,.37.38v5.62a.12.12,0,0,0,.12.12h.68a.12.12,0,0,0,.12-.14,1,1,0,0,1,.26-.87Z"/><path class="cls-4" d="M34.7,37.88H31.44a2.88,2.88,0,0,0-2.88,2.88v3.33a.11.11,0,0,0,.05.09l.09.08,1.23,1.23a1,1,0,0,1,.26.9.13.13,0,0,0,.12.14h1.63a2.88,2.88,0,0,0,2.88-2.88V38A.12.12,0,0,0,34.7,37.88Zm-2.38,5.77a.38.38,0,0,1-.38.38h-.75a.12.12,0,0,1-.12-.12V40.76a.37.37,0,0,1,.37-.37h.62a.26.26,0,0,1,.26.25Z"/><path class="cls-4" d="M28.56,44.91l-.25-.26a.44.44,0,0,0-.3-.12.42.42,0,0,0-.3.12l-.3.3-.86.86a.53.53,0,0,0-.07.69l1.18,1.73a.41.41,0,0,0,.35.18.44.44,0,0,0,.35-.18l1.15-1.7,0,0a.55.55,0,0,0-.06-.69Z"/><path class="cls-2" d="M27.4,37.71Z"/><path class="cls-2" d="M27.4,37.71Z"/><path class="cls-4" d="M33.6,35.28l-.36,0h0a.12.12,0,0,1-.11-.12V33.35a.12.12,0,0,0-.12-.12l-.39,0a8.45,8.45,0,0,0-4.66,1.29.12.12,0,0,1-.14,0,8.37,8.37,0,0,0-4.68-1.3l-.39,0a.12.12,0,0,0-.12.12v1.77a.12.12,0,0,1-.11.12h0l-.36,0a.12.12,0,0,0-.11.12v1.73a.12.12,0,0,0,.12.12h.81a.12.12,0,0,0,.12-.12v-.74a.12.12,0,0,1,.12-.12c1,0,3,.15,4.15,1.36l.08.09h.91l0,0,0,0c1.12-1.21,3.14-1.37,4.15-1.36a.12.12,0,0,1,.12.12v.74a.12.12,0,0,0,.12.13h.81a.12.12,0,0,0,.12-.13V35.4A.13.13,0,0,0,33.6,35.28ZM27.32,36a.12.12,0,0,1-.18.1,7.43,7.43,0,0,0-3.37-.91.13.13,0,0,1-.11-.13v-.7a.12.12,0,0,1,.13-.12,6.66,6.66,0,0,1,3.48,1.16.12.12,0,0,1,.05.1Zm4.73-.92a.13.13,0,0,1-.12.12,7.42,7.42,0,0,0-3.36.91.12.12,0,0,1-.18-.1v-.5a.13.13,0,0,1,0-.1,6.67,6.67,0,0,1,3.49-1.15.12.12,0,0,1,.13.12Z"/><path class="cls-4" d="M33.87,29.88H22.1a4.8,4.8,0,0,0-4.79,4.79V46.45a4.8,4.8,0,0,0,4.79,4.79H33.87a4.8,4.8,0,0,0,4.8-4.79V34.67A4.8,4.8,0,0,0,33.87,29.88Zm3,16.57a3,3,0,0,1-3,3H22.1a3,3,0,0,1-3-3V34.67a3,3,0,0,1,3-3H33.87a3,3,0,0,1,3,3Z"/></g></g></svg>