<svg xmlns="http://www.w3.org/2000/svg" viewBox="0 0 60.36 79.23"><defs><style>.cls-1{fill:#ea0029;}.cls-2{fill:#183d6b;}.cls-3{fill:#fff;}.cls-4{fill:none;}</style></defs><g id="Capa_2" data-name="Capa 2"><g id="Capa_1-2" data-name="Capa 1"><path class="cls-1" d="M19,26.06H10.15a1.18,1.18,0,0,1,0-2.35H19a1.18,1.18,0,1,1,0,2.35Z"/><path class="cls-1" d="M14.6,52a1.17,1.17,0,0,1-1.18-1.17V18.62a1.18,1.18,0,1,1,2.35,0V50.85A1.17,1.17,0,0,1,14.6,52Z"/><path class="cls-1" d="M19,36.05H10.15a1.18,1.18,0,0,1,0-2.36H19a1.18,1.18,0,1,1,0,2.36Z"/><path class="cls-1" d="M19,41H10.15a1.18,1.18,0,0,1,0-2.35H19A1.18,1.18,0,1,1,19,41Z"/><path class="cls-1" d="M19,46H10.15a1.18,1.18,0,0,1,0-2.36H19A1.18,1.18,0,0,1,19,46Z"/><path class="cls-1" d="M14.6,70.08a7.73,7.73,0,0,1-5.69-2.55,6.34,6.34,0,0,1-1.64-5L8.64,50.71a1.17,1.17,0,0,1,1.17-1h9.54a1.18,1.18,0,0,1,1.18,1L21.9,62.55a6.35,6.35,0,0,1-1.65,5A7.71,7.71,0,0,1,14.6,70.08ZM10.86,52,9.61,62.82A4,4,0,0,0,10.67,66a5.23,5.23,0,0,0,7.82,0,4.05,4.05,0,0,0,1.07-3.15L18.31,52Z"/><path class="cls-1" d="M14.6,66.29a4.22,4.22,0,0,1-3.19-1.47,3.32,3.32,0,0,1-.79-2.72L11,60a1.17,1.17,0,0,1,1.16-1H17a1.18,1.18,0,0,1,1.17,1l.34,2.11a3.32,3.32,0,0,1-.79,2.72A4.19,4.19,0,0,1,14.6,66.29Zm-1.48-4.93-.18,1.12a1,1,0,0,0,.27.81,1.81,1.81,0,0,0,2.75,0,1,1,0,0,0,.26-.82L16,61.36Z"/><path class="cls-2" d="M37.11,74.92H1.18A1.18,1.18,0,0,1,0,73.74V1.18A1.18,1.18,0,0,1,1.18,0h53.9a1.14,1.14,0,0,1,.83.35,1.18,1.18,0,0,1,.35.83l-.21,54.63a1.15,1.15,0,0,1-.34.82L38,74.57A1.19,1.19,0,0,1,37.11,74.92ZM2.36,72.56H36.62L53.69,55.32l.2-53H2.36Z"/><path class="cls-2" d="M37.11,74.92a1.2,1.2,0,0,1-.45-.09,1.18,1.18,0,0,1-.73-1.09V64.82c0-7,3.11-10.2,10.08-10.2h8.86a1.18,1.18,0,0,1,.84,2L38,74.57A1.18,1.18,0,0,1,37.11,74.92ZM46,57c-5.63,0-7.72,2.13-7.72,7.84v6.05L52,57Z"/><rect class="cls-2" x="1.29" y="1.18" width="53.67" height="18.15"/><path class="cls-3" d="M15.62,15.39h-2v-1.8h2Zm3.91-3.83v3.83h-1.9V5.78h3.6a4,4,0,0,1,2.54.74,2.54,2.54,0,0,1,.91,2.1,1.94,1.94,0,0,1-.39,1.27,2.54,2.54,0,0,1-1.12.88,2,2,0,0,1,1.22.83,2.68,2.68,0,0,1,.36,1.46v.69a3.79,3.79,0,0,0,.12.86,1.15,1.15,0,0,0,.36.65v.13h-2a1,1,0,0,1-.34-.71,7.56,7.56,0,0,1-.07-.93v-.69A1.53,1.53,0,0,0,22.46,12a1.44,1.44,0,0,0-1.1-.39Zm0-1.51h1.65a1.8,1.8,0,0,0,1.21-.34,1.25,1.25,0,0,0,.39-1,1.4,1.4,0,0,0-.39-1,1.66,1.66,0,0,0-1.16-.39h-1.7ZM31.6,13.31H28.25l-.64,2.08H25.69L29,5.78h1.95l3.27,9.61H32.26Zm-2.87-1.48h2.41L30,8h0ZM37,11.56v3.83h-1.9V5.78h3.6a4,4,0,0,1,2.54.74,2.54,2.54,0,0,1,.91,2.1,1.94,1.94,0,0,1-.39,1.27,2.54,2.54,0,0,1-1.12.88,2.05,2.05,0,0,1,1.22.83,2.68,2.68,0,0,1,.36,1.46v.69a3.79,3.79,0,0,0,.12.86,1.15,1.15,0,0,0,.36.65v.13h-2a1,1,0,0,1-.34-.71,7.56,7.56,0,0,1-.07-.93v-.69A1.53,1.53,0,0,0,39.9,12a1.44,1.44,0,0,0-1.09-.39Zm0-1.51h1.65a1.85,1.85,0,0,0,1.22-.34,1.28,1.28,0,0,0,.38-1,1.43,1.43,0,0,0-.38-1,1.7,1.7,0,0,0-1.17-.39H37Z"/><circle class="cls-1" cx="46.99" cy="65.87" r="13.37"/><path class="cls-4" d="M51.86,58.53H42.13A2.48,2.48,0,0,0,39.65,61v9.73a2.48,2.48,0,0,0,2.48,2.47h9.73a2.48,2.48,0,0,0,2.47-2.47V61A2.48,2.48,0,0,0,51.86,58.53ZM42,61.59a.11.11,0,0,1,.09-.1l.3,0h0a.1.1,0,0,0,.09-.1V59.9a.1.1,0,0,1,.1-.1l.32,0a6.93,6.93,0,0,1,3.87,1.08.13.13,0,0,0,.12,0,6.91,6.91,0,0,1,3.85-1.07l.32,0a.1.1,0,0,1,.1.1v1.46a.1.1,0,0,0,.09.1h0l.3,0a.11.11,0,0,1,.09.1V63a.1.1,0,0,1-.1.1H51a.09.09,0,0,1-.1-.1v-.61a.09.09,0,0,0-.1-.1,4.86,4.86,0,0,0-3.43,1.12l0,0,0,0h-.75l-.07-.08A4.81,4.81,0,0,0,43,62.31a.09.09,0,0,0-.1.1V63a.09.09,0,0,1-.1.1h-.67A.1.1,0,0,1,42,63Zm3.16,9.07a.11.11,0,0,1-.1.12h-.56a.11.11,0,0,1-.1-.1V66a.31.31,0,0,0-.31-.31h-.62a.1.1,0,0,0-.1.1v4.86a.1.1,0,0,1-.1.1h-.45a1.52,1.52,0,0,1-1.52-1.52V63.75a.1.1,0,0,1,.1-.1h2.69A2.37,2.37,0,0,1,46.51,66v2.78a.09.09,0,0,1,0,.07l0,0-1,1A.8.8,0,0,0,45.2,70.66Zm3.07.12,0,0-1,1.4a.36.36,0,0,1-.58,0l-1-1.42a.47.47,0,0,1,0-.58l.71-.71.25-.25a.36.36,0,0,1,.5,0l.21.22.74.74A.46.46,0,0,1,48.27,70.78Zm4.37-2.36a2.39,2.39,0,0,1-2.38,2.38H48.91a.11.11,0,0,1-.1-.12.79.79,0,0,0-.21-.74l-1-1-.07-.06a.09.09,0,0,1,0-.08V66a2.38,2.38,0,0,1,2.38-2.38h2.69a.1.1,0,0,1,.1.1Z"/><path class="cls-4" d="M43.51,61.45a6.08,6.08,0,0,1,2.78.76.1.1,0,0,0,.15-.09v-.41a.09.09,0,0,0,0-.08,5.42,5.42,0,0,0-2.88-1,.1.1,0,0,0-.11.1v.58A.11.11,0,0,0,43.51,61.45Z"/><path class="cls-4" d="M47.47,62.22a6.08,6.08,0,0,1,2.78-.76.1.1,0,0,0,.1-.1v-.58a.1.1,0,0,0-.11-.1,5.45,5.45,0,0,0-2.88,1,.09.09,0,0,0,0,.08v.41A.1.1,0,0,0,47.47,62.22Z"/><path class="cls-3" d="M46.44,68.92l0,0a.09.09,0,0,0,0-.07V66a2.37,2.37,0,0,0-2.38-2.38H41.44a.1.1,0,0,0-.1.1v5.51a1.52,1.52,0,0,0,1.52,1.52h.45a.1.1,0,0,0,.1-.1V65.82a.1.1,0,0,1,.1-.1h.62a.31.31,0,0,1,.31.31v4.65a.11.11,0,0,0,.1.1h.56a.11.11,0,0,0,.1-.12.8.8,0,0,1,.22-.72Z"/><path class="cls-3" d="M52.54,63.65H49.85A2.38,2.38,0,0,0,47.47,66v2.75a.09.09,0,0,0,0,.08l.07.06,1,1a.79.79,0,0,1,.21.74.11.11,0,0,0,.1.12h1.35a2.39,2.39,0,0,0,2.38-2.38V63.75A.1.1,0,0,0,52.54,63.65Zm-2,4.77a.31.31,0,0,1-.31.31h-.62a.09.09,0,0,1-.1-.1V66a.31.31,0,0,1,.31-.31h.51a.21.21,0,0,1,.21.21Z"/><path class="cls-3" d="M47.47,69.46l-.21-.22a.36.36,0,0,0-.5,0l-.25.25-.71.71a.47.47,0,0,0,0,.58l1,1.42a.36.36,0,0,0,.58,0l1-1.4,0,0a.46.46,0,0,0-.06-.58Z"/><path class="cls-1" d="M46.51,63.51Z"/><path class="cls-1" d="M46.51,63.51Z"/><path class="cls-3" d="M51.63,61.5l-.3,0h0a.1.1,0,0,1-.09-.1V59.91a.1.1,0,0,0-.1-.1l-.32,0A6.91,6.91,0,0,0,47,60.86a.13.13,0,0,1-.12,0A6.93,6.93,0,0,0,43,59.78l-.32,0a.1.1,0,0,0-.1.1v1.46a.1.1,0,0,1-.09.1h0l-.3,0a.11.11,0,0,0-.09.1V63a.1.1,0,0,0,.1.1h.67a.09.09,0,0,0,.1-.1v-.61a.09.09,0,0,1,.1-.1,4.81,4.81,0,0,1,3.43,1.12l.07.08h.75l0,0,0,0a4.86,4.86,0,0,1,3.43-1.12.09.09,0,0,1,.1.1V63a.09.09,0,0,0,.1.1h.67a.1.1,0,0,0,.1-.1V61.6A.11.11,0,0,0,51.63,61.5Zm-5.19.62a.1.1,0,0,1-.15.09,6.08,6.08,0,0,0-2.78-.76.11.11,0,0,1-.1-.1v-.58a.1.1,0,0,1,.11-.1,5.42,5.42,0,0,1,2.88,1,.09.09,0,0,1,0,.08Zm3.91-.76a.1.1,0,0,1-.1.1,6.08,6.08,0,0,0-2.78.76.1.1,0,0,1-.15-.09v-.41a.09.09,0,0,1,0-.08,5.45,5.45,0,0,1,2.88-1,.1.1,0,0,1,.11.1Z"/><path class="cls-3" d="M51.86,57H42.13a4,4,0,0,0-4,4v9.73a4,4,0,0,0,4,4h9.73a4,4,0,0,0,4-4V61A4,4,0,0,0,51.86,57Zm2.47,13.69a2.48,2.48,0,0,1-2.47,2.47H42.13a2.48,2.48,0,0,1-2.48-2.47V61a2.48,2.48,0,0,1,2.48-2.47h9.73A2.48,2.48,0,0,1,54.33,61Z"/></g></g></svg>