<svg xmlns="http://www.w3.org/2000/svg" viewBox="0 0 60.67 79.65"><defs><style>.cls-1{fill:#183d6b;}.cls-2{fill:#ea0029;}.cls-3{fill:none;}.cls-4{fill:#fff;}</style></defs><g id="Capa_2" data-name="Capa 2"><g id="Capa_1-2" data-name="Capa 1"><path class="cls-1" d="M37.11,74.92H1.18A1.18,1.18,0,0,1,0,73.74V1.18A1.18,1.18,0,0,1,1.18,0h53.9a1.14,1.14,0,0,1,.83.35,1.18,1.18,0,0,1,.35.83l-.21,54.63a1.15,1.15,0,0,1-.34.82L38,74.57A1.19,1.19,0,0,1,37.11,74.92ZM2.36,72.56H36.62L53.69,55.32l.2-53H2.36Z"/><path class="cls-1" d="M37.11,74.92a1.2,1.2,0,0,1-.45-.09,1.18,1.18,0,0,1-.73-1.09V64.82c0-7,3.11-10.2,10.09-10.2h8.85a1.18,1.18,0,0,1,.84,2L38,74.57A1.18,1.18,0,0,1,37.11,74.92ZM46,57c-5.64,0-7.73,2.13-7.73,7.84v6.05L52.05,57Z"/><rect class="cls-1" x="1.29" y="1.18" width="53.67" height="18.15"/><circle class="cls-2" cx="47.3" cy="66.29" r="13.37"/><path class="cls-3" d="M52.17,59H42.44A2.48,2.48,0,0,0,40,61.42v9.73a2.48,2.48,0,0,0,2.47,2.47h9.73a2.48,2.48,0,0,0,2.47-2.47V61.42A2.48,2.48,0,0,0,52.17,59ZM42.35,62a.11.11,0,0,1,.09-.1l.3,0h0a.1.1,0,0,0,.09-.1V60.32a.09.09,0,0,1,.09-.1l.33,0a6.91,6.91,0,0,1,3.86,1.08.11.11,0,0,0,.12,0,6.79,6.79,0,0,1,3.85-1.06h.32a.09.09,0,0,1,.1.1v1.46a.1.1,0,0,0,.09.1h0l.3,0A.11.11,0,0,1,52,62v1.43a.1.1,0,0,1-.1.11h-.67a.11.11,0,0,1-.1-.11v-.61a.09.09,0,0,0-.1-.1,4.87,4.87,0,0,0-3.43,1.12l0,0,0,0h-.75l-.07-.08a4.85,4.85,0,0,0-3.43-1.12.1.1,0,0,0-.1.1v.61a.09.09,0,0,1-.1.1h-.67a.1.1,0,0,1-.1-.1Zm3.16,9.07a.11.11,0,0,1-.1.12h-.55a.1.1,0,0,1-.1-.1V66.45a.31.31,0,0,0-.31-.31h-.62a.09.09,0,0,0-.1.1V71.1a.11.11,0,0,1-.1.1h-.46a1.52,1.52,0,0,1-1.51-1.52V64.17a.09.09,0,0,1,.1-.1h2.69a2.38,2.38,0,0,1,2.38,2.38v2.78a.12.12,0,0,1,0,.08l0,0-1,1A.8.8,0,0,0,45.51,71.08Zm3.07.12,0,0-1,1.4a.36.36,0,0,1-.58,0l-1-1.42a.47.47,0,0,1,0-.58l.72-.71.24-.24a.34.34,0,0,1,.5,0l.21.21.75.74A.47.47,0,0,1,48.58,71.2ZM53,68.84a2.37,2.37,0,0,1-2.38,2.38H49.23a.1.1,0,0,1-.1-.12.82.82,0,0,0-.22-.74l-1-1-.07-.06a.12.12,0,0,1,0-.08V66.45a2.39,2.39,0,0,1,2.38-2.38h2.69a.1.1,0,0,1,.1.1Z"/><path class="cls-3" d="M43.82,61.87a6,6,0,0,1,2.78.76.1.1,0,0,0,.15-.09v-.41a.11.11,0,0,0,0-.08,5.48,5.48,0,0,0-2.89-1,.1.1,0,0,0-.1.1v.58A.1.1,0,0,0,43.82,61.87Z"/><path class="cls-3" d="M47.79,62.64a6,6,0,0,1,2.78-.76.1.1,0,0,0,.09-.1V61.2a.1.1,0,0,0-.11-.1,5.45,5.45,0,0,0-2.88,1,.12.12,0,0,0,0,.08v.41A.11.11,0,0,0,47.79,62.64Z"/><path class="cls-4" d="M46.75,69.34l0,0a.12.12,0,0,0,0-.08V66.45a2.38,2.38,0,0,0-2.38-2.38H41.76a.09.09,0,0,0-.1.1v5.51a1.52,1.52,0,0,0,1.51,1.52h.46a.11.11,0,0,0,.1-.1V66.24a.09.09,0,0,1,.1-.1h.62a.31.31,0,0,1,.31.31V71.1a.1.1,0,0,0,.1.1h.55a.11.11,0,0,0,.1-.12.8.8,0,0,1,.22-.72Z"/><path class="cls-4" d="M52.85,64.07H50.16a2.39,2.39,0,0,0-2.38,2.38V69.2a.12.12,0,0,0,0,.08l.07.06,1,1a.82.82,0,0,1,.22.74.1.1,0,0,0,.1.12h1.34A2.37,2.37,0,0,0,53,68.84V64.17A.1.1,0,0,0,52.85,64.07Zm-2,4.77a.31.31,0,0,1-.31.31H50a.1.1,0,0,1-.1-.1v-2.6a.31.31,0,0,1,.31-.31h.51a.21.21,0,0,1,.21.21Z"/><path class="cls-4" d="M47.78,69.88l-.21-.21a.34.34,0,0,0-.5,0l-.24.24-.72.71a.47.47,0,0,0,0,.58l1,1.42a.36.36,0,0,0,.58,0l1-1.4,0,0a.47.47,0,0,0,0-.58Z"/><path class="cls-2" d="M46.82,63.93Z"/><path class="cls-2" d="M46.82,63.93Z"/><path class="cls-4" d="M51.94,61.92l-.3,0h0a.1.1,0,0,1-.09-.1V60.33a.09.09,0,0,0-.1-.1h-.32a6.79,6.79,0,0,0-3.85,1.06.11.11,0,0,1-.12,0,6.91,6.91,0,0,0-3.86-1.08l-.33,0a.09.09,0,0,0-.09.1v1.46a.1.1,0,0,1-.09.1h0l-.3,0a.11.11,0,0,0-.09.1v1.43a.1.1,0,0,0,.1.1h.67a.09.09,0,0,0,.1-.1v-.61a.1.1,0,0,1,.1-.1,4.85,4.85,0,0,1,3.43,1.12l.07.08h.75l0,0,0,0a4.87,4.87,0,0,1,3.43-1.12.09.09,0,0,1,.1.1v.61a.11.11,0,0,0,.1.11h.67a.1.1,0,0,0,.1-.11V62A.11.11,0,0,0,51.94,61.92Zm-5.19.62a.1.1,0,0,1-.15.09,6,6,0,0,0-2.78-.76.1.1,0,0,1-.09-.1v-.58a.1.1,0,0,1,.1-.1,5.48,5.48,0,0,1,2.89,1,.11.11,0,0,1,0,.08Zm3.91-.76a.1.1,0,0,1-.09.1,6,6,0,0,0-2.78.76.11.11,0,0,1-.16-.09v-.41a.12.12,0,0,1,0-.08,5.45,5.45,0,0,1,2.88-1,.1.1,0,0,1,.11.1Z"/><path class="cls-4" d="M52.17,57.46H42.44a4,4,0,0,0-4,4v9.73a4,4,0,0,0,4,4h9.73a4,4,0,0,0,4-4V61.42A4,4,0,0,0,52.17,57.46Zm2.47,13.69a2.48,2.48,0,0,1-2.47,2.47H42.44A2.48,2.48,0,0,1,40,71.15V61.42A2.48,2.48,0,0,1,42.44,59h9.73a2.48,2.48,0,0,1,2.47,2.47Z"/><path class="cls-4" d="M11.09,15.41h-2v-1.8h2Zm5.3-6.14,1.77-3.38h2.19l-2.78,4.73,2.93,4.79H18.22L16.42,12l-1.81,3.43H12.39l2.87-4.79-2.8-4.73h2.19Zm7,4.66h4.18v1.48H21.5V5.89h1.87Zm10.35-1a1.12,1.12,0,0,0-.38-.87A3.89,3.89,0,0,0,32,11.42a7.15,7.15,0,0,1-2.55-1.17,2.17,2.17,0,0,1-.86-1.82,2.33,2.33,0,0,1,1-1.92,4,4,0,0,1,2.51-.73,3.77,3.77,0,0,1,2.53.82,2.47,2.47,0,0,1,1,2.05l0,0H33.72a1.34,1.34,0,0,0-.43-1,1.73,1.73,0,0,0-1.22-.41,1.79,1.79,0,0,0-1.17.34,1,1,0,0,0-.41.85.93.93,0,0,0,.43.8,6.1,6.1,0,0,0,1.53.63A5.85,5.85,0,0,1,34.8,11a2.34,2.34,0,0,1,.82,1.87,2.28,2.28,0,0,1-1,1.94,4.26,4.26,0,0,1-2.51.7,4.51,4.51,0,0,1-2.69-.82,2.52,2.52,0,0,1-1.11-2.23l0,0h1.82a1.5,1.5,0,0,0,.52,1.24,2.25,2.25,0,0,0,1.43.39,1.74,1.74,0,0,0,1.17-.33,1,1,0,0,0,.41-.84Z"/><path class="cls-2" d="M49.41,37H6.89a1,1,0,0,1-1-1V29.3a1,1,0,0,1,1-1H49.41a1,1,0,0,1,1,1V36A1,1,0,0,1,49.41,37ZM7.85,35h40.6V30.25H7.85Z"/><path class="cls-2" d="M49.41,43.68H6.89a1,1,0,0,1-1-1V36a1,1,0,0,1,1-1H49.41a1,1,0,0,1,1,1v6.73A1,1,0,0,1,49.41,43.68ZM7.85,41.76h40.6V37H7.85Z"/><path class="cls-2" d="M49.41,50.4H6.89a1,1,0,0,1-1-1V42.72a1,1,0,0,1,1-1H49.41a1,1,0,0,1,1,1v6.72A1,1,0,0,1,49.41,50.4ZM7.85,48.48h40.6v-4.8H7.85Z"/><path class="cls-2" d="M36.32,50.4H20a1,1,0,0,1-.95-1V29.3a1,1,0,0,1,.95-1H36.32a1,1,0,0,1,1,1V49.44A1,1,0,0,1,36.32,50.4ZM20.93,48.48H35.36V30.25H20.93Z"/></g></g></svg>