<svg xmlns="http://www.w3.org/2000/svg" viewBox="0 0 60.41 79.23"><defs><style>.cls-1{fill:#ea0029;}.cls-2{fill:#183d6b;}.cls-3{fill:#fff;}.cls-4{fill:none;}</style></defs><g id="Capa_2" data-name="Capa 2"><g id="Capa_1-2" data-name="Capa 1"><path class="cls-1" d="M22,26H13.11a1.18,1.18,0,1,1,0-2.35H22A1.18,1.18,0,1,1,22,26Z"/><path class="cls-1" d="M22,31H13.11a1.18,1.18,0,1,1,0-2.36H22A1.18,1.18,0,1,1,22,31Z"/><path class="cls-1" d="M17.55,51.94a1.18,1.18,0,0,1-1.18-1.18V18.54a1.18,1.18,0,0,1,2.36,0V50.76A1.18,1.18,0,0,1,17.55,51.94Z"/><path class="cls-1" d="M22,36H13.11a1.18,1.18,0,1,1,0-2.36H22A1.18,1.18,0,1,1,22,36Z"/><path class="cls-1" d="M22,41H13.11a1.18,1.18,0,1,1,0-2.35H22A1.18,1.18,0,1,1,22,41Z"/><path class="cls-1" d="M22,46H13.11a1.18,1.18,0,1,1,0-2.36H22A1.18,1.18,0,1,1,22,46Z"/><path class="cls-1" d="M17.55,70a7.76,7.76,0,0,1-5.68-2.55,6.35,6.35,0,0,1-1.65-5L11.6,50.63a1.17,1.17,0,0,1,1.17-1h9.54a1.17,1.17,0,0,1,1.17,1l1.38,11.83a6.36,6.36,0,0,1-1.65,5A7.68,7.68,0,0,1,17.55,70ZM13.82,51.94l-1.25,10.8a4,4,0,0,0,1.06,3.14,5.22,5.22,0,0,0,7.82,0,4.06,4.06,0,0,0,1.07-3.14l-1.26-10.8Z"/><path class="cls-1" d="M17.55,66.21a4.22,4.22,0,0,1-3.18-1.47,3.33,3.33,0,0,1-.8-2.72l.35-2.11a1.16,1.16,0,0,1,1.16-1H20a1.18,1.18,0,0,1,1.17,1L21.51,62a3.3,3.3,0,0,1-.8,2.72A4.18,4.18,0,0,1,17.55,66.21Zm-1.47-4.93L15.9,62.4a1,1,0,0,0,.26.81,1.82,1.82,0,0,0,2.76,0,1,1,0,0,0,.26-.82L19,61.28Z"/><path class="cls-2" d="M37.11,74.92H1.18A1.18,1.18,0,0,1,0,73.74V1.18A1.18,1.18,0,0,1,1.18,0h53.9a1.2,1.2,0,0,1,1.18,1.18l-.21,54.63a1.15,1.15,0,0,1-.34.82L38,74.57A1.19,1.19,0,0,1,37.11,74.92ZM2.36,72.56H36.62L53.69,55.32l.2-53H2.36Z"/><path class="cls-2" d="M37.11,74.92a1.2,1.2,0,0,1-.45-.09,1.18,1.18,0,0,1-.73-1.09V64.82c0-7,3.11-10.2,10.08-10.2h8.86a1.18,1.18,0,0,1,.84,2L38,74.57A1.18,1.18,0,0,1,37.11,74.92ZM46,57c-5.63,0-7.72,2.13-7.72,7.84v6.06L52,57Z"/><rect class="cls-2" x="1.29" y="1.18" width="53.67" height="18.12"/><path class="cls-3" d="M18.57,15.4H16.51V13.57h2.06Zm3.94-1.51h4.64V15.4H20.2v-1l4.53-7.12H20.2V5.78H27v1Zm8,1.51H28.6V5.78h1.9Zm3.82-3.5v3.5H32.4V5.78h3.8a3.77,3.77,0,0,1,2.58.83,2.88,2.88,0,0,1,.94,2.22,2.84,2.84,0,0,1-.94,2.22,3.64,3.64,0,0,1-2.58.85Zm0-1.5H36.2A1.58,1.58,0,0,0,37.41,10a1.5,1.5,0,0,0,.41-1.11,1.7,1.7,0,0,0-.41-1.15,1.54,1.54,0,0,0-1.21-.44H34.32Z"/><circle class="cls-1" cx="47.04" cy="65.87" r="13.37"/><path class="cls-4" d="M51.9,58.53H42.18A2.48,2.48,0,0,0,39.7,61v9.73a2.48,2.48,0,0,0,2.48,2.47H51.9a2.48,2.48,0,0,0,2.48-2.47V61A2.48,2.48,0,0,0,51.9,58.53Zm-9.81,3.06a.11.11,0,0,1,.09-.1l.3,0h0a.1.1,0,0,0,.09-.1V59.9a.09.09,0,0,1,.1-.1l.32,0a6.93,6.93,0,0,1,3.87,1.08.11.11,0,0,0,.11,0,7,7,0,0,1,3.86-1.07l.32,0a.09.09,0,0,1,.09.1v1.46a.1.1,0,0,0,.1.1h0l.3,0a.11.11,0,0,1,.09.1V63a.1.1,0,0,1-.1.1H51a.09.09,0,0,1-.1-.1v-.61a.1.1,0,0,0-.1-.1,4.85,4.85,0,0,0-3.43,1.12l0,0,0,0h-.75l-.07-.08a4.81,4.81,0,0,0-3.43-1.12.09.09,0,0,0-.1.1V63a.1.1,0,0,1-.1.1h-.67a.09.09,0,0,1-.1-.1Zm3.15,9.07a.09.09,0,0,1-.09.12h-.56a.11.11,0,0,1-.1-.1V66a.31.31,0,0,0-.31-.31h-.62a.1.1,0,0,0-.1.1v4.86a.1.1,0,0,1-.1.1h-.45a1.52,1.52,0,0,1-1.52-1.52V63.75a.1.1,0,0,1,.1-.1h2.69A2.38,2.38,0,0,1,46.56,66v2.78a.07.07,0,0,1,0,.07.08.08,0,0,1,0,0l-1,1A.81.81,0,0,0,45.24,70.66Zm3.08.12,0,0-1,1.4a.32.32,0,0,1-.28.15.35.35,0,0,1-.29-.15l-1-1.42a.46.46,0,0,1,.05-.58l.71-.71.25-.24a.36.36,0,0,1,.25-.11.35.35,0,0,1,.24.11l.21.21.75.74A.47.47,0,0,1,48.32,70.78Zm4.37-2.36a2.38,2.38,0,0,1-2.38,2.38H49a.11.11,0,0,1-.1-.12.8.8,0,0,0-.22-.74l-1-1-.08-.06a.12.12,0,0,1,0-.08V66a2.39,2.39,0,0,1,2.38-2.38h2.7a.11.11,0,0,1,.1.1Z"/><path class="cls-4" d="M43.56,61.45a6.11,6.11,0,0,1,2.78.76.1.1,0,0,0,.15-.09v-.41a.12.12,0,0,0,0-.08,5.45,5.45,0,0,0-2.88-1,.1.1,0,0,0-.11.1v.58A.1.1,0,0,0,43.56,61.45Z"/><path class="cls-4" d="M47.52,62.22a6.08,6.08,0,0,1,2.78-.76.1.1,0,0,0,.09-.1v-.58a.09.09,0,0,0-.1-.1,5.42,5.42,0,0,0-2.88,1,.09.09,0,0,0,0,.08v.41A.1.1,0,0,0,47.52,62.22Z"/><path class="cls-3" d="M46.48,68.92a.08.08,0,0,0,0,0,.07.07,0,0,0,0-.07V66a2.38,2.38,0,0,0-2.38-2.38H41.49a.1.1,0,0,0-.1.1v5.51a1.52,1.52,0,0,0,1.52,1.52h.45a.1.1,0,0,0,.1-.1V65.82a.1.1,0,0,1,.1-.1h.62a.31.31,0,0,1,.31.31v4.65a.11.11,0,0,0,.1.1h.56a.09.09,0,0,0,.09-.12.81.81,0,0,1,.23-.72Z"/><path class="cls-3" d="M52.59,63.65h-2.7A2.39,2.39,0,0,0,47.51,66v2.75a.12.12,0,0,0,0,.08l.08.06,1,1a.8.8,0,0,1,.22.74.11.11,0,0,0,.1.12h1.35a2.38,2.38,0,0,0,2.38-2.38V63.75A.11.11,0,0,0,52.59,63.65Zm-2,4.77a.31.31,0,0,1-.31.31h-.63a.1.1,0,0,1-.1-.1V66a.31.31,0,0,1,.31-.31h.52a.22.22,0,0,1,.21.21Z"/><path class="cls-3" d="M47.51,69.46l-.21-.21a.35.35,0,0,0-.24-.11.36.36,0,0,0-.25.11l-.25.24-.71.71a.46.46,0,0,0-.05.58l1,1.42a.35.35,0,0,0,.29.15.32.32,0,0,0,.28-.15l1-1.4,0,0a.47.47,0,0,0-.06-.58Z"/><path class="cls-1" d="M46.56,63.51Z"/><path class="cls-1" d="M46.56,63.51Z"/><path class="cls-3" d="M51.68,61.5l-.3,0h0a.1.1,0,0,1-.1-.1V59.91a.09.09,0,0,0-.09-.1l-.32,0A7,7,0,0,0,47,60.86a.11.11,0,0,1-.11,0A6.93,6.93,0,0,0,43,59.78l-.32,0a.09.09,0,0,0-.1.1v1.46a.1.1,0,0,1-.09.1h0l-.3,0a.11.11,0,0,0-.09.1V63a.09.09,0,0,0,.1.1h.67A.1.1,0,0,0,43,63v-.61a.09.09,0,0,1,.1-.1,4.81,4.81,0,0,1,3.43,1.12l.07.08h.75l0,0,0,0a4.85,4.85,0,0,1,3.43-1.12.1.1,0,0,1,.1.1V63a.09.09,0,0,0,.1.1h.67a.1.1,0,0,0,.1-.1V61.6A.11.11,0,0,0,51.68,61.5Zm-5.19.62a.1.1,0,0,1-.15.09,6.11,6.11,0,0,0-2.78-.76.1.1,0,0,1-.1-.1v-.58a.1.1,0,0,1,.11-.1,5.45,5.45,0,0,1,2.88,1,.12.12,0,0,1,0,.08Zm3.9-.76a.1.1,0,0,1-.09.1,6.08,6.08,0,0,0-2.78.76.1.1,0,0,1-.15-.09v-.41a.09.09,0,0,1,0-.08,5.42,5.42,0,0,1,2.88-1,.09.09,0,0,1,.1.1Z"/><path class="cls-3" d="M51.9,57H42.18a4,4,0,0,0-4,4v9.73a4,4,0,0,0,4,4H51.9a4,4,0,0,0,4-4V61A4,4,0,0,0,51.9,57Zm2.48,13.69A2.48,2.48,0,0,1,51.9,73.2H42.18a2.48,2.48,0,0,1-2.48-2.47V61a2.48,2.48,0,0,1,2.48-2.47H51.9A2.48,2.48,0,0,1,54.38,61Z"/></g></g></svg>