<svg xmlns="http://www.w3.org/2000/svg" xmlns:xlink="http://www.w3.org/1999/xlink" viewBox="0 0 120.26 74.03"><defs><style>.cls-1{fill:none;}.cls-1,.cls-2{stroke:#163d6b;stroke-linecap:round;stroke-linejoin:round;stroke-width:1.5px;}.cls-2{fill:#d2e3ff;}.cls-3{fill:#ea0029;}.cls-4{fill:#bdd0fb;}.cls-5{fill:url(#linear-gradient);}.cls-6{fill:url(#linear-gradient-2);}.cls-7{fill:#f4f7fa;}.cls-8{fill:url(#linear-gradient-3);}.cls-9{fill:url(#linear-gradient-4);}.cls-10{fill:url(#linear-gradient-5);}.cls-11{fill:url(#linear-gradient-6);}.cls-12{fill:url(#linear-gradient-7);}</style><linearGradient id="linear-gradient" x1="133.27" y1="-51.56" x2="125.07" y2="-29.45" gradientUnits="userSpaceOnUse"><stop offset="0" stop-color="#ff928e"/><stop offset="1" stop-color="#fe7062"/></linearGradient><linearGradient id="linear-gradient-2" x1="112.32" y1="60.63" x2="131.24" y2="-5.29" gradientTransform="translate(-17.7 0.88) rotate(-0.14)" gradientUnits="userSpaceOnUse"><stop offset="0" stop-color="#febbba"/><stop offset="1" stop-color="#ff928e"/></linearGradient><linearGradient id="linear-gradient-3" x1="108.76" y1="70.28" x2="127.68" y2="4.36" gradientTransform="matrix(1, -0.01, 0, 1, -15.38, -6.97)" xlink:href="#linear-gradient-2"/><linearGradient id="linear-gradient-4" x1="109.45" y1="70.48" x2="128.37" y2="4.56" gradientTransform="matrix(1, -0.01, 0, 1, -15.38, -6.97)" xlink:href="#linear-gradient-2"/><linearGradient id="linear-gradient-5" x1="110.14" y1="70.67" x2="129.06" y2="4.76" gradientTransform="matrix(1, -0.01, 0, 1, -15.27, -7.37)" xlink:href="#linear-gradient-2"/><linearGradient id="linear-gradient-6" x1="133.33" y1="-51.54" x2="125.12" y2="-29.43" xlink:href="#linear-gradient"/><linearGradient id="linear-gradient-7" x1="112.36" y1="60.64" x2="131.28" y2="-5.28" xlink:href="#linear-gradient-2"/></defs><g id="Capa_2" data-name="Capa 2"><g id="Capa_1-2" data-name="Capa 1"><path class="cls-1" d="M119.51,6.1l-1.33,56.39L118,71.22a2.07,2.07,0,0,1-2.08,2.06H3.76a2.07,2.07,0,0,1-2.08-2.06l-.12-8.73L.75,6.78a3.6,3.6,0,0,1,3.8-3.19L114.15.75a5.24,5.24,0,0,1,5.36,5.35Z"/><path class="cls-2" d="M115.23,69.46a2,2,0,0,1-2,1.94H6.43a2,2,0,0,1-2-1.94L3.56,9.33a3.42,3.42,0,0,1,3.63-3L111.59,3.7a5,5,0,0,1,3.64,1.42,4.76,4.76,0,0,1,1.46,3.56Z"/><path class="cls-3" d="M94,55.88c0,1-.54,1.77-1.16,1.77l-36.53.21c-.69,0-1.25-.81-1.25-1.86h0c0-1.06.58-1.87,1.27-1.87H93c.61,0,1.09.76,1.06,1.75Z"/><path class="cls-3" d="M94.05,49c0,1-.55,1.76-1.17,1.76L56.2,51C55.51,51,55,50.2,55,49.15h0c0-1.06.58-1.86,1.27-1.86H93c.62,0,1.09.74,1.07,1.74Z"/><path class="cls-3" d="M94.44,20.69c-.06.82-1.88,1.5-4.07,1.51l-70.3.29c-2.32,0-4.19-.67-4.18-1.52v-.1c0-.85,1.92-1.55,4.24-1.56l70.43-.21c2.2,0,3.94.66,3.88,1.49Z"/><path class="cls-3" d="M94.3,28.11c0,.82-1.82,1.48-4,1.48l-68.15.06c-2.25,0-4.06-.68-4-1.53V28c0-.85,1.87-1.53,4.12-1.53l68.27,0c2.14,0,3.82.67,3.76,1.49Z"/><path class="cls-4" d="M113.19,71.76h-12a.15.15,0,0,1-.15-.15.15.15,0,0,1,.15-.15h12a2.91,2.91,0,0,0,2.72-3v-37a.16.16,0,0,1,.16-.15.15.15,0,0,1,.15.15v37A3.22,3.22,0,0,1,113.19,71.76Z"/><path class="cls-4" d="M3.75,31.48a.15.15,0,0,1-.15-.15V10A3.75,3.75,0,0,1,7.41,6.1H17a.15.15,0,0,1,.15.15.15.15,0,0,1-.15.16H7.41A3.41,3.41,0,0,0,3.9,10V31.33A.15.15,0,0,1,3.75,31.48Z"/><path class="cls-5" d="M109.78,29.4l-8,.07a2.68,2.68,0,0,1-2.68-2.69l0-8.15a2.67,2.67,0,0,1,2.67-2.69l8,.08a2.68,2.68,0,0,1,2.6,2.7l0,8A2.66,2.66,0,0,1,109.78,29.4Z"/><path class="cls-6" d="M109.22,28.63l-6.87.06a2.47,2.47,0,0,1-2.47-2.49l0-7a2.46,2.46,0,0,1,2.46-2.48l6.87.06a2.47,2.47,0,0,1,2.41,2.49l0,6.87A2.45,2.45,0,0,1,109.22,28.63Zm-6.9-11.55a2.11,2.11,0,0,0-2.12,2.13l0,7a2.13,2.13,0,0,0,2.13,2.14l6.87-.05a2.11,2.11,0,0,0,2.06-2.14V19.27a2.14,2.14,0,0,0-2.08-2.14Z"/><path class="cls-7" d="M100,20.08l11.4.05Z"/><polygon class="cls-8" points="111.44 20.3 100.03 20.25 100.03 19.9 111.43 19.96 111.44 20.3"/><path class="cls-7" d="M100,22.71h0Z"/><polygon class="cls-9" points="111.44 22.88 100.04 22.88 100.04 22.53 111.44 22.54 111.44 22.88"/><path class="cls-7" d="M100.05,25.33l11.4,0Z"/><rect class="cls-10" x="100.05" y="25.14" width="11.4" height="0.34" transform="translate(-0.08 0.35) rotate(-0.19)"/><path class="cls-11" d="M107.39,27.23l-3.19,0a1.49,1.49,0,0,1-1.48-1.5l0-6.08a1.49,1.49,0,0,1,1.48-1.5l3.18,0a1.51,1.51,0,0,1,1.47,1.51v6A1.48,1.48,0,0,1,107.39,27.23Z"/><path class="cls-12" d="M107.39,27.4l-3.19,0a1.66,1.66,0,0,1-1.65-1.67l0-6.08A1.65,1.65,0,0,1,104.18,18l3.18,0A1.68,1.68,0,0,1,109,19.7v6A1.66,1.66,0,0,1,107.39,27.4Zm-3.21-9.06a1.32,1.32,0,0,0-1.31,1.33l0,6.08a1.31,1.31,0,0,0,1.31,1.32h3.19a1.32,1.32,0,0,0,1.29-1.33l0-6a1.32,1.32,0,0,0-1.3-1.33Z"/></g></g></svg>