<svg xmlns="http://www.w3.org/2000/svg" xmlns:xlink="http://www.w3.org/1999/xlink" viewBox="0 0 180.06 139.61"><defs><style>.cls-1,.cls-3{fill:none;}.cls-2{clip-path:url(#clip-path);}.cls-3,.cls-4{stroke:#163d6b;stroke-linecap:round;stroke-linejoin:round;stroke-width:1.5px;}.cls-4{fill:#d2e3ff;}.cls-5{fill:#ea0029;}.cls-6{fill:#bdd0fb;}.cls-7{fill:url(#linear-gradient);}.cls-8{fill:url(#linear-gradient-2);}.cls-9{fill:#f4f7fa;}.cls-10{fill:url(#linear-gradient-3);}.cls-11{fill:url(#linear-gradient-4);}.cls-12{fill:url(#linear-gradient-5);}.cls-13{fill:url(#linear-gradient-6);}.cls-14{fill:url(#linear-gradient-7);}.cls-15{fill:#fff;}.cls-16{clip-path:url(#clip-path-2);}.cls-17{fill:url(#linear-gradient-8);}.cls-18{fill:url(#linear-gradient-9);}.cls-19{fill:url(#linear-gradient-10);}.cls-20{fill:url(#linear-gradient-11);}.cls-21{fill:url(#linear-gradient-12);}.cls-22{fill:url(#linear-gradient-13);}.cls-23{fill:url(#linear-gradient-14);}.cls-24{fill:url(#linear-gradient-15);}.cls-25{fill:url(#linear-gradient-16);}.cls-26{fill:url(#linear-gradient-17);}.cls-27{fill:url(#linear-gradient-18);}.cls-28{fill:#ffb27e;}.cls-29{fill:#ffc198;}.cls-30{fill:#fed1b2;}</style><clipPath id="clip-path" transform="translate(-1.94 -6.39)"><rect class="cls-1" width="181" height="115"/></clipPath><linearGradient id="linear-gradient" x1="190.04" y1="-66.82" x2="178.44" y2="-35.55" gradientUnits="userSpaceOnUse"><stop offset="0" stop-color="#ff928e"/><stop offset="1" stop-color="#fe7062"/></linearGradient><linearGradient id="linear-gradient-2" x1="154.12" y1="91.66" x2="180.87" y2="-1.52" gradientTransform="translate(-18.74 1.36) rotate(-0.14)" gradientUnits="userSpaceOnUse"><stop offset="0" stop-color="#febbba"/><stop offset="1" stop-color="#ff928e"/></linearGradient><linearGradient id="linear-gradient-3" x1="150.5" y1="100.31" x2="177.25" y2="7.12" gradientTransform="matrix(1, -0.01, 0, 1, -18.79, -11.15)" xlink:href="#linear-gradient-2"/><linearGradient id="linear-gradient-4" x1="151.48" y1="100.59" x2="178.23" y2="7.4" gradientTransform="matrix(1, -0.01, 0, 1, -18.79, -11.15)" xlink:href="#linear-gradient-2"/><linearGradient id="linear-gradient-5" x1="152.46" y1="100.87" x2="179.21" y2="7.68" gradientTransform="matrix(1, -0.01, 0, 1, -18.79, -11.15)" xlink:href="#linear-gradient-2"/><linearGradient id="linear-gradient-6" x1="190.11" y1="-66.79" x2="178.51" y2="-35.53" xlink:href="#linear-gradient"/><linearGradient id="linear-gradient-7" x1="154.17" y1="91.68" x2="180.92" y2="-1.51" xlink:href="#linear-gradient-2"/><clipPath id="clip-path-2" transform="translate(-1.94 -6.39)"><rect class="cls-1" x="13.7" y="24.2" width="59.37" height="64.08" rx="12"/></clipPath><linearGradient id="linear-gradient-8" x1="63.18" y1="56.63" x2="72.06" y2="86.23" gradientUnits="userSpaceOnUse"><stop offset="0" stop-color="#09005d"/><stop offset="1" stop-color="#1a0f91"/></linearGradient><linearGradient id="linear-gradient-9" x1="12.62" y1="66.01" x2="21.62" y2="96.05" xlink:href="#linear-gradient-8"/><linearGradient id="linear-gradient-10" x1="107.88" y1="-97.31" x2="96.27" y2="-66.05" xlink:href="#linear-gradient"/><linearGradient id="linear-gradient-11" x1="42.68" y1="55.64" x2="44.03" y2="78.25" gradientTransform="matrix(1, 0, 0, 1, 0, 0)" xlink:href="#linear-gradient-2"/><linearGradient id="linear-gradient-12" x1="40.03" y1="37.58" x2="58.96" y2="62.84" gradientTransform="matrix(1, 0, 0, 1, 0, 0)" xlink:href="#linear-gradient-2"/><linearGradient id="linear-gradient-13" x1="45.58" y1="33.42" x2="64.51" y2="58.68" gradientTransform="matrix(1, 0, 0, 1, 0, 0)" xlink:href="#linear-gradient-2"/><linearGradient id="linear-gradient-14" x1="33.57" y1="42.43" x2="52.5" y2="67.68" gradientTransform="matrix(1, 0, 0, 1, 0, 0)" xlink:href="#linear-gradient-2"/><linearGradient id="linear-gradient-15" x1="33.31" y1="46.3" x2="51.68" y2="46.3" xlink:href="#linear-gradient-8"/><linearGradient id="linear-gradient-16" x1="42.62" y1="53.13" x2="42.62" y2="19.07" xlink:href="#linear-gradient-8"/><linearGradient id="linear-gradient-17" x1="25.09" y1="60.94" x2="34.66" y2="92.85" xlink:href="#linear-gradient-8"/><linearGradient id="linear-gradient-18" x1="56" y1="52.2" x2="66.47" y2="87.12" xlink:href="#linear-gradient-8"/></defs><g id="Capa_2" data-name="Capa 2"><g id="Capa_1-2" data-name="Capa 1"><g class="cls-2"><path class="cls-3" d="M170.58,14.7l-1.89,79.73-.29,12.33a2.92,2.92,0,0,1-2.93,2.91H6.94A2.92,2.92,0,0,1,4,106.76L3.83,94.42,2.69,15.67a5.1,5.1,0,0,1,5.37-4.52L163,7.14a7.4,7.4,0,0,1,7.58,7.56Z" transform="translate(-1.94 -6.39)"/><path class="cls-4" d="M164.52,104.28a2.77,2.77,0,0,1-2.79,2.73h-151a2.77,2.77,0,0,1-2.8-2.73l-1.25-85A4.83,4.83,0,0,1,11.79,15L159.38,11.3a7.12,7.12,0,0,1,5.15,2,6.84,6.84,0,0,1,2.07,5Z" transform="translate(-1.94 -6.39)"/><path class="cls-5" d="M135.14,24.58c0,1.4-.78,2.55-1.66,2.56l-52.38.31c-1,0-1.79-1.22-1.79-2.71h0c0-1.49.82-2.73,1.82-2.73h52.49c.88,0,1.56,1.17,1.52,2.57Z" transform="translate(-1.94 -6.39)"/><path class="cls-5" d="M134.58,85.07c0,1.4-.77,2.51-1.64,2.51l-51.65.29c-1,0-1.77-1.14-1.76-2.63h0c0-1.49.81-2.64,1.79-2.64h51.75c.87,0,1.55,1.07,1.51,2.47Z" transform="translate(-1.94 -6.39)"/><path class="cls-5" d="M134.58,75.39c0,1.4-.77,2.49-1.64,2.5l-51.86.28c-1,0-1.77-1.12-1.77-2.61h0c0-1.49.81-2.63,1.8-2.63h52c.88,0,1.55,1,1.51,2.46Z" transform="translate(-1.94 -6.39)"/><path class="cls-5" d="M135.14,35.32c0,1.17-1.33,2.13-2.89,2.14l-50,.42c-1.65,0-3-1-3-2.16v-.13c0-1.21,1.37-2.2,3-2.21l50.05-.3c1.57,0,2.8.94,2.76,2.11Z" transform="translate(-1.94 -6.39)"/><path class="cls-5" d="M135,45.84c0,1.16-1.34,2.11-2.9,2.12l-49.83.37c-1.64,0-3-.94-2.94-2.14v-.13c0-1.2,1.37-2.17,3-2.18l49.92-.26c1.55,0,2.78.92,2.73,2.09Z" transform="translate(-1.94 -6.39)"/><path class="cls-6" d="M161.64,107.53h-17a.22.22,0,0,1-.22-.22.21.21,0,0,1,.22-.21h17a4.13,4.13,0,0,0,3.86-4.25V50.59a.21.21,0,0,1,.21-.22.22.22,0,0,1,.22.22v52.26A4.56,4.56,0,0,1,161.64,107.53Z" transform="translate(-1.94 -6.39)"/><path class="cls-6" d="M6.93,50.59a.22.22,0,0,1-.22-.22V20.15a5.31,5.31,0,0,1,5.4-5.45H25.62a.21.21,0,0,1,.21.22.21.21,0,0,1-.21.21H12.11a4.84,4.84,0,0,0-5,5V50.37A.21.21,0,0,1,6.93,50.59Z" transform="translate(-1.94 -6.39)"/><path class="cls-7" d="M156.82,47.64l-11.3.1a3.8,3.8,0,0,1-3.8-3.8l0-11.52a3.77,3.77,0,0,1,3.78-3.8l11.31.11a3.79,3.79,0,0,1,3.68,3.81l0,11.3A3.77,3.77,0,0,1,156.82,47.64Z" transform="translate(-1.94 -6.39)"/><path class="cls-8" d="M156,46.56l-9.71.07a3.5,3.5,0,0,1-3.5-3.51l0-9.88a3.46,3.46,0,0,1,3.48-3.51l9.71.09a3.49,3.49,0,0,1,3.41,3.51l0,9.72A3.47,3.47,0,0,1,156,46.56Zm-9.75-16.34a3,3,0,0,0-3,3l0,9.88a3,3,0,0,0,3,3l9.71-.07a3,3,0,0,0,2.92-3l0-9.72a3,3,0,0,0-2.94-3Z" transform="translate(-1.94 -6.39)"/><path class="cls-9" d="M143.05,34.46l16.11.07Z" transform="translate(-1.94 -6.39)"/><polygon class="cls-10" points="157.23 28.39 141.11 28.32 141.11 27.83 157.23 27.9 157.23 28.39"/><path class="cls-9" d="M143.05,38.18h0Z" transform="translate(-1.94 -6.39)"/><polygon class="cls-11" points="157.24 32.04 141.12 32.04 141.12 31.54 157.24 31.56 157.24 32.04"/><path class="cls-9" d="M143.06,41.89l16.12,0Z" transform="translate(-1.94 -6.39)"/><polygon class="cls-12" points="157.25 35.7 141.13 35.75 141.13 35.26 157.25 35.22 157.25 35.7"/><path class="cls-13" d="M153.44,44.57l-4.5,0a2.12,2.12,0,0,1-2.1-2.12l0-8.6a2.09,2.09,0,0,1,2.09-2.11l4.5,0a2.11,2.11,0,0,1,2.07,2.12l0,8.53A2.1,2.1,0,0,1,153.44,44.57Z" transform="translate(-1.94 -6.39)"/><path class="cls-14" d="M153.44,44.81l-4.5,0a2.34,2.34,0,0,1-2.34-2.36l0-8.6a2.33,2.33,0,0,1,2.33-2.36l4.5,0a2.35,2.35,0,0,1,2.31,2.36l0,8.53A2.34,2.34,0,0,1,153.44,44.81ZM148.91,32a1.85,1.85,0,0,0-1.85,1.87l0,8.6a1.86,1.86,0,0,0,1.86,1.87l4.5,0a1.85,1.85,0,0,0,1.82-1.88l0-8.53A1.87,1.87,0,0,0,153.41,32Z" transform="translate(-1.94 -6.39)"/><rect class="cls-15" x="11.79" y="17.82" width="59.37" height="64.08" rx="12"/><g class="cls-16"><path class="cls-17" d="M78.31,85.78A81,81,0,0,0,71.79,66L65.58,87.51s.11.25.29.79l10.34,0A2.13,2.13,0,0,0,78.31,85.78Z" transform="translate(-1.94 -6.39)"/><path class="cls-18" d="M24.56,88.3c.68-2.44,1.21-4,1.21-4L15.62,66s-2.31,2.75-4.78,18.55A3.24,3.24,0,0,0,14,88.3Z" transform="translate(-1.94 -6.39)"/><path class="cls-19" d="M59.52,88.3,56.76,59.45C44.47,54.91,29,60,29,60L27.7,88.3Z" transform="translate(-1.94 -6.39)"/><path class="cls-20" d="M37,50.35,36.8,58A1.71,1.71,0,0,0,38,59.64c1.95.69,6,1.73,9.79.37a1.74,1.74,0,0,0,1.12-1.88l-1.15-7.78Z" transform="translate(-1.94 -6.39)"/><path class="cls-21" d="M33.13,36.46s1.34,13.62,4.28,17.1c0,0,8.82.8,12-1.07a50.51,50.51,0,0,0,2-15.9s.44-8.27-8.69-9C32.07,26.84,33.13,36.46,33.13,36.46Z" transform="translate(-1.94 -6.39)"/><path class="cls-22" d="M50.5,40.73s.8-2.4,2.14-2.4-.27,6.41-2.14,6.41Z" transform="translate(-1.94 -6.39)"/><path class="cls-23" d="M34.35,41.36s-1.12-2.27-2.44-2.09,1.13,6.32,3,6.06Z" transform="translate(-1.94 -6.39)"/><path class="cls-24" d="M33.31,38.16s1,13.1,4.63,17.68a1.78,1.78,0,0,0,1.3.69c1.83.09,6.5.27,9.13-.31a2,2,0,0,0,1.42-1.36,18.54,18.54,0,0,0,.74-2.68c.09-2,.56-7.66,1.15-15.34L51.14,36c-.17,1.78-1.26,13.09-3,13.35a2.34,2.34,0,0,1-.77,0c-1-.21-1.37-1-2.1-1.57a4.17,4.17,0,0,0-4.66.23,6,6,0,0,1-1.71,1.31,3.54,3.54,0,0,1-1.27.3c-1.26-.05-2.51-5-3.21-11.75Z" transform="translate(-1.94 -6.39)"/><path class="cls-25" d="M47.83,33.05S41,39,33.61,38.94c0,0-4.22-9.5,4.07-11.07s8.55.45,8.55.45,9.68-2,5.38,9.59Z" transform="translate(-1.94 -6.39)"/><path class="cls-26" d="M24.54,88.3h7.29l3.5-29.83C25.75,59.34,15.62,66,15.62,66l7.54,18.3A36,36,0,0,1,24.54,88.3Z" transform="translate(-1.94 -6.39)"/><path class="cls-27" d="M66.11,88.3a49.78,49.78,0,0,1,1.46-4.9L71.79,66c-8.4-6.56-21.54-8.09-21.54-8.09L55.16,88.3Z" transform="translate(-1.94 -6.39)"/></g><path class="cls-28" d="M182,123,128,39s-17-10-24,7,31,100,31,100h47Z" transform="translate(-1.94 -6.39)"/><path class="cls-29" d="M107,53s-3.31-8.84,3.34-14.92S125,36,125,36l10,17s5,9-3,14-13.08,5-17,0S107,53,107,53Z" transform="translate(-1.94 -6.39)"/><path class="cls-30" d="M110.34,38s6.36-5.45,11,4.5S132,62,132,67c0,1,7.92-5.84,3-14.56S125,36,125,36,118,32,110.34,38Z" transform="translate(-1.94 -6.39)"/></g></g></g></svg>