<svg xmlns="http://www.w3.org/2000/svg" viewBox="0 0 234.5 175.91"><defs><style>.cls-1,.cls-2{fill:none;stroke-linecap:round;stroke-linejoin:round;stroke-width:1.5px;}.cls-1{stroke:#163d6b;}.cls-2{stroke:#ea0029;}</style></defs><g id="Capa_2" data-name="Capa 2"><g id="Capa_1-2" data-name="Capa 1"><rect class="cls-1" x="0.75" y="0.75" width="186.49" height="98.39" rx="12"/><path class="cls-1" d="M187.24,76.78h41.14a5.38,5.38,0,0,1,5.37,5.36V169.8a5.38,5.38,0,0,1-5.37,5.36H52.63a5.38,5.38,0,0,1-5.37-5.36V99.14"/><rect class="cls-2" x="8.13" y="13.5" width="55.9" height="78.26" rx="8.46"/><rect class="cls-2" x="125.3" y="18.42" width="30.86" height="5.37" rx="2.68"/><rect class="cls-2" x="74.76" y="29.6" width="95.26" height="5.37" rx="2.68"/><rect class="cls-2" x="92.21" y="54.64" width="69.32" height="5.81" rx="2.91"/><rect class="cls-2" x="92.21" y="65.82" width="77.82" height="5.81" rx="2.91"/><rect class="cls-2" x="77.45" y="114.57" width="69.32" height="5.81" rx="2.91"/><rect class="cls-2" x="77.45" y="125.75" width="77.82" height="5.81" rx="2.91"/><rect class="cls-2" x="74.76" y="65.82" width="11.18" height="5.81" rx="2.91"/><rect class="cls-2" x="74.76" y="54.64" width="11.18" height="5.81" rx="2.91"/><rect class="cls-2" x="60.9" y="114.57" width="11.63" height="5.81" rx="2.91"/><rect class="cls-2" x="60.9" y="125.75" width="11.63" height="5.81" rx="2.91"/><path class="cls-1" d="M49.07,42.65c0,9.76-7,17.68-12.87,17.68-5,0-12.88-7.92-12.88-17.68S29.08,28,36.2,28,49.07,32.89,49.07,42.65Z"/><path class="cls-1" d="M43.6,59.54a41,41,0,0,1-7.4,7.55,40.88,40.88,0,0,1-7.41-7.55c-8.24,4-14.12,13.07-14.12,13.07A64.17,64.17,0,0,0,36.2,76.48a64.07,64.07,0,0,0,21.52-3.87S51.84,63.52,43.6,59.54Z"/></g></g></svg>