<svg xmlns="http://www.w3.org/2000/svg" xmlns:xlink="http://www.w3.org/1999/xlink" viewBox="0 0 190 190"><defs><style>.cls-1,.cls-3{fill:none;}.cls-2{fill:#fff;}.cls-3,.cls-4{stroke:#163d6b;stroke-linecap:round;stroke-linejoin:round;stroke-width:1.5px;}.cls-4{fill:#d2e3ff;}.cls-5{fill:#ea0029;}.cls-6{fill:#bdd0fb;}.cls-7{fill:url(#linear-gradient);}.cls-8{fill:url(#linear-gradient-2);}.cls-9{fill:#f4f7fa;}.cls-10{fill:url(#linear-gradient-3);}.cls-11{fill:url(#linear-gradient-4);}.cls-12{fill:url(#linear-gradient-5);}.cls-13{fill:url(#linear-gradient-6);}.cls-14{fill:url(#linear-gradient-7);}.cls-15{clip-path:url(#clip-path);}.cls-16{fill:url(#linear-gradient-8);}.cls-17{fill:url(#linear-gradient-9);}.cls-18{fill:url(#linear-gradient-10);}.cls-19{fill:url(#linear-gradient-11);}.cls-20{fill:url(#linear-gradient-12);}.cls-21{fill:url(#linear-gradient-13);}.cls-22{fill:url(#linear-gradient-14);}.cls-23{fill:url(#linear-gradient-15);}.cls-24{fill:url(#linear-gradient-16);}.cls-25{fill:url(#linear-gradient-17);}.cls-26{fill:url(#linear-gradient-18);}.cls-27{fill:url(#linear-gradient-19);}.cls-28{fill:url(#linear-gradient-20);}.cls-29{fill:url(#linear-gradient-21);}.cls-30{fill:url(#linear-gradient-22);}.cls-31{fill:url(#linear-gradient-23);}.cls-32{fill:url(#linear-gradient-24);}.cls-33{fill:url(#linear-gradient-25);}</style><linearGradient id="linear-gradient" x1="185.72" y1="-49.55" x2="175.75" y2="-22.68" gradientUnits="userSpaceOnUse"><stop offset="0" stop-color="#ff928e"/><stop offset="1" stop-color="#fe7062"/></linearGradient><linearGradient id="linear-gradient-2" x1="159.22" y1="87.6" x2="182.21" y2="7.51" gradientTransform="translate(-20.49 0.29) rotate(-0.14)" gradientUnits="userSpaceOnUse"><stop offset="0" stop-color="#febbba"/><stop offset="1" stop-color="#ff928e"/></linearGradient><linearGradient id="linear-gradient-3" x1="154.79" y1="100" x2="177.78" y2="19.91" gradientTransform="matrix(1, -0.01, 0, 1, -17.62, -9.72)" xlink:href="#linear-gradient-2"/><linearGradient id="linear-gradient-4" x1="155.63" y1="100.24" x2="178.62" y2="20.15" gradientTransform="matrix(1, -0.01, 0, 1, -17.62, -9.72)" xlink:href="#linear-gradient-2"/><linearGradient id="linear-gradient-5" x1="156.47" y1="100.48" x2="179.46" y2="20.39" gradientTransform="matrix(1, -0.01, 0, 1, -17.44, -10.29)" xlink:href="#linear-gradient-2"/><linearGradient id="linear-gradient-6" x1="185.79" y1="-49.53" x2="175.82" y2="-22.66" xlink:href="#linear-gradient"/><linearGradient id="linear-gradient-7" x1="159.26" y1="87.62" x2="182.25" y2="7.52" xlink:href="#linear-gradient-2"/><clipPath id="clip-path"><rect class="cls-1" x="34.17" y="28.68" width="51.03" height="55.07" rx="12"/></clipPath><linearGradient id="linear-gradient-8" x1="76.7" y1="56.54" x2="84.32" y2="81.99" gradientUnits="userSpaceOnUse"><stop offset="0" stop-color="#09005d"/><stop offset="1" stop-color="#1a0f91"/></linearGradient><linearGradient id="linear-gradient-9" x1="33.24" y1="64.61" x2="40.98" y2="90.43" xlink:href="#linear-gradient-8"/><linearGradient id="linear-gradient-10" x1="115.11" y1="-75.76" x2="105.14" y2="-48.89" xlink:href="#linear-gradient"/><linearGradient id="linear-gradient-11" x1="59.08" y1="55.7" x2="60.24" y2="75.13" gradientTransform="matrix(1, 0, 0, 1, 0, 0)" xlink:href="#linear-gradient-2"/><linearGradient id="linear-gradient-12" x1="56.8" y1="40.18" x2="73.06" y2="61.88" gradientTransform="matrix(1, 0, 0, 1, 0, 0)" xlink:href="#linear-gradient-2"/><linearGradient id="linear-gradient-13" x1="61.57" y1="36.6" x2="77.84" y2="58.3" gradientTransform="matrix(1, 0, 0, 1, 0, 0)" xlink:href="#linear-gradient-2"/><linearGradient id="linear-gradient-14" x1="51.24" y1="44.34" x2="67.51" y2="66.04" gradientTransform="matrix(1, 0, 0, 1, 0, 0)" xlink:href="#linear-gradient-2"/><linearGradient id="linear-gradient-15" x1="51.02" y1="47.67" x2="66.81" y2="47.67" xlink:href="#linear-gradient-8"/><linearGradient id="linear-gradient-16" x1="59.03" y1="53.54" x2="59.03" y2="24.26" xlink:href="#linear-gradient-8"/><linearGradient id="linear-gradient-17" x1="43.96" y1="60.25" x2="52.18" y2="87.68" xlink:href="#linear-gradient-8"/><linearGradient id="linear-gradient-18" x1="70.52" y1="52.74" x2="79.52" y2="82.75" xlink:href="#linear-gradient-8"/><linearGradient id="linear-gradient-19" x1="124.73" y1="77.66" x2="118.54" y2="94.35" xlink:href="#linear-gradient"/><linearGradient id="linear-gradient-20" x1="115.76" y1="162.79" x2="130.05" y2="113.04" xlink:href="#linear-gradient-2"/><linearGradient id="linear-gradient-21" x1="111.88" y1="174.42" x2="126.16" y2="124.67" gradientTransform="matrix(1, -0.01, 0, 1, -17.62, -9.72)" xlink:href="#linear-gradient-2"/><linearGradient id="linear-gradient-22" x1="112.4" y1="174.57" x2="126.69" y2="124.82" gradientTransform="matrix(1, -0.01, 0, 1, -17.62, -9.72)" xlink:href="#linear-gradient-2"/><linearGradient id="linear-gradient-23" x1="112.93" y1="174.72" x2="127.21" y2="124.97" gradientTransform="matrix(1, -0.01, 0, 1, -17.13, -10.13)" xlink:href="#linear-gradient-2"/><linearGradient id="linear-gradient-24" x1="124.77" y1="77.67" x2="118.58" y2="94.37" xlink:href="#linear-gradient"/><linearGradient id="linear-gradient-25" x1="115.79" y1="162.8" x2="130.07" y2="113.05" xlink:href="#linear-gradient-2"/></defs><g id="Capa_2" data-name="Capa 2"><g id="Capa_1-2" data-name="Capa 1"><rect class="cls-2" width="190" height="190"/><path class="cls-3" d="M169,20.51,167.38,89l-.25,10.6a2.53,2.53,0,0,1-2.52,2.51H28.36a2.52,2.52,0,0,1-2.52-2.51L25.68,89l-1-67.69a4.38,4.38,0,0,1,4.62-3.88L162.48,14a6.37,6.37,0,0,1,4.65,1.86A6.3,6.3,0,0,1,169,20.51Z"/><path class="cls-4" d="M163.8,97.5a2.38,2.38,0,0,1-2.4,2.35H31.6a2.38,2.38,0,0,1-2.4-2.35L28.12,24.43a4.17,4.17,0,0,1,4.4-3.63l126.85-3.21a6.1,6.1,0,0,1,4.43,1.73,5.82,5.82,0,0,1,1.78,4.33Z"/><path class="cls-5" d="M138.54,29c0,1.2-.67,2.19-1.43,2.2l-45,.27c-.85,0-1.54-1-1.53-2.33h0c0-1.29.7-2.35,1.56-2.35h45.11c.76,0,1.35,1,1.31,2.21Z"/><path class="cls-5" d="M138.06,81c0,1.21-.66,2.16-1.41,2.16l-44.39.25c-.84,0-1.52-1-1.52-2.26h0c0-1.28.7-2.27,1.54-2.27h44.48c.75,0,1.33.92,1.3,2.12Z"/><path class="cls-5" d="M138.06,72.67c0,1.2-.66,2.14-1.41,2.15l-44.57.24c-.85,0-1.53-1-1.52-2.25h0c0-1.28.7-2.25,1.54-2.25h44.66c.75,0,1.34.9,1.3,2.11Z"/><path class="cls-5" d="M138.54,38.23a2.3,2.3,0,0,1-2.49,1.84l-42.94.36c-1.42,0-2.56-.82-2.55-1.85v-.12c0-1,1.17-1.89,2.59-1.89l43-.26c1.34,0,2.41.8,2.37,1.81Z"/><path class="cls-5" d="M138.38,47.27a2.31,2.31,0,0,1-2.49,1.82l-42.83.33c-1.41,0-2.55-.82-2.53-1.84v-.12c0-1,1.18-1.87,2.59-1.87L136,45.36c1.34,0,2.39.8,2.35,1.8Z"/><path class="cls-6" d="M161.32,100.29h-14.6a.19.19,0,1,1,0-.37h14.6a3.54,3.54,0,0,0,3.31-3.65V51.35a.18.18,0,0,1,.19-.18.18.18,0,0,1,.18.18V96.27A3.92,3.92,0,0,1,161.32,100.29Z"/><path class="cls-6" d="M28.35,51.35a.18.18,0,0,1-.19-.18v-26a4.57,4.57,0,0,1,4.64-4.69H44.41a.19.19,0,1,1,0,.37H32.8a4.16,4.16,0,0,0-4.27,4.32v26A.18.18,0,0,1,28.35,51.35Z"/><path class="cls-7" d="M157.18,48.82l-9.72.09a3.26,3.26,0,0,1-3.26-3.27l0-9.9a3.24,3.24,0,0,1,3.25-3.27l9.72.1a3.25,3.25,0,0,1,3.16,3.27l0,9.71A3.23,3.23,0,0,1,157.18,48.82Z"/><path class="cls-8" d="M156.5,47.89l-8.35.06a3,3,0,0,1-3-3l0-8.49a3,3,0,0,1,3-3l8.35.08a3,3,0,0,1,2.93,3l0,8.35A3,3,0,0,1,156.5,47.89Zm-8.39-14a2.56,2.56,0,0,0-2.57,2.59l0,8.49a2.59,2.59,0,0,0,2.59,2.6l8.35-.06a2.56,2.56,0,0,0,2.5-2.6l0-8.35a2.58,2.58,0,0,0-2.52-2.6Z"/><path class="cls-9" d="M145.33,37.49l13.86.06Z"/><polygon class="cls-10" points="159.19 37.76 145.34 37.7 145.33 37.28 159.19 37.35 159.19 37.76"/><path class="cls-9" d="M145.34,40.69h0Z"/><polygon class="cls-11" points="159.2 40.9 145.34 40.9 145.34 40.48 159.19 40.49 159.2 40.9"/><path class="cls-9" d="M145.35,43.88l13.85,0Z"/><rect class="cls-12" x="145.35" y="43.65" width="13.85" height="0.42" transform="translate(-0.15 0.51) rotate(-0.19)"/><path class="cls-13" d="M154.27,46.18l-3.87,0a1.8,1.8,0,0,1-1.8-1.82l0-7.39a1.79,1.79,0,0,1,1.79-1.81l3.87,0A1.82,1.82,0,0,1,156,37l0,7.33A1.8,1.8,0,0,1,154.27,46.18Z"/><path class="cls-14" d="M154.27,46.39l-3.87,0a2,2,0,0,1-2-2l0-7.39a2,2,0,0,1,2-2l3.87,0a2,2,0,0,1,2,2v7.33A2,2,0,0,1,154.27,46.39Zm-3.9-11A1.58,1.58,0,0,0,148.79,37v7.38A1.6,1.6,0,0,0,150.4,46l3.87,0a1.59,1.59,0,0,0,1.57-1.61l0-7.33a1.61,1.61,0,0,0-1.58-1.62Z"/><rect class="cls-2" x="34.19" y="28.68" width="51.03" height="55.07" rx="12"/><g class="cls-15"><path class="cls-16" d="M89.7,81.6a69.42,69.42,0,0,0-5.61-17L78.76,83.09s.09.21.24.67l8.89,0A1.83,1.83,0,0,0,89.7,81.6Z"/><path class="cls-17" d="M43.51,83.76c.58-2.09,1-3.43,1-3.43L35.82,64.58s-2,2.36-4.11,15.94a2.78,2.78,0,0,0,2.72,3.24Z"/><path class="cls-18" d="M73.54,83.76,71.18,59c-10.56-3.91-23.88.46-23.88.46L46.2,83.76Z"/><path class="cls-19" d="M54.22,51.15,54,57.69a1.49,1.49,0,0,0,1,1.45,13.12,13.12,0,0,0,8.42.31,1.49,1.49,0,0,0,1-1.61l-1-6.69Z"/><path class="cls-20" d="M50.87,39.21S52,50.92,54.55,53.9c0,0,7.57.69,10.33-.91A43.62,43.62,0,0,0,66.6,39.32s.38-7.1-7.46-7.69C50,30.94,50.87,39.21,50.87,39.21Z"/><path class="cls-21" d="M65.8,42.88s.69-2.07,1.84-2.07-.23,5.52-1.84,5.52Z"/><path class="cls-22" d="M51.92,43.42s-1-2-2.1-1.8,1,5.43,2.56,5.22Z"/><path class="cls-23" d="M51,40.67s.9,11.26,4,15.19a1.52,1.52,0,0,0,1.12.6A36.93,36.93,0,0,0,64,56.19,1.65,1.65,0,0,0,65.18,55a14.58,14.58,0,0,0,.64-2.3c.08-1.74.48-6.58,1-13.19l-.47-.74C66.2,40.32,65.27,50,63.78,50.26a2.16,2.16,0,0,1-.66,0c-.9-.18-1.17-.89-1.8-1.35a3.58,3.58,0,0,0-4,.2,5.08,5.08,0,0,1-1.47,1.12,2.89,2.89,0,0,1-1.09.26c-1.08,0-2.16-4.3-2.76-10.1Z"/><path class="cls-24" d="M63.5,36.28s-5.85,5.08-12.22,5.06c0,0-3.62-8.16,3.5-9.51s7.34.38,7.34.38,8.33-1.72,4.63,8.25Z"/><path class="cls-25" d="M43.48,83.76h6.27l3-25.63c-8.24.75-16.94,6.45-16.94,6.45L42.3,80.31A30.5,30.5,0,0,1,43.48,83.76Z"/><path class="cls-26" d="M79.21,83.76a40.1,40.1,0,0,1,1.26-4.2l3.62-15c-7.21-5.63-18.5-6.95-18.5-6.95l4.22,26.13Z"/></g><path class="cls-3" d="M114.34,121.18l-1,42.57-.15,6.58a1.57,1.57,0,0,1-1.57,1.56H27a1.56,1.56,0,0,1-1.56-1.56l-.1-6.58-.61-42a2.73,2.73,0,0,1,2.87-2.41l82.72-2.14a3.95,3.95,0,0,1,4,4Z"/><path class="cls-4" d="M111.11,169a1.48,1.48,0,0,1-1.49,1.46H29A1.48,1.48,0,0,1,27.5,169l-.67-45.39a2.57,2.57,0,0,1,2.73-2.25l78.8-2a3.78,3.78,0,0,1,2.75,1.07,3.66,3.66,0,0,1,1.11,2.69Z"/><path class="cls-5" d="M95.12,158.76c0,.74-.41,1.33-.88,1.34l-27.57.15c-.52,0-.94-.61-.94-1.4h0c0-.8.43-1.41,1-1.41H94.32c.46,0,.82.57.8,1.32Z"/><path class="cls-5" d="M95.12,153.58c0,.75-.41,1.34-.88,1.34l-27.68.15c-.53,0-1-.6-1-1.39h0c0-.8.44-1.41,1-1.41H94.32c.46,0,.82.56.8,1.31Z"/><path class="cls-5" d="M95.42,132.19c0,.63-1.42,1.14-3.08,1.15l-53.06.22c-1.75,0-3.16-.51-3.15-1.15v-.08c0-.64,1.45-1.17,3.2-1.17L92.49,131c1.66,0,3,.5,2.93,1.12Z"/><path class="cls-5" d="M95.32,137.79c0,.62-1.38,1.12-3,1.13l-51.44,0c-1.7,0-3.06-.52-3-1.15v-.08c0-.63,1.41-1.15,3.11-1.15l51.53,0c1.61,0,2.87.5,2.83,1.12Z"/><path class="cls-6" d="M109.57,170.74H100.5a.11.11,0,0,1-.11-.11.11.11,0,0,1,.11-.12h9.07a2.19,2.19,0,0,0,2.06-2.26V140.34a.11.11,0,0,1,.11-.11.11.11,0,0,1,.12.11v27.91A2.43,2.43,0,0,1,109.57,170.74Z"/><path class="cls-6" d="M27,140.34a.11.11,0,0,1-.12-.11V124.09a2.84,2.84,0,0,1,2.88-2.91H37a.12.12,0,0,1,.11.12.11.11,0,0,1-.11.11H29.73a2.58,2.58,0,0,0-2.65,2.68v16.14A.11.11,0,0,1,27,140.34Z"/><path class="cls-27" d="M107,138.77l-6,0a2,2,0,0,1-2-2v-6.15a2,2,0,0,1,2-2l6,.06a2,2,0,0,1,2,2v6A2,2,0,0,1,107,138.77Z"/><path class="cls-28" d="M106.57,138.19l-5.18,0a1.86,1.86,0,0,1-1.87-1.87v-5.28a1.85,1.85,0,0,1,1.86-1.87l5.18,0a1.87,1.87,0,0,1,1.82,1.88v5.19A1.84,1.84,0,0,1,106.57,138.19Zm-5.2-8.72a1.59,1.59,0,0,0-1.6,1.61v5.27a1.61,1.61,0,0,0,1.61,1.62l5.18,0a1.59,1.59,0,0,0,1.56-1.61v-5.19a1.6,1.6,0,0,0-1.57-1.62Z"/><path class="cls-9" d="M99.64,131.73l8.61,0Z"/><polygon class="cls-29" points="108.25 131.9 99.64 131.87 99.64 131.6 108.25 131.64 108.25 131.9"/><path class="cls-9" d="M99.65,133.72h0Z"/><polygon class="cls-30" points="108.25 133.85 99.65 133.85 99.64 133.59 108.25 133.59 108.25 133.85"/><path class="cls-9" d="M99.65,135.7l8.61,0Z"/><rect class="cls-31" x="99.65" y="135.56" width="8.61" height="0.26" transform="translate(-0.45 0.35) rotate(-0.19)"/><path class="cls-32" d="M105.19,137.13h-2.4a1.11,1.11,0,0,1-1.12-1.13v-4.59a1.12,1.12,0,0,1,1.11-1.13l2.4,0a1.14,1.14,0,0,1,1.11,1.14V136A1.12,1.12,0,0,1,105.19,137.13Z"/><path class="cls-33" d="M105.19,137.26h-2.4a1.25,1.25,0,0,1-1.25-1.26v-4.59a1.24,1.24,0,0,1,1.24-1.26l2.4,0a1.27,1.27,0,0,1,1.24,1.27V136A1.25,1.25,0,0,1,105.19,137.26Zm-2.42-6.84a1,1,0,0,0-1,1l0,4.59a1,1,0,0,0,1,1h2.4a1,1,0,0,0,1-1v-4.55a1,1,0,0,0-1-1Z"/></g></g></svg>