<svg xmlns="http://www.w3.org/2000/svg" viewBox="0 0 753.35 397.81">
  <defs>
    <style>.cls-1{fill:#e8f2fa;}.cls-2{fill:#d5e7ff;}.cls-3{fill:#f3faff;}.cls-4{fill:#88acf4;}.cls-5{fill:#dceaff;}.cls-6{fill:#97c0f8;}.cls-7{fill:#ff8459;}.cls-8{fill:#b8c8fc;}.cls-9{fill:#32478f;}.cls-10{fill:#2a3967;}.cls-11{fill:#dae6ff;}.cls-12{fill:#6d76ff;}.cls-13{fill:#c8e1ff;}.cls-14{fill:#9bc7f7;}.cls-15,.cls-16{fill:#b6d7ff;}.cls-15{opacity:0.5;}.cls-17{fill:#ff7536;}.cls-18{fill:#ffb600;}.cls-19{fill:#ff9f00;}.cls-20{fill:#75a3ef;}.cls-21{fill:#100259;}.cls-22{fill:#b1c5ea;}.cls-23{fill:#e7efff;}.cls-24{fill:#ff912b;}.cls-25{fill:#f9924f;}.cls-26{fill:#ffae73;}.cls-27{fill:#25468f;}.cls-28{fill:#fff;}.cls-29{fill:#f0f6ff;}.cls-30{fill:#bed9e9;}.cls-31{fill:#dceaf5;}.cls-32{fill:#1e3865;}</style>
  </defs>
  <g id="Capa_2" data-name="Capa 2">
    <g id="Capa_1-2" data-name="Capa 1">
      <path class="cls-1" d="M709.54,396.81c-43.06,0-670.31.13-670.68-.82l-.06-.12a.52.52,0,0,1-.06-.17C38.5,395.22-57.9,262.06,92,169.35c58.64-36.27-3.67-60.21,43-100.59C188.52,22.35,247,73.69,306.6,52.64a97.53,97.53,0,0,0,31.67-18.86,116,116,0,0,1,19.47-13.57c1.07-.6,2.15-1.18,3.24-1.75a139,139,0,0,1,13-5.92q4.5-1.78,9.17-3.3h0c4.94-1.6,10-3,15.2-4.15A200.68,200.68,0,0,1,421,1.36c3.38-.37,6.77-.66,10.2-.88,66.58-4.2,141.52,19.44,180.19,54,7.79,7,43.19,43,15.28,92.43-17.62,31.24,56.2,61.08,82.43,96.75C775.8,334.35,710.15,395.63,709.54,396.81Z" />
      <rect class="cls-2" x="351.71" y="163.08" width="39.18" height="39.18" transform="translate(-29.72 80.6) rotate(-11.92)" />
      <rect class="cls-3" x="357.95" y="173.38" width="39.18" height="39.18" transform="translate(90.48 -119.07) rotate(20.31)" />
      <rect class="cls-4" x="304.1" y="78.91" width="58.88" height="61.31" rx="15.7" />
      <rect class="cls-5" x="306.65" y="81.57" width="53.78" height="56" rx="14.34" />
      <path class="cls-4" d="M332.32,87.16a1.22,1.22,0,1,1,1.22,1.31A1.27,1.27,0,0,1,332.32,87.16Z" />
      <path class="cls-4" d="M342.16,89a1.17,1.17,0,0,1,1.66-.5,1.35,1.35,0,0,1,.47,1.78,1.17,1.17,0,0,1-1.66.5A1.36,1.36,0,0,1,342.16,89Z" />
      <path class="cls-4" d="M350.59,96.2a1.18,1.18,0,0,1,1.69.39,1.37,1.37,0,0,1-.37,1.81,1.16,1.16,0,0,1-1.68-.39A1.37,1.37,0,0,1,350.59,96.2Z" />
      <path class="cls-4" d="M354.77,107.33a1.31,1.31,0,1,1-1.22,1.31A1.27,1.27,0,0,1,354.77,107.33Z" />
      <path class="cls-4" d="M352.64,120.24a1.4,1.4,0,0,1,0,1.86,1.17,1.17,0,0,1-1.73,0,1.38,1.38,0,0,1,0-1.86A1.17,1.17,0,0,1,352.64,120.24Z" />
      <path class="cls-4" d="M345,128.49a1.39,1.39,0,0,1,0,1.85,1.17,1.17,0,0,1-1.73,0,1.39,1.39,0,0,1,0-1.85A1.15,1.15,0,0,1,345,128.49Z" />
      <path class="cls-4" d="M332.32,132.73a1.22,1.22,0,1,1,1.22,1.31A1.27,1.27,0,0,1,332.32,132.73Z" />
      <path class="cls-4" d="M324.88,89a1.17,1.17,0,0,0-1.66-.5,1.35,1.35,0,0,0-.47,1.78,1.17,1.17,0,0,0,1.66.5A1.36,1.36,0,0,0,324.88,89Z" />
      <path class="cls-4" d="M316.45,96.2a1.18,1.18,0,0,0-1.69.39,1.37,1.37,0,0,0,.37,1.81,1.16,1.16,0,0,0,1.68-.39A1.37,1.37,0,0,0,316.45,96.2Z" />
      <path class="cls-4" d="M312.27,107.33a1.31,1.31,0,1,0,1.22,1.31A1.27,1.27,0,0,0,312.27,107.33Z" />
      <path class="cls-4" d="M314.4,120.24a1.4,1.4,0,0,0,0,1.86,1.17,1.17,0,0,0,1.73,0,1.4,1.4,0,0,0,0-1.86A1.17,1.17,0,0,0,314.4,120.24Z" />
      <path class="cls-4" d="M322.06,128.49a1.39,1.39,0,0,0,0,1.85,1.17,1.17,0,0,0,1.73,0,1.39,1.39,0,0,0,0-1.85A1.15,1.15,0,0,0,322.06,128.49Z" />
      <path class="cls-4" d="M333.21,108.64a1.22,1.22,0,1,1,1.22,1.31A1.27,1.27,0,0,1,333.21,108.64Z" />
      <rect class="cls-4" x="334.26" y="92.29" width="0.33" height="16.35" />
      <polygon class="cls-4" points="334.58 109.04 333.97 108.19 342.05 101.39 342.66 102.23 334.58 109.04" />
      <path class="cls-6" d="M455.53,64.41l-1.61-.89a3.57,3.57,0,0,1-1.42-4.85L460,45.08a3.58,3.58,0,0,1,4.86-1.41l2.31,1.27a.7.7,0,0,1,.28,1,.71.71,0,0,1-.95.28l-2.32-1.28a2.18,2.18,0,0,0-2.95.87l-7.45,13.58a2.17,2.17,0,0,0,.86,2.95l1.62.89a2.17,2.17,0,0,0,3-.86l4.95-9a.7.7,0,1,1,1.22.68l-4.94,9A3.58,3.58,0,0,1,455.53,64.41Z" />
      <path class="cls-6" d="M448.62,78.68l-2.9-1.6a5.78,5.78,0,0,1-2-7.91l11.21-20.43a.68.68,0,0,1,.94-.27.69.69,0,0,1,.28,1l-11.2,20.42a4.4,4.4,0,0,0,1.46,6l2.9,1.59a4.39,4.39,0,0,0,5.86-2l12.76-23.27a4.38,4.38,0,0,0-1.46-6,.7.7,0,1,1,.67-1.23,5.79,5.79,0,0,1,2,7.92L456.38,76.12A5.8,5.8,0,0,1,448.62,78.68Z" />
      <path class="cls-7" d="M569.32,122.48l1.28-1.33a3.58,3.58,0,0,1,5.06-.09l11.15,10.76a3.58,3.58,0,0,1,.08,5.05l-1.83,1.91a.71.71,0,0,1-1,0,.7.7,0,0,1,0-1l1.84-1.9a2.18,2.18,0,0,0-.06-3.08l-11.14-10.75a2.18,2.18,0,0,0-3.08.05l-1.28,1.33a2.18,2.18,0,0,0,0,3.08l7.4,7.14a.7.7,0,0,1,0,1,.71.71,0,0,1-1,0l-7.4-7.14A3.57,3.57,0,0,1,569.32,122.48Z" />
      <path class="cls-7" d="M557.37,112.06l2.3-2.39a5.79,5.79,0,0,1,8.17.14L584.6,126a.7.7,0,0,1,0,1,.71.71,0,0,1-1,0l-16.76-16.17a4.39,4.39,0,0,0-6.19-.17l-2.3,2.38a4.4,4.4,0,0,0,.39,6.18l19.09,18.42a4.39,4.39,0,0,0,6.19.17.71.71,0,0,1,1,0,.7.7,0,0,1,0,1,5.79,5.79,0,0,1-8.17-.14L557.8,120.21A5.78,5.78,0,0,1,557.37,112.06Z" />
      <path class="cls-2" d="M315.26,257.84S313,220,306.43,208.2h34.42v49.56Z" />
      <path class="cls-8" d="M332.46,257.84s-2.28-37.81-8.82-49.64h34.42v49.56Z" />
      <rect class="cls-9" x="345.42" y="187.86" width="33.31" height="107.47" />
      <rect class="cls-10" x="378.73" y="187.86" width="80.34" height="107.47" />
      <circle class="cls-11" cx="362.07" cy="201.28" r="5.56" />
      <circle class="cls-12" cx="362.07" cy="201.28" r="3.93" />
      <rect class="cls-4" x="354.36" y="214.67" width="15.67" height="28.31" />
      <rect class="cls-13" x="402.94" y="237.16" width="63.93" height="20.61" />
      <rect class="cls-14" x="466.87" y="237.16" width="63.93" height="20.61" />
      <rect class="cls-4" x="402.94" y="247.24" width="15.95" height="0.45" />
      <rect class="cls-4" x="422.8" y="240.9" width="44.06" height="0.45" />
      <rect class="cls-4" x="402.94" y="252.78" width="28.2" height="0.45" />
      <rect class="cls-2" x="383.12" y="216.55" width="63.93" height="20.61" />
      <rect class="cls-8" x="447.04" y="216.55" width="63.93" height="20.61" />
      <rect class="cls-4" x="383.12" y="226.63" width="15.95" height="0.45" />
      <rect class="cls-4" x="402.98" y="220.29" width="44.06" height="0.45" />
      <rect class="cls-4" x="383.12" y="232.18" width="28.2" height="0.45" />
      <rect class="cls-15" x="418.89" y="158.46" width="63.93" height="20.61" />
      <rect class="cls-14" x="482.82" y="158.46" width="63.93" height="20.61" />
      <rect class="cls-4" x="418.89" y="168.54" width="15.95" height="0.45" />
      <rect class="cls-4" x="438.76" y="162.2" width="44.06" height="0.45" />
      <rect class="cls-4" x="418.89" y="173.8" width="28.2" height="0.45" />
      <rect class="cls-3" x="399.07" y="137.85" width="63.93" height="20.61" />
      <rect class="cls-16" x="462.99" y="137.85" width="63.93" height="20.61" />
      <rect class="cls-4" x="399.07" y="147.93" width="15.95" height="0.45" />
      <rect class="cls-4" x="459.7" y="147.93" width="15.95" height="0.45" />
      <rect class="cls-4" x="453.8" y="141.59" width="44.06" height="0.45" />
      <rect class="cls-4" x="399.07" y="153.48" width="28.2" height="0.45" />
      <rect class="cls-16" x="471.08" y="179.04" width="63.93" height="37.51" transform="translate(1006.09 395.59) rotate(180)" />
      <rect class="cls-3" x="407.16" y="179.04" width="63.93" height="37.51" transform="translate(878.24 395.59) rotate(180)" />
      <rect class="cls-4" x="519.06" y="197.49" width="15.95" height="0.6" />
      <rect class="cls-9" x="427.27" y="186.09" width="87.88" height="0.33" />
      <rect class="cls-4" x="506.81" y="207.59" width="28.2" height="0.6" />
      <rect class="cls-9" x="452.52" y="192.81" width="30.3" height="0.33" />
      <rect class="cls-17" x="374.33" y="257.84" width="188.21" height="139.06" />
      <rect class="cls-7" x="312.45" y="257.84" width="149.23" height="139.06" />
      <rect class="cls-10" x="354.88" y="271.28" width="47.36" height="9.27" rx="4.63" />
      <rect class="cls-6" x="369.18" y="304.76" width="35.78" height="35.78" transform="translate(61.63 -62.08) rotate(9.96)" />
      <rect class="cls-4" x="371.77" y="304.98" width="35.78" height="5.78" transform="translate(59.12 -62.75) rotate(9.96)" />
      <rect class="cls-18" x="413.26" y="277.43" width="35.78" height="35.78" transform="matrix(0.97, -0.25, 0.25, 0.97, -60.89, 119.23)" />
      <rect class="cls-19" x="409.44" y="277.93" width="35.78" height="5.78" transform="translate(-57.33 117.79) rotate(-14.72)" />
      <path class="cls-4" d="M313.34,219.16a45.2,45.2,0,0,0-3.8-10.89l.29-.15a45.75,45.75,0,0,1,3.83,11Z" />
      <path class="cls-4" d="M321.78,232.67a104.35,104.35,0,0,0-6.28-24.41l.3-.13a104.74,104.74,0,0,1,6.31,24.5Z" />
      <rect class="cls-4" x="538.34" y="292.05" width="141.79" height="104.76" />
      <rect class="cls-6" x="491.73" y="292.05" width="112.42" height="104.76" />
      <rect class="cls-9" x="523.69" y="302.17" width="35.68" height="6.98" rx="3.49" />
      <rect class="cls-16" x="486.21" y="274.23" width="117.93" height="23.08" />
      <rect class="cls-20" x="604.14" y="274.23" width="79.52" height="23.08" />
      <rect class="cls-7" x="557.22" y="318.05" width="37.28" height="37.28" transform="translate(-66.65 157.36) rotate(-14.72)" />
      <rect class="cls-17" x="553.25" y="318.56" width="37.28" height="6.03" transform="translate(-62.94 155.86) rotate(-14.72)" />
      <polygon class="cls-17" points="564.67 227.2 594.24 203.4 638.1 208.76 638.1 227.2 564.67 227.2" />
      <rect class="cls-7" x="545.51" y="178.58" width="24.03" height="73.43" transform="translate(772.82 -342.23) rotate(90)" />
      <path class="cls-11" d="M585.07,211.56a3.8,3.8,0,1,1-3.8,3.8A3.8,3.8,0,0,1,585.07,211.56Z" />
      <path class="cls-21" d="M585.07,213.23a2.13,2.13,0,1,1-2.13,2.13A2.12,2.12,0,0,1,585.07,213.23Z" />
      <rect class="cls-16" x="559.2" y="204.08" width="10.71" height="22.73" transform="translate(779.99 -349.11) rotate(90)" />
      <rect class="cls-11" x="525.22" y="250.77" width="72.77" height="23.46" />
      <rect class="cls-22" x="597.99" y="250.77" width="72.77" height="23.46" />
      <rect class="cls-9" x="525.22" y="262.24" width="18.16" height="0.51" />
      <rect class="cls-9" x="547.83" y="255.03" width="50.16" height="0.51" />
      <rect class="cls-9" x="525.22" y="268.56" width="32.1" height="0.51" />
      <rect class="cls-23" x="502.65" y="227.31" width="72.77" height="23.46" />
      <rect class="cls-8" x="575.42" y="227.31" width="72.77" height="23.46" />
      <rect class="cls-4" x="502.65" y="238.79" width="18.16" height="0.51" />
      <rect class="cls-4" x="525.26" y="231.57" width="50.16" height="0.51" />
      <rect class="cls-4" x="502.65" y="245.1" width="32.1" height="0.51" />
      <path class="cls-24" d="M123.65,165.35a3.05,3.05,0,0,1-2.64-1,2.31,2.31,0,0,1-.28-1.78c1.32-7,24.28-26.84,54.61-47.24,29.6-19.9,62.41-37.31,66.1-32a2.24,2.24,0,0,1,.27,1.77c-1.31,7-24.28,26.84-54.6,47.24C161.18,149.83,132.77,165.35,123.65,165.35Zm-2.1-1.34c1.38,2,9.29-.29,21.17-6.1,12.39-6,28-15.31,44-26.07,29.71-20,53.06-40.1,54.32-46.81a1.65,1.65,0,0,0-.16-1.28c-1.38-2-9.3.29-21.18,6.1-12.38,6.05-28,15.31-44,26.07-29.7,20-53,40.1-54.32,46.81a1.69,1.69,0,0,0,.17,1.28Z" />
      <path class="cls-10" d="M291.14,269.63c-20.62-6.62-152.16,50-152.16,50s-21.41,15.21-1,47c17,26.44,144.72-54.31,147-44.17,5.52,24.22,52.64,70.68,52.64,70.68,7.87,2.58,25.39-7.93,25.39-7.93C344.69,357.28,307.61,274.92,291.14,269.63Z" />
      <path class="cls-25" d="M224.1,180.46a24.71,24.71,0,0,1-3.35-9.19c-.47-4.63.26-17.65-3-20.69s-13.59-10.56-17.31-9,8.49,9.13,8.86,12.94.14,4.23-1.28,4.48-6.13-5.34-6.15-3.56,4.58,11.57,6.86,13.54,5.69,17.05,5.69,17.05Z" />
      <path class="cls-4" d="M224.1,174s-12.18,0-14.24,9.83c0,0,.62,33.33,5,63.18-26.27-24.82-16.54-24.44-37.9-40.61-8.67-6.57-16.49,16-16.28,32s56,52.52,70.31,48C246.55,281.59,249.74,246.73,224.1,174Z" />
      <path class="cls-10" d="M448.53,395.69c.07-.05.45-.55.53-.62l24.72-41.53a2.15,2.15,0,0,0-1.38-3.24,9.69,9.69,0,0,0-9.77,3.56c-4.95,6.43-15.63,16.43-26.12,14.28l-1-.24c-10.79-3-6.71,19.47-6.71,19.47s.36.26,1,.68C433.1,390.32,445.42,397.87,448.53,395.69Z" />
      <path class="cls-9" d="M115.51,332.57s114.56-5.06,158.84,6.42c0,0,44,31,7.28,41.25C267.34,384.24,218.46,396,192,396c-43.44,0-85,.28-85,.28-6.69-2.94-7.73-22.75-8.82-28.08C90.63,331.07,115.51,332.57,115.51,332.57Z" />
      <path class="cls-9" d="M271.64,338.33s120.07,22.78,166.69,30.06c0,0-5.07,19.59-12.65,23.93L370.22,396c-34.24,2.25-68-1.95-88.55-10.19C235.3,367.14,271.64,338.33,271.64,338.33Z" />
      <path class="cls-26" d="M181.57,230.49c-21.13-1-48.69-33.46-48.69-33.46s15.61-4.73,26-22.47a60.89,60.89,0,0,0,5.31-11.87l7,11.65,10.34,17.17s-.93,2.5-3,6.91h0c-.7,1.47-1.53,3.16-2.5,5-1.16,2.25-2.52,4.77-4.09,7.53C178.42,218.41,181.57,230.49,181.57,230.49Z" />
      <path class="cls-25" d="M181.54,191.51s-.93,2.5-3,6.91c-14.93-10.16-16.26-24.76-16.26-24.76s1.16-.17,8.95.68Z" />
      <path class="cls-26" d="M187.57,195.22s-31.9-11.11-24.67-30.87,8-34.5,28.65-28.24,21.85,15.24,21,22.43S196.05,197.61,187.57,195.22Z" />
      <path class="cls-27" d="M157.07,128.35c-.24-.43-.89-.87-2.47-1.29a6.51,6.51,0,0,1,3.16-.24c.8-2.18,2.82-5.93,6.84-6.1a4.93,4.93,0,0,0-3,3c5.39-3.69,15.58-5.08,41.41,2.49,34,10,18,30.13,12.91,31.88s-14.79-8-23.28-9S180,160,176.77,161s-1.45-1.65-4.92-4.2-5.17,3.81-4.94,8.24-7.32,8.22-7.32,8.22a30.19,30.19,0,0,0-3-6.29c-4.15-6.91-4-32.64-.48-37.39C156.44,129.2,156.75,128.77,157.07,128.35Z" />
      <path class="cls-6" d="M190.55,252c-2.4,61.88-23.17,52.33-12.37,70.65,6.88,11.66-7.5,20.87-23.28,32.76l-1.39,1.06c-4.53,3.44-9.32,6.81-14.11,9.87A123,123,0,0,1,118,377.58c-6.61,2.53-12.24,3.45-15.86,1.88l-.33-.14c-3.1-1.53-5.67-5.67-7.77-11.27-3.77-10-8.06-49.52-9.28-61.33-.21-2.12-.33-3.35-.33-3.35C77.46,217.22,149,187,149,187s6.26,18.7,26.48,17.55C175.49,204.54,191.56,225.75,190.55,252Z" />
      <path class="cls-4" d="M154.9,355.39l-1.39,1.06c-4.53,3.44-9.32,6.81-14.11,9.87A123,123,0,0,1,118,377.58c-7.17,2-13.11,2.94-15.86,1.88l-.33-.14c-3.1-1.53-5.67-5.67-7.77-11.27-3.77-10-8.06-49.52-9.28-61.33,8.78-25.26,20.85-53.81,34.24-66.6,26.41-25.22,34.46,13.19,34.46,13.19S133.07,303.7,154.9,355.39Z" />
      <path class="cls-6" d="M127.82,216.93c-10.47,26-32.21,76.24-24.48,100.66,0,0,31.32,8.27,32.22-1.42,5.09-54.17,51.68-113.42,15.72-112.26C141.21,204.24,131.58,207.59,127.82,216.93Z" />
      <path class="cls-17" d="M172.83,207.6s25,75.41,10.51,148.15l-21.48,7.38-5.26-15.27s27.84-71.13,12.76-139.45Z" />
      <path class="cls-26" d="M126.85,378.46S135,389.61,145,388s13.69,1.31,18.16,3.68,5.71,3.62,4.11,4.24c-1.21.48-23.06.24-33.79.09-3.53-.05-13.62-9.46-13.62-9.46Z" />
      <path class="cls-6" d="M102,310.53c-1.52,40.69,12.51,68.45,16.32,82.67,0,0,4.63,2.2,8.22,1,7.87-2.59,7.78-8.83,7.78-8.83s.21-50.62,1.2-69.21C136.53,298.05,102.36,302,102,310.53Z" />
      <path class="cls-17" d="M153.5,182.2s-6.71,1.8-10,7.53c0,0,2.61,11.3,28.14,17.62l-1-2.95S156.06,197.23,153.5,182.2Z" />
      <path class="cls-17" d="M170.65,204.4s5.21-1.94,6.3-2.8a10.39,10.39,0,0,1,.78,5.39s-1.69,1.06-6.12.36S170.65,204.4,170.65,204.4Z" />
      <path class="cls-17" d="M172.83,204.37s-5.09-.43-5.62.22,3,6.67,4.71,6.38S174.23,205.07,172.83,204.37Z" />
      <path class="cls-24" d="M124.13,165.23a3,3,0,0,1-2.65-1l.55-.37c2.66,3.85,29.49-8.16,65.19-32.17,29.7-20,53.06-40.1,54.32-46.81a1.65,1.65,0,0,0-.16-1.28l.54-.38a2.27,2.27,0,0,1,.27,1.78c-1.31,7-24.28,26.84-54.6,47.24C161.66,149.71,133.25,165.23,124.13,165.23Z" />
      <path class="cls-24" d="M131.72,145.19a79.65,79.65,0,0,1-17-1.47c-4.56-1.05-7.21-2.63-7.9-4.71a4.14,4.14,0,0,1,.55-3.46c3.09-5.29,15.52-10.61,22.66-13.31,12.41-4.7,28.64-9.14,45.68-12.5,19.61-3.86,38.53-6,53.29-6a80,80,0,0,1,17.3,1.47c4.55,1,7.21,2.63,7.89,4.7a4.16,4.16,0,0,1-.55,3.47c-3.09,5.29-15.52,10.61-22.65,13.31-12.42,4.7-28.64,9.14-45.69,12.49-19.6,3.86-38.52,6-53.28,6Zm97.47-40.65H229c-14.71,0-33.58,2.16-53.13,6C141.16,117.37,112.65,128.06,108,136a3.42,3.42,0,0,0-.48,2.8c1.18,3.57,10,5.61,24.18,5.61H132c14.71,0,33.58-2.16,53.13-6,34.67-6.83,63.18-17.52,67.8-25.42a3.35,3.35,0,0,0,.47-2.79C252.19,106.58,243.38,104.54,229.19,104.54Z" />
      <polygon class="cls-18" points="127.98 121.69 125.93 123.33 128.47 123.97 129.39 126.43 130.79 124.2 133.41 124.09 131.73 122.08 132.43 119.55 129.99 120.53 127.81 119.07 127.98 121.69" />
      <polygon class="cls-18" points="233.77 93.89 232.93 96.38 235.41 95.53 237.52 97.1 237.48 94.47 239.63 92.95 237.12 92.18 236.34 89.67 234.82 91.81 232.19 91.78 233.77 93.89" />
      <polygon class="cls-24" points="205.41 75.94 204.3 78.33 206.86 77.76 208.79 79.55 209.04 76.93 211.34 75.66 208.93 74.61 208.42 72.03 206.68 74 204.08 73.68 205.41 75.94" />
      <polygon class="cls-24" points="237.33 141.56 236.22 143.95 238.78 143.38 240.71 145.17 240.96 142.55 243.26 141.28 240.85 140.23 240.34 137.65 238.6 139.62 236 139.3 237.33 141.56" />
      <polygon class="cls-18" points="135.33 159.23 133.16 160.7 135.65 161.53 136.37 164.06 137.94 161.94 140.56 162.03 139.03 159.9 139.93 157.43 137.43 158.22 135.36 156.6 135.33 159.23" />
      <polygon class="cls-24" points="82.9 147.94 96.85 152.66 95.21 146.96 103.38 148.52 89.04 141.35 91.54 148.01 82.9 147.94" />
      <polygon class="cls-24" points="175.51 66.63 174.6 89.17 182.27 84.3 183.51 96.97 187.84 72.8 179.14 79.34 175.51 66.63" />
      <path class="cls-28" d="M475.12,380.71c.4,1,1.14,6.1,2.72,10.4h0c1,2.58,2.21,4.85,3.87,5.74C486.15,399.23,494,396,494,396s13,2.24,14.33,1.71S512,377.59,512,377.59s-9.61-11.16-10.5-11.52-8.58,3.17-9.85,3.1-8.47-5.35-10.55-4.24S474.47,379.15,475.12,380.71Z" />
      <path class="cls-29" d="M491.65,369.17s2,5.28,2.6,5.76,7.25-8.86,7.25-8.86C500.6,365.72,492.92,369.24,491.65,369.17Z" />
      <path class="cls-29" d="M481,370.05s8.84,9.14,8.68,9.94-10.44,6-10.79,5.78,2.49-6.64,2.43-7.76S481,370.05,481,370.05Z" />
      <path class="cls-29" d="M475.12,380.71c.4,1,1.14,6.1,2.72,10.4h0l-.58-9.69,3.83-16.5C479,366.05,474.47,379.15,475.12,380.71Z" />
      <path class="cls-29" d="M494,396s13,2.24,14.33,1.71S512,377.59,512,377.59s-3.41,9.93-3.5,10.43-4.06-.83-4.06-.83Z" />
      <polygon class="cls-29" points="508.59 377.4 506.84 382.54 503.84 382.37 506.19 380.3 508.59 377.4" />
      <path class="cls-28" d="M548.77,385.18a73.62,73.62,0,0,0,2.12,7.06h0c.74,1.76,1.71,3.31,3,3.93,3.44,1.65,9.53-.42,9.53-.42s10.1,1.66,11.12,1.31,2.84-13.57,2.84-13.57-7.46-7.65-8.15-7.9-6.65,2-7.64,2-6.58-3.72-8.18-3S548.27,384.12,548.77,385.18Z" />
      <path class="cls-30" d="M561.59,377.57s1.54,3.59,2,3.92,5.62-5.9,5.62-5.9C568.53,375.34,562.58,377.63,561.59,377.57Z" />
      <path class="cls-31" d="M553.31,378s6.86,6.28,6.73,6.82-8.09,3.94-8.37,3.78,1.94-4.46,1.89-5.21S553.31,378,553.31,378Z" />
      <path class="cls-30" d="M548.77,385.18a73.62,73.62,0,0,0,2.12,7.06h0l-.45-6.55,3-11.11C551.8,375.31,548.27,384.12,548.77,385.18Z" />
      <path class="cls-31" d="M563.42,395.75s10.1,1.66,11.12,1.31,2.84-13.57,2.84-13.57-2.64,6.68-2.71,7-3.15-.6-3.15-.6Z" />
      <polygon class="cls-31" points="574.73 383.32 573.38 386.78 571.05 386.63 572.87 385.26 574.73 383.32" />
      <path class="cls-28" d="M563.83,192.35a73.62,73.62,0,0,0,2.12,7.06h0c.74,1.76,1.72,3.31,3,3.93,3.44,1.65,9.53-.43,9.53-.43s10.1,1.66,11.12,1.32,2.84-13.57,2.84-13.57-7.46-7.66-8.16-7.91-6.65,2.05-7.64,2-6.57-3.72-8.17-3S563.33,191.29,563.83,192.35Z" />
      <path class="cls-30" d="M576.64,184.75s1.55,3.58,2,3.92,5.62-5.91,5.62-5.91C583.59,182.52,577.63,184.81,576.64,184.75Z" />
      <path class="cls-31" d="M568.37,185.22s6.85,6.28,6.73,6.82-8.1,3.93-8.37,3.78,1.93-4.46,1.89-5.22S568.37,185.22,568.37,185.22Z" />
      <path class="cls-30" d="M563.83,192.35a73.62,73.62,0,0,0,2.12,7.06h0l-.45-6.55,3-11.12C566.86,182.49,563.33,191.29,563.83,192.35Z" />
      <path class="cls-31" d="M578.48,202.92s10.1,1.66,11.12,1.32,2.84-13.57,2.84-13.57-2.65,6.67-2.71,7-3.16-.61-3.16-.61Z" />
      <polygon class="cls-31" points="589.79 190.5 588.43 193.95 586.11 193.81 587.93 192.44 589.79 190.5" />
      <rect class="cls-32" y="395.81" width="753.35" height="2" rx="1" />
    </g>
  </g>
</svg>