<svg xmlns="http://www.w3.org/2000/svg" viewBox="0 0 26.48 20.11"><defs><style>.cls-1,.cls-2{fill:none;stroke-linecap:round;stroke-linejoin:round;stroke-width:1.5px;}.cls-1{stroke:#163d6b;}.cls-2{stroke:#ea0029;}</style></defs><g id="Capa_2" data-name="Capa 2"><g id="Capa_1-2" data-name="Capa 1"><path class="cls-1" d="M21.1,4.89c.36-1,.68-.44,1.58-1.16-.62-.15-1.29-1.91-2.18-1.16a1.24,1.24,0,0,1-1.56.06A9.24,9.24,0,0,0,13.08.75c-6.7,0-9.61,4.34-9.61,7.9q0,.45,0,.87a1.67,1.67,0,0,1-.24,1,.55.55,0,0,1-.62.3C2,10.59,1.53,9.15.75,9.15c.6,0,.83,1.9,1.85,2.13a1.15,1.15,0,0,0,1-.2c.62,3.78,2.59,4.5,2.59,8.28h3.2a3.59,3.59,0,0,1,6.82,0h3a6.17,6.17,0,0,1,6.51-5.59V10.68C24,10.68,23.11,7.62,21.1,4.89Z"/><path class="cls-2" d="M9.9,3.1a6.88,6.88,0,0,1,4.4-.42"/></g></g></svg>