<svg xmlns="http://www.w3.org/2000/svg" viewBox="0 0 98.74 121.71"><defs><style>.cls-1,.cls-2{fill:none;stroke-linecap:round;stroke-linejoin:round;stroke-width:4px;}.cls-1{stroke:#163d6b;}.cls-2{stroke:#ea0029;}</style></defs><g id="Capa_2" data-name="Capa 2"><g id="Capa_1-2" data-name="Capa 1"><polygon class="cls-1" points="72.25 25.94 72.25 2 96.74 25.94 72.25 25.94"/><path class="cls-1" d="M72.25,2H30.12a2.26,2.26,0,0,0-2.28,2.23V91.64a2.26,2.26,0,0,0,2.28,2.23H94.46a2.26,2.26,0,0,0,2.28-2.23V25.94Z"/><path class="cls-1" d="M27.84,10.61H21.5a2.25,2.25,0,0,0-2.27,2.23v87.42a2.25,2.25,0,0,0,2.27,2.22H85.85a2.25,2.25,0,0,0,2.28-2.22V93.87"/><path class="cls-1" d="M19.23,19.23H12.89a2.25,2.25,0,0,0-2.28,2.22v87.42a2.26,2.26,0,0,0,2.28,2.23H77.24a2.26,2.26,0,0,0,2.28-2.23v-6.39"/><path class="cls-1" d="M10.61,27.84H4.28A2.26,2.26,0,0,0,2,30.07v87.41a2.26,2.26,0,0,0,2.28,2.23H68.62a2.26,2.26,0,0,0,2.28-2.23V111.1"/><line class="cls-2" x1="86.98" y1="78.37" x2="37.6" y2="78.37"/><line class="cls-2" x1="86.98" y1="68.22" x2="37.6" y2="68.22"/><line class="cls-2" x1="86.98" y1="58.08" x2="37.6" y2="58.08"/><line class="cls-2" x1="86.98" y1="47.94" x2="37.6" y2="47.94"/><line class="cls-2" x1="86.98" y1="37.79" x2="37.6" y2="37.79"/><line class="cls-2" x1="66.51" y1="27.65" x2="37.6" y2="27.65"/><line class="cls-2" x1="65.36" y1="17.5" x2="37.6" y2="17.5"/></g></g></svg>