<svg xmlns="http://www.w3.org/2000/svg" viewBox="0 0 121 91.16"><defs><style>.cls-1,.cls-2{fill:none;stroke-linecap:round;stroke-linejoin:round;stroke-width:4px;}.cls-1{stroke:#163d6b;}.cls-2{stroke:#ea0029;}</style></defs><g id="Capa_2" data-name="Capa 2"><g id="Capa_1-2" data-name="Capa 1"><path class="cls-1" d="M97.32,21.4c1.67-4.58,3.18-2.08,7.4-5.43-2.92-.7-6.07-9-10.22-5.44a5.82,5.82,0,0,1-7.31.27C80.46,5.61,71.72,2,59.74,2c-31.36,0-45,20.33-45,37,0,1.44,0,2.79.1,4.09a7.37,7.37,0,0,1-1.1,4.45c-.74,1.12-1.68,1.74-2.89,1.41C7.74,48.08,5.68,41.36,2,41.36c2.81,0,3.89,8.87,8.65,10a5.36,5.36,0,0,0,4.95-.93c2.88,17.69,12.14,21.06,12.14,38.78H42.68a16.82,16.82,0,0,1,32,0H88.51C88.51,82.67,95.21,63,119,63V48.5C110.83,48.5,106.72,34.16,97.32,21.4Z"/><path class="cls-2" d="M44.88,13s9.81-4.9,20.6-2"/></g></g></svg>