<svg xmlns="http://www.w3.org/2000/svg" viewBox="0 0 25.5 25.9"><defs><style>.cls-1,.cls-2{fill:none;stroke-linecap:round;stroke-linejoin:round;}.cls-1{stroke:#163d6b;stroke-width:1.5px;}.cls-2{stroke:#ea0029;stroke-width:1.2px;}</style></defs><g id="Capa_2" data-name="Capa 2"><g id="Capa_1-2" data-name="Capa 1"><path class="cls-1" d="M23.05,13A11.59,11.59,0,0,0,23,11.62l1.78-1.22L24,8,21.8,8a9.87,9.87,0,0,0-1.57-2.16l.73-2-2.07-1.5L17.18,3.64a9.94,9.94,0,0,0-2.54-.82L14,.75H11.47l-.61,2.07a9.94,9.94,0,0,0-2.54.82L6.61,2.33,4.54,3.83l.73,2A9.87,9.87,0,0,0,3.7,8L1.54,8,.75,10.4l1.78,1.22A11.59,11.59,0,0,0,2.45,13a9.69,9.69,0,0,0,.09,1.33L.75,15.51l.79,2.43,2.16-.06A10.68,10.68,0,0,0,5.27,20l-.73,2,2.07,1.51,1.72-1.33a9.86,9.86,0,0,0,2.53.82l.61,2.08H14l.61-2.08a9.86,9.86,0,0,0,2.53-.82l1.72,1.33L21,22.07l-.73-2a10.68,10.68,0,0,0,1.57-2.15l2.16.06.79-2.43L23,14.28A9.69,9.69,0,0,0,23.05,13Z"/><circle class="cls-2" cx="12.75" cy="12.95" r="8.23" transform="translate(-2.78 22.38) rotate(-76.72)"/><circle class="cls-2" cx="12.75" cy="12.95" r="6.49"/></g></g></svg>