<svg xmlns="http://www.w3.org/2000/svg" viewBox="0 0 60.67 79.65"><defs><style>.cls-1{fill:#183d6b;}.cls-2{fill:#fff;}.cls-3{fill:#ea0029;}.cls-4{fill:none;}</style></defs><g id="Capa_2" data-name="Capa 2"><g id="Capa_1-2" data-name="Capa 1"><path class="cls-1" d="M37.11,74.92H1.18A1.18,1.18,0,0,1,0,73.74V1.18A1.18,1.18,0,0,1,1.18,0h53.9a1.14,1.14,0,0,1,.83.35,1.18,1.18,0,0,1,.35.83l-.21,54.63a1.15,1.15,0,0,1-.34.82L38,74.57A1.19,1.19,0,0,1,37.11,74.92ZM2.36,72.56H36.62L53.69,55.32l.2-53H2.36Z"/><path class="cls-1" d="M37.11,74.92a1.2,1.2,0,0,1-.45-.09,1.18,1.18,0,0,1-.73-1.09V64.82c0-7,3.11-10.2,10.09-10.2h8.85a1.18,1.18,0,0,1,.84,2L38,74.57A1.18,1.18,0,0,1,37.11,74.92ZM46,57c-5.64,0-7.73,2.13-7.73,7.84v6.05L52.05,57Z"/><rect class="cls-1" x="1.29" y="1.18" width="53.67" height="18.15"/><path class="cls-2" d="M11.13,15.39H9.07v-1.8h2.06Zm2,0V5.78H16.4a3.9,3.9,0,0,1,4,4v1.6a3.85,3.85,0,0,1-4,4Zm1.93-8.13v6.66h1.26a2,2,0,0,0,1.6-.72,2.72,2.72,0,0,0,.59-1.83V9.78A2.83,2.83,0,0,0,17.91,8a2,2,0,0,0-1.6-.69Zm14.53,4.18a4,4,0,0,1-1.12,2.94,3.82,3.82,0,0,1-2.88,1.15,3.76,3.76,0,0,1-2.84-1.15,4.06,4.06,0,0,1-1.1-2.94V9.71A4,4,0,0,1,22.71,6.8a3.81,3.81,0,0,1,2.87-1.16A3.79,3.79,0,0,1,28.46,6.8a4,4,0,0,1,1.12,2.91ZM27.66,9.71a3,3,0,0,0-.55-1.85,1.95,1.95,0,0,0-3,0,3.11,3.11,0,0,0-.53,1.87v1.73a3.09,3.09,0,0,0,.53,1.87,1.75,1.75,0,0,0,1.51.72,1.79,1.79,0,0,0,1.53-.72,3,3,0,0,0,.55-1.87Zm10.6,2.4,0,.05a3.1,3.1,0,0,1-.94,2.45,3.68,3.68,0,0,1-2.68.92,3.71,3.71,0,0,1-2.79-1.11,4,4,0,0,1-1.08-2.89V9.64a4,4,0,0,1,1.06-2.89,3.52,3.52,0,0,1,2.7-1.11,3.9,3.9,0,0,1,2.77.92,3.15,3.15,0,0,1,1,2.5v0H36.43A2.19,2.19,0,0,0,36,7.63a1.85,1.85,0,0,0-1.42-.51,1.54,1.54,0,0,0-1.35.72,2.87,2.87,0,0,0-.51,1.78v1.91a3,3,0,0,0,.53,1.81,1.72,1.72,0,0,0,1.44.69A1.79,1.79,0,0,0,36,13.57a2.29,2.29,0,0,0,.41-1.46Z"/><path class="cls-3" d="M46.08,31.85H10.15a1.18,1.18,0,1,1,0-2.35H46.08a1.18,1.18,0,1,1,0,2.35Z"/><path class="cls-3" d="M46.08,40.15H10.15a1.18,1.18,0,1,1,0-2.35H46.08a1.18,1.18,0,1,1,0,2.35Z"/><path class="cls-3" d="M46.08,48.47H10.15a1.18,1.18,0,1,1,0-2.35H46.08a1.18,1.18,0,1,1,0,2.35Z"/><path class="cls-3" d="M28.12,56.8h-18a1.18,1.18,0,1,1,0-2.36h18a1.18,1.18,0,1,1,0,2.36Z"/><circle class="cls-3" cx="47.3" cy="66.29" r="13.37"/><path class="cls-4" d="M52.17,59H42.44A2.48,2.48,0,0,0,40,61.42v9.73a2.48,2.48,0,0,0,2.47,2.47h9.73a2.48,2.48,0,0,0,2.47-2.47V61.42A2.48,2.48,0,0,0,52.17,59ZM42.35,62a.11.11,0,0,1,.09-.1l.3,0h0a.1.1,0,0,0,.09-.1V60.32a.09.09,0,0,1,.09-.1l.33,0a6.91,6.91,0,0,1,3.86,1.08.11.11,0,0,0,.12,0,6.79,6.79,0,0,1,3.85-1.06h.32a.09.09,0,0,1,.1.1v1.46a.1.1,0,0,0,.09.1h0l.3,0A.11.11,0,0,1,52,62v1.43a.1.1,0,0,1-.1.11h-.67a.11.11,0,0,1-.1-.11v-.61a.09.09,0,0,0-.1-.1,4.87,4.87,0,0,0-3.43,1.12l0,0,0,0h-.75l-.07-.08a4.85,4.85,0,0,0-3.43-1.12.1.1,0,0,0-.1.1v.61a.09.09,0,0,1-.1.1h-.67a.1.1,0,0,1-.1-.1Zm3.16,9.07a.11.11,0,0,1-.1.12h-.55a.1.1,0,0,1-.1-.1V66.45a.31.31,0,0,0-.31-.31h-.62a.09.09,0,0,0-.1.1V71.1a.11.11,0,0,1-.1.1h-.46a1.52,1.52,0,0,1-1.51-1.52V64.17a.09.09,0,0,1,.1-.1h2.69a2.38,2.38,0,0,1,2.38,2.38v2.78a.12.12,0,0,1,0,.08l0,0-1,1A.8.8,0,0,0,45.51,71.08Zm3.07.12,0,0-1,1.4a.36.36,0,0,1-.58,0l-1-1.42a.47.47,0,0,1,0-.58l.72-.71.24-.24a.34.34,0,0,1,.5,0l.21.21.75.74A.47.47,0,0,1,48.58,71.2ZM53,68.84a2.37,2.37,0,0,1-2.38,2.38H49.23a.1.1,0,0,1-.1-.12.82.82,0,0,0-.22-.74l-1-1-.07-.06a.12.12,0,0,1,0-.08V66.45a2.39,2.39,0,0,1,2.38-2.38h2.69a.1.1,0,0,1,.1.1Z"/><path class="cls-4" d="M43.82,61.87a6,6,0,0,1,2.78.76.1.1,0,0,0,.15-.09v-.41a.11.11,0,0,0,0-.08,5.48,5.48,0,0,0-2.89-1,.1.1,0,0,0-.1.1v.58A.1.1,0,0,0,43.82,61.87Z"/><path class="cls-4" d="M47.79,62.64a6,6,0,0,1,2.78-.76.1.1,0,0,0,.09-.1V61.2a.1.1,0,0,0-.11-.1,5.45,5.45,0,0,0-2.88,1,.12.12,0,0,0,0,.08v.41A.11.11,0,0,0,47.79,62.64Z"/><path class="cls-2" d="M46.75,69.34l0,0a.12.12,0,0,0,0-.08V66.45a2.38,2.38,0,0,0-2.38-2.38H41.76a.09.09,0,0,0-.1.1v5.51a1.52,1.52,0,0,0,1.51,1.52h.46a.11.11,0,0,0,.1-.1V66.24a.09.09,0,0,1,.1-.1h.62a.31.31,0,0,1,.31.31V71.1a.1.1,0,0,0,.1.1h.55a.11.11,0,0,0,.1-.12.8.8,0,0,1,.22-.72Z"/><path class="cls-2" d="M52.85,64.07H50.16a2.39,2.39,0,0,0-2.38,2.38V69.2a.12.12,0,0,0,0,.08l.07.06,1,1a.82.82,0,0,1,.22.74.1.1,0,0,0,.1.12h1.34A2.37,2.37,0,0,0,53,68.84V64.17A.1.1,0,0,0,52.85,64.07Zm-2,4.77a.31.31,0,0,1-.31.31H50a.1.1,0,0,1-.1-.1v-2.6a.31.31,0,0,1,.31-.31h.51a.21.21,0,0,1,.21.21Z"/><path class="cls-2" d="M47.78,69.88l-.21-.21a.34.34,0,0,0-.5,0l-.24.24-.72.71a.47.47,0,0,0,0,.58l1,1.42a.36.36,0,0,0,.58,0l1-1.4,0,0a.47.47,0,0,0,0-.58Z"/><path class="cls-3" d="M46.82,63.93Z"/><path class="cls-3" d="M46.82,63.93Z"/><path class="cls-2" d="M51.94,61.92l-.3,0h0a.1.1,0,0,1-.09-.1V60.33a.09.09,0,0,0-.1-.1h-.32a6.79,6.79,0,0,0-3.85,1.06.11.11,0,0,1-.12,0,6.91,6.91,0,0,0-3.86-1.08l-.33,0a.09.09,0,0,0-.09.1v1.46a.1.1,0,0,1-.09.1h0l-.3,0a.11.11,0,0,0-.09.1v1.43a.1.1,0,0,0,.1.1h.67a.09.09,0,0,0,.1-.1v-.61a.1.1,0,0,1,.1-.1,4.85,4.85,0,0,1,3.43,1.12l.07.08h.75l0,0,0,0a4.87,4.87,0,0,1,3.43-1.12.09.09,0,0,1,.1.1v.61a.11.11,0,0,0,.1.11h.67a.1.1,0,0,0,.1-.11V62A.11.11,0,0,0,51.94,61.92Zm-5.19.62a.1.1,0,0,1-.15.09,6,6,0,0,0-2.78-.76.1.1,0,0,1-.09-.1v-.58a.1.1,0,0,1,.1-.1,5.48,5.48,0,0,1,2.89,1,.11.11,0,0,1,0,.08Zm3.91-.76a.1.1,0,0,1-.09.1,6,6,0,0,0-2.78.76.11.11,0,0,1-.16-.09v-.41a.12.12,0,0,1,0-.08,5.45,5.45,0,0,1,2.88-1,.1.1,0,0,1,.11.1Z"/><path class="cls-2" d="M52.17,57.46H42.44a4,4,0,0,0-4,4v9.73a4,4,0,0,0,4,4h9.73a4,4,0,0,0,4-4V61.42A4,4,0,0,0,52.17,57.46Zm2.47,13.69a2.48,2.48,0,0,1-2.47,2.47H42.44A2.48,2.48,0,0,1,40,71.15V61.42A2.48,2.48,0,0,1,42.44,59h9.73a2.48,2.48,0,0,1,2.47,2.47Z"/></g></g></svg>