<svg xmlns="http://www.w3.org/2000/svg" viewBox="0 0 60.36 79.58"><defs><style>.cls-1{fill:#183d6b;}.cls-2{fill:#fff;}.cls-3{fill:#ea0029;}.cls-4{fill:none;}</style></defs><g id="Capa_2" data-name="Capa 2"><g id="Capa_1-2" data-name="Capa 1"><path class="cls-1" d="M37.11,74.94H1.18A1.18,1.18,0,0,1,0,73.76V1.18A1.18,1.18,0,0,1,1.18,0h53.9a1.14,1.14,0,0,1,.83.35,1.14,1.14,0,0,1,.35.83l-.21,54.63a1.15,1.15,0,0,1-.34.82L38,74.59A1.15,1.15,0,0,1,37.11,74.94ZM2.36,72.59H36.62L53.7,55.32l.19-53H2.36Z"/><path class="cls-1" d="M37.11,74.94a1.42,1.42,0,0,1-.45-.08,1.2,1.2,0,0,1-.73-1.1V64.82c0-7,3.11-10.2,10.09-10.2h8.85a1.18,1.18,0,0,1,.84,2L38,74.59A1.16,1.16,0,0,1,37.11,74.94ZM46,57c-5.63,0-7.73,2.13-7.73,7.84V70.9L52.05,57Z"/><rect class="cls-1" x="1.29" y="1.18" width="53.67" height="18.14"/><path class="cls-2" d="M16.28,15.39h-2v-1.8h2Zm6-9.61h1.9V12.5a2.86,2.86,0,0,1-.89,2.22,3.39,3.39,0,0,1-2.29.81,3.57,3.57,0,0,1-2.36-.74,2.64,2.64,0,0,1-.84-2.14l0-.05h1.85a1.46,1.46,0,0,0,.37,1.11,1.33,1.33,0,0,0,1,.34,1.17,1.17,0,0,0,.92-.41,1.73,1.73,0,0,0,.36-1.14Zm5.57,6.12v3.49H25.94V5.78h3.8a3.73,3.73,0,0,1,2.59.83,2.86,2.86,0,0,1,.94,2.24,2.76,2.76,0,0,1-.94,2.22,3.73,3.73,0,0,1-2.59.83Zm0-1.47h1.87A1.63,1.63,0,0,0,31,10a1.61,1.61,0,0,0,.42-1.14A1.58,1.58,0,0,0,31,7.72a1.53,1.53,0,0,0-1.21-.46H27.87ZM42,14.08a3.7,3.7,0,0,1-1.33,1,5.2,5.2,0,0,1-2.29.44,3.89,3.89,0,0,1-2.83-1.08,3.81,3.81,0,0,1-1.13-2.87v-2a3.85,3.85,0,0,1,1.08-2.84,3.63,3.63,0,0,1,2.72-1.11,3.77,3.77,0,0,1,2.68.85,2.93,2.93,0,0,1,.94,2.25v0H40a1.9,1.9,0,0,0-.48-1.2,1.69,1.69,0,0,0-1.26-.46,1.73,1.73,0,0,0-1.42.69,2.75,2.75,0,0,0-.52,1.76v2a2.72,2.72,0,0,0,.55,1.78,1.8,1.8,0,0,0,1.48.69,3.53,3.53,0,0,0,1.08-.13,1.71,1.71,0,0,0,.62-.35V11.79h-1.7V10.45H42Z"/><path class="cls-3" d="M10.7,35.14a5.61,5.61,0,1,1,5.57-5.62A5.59,5.59,0,0,1,10.7,35.14Zm0-8.86a3.25,3.25,0,0,0,0,6.5,3.25,3.25,0,0,0,0-6.5Z"/><path class="cls-3" d="M49.77,51.62H6.49a1.18,1.18,0,0,1-.91-1.93L19.93,32.26a1.17,1.17,0,0,1,1.61-.2l5.92,4.36L39.81,25.58a1.17,1.17,0,0,1,.87-.29,1.24,1.24,0,0,1,.82.42l9.15,10.93a1.18,1.18,0,0,1,.27.76l0,13a1.2,1.2,0,0,1-1.18,1.18ZM9,49.26h39.6l0-11.43-8.11-9.68L28.3,38.82a1.19,1.19,0,0,1-1.48.06L21,34.62Z"/><circle class="cls-3" cx="46.99" cy="66.21" r="13.37"/><path class="cls-4" d="M51.86,58.87H42.13a2.48,2.48,0,0,0-2.48,2.48v9.72a2.48,2.48,0,0,0,2.48,2.48h9.73a2.48,2.48,0,0,0,2.47-2.48V61.35A2.48,2.48,0,0,0,51.86,58.87ZM42,61.94a.1.1,0,0,1,.09-.1l.3,0h0a.1.1,0,0,0,.09-.1V60.24a.11.11,0,0,1,.1-.1H43a7,7,0,0,1,3.87,1.07.09.09,0,0,0,.12,0,7,7,0,0,1,3.85-1.06h.32a.11.11,0,0,1,.1.1v1.47a.11.11,0,0,0,.09.1h0l.3,0a.1.1,0,0,1,.09.1v1.43a.09.09,0,0,1-.1.1H51a.1.1,0,0,1-.1-.1v-.62a.1.1,0,0,0-.1-.1,4.87,4.87,0,0,0-3.43,1.13l0,0,0,0h-.75l-.07-.08A4.86,4.86,0,0,0,43,62.65a.11.11,0,0,0-.1.1v.62a.09.09,0,0,1-.1.1h-.67a.1.1,0,0,1-.1-.1ZM45.2,71a.1.1,0,0,1-.1.11h-.56a.1.1,0,0,1-.1-.1V66.37a.31.31,0,0,0-.31-.31h-.62a.11.11,0,0,0-.1.1V71a.09.09,0,0,1-.1.1h-.45a1.52,1.52,0,0,1-1.52-1.52V64.09a.11.11,0,0,1,.1-.1h2.69a2.38,2.38,0,0,1,2.38,2.38v2.78a.11.11,0,0,1,0,.08.08.08,0,0,0,0,0l-1,1A.83.83,0,0,0,45.2,71Zm3.07.11,0,0-1,1.4a.36.36,0,0,1-.58,0l-1-1.43a.45.45,0,0,1,0-.57l.71-.71.25-.25a.36.36,0,0,1,.5,0l.21.21.74.75A.44.44,0,0,1,48.27,71.12Zm4.37-2.35a2.38,2.38,0,0,1-2.38,2.38H48.91a.11.11,0,0,1-.1-.12.81.81,0,0,0-.21-.75l-1-1a.46.46,0,0,0-.07-.07.08.08,0,0,1,0-.07V66.38A2.37,2.37,0,0,1,49.85,64h2.69a.09.09,0,0,1,.1.1Z"/><path class="cls-4" d="M43.51,61.79a6.34,6.34,0,0,1,2.78.76.1.1,0,0,0,.15-.08v-.42a.09.09,0,0,0,0-.08A5.49,5.49,0,0,0,43.52,61a.1.1,0,0,0-.11.1v.57A.1.1,0,0,0,43.51,61.79Z"/><path class="cls-4" d="M47.47,62.56a6.34,6.34,0,0,1,2.78-.76.09.09,0,0,0,.1-.1v-.57a.1.1,0,0,0-.11-.1,5.52,5.52,0,0,0-2.88.95.12.12,0,0,0,0,.08v.42A.1.1,0,0,0,47.47,62.56Z"/><path class="cls-2" d="M46.44,69.27a.08.08,0,0,1,0,0,.11.11,0,0,0,0-.08V66.37A2.38,2.38,0,0,0,44.13,64H41.44a.11.11,0,0,0-.1.1V69.6a1.52,1.52,0,0,0,1.52,1.52h.45a.09.09,0,0,0,.1-.1V66.16a.11.11,0,0,1,.1-.1h.62a.31.31,0,0,1,.31.31V71a.1.1,0,0,0,.1.1h.56a.1.1,0,0,0,.1-.11.83.83,0,0,1,.22-.73Z"/><path class="cls-2" d="M52.54,64H49.85a2.37,2.37,0,0,0-2.38,2.38v2.75a.08.08,0,0,0,0,.07.46.46,0,0,1,.07.07l1,1a.81.81,0,0,1,.21.75.11.11,0,0,0,.1.12h1.35a2.38,2.38,0,0,0,2.38-2.38V64.1A.09.09,0,0,0,52.54,64Zm-2,4.77a.31.31,0,0,1-.31.31h-.62a.1.1,0,0,1-.1-.1v-2.6a.31.31,0,0,1,.31-.31h.51a.21.21,0,0,1,.21.21Z"/><path class="cls-2" d="M47.47,69.8l-.21-.21a.36.36,0,0,0-.5,0l-.25.25-.71.71a.45.45,0,0,0,0,.57l1,1.43a.36.36,0,0,0,.58,0l1-1.4,0,0a.44.44,0,0,0-.06-.57Z"/><path class="cls-3" d="M46.51,63.86Z"/><path class="cls-3" d="M46.51,63.86Z"/><path class="cls-2" d="M51.63,61.85l-.3,0h0a.11.11,0,0,1-.09-.1V60.25a.11.11,0,0,0-.1-.1H50.8A7,7,0,0,0,47,61.2a.09.09,0,0,1-.12,0A7,7,0,0,0,43,60.13h-.32a.11.11,0,0,0-.1.1v1.47a.1.1,0,0,1-.09.1h0l-.3,0a.1.1,0,0,0-.09.1v1.43a.1.1,0,0,0,.1.1h.67a.09.09,0,0,0,.1-.1v-.62a.11.11,0,0,1,.1-.1,4.86,4.86,0,0,1,3.43,1.13l.07.08h.75l0,0,0,0a4.87,4.87,0,0,1,3.43-1.13.1.1,0,0,1,.1.1v.62a.1.1,0,0,0,.1.1h.67a.09.09,0,0,0,.1-.1V62A.1.1,0,0,0,51.63,61.85Zm-5.19.62a.1.1,0,0,1-.15.08,6.34,6.34,0,0,0-2.78-.76.1.1,0,0,1-.1-.1v-.57a.1.1,0,0,1,.11-.1A5.49,5.49,0,0,1,46.4,62a.09.09,0,0,1,0,.08Zm3.91-.77a.09.09,0,0,1-.1.1,6.34,6.34,0,0,0-2.78.76.1.1,0,0,1-.15-.08v-.42a.12.12,0,0,1,0-.08A5.52,5.52,0,0,1,50.24,61a.1.1,0,0,1,.11.1Z"/><path class="cls-2" d="M51.86,57.39H42.13a4,4,0,0,0-4,4v9.72a4,4,0,0,0,4,4h9.73a4,4,0,0,0,4-4V61.35A4,4,0,0,0,51.86,57.39Zm2.47,13.68a2.48,2.48,0,0,1-2.47,2.48H42.13a2.48,2.48,0,0,1-2.48-2.48V61.35a2.48,2.48,0,0,1,2.48-2.48h9.73a2.48,2.48,0,0,1,2.47,2.48Z"/></g></g></svg>