<svg xmlns="http://www.w3.org/2000/svg" viewBox="0 0 60.31 79.09"><defs><style>.cls-1{fill:#183d6b;}.cls-2{fill:#fff;}.cls-3{fill:#ea0029;}.cls-4{fill:none;}</style></defs><g id="Capa_2" data-name="Capa 2"><g id="Capa_1-2" data-name="Capa 1"><path class="cls-1" d="M37.11,74.94H1.18A1.17,1.17,0,0,1,0,73.77V1.18A1.18,1.18,0,0,1,1.18,0h53.9a1.14,1.14,0,0,1,.83.35,1.18,1.18,0,0,1,.35.83l-.21,54.63a1.15,1.15,0,0,1-.34.82L38,74.59A1.15,1.15,0,0,1,37.11,74.94ZM2.36,72.59H36.62L53.69,55.32l.2-53H2.36Z"/><path class="cls-1" d="M37.11,74.94a1.15,1.15,0,0,1-1.18-1.17v-9c0-7,3.11-10.2,10.08-10.2h8.86a1.18,1.18,0,0,1,.84,2L38,74.59A1.18,1.18,0,0,1,37.11,74.94ZM46,57c-5.63,0-7.72,2.13-7.72,7.84V70.9L52.05,57Z"/><rect class="cls-1" x="1.29" y="1.18" width="53.67" height="18.15"/><path class="cls-2" d="M17.34,15.4h-2V13.59h2Zm4.12-3.75V15.4h-2V5.09h4.07A4,4,0,0,1,26.26,6a3,3,0,0,1,1,2.38,3.07,3.07,0,0,1-1,2.38,4.13,4.13,0,0,1-2.77.88Zm0-1.6h2a1.6,1.6,0,0,0,1.28-.45,1.67,1.67,0,0,0,.44-1.21,1.73,1.73,0,0,0-.44-1.22,1.56,1.56,0,0,0-1.28-.49h-2Zm7.3,5.35V5.09h3.5a4.16,4.16,0,0,1,4.3,4.32V11.1a4.14,4.14,0,0,1-4.3,4.3Zm2.06-8.72V13.8h1.35a2.11,2.11,0,0,0,1.71-.74,3,3,0,0,0,.62-2V9.39a2.9,2.9,0,0,0-.62-1.94,2.08,2.08,0,0,0-1.71-.77Zm13.66,4.44H40.2V15.4h-2V5.09h7V6.68h-5V9.52h4.28Z"/><path class="cls-3" d="M37.84,45.65a23.77,23.77,0,0,0-4.16.47,40.31,40.31,0,0,1-6.3-9.48c1.65-7,.83-8,.46-8.51s-.94-1.31-1.55-1.31A6,6,0,0,0,25,27a2.46,2.46,0,0,0-1.42,1.53c-.87,2.08.34,5.59,1.55,8.32a82.41,82.41,0,0,1-4.69,13.46c-4.69,2.17-7.19,4.29-7.39,6.33a3,3,0,0,0,1.37,2.8,1.93,1.93,0,0,0,1.19.41c1.1,0,2.18-.83,3.46-2.63a35.93,35.93,0,0,0,2.95-5.32A59.17,59.17,0,0,1,33,48.38c1.95,1.9,3.71,2.87,5.22,2.87A3.27,3.27,0,0,0,41,49.75a2.54,2.54,0,0,0,.48-2.68c-.48-1-1.65-1.42-3.6-1.42ZM15.66,57.77c-.57-.46-.54-.76-.52-.88.07-.69,1.14-1.92,3.8-3.42-2,3.74-3.09,4.23-3.28,4.3ZM25.83,29.08c.07,0,1.3,1.39.13,4a3,3,0,0,1-.13-4Zm-2.54,20a89.58,89.58,0,0,0,3.29-9.45,43.66,43.66,0,0,0,4.74,6.93,65.93,65.93,0,0,0-8,2.52Zm16-.58a1.86,1.86,0,0,1-1.51.54c-.66,0-.89-.4-1.9-1.18a20.84,20.84,0,0,1,2.24-.12,2.65,2.65,0,0,1,1.45.23,2.27,2.27,0,0,1-.28.53Z"/><circle class="cls-3" cx="46.94" cy="65.73" r="13.37"/><path class="cls-4" d="M51.8,58.39H42.08a2.48,2.48,0,0,0-2.48,2.47v9.73a2.48,2.48,0,0,0,2.48,2.47H51.8a2.48,2.48,0,0,0,2.48-2.47V60.86A2.48,2.48,0,0,0,51.8,58.39ZM42,61.45a.11.11,0,0,1,.09-.1l.3,0h0a.1.1,0,0,0,.09-.1V59.76a.1.1,0,0,1,.1-.1h.32a6.8,6.8,0,0,1,3.87,1.07.09.09,0,0,0,.12,0,6.86,6.86,0,0,1,3.85-1.06h.32a.1.1,0,0,1,.1.1v1.46a.1.1,0,0,0,.09.1h0l.3,0a.11.11,0,0,1,.09.1V62.9a.11.11,0,0,1-.1.1H50.9a.1.1,0,0,1-.1-.1v-.62a.09.09,0,0,0-.1-.1,4.86,4.86,0,0,0-3.43,1.12l0,0,0,0h-.75l-.07-.08A4.86,4.86,0,0,0,43,62.17a.09.09,0,0,0-.1.1v.62a.1.1,0,0,1-.1.1h-.67a.11.11,0,0,1-.1-.1Zm3.16,9.07a.11.11,0,0,1-.1.12h-.56a.11.11,0,0,1-.1-.1V65.89a.31.31,0,0,0-.31-.31h-.62a.11.11,0,0,0-.1.1v4.86a.1.1,0,0,1-.1.1h-.45a1.52,1.52,0,0,1-1.52-1.52V63.61a.1.1,0,0,1,.1-.1h2.69a2.38,2.38,0,0,1,2.38,2.38v2.78a.11.11,0,0,1,0,.08l0,0-1,1A.81.81,0,0,0,45.15,70.52Zm3.07.12,0,0-1,1.4a.36.36,0,0,1-.58,0l-1-1.42a.47.47,0,0,1,0-.58l.71-.71.25-.24a.34.34,0,0,1,.5,0l.21.21.74.74A.46.46,0,0,1,48.22,70.64Zm4.37-2.36a2.38,2.38,0,0,1-2.38,2.38H48.86a.11.11,0,0,1-.1-.12.79.79,0,0,0-.21-.74l-1-1-.07-.06a.09.09,0,0,1,0-.08V65.89a2.38,2.38,0,0,1,2.38-2.38h2.69a.11.11,0,0,1,.1.1Z"/><path class="cls-4" d="M43.46,61.31a6.08,6.08,0,0,1,2.78.76.1.1,0,0,0,.15-.09v-.41a.09.09,0,0,0,0-.08,5.45,5.45,0,0,0-2.88-1,.1.1,0,0,0-.11.1v.58A.11.11,0,0,0,43.46,61.31Z"/><path class="cls-4" d="M47.42,62.08a6.08,6.08,0,0,1,2.78-.76.1.1,0,0,0,.1-.1v-.58a.1.1,0,0,0-.11-.1,5.54,5.54,0,0,0-2.88,1,.09.09,0,0,0,0,.08V62A.1.1,0,0,0,47.42,62.08Z"/><path class="cls-2" d="M46.39,68.78l0,0a.11.11,0,0,0,0-.08V65.89a2.38,2.38,0,0,0-2.38-2.38H41.39a.1.1,0,0,0-.1.1v5.51a1.52,1.52,0,0,0,1.52,1.52h.45a.1.1,0,0,0,.1-.1V65.68a.11.11,0,0,1,.1-.1h.62a.31.31,0,0,1,.31.31v4.65a.11.11,0,0,0,.1.1h.56a.11.11,0,0,0,.1-.12.81.81,0,0,1,.22-.72Z"/><path class="cls-2" d="M52.49,63.51H49.8a2.38,2.38,0,0,0-2.38,2.38v2.75a.09.09,0,0,0,0,.08l.07.06,1,1a.79.79,0,0,1,.21.74.11.11,0,0,0,.1.12h1.35a2.38,2.38,0,0,0,2.38-2.38V63.61A.11.11,0,0,0,52.49,63.51Zm-2,4.77a.31.31,0,0,1-.31.31h-.62a.09.09,0,0,1-.1-.1v-2.6a.31.31,0,0,1,.31-.31h.51a.21.21,0,0,1,.21.21Z"/><path class="cls-2" d="M47.42,69.32l-.21-.21a.34.34,0,0,0-.5,0l-.25.24-.71.71a.47.47,0,0,0,0,.58l1,1.42a.36.36,0,0,0,.58,0l1-1.4,0,0a.46.46,0,0,0-.06-.58Z"/><path class="cls-3" d="M46.46,63.37Z"/><path class="cls-3" d="M46.46,63.37Z"/><path class="cls-2" d="M51.58,61.36l-.3,0h0a.1.1,0,0,1-.09-.1V59.77a.1.1,0,0,0-.1-.1h-.32a6.86,6.86,0,0,0-3.85,1.06.09.09,0,0,1-.12,0,6.8,6.8,0,0,0-3.87-1.07h-.32a.1.1,0,0,0-.1.1v1.46a.1.1,0,0,1-.09.1h0l-.3,0a.11.11,0,0,0-.09.1v1.44a.11.11,0,0,0,.1.1h.67a.1.1,0,0,0,.1-.1v-.62a.09.09,0,0,1,.1-.1,4.86,4.86,0,0,1,3.43,1.12l.07.08h.75l0,0,0,0a4.86,4.86,0,0,1,3.43-1.12.09.09,0,0,1,.1.1v.62a.1.1,0,0,0,.1.1h.67a.11.11,0,0,0,.1-.1V61.46A.11.11,0,0,0,51.58,61.36ZM46.39,62a.1.1,0,0,1-.15.09,6.08,6.08,0,0,0-2.78-.76.11.11,0,0,1-.1-.1v-.58a.1.1,0,0,1,.11-.1,5.45,5.45,0,0,1,2.88,1,.09.09,0,0,1,0,.08Zm3.91-.76a.1.1,0,0,1-.1.1,6.08,6.08,0,0,0-2.78.76.1.1,0,0,1-.15-.09v-.41a.09.09,0,0,1,0-.08,5.54,5.54,0,0,1,2.88-1,.1.1,0,0,1,.11.1Z"/><path class="cls-2" d="M51.8,56.9H42.08a4,4,0,0,0-4,4v9.73a4,4,0,0,0,4,4H51.8a4,4,0,0,0,4-4V60.86A4,4,0,0,0,51.8,56.9Zm2.48,13.69a2.48,2.48,0,0,1-2.48,2.47H42.08a2.48,2.48,0,0,1-2.48-2.47V60.86a2.48,2.48,0,0,1,2.48-2.47H51.8a2.48,2.48,0,0,1,2.48,2.47Z"/></g></g></svg>