<svg xmlns="http://www.w3.org/2000/svg" viewBox="0 0 60.36 79.24"><defs><style>.cls-1{fill:#183d6b;}.cls-2{fill:#fff;}.cls-3,.cls-4{fill:#ea0029;}.cls-3{fill-rule:evenodd;}.cls-5{fill:none;}</style></defs><g id="Capa_2" data-name="Capa 2"><g id="Capa_1-2" data-name="Capa 1"><path class="cls-1" d="M37.11,74.94H1.18A1.18,1.18,0,0,1,0,73.76V1.18A1.18,1.18,0,0,1,1.18,0h53.9a1.2,1.2,0,0,1,1.18,1.18l-.21,54.65a1.17,1.17,0,0,1-.34.83L38,74.59A1.15,1.15,0,0,1,37.11,74.94ZM2.36,72.59H36.62L53.69,55.34l.2-53H2.36Z"/><path class="cls-1" d="M37.11,74.94a1.2,1.2,0,0,1-.45-.09,1.18,1.18,0,0,1-.73-1.09V64.82c0-7,3.11-10.17,10.09-10.17h8.85a1.17,1.17,0,0,1,1.09.72,1.2,1.2,0,0,1-.25,1.29L38,74.59A1.18,1.18,0,0,1,37.11,74.94ZM46,57c-5.64,0-7.73,2.12-7.73,7.82V70.9L52.05,57Z"/><rect class="cls-1" x="1.29" y="1.18" width="53.67" height="18.15"/><path class="cls-2" d="M15.37,15.4h-2V13.59h2Zm3.94-3.5v3.5H17.38V5.78h3.8a3.73,3.73,0,0,1,2.59.85,2.86,2.86,0,0,1,.94,2.22,2.83,2.83,0,0,1-.94,2.22,3.77,3.77,0,0,1-2.59.83Zm0-1.48h1.87A1.55,1.55,0,0,0,22.39,10a1.57,1.57,0,0,0,.42-1.11,1.64,1.64,0,0,0-.42-1.16,1.55,1.55,0,0,0-1.21-.44H19.31Zm14.51,5h-1.9L28.07,8.83H28V15.4H26.1V5.78H28l3.85,6.56h.05V5.78h1.9Zm9.1-1.32a3.78,3.78,0,0,1-1.32,1,5.17,5.17,0,0,1-2.29.43,3.81,3.81,0,0,1-2.84-1.08,3.91,3.91,0,0,1-1.12-2.85v-2a4,4,0,0,1,1.08-2.84,3.62,3.62,0,0,1,2.74-1.11,3.85,3.85,0,0,1,2.66.86,2.94,2.94,0,0,1,.93,2.26v0H41a1.82,1.82,0,0,0-.48-1.2,1.68,1.68,0,0,0-1.26-.44,1.74,1.74,0,0,0-1.42.67,2.71,2.71,0,0,0-.53,1.76v2a2.67,2.67,0,0,0,.55,1.76,1.82,1.82,0,0,0,1.49.69,3.42,3.42,0,0,0,1.07-.13,1.63,1.63,0,0,0,.62-.35V11.81H39.31V10.47h3.61Z"/><path class="cls-3" d="M14.09,23.76h4v4h4v-4h4v4h4v-4h4v4h4v-4h4v4h-4v4h4v4.07h-4v4h4v4h-4v4.07h4v4.05h-4V48.08h-4v4.05h-4V48.08h-4v4.05h-4V48.08h-4v4.05h-4V48.08h4V44h-4V40h4v-4h-4V31.85h4v-4h-4Zm16,4v4h4v-4Zm4,4v4.07h4V31.85Zm-12-4v4h4v-4Zm4,4v4.07h4V31.85Zm4,4.07v4h4v-4Zm4,4v4h4V40Zm-8,8.11V44h-4v4.07ZM22.1,44V40h-4v4Zm12,4.07V44h-4v4.07Zm-4-4.07V40h-4v4Zm-4-4v-4h-4v4Zm-4-4V31.85h-4v4.07Z"/><circle class="cls-4" cx="46.99" cy="65.88" r="13.37"/><path class="cls-5" d="M51.85,58.54H42.13A2.48,2.48,0,0,0,39.65,61v9.73a2.48,2.48,0,0,0,2.48,2.47h9.72a2.48,2.48,0,0,0,2.48-2.47V61A2.48,2.48,0,0,0,51.85,58.54ZM42,61.6a.11.11,0,0,1,.09-.1l.3,0h0a.1.1,0,0,0,.09-.1V59.91a.1.1,0,0,1,.1-.1H43a6.8,6.8,0,0,1,3.87,1.07.09.09,0,0,0,.12,0,6.77,6.77,0,0,1,3.85-1.06h.32a.1.1,0,0,1,.1.1v1.46a.1.1,0,0,0,.09.1h0l.3,0a.11.11,0,0,1,.09.1v1.44a.11.11,0,0,1-.1.1H51a.1.1,0,0,1-.1-.1v-.62a.09.09,0,0,0-.1-.1,4.86,4.86,0,0,0-3.43,1.12l0,0,0,0h-.75l-.07-.08A4.86,4.86,0,0,0,43,62.32a.09.09,0,0,0-.1.1V63a.1.1,0,0,1-.1.1h-.67A.11.11,0,0,1,42,63Zm3.16,9.07a.11.11,0,0,1-.1.12h-.56a.11.11,0,0,1-.1-.1V66a.31.31,0,0,0-.31-.31h-.62a.1.1,0,0,0-.1.1v4.86a.1.1,0,0,1-.1.1h-.45a1.52,1.52,0,0,1-1.52-1.52V63.76a.1.1,0,0,1,.1-.1h2.69A2.38,2.38,0,0,1,46.51,66v2.78a.11.11,0,0,1,0,.08l0,0-1,1A.81.81,0,0,0,45.2,70.67Zm3.07.12,0,0-1,1.4a.36.36,0,0,1-.58,0l-1-1.42a.47.47,0,0,1,0-.58l.71-.71.25-.24a.34.34,0,0,1,.5,0l.21.21.74.74A.46.46,0,0,1,48.27,70.79Zm4.37-2.36a2.38,2.38,0,0,1-2.38,2.38H48.91a.11.11,0,0,1-.1-.12A.82.82,0,0,0,48.6,70l-1-1-.07-.06a.09.09,0,0,1,0-.08V66a2.38,2.38,0,0,1,2.38-2.38h2.69a.11.11,0,0,1,.1.1Z"/><path class="cls-5" d="M43.51,61.46a6.08,6.08,0,0,1,2.78.76.1.1,0,0,0,.15-.09v-.41a.09.09,0,0,0,0-.08,5.45,5.45,0,0,0-2.88-1,.1.1,0,0,0-.11.1v.58A.1.1,0,0,0,43.51,61.46Z"/><path class="cls-5" d="M47.47,62.23a6.08,6.08,0,0,1,2.78-.76.11.11,0,0,0,.1-.1v-.58a.1.1,0,0,0-.11-.1,5.45,5.45,0,0,0-2.88,1,.09.09,0,0,0,0,.08v.41A.1.1,0,0,0,47.47,62.23Z"/><path class="cls-2" d="M46.44,68.93l0,0a.11.11,0,0,0,0-.08V66a2.38,2.38,0,0,0-2.38-2.38H41.44a.1.1,0,0,0-.1.1v5.51a1.52,1.52,0,0,0,1.52,1.52h.45a.1.1,0,0,0,.1-.1V65.83a.1.1,0,0,1,.1-.1h.62a.31.31,0,0,1,.31.31v4.65a.11.11,0,0,0,.1.1h.56a.11.11,0,0,0,.1-.12.81.81,0,0,1,.22-.72Z"/><path class="cls-2" d="M52.54,63.66H49.85A2.38,2.38,0,0,0,47.47,66v2.75a.09.09,0,0,0,0,.08l.07.06,1,1a.82.82,0,0,1,.21.74.11.11,0,0,0,.1.12h1.35a2.38,2.38,0,0,0,2.38-2.38V63.76A.11.11,0,0,0,52.54,63.66Zm-2,4.77a.31.31,0,0,1-.31.31h-.62a.09.09,0,0,1-.1-.1V66a.31.31,0,0,1,.31-.31h.51a.21.21,0,0,1,.21.21Z"/><path class="cls-2" d="M47.47,69.47l-.21-.21a.34.34,0,0,0-.5,0l-.25.24-.71.71a.47.47,0,0,0,0,.58l1,1.42a.36.36,0,0,0,.58,0l1-1.4,0,0a.46.46,0,0,0-.06-.58Z"/><path class="cls-4" d="M46.51,63.52Z"/><path class="cls-4" d="M46.51,63.52Z"/><path class="cls-2" d="M51.63,61.51l-.3,0h0a.1.1,0,0,1-.09-.1V59.92a.1.1,0,0,0-.1-.1H50.8A6.77,6.77,0,0,0,47,60.87a.09.09,0,0,1-.12,0A6.8,6.8,0,0,0,43,59.8h-.32a.1.1,0,0,0-.1.1v1.46a.1.1,0,0,1-.09.1h0l-.3,0a.11.11,0,0,0-.09.1V63a.11.11,0,0,0,.1.1h.67a.1.1,0,0,0,.1-.1v-.62a.09.09,0,0,1,.1-.1,4.86,4.86,0,0,1,3.43,1.12l.07.08h.75l0,0,0,0a4.86,4.86,0,0,1,3.43-1.12.09.09,0,0,1,.1.1v.62a.1.1,0,0,0,.1.1h.67a.11.11,0,0,0,.1-.1V61.61A.11.11,0,0,0,51.63,61.51Zm-5.19.62a.1.1,0,0,1-.15.09,6.08,6.08,0,0,0-2.78-.76.1.1,0,0,1-.1-.1v-.58a.1.1,0,0,1,.11-.1,5.45,5.45,0,0,1,2.88,1,.09.09,0,0,1,0,.08Zm3.91-.76a.11.11,0,0,1-.1.1,6.08,6.08,0,0,0-2.78.76.1.1,0,0,1-.15-.09v-.41a.09.09,0,0,1,0-.08,5.45,5.45,0,0,1,2.88-1,.1.1,0,0,1,.11.1Z"/><path class="cls-2" d="M51.85,57.05H42.13a4,4,0,0,0-4,4v9.73a4,4,0,0,0,4,4h9.72a4,4,0,0,0,4-4V61A4,4,0,0,0,51.85,57.05Zm2.48,13.69a2.48,2.48,0,0,1-2.48,2.47H42.13a2.48,2.48,0,0,1-2.48-2.47V61a2.48,2.48,0,0,1,2.48-2.47h9.72A2.48,2.48,0,0,1,54.33,61Z"/></g></g></svg>