<svg xmlns="http://www.w3.org/2000/svg" viewBox="0 0 60.15 79.32"><defs><style>.cls-1{fill:#183d6b;}.cls-2{fill:#fff;}.cls-3{fill:#ea0029;}.cls-4{fill:none;}</style></defs><g id="Capa_2" data-name="Capa 2"><g id="Capa_1-2" data-name="Capa 1"><path class="cls-1" d="M37.11,74.92H1.18A1.18,1.18,0,0,1,0,73.74V1.18A1.18,1.18,0,0,1,1.18,0h53.9a1.14,1.14,0,0,1,.83.35,1.14,1.14,0,0,1,.35.83l-.21,54.63a1.15,1.15,0,0,1-.34.82L38,74.57A1.19,1.19,0,0,1,37.11,74.92ZM2.36,72.56H36.62L53.7,55.32l.19-53H2.36Z"/><path class="cls-1" d="M37.11,74.92a1.2,1.2,0,0,1-.45-.09,1.18,1.18,0,0,1-.73-1.09V64.82c0-7,3.11-10.2,10.09-10.2h8.85a1.18,1.18,0,0,1,.84,2L38,74.57A1.18,1.18,0,0,1,37.11,74.92ZM46,57c-5.63,0-7.73,2.13-7.73,7.84v6.05L52,57Z"/><rect class="cls-1" x="1.29" y="1.18" width="53.67" height="18.12"/><path class="cls-2" d="M11.82,15.39h-2V13.57h2Zm3.92-3.49v3.49h-1.9V5.78h3.8a3.81,3.81,0,0,1,2.58.83,2.91,2.91,0,0,1,.94,2.22,2.84,2.84,0,0,1-.94,2.22,3.67,3.67,0,0,1-2.58.85Zm0-1.5h1.9A1.58,1.58,0,0,0,18.85,10a1.5,1.5,0,0,0,.41-1.11,1.7,1.7,0,0,0-.41-1.15,1.58,1.58,0,0,0-1.21-.44h-1.9Zm8.74,1.5v3.49H22.56V5.78h3.8a3.77,3.77,0,0,1,2.58.83,2.91,2.91,0,0,1,.94,2.22,2.84,2.84,0,0,1-.94,2.22,3.64,3.64,0,0,1-2.58.85Zm0-1.5h1.88A1.58,1.58,0,0,0,27.57,10,1.5,1.5,0,0,0,28,8.85a1.7,1.7,0,0,0-.41-1.15,1.55,1.55,0,0,0-1.21-.44H24.48ZM37.87,7.26h-2.7v8.13h-1.9V7.26H30.59V5.78h7.28Z"/><path class="cls-3" d="M37.25,56.31a1.2,1.2,0,0,1-1-.6l-4.1-7.28a1.19,1.19,0,0,1,.46-1.61,1.17,1.17,0,0,1,1.6.45l4.1,7.28a1.18,1.18,0,0,1-.45,1.61A1.22,1.22,0,0,1,37.25,56.31ZM19,56.31a1.19,1.19,0,0,1-.58-.15A1.18,1.18,0,0,1,18,54.55l4.1-7.28a1.18,1.18,0,1,1,2.05,1.16L20,55.71A1.17,1.17,0,0,1,19,56.31Z"/><path class="cls-3" d="M28.14,28.25A1.18,1.18,0,0,1,27,27.07V24.55a1.18,1.18,0,1,1,2.36,0v2.52A1.18,1.18,0,0,1,28.14,28.25Z"/><path class="cls-3" d="M47.16,49H9.1a1.18,1.18,0,0,1-1.18-1.18V27.07A1.18,1.18,0,0,1,9.1,25.89H47.16a1.18,1.18,0,0,1,1.18,1.18V47.85A1.18,1.18,0,0,1,47.16,49ZM10.28,46.67H46V28.25H10.28Z"/><path class="cls-3" d="M42.17,43.76A1.18,1.18,0,0,1,41,42.58V32.52a1.18,1.18,0,0,1,2.36,0V42.58A1.18,1.18,0,0,1,42.17,43.76Z"/><path class="cls-3" d="M38.39,43.76a1.19,1.19,0,0,1-1.18-1.18l0-5.91a1.19,1.19,0,0,1,1.18-1.19,1.22,1.22,0,0,1,1.18,1.18l0,5.91a1.18,1.18,0,0,1-1.17,1.19Z"/><path class="cls-3" d="M34.59,43.76a1.17,1.17,0,0,1-1.17-1.18v-3a1.18,1.18,0,1,1,2.35,0v3A1.18,1.18,0,0,1,34.59,43.76Z"/><path class="cls-3" d="M25.6,33.7H14a1.18,1.18,0,1,1,0-2.35H25.6a1.18,1.18,0,1,1,0,2.35Z"/><path class="cls-3" d="M21.09,38.72H14a1.18,1.18,0,1,1,0-2.36h7.07a1.18,1.18,0,1,1,0,2.36Z"/><path class="cls-3" d="M14,43.76a1.18,1.18,0,0,1,0-2.36l14.3,0h0a1.18,1.18,0,0,1,0,2.36L14,43.76Z"/><circle class="cls-3" cx="46.78" cy="65.95" r="13.37"/><path class="cls-4" d="M51.65,58.61H41.92a2.48,2.48,0,0,0-2.48,2.48v9.72a2.48,2.48,0,0,0,2.48,2.48h9.73a2.48,2.48,0,0,0,2.47-2.48V61.09A2.48,2.48,0,0,0,51.65,58.61Zm-9.82,3.07a.1.1,0,0,1,.09-.1l.3,0h0a.1.1,0,0,0,.09-.1V60a.11.11,0,0,1,.1-.1h.32a7,7,0,0,1,3.87,1.07.09.09,0,0,0,.12,0,7,7,0,0,1,3.85-1.06h.32a.11.11,0,0,1,.1.1v1.47a.11.11,0,0,0,.09.1h0l.3,0a.1.1,0,0,1,.09.1v1.43a.09.09,0,0,1-.1.1h-.67a.1.1,0,0,1-.1-.1V62.5a.1.1,0,0,0-.1-.1,4.87,4.87,0,0,0-3.43,1.13l0,0,0,0H46.3l-.07-.08a4.86,4.86,0,0,0-3.43-1.13.11.11,0,0,0-.1.1v.62a.09.09,0,0,1-.1.1h-.67a.1.1,0,0,1-.1-.1ZM45,70.75a.1.1,0,0,1-.1.11h-.56a.1.1,0,0,1-.1-.1V66.11a.31.31,0,0,0-.31-.31H43.3a.11.11,0,0,0-.1.1v4.86a.09.09,0,0,1-.1.1h-.45a1.52,1.52,0,0,1-1.52-1.52V63.83a.11.11,0,0,1,.1-.1h2.69a2.38,2.38,0,0,1,2.38,2.38v2.78a.11.11,0,0,1,0,.08.08.08,0,0,0,0,0l-1,1A.83.83,0,0,0,45,70.75Zm3.07.11,0,0-.95,1.4a.36.36,0,0,1-.58,0l-1-1.43a.45.45,0,0,1,.05-.57l.71-.71.25-.25a.36.36,0,0,1,.5,0l.21.21.74.75A.44.44,0,0,1,48.06,70.86Zm4.37-2.35a2.38,2.38,0,0,1-2.38,2.38H48.7a.11.11,0,0,1-.1-.12.81.81,0,0,0-.21-.75l-1-1a.46.46,0,0,0-.07-.07.08.08,0,0,1,0-.07V66.12a2.37,2.37,0,0,1,2.38-2.38h2.69a.09.09,0,0,1,.1.1Z"/><path class="cls-4" d="M43.3,61.53a6.34,6.34,0,0,1,2.78.76.1.1,0,0,0,.15-.08v-.42a.09.09,0,0,0,0-.08,5.49,5.49,0,0,0-2.88-1,.1.1,0,0,0-.11.1v.57A.1.1,0,0,0,43.3,61.53Z"/><path class="cls-4" d="M47.26,62.3A6.34,6.34,0,0,1,50,61.54a.09.09,0,0,0,.1-.1v-.57a.1.1,0,0,0-.11-.1,5.52,5.52,0,0,0-2.88.95.12.12,0,0,0,0,.08v.42A.1.1,0,0,0,47.26,62.3Z"/><path class="cls-2" d="M46.23,69a.08.08,0,0,1,0,0,.11.11,0,0,0,0-.08V66.11a2.38,2.38,0,0,0-2.38-2.38H41.23a.11.11,0,0,0-.1.1v5.51a1.52,1.52,0,0,0,1.52,1.52h.45a.09.09,0,0,0,.1-.1V65.9a.11.11,0,0,1,.1-.1h.62a.31.31,0,0,1,.31.31v4.65a.1.1,0,0,0,.1.1h.56a.1.1,0,0,0,.1-.11.83.83,0,0,1,.22-.73Z"/><path class="cls-2" d="M52.33,63.74H49.64a2.37,2.37,0,0,0-2.38,2.38v2.75a.08.08,0,0,0,0,.07.46.46,0,0,1,.07.07l1,1a.81.81,0,0,1,.21.75.11.11,0,0,0,.1.12h1.35a2.38,2.38,0,0,0,2.38-2.38V63.84A.09.09,0,0,0,52.33,63.74Zm-2,4.77a.31.31,0,0,1-.31.31h-.62a.1.1,0,0,1-.1-.1v-2.6a.31.31,0,0,1,.31-.31h.51a.21.21,0,0,1,.21.21Z"/><path class="cls-2" d="M47.26,69.54l-.21-.21a.36.36,0,0,0-.5,0l-.25.25-.71.71a.45.45,0,0,0-.05.57l1,1.43a.36.36,0,0,0,.58,0l.95-1.4,0,0a.44.44,0,0,0-.06-.57Z"/><path class="cls-3" d="M46.3,63.6Z"/><path class="cls-3" d="M46.3,63.6Z"/><path class="cls-2" d="M51.42,61.59l-.3,0h0a.11.11,0,0,1-.09-.1V60a.11.11,0,0,0-.1-.1h-.32a7,7,0,0,0-3.85,1.06.09.09,0,0,1-.12,0,7,7,0,0,0-3.87-1.07h-.32a.11.11,0,0,0-.1.1v1.47a.1.1,0,0,1-.09.1h0l-.3,0a.1.1,0,0,0-.09.1v1.43a.1.1,0,0,0,.1.1h.67a.09.09,0,0,0,.1-.1v-.62a.11.11,0,0,1,.1-.1,4.86,4.86,0,0,1,3.43,1.13l.07.08h.75l0,0,0,0a4.87,4.87,0,0,1,3.43-1.13.1.1,0,0,1,.1.1v.62a.1.1,0,0,0,.1.1h.67a.09.09,0,0,0,.1-.1V61.69A.1.1,0,0,0,51.42,61.59Zm-5.19.62a.1.1,0,0,1-.15.08,6.34,6.34,0,0,0-2.78-.76.1.1,0,0,1-.1-.1v-.57a.1.1,0,0,1,.11-.1,5.49,5.49,0,0,1,2.88,1,.09.09,0,0,1,0,.08Zm3.91-.77a.09.09,0,0,1-.1.1,6.34,6.34,0,0,0-2.78.76.1.1,0,0,1-.15-.08V61.8a.12.12,0,0,1,0-.08A5.52,5.52,0,0,1,50,60.77a.1.1,0,0,1,.11.1Z"/><path class="cls-2" d="M51.65,57.13H41.92a4,4,0,0,0-4,4v9.72a4,4,0,0,0,4,4h9.73a4,4,0,0,0,4-4V61.09A4,4,0,0,0,51.65,57.13Zm2.47,13.68a2.48,2.48,0,0,1-2.47,2.48H41.92a2.48,2.48,0,0,1-2.48-2.48V61.09a2.48,2.48,0,0,1,2.48-2.48h9.73a2.48,2.48,0,0,1,2.47,2.48Z"/></g></g></svg>