<svg xmlns="http://www.w3.org/2000/svg" viewBox="0 0 195.7 155"><defs><style>.cls-1{fill:#163d6b;}.cls-2{fill:none;}.cls-3{fill:#ea0029;}</style></defs><g id="Capa_2" data-name="Capa 2"><g id="Capa_1-2" data-name="Capa 1"><path class="cls-1" d="M71.22,155H54.13V126.23a13.48,13.48,0,0,1,13.48-13.47H84.7v28.77A13.48,13.48,0,0,1,71.22,155Zm-4.85-12.23h4.85a1.24,1.24,0,0,0,1.24-1.24V125.64a.64.64,0,0,0-.64-.65H67.61a1.24,1.24,0,0,0-1.24,1.24Z"/><path class="cls-1" d="M124.37,121.05a8.31,8.31,0,0,0-8.3-8.31H90.36V125h11.08v29.88h12.23V125h10.7Z"/><path class="cls-1" d="M148,112.73v12.84h-5.73V112.73H130v32.43a9.69,9.69,0,0,0,9.69,9.69h2.54v-17H148v17h12.23V112.73Z"/><path class="cls-1" d="M195.7,112.74H183.47v12.83h-5.34V112.74H165.9V127.2a10.61,10.61,0,0,0,10.61,10.61h7v3.7a1.25,1.25,0,0,1-1.24,1.24h-7.32a9,9,0,0,0-9,9V155h16.33a13.47,13.47,0,0,0,13.47-13.47Z"/><path class="cls-1" d="M0,132.38v22.47H12.23V123.94H8.44A8.44,8.44,0,0,0,0,132.38Z"/><path class="cls-1" d="M35,112.75H18v33.73a8.37,8.37,0,0,0,8.37,8.37h3.86V125H35a1.24,1.24,0,0,1,1.24,1.24v28.63H48.5V126.22A13.47,13.47,0,0,0,35,112.75Z"/><path class="cls-1" d="M6.07,119.08a5.79,5.79,0,1,0-5.79-5.79A5.79,5.79,0,0,0,6.07,119.08Z"/><path class="cls-2" d="M124,8H71.7A13.32,13.32,0,0,0,58.4,21.3V73.6A13.31,13.31,0,0,0,71.7,86.9H124a13.32,13.32,0,0,0,13.3-13.3V21.3A13.32,13.32,0,0,0,124,8ZM71.23,24.48a.54.54,0,0,1,.49-.54l1.61-.17h.12a.54.54,0,0,0,.49-.54V15.36a.54.54,0,0,1,.52-.54l1.73-.07c.53,0,12.35-.38,20.78,5.78a.53.53,0,0,0,.63,0c8.43-6.11,20.18-5.74,20.72-5.72l1.73.06a.53.53,0,0,1,.51.54v7.87a.55.55,0,0,0,.5.54h.11l1.61.16a.54.54,0,0,1,.49.54v7.7a.54.54,0,0,1-.54.54h-3.6a.55.55,0,0,1-.54-.54V28.91a.54.54,0,0,0-.53-.54c-4.45,0-13.47.68-18.44,6.05l-.15.19-.18.18h-4l-.38-.43c-5-5.37-14-6.06-18.44-6a.53.53,0,0,0-.53.54v3.31a.54.54,0,0,1-.54.54h-3.6a.54.54,0,0,1-.54-.54Zm17,48.75a.53.53,0,0,1-.53.62h-3a.54.54,0,0,1-.53-.54v-25a1.67,1.67,0,0,0-1.67-1.67H79.15a.54.54,0,0,0-.54.54V73.31a.54.54,0,0,1-.54.54H75.64a8.16,8.16,0,0,1-8.16-8.16V36.07a.54.54,0,0,1,.54-.54H82.48a12.8,12.8,0,0,1,12.8,12.8V63.26a.58.58,0,0,1-.2.42l-.22.2L89.4,69.35A4.32,4.32,0,0,0,88.2,73.23Zm16.51.62-.09.13L99.49,81.5a1.87,1.87,0,0,1-3.11,0l-5.22-7.65a2.44,2.44,0,0,1,.29-3.08l3.83-3.83,1.32-1.32a1.9,1.9,0,0,1,2.67,0l1.13,1.13,4,4A2.41,2.41,0,0,1,104.71,73.85Zm23.51-12.67A12.8,12.8,0,0,1,115.42,74h-7.24a.53.53,0,0,1-.53-.64,4.35,4.35,0,0,0-1.17-4L101,63.88a4.36,4.36,0,0,0-.4-.35.55.55,0,0,1-.21-.41V48.34a12.81,12.81,0,0,1,12.8-12.8h14.48a.54.54,0,0,1,.54.54Z"/><path class="cls-2" d="M79.12,23.7c4.24.23,10.08,1.14,14.95,4.07a.53.53,0,0,0,.81-.46V25.09a.54.54,0,0,0-.2-.43c-4.9-3.84-11.71-4.88-15.49-5.15a.54.54,0,0,0-.58.54v3.11A.55.55,0,0,0,79.12,23.7Z"/><path class="cls-2" d="M100.43,27.83c4.88-2.93,10.71-3.85,14.95-4.07a.55.55,0,0,0,.51-.54V20.11a.53.53,0,0,0-.57-.54c-3.79.27-10.6,1.31-15.5,5.14a.55.55,0,0,0-.2.43v2.23A.53.53,0,0,0,100.43,27.83Z"/><path class="cls-3" d="M94.86,63.88l.22-.2a.58.58,0,0,0,.2-.42V48.33a12.8,12.8,0,0,0-12.8-12.8H68a.54.54,0,0,0-.54.54V65.69a8.16,8.16,0,0,0,8.16,8.16h2.43a.54.54,0,0,0,.54-.54V47.2a.54.54,0,0,1,.54-.54h3.33a1.67,1.67,0,0,1,1.67,1.67v25a.54.54,0,0,0,.53.54h3a.53.53,0,0,0,.53-.62,4.32,4.32,0,0,1,1.2-3.88Z"/><path class="cls-3" d="M127.68,35.54H113.2a12.81,12.81,0,0,0-12.8,12.8V63.12a.55.55,0,0,0,.21.41,4.36,4.36,0,0,1,.4.35l5.47,5.47a4.35,4.35,0,0,1,1.17,4,.53.53,0,0,0,.53.64h7.24a12.8,12.8,0,0,0,12.8-12.8V36.08A.54.54,0,0,0,127.68,35.54ZM117.09,61.18a1.67,1.67,0,0,1-1.67,1.67h-3.34a.54.54,0,0,1-.54-.54v-14a1.66,1.66,0,0,1,1.66-1.67H116a1.14,1.14,0,0,1,1.13,1.13Z"/><path class="cls-3" d="M100.4,66.75l-1.13-1.13a1.9,1.9,0,0,0-2.67,0l-1.32,1.32-3.83,3.83a2.44,2.44,0,0,0-.29,3.08l5.22,7.65a1.87,1.87,0,0,0,3.11,0L104.62,74l.09-.13a2.41,2.41,0,0,0-.29-3.08Z"/><path class="cls-3" d="M95.26,34.79Z"/><path class="cls-3" d="M95.26,34.79h0S95.27,34.81,95.26,34.79Z"/><path class="cls-3" d="M122.78,24l-1.61-.16h-.11a.55.55,0,0,1-.5-.54V15.41a.53.53,0,0,0-.51-.54l-1.73-.06c-.54,0-12.29-.39-20.72,5.72a.53.53,0,0,1-.63,0c-8.43-6.16-20.25-5.8-20.78-5.78l-1.73.07a.54.54,0,0,0-.52.54v7.86a.54.54,0,0,1-.49.54h-.12l-1.61.17a.54.54,0,0,0-.49.54v7.69a.54.54,0,0,0,.54.54h3.6a.54.54,0,0,0,.54-.54V28.86a.53.53,0,0,1,.53-.54c4.46,0,13.47.67,18.44,6l.38.43h4l.18-.18.15-.19c5-5.37,14-6.06,18.44-6.05a.54.54,0,0,1,.53.54v3.32a.55.55,0,0,0,.54.54h3.6a.54.54,0,0,0,.54-.54v-7.7A.54.54,0,0,0,122.78,24Zm-27.9,3.32a.53.53,0,0,1-.81.46c-4.87-2.93-10.71-3.84-14.95-4.07a.55.55,0,0,1-.51-.54V20.05a.54.54,0,0,1,.58-.54c3.78.27,10.59,1.31,15.49,5.15a.53.53,0,0,1,.2.42Zm21-4.09a.55.55,0,0,1-.51.54c-4.24.22-10.07,1.14-14.95,4.07a.53.53,0,0,1-.81-.46V25.14a.55.55,0,0,1,.2-.43c4.9-3.83,11.71-4.87,15.5-5.14a.53.53,0,0,1,.57.54Z"/><path class="cls-1" d="M124,0H71.7A21.32,21.32,0,0,0,50.4,21.3V73.6A21.32,21.32,0,0,0,71.7,94.89H124A21.31,21.31,0,0,0,145.29,73.6V21.3A21.32,21.32,0,0,0,124,0Zm13.3,73.6A13.32,13.32,0,0,1,124,86.9H71.7A13.31,13.31,0,0,1,58.4,73.6V21.3A13.32,13.32,0,0,1,71.7,8H124A13.32,13.32,0,0,1,137.3,21.3Z"/></g></g></svg>