<svg xmlns="http://www.w3.org/2000/svg" viewBox="0 0 105.58 39.99">
  <defs>
    <style>.cls-1{fill:#fff;}</style>
  </defs>
  <g id="Capa_2" data-name="Capa 2">
    <g id="Capa_1-2" data-name="Capa 1">
      <path class="cls-1" d="M22.66,32.31l3.23-3.24A.69.69,0,0,1,26,29a.35.35,0,0,0,.12-.25V19.87a7.57,7.57,0,0,0-7.58-7.57H10a.32.32,0,0,0-.32.32V30.14A4.83,4.83,0,0,0,14.52,35H16a.32.32,0,0,0,.32-.32V19.2a.33.33,0,0,1,.32-.32h2a1,1,0,0,1,1,1V34.65a.32.32,0,0,0,.32.32h1.76A.32.32,0,0,0,22,34.6,2.54,2.54,0,0,1,22.66,32.31Z" />
      <path class="cls-1" d="M45.31,12.31H36.74a7.57,7.57,0,0,0-7.57,7.57v8.74a.33.33,0,0,0,.12.25,2.31,2.31,0,0,1,.24.2l3.23,3.24a2.52,2.52,0,0,1,.69,2.36.32.32,0,0,0,.32.38h4.28a7.57,7.57,0,0,0,7.58-7.57V12.63A.32.32,0,0,0,45.31,12.31ZM39,27.48a1,1,0,0,1-1,1h-2a.32.32,0,0,1-.32-.32V19.88a1,1,0,0,1,1-1h1.63a.67.67,0,0,1,.67.67Z" />
      <path class="cls-1" d="M31.55,33.15l-2.38-2.38-.67-.67a1.16,1.16,0,0,0-.79-.32,1.14,1.14,0,0,0-.79.32l-.78.79-2.27,2.26A1.43,1.43,0,0,0,23.7,35h0l3.09,4.53a1.11,1.11,0,0,0,1.84,0l3-4.45.06-.08A1.44,1.44,0,0,0,31.55,33.15Z" />
      <path class="cls-1" d="M42.41,5.47l-.95-.09h-.07a.32.32,0,0,1-.29-.32V.4a.31.31,0,0,0-.31-.32l-1,0c-.32,0-7.27-.23-12.26,3.38a.29.29,0,0,1-.37,0C22.15-.22,15.16,0,14.84,0l-1,0a.32.32,0,0,0-.31.32V5a.33.33,0,0,1-.29.32h-.07l-1,.1a.32.32,0,0,0-.29.32v4.55a.32.32,0,0,0,.32.32h2.13a.31.31,0,0,0,.31-.32v-2A.33.33,0,0,1,15,8c2.64,0,8,.4,10.91,3.58l.23.25s0,0,0,0h2.38l.1-.11.09-.11C31.65,8.46,37,8.06,39.62,8.07a.31.31,0,0,1,.31.32v2a.32.32,0,0,0,.32.31h2.13a.31.31,0,0,0,.32-.31V5.79A.33.33,0,0,0,42.41,5.47Zm-16.51,2a.31.31,0,0,1-.48.27A19.67,19.67,0,0,0,16.58,5.3.33.33,0,0,1,16.27,5V3.14a.33.33,0,0,1,.35-.32c2.24.16,6.27.78,9.16,3.05a.3.3,0,0,1,.12.25ZM38.33,5a.32.32,0,0,1-.3.32,19.67,19.67,0,0,0-8.84,2.41.32.32,0,0,1-.49-.27V6.15a.31.31,0,0,1,.13-.25C31.72,3.63,35.75,3,38,2.86a.31.31,0,0,1,.34.31Z" />
      <path class="cls-1" d="M67.1,16.88a4.49,4.49,0,0,0-4.48-4.49H48.75V19h6V35.11h6.6V19H67.1Z" />
      <path class="cls-1" d="M79.85,12.39v6.93H76.76V12.39h-6.6V29.88a5.23,5.23,0,0,0,5.23,5.23h1.37V25.92h3.09v9.19h6.6V12.39Z" />
      <path class="cls-1" d="M105.58,12.39H99v6.93H96.1V12.39H89.51v7.8a5.73,5.73,0,0,0,5.72,5.73H99v2a.67.67,0,0,1-.67.67H94.37a4.86,4.86,0,0,0-4.86,4.86v1.74h8.8a7.26,7.26,0,0,0,7.27-7.27Z" />
      <path class="cls-1" d="M0,23V35.11H6.6V18.43h-2A4.56,4.56,0,0,0,0,23Z" />
      <path class="cls-1" d="M3.28,15.81A3.12,3.12,0,1,0,.15,12.69,3.12,3.12,0,0,0,3.28,15.81Z" />
    </g>
  </g>
</svg>