<?xml version="1.0" standalone="no"?>
<!DOCTYPE svg PUBLIC "-//W3C//DTD SVG 20010904//EN"
 "http://www.w3.org/TR/2001/REC-SVG-20010904/DTD/svg10.dtd">
<svg version="1.0" xmlns="http://www.w3.org/2000/svg"
 width="700.000000pt" height="700.000000pt" viewBox="0 0 700.000000 700.000000"
 preserveAspectRatio="xMidYMid meet">
<metadata>
Created by potrace 1.14, written by Peter Selinger 2001-2017
</metadata>
<g transform="translate(0.000000,700.000000) scale(0.100000,-0.100000)"
fill="#000000" stroke="none">
<path d="M1330 6985 c-343 -58 -629 -204 -870 -445 -224 -225 -370 -496 -436
-815 -18 -86 -19 -174 -19 -2225 0 -2051 1 -2139 19 -2225 66 -319 212 -590
436 -815 224 -224 497 -370 815 -436 86 -18 174 -19 2225 -19 2051 0 2139 1
2225 19 319 66 590 212 815 436 224 225 370 496 436 815 18 86 19 174 19 2225
0 2051 -1 2139 -19 2225 -66 319 -212 590 -436 815 -220 219 -470 356 -792
433 l-93 21 -2125 2 c-1681 2 -2141 -1 -2200 -11z m4300 -599 c186 -44 335
-124 468 -250 179 -171 276 -369 302 -616 13 -129 13 -3911 0 -4040 -24 -227
-108 -412 -260 -574 -168 -178 -374 -280 -620 -306 -129 -13 -3911 -13 -4040
0 -246 26 -452 128 -620 306 -156 166 -238 351 -261 589 -7 74 -9 762 -7 2090
l3 1980 27 96 c48 176 120 308 235 429 167 178 377 284 610 309 43 5 980 8
2083 7 1892 -2 2009 -3 2080 -20z"/>
<path d="M1752 5904 c-22 -19 -22 -21 -25 -329 l-2 -310 -55 -8 c-30 -4 -71
-11 -90 -15 l-35 -7 -3 -309 c-2 -219 1 -313 9 -322 18 -22 302 -20 323 2 13
12 16 41 16 148 0 105 3 136 15 146 18 15 314 -2 469 -26 384 -60 667 -182
869 -373 l74 -71 143 0 143 0 68 64 c91 86 191 155 304 211 249 122 633 202
930 193 l110 -3 5 -145 c3 -80 9 -151 13 -157 6 -10 51 -13 167 -13 147 0 160
1 170 19 6 12 10 131 10 315 l0 296 -22 14 c-13 7 -51 16 -85 19 -34 3 -66 8
-72 12 -8 4 -11 105 -11 309 0 228 -3 306 -13 319 -11 16 -34 18 -207 18 -531
-1 -1027 -129 -1394 -359 -54 -34 -105 -62 -113 -62 -8 0 -40 17 -71 39 -200
135 -463 246 -737 311 -236 56 -406 77 -685 86 -182 6 -197 5 -218 -12z m618
-375 c249 -39 459 -103 655 -202 125 -62 244 -143 251 -171 3 -11 4 -59 2
-105 -4 -118 -7 -119 -159 -44 -160 79 -308 132 -489 177 -150 37 -341 66
-435 66 -29 0 -65 4 -79 10 l-26 10 0 138 c0 76 3 142 7 146 10 10 114 0 273
-25z m2448 9 c15 -15 17 -241 2 -269 -9 -15 -22 -19 -63 -19 -267 -1 -668
-103 -963 -246 -61 -30 -118 -54 -127 -54 -9 0 -21 9 -27 19 -13 25 -13 166
-1 190 12 22 123 97 222 150 196 105 479 189 759 225 137 18 183 19 198 4z"/>
<path d="M1267 4373 c-4 -3 -7 -524 -7 -1158 0 -1261 -3 -1202 60 -1330 44
-91 116 -173 202 -232 118 -80 179 -96 380 -101 l168 -4 10 27 c6 17 10 370
10 1000 0 878 2 973 16 979 9 3 74 6 145 6 145 0 183 -10 214 -56 19 -28 20
-55 23 -978 2 -671 6 -953 13 -963 14 -16 240 -19 270 -3 16 9 19 22 19 85 0
142 10 156 282 431 l239 241 -3 649 c-4 645 -4 650 -27 722 -96 308 -306 535
-591 637 -150 53 -173 55 -819 55 -329 0 -601 -3 -604 -7z"/>
<path d="M4500 4373 c-409 -68 -725 -377 -795 -780 -12 -69 -15 -197 -15 -672
l0 -587 243 -244 c285 -286 291 -296 294 -437 1 -51 4 -97 8 -103 8 -14 628
-13 715 1 100 15 251 71 342 125 171 102 330 294 398 481 60 168 60 161 60
1227 0 743 -3 975 -12 984 -9 9 -157 12 -613 11 -330 -1 -611 -4 -625 -6z
m399 -849 c21 -26 21 -36 20 -488 0 -253 -4 -494 -8 -535 -6 -66 -10 -77 -39
-102 l-32 -29 -153 0 c-106 0 -157 4 -165 12 -9 9 -12 142 -12 535 0 568 0
568 55 611 25 20 39 22 171 22 142 0 143 0 163 -26z"/>
<path d="M3465 2199 c-35 -10 -463 -433 -482 -476 -15 -35 -16 -93 -3 -128 6
-15 105 -166 220 -335 223 -327 235 -340 313 -340 63 0 93 33 300 335 109 160
205 304 213 322 20 46 17 117 -5 161 -28 54 -417 438 -463 457 -41 17 -50 17
-93 4z"/>
</g>
</svg>
