<svg xmlns="http://www.w3.org/2000/svg" viewBox="0 0 373.33 366.48"><defs><style>.cls-1{fill:#fdffde;}.cls-2{fill:#d5d6aa;}.cls-3,.cls-4{fill:none;stroke-linecap:round;stroke-linejoin:round;}.cls-3{stroke:#163d6b;stroke-width:7px;}.cls-4{stroke:#ea0029;stroke-width:6px;}</style></defs><g id="Capa_2" data-name="Capa 2"><g id="Capa_1-2" data-name="Capa 1"><path class="cls-1" d="M25.19,347.88c3,.69,5.32,3.62,8.44,3.92,2.64.25,5-1.48,7.67-1.91a17.14,17.14,0,0,1,6.35.61,128.86,128.86,0,0,0,42.05,2c3.45-.4,7-1,9.82-3.1,2-1.54,3.54-3.81,5.8-5,2.46-1.32,5.41-1.19,8.19-1l88.41,5.37c41.58,2.53,83.49,5,124.75-.69,15.45-2.15,31-5.43,46.52-4.43L368.13,0,0,5.42,5.09,351.17c5-1,10-2,15-3A12.41,12.41,0,0,1,25.19,347.88Z"/><path class="cls-2" d="M9.05,365.1c.66-1.37,2.78-2.55,3.37-3.65.67.64,9.18,5.64,9.16,5-.12-3.51,4.57-4.74,8.08-4.79q26-.36,52,1.05l2-.89a76.22,76.22,0,0,0,40.6-6.87c1.38,3,4.75,4.52,8,5.21a28.16,28.16,0,0,0,20-3.22l9.74,4.73,5.23-7.07c1.81,2.26,5.06,2.63,8,2.83l9.08.62c3.38.23,7.31.25,9.51-2.34.79,4.53,6.8,5.92,11.29,4.91s8.94-3.37,13.45-2.43c3.56.73,6.54,3.45,10.15,3.84,4.09.44,7.79-2.17,11.64-3.63s9.34-1.07,10.65,2.83l3.88-4.34a9.2,9.2,0,0,0,11.53-2.16,18.1,18.1,0,0,0,17.46.58c1.47-.77,2.91-1.78,4.56-1.94,3.9-.38,7.08,3.93,11,3.56,1.88-.18,3.44-1.41,5.07-2.36a18.52,18.52,0,0,1,20.85,1.88,17.84,17.84,0,0,1,7.66-8.59c.54,4.87,8.83,6,10.7,1.5l4.75,5.22c1.21-2.33,4.43-2.47,7.05-2.31l18,1.17-.14-9.79c-15.49-1-31.07,2.28-46.52,4.43-41.26,5.73-83.17,3.22-124.75.69l-88.41-5.37c-2.78-.17-5.73-.3-8.19,1-2.26,1.21-3.75,3.48-5.8,5-2.78,2.09-6.37,2.7-9.82,3.1a128.86,128.86,0,0,1-42.05-2,17.14,17.14,0,0,0-6.35-.61c-2.62.43-5,2.16-7.67,1.91-3.12-.3-5.39-3.23-8.44-3.92a12.41,12.41,0,0,0-5.1.3c-5,1-10,2-15,3l.16,11.14A8.68,8.68,0,0,1,9.05,365.1Z"/><polygon class="cls-3" points="209.24 123.66 209.24 58.55 275.82 123.66 209.24 123.66"/><path class="cls-3" d="M275.82,152V123.66L209.23,58.55H94.64a6.12,6.12,0,0,0-6.19,6V302.32a6.12,6.12,0,0,0,6.19,6.06h175a6.12,6.12,0,0,0,6.19-6.06V274.41"/><line class="cls-3" x1="211.42" y1="266.22" x2="114.99" y2="266.22"/><line class="cls-3" x1="188.93" y1="238.63" x2="114.99" y2="238.63"/><line class="cls-3" x1="184.81" y1="211.05" x2="114.99" y2="211.05"/><line class="cls-3" x1="191.81" y1="183.46" x2="114.99" y2="183.46"/><line class="cls-3" x1="217.9" y1="155.88" x2="114.99" y2="155.88"/><line class="cls-3" x1="193.62" y1="128.29" x2="114.99" y2="128.29"/><line class="cls-3" x1="190.5" y1="100.71" x2="114.99" y2="100.71"/><circle class="cls-3" cx="250.87" cy="213.18" r="66.1" transform="translate(0.26 426.66) rotate(-80.78)"/><polygon class="cls-4" points="299.13 194.32 283.71 176.72 244.45 221.54 222.18 196.12 206.76 213.72 244.45 256.75 259.87 239.14 259.87 239.14 299.13 194.32"/></g></g></svg>