<svg xmlns="http://www.w3.org/2000/svg" xmlns:xlink="http://www.w3.org/1999/xlink" viewBox="0 0 396.03 421.77"><defs><style>.cls-1{fill:none;}.cls-2{fill:#703f14;}.cls-3{fill:#fed5b7;}.cls-4{fill:#4a6477;}.cls-5{fill:#25353f;}.cls-6{clip-path:url(#clip-path);}.cls-7{fill:#fff;}.cls-8{fill:#b07145;}.cls-9{fill:#d9a37f;}.cls-10{fill:#f2e8d1;}.cls-11{fill:#dc4345;}.cls-12{fill:#c2b38c;}.cls-13{fill:#912227;}.cls-14{fill:#3a1e0a;}.cls-15{fill:#ea0029;}.cls-16{fill:#f24141;}</style><clipPath id="clip-path"><path class="cls-1" d="M374.56,313.08q-1-6.75-2.15-13.49c-2.22-20.62-5.46-41.14-9.72-61.44-1.46-7-3.13-14.17-7.09-20.13-4.17-6.29-10.56-10.74-17.08-14.53C317.66,191.39,294.2,184.65,271,178c-15.5-4.43-32.3-8.82-47.38-3.11l-16.48,7.47a195.74,195.74,0,0,0-63.38,15.85c-11.14,4.89-21.92,10.89-30.91,19.08-7.76,7.07-14,15.61-20.2,24.09-16.22,22.19-67.89,85.76-69.91,91-6.77,17.46-8,46.06,5.9,58.65,38.3,34.78,66.91-9.54,75.09-11.59,10.32-2.59,48.8-5.49,76.71-7.48q3.75,16.75,7.49,33.52c48.19-.71,96.76-1.45,143.87-11.64,8.8-1.91,17.76-4.24,25.14-9.41,10.59-7.42,16.69-20,18.8-32.76S376.44,325.88,374.56,313.08Z"/></clipPath></defs><g id="Capa_2" data-name="Capa 2"><g id="Capa_1-2" data-name="Capa 1"><path class="cls-2" d="M277.8,25.15c12.15-.27,24.53,2.22,34.81,8.18s18.28,15.58,20.68,26.59c1.71,7.85.62,16.17,3.34,23.78,2.16,6.08,6.61,11.24,9.35,17.12,7.48,16.06,1.32,34.42.27,51.89-.33,5.53-.1,11.24,2.25,16.33,5,10.89,20.28,14.3,27.32,24.44,27.31,39.31-3.56,59.61-11.5,76.11-8.34-8,1-38.38-10.95-37.12-7.84.82-15.21,3.78-22.85,5.57a78.21,78.21,0,0,1-51.21-5.55c-11.72-5.68-22-14.44-34.95-17.06-22.82-4.63-46.32,11.22-69.09,6.35-9.63-2.06-18.14-7.7-27.92-9-12.42-1.69-25.67,4.61-31.41,14.95-7.12-11.15-2.2-26.36,8.08-35.2,7-6,16.68-10.76,18.35-19.4,1.11-5.74-1.86-11.47-2.07-17.29-.37-10.38,7.84-19.2,15.92-26.44s17-14.93,18.87-25.18c1.34-7.41-1.32-15.13.54-22.44,2.13-8.37,9.73-14.55,17.47-19.32s16.24-8.92,22-15.64c2.87-3.33,5-7.19,8-10.43C232.76,26,274.17,25.23,277.8,25.15Z"/><path class="cls-3" d="M197.78,399,163.88,402a13.63,13.63,0,0,0-4.9,1.07c-2,1-3.4,3-4.94,4.68a24.12,24.12,0,0,1-12.17,7.17c-6.49,1.53-13.27.3-19.93.13-17-.41-33.71,6.14-50.51,6.7a2.68,2.68,0,0,1-1.09-5.17l23.16-9.19c-7,2.64-39.23,3.77-39.75,3.42-2.35-1.58,10.68-5.65,18-8.6-9,4.34-13.63,4.57-23.52,5.56a2.24,2.24,0,0,1-2.39-1.5c-.36-1.15.54-1.92,1.35-2.53,24.28-18.26,47.19-29.1,76.65-36.54,16.54-4.17,33.49-6.48,50.39-8.79l41.53-5.66a1.76,1.76,0,0,1,1,.13c1.23.57-.44,1.51-.42.79Z"/><path class="cls-4" d="M374.56,313.08q-1-6.75-2.15-13.49c-2.22-20.62-5.46-41.14-9.72-61.44-1.46-7-3.13-14.17-7.09-20.13-4.17-6.29-10.56-10.74-17.08-14.53C317.66,191.39,294.2,184.65,271,178c-15.5-4.43-32.3-8.82-47.38-3.11l-16.48,7.47a195.74,195.74,0,0,0-63.38,15.85c-11.14,4.89-21.92,10.89-30.91,19.08-7.76,7.07-14,15.61-20.2,24.09-16.22,22.19-67.89,85.76-69.91,91-6.77,17.46-8,46.06,5.9,58.65,38.3,34.78,66.91-9.54,75.09-11.59,10.32-2.59,48.8-5.49,76.71-7.48q3.75,16.75,7.49,33.52c48.19-.71,96.76-1.45,143.87-11.64,8.8-1.91,17.76-4.24,25.14-9.41,10.59-7.42,16.69-20,18.8-32.76S376.44,325.88,374.56,313.08Z"/><path class="cls-5" d="M182.45,369.36a238,238,0,0,0,7.17,44A94.66,94.66,0,0,1,211,408.68a308.6,308.6,0,0,1-6.88-55.25Z"/><g class="cls-6"><rect class="cls-7" x="101.08" y="244.83" width="8.95" height="38.3" transform="matrix(0.81, 0.59, -0.59, 0.81, 175.21, -11.65)"/><rect class="cls-7" x="185.24" y="261.46" width="8.95" height="38.3" transform="translate(201.04 -57.93) rotate(35.98)"/><rect class="cls-7" x="212.96" y="341.59" width="8.95" height="38.3" transform="translate(253.38 -58.93) rotate(35.97)"/><rect class="cls-7" x="255.3" y="219.12" width="8.95" height="38.3" transform="translate(189.52 -107.16) rotate(35.98)"/><rect class="cls-7" x="235.64" y="157.13" width="8.95" height="38.3" transform="matrix(0.81, 0.59, -0.59, 0.81, 149.36, -107.44)"/><rect class="cls-7" x="164.58" y="212.07" width="8.95" height="38.3" transform="translate(448.21 295.35) rotate(139.11)"/><rect class="cls-7" x="133.84" y="295.23" width="8.95" height="38.3" transform="translate(448.66 461.5) rotate(139.11)"/><rect class="cls-7" x="239.68" y="293.21" width="8.95" height="38.3" transform="translate(633.2 388.68) rotate(139.11)"/><rect class="cls-7" x="308.72" y="248.86" width="8.95" height="38.3" transform="translate(725.41 265.61) rotate(139.11)"/><rect class="cls-7" x="365.17" y="256.92" width="8.95" height="38.3" transform="translate(829.81 242.83) rotate(139.11)"/><rect class="cls-7" x="341.48" y="199.47" width="8.95" height="38.3" transform="translate(362.31 -190.3) rotate(60)"/><rect class="cls-7" x="307.72" y="321.94" width="8.95" height="38.3" transform="translate(451.49 -99.82) rotate(60)"/><rect class="cls-7" x="372.73" y="317.91" width="8.95" height="38.3" transform="translate(480.51 -158.14) rotate(60)"/><rect class="cls-7" x="281" y="380.4" width="8.95" height="38.3" transform="translate(488.77 -47.46) rotate(60)"/><rect class="cls-7" x="71.84" y="328.99" width="8.95" height="38.3" transform="translate(339.66 107.97) rotate(60)"/><rect class="cls-7" x="38.08" y="294.22" width="8.95" height="38.3" transform="translate(358.53 326.27) rotate(100.07)"/></g><path class="cls-8" d="M88.9,409.66a151.62,151.62,0,0,1,18.19-4.55c1-.18.56-1.64-.4-1.46A151.62,151.62,0,0,0,88.5,408.2c-.93.29-.53,1.75.4,1.46Z"/><path class="cls-8" d="M54.31,408.16c11.59-3.7,23.4-6.64,35.08-10q5.16-1.48,10.27-3.1c.92-.3.53-1.76-.4-1.46-11.59,3.7-23.4,6.64-35.09,10-3.43,1-6.86,2-10.26,3.1-.93.3-.53,1.76.4,1.46Z"/><path class="cls-8" d="M157.08,393.4q.58,4.56,1.15,9.13a.79.79,0,0,0,.76.75c.37,0,.81-.35.76-.75q-.58-4.57-1.15-9.13a.79.79,0,0,0-.76-.76.77.77,0,0,0-.76.76Z"/><path class="cls-5" d="M206.39,196.59c3.94,12.17,11.81,23.51,23.2,29.32s26.48,5.06,35.84-3.66c10.31-9.6,11.41-25.75,8.28-39.49-.49-2.15-1.12-4.39-2.65-6-2.45-2.56-6.41-2.74-9.95-2.75q-31-.12-62.06-.2Z"/><path class="cls-5" d="M107.9,330.29a22.23,22.23,0,0,0-22.2-8.52c-8.23,1.77-15.41,8.65-17.9,17.15-3.22,11,1.09,22.53,6.31,32.34,2.5,4.71,5.31,9.39,9.41,12.6s9.74,4.73,14.54,2.58,7.89-7.56,10.18-12.68c5.59-12.45,9.56-26.26,7.66-39.69Z"/><path class="cls-8" d="M141.52,295.78q8.22-11,17.39-21.33a2.57,2.57,0,0,1,1.7-1.09c1.31,0,1.81,1.69,1.87,3a180.25,180.25,0,0,1-.38,24l-11.77,2.71Z"/><path class="cls-3" d="M327.81,79.61a657.12,657.12,0,0,1-11.3,83.58c-.89,4.42-2,9.2-5.57,12-3.82,3-9.2,2.83-14.07,2.46-5.23-.38-29.91-2-31.35-.58-.43.42-.94,8.83-1.33,17a23.08,23.08,0,0,1-19,21.65,21.32,21.32,0,0,1-6.6.34,27.54,27.54,0,0,1-22.82-32.23c2.15-11.65,3.89-22.52,7.76-37.31-6.55,2.29-14.24-.57-18.58-6s-5.54-12.9-4.25-19.72a21.41,21.41,0,0,1,4.19-9.63,16.69,16.69,0,0,1,20.59-3.72c.9-13.73,8.63-38.34,11.23-51.86,27.06,8.29,63.72,16.65,91.87,19.65Z"/><path class="cls-2" d="M222.63,106.46c4.48,3.52,11.13.94,15.43-2.85a35.06,35.06,0,0,0,9.41-13.48c1.53-3.89,2.36-8,4.19-11.81s5-7.21,9-7.83c7-1.06,12.5,6.44,19.48,7.66,7.88,1.39,15.08-5.47,23.08-5.91a17.14,17.14,0,0,0,12.54,15.11c2.91.71,6.76,1.31,7.24,4.32.23,1.42-.48,2.79-1,4.12a18.46,18.46,0,0,0,4.6,20.13l6.73-40.52c.52-3.1,1-6.38-.13-9.27-2.05-5.2-8.25-6.95-13.64-8a710.85,710.85,0,0,0-82-10.75c-2.6-.18-5.33-.33-7.69.8-4.32,2.07-5.81,7.5-6.71,12.29a351.43,351.43,0,0,0-5.49,44.56l6.86,1.67Z"/><path class="cls-2" d="M255.65,34.22c3.83-5.72,1.82-14-3.11-18.77s-12-6.75-18.86-7.35c-5.69-.5-11.57-.17-16.86,2s-9.94,6.34-11.72,11.76c-1.84,5.6-.47,11.81,2.1,17.11,4.14,8.55,11.94,15.76,21.34,17.18s19.93-4.24,22.2-13.47Z"/><polygon class="cls-9" points="265.52 177.08 234.84 170.61 264.53 188.94 265.52 177.08"/><path class="cls-8" d="M211.43,115.69A26.44,26.44,0,0,1,223,133c.18,1,1.63.55,1.46-.4a27.94,27.94,0,0,0-12.3-18.19c-.82-.52-1.58.79-.76,1.31Z"/><path class="cls-8" d="M218.17,120.91a10.89,10.89,0,0,0,1.22,15.79c.77.59,1.52-.72.76-1.31-4-3.09-4.43-9.8-.91-13.41.67-.7-.39-1.77-1.07-1.07Z"/><path class="cls-8" d="M291.57,117.14a13.87,13.87,0,0,0,.91,7.37,16,16,0,0,0,4.24,5.62c1.54,1.41,3.31,2.81,4.21,4.75a5.74,5.74,0,0,1-.73,5.76,18.76,18.76,0,0,1-5.88,5c-.82.51-.07,1.82.77,1.31,3.57-2.19,8.27-5.58,7.82-10.36s-5.57-6.94-8-10.66a12.3,12.3,0,0,1-1.89-8.35.78.78,0,0,0-.52-.93.75.75,0,0,0-.93.53Z"/><path d="M273.6,123.68c-.37,2.93-2.36,5.08-4.43,4.82s-3.46-2.86-3.09-5.78,2.37-5.09,4.44-4.82S274,120.75,273.6,123.68Z"/><path d="M314.43,128.21c-.38,2.93-2.36,5.09-4.44,4.82s-3.46-2.85-3.08-5.78,2.36-5.08,4.44-4.82S314.8,125.29,314.43,128.21Z"/><path class="cls-2" d="M275.41,102a2.56,2.56,0,0,1,1.88,4,8.92,8.92,0,0,1-3.44,2.41A84.75,84.75,0,0,1,259,113.78a19.61,19.61,0,0,1,13.71-12.08Z"/><path class="cls-2" d="M306.66,104.87a2.56,2.56,0,0,0-1.87,4,8.85,8.85,0,0,0,3.44,2.41,84.75,84.75,0,0,0,14.88,5.38,19.61,19.61,0,0,0-13.72-12.08Z"/><path class="cls-2" d="M221.77,147.6c5.41,2.85,10,8.19,10,14.31s-4,11.19-7.47,16.17-6.45,11.31-4,16.85c.84,1.92,2.29,3.58,2.86,5.6,1.15,4.06-1.51,8.13-4,11.51a5.41,5.41,0,0,1-2,1.92,5.5,5.5,0,0,1-2.65.2l-20.56-1.81c-3.14-.28-6.38-.59-9.14-2.1-4.81-2.64-7.06-8.27-8.57-13.55a122.07,122.07,0,0,1-4.72-31.95Z"/><path class="cls-10" d="M152.71,219.69c7.86,53.71,18.24,111.9,26.11,165.61L293,384.75,265.79,219.69Z"/><path class="cls-11" d="M148.17,224.18Q160,304.75,171.76,385.3L286,384.75l-24.7-160.57Z"/><path class="cls-3" d="M92.28,327.48,126.76,325c-3.71-4.11-2.36-11.62,2.55-14.18-3.36-3.54-2-9.77,1.65-13s8.8-4.11,13.66-4.38a74.48,74.48,0,0,1,42.22,10.44,2.27,2.27,0,0,1,1.14,2c-.06,1.54-1.56,1.88-2.81,2l-7.42.92a30,30,0,0,1,19.56,3.7,5.08,5.08,0,0,1,2.37,3c1.06,3.9-3.57,6.16-7.25,7.1,2.65-1.53,6.28,1.46,5.87,4.48s-15.39,5.54-18.42,5.19c2.71-.77,11.63,1.26,10.56,3.86s-14.9,9.62-22.18,10.08c-.5,0,4.54,16.13-15,19.37C132.38,369,112,375.55,90.9,375a13.77,13.77,0,0,1-13.37-12.7,82.12,82.12,0,0,1,1.84-24.66,9.53,9.53,0,0,1,.68-1.91A14.62,14.62,0,0,1,92.28,327.48Z"/><path class="cls-12" d="M157.14,228a19,19,0,0,1-.5-6.89,18.33,18.33,0,0,1,.71-3.35,8.82,8.82,0,0,1,1.36-3.14c.75-.87,1.9,0,2.54.54a25.14,25.14,0,0,1,2.18,2.32,22.44,22.44,0,0,1,3.65,5.49,7.88,7.88,0,0,1,.24,6.56l.86-.35c-1.9-.69-2.16-3-2.08-4.74a14.86,14.86,0,0,1,1.74-6.26c.9-1.67,2.48-3.57,4.61-2.91a8.07,8.07,0,0,1,3.17,2.45,21.68,21.68,0,0,1,2.46,3.25,21.43,21.43,0,0,1,3,8.57l1.13-.66c-3.72-2.18-2.17-7.88-.79-11a5.9,5.9,0,0,1,1.87-2.7c1.15-.75,2.4,0,3.36.67a26.46,26.46,0,0,1,5.68,5.6c1.62,2.27,2.66,4.94,1.63,7.68h1.46c-1.51-3.59-3.78-9.91.41-12.63a6.43,6.43,0,0,1,6-.17,9.49,9.49,0,0,1,4.78,5,29.25,29.25,0,0,1,2,8.83l1.29-.53a10.66,10.66,0,0,1-3.07-6.2,6.43,6.43,0,0,1,2.27-5.58,4.66,4.66,0,0,1,5.55-.38,11.08,11.08,0,0,1,4,5.17,16.39,16.39,0,0,1,1.27,8.12l1.29-.53a11.54,11.54,0,0,1-2.49-6.85c-.07-2.3.48-5,2.25-6.65,2.06-1.88,4.75-.5,6.52,1.06a18.6,18.6,0,0,1,4.53,6c1.08,2.3,1.46,5-.14,7.14h1.31a11.78,11.78,0,0,1-.48-12.44,10.22,10.22,0,0,1,2.08-2.59,2.32,2.32,0,0,1,1.66-.75,2.93,2.93,0,0,1,1.6,1.11,14.58,14.58,0,0,1,3.18,6.53,15.07,15.07,0,0,1-.6,8.33h1.46a17.37,17.37,0,0,1-1-7.42c.18-2.29.76-5,2.27-6.85a4.14,4.14,0,0,1,4.93-1,6.37,6.37,0,0,1,3.66,4.15c.8,2.72.25,5.63-.49,8.31l1.11-.46c-3-2.31-1.31-7.22-.07-10,.27-.59.82-2.08,1.69-1.88.45.1.83.64,1.1,1A8.17,8.17,0,0,1,256,218a9.35,9.35,0,0,1,1,5.33,8.71,8.71,0,0,1-2.68,5.46l1.27.34a8.77,8.77,0,0,1,1.56-7.58c.59-.77-.72-1.52-1.3-.76a10.19,10.19,0,0,0-1.72,8.74.76.76,0,0,0,1.26.33,10.73,10.73,0,0,0,1.9-12.7,5.85,5.85,0,0,0-2.45-2.68,2.5,2.5,0,0,0-3,1.25,14.08,14.08,0,0,0-1.43,3.19,17.21,17.21,0,0,0-.86,3.41c-.36,2.55.12,5.09,2.26,6.73a.77.77,0,0,0,1.11-.45,17.74,17.74,0,0,0,.64-8.49,8,8,0,0,0-4.09-5.48,6,6,0,0,0-6,0c-2.26,1.51-3.2,4.55-3.64,7.1a18.72,18.72,0,0,0,.86,9.67.76.76,0,0,0,1.46,0,16.58,16.58,0,0,0-2.84-16.17c-.94-1.11-2.26-2-3.77-1.6a6.89,6.89,0,0,0-3.16,2.62,13.26,13.26,0,0,0-2.64,7.13,12.79,12.79,0,0,0,2.2,8.19.77.77,0,0,0,1.31,0c3.54-4.79-.7-11.33-4.32-14.7-2.1-2-5.11-3.65-7.93-2.11-2.5,1.36-3.5,4.54-3.71,7.19a13.18,13.18,0,0,0,2.91,9.21c.46.56,1.24,0,1.29-.54a17.68,17.68,0,0,0-1.27-8.41,12.78,12.78,0,0,0-4.77-6.18,6.15,6.15,0,0,0-6.67.07,7.82,7.82,0,0,0-3.45,6.18,11.7,11.7,0,0,0,3.53,8.27c.42.45,1.37.14,1.29-.53-.64-5.45-1.58-12.12-7-14.9a8.45,8.45,0,0,0-7.11-.49,6.92,6.92,0,0,0-3.91,5.9c-.27,3,.8,6.12,2,8.88a.76.76,0,0,0,1.46,0c2.23-5.93-3.45-11.46-7.68-14.74-1.21-.93-2.69-1.77-4.27-1.33a5,5,0,0,0-2.8,2.52,18.14,18.14,0,0,0-2.21,7.36c-.2,2.67.55,5.45,3,6.88.45.26,1.21-.06,1.14-.65a23.16,23.16,0,0,0-3-9,22.56,22.56,0,0,0-2.77-3.75,10.28,10.28,0,0,0-3.59-2.86c-2.59-1-4.89.61-6.26,2.74a16,16,0,0,0-2.37,7.43c-.18,2.61.46,5.54,3.18,6.53a.74.74,0,0,0,.85-.35c2.25-4.84-.7-9.79-3.79-13.47a22.83,22.83,0,0,0-2.59-2.79,4,4,0,0,0-3.32-1.25c-1.25.29-1.82,1.45-2.29,2.54a20.19,20.19,0,0,0-1,13.08.76.76,0,0,0,1.46-.4Z"/><path class="cls-13" d="M255.94,241.33q4.53,21.3,8.08,42.8t6.1,43.17q1.44,12.17,2.55,24.36c.09,1,1.61,1,1.52,0q-2-21.78-5-43.46t-7-43.24q-2.25-12-4.79-24c-.2-1-1.66-.55-1.46.4Z"/><path class="cls-13" d="M238,298.73l-11.73,16.1c-.57.79.74,1.54,1.31.76l11.73-16.1c.57-.79-.74-1.54-1.31-.76Z"/><path class="cls-13" d="M238.1,310.9a133.58,133.58,0,0,0-10.18,11.48c-.6.75.46,1.83,1.07,1.06A133.26,133.26,0,0,1,239.17,312c.68-.69-.39-1.76-1.07-1.07Z"/><path class="cls-13" d="M227.92,341.93a217,217,0,0,0-12.44,18.48c-.51.83.8,1.59,1.3.76a218.73,218.73,0,0,1,12.45-18.48c.58-.78-.73-1.53-1.31-.76Z"/><path class="cls-13" d="M223,251a174,174,0,0,0-16.27,17.09c-1.42,1.72-2.8,3.46-4.16,5.23a.76.76,0,0,0,.27,1,.78.78,0,0,0,1-.27,171.46,171.46,0,0,1,15.41-17.46c1.56-1.55,3.16-3.07,4.78-4.55.72-.66-.36-1.73-1.07-1.07Z"/><path class="cls-13" d="M210.36,277l-8.58,10c-.63.74.43,1.81,1.07,1.07l8.58-10c.63-.73-.43-1.81-1.07-1.07Z"/><path class="cls-8" d="M147.53,303.77q15.36,1,30.6,3.27,4.29.63,8.57,1.37c1,.16,1.36-1.3.4-1.46q-15.32-2.62-30.8-4-4.38-.39-8.77-.68c-1-.07-1,1.45,0,1.51Z"/><path class="cls-8" d="M194.66,319.74l-34.89-4.31-9.88-1.22c-1-.12-.95,1.39,0,1.51L184.78,320l9.88,1.22c1,.12,1-1.39,0-1.51Z"/><path class="cls-8" d="M153.75,330.47q13.44,1.78,26.94,3c1,.09,1-1.43,0-1.51q-13.5-1.25-26.94-3c-.41-.05-.75.39-.76.76a.79.79,0,0,0,.76.76Z"/><path class="cls-8" d="M150.37,346.7c3-.21,6-.35,9-.26a89.93,89.93,0,0,1,9,.77c1,.13,1-1.38,0-1.51a90,90,0,0,0-9-.78c-3-.08-6,.06-9,.27-1,.06-1,1.57,0,1.51Z"/><path class="cls-8" d="M145.26,300.9c2.79,6.2,3.84,13.14,4.31,19.87a146.37,146.37,0,0,1-.29,22.06q-.43,5.6-1.18,11.18c-.12,1,1.39.95,1.52,0a203.71,203.71,0,0,0,1.7-21.07,104.07,104.07,0,0,0-1.49-22.09,47.7,47.7,0,0,0-3.27-10.71c-.4-.89-1.7-.12-1.3.76Z"/><path class="cls-8" d="M127.4,327.25a7.32,7.32,0,0,0-4.5,6.36,9.06,9.06,0,0,0,3.65,7.55,24.37,24.37,0,0,0,3.65,2.08,3,3,0,0,1,1.31,1.14,4.79,4.79,0,0,1,0,2.55,12.26,12.26,0,0,0,3.23,8.62c2.47,2.91,5.9,4.81,9.18,6.64.86.47,1.62-.84.77-1.31-5-2.78-11.49-6.51-11.69-13,0-1.42.52-2.9-.2-4.23a6,6,0,0,0-3-2.22,9.07,9.07,0,0,1-5.27-5.69c-.7-2.66.52-5.95,3.21-7,.89-.35.5-1.81-.4-1.46Z"/><path class="cls-2" d="M218.41,44.26c-12.69,6.51-25.67,13.18-35.9,23.33a59,59,0,0,0-11.46,15.52A44.93,44.93,0,0,0,167.7,92a68.28,68.28,0,0,0-1.64,10c-.7,6.63-.95,13.46-3.27,19.79s-6.89,10.91-12.18,14.77-10.76,7-15.84,11a71.81,71.81,0,0,0-13.92,14.05c-7.76,10.6-11.69,24.77-7.27,37.54a31.16,31.16,0,0,0,2,4.47c.45.87,1.76.1,1.3-.76-6.34-12-3.63-26.7,3.44-37.74a64.77,64.77,0,0,1,13-14.45c5-4.17,10.46-7.52,15.79-11.17,5.08-3.48,10-7.45,13.11-12.87,3.28-5.75,4.16-12.42,4.8-18.9s1.13-13.12,3.41-19.35a52,52,0,0,1,10-16.32c9.3-10.56,21.7-17.6,34-24q2.35-1.23,4.72-2.43c.86-.45.1-1.75-.77-1.31Z"/><path class="cls-2" d="M311.75,44.05a70.85,70.85,0,0,1,23.77,25.07,72.23,72.23,0,0,1,9.5,33.23c.19,6.09-.72,12.09-1.2,18.14s-.48,12.11,2.07,17.59,7.51,8.66,12.27,12a32.88,32.88,0,0,1,6.5,5.61,21.23,21.23,0,0,1,4,8.37c1.53,5.9,1.37,12,2.44,18,.93,5.17,2.77,10.65,6.78,14.27a14.8,14.8,0,0,0,3.17,2.19c.86.45,1.62-.86.76-1.3-4.91-2.54-7.39-7.7-8.67-12.85-1.45-5.83-1.34-11.9-2.39-17.8a28.66,28.66,0,0,0-2.84-8.7,22.22,22.22,0,0,0-5.7-6.62c-4.47-3.63-10-6.26-13.4-11.08-3.52-5-4-11.26-3.68-17.2.31-6.12,1.38-12.17,1.39-18.31a74.26,74.26,0,0,0-30.48-59.53c-1.16-.84-2.35-1.63-3.57-2.39-.83-.52-1.59.79-.76,1.3Z"/><path class="cls-2" d="M268.64,66.93c-1.61-1.79-4.23-.51-5.85.56a22.9,22.9,0,0,0-5.18,4.74,23.61,23.61,0,0,0-5.19,12.9c-.4,5.21,1.1,10.71-.69,15.76-1.45,4.07-5.13,6.48-9.1,7.71-5,1.54-10.3,1.57-15.48,1.8-1,0-1,1.56,0,1.51,4.64-.2,9.34-.28,13.88-1.32,3.93-.9,7.84-2.62,10.34-5.9,3.1-4.09,2.82-9.29,2.59-14.15a31.69,31.69,0,0,1,.28-7.66,22.26,22.26,0,0,1,7.2-12.46,18,18,0,0,1,3.07-2.21c.86-.49,2.27-1.09,3.07-.21s1.72-.35,1.06-1.07Z"/><path class="cls-2" d="M217.79,45.54c-3.4,0-4.73-4.6-5.6-7.16a53.62,53.62,0,0,1-2.91-12.6,27.22,27.22,0,0,1,1.33-11.92,20.94,20.94,0,0,1,5.54-8.24,15.3,15.3,0,0,1,8.54-4c4-.42,8.1,1,11.82,2.41,6,2.32,12.24,6,15.12,12,3.45,7.21-.07,15.09-4.6,20.92-.62.78-1.26,1.55-1.92,2.3s.42,1.8,1.07,1.06c5.31-6,10.16-14.21,7.73-22.51-2-7-8.46-11.49-14.79-14.29-3.77-1.66-7.88-3.19-12-3.44a16,16,0,0,0-10.2,3.07,21.87,21.87,0,0,0-6.81,8.18,26.32,26.32,0,0,0-2.45,12,47.79,47.79,0,0,0,2.48,13.66,39.5,39.5,0,0,0,2.14,5.8,8.39,8.39,0,0,0,3.19,3.77,4.65,4.65,0,0,0,2.35.6.76.76,0,0,0,0-1.51Z"/><path class="cls-2" d="M209.6,25.27c1.09-5.81,5.19-10.58,10.31-13.36,6.13-3.34,13.53-3.59,20.26-2.28C246,10.76,252,13,256.27,17.36a15.46,15.46,0,0,1,4.16,7.79,18.81,18.81,0,0,1-.9,9.69c-2.59,7.48-8.78,12.89-14.55,18-.73.64.34,1.71,1.07,1.07,5.43-4.78,11.15-9.81,14.12-16.57a22,22,0,0,0,2-10.19,16.57,16.57,0,0,0-3.33-9c-3.78-5-9.8-7.83-15.75-9.33-7.18-1.82-15.05-2.06-22,.9a22.09,22.09,0,0,0-12.43,13,18,18,0,0,0-.57,2.22c-.17.95,1.28,1.35,1.46.4Z"/><path class="cls-14" d="M274,26a57.05,57.05,0,0,1,16.61,14.32,58.6,58.6,0,0,1,10.11,19.48,54.33,54.33,0,0,1,2.21,12.26c.06,1,1.57,1,1.51,0a58.14,58.14,0,0,0-5.85-21.84,60.13,60.13,0,0,0-13.49-18,56.77,56.77,0,0,0-10.34-7.49c-.85-.48-1.61.83-.76,1.3Z"/><path class="cls-14" d="M294.49,66.23c-3.85,3.83-9.92,3.57-14.73,2-5.85-1.87-11.12-5.45-17.27-6.39a16.37,16.37,0,0,0-8.39.63,16.2,16.2,0,0,0-6.69,5.39c-3.74,4.69-6.19,10.22-9.74,15s-9,9.18-15.28,8.63c-1-.08-1,1.43,0,1.52,5.64.49,10.77-2.77,14.44-6.78,4.08-4.44,6.56-10,9.92-15,1.65-2.43,3.57-5,6.13-6.57a13.19,13.19,0,0,1,8.18-1.56c6.24.59,11.62,4.2,17.44,6.22,5.54,1.94,12.57,2.34,17.06-2.13.69-.68-.38-1.75-1.07-1.07Z"/><path class="cls-14" d="M307.25,66.93c-1.26,2.72,0,5.72,2,7.69,2.37,2.27,5.7,3,8.62,4.29a17.51,17.51,0,0,1,9.95,12.83A16.56,16.56,0,0,1,328,95.9c-.14,1.74-.57,3.45-.83,5.18a13,13,0,0,0,0,5.08,9.6,9.6,0,0,0,2.06,3.77c1.84,2.17,4.32,3.79,5.59,6.4,1.39,2.84,1.08,6.19.55,9.21-.65,3.75-1.66,7.42-1.78,11.25a33.22,33.22,0,0,0,1.82,11.82c.32.91,1.78.52,1.46-.41a31.7,31.7,0,0,1-1.78-10.48,49.93,49.93,0,0,1,1.38-9.88c.63-3.09,1.19-6.31.6-9.46-.57-3-2.38-5.18-4.52-7.23a20.77,20.77,0,0,1-2.79-3,7.58,7.58,0,0,1-1.36-4.4c0-3.3,1.23-6.46,1.12-9.78a19.14,19.14,0,0,0-7.46-14.32,18.5,18.5,0,0,0-4.25-2.38c-1.68-.7-3.43-1.25-5.06-2.06A8.93,8.93,0,0,1,309.09,72a4.62,4.62,0,0,1-.53-4.34c.4-.88-.9-1.65-1.31-.76Z"/><path class="cls-14" d="M329.2,138.27l-2.34,10.81a49.17,49.17,0,0,0-1.39,9.19,15,15,0,0,0,2.09,8.46,18.15,18.15,0,0,0,5.13,4.94c3.85,2.65,8.7,4.64,11.18,8.82,3.08,5.2,1.4,11.72,3.33,17.28a15.88,15.88,0,0,0,13.31,10.39c1,.09,1-1.42,0-1.51a14.36,14.36,0,0,1-11.6-8.61c-2.23-5.37-.71-11.52-3-16.89-1.94-4.52-6.34-6.94-10.32-9.41a25.51,25.51,0,0,1-5.47-4.2,11.88,11.88,0,0,1-3.05-7.18,34.05,34.05,0,0,1,1.09-10l2.52-11.65c.21-.95-1.25-1.35-1.46-.4Z"/><path class="cls-14" d="M353.46,184a26.94,26.94,0,0,0,3.72,10.9A31.48,31.48,0,0,0,365,203.3c2.88,2.25,6,4.55,7.64,7.91a13.56,13.56,0,0,1,.86,9,13.3,13.3,0,0,1-5.74,8.31c-.82.52-.06,1.83.76,1.31a15.49,15.49,0,0,0,6.36-16.9c-1-3.56-3.41-6.29-6.2-8.6-3.05-2.54-6.32-4.76-8.75-7.95A25.41,25.41,0,0,1,355,184c-.11-.95-1.62-1-1.51,0Z"/><path class="cls-14" d="M322.79,171.74a9,9,0,0,0,7,14.71.76.76,0,0,0,0-1.52,7.5,7.5,0,0,1-5.89-12.12c.59-.76-.47-1.83-1.07-1.07Z"/><path class="cls-14" d="M333.86,93.85a14.89,14.89,0,0,0,1.05,10.94,50.79,50.79,0,0,0,3.31,4.82,11.89,11.89,0,0,1,1.18,11.52.76.76,0,0,0,.53.93.77.77,0,0,0,.93-.52,13.51,13.51,0,0,0-.3-10.91,35.82,35.82,0,0,0-3.27-4.85,13.66,13.66,0,0,1-2.27-5.21,13.38,13.38,0,0,1,.29-6.32.75.75,0,0,0-1.45-.4Z"/><path class="cls-14" d="M307.59,44.84a6.8,6.8,0,0,0-.47,6.32,10.86,10.86,0,0,0,4.67,5.19c4.09,2.52,9.81,3.36,12.6,7.65,1.55,2.4,1.88,5.35,1.95,8.15a.76.76,0,0,0,1.51,0,19.48,19.48,0,0,0-1.31-7.29,11.65,11.65,0,0,0-4.67-5.25,56.32,56.32,0,0,0-6.56-3.13c-2.14-1-4.43-2.16-5.84-4.12s-2-4.67-.57-6.76c.55-.8-.76-1.56-1.31-.76Z"/><path class="cls-14" d="M313.66,45a46.29,46.29,0,0,1,9.46,11.18c.5.83,1.81.07,1.3-.76a47.46,47.46,0,0,0-9.69-11.49c-.73-.63-1.81.43-1.07,1.07Z"/><path class="cls-14" d="M284.22,56c-2.08,2.38-5.26,3.21-8.33,3.19-3.82,0-7.47-1.39-11.14-2.3a36.8,36.8,0,0,0-21,1.22c-5.52,2-10.79,5.37-13.9,10.46A18.45,18.45,0,0,0,228,72.47a43.18,43.18,0,0,0-1.1,4.76,14.59,14.59,0,0,1-1.53,4.6,8.1,8.1,0,0,1-3.52,3.06,29.46,29.46,0,0,1-4.57,1.6,43.87,43.87,0,0,0-5,1.79,39.43,39.43,0,0,0-9.11,5.54c-.7.57-1.37,1.16-2,1.76s.35,1.73,1.07,1.07A37.7,37.7,0,0,1,211,90.54a35.26,35.26,0,0,1,5-2.06c1.59-.53,3.21-.93,4.79-1.5a13.44,13.44,0,0,0,4.15-2.27,9.37,9.37,0,0,0,2.62-3.95c1.12-3,1.17-6.29,2.45-9.25,2.34-5.43,7.37-9.22,12.72-11.42a35.19,35.19,0,0,1,20.62-2c3.79.84,7.46,2.25,11.36,2.54a13.77,13.77,0,0,0,8.92-2.06,9.83,9.83,0,0,0,1.7-1.52c.64-.73-.42-1.81-1.07-1.07Z"/><path class="cls-14" d="M266.8,42.07a52.91,52.91,0,0,1-16.17,5.27c-5.52,1-11.1,1.34-16.65,2.1-4.45.61-9.31,1.7-12.63,5A13.45,13.45,0,0,0,217.94,61c-.64,2.58-1,5.22-2.39,7.56A15.11,15.11,0,0,1,202.35,76a.76.76,0,0,0,0,1.52,16.42,16.42,0,0,0,16.14-12.21c.72-2.7,1-5.61,2.51-8,2.48-4,7.42-5.37,11.77-6.1,2.56-.43,5.16-.64,7.75-.92,2.89-.32,5.78-.66,8.66-1.11a56.41,56.41,0,0,0,18.38-5.74c.86-.46.09-1.77-.76-1.3Z"/><path class="cls-14" d="M217.36,13.76a16.11,16.11,0,0,0-3.63,16.83c.68,1.8,1.81,4.25,3.7,5,2.08.86,4.19-.85,5-2.67.94-2,1-4.55,2.86-6a6.72,6.72,0,0,1,5.31-1.13c2.25.43,4,2.16,6.24,2.54,4.9.82,8.35-4,10.46-7.74a.76.76,0,0,0-1.3-.77,21.83,21.83,0,0,1-3.49,4.81,6.67,6.67,0,0,1-4.7,2.29c-2.16-.06-3.85-1.7-5.84-2.34a8.9,8.9,0,0,0-5.26,0,6.59,6.59,0,0,0-4.07,3.32c-.95,1.9-.95,4.46-2.69,5.89a1.88,1.88,0,0,1-2.48.18,7.62,7.62,0,0,1-1.71-2.4,13.79,13.79,0,0,1-1.49-5.29,14.4,14.4,0,0,1,4.13-11.4c.69-.68-.38-1.75-1.07-1.07Z"/><path class="cls-14" d="M268.14,32.21c-.65,3.63-4.22,5.32-7.53,5.93-4.28.78-8.58-.46-12.87-.51a14.26,14.26,0,0,0-7.55,1.75.75.75,0,0,0,.76,1.3c4.31-2.55,9.63-1.31,14.32-.88,3.73.34,7.91-.07,11.06-2.29a7.71,7.71,0,0,0,3.27-4.9c.17-.95-1.29-1.36-1.46-.4Z"/><path class="cls-14" d="M212.31,54.33a16.28,16.28,0,0,1-5.14,10.85c-3.5,3.26-8.18,4.2-12.65,5.38-4,1-8.2,2.53-11,5.76-2.57,3-2.95,6.86-2,10.59s2.94,7.16,4.08,10.86a14.41,14.41,0,0,1,.74,5.41,12.12,12.12,0,0,1-2.47,5.95,72.3,72.3,0,0,1-4.73,5.61L173.74,121l-5.4,6.16c-1.67,1.9-3.4,3.78-5,5.77a18.85,18.85,0,0,0-3.33,5.86,11.68,11.68,0,0,0-.34,5.6,13.11,13.11,0,0,0,6.25,9,11.9,11.9,0,0,0,2.52,1.06.76.76,0,0,0,.4-1.46,11.19,11.19,0,0,1-7.33-7.4,10.57,10.57,0,0,1-.32-5.35,15.3,15.3,0,0,1,2.95-5.84c1.49-2,3.2-3.79,4.83-5.65l5.31-6.06,5.4-6.16c1.61-1.84,3.3-3.65,4.8-5.59a15.71,15.71,0,0,0,3.12-5.85,12.71,12.71,0,0,0,.05-5.49c-.71-3.75-2.59-7.16-3.89-10.72-1.24-3.41-1.93-7.18.12-10.43,2.19-3.47,6.36-5.11,10.15-6.15,4.44-1.22,9.14-2,12.88-4.9a17.9,17.9,0,0,0,6.47-10,18.72,18.72,0,0,0,.42-3c0-1-1.46-1-1.52,0Z"/><path class="cls-14" d="M191.1,111.8A78.49,78.49,0,0,0,173,137.52c-1.14,2.61-2.14,5.43-1.78,8.32.29,2.42,1.54,4.52,2.69,6.62,1.27,2.34,2.14,4.65,1.67,7.36-.51,2.9-1.94,5.51-2.82,8.3s-1.25,6,.4,8.52c1.35,2.1,3.82,3.6,6.35,2.86a.76.76,0,0,0-.4-1.46c-2.07.6-4-.89-4.93-2.64-1.24-2.34-.55-5.2.26-7.56.91-2.61,2.2-5.1,2.63-7.85a11.49,11.49,0,0,0-1.22-7.07c-1-2-2.36-3.95-2.93-6.18-.69-2.63.1-5.32,1.09-7.77a72.5,72.5,0,0,1,7.2-13.2,77.85,77.85,0,0,1,11-12.9c.71-.67-.36-1.73-1.07-1.07Z"/><path class="cls-14" d="M190.07,147.65c-1.61,4.95-3.3,9.88-4.83,14.85-1.19,3.83-2.19,8.54.4,12.05,2,2.72,5.31,3.81,8.14,5.42a9,9,0,0,1,3.45,3,7.64,7.64,0,0,1,.78,4.93c-.41,3.76-2.28,8.14.19,11.57.56.79,1.88,0,1.31-.76-2.08-2.89-.56-6.76-.1-9.92a11,11,0,0,0-.23-5.2,8.12,8.12,0,0,0-2.85-3.74c-2.53-1.93-5.77-2.75-8.21-4.82a7.15,7.15,0,0,1-2.52-4.62,15.61,15.61,0,0,1,.69-6.1c.72-2.64,1.65-5.24,2.51-7.85l2.73-8.38c.3-.93-1.16-1.32-1.46-.4Z"/><path class="cls-14" d="M204.28,154.63a13.28,13.28,0,0,1,6.21,8.19,14.39,14.39,0,0,1-1.9,10.88,35,35,0,0,1-4.16,5.59c-.65.72.42,1.8,1.07,1.07,2.87-3.25,5.6-6.93,6.56-11.24a14.7,14.7,0,0,0-7-15.8.76.76,0,0,0-.76,1.31Z"/><path class="cls-14" d="M220.5,156.67a9.13,9.13,0,0,1-.19,11.38c-.63.73.43,1.8,1.07,1.07a10.68,10.68,0,0,0,.19-13.52c-.62-.75-1.68.32-1.07,1.07Z"/><path class="cls-14" d="M155.74,161.63a31.41,31.41,0,0,1-9.55,19.24,30,30,0,0,1-4.91,3.79c-.83.52-.07,1.82.76,1.31a33,33,0,0,0,13.9-18,31.43,31.43,0,0,0,1.31-6.38c.11-1-1.41-1-1.51,0Z"/><path class="cls-14" d="M157.9,179.33a23,23,0,0,1-10.13,11.51c-.85.47-.09,1.78.76,1.3a24.54,24.54,0,0,0,10.83-12.4c.36-.91-1.1-1.3-1.46-.41Z"/><path class="cls-2" d="M222.38,148.69a20.85,20.85,0,0,1,9.44,26.95,27.59,27.59,0,0,1-3.58,5.62,15.81,15.81,0,0,0-3.08,5.44,10.1,10.1,0,0,0,.06,5.15,10.78,10.78,0,0,0,7.92,7.85c1,.2,1.36-1.26.4-1.45a9.3,9.3,0,0,1-6.84-6.72,8.48,8.48,0,0,1,.06-4.89c.68-2.09,2.19-3.82,3.5-5.54a23.12,23.12,0,0,0,4.77-12,22,22,0,0,0-2.43-12.27,22.53,22.53,0,0,0-9.46-9.48c-.86-.45-1.62.85-.76,1.31Z"/><path class="cls-5" d="M91.17,321.47a121.36,121.36,0,0,0-40.65,8.4q-5.46,2.17-10.7,4.84c-.86.45-.1,1.75.77,1.31a119.65,119.65,0,0,1,39-12.11c3.86-.5,7.74-.8,11.62-.93,1,0,1-1.54,0-1.51Z"/><path class="cls-5" d="M41.53,327.79,54,329.72c.95.15,1.36-1.31.4-1.46l-12.42-1.93c-1-.14-1.36,1.31-.4,1.46Z"/><path class="cls-5" d="M103.86,233.93a201.29,201.29,0,0,1,10.82,30.43,182,182,0,0,1,5.68,32.18,154.63,154.63,0,0,1,.46,18c0,1,1.48,1,1.51,0A164.06,164.06,0,0,0,120.06,282a194.76,194.76,0,0,0-8.16-31.89q-3-8.64-6.74-17c-.4-.89-1.7-.12-1.3.76Z"/><path class="cls-5" d="M106.55,236.1a224.56,224.56,0,0,1,20.08-16.74A123.53,123.53,0,0,1,149.17,206a80.77,80.77,0,0,1,13.72-4.7c.94-.23.54-1.69-.4-1.46a92.31,92.31,0,0,0-24.13,10,161.43,161.43,0,0,0-21.76,15.41c-3.8,3.14-7.49,6.41-11.11,9.76-.72.66.35,1.73,1.06,1.07Z"/><path class="cls-5" d="M84.19,277l-6.11,8.54a.75.75,0,0,0,.27,1,.77.77,0,0,0,1-.27q3.06-4.28,6.11-8.54a.75.75,0,1,0-1.3-.76Z"/><path class="cls-5" d="M87.65,280.28l-4.3,9.85a.79.79,0,0,0,.28,1,.76.76,0,0,0,1-.27L89,281a.77.77,0,0,0-.27-1,.75.75,0,0,0-1,.27Z"/><path class="cls-8" d="M100.23,394.73q3.85,6.75,8.32,13.12c.55.79,1.87,0,1.31-.76q-4.47-6.36-8.32-13.12a.76.76,0,0,0-1.31.76Z"/><path class="cls-5" d="M288.26,336a225.48,225.48,0,0,1,25.21-6.44,222.09,222.09,0,0,1,25.82-3.48q7.33-.56,14.69-.63a.76.76,0,0,0,0-1.51,222.88,222.88,0,0,0-26.2,1.8,227.66,227.66,0,0,0-25.66,4.77q-7.2,1.78-14.26,4c-.93.3-.53,1.76.4,1.46Z"/><path class="cls-5" d="M343.53,320.07c-1.32-.43-2.61.09-3.85.54l-4.21,1.56-8.32,3.06c-.9.33-.51,1.8.41,1.46l7.84-2.89,3.86-1.43c1.16-.43,2.61-1.25,3.86-.84.93.3,1.33-1.16.41-1.46Z"/><path class="cls-5" d="M302.78,225.92q8.63,19.31,17.27,38.61c5.31,11.88,10.68,23.86,13.66,36.57a76.69,76.69,0,0,1,2.12,21.5c-.05,1,1.46,1,1.51,0,.68-13.09-2.64-26-7.22-38.11-2.32-6.16-5-12.19-7.64-18.21q-4.31-9.64-8.63-19.29-4.89-10.91-9.77-21.83c-.4-.89-1.7-.12-1.3.76Z"/><path class="cls-5" d="M269.43,191.23a181.78,181.78,0,0,1,32.5,10.43,183.76,183.76,0,0,1,30,16.33,178.21,178.21,0,0,1,15.29,11.52c.74.62,1.81-.45,1.07-1.07a183.17,183.17,0,0,0-59.79-33.52,179,179,0,0,0-18.63-5.15c-.95-.21-1.35,1.25-.4,1.46Z"/><path class="cls-5" d="M358.35,224.26a26.23,26.23,0,0,0-9.57,4.35,30.44,30.44,0,0,0-7.07,7.47,79.23,79.23,0,0,0-5.25,9.28c-1.69,3.36-3.39,6.73-4.88,10.18a57.39,57.39,0,0,0-3.9,12.24c-.18,1,1.28,1.35,1.45.4,1.36-7.32,4.62-14.06,7.93-20.66,3.05-6.05,6.13-12.42,11.46-16.82a25,25,0,0,1,10.23-5c.95-.22.55-1.68-.4-1.46Z"/><path class="cls-5" d="M310.47,230.92A48.61,48.61,0,0,1,310,242c-.16.95,1.3,1.36,1.45.4a49.85,49.85,0,0,0,.56-11.51c-.06-1-1.57-1-1.51,0Z"/><path class="cls-5" d="M298.18,287.54a19.78,19.78,0,0,0,.46,6.9.75.75,0,0,0,1.45-.4,19,19,0,0,1-.4-6.5.76.76,0,0,0-.75-.76.78.78,0,0,0-.76.76Z"/><path class="cls-5" d="M303.22,291.66a18.09,18.09,0,0,0,1.21,4.8.76.76,0,0,0,1.46-.41,15.93,15.93,0,0,1-.74-2.21c-.1-.37-.18-.74-.25-1.12,0-.19-.07-.39-.1-.58s0-.25-.06-.48a.78.78,0,0,0-.76-.75.76.76,0,0,0-.76.75Z"/><path class="cls-5" d="M306,265.07c.64,2.07,1.28,4.15,1.93,6.22.28.93,1.74.53,1.45-.4l-1.92-6.22a.76.76,0,0,0-1.46.4Z"/><path class="cls-5" d="M338.74,289.81l.63,4.1a.76.76,0,0,0,.93.53.78.78,0,0,0,.52-.93c-.2-1.37-.41-2.73-.62-4.1a.76.76,0,1,0-1.46.4Z"/><path class="cls-5" d="M345.05,280.52l.87,3.65a.76.76,0,0,0,.93.52.78.78,0,0,0,.53-.93l-.88-3.64a.75.75,0,1,0-1.45.4Z"/><path class="cls-5" d="M352.35,259.92l1,6.7a.76.76,0,0,0,.93.53.78.78,0,0,0,.53-.93l-1-6.7a.76.76,0,0,0-.93-.53.78.78,0,0,0-.53.93Z"/><path class="cls-5" d="M357.8,303.77a8.21,8.21,0,0,0-.39,4.55.76.76,0,0,0,.93.53.79.79,0,0,0,.53-.93c0-.1,0-.2-.05-.29s0,.14,0-.1,0-.34,0-.51a8.29,8.29,0,0,1,0-1s0-.28,0-.13l0-.22c0-.17.07-.34.11-.51a6.73,6.73,0,0,1,.32-1,.77.77,0,0,0-.53-.93.78.78,0,0,0-.93.53Z"/><path class="cls-5" d="M302.2,348.51A34.81,34.81,0,0,1,314.86,347c1,.06,1-1.45,0-1.51a36.1,36.1,0,0,0-13.06,1.58c-.92.29-.53,1.75.4,1.46Z"/><path class="cls-5" d="M314.71,359.71a2,2,0,0,1,.31-.19l.15-.08a3.58,3.58,0,0,1,.73-.19l-.2,0a3.93,3.93,0,0,1,.84,0l-.2,0a2.2,2.2,0,0,1,.37.07.76.76,0,1,0,.4-1.46,3.88,3.88,0,0,0-3.16.53.75.75,0,0,0-.35.45.74.74,0,0,0,.08.58.76.76,0,0,0,1,.28Z"/><path class="cls-5" d="M314.55,371.14l3.59-.58a.75.75,0,0,0,.53-.93.79.79,0,0,0-.93-.53l-3.59.58a.76.76,0,1,0,.4,1.46Z"/><path class="cls-5" d="M337.18,361.29l4.1-1.09a.76.76,0,0,0,.53-.93.77.77,0,0,0-.93-.53l-4.1,1.09a.76.76,0,0,0,.4,1.46Z"/><path class="cls-5" d="M325.51,379.23l.23-.11.05,0,.42-.14.43-.11.21,0a6.59,6.59,0,0,1,1,0h.3a2,2,0,0,1,.43.08.75.75,0,0,0,.41-1.45,6.25,6.25,0,0,0-4.21.5.75.75,0,0,0-.28,1,.78.78,0,0,0,1,.27Z"/><path class="cls-5" d="M228.88,400.3l6.21-.75a.78.78,0,0,0,.76-.76.76.76,0,0,0-.76-.75l-6.21.75a.76.76,0,1,0,0,1.51Z"/><path class="cls-5" d="M238.34,395.16l4.64-1a.76.76,0,0,0,.53-.93.78.78,0,0,0-.93-.53l-4.65,1a.76.76,0,0,0-.52.93.78.78,0,0,0,.93.53Z"/><path class="cls-5" d="M121.48,251.23l1.68,6.14a.76.76,0,0,0,1.46-.4l-1.68-6.14a.76.76,0,0,0-1.46.4Z"/><path class="cls-5" d="M127.37,255.29l1,3.62a.75.75,0,1,0,1.45-.4l-1-3.62a.76.76,0,0,0-1.46.4Z"/><path class="cls-5" d="M131.54,268.33a10,10,0,0,1,.87,4.79.77.77,0,0,0,.76.76.76.76,0,0,0,.75-.76,11.45,11.45,0,0,0-1.08-5.55.75.75,0,1,0-1.3.76Z"/><path class="cls-5" d="M131.51,234.69l1,3.11a.78.78,0,0,0,.93.53.77.77,0,0,0,.53-.93l-1-3.11a.76.76,0,1,0-1.46.4Z"/><path class="cls-11" d="M276,147.1a2.63,2.63,0,0,1,5.06.83,1.86,1.86,0,0,1,2.68.31,3.11,3.11,0,0,1,.3,2.92,4.72,4.72,0,1,1-7.63-5.07Z"/><path class="cls-8" d="M273.84,144.2a12.62,12.62,0,0,0,11.9,9.32.76.76,0,0,0,0-1.51,11.08,11.08,0,0,1-10.44-8.22.76.76,0,0,0-1.46.41Z"/><path class="cls-11" d="M232.35,40.42c5.63-9.79,12-20.66,23.24-24.68,1.72-.62,4.83-2,5.76.49.43,1.1-.15,2-.82,2.82a23.91,23.91,0,0,1-3,3.08c-2.2,1.91-4.58,3.62-7,5.31s-4.8,3.32-7.32,4.79a46.26,46.26,0,0,1-15.85,6c-5.23.83-10.57.61-15.86.78-5,.16-10.19.64-14.81,2.81a19.14,19.14,0,0,0-3.24,1.91,6.78,6.78,0,0,0-2.36,2.43c-1.25,2.69,1.18,5.18,3.67,5.74a14.56,14.56,0,0,0,4.22.15c1.48-.1,3-.29,4.43-.53a55.42,55.42,0,0,0,8.66-2.26,113.54,113.54,0,0,0,16.26-7.44q2-1.08,4-2.17L231.19,39a197.49,197.49,0,0,1,1.62,25.14.76.76,0,0,0,1.52,0A197.5,197.5,0,0,0,232.7,39a.77.77,0,0,0-1.14-.65c-10.43,5.7-21.52,11.77-33.68,12.25a7.54,7.54,0,0,1-4.06-.66,2.54,2.54,0,0,1-1.34-3.16,6.82,6.82,0,0,1,2.6-2.34,19.26,19.26,0,0,1,3.31-1.72c4.78-1.93,10-2.15,15.11-2.25,5.31-.1,10.68,0,15.92-1.08a50.37,50.37,0,0,0,15.87-6.65c2.5-1.52,4.9-3.18,7.26-4.9a73.6,73.6,0,0,0,6.82-5.38,20.49,20.49,0,0,0,2.86-3.17,3.81,3.81,0,0,0,.7-3.06,3.89,3.89,0,0,0-1.68-2.41,4,4,0,0,0-3.17-.39C246.45,16,239,26.15,233.27,35.83q-1.12,1.91-2.23,3.83a.76.76,0,0,0,1.31.76Z"/><path class="cls-11" d="M232.25,38.64c3.32,3.38,6.55,6.91,10.08,10.07,3.06,2.74,6.57,5.06,10.75,5.48,1,.1,1-1.41,0-1.51-4-.4-7.29-2.84-10.13-5.45-3.34-3.07-6.45-6.42-9.63-9.65a.75.75,0,0,0-1.07,1.06Z"/><polygon class="cls-15" points="29.79 125.32 44.63 167.96 134.1 45.29 48.45 136.62 29.79 125.32"/><path class="cls-16" d="M30.83,123.61c-.29.13-.51.68,0,.84l.82-.66Z"/><path class="cls-16" d="M32.75,126.92c.75-.1,1.76-.48,1.91-1.45-1,.51-.9.1-2,.74a.62.62,0,0,1-.32-1c-.28.13-.55-.59-1.1-.19a1.56,1.56,0,0,0,1.91,1.35C33.16,126.66,32.88,126.79,32.75,126.92Z"/><path class="cls-16" d="M70.21,115.46l-.3.14A.59.59,0,0,0,70.21,115.46Z"/><path class="cls-16" d="M87.44,97.88a4.9,4.9,0,0,0-.39.73A4.84,4.84,0,0,0,87.44,97.88Z"/><path class="cls-16" d="M87.4,99.53c0-.09,0-.11,0-.16C87.3,99.66,87.23,99.81,87.4,99.53Z"/><path class="cls-16" d="M70.21,115.46l.78-.38C70.79,114.82,70.53,115.22,70.21,115.46Z"/><path class="cls-16" d="M39.74,128.36a1,1,0,0,0-.51,0,3.17,3.17,0,0,1,.41.12Z"/><path class="cls-16" d="M61.68,125.72l-.16.18a2.22,2.22,0,0,0,.15.43Z"/><path class="cls-16" d="M54.8,133.29c.18-.15-.38-.78-.58-1.1a.85.85,0,0,1,.07.76A1.8,1.8,0,0,0,54.8,133.29Z"/><path class="cls-16" d="M39.93,132.47l-.31-.05A2.87,2.87,0,0,0,39.93,132.47Z"/><path class="cls-16" d="M66.82,120.51a1.07,1.07,0,0,0,.29.14A.61.61,0,0,0,66.82,120.51Z"/><path class="cls-16" d="M30,137.81a.58.58,0,0,0,.14-.05C30,137.74,29.93,137.74,30,137.81Z"/><path class="cls-16" d="M30,125.25l.1.14a3.33,3.33,0,0,0,.45-.13Z"/><path class="cls-16" d="M86.24,102.33l.05-.07C86,102.76,86,102.66,86.24,102.33Z"/><path class="cls-16" d="M91.86,97.29c2.32-2.55,3.7-4,5.09-5.5s2.8-3,5.54-6c-.75.81-2.86,3.09-4.84,5.21Z"/><path class="cls-16" d="M39.91,128.59c.12.07.25.13.36.21A1.08,1.08,0,0,0,39.91,128.59Z"/><path class="cls-16" d="M102.49,85.77l.05,0,.53-.58Z"/><path class="cls-16" d="M91.76,95.72l2.3-3Z"/><path class="cls-16" d="M93.81,91.77l-.32.51A4.45,4.45,0,0,0,93.81,91.77Z"/><path class="cls-16" d="M102.24,82.79c-.41.54-1.27,1.63-.31.44.24-.31.47-.59.75-1C101.76,83.43,101.31,84,102.24,82.79Z"/><path class="cls-16" d="M105.3,79.53l1.44-1.78-.5.59Z"/><path class="cls-16" d="M39.71,164.62a4,4,0,0,1,.37-1.23C39.69,164.08,38.78,162.12,39.71,164.62Z"/><path class="cls-16" d="M39.5,128.77c.15-.16.27-.21.41-.18l-.27-.11A.35.35,0,0,0,39.5,128.77Z"/><path class="cls-16" d="M131,45.56a2.27,2.27,0,0,0-.05.35C131,45.67,131.05,45.55,131,45.56Z"/><path class="cls-16" d="M80.51,124.59l-.1.31A.3.3,0,0,0,80.51,124.59Z"/><path class="cls-16" d="M131.9,45.43c-.47.7-.7,1.07-.82,1.29.13-.18.28-.36.39-.5Z"/><path class="cls-16" d="M40.09,163.38h0Z"/><path class="cls-16" d="M34.77,154.19c.41,1.26,1.23.23,1.92.29.82,1.39-.53,1-.89,1.65.6.84,1.81,1.22,2,1.93-.16.11-.17.27-.45.19a3.49,3.49,0,0,1,1.16,1.82l.32.79c.12.3.26.59.4.86a3,3,0,0,0,1,1.22,1.75,1.75,0,0,1-.14.44A3.49,3.49,0,0,1,41.22,162c.27.73,1,.65.53,1.6-.13-.45-.36-.22-.61-.24.17.17.34.34.51.49-.49,1.77-.65-.75-1.24-.12a17.12,17.12,0,0,0,1.4,1.92,3.92,3.92,0,0,1,.88,1.88c-.44,1.84-1.24-2.53-1.16.47L41,165.42c-.5,3.44-.42-1.54-1,1.93a13.14,13.14,0,0,0,1.29,3.36A12.46,12.46,0,0,1,42.55,174c.47-.36.27-1.77.72-2.2a2.83,2.83,0,0,1,.61,1.24c.59-.63.77.19,1.07.54s.75.24,1.61-1.89c.25-.92.38-1.93.6-2.78a2.7,2.7,0,0,1,1.22-1.9q0,1-.15,2.16a5.32,5.32,0,0,0,1.21-2.82,2.75,2.75,0,0,1,1.31-2.13c0,.82-1.17,2.25-.83,2a1.43,1.43,0,0,0,1-1.37,2.39,2.39,0,0,1,.34-1.6c.29.17.59.34.9.49.24-.36.47-.72.7-1.1s.24-.47.37-.72c.21-.47.43-1,.66-1.44a24.85,24.85,0,0,1,1.44-2.93c.18.28.22.77.77.54,1.2-2.5,3.53-4.63,5.57-6.4l-.12-1.33c.15-.19.58-.12.57.19.87-.64-.42-.38-.41-1,.3-.51.86-.32.86.13.46-1.9,1.74-5.11,3.63-6.1v.46c1.16-1-.47-2.42,1-3.05l0,.3c2.21-2.38,3.66-5.73,6.18-6.93-.74-1.13,2.34-2.25,1-3.46,1.8-1,1.74-.36,3.75-2.1.47-.51-.29-1.49.07-2.29l.76.53-.1-1.51,1.26.15.28-.79c-.24.23-.74.31-.93.11.41-1.26,2.33-2.09,2.73-1.83l1.12-2.86c.26.27.07.75,0,1.2.17-1.83,1,.35,1.11-1.34-.28,0-.38-.41-.51-.54.87-.26,1.85-1.59,2.38-2.71l.37.56c1.43-1.68,2.49-3.92,4-5.91a.78.78,0,0,1-1.2-.93l1,.35c-.19-.77-.78.44-.74-.87.89-1,1.58-.27,1.27.69l.84-1.73c.36,0,.23.44.5.7,0-.47.71-1.08,1.5-1.83s1.58-1.61,1.28-2.11l.44-.1c2.83-3.86,3.53-5.4,5.6-8.31-1.6.76-.42-.55-1.29-.51l3.49-3.84A46.14,46.14,0,0,0,106.68,89c.07-.46-.35-.18-.87.21a10.3,10.3,0,0,1-1.61,1.12c2.22-1.74,3.8-4,4.5-4,.92-1.36,1.5-2.22,1.93-3a7.62,7.62,0,0,0,.88-2.18c-1.41,1.4-2.17,2.21-3,2.83A27.69,27.69,0,0,1,112,80.43l.17-.09c-.34,0,.35-1,1.64-2.52s3.18-3.69,5.09-5.89,3.83-4.42,5-5.88,1.53-2.11.22-1l.24-.19a9.17,9.17,0,0,0-1.66.86,21,21,0,0,1,2.21-2.36,42.83,42.83,0,0,0,3.31-3.42c-1.09.86-1.15.7-.66,0s1.52-2,2.44-3.14c.54-.73.76-1.11-.94.55,6.05-6.61,5.63-6.45,5-6.06-.33.2-.74.49-.67.27A16.84,16.84,0,0,1,135.43,49l-2.17,2.34c-2.07,2.11,1.26-1.48,1.71-2-1.6,1.73-1.9,2.15-3,3.28-1,.64.17-1.12,1.24-2.73A19.71,19.71,0,0,0,135.43,46c0-.18-1.11,1-1.9,1.75a7.64,7.64,0,0,1-.81.75c-.09,0,.08-.21.55-.82l1.23-1.2c-.64.42-.56.07-.5-.28s.18-.74.25-1.08a2.8,2.8,0,0,0-.7.43,1.81,1.81,0,0,1,.3-.29c0-.1-.07-.13-.26,0a3.15,3.15,0,0,0-.7.71c-.12,0,.3-.45.43-.7s-.15,0-.41.29-.52.53-.21.06a4,4,0,0,1,.34-.4c-.43.49-.31-.07-1.19,1.23.06-.23-.2,0-.48.24s-.56.51-.29,0c-.86,1.09-.87,1-.9.9s-.11,0-1.45,1.75c2.63-3.57,1.73-2.88-.08-.59,1-1.36.83-1.29,2.29-3.22-.2.07-1,1-2.86,3.55.94-1.39,1.18-1.82,1-1.72a16.67,16.67,0,0,0-1.18,1.34c-1,1.2-2,2.41,1.25-2.15L121,56.08c2.92-4,3.28-4.32,3.66-4.69a38.31,38.31,0,0,0,3.54-4.57c-1.33,1.55-3.37,4.14-5.08,6.26s-3.07,3.79-2.77,3.11c.65-1,2.91-3.91,4-5.39-.57.7-1,1.17-1.28,1.49-1.6,1.82-2.53,2.74-3.7,4s-2.57,2.83-4.81,5.67c.51-.73,1.33-1.81,2-2.69a17.22,17.22,0,0,0-2.78,3.57l1.15-1.46c-1.39,2.12-3.76,5.33-5.86,8.17s-4,5.38-4.88,6.69c3.59-5.12,3.53-5.22,3.65-5.59a7.09,7.09,0,0,1,.84-1.49c.67-1,1.86-2.79,4.19-6.08-.76,1-2.19,2.93-3.54,5,0-.14.6-1.16,2.72-4.11-3,3.69-4.46,6.2-5.92,7.74.92-1.42,1.59-2.3,2.87-4.18-2.7,3.73-5.1,7.13-5.6,7.3a20.53,20.53,0,0,1,1.45-2.14c-1.27,1.41-3.23,4.08-4.84,6.24s-2.91,3.87-3.41,4c3.24-5.35.08-.71,2-4.4l-2,2.6c-.12.39-.25.8-.39,1.22a29.46,29.46,0,0,0-2.11,2.75c-.72,1-1.31,1.78-1.51,1.73L94,84.61l-2.33,2.8a2.47,2.47,0,0,1,.6,0,20,20,0,0,0-1.59,3c-.31.69-.5,1.08-.89,1.26.35-.53-.78.82-.7-.23h0c-.8,1.37-1.47,2.63-1.94,2.72,0-.55.9-2.77.93-3.14a11.07,11.07,0,0,1-1.83,2.83,8.52,8.52,0,0,0-1.65,2.71,5.08,5.08,0,0,0,.3-1.69c-.19.57-.36,1.13-.52,1.66-.41.09-.5,0-.4-.78-.76.7-.61,1.06-.52,1.4s.15.62-.66,1a4.63,4.63,0,0,1,.3-.73c-1.74,1.38-3.09,4-4.46,4.91-.58-.21-.38-.52-.17-.82s.59-.73-.06-.73c-.18.21-.22.28-.33.42l-.26.38c-.18.26-.34.53-.51.8l-1,1.65A11.26,11.26,0,0,1,74.14,107l.39-.24c.94,1.33-1.77.74-2,2.12.11-.29-.39-.88-.31-.7-1.29,1-2,2.67-3.27,4.79l-.09-.5c-.92.44-1.87,1.68-2.7,2.3.09.5-.36.88.31,1-3.86.71-3.21,5.25-6.54,6,.22-.25.28-.83.1-.63l-1.36,2c.63.34.52.06,1.26.07a2.13,2.13,0,0,1-.54,1.64c.4-1.1-.82-.75-1.42-.68.21.09.27.36.45.48-1.75.07.88,1.11-.89,1.78l-.21-.31c-.3.59-.35,1.35-.9,1.78-.78-.34.2-.75-.26-1.23-.62.73-.19,2.42-1.37,2.52.12-.46.52-.89.63-1.34a2.14,2.14,0,0,0-1.83.71l.07,0-1.43.9.47-.13c.7,2.31-1.41,2.06-1.52,4.18.13-2-.37-.7-.95-1.41-.23.06-.52.17-.73.2a.41.41,0,0,1-.35-.2c.13.4-.1.42-.26.45s-.29.07-.29.86c-.12-.3-.31.29-.45-.64-.23.59.19.54.3,1a1.53,1.53,0,0,1-.29.69A4.85,4.85,0,0,1,47,133.1a1.4,1.4,0,0,0-.55-.46.85.85,0,0,0-.19-.06,1.8,1.8,0,0,0-.33-.1,3,3,0,0,0-.75-.09c-1.93-.51-2.75.16-4.52-.34-.27-.71,1-.66,1-.66A3.05,3.05,0,0,0,39.39,130c.29-.13.24-.41.18-.84-.67-.31-1,.66-1.57-.21a3.94,3.94,0,0,1,1.23-.62c-.88-.22-1.89-.19-2.79-.43.07-.56.86-.38,1.31-.5-1-.33-2.46-1-3.15-.42l.4.58c-.33-.16.2-.69.51-.68,1.06-.1.91.88.8,1.16l-.64-.17C35.34,129.7,38,129,39,129.73l-1.1.79,1.65-.2c.07.42-.12,1.11-.76,1,.46,1,.92,0,1.24,1,0,.14,0,.17-.14.17l1,.15c-.29.13-.33.83-.71.39,1,1.45,2.7.54,2.73,1.66h-.15c2.12.79.65-.67,2.64-.73a8.88,8.88,0,0,0,.08,2.7c.19-.25.36-.5.52-.76.21.16.64.51.49.84,1-.15-.06-.5.49-.86a3.63,3.63,0,0,0,1.54,1.3c.58-.66,1-1.21,1.5-.49,0-1-1,.29-.32-1.15.44.67.72.28,1-.23s.42-1.11,1-1.24c.41.75-.81,1.42.61,1-.54-1.43,1.58-1.24,2-2.06-.77-.77.94-1.66,1.65-2.95.21.32,2.28-1.56,3.48-2.26l.11.15c-.63-.94.46-1.8,1-2.68a1.22,1.22,0,0,1,.37,1.38l.64-.69a1.46,1.46,0,0,1,.28-1.27l.44.73c.82-.94,1-2.5,2.52-3.3-.5-.59-2.44-.52-1.65-2.12.35.24.91.68.73,1.12.06-.14.1-.61.43-.71l0,1c.72-.33-.17-.68.28-1.07.43.42.61,0,.89.36-.06.15-.52.21-.51.53a2.69,2.69,0,0,1,1.84-.64c-.28-.19-.58-.54-.3-1,.82-.94.81.17,1.53-.15-.09-.5.76-.79.13-1.41.26-.27.6,0,.88,0,.15-.74,2-2.29.8-2.4l-.16.08s0-.06,0-.1h0c.81-2.16,3.39-2.88,4.55-4.67l.21.2c.62-1.15,1.77-2.18,1.92-3.27.26-.27,1-.27,1.15.09.49-.85.32-1.16,1.63-1.84-.29,1.06.56.07-.4,1,1-.73,1.58-.62,1.9-2.15.13.43.46.42.8.23a2.07,2.07,0,0,0,.47-.38l.19-.24a.34.34,0,0,0,0-.14l-.17,0-.25.07-.5.13a3.09,3.09,0,0,1,.93-1c.15.33.31.65.48,1,.34.08.44,0,.54-.25s.17-.68.31-1.13a3.21,3.21,0,0,1,.5-1.11c.18-.2.35-.11.31.66.21-.73.16-.85.07-1s-.21-.2,0-1c.25-.17.39.26.37.82s-.12,1.21-.08,1.17c0,.41.29-.44.73-1.47s1-2.19,1.1-2.06a22.62,22.62,0,0,1,2.22-4.77C89.38,94,87.57,97.94,87,99c-.14.19,0-.07.1-.4a9.52,9.52,0,0,0-.93,2l.46-1c-.22.77.26.2-.68,2.06a8.16,8.16,0,0,0,1-2.2c-.12.51,0,.37.21.13s.45-.56.33-.18c.32-.63,1-2,1.1-2.07-.1.75,1.72-2.81,2.78-4.18-.86,1.71-3.09,5.19-1.46,2.8-.59,1.16-2.31,3.84-3.05,5,1-1.53.87-1.27.39-.44s-1.06,1.77-1.45,2.42l-.88,1.35c.51-.79.53-.81.55-.83l2-3.21c-.29.49-.24.44-1.14,1.83,1.67-2.58,1.81-2.8,2.59-4,1-1.49,2-3.06,3.12-4.76-.45.75,0,.12.23-.16s.2-.18-1.36,2.18c.25-.5-.51.66-1.46,2.1s-2.1,3.2-2.45,3.68c.4-.59.45-.64.1-.08l-.86,1.27c-2.71,4.13,3.71-5.51,4.14-5.93-2,2.9-3.66,5.38-3.22,4.73a2.11,2.11,0,0,0,.13-.2l.39-.56,1.3-1.9,3.19-4.57c-.62,1-.25.45.32-.33.32-.44.59-.81.87-1.21l.32-.43a.76.76,0,0,1,.13-.16l.54-.86c2.22-3.15,2.2-3,3.28-4.41-1.73,2.44-1.52,2-2.16,3,2.14-3,1.38-1.8.36-.31s-2.28,3.32-.62,1.08l-5.66,7.86L90.38,97c.16-.22.23-.31.23-.29l-.56.78c-.34.48-.66.93-1,1.42-.63.87-1,1.38.22-.24,3.61-4.9,2.59-3.56,6.53-8.78l-3.24,4.2,5.69-7.59c-.25.25-2.54,3.29-2.42,3.08l0-.07.47-.64c2.54-3.4,1.93-2.57,4.49-6.11-2.37,3.3-1.43,2.08-.16.43s2.82-3.66,1.2-1.39L92.46,94.4c-1.9,2.6-.59.87,1.16-1.39s3.88-5,2.89-3.61l1.62-2.17c.51-.67,1.17-1.53,2-2.62.34-.43.41-.51.4-.48s-.33.52.7-.8l-7.19,9.39,8-10.18-4.87,6.33c-.84,1.13,2.18-2.71,5.46-6.84s6.75-8.5,6.46-8L97.72,88.34c.12-.12-.54.74,2.48-3.07-1.31,1.66.27-.31,1.74-2.13s2.8-3.47.74-.87c1.45-1.8,2.6-3.24,4.21-5.26l1.86-2.31a9.85,9.85,0,0,1,.75-.9l-2.29,2.86c2.26-2.84,3.62-4.44,8.47-10.57-6.75,8.54-6.05,7.75-4.91,6.44s2.63-3-4,5.22c2.21-2.65,4.6-5.48,5.51-6.51-1.69,2.06-2.76,3.37-2.27,2.76-2.27,2.82,1.81-2.14,5.91-7.13s8.2-10,5.75-6.89c-8.86,10.84-5.49,6.61-8.72,10.58C103.58,82,104.34,81,106.21,78.8s4.9-5.87-.66.9l-1.25,1.5c-3.57,4.34-.72.91,2.5-3,2.24-2.67,4.5-5.36,3.65-4.29l-3,3.58c9.78-11.73,12.09-14.34,14-16.53l-11.17,13.3,6.52-7.76c3.1-3.7,6.29-7.5,7-8.26L108.08,77.16s0,0,0,0c-5.16,6.16-5.14,6.16-4.14,5s3-3.54,2.06-2.38l-4.27,5.06c1-1.08,11.48-13.49,9.9-11.47l3.18-3.75c4.84-5.65,3.26-3.76,1.43-1.59s-4,4.69-.53.71L105.53,80.61l5.27-6c2-2.28,3.83-4.31,4.39-4.89-3.37,3.85-9.82,11.24-13.89,15.91-.26.34.11,0,4.65-5.24-.81.92-3,3.5-1.49,1.66,7.31-8.43,10.31-11.77,9.44-10.62-8.81,10.14-10.24,11.84-11.17,13s-1.5,1.89-7.94,9.2c2.76-3.06,1.74-1.82.29-.13s-3.39,3.89-3.2,3.75c11.17-12.29.13-.11,11.25-12.23.43-.39.13,0-.59.75l-7,7.75L91,98.27c-.61.69-2,2.18-3.62,3.92L83.79,106c3.64-3.89,5.11-5.42,3.68-3.88l4.75-5.08c2.45-2.53.22-.12-1.86,2.07s-4.08,4.29-1.76,1.92L85.74,104c.84-.86.76-.75,1.34-1.32L92,97.89c-1,1-3.24,3.23-3.77,3.73-.63.68.89-.75,1.81-1.48s1.33-.93-.48.77l-1.53,1.35c.4-.34,2.73-2.32,1.08-.83-.61.52-1.46,1.25-1.58,1.37.24-.2.84-.69,1.23-1s.59-.4.12,0L87.42,103c-1.09,1-.22.33.74-.28s2.09-1.26,2.1-1c-1.6,1.07-2.78,1.94-3.55,2.49l-1.45,1-.38.2c-.25.21.21,0,.59.13a.74.74,0,0,1,.63.94,4.22,4.22,0,0,0-1.06.25l-.17.07c-.12.14-.25.28-.38.41-.25.29-.5.59-.75.91a21.52,21.52,0,0,1-3.17,3.55c.45-.2.79.66.61,1.14-.61.37-.33,2-1.25,1.21l.16-.18c-1.25-.3-1.79,1-2.44,1.81l1.18,1.07c-3.48.87-3.57,6.33-6.12,6.33-.07.77-.56,1.43-.63,2.2l-.66-.53a19.6,19.6,0,0,0-3.07,4l-.22-.73c-.8,1,1,2.75.37,3.74l-1.24-.46c-1.3,1.82-3.53,3-3.91,5.46-.13-.14-.38-.41-.21-.73-.65.83-3.1,2.79-1.47,3.5-.93-.64-1.45,1.8-1.76,3.08l-.56-.65c.26,1.46.48,1.65-.12,3-.29.21-.72-.16-.28-.39-1,.65.12,1.17-1,2l-.13-.72c-.74.9-.45,1-.33,1.87-.15.79-1.46,1.65-2.17,1.34a1.3,1.3,0,0,1-.18,1.7c-.28-.09-.28-.4-.27-.55-1.61,1.23-.92,2.9-2.36,3.49a.66.66,0,0,0-.54-.11,15.75,15.75,0,0,1,1.67-2.08c-.62-.45-1.46.47-1.74-.95-.12,1.15-.1,3.27-1.11,4a.68.68,0,0,1-.31,0v-.15a1.05,1.05,0,0,0-.35.69,3.24,3.24,0,0,0-.78.68c-.6-.26-1.11.95-1.5,1.43.71.45.12,1,1.13.83-.11,0,0-.16.2-.51a.78.78,0,0,0,.09-.27l0,.08c.22-.34.52-.78.87-1.28,0,.65,0,1.28-.74,1.56a14.83,14.83,0,0,1,.59,1.5c-.7,0-1.54.34-1.94.22a1.36,1.36,0,0,1-1-.48,7.93,7.93,0,0,1-.41,1.46,27.21,27.21,0,0,0-.72,3.3c-.25.69-.19-.51-.2-.91a5.7,5.7,0,0,0,.29-1,10.91,10.91,0,0,1-.65,1.51c-.17-.1-.37,0-.64.92a2.77,2.77,0,0,1,.21-1.45.55.55,0,0,0-.06-.67l.21-.44c.06-1.15,0-1.42-.19-1.56s-.55-.12-1-.32a2.18,2.18,0,0,1-.61-.41,2.26,2.26,0,0,1-.29-.32l-.13-.18-.14-.28a4.64,4.64,0,0,1-.32-2.82c0,.31-.05.47-.21.58-.57-4.7-4-8.7-4-13.54-.13-1.33-.84-1.23-1.61-1.81l.76-.56-1.43-.94c-1.36-1.56,1-3.87-1.16-5.69l-.47.49c-.18-.86-1.25-2.49-.54-2.59-.14,0-.7-.06-.51-.48l.44-.19-1.47-1.76c-.23-1.68,1.86-.37,1.15-2.69-.47-.8-2.15-2-2.34-1.55a1,1,0,0,1-.41,1.16l-.5-.7c-1.37.31-2.93.18-3.19,2.42l1.27,1.05-.49.65-.43-1.1c-.38.84.29,1.06.82,1.39a1.1,1.1,0,0,0-.51.8l1.71.87c-.46.34-1.23-.23-1.21.75.8.41,1-1,1.7-.11-.38.85-.94.83-.16,1.4a.59.59,0,0,1-.83-.1c.64.52.79,1.7,1.61,1.8-.51.92,1,2.18-.3,2.55a3.71,3.71,0,0,1,1.65,1.43c-1.88-.6.71,2.32-1,2.59,1.63.36,1.64,2.78,2.89,4-.13-.05-.4-.13-.38-.29a4.43,4.43,0,0,1-.22,1.87c1.15-.28,1.85.91,2.78,1.37-.72,1.38-1.52-.16-2.44.51.88-.36,1.51,1.45,2.14.84-.39,1-.09.78-.87,1.5,1.44-.35.49.64,1.56,1-.29,1.36-1.2.75-.35,1.83C35.64,155.11,34.77,154.19,34.77,154.19Zm20.36,3.18h0l-.34.55Zm1.52-2.11c-.21.24-.45.56-.69.9-.29-.1-.47-.36-.31-.56C55.73,155.83,56.22,155.43,56.65,155.26Zm-8,1c.14-.4.36-.42.53-.36a5.79,5.79,0,0,0-.34.64l0,.1A1.33,1.33,0,0,1,48.69,156.27Z"/><path class="cls-16" d="M49.14,157.52c0,.06,0,.11,0,.17l.3-.08c0-.1-.09-.19-.13-.28Z"/><path class="cls-16" d="M69.86,115.63l0,0a.49.49,0,0,1-.17,0A.37.37,0,0,1,69.86,115.63Z"/><polygon class="cls-16" points="79.14 127.17 78.97 127.05 78.98 127.34 79.14 127.17"/><path class="cls-16" d="M57.94,124.11a.4.4,0,0,0-.29,0A.64.64,0,0,0,57.94,124.11Z"/><path class="cls-16" d="M53.56,128.5l-.82.43A3.94,3.94,0,0,0,53.56,128.5Z"/><path class="cls-16" d="M50,131.68a1.64,1.64,0,0,0,.2.32h0Z"/><path class="cls-16" d="M116.55,59.28c.09-.1.2-.24.36-.44C118.08,57.35,117.47,58.1,116.55,59.28Z"/><path class="cls-16" d="M89.13,91.4c.34-.59.69-1.18,1-1.67A3.12,3.12,0,0,0,89.13,91.4Z"/><path class="cls-16" d="M131,45.51l0,.05s0,0,0,0Z"/><path class="cls-16" d="M91.09,88.75c-.18-.06-.55.39-1,1A3.07,3.07,0,0,0,91.09,88.75Z"/><path class="cls-16" d="M36.15,126.09l-.18-.15a.25.25,0,0,1-.09.11Z"/><path class="cls-16" d="M35.88,126.05l-.27,0C35.71,126.06,35.8,126.11,35.88,126.05Z"/><path class="cls-16" d="M35,125.9l.57.1C35.45,125.9,35.27,125.76,35,125.9Z"/><path class="cls-16" d="M41.34,129.69l.22-.22A.65.65,0,0,0,41.34,129.69Z"/><path class="cls-16" d="M43,130.61c-.35-.3-.64-1.15-1.28-1.32l-.18.18C42.05,129.24,42.38,130.83,43,130.61Z"/><path class="cls-16" d="M48.92,138.25l-.22.18-1.5-1.15c.27.54.74,1.34-.15.89,1.18,1.26,1.15,1.07,1,.67s-.27-.92.64-.38Z"/><path class="cls-16" d="M53.42,134.13c-.48.74.35.32.46.48C54,134,54.07,133.86,53.42,134.13Z"/><path class="cls-16" d="M78,107.9l.5.59C78.91,107.93,78.32,108.28,78,107.9Z"/><path class="cls-16" d="M80.3,99.68c-.29.08-.6.17-.92.28,0,.31.08.6.13.89Z"/><path class="cls-16" d="M83.88,103.86l-.06.22c.07-.21.16-.44.26-.68Z"/><path class="cls-16" d="M98.37,88l8-10C104.78,80,95.76,91.21,98.37,88Z"/><path class="cls-16" d="M107.05,78.67c-4.24,5-7,8.28-3.15,3.78C104.61,81.58,108,77.56,107.05,78.67Z"/><polygon class="cls-16" points="77.09 117.12 77.15 116.51 76.78 117.46 77.09 117.12"/><path class="cls-16" d="M112.58,133.65c.09.18.29.08.22-.43l-.35-.35Z"/><path class="cls-16" d="M113,130.22c-.19-.6-.5-1.26-.79-.85.35.56.22.71.63,1.33.07.51-.06.89-.18.81.09.18,0,.79.19,1.06a4.06,4.06,0,0,0-.07-2.38C112.86,130,113,130.18,113,130.22Z"/><path class="cls-16" d="M89.9,87.58l.24.23A1.79,1.79,0,0,0,89.9,87.58Z"/><path class="cls-16" d="M60.89,77.07c.24,0,.34,0,.35,0C61,77,60.84,77,60.89,77.07Z"/><path class="cls-16" d="M55.53,76.6h.32A.69.69,0,0,0,55.53,76.6Z"/><path class="cls-16" d="M89.9,87.58,89.3,87C89.19,87.05,89.59,87.32,89.9,87.58Z"/><path class="cls-16" d="M111.43,123.53a1.86,1.86,0,0,0,.15.42l-.1-.4Z"/><path class="cls-16" d="M100.25,96.66l.17.19.25.07Z"/><path class="cls-16" d="M106.41,105.29c-.11-.22-.4-.15-.55-.16a.9.9,0,0,1,.43.35A.28.28,0,0,0,106.41,105.29Z"/><path class="cls-16" d="M112.07,121l.11.28Z"/><path class="cls-16" d="M95,91.21a.33.33,0,0,0,0-.14S94.94,91.15,95,91.21Z"/><path class="cls-16" d="M110.63,145.42h.05C110.66,145.36,110.65,145.34,110.63,145.42Z"/><path class="cls-16" d="M113.32,133.65v.17a.4.4,0,0,0,.15,0Z"/><path class="cls-16" d="M45.68,77.3h0C46,77.23,45.83,77.26,45.68,77.3Z"/><path class="cls-16" d="M1.15,145.77c0-1.05.73,1.54.62,0C1.7,145.93,1,144.5,1.15,145.77Z"/><path class="cls-16" d="M111.43,123.26l-.07-.42A2.4,2.4,0,0,0,111.43,123.26Z"/><path class="cls-16" d="M1.77,145.76h0v0Z"/><path class="cls-16" d="M24.86,86.27a.63.63,0,0,0,.26,0S25,86.22,24.86,86.27Z"/><path class="cls-16" d="M40.2,79.28l-.4.11A2.49,2.49,0,0,0,40.2,79.28Z"/><path class="cls-16" d="M18.29,92.1a2,2,0,0,0-.46.4l.09,0A1,1,0,0,1,18.29,92.1Z"/><path class="cls-16" d="M12.17,98.82l.14-.1.16-.24Z"/><path class="cls-16" d="M99,169.14a1.34,1.34,0,0,1,.47-.14C99.25,169,100.06,168,99,169.14Z"/><path class="cls-16" d="M111.58,123.5a.34.34,0,0,1-.15-.24l0,.29S111.57,123.56,111.58,123.5Z"/><path class="cls-16" d="M19.55,94l-1.06.91C18.79,94.62,19.18,94.29,19.55,94Z"/><path class="cls-16" d="M41.94,186.45l.32.05A.78.78,0,0,0,41.94,186.45Z"/><path class="cls-16" d="M15.73,97.94a3.33,3.33,0,0,0-.67.46.52.52,0,0,0-.06.16Z"/><path class="cls-16" d="M99.49,169Z"/><path class="cls-16" d="M104.19,161.09c-.69,1.12,0,.72,0,1.07-.74,1.41-.61.48-1,.84a9.33,9.33,0,0,0-.48,1.28,4.12,4.12,0,0,1-.55,1c-.08,0-.19.12-.15-.06-.39,1-1.83,2.51-2.31,3.7a.34.34,0,0,1-.18.06.52.52,0,0,1,.52.18c-.4.46-.58,1-.91,1a.9.9,0,0,0,.26-.53l-.35.53c-.64.19.49-.72.3-.88a24,24,0,0,1-2.2,2.87c-.38-.09,1.39-1.71.33-1l1.07-1c-1.14.47.62-.62-.49-.25a12.29,12.29,0,0,0-1.32,1.51,7,7,0,0,1-1.38,1.46c-.18.42.3.11.12.53-1.79,2.08-2.15.8-3.32,2.47a2.33,2.33,0,0,1-1.43,1.62l.15-.6c-1.49,1.08-.51,1.08-2.21,2,.19-.33,1.09-1,.84-.84-1.18.5-.59.7-1.36,1.28l-.36-.17c-.82.53-1.66,1.13-2.52,1.75a19.81,19.81,0,0,1-2.73,1.75c.06-.15.35-.4-.16-.27-1.2.66-2.52,1.3-3.85,1.87s-2.77.84-4,1.2l-.85.62c-.23.08-.46,0-.23-.12-1,.15,0,.19-.45.42s-.79,0-.46-.14c-.84.34-2.06.79-3.32,1.18-.32.1-.63.2-.94.27l-.94.15a13.35,13.35,0,0,1-1.67.12l.35-.15c-1.49.11-1.58.85-3,.79l.26-.09-4.94.26c-.41,0-.81,0-1.19,0l-1.14-.09a18,18,0,0,1-2-.32,3.77,3.77,0,0,1-1.81,0c-.77,0-1.49-.22-1.64.08a25.71,25.71,0,0,0-3.79-1.18c-.68-.11-1.08.15-1.93,0l0-.31-1.2,0-.51-.52-.8-.12c.3.1.62.3.55.38a8.44,8.44,0,0,1-1.93-.58,2.4,2.4,0,0,1-.94-.64l-2.88-.78c.11-.09.59,0,1,.1-1.6-.25-.15-.4-1.62-.63.15.13-.17.13-.23.18A22.18,22.18,0,0,0,33,182.91l.31-.09c-.49-.25-1-.49-1.52-.73-.26-.13-.53-.24-.79-.38l-.77-.44c-1-.59-2.1-1.2-3.16-1.84.7.54.33.75-.31.4l-.07-.42c-.52-.08.58.49-.38.2-.74-.57-.3-.67.18-.45l-1-.57c0-.12.24,0,.37-.07-.49-.11-1.36-1.42-2.1-1.54v-.11l-1.32-1c-.38-.3-.69-.59-1-.86-.64-.54-1.24-1.05-2-1.72-.22.18-.76-.39-1.37-.64-.94-1.17-1.88-2.53-3.1-3.84-.92-.87-.42-.13-.9-.47.14-.23-.95-1.65-.25-1-.65-.85-1.08-1.39-1.56-2l-.8-1-1-1.39c.06.31.2.62,0,.52-.29-.4-.49-1-.35-1l.09.09A14.17,14.17,0,0,1,8,158.22c-.29-.79-.58-1.56-.88-2.26-.16-.34-.32-.67-.49-1a6.32,6.32,0,0,0-.45-.86l.07.11L5.11,152c-.35-1.11.43.59.28-.27a15.58,15.58,0,0,1-.8-1.68c-.16-.54-.28-1.05-.39-1.55a19,19,0,0,0-.82-3,3.94,3.94,0,0,0,0-.78,8.41,8.41,0,0,0,0-1c-.06-.69-.2-1.46-.34-2.25s-.31-1.59-.4-2.35a10.56,10.56,0,0,1,.06-2.07l-.17.14c-.21-.59.06-.73.08-1.17-.13.07-.13.66-.24.29a35.5,35.5,0,0,1,.19-7.83c.16-1.31.5-2.6.74-3.9.13-.65.25-1.29.38-1.93s.38-1.26.56-1.88c.52-1.83-.62-1.29.39-3.52l.15.76a6.85,6.85,0,0,1,.32-1.41l.45-1.4c.32-.92.66-1.85,1-2.77.85-1.77,1.69-3.52,2.41-5.29a1.63,1.63,0,0,1-.13.61,6.38,6.38,0,0,0,1.35-2.64c.33-.49.22,0,.5-.28.54-.59.76-1.9,1.23-2.1.07,0-.08.22-.14.36.21-.49,1.47-1.93.95-1.69,1-1.05,1.5-2.28,2.37-3,.26-.75,1.74-1.7,1.58-2.17.27.39,1.89-1.63,2.48-2.33-.13.3.67-.42.54,0,.75-.69,1.39-1.39,1.1-1.44,1.69-.92,2.68-2.74,3.94-2.84l1.7-1.48,1.78-1.25,1.75-1.2.87-.58.92-.49c.07.24-.64.52-1.25.93s-1.21.77-1,.95c.53-.38,1-.73,1.43-1.07s.9-.57,1.33-.84a22.92,22.92,0,0,1,3-1.57c.63-.23-.26.35-.43.52A19,19,0,0,1,38.19,82c.57-.2,1.14-.41,1.69-.63l.82-.34.82-.29s-.22.15-.44.24c.44-.13,1.05-.2.94-.39l-.42.17c-.79-.1,1.6-1,1.65-1.23-.61.77,2.27-.43,1.24.6.28-.11.62-.3.53-.42.44-.07.59,0,.19.24.77-.27,1-.39,1.25-.49a3.89,3.89,0,0,1,1.18-.3c0,.1-.28.18-.41.32a7.67,7.67,0,0,1,2.68-.71c-.06.07.09.12-.28.18a24.43,24.43,0,0,1,6-.82c-.69.46.81.1.93.46a9.17,9.17,0,0,1,1.27-.1l-.51-.21c1.12.07,2.11-.15,3.07,0l-.84.11,2.1,0-1.18-.2c1.15-.13-.09-.47,1.4-.3-.31,0,1.13,0,1.68.39h0a5.58,5.58,0,0,1,2,.15c.19.15-.24.38-.11.48.58-.21,2.61.27,3.34.12-.24,0-.29.21-.22.27l.5-.13c.48.21.55.26.43.39,1.5.44-.37-.58,1.38.08-.15,0-.09,0-.39,0a25.85,25.85,0,0,0,2.63.65,7.57,7.57,0,0,1,1.26.35,12.5,12.5,0,0,1,1.2.48c.35.52-1.43-.43-1,.07,1.16.39,2.39.72,3.62,1.07a20.06,20.06,0,0,1,3.41,1.44l-.38-.23c.53-.32,1.5,1,2.67,1.33-.26-.12-.47.07-.37,0,1.34.93,2.93,1.58,5.1,2.8l-.32-.07c.7.67,2,1.57,2.78,2.24.33.08.79.45.63.08a11.52,11.52,0,0,0,.82.88,10.62,10.62,0,0,0,.81.83c.57.53,1.16,1,1.75,1.44a16.74,16.74,0,0,1,1.7,1.41,9.55,9.55,0,0,1,1.3,1.73c-.23-.25-.63-.51-.45-.31l1.72,1.7c0-.29-.11-.32-.32-.82a4.79,4.79,0,0,1,1.26,1c-.86-.71-.25.22-.08.69,0-.11.16,0,.2-.1.44,1.27.49-.12,1.31,1.44h-.15a12.41,12.41,0,0,1,1.32,1.46c0,.38-.51-.49-.72-.39.59.78,1.62,1.24,1.82,2.18a9.68,9.68,0,0,0-.91-1.12,7.44,7.44,0,0,0,.74,1.67l0-.07.74,1.49-.15-.4a3.69,3.69,0,0,1,1.33,1.44c.17.29.36.6.56.91a6.21,6.21,0,0,0,.68,1c-1.09-1.26-.34-.13-.66-.1.11.42.3,1,.15.91.55.59.38,1.25,1.18,2.09-.06.08.36.75.06.69.5.88,0-.28.2-.26a6.88,6.88,0,0,1,1,2.52,11.07,11.07,0,0,0,1.18,3c.71,1.81,1.08,2.08,1.71,3.8,0,.63-.47-.4-.47-.4a12.62,12.62,0,0,0,.61,2.58c-.11-.17-.16,0-.22.34.14.72.42.42.43,1.42a2.56,2.56,0,0,1-.5-.67c.22.85.53,1.67.76,2.56-.14.26-.34-.51-.5-.81a14.59,14.59,0,0,0,.8,2.87l.06-.66c0,.37-.21.21-.29,0-.34-.84-.1-1.26,0-1.32l.16.63c.47-.73-.48-2.56-.64-3.84l.49.46-.54-1.26c0-.3.25-.54.42.08,0-1-.34-.78-.3-1.61,0-.1,0-.06.08,0l-.35-.86c.12.15.24-.22.32.35-.18-1.67-1-2.51-.81-3.2l.06.13c-.35-1.1-.53-1.1-.59-1.06s-.19.16-.66-.58l.32-1.33-.37-.11c-.07-.23-.21-.68-.06-.64-.5-.75-.08.19-.44-.22a7.21,7.21,0,0,0-.62-1.93c-.3-.61-.52-1.12-.36-1.34-.39-.27.31,1.06-.36,0,.32-.53-.69-1.23-.93-2.27.38.17.68,1.13.45.08a2,2,0,0,1-.71-1.17,5.77,5.77,0,0,0-.67-1.41c-.33.14-1.12-1.56-2-2.76.22,0-1.43-2.38-2.16-3.56h.07c-.23,0-.54-.29-.88-.68a11.44,11.44,0,0,0-1.09-1.22c.19-.11.39,0,.83.33-.2-.26-.43-.49-.65-.73a3.26,3.26,0,0,1-1-.72h.37c-.91-.94-2-1.75-3-3-.24.12.47,1.39-.93.34.05-.14.16-.36.54-.09a2.89,2.89,0,0,1-.66-.52l.68.3c-.49-.58-.43-.13-.86-.55.15-.13-.23-.4-.06-.46s.33.42.56.52A5.93,5.93,0,0,1,95,91.21c0,.13-.18.2-.56-.12-1-.86-.18-.47-.67-1.06-.31-.13-.89-.73-1.09-.51A.86.86,0,0,1,92.3,89c-.62-.3-2.54-1.85-2.12-1.14l.13.11-.1,0h0A12.37,12.37,0,0,1,88.82,87l-1.41-.94a29.94,29.94,0,0,0-2.82-1.82l0-.08a22.64,22.64,0,0,0-3.54-1.46c-.34-.16-.74-.55-.54-.59a18,18,0,0,1-2.34-1c1,.18-.27-.26,1,.24a8.34,8.34,0,0,0-2.8-1c.53-.07-.82-.63-1.42-.77l.8.48c-.67-.2-1.23-.43-1.8-.66l.41-.2a11,11,0,0,0-3.56-.84,9.85,9.85,0,0,1-3.07-.8c-.74.12,1.4.38.72.55a27.29,27.29,0,0,1-2.76-.95c-1.64-.42-1.6.19-3.33-.09.22.13.39.45-.91.5-1.2-.11-1.46-.58-.69-.63.3,0,.44,0,.42.09.4,0,.92,0,.45-.2l-.17.11c-.6-.15-2.28-.23-1.88-.4-.93.07-.4.17.28.27a22.85,22.85,0,0,0-4.07-.2c.26.06.5.18.24.19-2.37,0-1,.28-2.62.41-.92-.13.3-.44-1.31-.21-1-.07-.23-.3.15-.42a6.66,6.66,0,0,1-1.06.13,8.44,8.44,0,0,1-1,.08c-.61,0-1.16,0-1.58,0l.76-.21a10.89,10.89,0,0,1-1.22.24l.48.17c-.46,0-.85.08-.85,0-.44.23.41.34-.47.69-.62,0-1.8.37-2.06.16,1.9-.25-.28-.3,1.31-.61a5.93,5.93,0,0,1-1.14.18c-.07,0,.05-.08.17-.12-1.85.16-.75.55-2.59,1,.19-.23-.51-.21-.8-.1.74-.19.43.2-.22.5a8.49,8.49,0,0,0-1.87.57l.72-.12a7.89,7.89,0,0,1-1.54.72c-.12-.11.68-.36.38-.31-.77.62-2.09.42-3.25,1.07-.62.1-.18-.29-.71-.18-1.31.7-1.57.4-2.91,1.23.51,0,.55-.07-.33.62l2.22-1.26-1.33,1a20.48,20.48,0,0,1,1.84-1c-.65.46-.58.41-.18.42-1.09.13-1.78,1.09-3,1.39l-.23-.54a8.21,8.21,0,0,0-2.32,1.19,17.6,17.6,0,0,1-2.51,1.66l.7-.3c-.15.36-1.23.78-1.83,1.26,0-.2-.5,0-.84.06.11.09-1.4,1-1.34,1.47l-1,.43c-1.6,1.07-1.43,1.7-2.8,2.9.26-.54-.45-.08.37-1-.46.42-.89.76-.81.87-.35.15-1.08,1.34-1.62,1.58a1.65,1.65,0,0,1-.57.89c-.08,0-.07-.07-.07-.07s-.65.85-.09.57a11.67,11.67,0,0,0-2.57,2.42c-.42.49-.84,1-1.24,1.38a6,6,0,0,1-1.07,1.07L10,102.14c0-.1-.08-.06.06-.24-1,1.33-.06,1.18-1.21,2.69-.78.66.37-1,0-.5-.35-.06-.63.45-.95,1.08A9.25,9.25,0,0,1,6.71,107l.1-.29c-.62.78-.82,2.27-1.55,3.68,0,0,0-.09-.09,0-.24,1.1-.77,3.1-1.23,4.56-.07-.53.12-.7-.23-.51-.2.65.46,0,.06,1.25-.27.38-.76,1.26-1,1.32a11.24,11.24,0,0,1,.41-1.24,2,2,0,0,0-.52,1.07A8.05,8.05,0,0,1,2.42,118l-.13-.13c-.45,1.95-.07,2.07-.63,4.13l.17-.19c.12,1.21-.39.92-.3,2.11l-.44.29c0,.78-.07,2.71-.12,4.08a17.18,17.18,0,0,1-.14-3.43,12.8,12.8,0,0,0-.23,3,3.36,3.36,0,0,1,.08-1,19.5,19.5,0,0,1,.16,3.71c-.37-.16-.47.83-.55,2A15.9,15.9,0,0,1,0,135.62a32.12,32.12,0,0,1,.28,4.08c.15,1.39.28,2.85.54,4.41.42-1.21.16.91.73.6a5.35,5.35,0,0,1,.22,1L2,148c0,.55-.31-.64-.42-.55.35,1.58-.09.72,0,1.81.15-.27.44.46.59,1.37l0-1.33a6.4,6.4,0,0,1,.49,2,4.67,4.67,0,0,0,.64,2l-.43-.62c.26.54.63,1.55,1,2.54.11.25.21.5.32.74s.26.44.39.64a4.48,4.48,0,0,0,.75,1c0,.21,0,.53-.27.08.28.64.63,1.3,1,1.95a16.74,16.74,0,0,0,1.16,1.91,20.21,20.21,0,0,1,2.07,3.36l-.23-.1A6.33,6.33,0,0,1,10,166c-.08,0-.25-.08-.12.12a8,8,0,0,1,1.38,1.55l-.48-.37A14.65,14.65,0,0,0,12.92,170c.76.65,1.53,1.21,2.32,2-.16.14.09.63.46,1.2A10.65,10.65,0,0,0,17,174.76l-.07,0a37.56,37.56,0,0,0,3.27,2.72c1.06.79,2.23,1.38,3.44,2.2A9.59,9.59,0,0,0,24.88,181c.55.45,1.25.85,1.95,1.31,1.44.87,3,1.89,4.24,2.58-.37-.26.22-.27.71-.09.58.38,1.83.55,1.56.87l-.21-.12a5.44,5.44,0,0,0,2.65,1.5l.37-.43a10.63,10.63,0,0,0,2.16,1.1,14,14,0,0,0,2.51.78,11.74,11.74,0,0,1,3.9,1.18,15.28,15.28,0,0,0,2.25.17l-.09.27c.95.18,1.66.32,2.43.45l1.24.18.72.1.83,0-.5.18c1.35.09,1.76-.73,3-.68l.35.44a24.55,24.55,0,0,0,7-.15c0,.06-.09.18-.47.22,1.11.06,4.28-.22,3.81-.72.07.36,2.4-.3,3.59-.71l-.13.32a7.27,7.27,0,0,1,2.37-1.18c.35-.05.36.14-.11.19,1.17-.15.81-.48,2.22-.69l-.46.3a2.66,2.66,0,0,0,1.61-.75,4.78,4.78,0,0,1,2.42-.54,2.37,2.37,0,0,1,1.33-.79c.12,0-.1.2-.21.27a10.41,10.41,0,0,0,1.27-.43c.36-.17.66-.37.95-.54a5.78,5.78,0,0,1,1.75-.84.29.29,0,0,0,.29,0c-1.45.69-2.62,1.24-2.51,1.17.1.23,1.29-.29.5.48a17.14,17.14,0,0,1,3.48-2.22.41.41,0,0,1,.19,0l-.11.08a2.72,2.72,0,0,0,.7-.39,9.21,9.21,0,0,0,.94-.48c.23.11,1.33-.67,1.89-1-.19-.21.55-.61-.25-.4.1,0-.08.09-.44.33a1.58,1.58,0,0,0-.22.16l0,0-1.36.85a3.34,3.34,0,0,1,1.45-1c.18-.33.4-.68.52-.86a9.52,9.52,0,0,0,1.67-.45,4.84,4.84,0,0,1,1.16-.36c.75-.66,1.66-1.38,2.47-2.08a14,14,0,0,0,1.1-1,4.62,4.62,0,0,0,.67-1c.37-.42.57-.31.78-.39a6.39,6.39,0,0,0-.57.68c.74-.85,2.42-2.27,2.36-2.71,1.14-.84-.32.8,1-.6l-.1.27A16,16,0,0,0,100.8,170a17.06,17.06,0,0,1,3.2-4.28c-.21.2-.32.31-.4.32.19-.23.39-.46.57-.7l.5-.76c.33-.51.65-1,1-1.55a28.21,28.21,0,0,0,1.77-3.24c.51-1.12,1-2.23,1.57-3.32a17.42,17.42,0,0,0,.75-1.65c.24-.55.49-1.1.76-1.63a5.06,5.06,0,0,0,.5-2.27l.39-.18c0-.48,0-1,0-1.46a8.87,8.87,0,0,1,.9-2.64,11.67,11.67,0,0,0,.53-1.38,6.62,6.62,0,0,0,.14-1.72l-.25.28c.18-.89.32-2.84.52-2.66a.79.79,0,0,1,0-.66h.16c0-.37,0-.74,0-1.11l-.08-1.12c.2-1.71.61.32.77-2.2,0-.95-.32-2.68-.45-2.33s-.14,1-.3,1l0-.85c-.46-.16-.91-.79-1.33,1.24l.21,1.43-.25.44.05-1.19a2.44,2.44,0,0,0,0,1.59,1,1,0,0,0-.28.58l.37,1.43c-.2.15-.29-.65-.5.26.1.67.5-.58.47.51-.32.65-.46.43-.4,1.24-.13.1-.18-.08-.19-.4a11.68,11.68,0,0,0,0,2.27,5.1,5.1,0,0,0-.34,1.42c-.11.49-.25.87-.45.79a7.35,7.35,0,0,1-.12,1.92c-.22-1.28-.64,2.36-1.1,1.9a4.18,4.18,0,0,1-.36,2.09,21,21,0,0,0-.76,2.52.82.82,0,0,1,0-.4,8.37,8.37,0,0,1-.83,1.48c.32.26-.2,1.53-.3,2.3-.81.81-.13-.79-.61-.63.31.08-.52,1.81-.13,1.6-.57.64-.41.59-.88.82.36.36-.23.74-.35,1.46-.83.9-.55,0-1.1,1.22C103.74,162.16,104.19,161.09,104.19,161.09ZM82.54,182.81h0l.58-.3ZM80.17,184l1-.49c.13.05.08.18-.16.29C81.14,183.64,80.55,183.86,80.17,184Zm5.91-.9c-.34.26-.5.29-.58.27l.63-.42,0-.06A.37.37,0,0,1,86.08,183.06Z"/><path class="cls-16" d="M86.56,182.35a.85.85,0,0,1,.14-.11l-.25.08-.09.15Z"/><path class="cls-16" d="M90.18,87.85l0,0a.3.3,0,0,1,.07.1S90.2,87.87,90.18,87.85Z"/><polygon class="cls-16" points="44.79 187.04 44.77 187.11 45.01 187.11 44.79 187.04"/><path class="cls-16" d="M100.2,98.55a.45.45,0,0,0,.06.2A.53.53,0,0,0,100.2,98.55Z"/><path class="cls-16" d="M103.81,103.69l.38.81C104,104.14,103.91,103.89,103.81,103.69Z"/><path class="cls-16" d="M106.13,107.91a.33.33,0,0,0,.15,0h0Z"/><path class="cls-16" d="M41.08,81a.49.49,0,0,0-.17.06C40.51,81.23,40.78,81.12,41.08,81Z"/><path class="cls-16" d="M63.56,78.35c-.25,0-.49,0-.74,0C63.22,78.45,63.53,78.51,63.56,78.35Z"/><polygon class="cls-16" points="19.66 93.86 19.66 93.86 19.55 93.96 19.66 93.86"/><path class="cls-16" d="M61.75,78.31a4,4,0,0,0,1.07.06A6.4,6.4,0,0,0,61.75,78.31Z"/><path class="cls-16" d="M112.05,127.77l0,.23a0,0,0,0,1,.05,0Z"/><path class="cls-16" d="M112.12,128l0,.25A.59.59,0,0,0,112.12,128Z"/><path class="cls-16" d="M112.26,128.81l-.09-.54A1.25,1.25,0,0,0,112.26,128.81Z"/><path class="cls-16" d="M111.12,121.47l-.12,0A.13.13,0,0,0,111.12,121.47Z"/><path class="cls-16" d="M110.6,119.61a11.79,11.79,0,0,0,.3,1.78l.1,0C110.77,121.17,110.88,120,110.6,119.61Z"/><path class="cls-16" d="M109.21,111.46c.19.51.34,1.05.51,1.58,0-.31,0-.73.29,0C109.58,110.92,110,113.5,109.21,111.46Z"/><path class="cls-16" d="M107.11,106.75c.44.78.14-.09.21-.07C107,106.22,106.87,106.12,107.11,106.75Z"/><path class="cls-16" d="M80.26,81.85l.19-.2C79.81,81.39,80.4,81.74,80.26,81.85Z"/><path class="cls-16" d="M73.22,80.6a4.37,4.37,0,0,1,.58.34l.36-.12A6.11,6.11,0,0,0,73.22,80.6Z"/><polygon class="cls-16" points="69.63 77.8 69.93 77.83 68.79 77.64 69.63 77.8"/><path class="cls-16" d="M13,97.36l.37,0C13.6,97,13.38,96.71,13,97.36Z"/><path class="cls-16" d="M1.55,121.73a2,2,0,0,0-.38,1.48C1.28,122.61,1.49,122,1.55,121.73Z"/><polygon class="cls-16" points="37.29 187.42 36.73 187.33 37.74 187.6 37.29 187.42"/></g></g></svg>