<svg xmlns="http://www.w3.org/2000/svg" xmlns:xlink="http://www.w3.org/1999/xlink" viewBox="0 0 568.97 492.72"><defs><style>.cls-1{fill:none;}.cls-2{fill:#c2b38c;}.cls-3{fill:#4a6477;}.cls-4{fill:#f6a472;}.cls-5,.cls-7{fill:#7f4924;}.cls-6{fill:#dc4345;}.cls-7{opacity:0.43;}.cls-8{fill:#3a1e0a;}.cls-9{fill:#912227;}.cls-10{fill:#f2e8d1;}.cls-11{fill:#25353f;}.cls-12{fill:#87795b;}.cls-13{fill:#fff;}.cls-14{clip-path:url(#clip-path);}.cls-15{fill:#ccc;}.cls-16{fill:#4d4d4d;}.cls-17{fill:#163d6b;}.cls-18{fill:#ea0029;}</style><clipPath id="clip-path"><path class="cls-1" d="M243.27,388a416.78,416.78,0,0,1-58.76-67.93c-1.71-2.47-2.92-6.67-.08-7.78,1.69-.67,3.48.56,4.84,1.74C198,321.58,237.82,369.84,243.27,388Z"/></clipPath></defs><g id="Capa_2" data-name="Capa 2"><g id="Capa_1-2" data-name="Capa 1"><path class="cls-2" d="M201.35,378.29c55,.43,109.87,8,164.89,6.72A77,77,0,0,0,368,404.62c-23.63,13.4-58,37.71-81.62,51.11-.82.47-160.76-33.83-181-36-3.32-6.95-2.74-17.19-4.57-24.55Z"/><path class="cls-3" d="M76.21,141.36c45.39-23,97-17.43,142.78,4.79,1.46.71,2.92,1.44,4.36,2.2,7.3,3.81,14.45,8.24,19.79,14.51,7.38,8.65,10.67,20,13.21,31.08,12,52.32,39.6,109.91,39.13,163.58-29.12,20-171.34,29.44-244.74,29.54-7.1,0-14.43-.11-20.94-2.95-11.19-4.88-17.63-16.75-21.35-28.38C5,344.82,3.13,333.45,1.9,322.06a328.6,328.6,0,0,1,1-78.91c3.09-23.08,9.2-46.91,25-64C38.2,167.9,59.16,150,76.21,141.36Z"/><path class="cls-4" d="M262.12,360.83c4.62,5.05,35.87,2.77,37.38,1.66,13-9.59,13.49-15.85,14.94-31,.82-8.45-.46-16.92-2-25.24A361.52,361.52,0,0,0,297.71,252c-3.94-11-18.23-48.21-19.31-55.65-2.18-15.13-3.65-28.84-7.53-43.68-6.37-24.37-16.79-24.86-19.86-26.57-5-2.81-7.13-8.36-9.72-13.2A55.86,55.86,0,0,0,222,92.32c-2.65-1.69-6.71-3-8.75-.66s.07,5.46,2,7.63c4.13,4.53,12.72,19.22,11.53,20.32a38.32,38.32,0,0,0-12.4,27.74,10.66,10.66,0,0,0,1.58,6.37,5.53,5.53,0,0,0,6.22,2.09c-.42,2.44-.83,5,.06,7.3s3.57,4.21,6.15,3.54A22.56,22.56,0,0,0,234,180.92c2.44,2.84,12.46,13.78,14.31,17,1.43,2.45,3.21,38.87,3.69,58.89.39,16.33-1.43,32.69-1,49S262.12,360.83,262.12,360.83Z"/><path class="cls-5" d="M226,120.88c7.21-3.2,14.89,1.1,21,4.65a1,1,0,0,0,1-1.69c-6.89-4-15-8.2-23-4.65-1.14.51-.15,2.2,1,1.69Z"/><path class="cls-5" d="M222.69,156.48a40.29,40.29,0,0,1,14.76-28.25c1-.79-.41-2.17-1.38-1.38a41.9,41.9,0,0,0-15.34,29.63c-.08,1.26,1.87,1.25,2,0Z"/><path class="cls-5" d="M229.52,167.15a64.35,64.35,0,0,1,10.22-24.23,66.76,66.76,0,0,1,4.94-6.07c.84-.93-.54-2.32-1.39-1.38a63.11,63.11,0,0,0-13.61,23.33c-.82,2.57-1.49,5.19-2.05,7.83-.26,1.23,1.62,1.75,1.89.52Z"/><path class="cls-5" d="M227.47,167.8c3.18,2.42,7.54,2,10.92.24,3.94-2.08,6.23-6,7.53-10.17a57.54,57.54,0,0,0,1.71-7.68c.21-1.24-1.67-1.76-1.89-.52-.87,5-1.78,10.73-5.46,14.54-3,3.06-8.15,4.69-11.82,1.9-1-.77-2,.93-1,1.69Z"/><path class="cls-5" d="M242.76,151.55l1.48,3.72a1,1,0,0,0,.45.58.94.94,0,0,0,.75.1,1,1,0,0,0,.69-1.2L244.65,151a1.06,1.06,0,0,0-.45-.59,1,1,0,0,0-.75-.1,1,1,0,0,0-.69,1.21Z"/><path class="cls-5" d="M244.75,155.83c-.87,10-.8,21.26,6.78,28.82a17.74,17.74,0,0,0,6.21,4c1.17.46,1.68-1.44.52-1.89-8.78-3.37-11.8-13.5-12-22.05a85.76,85.76,0,0,1,.41-8.92c.11-1.25-1.85-1.24-2,0Z"/><path class="cls-4" d="M215.44,104.75A260.16,260.16,0,0,1,187,171.88c-2.63,4.38-5.75,9-10.58,10.65-6,2.09-12.53-1-17.83-4.58-7.64-5.11-12.42-6.43-18.39-13.42-4.84,6.48-7.43,9.69-10.39,13.45-4,5.11-13.87.4-18.08-4.55-7-8.2-13-15.39-15.43-27.33a12.09,12.09,0,0,1-.23-5.6,11.88,11.88,0,0,1,3.24-4.69l20.48-21.31c-7.76-3.93-10.2-15.53-4.69-22.25s17.37-6.58,22.73.26a306.55,306.55,0,0,1,20-33.69l55.71,20.27c1.64.59,3.39,1.28,4.34,2.74,1.1,1.69.8,3.9.46,5.89q-1.8,10.45-3.58,20.9Z"/><path class="cls-6" d="M116.4,117.51a356.84,356.84,0,0,1,59.54-32.07c4.38-1.85,8.95-3.64,13.7-3.5,7.54.21,14.29,5.41,18.09,11.92s5.27,12.51,5.8,20c5.24-16.64,9.07-32.4,7.14-49.73S210,29.48,194.76,21C174.38,9.54,147.13,17.13,131,34s-22.8,40.88-24.36,64.19c-.48,7.25,6.72,22.69,7.14,22.78Z"/><path class="cls-5" d="M181.36,114.05a33.2,33.2,0,0,1,6.09,15.28,33.74,33.74,0,0,1,0,8.28,30.25,30.25,0,0,1-.79,4.14c-.27,1-.56,2.58-1.68,3.05a4.63,4.63,0,0,1-2.31,0l-2.87-.42-5.73-.84c-1.24-.18-1.77,1.7-.53,1.89l5.74.84a25.26,25.26,0,0,0,5,.59c3.36-.2,4.14-3.56,4.7-6.3a35.47,35.47,0,0,0-1.13-18.22,34.5,34.5,0,0,0-4.79-9.33c-.74-1-2.44,0-1.7,1Z"/><polygon class="cls-7" points="140.29 166.13 118.68 134.73 130.6 176.9 140.29 166.13"/><path d="M164.72,122.48c-1.22,2.73-3.77,4.25-5.71,3.38s-2.53-3.78-1.31-6.51,3.77-4.25,5.71-3.39S165.94,119.74,164.72,122.48Z"/><path d="M203.19,138.45c-1.22,2.73-3.78,4.25-5.72,3.39s-2.52-3.78-1.31-6.52,3.78-4.25,5.72-3.38S204.4,135.71,203.19,138.45Z"/><path class="cls-8" d="M171.59,108.57a2.54,2.54,0,0,1,.1,4.44,5.62,5.62,0,0,1-2.45.76,82,82,0,0,1-11.3,0,2.31,2.31,0,0,1-1-4.32,19.27,19.27,0,0,1,12.23-2.1Z"/><path class="cls-8" d="M198.11,114.35a2.54,2.54,0,0,0-3,3.28,5.65,5.65,0,0,0,1.34,2.18,83.34,83.34,0,0,0,8.53,7.42,2.31,2.31,0,0,0,3.59-2.61,19.26,19.26,0,0,0-7.84-9.63Z"/><path d="M187.19,158.14c-2.16-1-3.46-3.31-4.45-5.5s-1.87-4.54-3.63-6.18-4.33-2.21-6.15-1c-.43-2.13-2.81-3.57-5.05-3.64-2.4-.09-4.69.95-6.94,1.79s-4.77,1.52-7,.73c-2.63-.92-4.3-3.66-4.71-6.41a9.14,9.14,0,0,0,11.44,11.63c2.66-.84,5-2.91,7.81-2.76,1.25.07,2.79.47,3.87.15.55,1,1.91,1.81,2.85,2.64,2.07,1.86,2.28,5,3.55,7.48a9.15,9.15,0,0,0,16.32-.11C192.81,158.6,189.7,159.36,187.19,158.14Z"/><path class="cls-9" d="M165.87,90c7.58-4.06,15.3-8.21,21.48-14.31s10.21-14,16.52-19.93a24.44,24.44,0,0,1,11.64-6.54c1.24-.25.71-2.14-.52-1.88-8.28,1.71-14.25,8.24-19.14,14.7-2.71,3.58-5.25,7.29-8.29,10.61A52.9,52.9,0,0,1,177.61,81c-4.09,2.71-8.41,5-12.73,7.34-1.12.59-.13,2.28,1,1.69Z"/><path class="cls-9" d="M194.09,66.05c-.57,6.06,3,11.48,5.9,16.47l10.09,17.14a1,1,0,0,0,1.7-1L202,82.09c-2.86-4.86-6.51-10.12-6-16,.11-1.25-1.85-1.24-2,0Z"/><path class="cls-9" d="M196.31,63q3.36,7.26,6.71,14.53c.53,1.14,2.22.15,1.69-1L198,62c-.53-1.14-2.22-.15-1.7,1Z"/><path class="cls-9" d="M198.44,59.08a44.13,44.13,0,0,0,5.9,12.39c.7,1,2.4.06,1.69-1a42.69,42.69,0,0,1-5.7-11.93,1,1,0,0,0-1.89.52Z"/><path class="cls-9" d="M201.3,56.19l6.78,10.9c.67,1.07,2.36.09,1.69-1L203,55.2c-.66-1.07-2.36-.09-1.69,1Z"/><path class="cls-9" d="M205.3,53.69A36.33,36.33,0,0,1,212.37,63c.59,1.12,2.29.13,1.69-1a38.4,38.4,0,0,0-7.37-9.72c-.91-.87-2.3.52-1.39,1.39Z"/><path class="cls-9" d="M202.52,53.42a76.43,76.43,0,0,0-25.58,10.06c-1.07.66-.09,2.36,1,1.69A74.83,74.83,0,0,1,203,55.31c1.23-.24.71-2.13-.52-1.89Z"/><path class="cls-9" d="M198.44,55.6A160.21,160.21,0,0,0,175,69.29c-1,.72,0,2.42,1,1.69a162,162,0,0,1,23.45-13.69c1.14-.54.14-2.23-1-1.69Z"/><path class="cls-9" d="M206.21,49.81a66.12,66.12,0,0,0-17.36,2.42,84.58,84.58,0,0,0-14.3,5.66c-9,4.42-17.59,9.86-27,13.42a49.25,49.25,0,0,1-16.06,3.42,1,1,0,0,0,0,2c9.95-.27,19.2-4.16,27.92-8.64,9-4.61,17.69-10,27.34-13.13a64.15,64.15,0,0,1,19.48-3.15,1,1,0,0,0,0-2Z"/><path class="cls-9" d="M169.43,73a126.08,126.08,0,0,1-27.8,13.76q-4.15,1.44-8.4,2.59a1,1,0,0,0,.52,1.89,128,128,0,0,0,29-11.9q3.9-2.19,7.63-4.65c1.05-.69.07-2.39-1-1.69Z"/><path class="cls-9" d="M170.4,76.28a121.66,121.66,0,0,1-19.3,12.16c-1.13.57-.14,2.26,1,1.69A121.66,121.66,0,0,0,171.39,78a1,1,0,0,0,.35-1.34,1,1,0,0,0-1.34-.35Z"/><path class="cls-9" d="M189.4,45.19A308.73,308.73,0,0,1,147.8,65c-1.92.75-3.85,1.53-5.81,2.16s-4,1-6,.23c-1.16-.49-1.67,1.41-.52,1.89,3.58,1.48,7.52-.35,10.87-1.62q5.46-2.07,10.83-4.34,10.88-4.57,21.37-10,6-3.09,11.87-6.44a1,1,0,0,0-1-1.69Z"/><path class="cls-9" d="M178.62,39.89a82.59,82.59,0,0,1-28,8.82c-1.23.15-1.25,2.11,0,2a85.59,85.59,0,0,0,29-9.08c1.12-.59.13-2.28-1-1.7Z"/><path class="cls-9" d="M198.64,34.29a77.79,77.79,0,0,0-34.32-3,1,1,0,0,0-.68,1.21,1,1,0,0,0,1.2.68,75.67,75.67,0,0,1,33.28,3c1.2.39,1.71-1.5.52-1.89Z"/><path class="cls-9" d="M190.38,36.81A50.82,50.82,0,0,0,177.52,35a1,1,0,0,0,0,2,48.52,48.52,0,0,1,12.34,1.71,1,1,0,0,0,.52-1.89Z"/><path class="cls-9" d="M123,93.6l-5.25,6.2a1,1,0,0,0,1.39,1.39L124.42,95a1,1,0,0,0,0-1.38,1,1,0,0,0-1.38,0Z"/><path class="cls-9" d="M126.34,96.69a81.46,81.46,0,0,0-8.49,9.51,1,1,0,1,0,1.69,1,78.65,78.65,0,0,1,8.19-9.12c.91-.87-.47-2.25-1.39-1.38Z"/><path class="cls-5" d="M165.88,150.76a28.85,28.85,0,0,0,9,2.22,1,1,0,0,0,0-2,26.11,26.11,0,0,1-8-2,1,1,0,0,0-1.34.35,1,1,0,0,0,.35,1.34Z"/><path class="cls-10" d="M144.81,373.55c-14.53,8.55-29.27,17.19-45.5,21.75q91.38,17.52,181.76,39.82c2.64.66,5.42,1.31,8.06.64a16.91,16.91,0,0,0,5.88-3.4,592.83,592.83,0,0,1,70.9-47c-42.76-14.84-102.6-20-144.26-37.69Z"/><path class="cls-6" d="M243.27,388a416.78,416.78,0,0,1-58.76-67.93c-1.71-2.47-2.92-6.67-.08-7.78,1.69-.67,3.48.56,4.84,1.74C198,321.58,237.82,369.84,243.27,388Z"/><path class="cls-4" d="M24.27,348.28a28.77,28.77,0,0,0-2,20.19c1,3.46,2.51,6.74,5.17,9,3.26,2.73,7.72,3.52,12,4.13,23,3.28,73.83,10.5,97.06,8.84a130.07,130.07,0,0,1,15.53-.6c7.22.35,14.34,2.15,21.57,1.89a76.83,76.83,0,0,0,14.93-2.55l11.28-2.69c2.29-.55,4.77-1.22,6.21-3.07s.9-5.24-1.42-5.62c3.67.6,6.86-4.33,4.75-7.34,2.51-.1,5.18-.25,7.27-1.65s2.56-7.67.94-9.56c4.42-.67,9.45,1.5,13.76.27,1.06-.31,2.25-.74,2.68-1.75a3.14,3.14,0,0,0-.18-2.36c-2.15-5.36-8.39-7.67-14-9.39l-23.58-7.31c-9.07-2.81-19.5-5.49-27.7-.58-6.47,3.87-10.72,12.06-18.22,12.67-2.73.22-5.4-.67-8-1.54L100.44,335C90.08,331.45,51,321.59,41,326.32,34.23,329.54,27.78,341.06,24.27,348.28Z"/><path class="cls-5" d="M192.35,351c8.51,2.56,16.46,6.61,25,9.17a1,1,0,0,0,.52-1.89c-8.5-2.56-16.45-6.61-25-9.17a1,1,0,0,0-.52,1.89Z"/><path class="cls-5" d="M191.72,364.21a104.88,104.88,0,0,0,18.35,6.13c1.23.29,1.75-1.6.52-1.88a102.55,102.55,0,0,1-17.89-5.94c-1.14-.5-2.14,1.18-1,1.69Z"/><path class="cls-5" d="M189.11,374.48l16,3.63c1.22.28,1.75-1.61.52-1.89l-16-3.63c-1.23-.28-1.76,1.61-.52,1.89Z"/><path class="cls-5" d="M192.55,346a156.79,156.79,0,0,1-8.41,35.49c-.43,1.19,1.46,1.7,1.89.53a158.68,158.68,0,0,0,8.48-36c.15-1.24-1.81-1.23-2,0Z"/><path class="cls-5" d="M151.61,353.62a63.6,63.6,0,0,1-2.27,12.92,1,1,0,0,0,1.89.52,66.49,66.49,0,0,0,2.34-13.44c.09-1.25-1.87-1.25-2,0Z"/><path class="cls-11" d="M85,140.38a71.84,71.84,0,0,0,15.64,42.79,68.89,68.89,0,0,0,8,8.47,40,40,0,0,0,9.7,6.6,20.09,20.09,0,0,0,11.29,2,14.45,14.45,0,0,0,8.58-4.63c4.9-5.45,5.89-13.6,4.69-20.57-.21-1.24-2.1-.72-1.89.52,1,5.83.28,12.48-3.19,17.42a12.79,12.79,0,0,1-7.21,5.07,16.63,16.63,0,0,1-10.53-1.16c-6.78-2.83-12.43-8.32-17.07-13.89a69.57,69.57,0,0,1-11.1-18.64,68.75,68.75,0,0,1-5-24,1,1,0,0,0-2,0Z"/><path class="cls-11" d="M122.77,185.32a19.16,19.16,0,0,1,3.63,11,1,1,0,0,0,2,0,21,21,0,0,0-3.9-12,1,1,0,0,0-1.34-.35,1,1,0,0,0-.35,1.34Z"/><path class="cls-11" d="M129.88,182.89l4.81,9.26c.58,1.12,2.27.13,1.69-1l-4.81-9.26c-.58-1.11-2.27-.12-1.69,1Z"/><path class="cls-11" d="M135.13,180.64a23,23,0,0,1,6.31,7,1,1,0,0,0,1.69-1,25.54,25.54,0,0,0-7-7.7,1,1,0,0,0-1.34.36,1,1,0,0,0,.35,1.34Z"/><path class="cls-11" d="M117.1,180.7q-2.34,5.25-4.67,10.5a1,1,0,0,0,.35,1.34,1,1,0,0,0,1.34-.35l4.67-10.5a1,1,0,0,0-.35-1.34,1,1,0,0,0-1.34.35Z"/><path class="cls-11" d="M110.24,173.79,105.67,182c-.61,1.1,1.08,2.09,1.7,1q2.28-4.11,4.57-8.22a1,1,0,0,0-1.7-1Z"/><path class="cls-11" d="M103.35,169l-5.83,4.65a1,1,0,0,0,0,1.39,1,1,0,0,0,1.38,0l5.84-4.66a1,1,0,0,0,0-1.38,1,1,0,0,0-1.39,0Z"/><path class="cls-11" d="M96.14,160.58l-4.77,5.74a1,1,0,0,0,0,1.39,1,1,0,0,0,1.39,0c1.59-1.92,3.18-3.83,4.76-5.75a1,1,0,0,0-1.38-1.38Z"/><path class="cls-11" d="M94.94,153.23A5.54,5.54,0,0,0,89.43,155a1,1,0,0,0,0,1.39,1,1,0,0,0,1.39,0,3.44,3.44,0,0,1,.41-.44,1.24,1.24,0,0,0,.21-.18l-.07.05a5.06,5.06,0,0,1,.69-.42c.26-.12.2-.06.11-.06a1,1,0,0,0,.28-.1,5.12,5.12,0,0,1,.56-.15l.16,0c.13,0-.19,0-.06,0l.3,0a3.72,3.72,0,0,1,.58,0s.13,0,.16,0-.2,0-.06,0l.33.07a1,1,0,0,0,1.21-.68,1,1,0,0,0-.69-1.21Z"/><path class="cls-11" d="M90.75,145.76a2.34,2.34,0,0,0-2-1,2.31,2.31,0,0,0-2,1,1,1,0,0,0,.35,1.34,1,1,0,0,0,1.34-.36l-.09.12a1,1,0,0,1,.2-.2l-.2.15a1.56,1.56,0,0,1,.28-.16l-.23.1a1.4,1.4,0,0,1,.35-.1l-.26,0a1.41,1.41,0,0,1,.41,0l-.26,0a1.56,1.56,0,0,1,.37.1l-.23-.1a1.31,1.31,0,0,1,.28.17l-.19-.16a1.8,1.8,0,0,1,.19.2l-.15-.2a1.19,1.19,0,0,0,.64.54,1,1,0,0,0,.76-.1,1,1,0,0,0,.45-.58,1,1,0,0,0-.1-.76Z"/><path class="cls-11" d="M10.52,347.12a72.28,72.28,0,0,1,8.19-15.47,61.27,61.27,0,0,1,12-13.14A25.87,25.87,0,0,1,46.74,313,37,37,0,0,1,63.6,317.3,75,75,0,0,1,79.75,329c.93.85,2.32-.53,1.39-1.38-9.06-8.26-19.71-15.79-32.35-16.53a28.28,28.28,0,0,0-17.13,4.28c-5.11,3.35-9.35,8.16-13,13a74.19,74.19,0,0,0-10,18.19c-.45,1.17,1.44,1.68,1.89.52Z"/><path class="cls-11" d="M14,337.94a8.56,8.56,0,0,1,3.67,1.64A10.21,10.21,0,0,1,19.12,341l.16.19c-.09-.11.09.13.09.13l.28.41a9.2,9.2,0,0,1,.54,1,1,1,0,1,0,1.69-1,10.63,10.63,0,0,0-7.37-5.66,1,1,0,0,0-1.2.68,1,1,0,0,0,.68,1.21Z"/><path class="cls-11" d="M22.57,328.69l3.51,5.82a1,1,0,1,0,1.69-1l-3.51-5.82a1,1,0,1,0-1.69,1Z"/><path class="cls-11" d="M32,320.2l2.29,7a1,1,0,0,0,1.21.69,1,1,0,0,0,.68-1.21c-.76-2.34-1.52-4.67-2.29-7a1,1,0,0,0-1.89.52Z"/><path class="cls-11" d="M40.15,315.54l2.31,7a1,1,0,0,0,1.21.68,1,1,0,0,0,.68-1.2L42,315a1,1,0,0,0-1.89.52Z"/><path class="cls-11" d="M49.87,317.25c.15.1.11.06.07,0a1,1,0,0,1,.21.19c.07.06.12.14.19.2-.2-.2-.09-.11,0,0l.09.13c0,.08.09.17.13.25s.09.2,0,0,0,0,0,0a3.39,3.39,0,0,1,.14.57,2.34,2.34,0,0,1,0-.26,3.14,3.14,0,0,1,0,.75c0-.09,0-.18,0-.27a2.46,2.46,0,0,1-.09.39,1.27,1.27,0,0,1-.06.18c0,.1.1-.2.05-.11a1,1,0,0,0,.3,1.45,1,1,0,0,0,1.34-.35,3.77,3.77,0,0,0-1.37-4.87,1,1,0,0,0-1.34.35,1,1,0,0,0,.35,1.34Z"/><path class="cls-11" d="M57.5,317.65V320a1,1,0,0,0,.29.69.94.94,0,0,0,.69.28,1,1,0,0,0,1-1v-2.34a1,1,0,0,0-2,0Z"/><path class="cls-11" d="M116.8,308.37A231.33,231.33,0,0,1,148.89,283a233.92,233.92,0,0,1,36-19.31,230.12,230.12,0,0,1,21.61-8c1.2-.37.69-2.26-.52-1.88a233.59,233.59,0,0,0-72.9,38Q123.89,299,115.42,307c-.92.87.47,2.25,1.38,1.39Z"/><path class="cls-11" d="M138.18,306.37a180.18,180.18,0,0,1,41.69-29.27q6.44-3.27,13.11-6c1.15-.47.65-2.37-.52-1.89a182.61,182.61,0,0,0-44.58,26.18Q142.15,300,136.79,305c-.92.86.47,2.24,1.39,1.38Z"/><path class="cls-11" d="M50.7,170.82a260.12,260.12,0,0,1,9.84,28.6c2.75,9.75,5,19.64,6.83,29.6s3.3,20,4.49,30.09,2.1,20.24,2.88,30.38,1.41,20.37,2,30.57c.07,1.24.15,2.49.22,3.73s2,1.27,2,0c-.61-10.18-1.22-20.37-2-30.55s-1.63-20.39-2.76-30.55S71.73,242.5,70,232.47s-3.87-19.9-6.49-29.7a266.64,266.64,0,0,0-9.44-28.87c-.48-1.2-1-2.4-1.46-3.6s-2.37-.65-1.89.52Z"/><path class="cls-11" d="M19.55,314.87C29,305.29,43.1,303,56.05,304a80.53,80.53,0,0,1,11.13,1.65,1,1,0,0,0,1.21-.69c.61-2.52-1.44-4.17-3.56-5a13.91,13.91,0,0,0-3.73-.77c-1.82-.2-3.64-.37-5.46-.52q-10.85-.9-21.75-.86-6.13,0-12.25.36c.08.64.17,1.28.26,1.93a166.48,166.48,0,0,1,33.7-7.16c-.09-.64-.17-1.28-.26-1.92A59.7,59.7,0,0,1,25,289.77v1.89a56.3,56.3,0,0,1,27.39-3.16,1,1,0,0,0,1.2-.68,1,1,0,0,0-.68-1.21,58.2,58.2,0,0,0-28.43,3.16,1,1,0,0,0,0,1.89,61.74,61.74,0,0,0,31.41,1.2c1.06-.24.85-2-.26-1.93a169.48,169.48,0,0,0-34.22,7.23c-1,.32-.89,2,.26,1.92a245.53,245.53,0,0,1,39.94,1.07c1.53.16,5.47,1,4.92,3.24l1.2-.68c-13.21-2.86-28.07-3.21-40.39,3.1a35.36,35.36,0,0,0-9.14,6.68,1,1,0,0,0,1.38,1.38Z"/><path class="cls-11" d="M225.21,202.05a215.37,215.37,0,0,1,6.23,52.87,416.59,416.59,0,0,1-3.83,53.63c-1.27,10-2.75,20-4.26,30-.19,1.24,1.7,1.77,1.89.52,2.72-17.95,5.34-35.94,6.85-54,1.5-17.87,1.92-35.89.16-53.76a198.88,198.88,0,0,0-5.15-29.69,1,1,0,0,0-1.89.52Z"/><path class="cls-11" d="M89.1,249.09c.42,2.72.85,5.43,1.27,8.15a1,1,0,0,0,1.89-.52c-.42-2.72-.85-5.43-1.27-8.15a1,1,0,0,0-1.89.52Z"/><path class="cls-11" d="M98.32,253.51v1.17a1,1,0,0,0,.28.69,1.18,1.18,0,0,0,.7.29,1,1,0,0,0,1-1v-1.17a1,1,0,0,0-.29-.69.6.6,0,0,0-.32-.2.68.68,0,0,0-.37-.09,1,1,0,0,0-.7.29,1,1,0,0,0-.28.69Z"/><path class="cls-11" d="M106.48,253.51V257a1,1,0,1,0,2,0v-3.5a1,1,0,0,0-2,0Z"/><path class="cls-11" d="M98.43,222.26c.41,1.55.83,3.1,1.24,4.65a1,1,0,0,0,1.89-.52c-.41-1.55-.83-3.1-1.24-4.65a1,1,0,0,0-1.2-.68,1,1,0,0,0-.69,1.2Z"/><path class="cls-11" d="M112.44,223a7.85,7.85,0,0,0,1.1,6.62,1,1,0,0,0,1.34.35,1,1,0,0,0,.35-1.34c-.15-.21-.28-.42-.41-.64s-.12-.22-.17-.33-.16-.37-.09-.2a6.5,6.5,0,0,1-.39-1.37.57.57,0,0,1,0-.18c0,.1,0,.09,0,0l0-.38q0-.33,0-.66c0-.13,0-.25,0-.38s0-.13,0,0a1.23,1.23,0,0,1,0-.19c0-.25.11-.49.18-.73a1,1,0,0,0-1.89-.53Z"/><path class="cls-11" d="M26,224.36a14.43,14.43,0,0,1-1,7.65,1,1,0,0,0,.35,1.34,1,1,0,0,0,1.34-.36,16.1,16.1,0,0,0,1.31-8.63,1,1,0,0,0-1-1,1,1,0,0,0-1,1Z"/><path class="cls-11" d="M31.84,229v3.5a1,1,0,1,0,2,0V229a1,1,0,1,0-2,0Z"/><path class="cls-11" d="M38.84,232.52V236a1,1,0,0,0,2,0v-3.5a1,1,0,1,0-2,0Z"/><path class="cls-11" d="M38.84,195.2v8.16a1,1,0,0,0,2,0V195.2a1,1,0,0,0-2,0Z"/><path class="cls-11" d="M28.3,261.39c-.41,1.55-.83,3.1-1.24,4.65a1,1,0,0,0,1.89.52c.41-1.55.82-3.1,1.24-4.65a1,1,0,0,0-1.89-.52Z"/><path class="cls-11" d="M35.34,260.51V264a1,1,0,0,0,2,0v-3.5a1,1,0,1,0-2,0Z"/><path class="cls-11" d="M43.5,261.67v1.17a1,1,0,0,0,.29.69.6.6,0,0,0,.32.2.68.68,0,0,0,.37.09,1,1,0,0,0,.7-.29,1,1,0,0,0,.28-.69v-1.17a1,1,0,0,0-.28-.69,1.18,1.18,0,0,0-.7-.29,1,1,0,0,0-1,1Z"/><path class="cls-11" d="M202.11,199.86v7a1,1,0,1,0,2,0v-7a1,1,0,0,0-2,0Z"/><path class="cls-11" d="M207.94,199.86v4.67a1,1,0,0,0,2,0v-4.67a1,1,0,0,0-2,0Z"/><path class="cls-11" d="M209.11,181.2v7a1,1,0,1,0,2,0v-7a1,1,0,1,0-2,0Z"/><path class="cls-11" d="M191.69,207.77q-.58,2.92-1.18,5.83a1,1,0,0,0,.69,1.21,1,1,0,0,0,1.2-.69c.39-1.94.79-3.88,1.18-5.82a1,1,0,0,0-1.89-.53Z"/><path class="cls-11" d="M203.28,223.19v3.5a1,1,0,0,0,2,0v-3.5a1,1,0,1,0-2,0Z"/><path class="cls-12" d="M126.47,341.38c-6.71,5.5-10.27,14.12-11.28,22.73s.07,18.56,1.58,27.1c5,.4,10.26-.45,15.28,0a85.23,85.23,0,0,1,8.63-44.93c-4.59-2.66-9.1-3.24-14.21-4.69Z"/><path class="cls-6" d="M140,368.53a16.27,16.27,0,1,1-16.27-16.27A16.26,16.26,0,0,1,140,368.53Z"/><path class="cls-13" d="M133.83,368.53a10.14,10.14,0,1,1-10.14-10.13A10.14,10.14,0,0,1,133.83,368.53Z"/><path d="M122.29,364.06v5.72a1,1,0,0,0,1,1h6.06a1,1,0,0,0,0-2h-6.06l1,1v-5.72a1,1,0,0,0-1-1,1,1,0,0,0-1,1Z"/><g class="cls-14"><path d="M237,385a7.62,7.62,0,0,1,8.48-5.16q2.67,5.66,5.35,11.3A74.24,74.24,0,0,0,234,396Z"/></g><path class="cls-2" d="M322.75,388.61c-5.83,5.21-13.3,8.1-19.57,12.71s-11.48,9.92-17.34,14.75a62.44,62.44,0,0,1-10.5,7.17c-1.12.59-.13,2.28,1,1.69,6.76-3.56,12.45-8.71,18.11-13.77,2.89-2.58,5.78-5.16,8.87-7.5a87.86,87.86,0,0,1,9.74-6.23A63.14,63.14,0,0,0,324.13,390c.94-.84-.45-2.22-1.38-1.38Z"/><path class="cls-2" d="M287.54,398.31l-9.31,7.31a1,1,0,0,0,0,1.39,1,1,0,0,0,1.38,0l9.31-7.32a1,1,0,0,0,0-1.38,1,1,0,0,0-1.38,0Z"/><path class="cls-2" d="M261.78,418l-3.2,2.33a1,1,0,1,0,1,1.69l3.21-2.33a1.06,1.06,0,0,0,.45-.59.94.94,0,0,0-.1-.75,1,1,0,0,0-1.34-.35Z"/><path class="cls-2" d="M289.07,375.66,274,388c-1,.8.42,2.18,1.39,1.38L290.45,377c1-.8-.42-2.18-1.38-1.38Z"/><path class="cls-2" d="M256.53,403.39a32.48,32.48,0,0,0-6,4.52,1,1,0,0,0,1.39,1.39c.43-.41.87-.81,1.32-1.19l.68-.56.21-.17.42-.32a30,30,0,0,1,3-2,1,1,0,0,0,.35-1.34,1,1,0,0,0-1.34-.35Z"/><path class="cls-2" d="M236.65,404c7.28-5.92,15.35-10.76,23.38-15.58a1,1,0,0,0-1-1.69c-8.18,4.91-16.36,9.86-23.78,15.89-1,.79.42,2.17,1.39,1.38Z"/><path class="cls-2" d="M260.42,387.86c4.59-4.31,7.65-10.36,13.26-13.52a1,1,0,0,0-1-1.69c-5.79,3.26-8.93,9.38-13.65,13.82-.92.87.47,2.25,1.38,1.39Z"/><path class="cls-2" d="M213.92,407.42l0-.05.14-.18c.1-.12.19-.24.29-.35l.56-.66c.38-.44.79-.86,1.21-1.27s.83-.79,1.27-1.16c.23-.2.46-.39.7-.57l.14-.12,0,0,.4-.29a1,1,0,0,0,.36-1.34,1,1,0,0,0-1.34-.35,26.56,26.56,0,0,0-5.51,5.39,1,1,0,0,0,.35,1.34,1,1,0,0,0,1.34-.35Z"/><path class="cls-2" d="M229,396c.16-.31.33-.6.51-.89l.29-.43.15-.19c.1-.14-.12.14,0,0a10.32,10.32,0,0,1,1.53-1.56,1,1,0,0,0,0-1.38,1,1,0,0,0-.69-.29,1.08,1.08,0,0,0-.7.29,10.7,10.7,0,0,0-2.74,3.42,1,1,0,0,0,.35,1.34A1,1,0,0,0,229,396Z"/><path class="cls-2" d="M249,379.87l1.75-1.46a1,1,0,0,0-.7-1.67l-.26,0a1,1,0,0,0-.43.26l-1.75,1.45a1,1,0,0,0-.28.7,1,1,0,0,0,.28.69,1,1,0,0,0,.7.29l.26,0a1,1,0,0,0,.43-.25Z"/><path class="cls-2" d="M255,375a35.23,35.23,0,0,1,6.25-7.1,1,1,0,0,0-1.38-1.38,36.93,36.93,0,0,0-6.56,7.5,1,1,0,1,0,1.69,1Z"/><path class="cls-2" d="M226.29,379l-11.58,9.72a1,1,0,0,0,1.39,1.39l11.57-9.73a1,1,0,0,0,0-1.38,1,1,0,0,0-1.38,0Z"/><path class="cls-2" d="M200.57,399.93l-.58.29a.76.76,0,0,0-.28.25.84.84,0,0,0-.17.34.74.74,0,0,0,0,.39.67.67,0,0,0,.12.36l.15.2a1,1,0,0,0,.43.25l.26,0a1,1,0,0,0,.5-.14l.58-.29a.81.81,0,0,0,.27-.25A.75.75,0,0,0,202,401a.86.86,0,0,0,0-.39.77.77,0,0,0-.12-.36l-.15-.2a1.07,1.07,0,0,0-.44-.25l-.26,0a1,1,0,0,0-.49.13Z"/><path class="cls-2" d="M241.7,367.92l4.11-3.46a1,1,0,0,0,0-1.39,1,1,0,0,0-1.39,0l-4.11,3.47a1,1,0,0,0,0,1.38,1,1,0,0,0,1.39,0Z"/><path class="cls-2" d="M192.17,393.3l-16.95,11.31c-1,.7-.06,2.39,1,1.69L193.16,395c1-.7.06-2.39-1-1.69Z"/><path class="cls-10" d="M279.23,438.68c-11-.44-21.75-2.8-32.46-5.11s-21.38-4.23-32.15-6S193,424.19,182.26,422c-10.52-2.18-20.82-5.14-31.11-8.24s-20.47-6.16-31-8.06c-1.31-.24-2.63-.46-4-.66s-1.76,1.7-.52,1.89c10.57,1.6,20.87,4.51,31.1,7.57s20.68,6.27,31.25,8.6,21.51,4.09,32.31,5.82,21.73,3.53,32.5,5.83,21.37,4.8,32.28,5.68c1.37.11,2.73.19,4.1.24s1.26-1.9,0-2Z"/><path class="cls-10" d="M108.7,415.29A210.41,210.41,0,0,0,150,426.78q6,1,12,1.69c1.25.14,1.24-1.82,0-2a208.79,208.79,0,0,1-41.48-9.05q-5.7-1.86-11.29-4.06c-1.18-.45-1.69,1.44-.52,1.89Z"/><path class="cls-10" d="M131.46,417.5c16.82,4.11,33.64,8.23,50.58,11.77a510.49,510.49,0,0,0,51,8.29c4.61.49,9.23.79,13.83,1.25,4.26.43,8.56,1.19,12.34,3.31a1,1,0,0,0,1-1.69c-6.88-3.87-15.23-3.68-22.87-4.4-8.68-.82-17.32-1.95-25.92-3.31-17.09-2.7-34-6.31-50.87-10.24-9.52-2.23-19-4.55-28.5-6.87-1.22-.3-1.74,1.59-.52,1.89Z"/><path class="cls-10" d="M270.76,445.74a23.67,23.67,0,0,0,5.8.88,1,1,0,0,0,0-2c-.46,0-.92,0-1.37-.08l-.69-.07-.21,0-.32-.05a22.22,22.22,0,0,1-2.69-.59,1,1,0,1,0-.52,1.89Z"/><polygon class="cls-15" points="381.15 460.72 341.6 457.96 204.23 471.04 205.24 479.09 372.29 490.67 381.15 460.72"/><path class="cls-16" d="M374.56,466.77c.13-.26-56.25,5.3-79,7-1,0,76,5,75.9,4.71Z"/><path class="cls-15" d="M367.72,491.43c-2.29-1.17-3.3-4-3.08-6.58s1.45-4.91,2.64-7.19l62.39-166.34a13.42,13.42,0,0,1,1.22-2.46,13.8,13.8,0,0,1,12.4-6.47l116.59,6a9.56,9.56,0,0,1,8.44,13L510.74,471a13.81,13.81,0,0,1-11.69,8.81Z"/><path class="cls-16" d="M371.87,464.3A128.78,128.78,0,0,0,367.2,477c-.68,2.15-1.39,4.29-2,6.46a9.4,9.4,0,0,0-.1,6,4.94,4.94,0,0,0,4.24,3.26c1,0,1-1.47,0-1.51-2-.08-3.14-2.27-3.19-4.07-.08-2.53,1-5.09,1.77-7.47a139.4,139.4,0,0,1,5.24-14.6c.39-.89-.91-1.65-1.3-.77Z"/><path class="cls-17" d="M361,143.26c-4.41,5.84-13.11,10.25-24.92,10.25-18.82,0-30.5-9.21-30.5-21.8,0-23.75,25.83-18.82,25.83-37.37,0-4.42,2.85-6,7.13-6s7.27,1.81,7.27,6.48c0,23.37-15.05,24-15.05,40.24,0,5.32,1.69,8.43,5.19,8.43,10.25,0,.65-21.8,17.91-21.8C366.85,121.72,367.5,134.7,361,143.26ZM326.23,71.49c0-7.26,5.45-11.55,11.94-11.55s12.06,4.29,12.06,11.55-5.57,11.68-12.06,11.68S326.23,78.89,326.23,71.49Z"/><path class="cls-18" d="M515.06,68.67c-15,49.06-65.49,22.44-77.34,61.26-2.71,8.89-9.63,10.31-18.53,7.6-8.62-2.63-13.75-8-10.7-18,14.73-48.25,46.13-40.13,56.42-73.83,3.37-11,1.92-18.85-5.35-21.07-21.3-6.5-15.18,44.86-50.75,34-27.23-8.31-20.43-35.4-1.17-49.27,12.6-9.41,33.64-12.71,57.9-5.3C504.62,16,523,42.53,515.06,68.67Zm-81,111.72c-4.69,15.36-18.64,20.53-32.12,16.41s-22.43-16.27-17.74-31.64c4.61-15.09,18.91-20.45,32.39-16.33S438.71,165.29,434.1,180.39Z"/></g></g></svg>