<svg xmlns="http://www.w3.org/2000/svg" viewBox="0 0 311.77 8.31"><defs><style>.cls-1{fill:#34567e;}</style></defs><g id="Capa_2" data-name="Capa 2"><g id="Capa_1-2" data-name="Capa 1"><path class="cls-1" d="M311.7,2.33c.16-.18.05-.57-.4-.47l-.29.67Z" transform="translate(0 -0.15)"/><path class="cls-1" d="M308.61,1.22c-.52.34-1.11.93-.74,1.52.5-.66.64-.4,1.18-1.17.45-.1.79.18.73.43.15-.18.71.11.93-.31a1.75,1.75,0,0,0-2.11,0C308.42,1.52,308.58,1.34,308.61,1.22Z" transform="translate(0 -0.15)"/><path class="cls-1" d="M264.41,1.58l.29.07A.82.82,0,0,0,264.41,1.58Z" transform="translate(0 -0.15)"/><path class="cls-1" d="M237,1.82c.21,0,.29-.09.3-.15C237.14,1.72,237,1.76,237,1.82Z" transform="translate(0 -0.15)"/><path class="cls-1" d="M232.34,1.18l.28,0C232.51,1.16,232.41,1.13,232.34,1.18Z" transform="translate(0 -0.15)"/><path class="cls-1" d="M264.41,1.58l-.74-.19C263.63,1.6,264.05,1.54,264.41,1.58Z" transform="translate(0 -0.15)"/><path class="cls-1" d="M302.58,3a1,1,0,0,0,.39-.19,2.22,2.22,0,0,1-.37.09Z" transform="translate(0 -0.15)"/><path class="cls-1" d="M276.46.73h.22a2.27,2.27,0,0,0,.18-.28Z" transform="translate(0 -0.15)"/><path class="cls-1" d="M285.71.35c-.21,0-.26.55-.34.79a.65.65,0,0,1,.45-.39A.9.9,0,0,0,285.71.35Z" transform="translate(0 -0.15)"/><path class="cls-1" d="M300.42.84l.26-.08Z" transform="translate(0 -0.15)"/><path class="cls-1" d="M269.83.79a.46.46,0,0,0-.09-.2A.33.33,0,0,0,269.83.79Z" transform="translate(0 -0.15)"/><path class="cls-1" d="M10.79,8s0-.06,0-.1S10.72,8,10.79,8Z" transform="translate(0 -0.15)"/><path class="cls-1" d="M0,5.2l.15,0a1.63,1.63,0,0,0,0-.31Z" transform="translate(0 -0.15)"/><path class="cls-1" d="M223.78.62h0C224,.57,223.91.58,223.78.62Z" transform="translate(0 -0.15)"/><path class="cls-1" d="M145.26,2.11c.9.5-1.44.66-.09,1.21C145,3.1,146.38,2.43,145.26,2.11Z" transform="translate(0 -0.15)"/><path class="cls-1" d="M302.34,3,302,3A1.39,1.39,0,0,0,302.34,3Z" transform="translate(0 -0.15)"/><path class="cls-1" d="M145.17,3.32h0l.14.05Z" transform="translate(0 -0.15)"/><path class="cls-1" d="M204.08,1.28a.66.66,0,0,0,.2.24C204.28,1.47,204.23,1.4,204.08,1.28Z" transform="translate(0 -0.15)"/><path class="cls-1" d="M218.77,1.84l-.36-.07A1.08,1.08,0,0,0,218.77,1.84Z" transform="translate(0 -0.15)"/><path class="cls-1" d="M196.47,2.19a.81.81,0,0,0-.54,0l.08.06A.46.46,0,0,1,196.47,2.19Z" transform="translate(0 -0.15)"/><path class="cls-1" d="M188.53,2.31s.1.07.15.11l.25,0Z" transform="translate(0 -0.15)"/><path class="cls-1" d="M34.91,7.6a1.7,1.7,0,0,1-.37-.5C34.67,7.5,33.5,7.65,34.91,7.6Z" transform="translate(0 -0.15)"/><path class="cls-1" d="M302.57,2.73a.34.34,0,0,1-.23.25l.26,0C302.62,2.85,302.62,2.77,302.57,2.73Z" transform="translate(0 -0.15)"/><path class="cls-1" d="M196.21,6.63,195,6.57A8.18,8.18,0,0,0,196.21,6.63Z" transform="translate(0 -0.15)"/><path class="cls-1" d="M91.86,7.19l-.29.07A.32.32,0,0,0,91.86,7.19Z" transform="translate(0 -0.15)"/><path class="cls-1" d="M191.21,6.7a1.93,1.93,0,0,0-.72-.38.71.71,0,0,0-.15.15Z" transform="translate(0 -0.15)"/><path class="cls-1" d="M34.54,7.09h0Z" transform="translate(0 -0.15)"/><path class="cls-1" d="M26.24,8.46c1.2,0,.56-.72.81-1.15,1.44-.21.67.54,1.16.92.89-.2,1.58-.88,2.25-.85.05.12.18.16,0,.31.94-.59,2.81,0,3.91-.78a.49.49,0,0,1,.14.18,1.75,1.75,0,0,1-.17-1c.54,0,1-.47,1.2,0-.33,0-.36.18-.51.34l.56-.22c.51.7-.77.25-.77.76,1.1-.23,2.38-.81,3.23-.62.18.68-2,.24-.84.84l-1.31-.25c1,1.06-.79-.08.13,1.07,1.72.18,1.92-.36,3.63-.17.39-.38-.13-.56.26-.94,2.43-.69,1.92,1.7,3.71.79.46-.46.63-1.32,1.91-.87l-.43.77c1.66.07.94-1.11,2.69-.6-.31.31-1.31.26-1.06.35,1.13.6.8-.44,1.67-.44l.18.68c1.77-.12,3.72-.62,5.68-.75-.11.2-.45.42,0,.62A26.58,26.58,0,0,1,62,7.89l.91-.59c.21,0,.39.26.17.38.93.22,0-.37.49-.61.53,0,.7.34.36.52,1.64-.51,4.67-1.1,6.4-.49L70,7.28c1.34.23,1.51-1.21,2.76-.67l-.24.1c2.92.24,6.15-.32,8.38.55.42-.85,2.9.36,3.08-.82,1.67.57,1.19.79,3.54,1.16.63.05.93-.74,1.71-.87l0,.62,1-.66.56.74.73-.17c-.29,0-.62-.27-.57-.45,1.13-.28,2.77.41,2.8.73L96.48,7c0,.25-.5.34-.86.5,1.43-.64.27.64,1.58.06-.18-.14.09-.37.12-.49a6.53,6.53,0,0,0,3.25.19l-.21.42c2,.1,4.21-.23,6.44-.24-.8-.2-.62-.93,0-1l.27.65c.42-.41-.69-.24.18-.74.84.07.57.74.09,1l1-.23c.07.19-.17.3-.23.54.41-.4,1.76.64,2.35-.06l.06.19c2.24,0,3.25-.25,5.08-.29,0-.57.74-.45,1.28-.91a25.57,25.57,0,0,0,4.44.54c1.14-.29.33-.48.84-.82.09.51,1.7.45.86.83A30.11,30.11,0,0,0,128,6.51c-.27-.21-.57-.3-.41-.47.44-.09,1,.2,1,.45l-.12,0c2.75-.79,6.36,1.44,8.54.35l-.12.05,2.26-.58c1,.08-.62.39.16.7,2.44-.87,3.87.09,5.88-.5,1.58,1.5,5.54-.17,7.66.77L152.65,7c.54-.36.66.2,1.06.27-.06-.27-.59-.31-.25-.51,4.6-.48,9.52.41,14.26.68,1.73.08,1-1.85,3.15-1l-.61.67c3.48-.83,7.14-.07,10.55-.78-.2.15-.21.35-.54.35.73.47,2.67,0,2.68-.4.53,0,.12.35.45.54.73.28,1.81-.63,2.2-.16.07.08-.2.16-.33.2.47-.24,2.2,0,1.74-.52,1.29.24,2.45-.28,3.48,0,.66-.63,2.2.27,2.4-.61-.08.91,2.26.7,3.06.26-.26.28.71.28.4.66.93,0,1.77-.2,1.6-.67,1.72,1.06,3.42-.92,4.4.45,2.74-.53,5.28-.9,7.75-1.15-.08.9-2.73.13-2.61,1.08,2.34-.41,3.68-1.21,6-1,.6.11-.34.4-.54.55,2.34-.4,4.54,0,6.61-.51,0,.08-.22.18-.44.25.42,0,1,.12.91-.29l-.4.12c-.67-.59,1.61-1.27,1.68-1.59-.68,1.19,2.06.26,1,1.76.27-.08.61-.28.54-.55.4.07.53.23.13.55,1.47-.25.94-.68,2.27-.69,0,.2-.26.28-.4.52a3.4,3.4,0,0,1,2.47-.66c-.06.12.07.27-.27.28,1.94-.1,3.28-1.1,5.41-.76-.61.87.73.27.86,1l1.14-.25L234,4.7c1,0,1.88-.57,2.74-.34l-.74.32,1.87-.17-1.06-.27c1-.4-.13-.94,1.21-.76-.27.08,1,0,1.53.42h0a2.4,2.4,0,0,1,1.74-.33c.2.23-.14.83,0,1,.48-.63,2.34-.22,2.95-.89a.58.58,0,0,0-.14.63l.4-.52c.47.16.54.23.47.55,1.39.06-.47-.94,1.2-.57-.13,0-.07.12-.34.2,1.67.19,3.21-.38,4.74-.17.46.74-1.33.22-.8.84,2.2-.19,4.54-1,6.67-.88l-.4-.08c.27-1.07,1.6.49,2.66,0-.26.09-.33.6-.26.48,1.46.14,3-.33,5.18-.72l-.27.28a27.79,27.79,0,0,0,3.2.19c.27-.28.8-.25.47-.64,2.9,1.49,5.44-1,8,.25-.3,0-.71.26-.47.26l2.16-.32c-.19-.45-.3-.27-.76-.61a2.17,2.17,0,0,1,1.41-.53c-1,.33,0,.74.45,1-.07-.13.07-.3,0-.44,1.15.79.16-.93,1.72-.42l-.07.24a5.31,5.31,0,0,1,1.72-.43c.27.53-.61.27-.64.71.88,0,1.7-1.06,2.51-.55-.37.16-.9.18-1.27.33a2.31,2.31,0,0,0,1.62.53l-.07,0,1.49.24-.38-.16c1.05-1.42,2.22-.32,3.67-1.27-1.41.9-.22.5-.31,1.11.38.16,1,.33.8.51.68-.51,1.18.35,2.14-.4.05.2.74,0,.6.5.9-.18-.22-.34-.15-.58,1.37-.71,3.31.69,5.28-.3,1.72-.44,2-1.11,3.62-1.49.55.29-.42.72-.42.72A3.66,3.66,0,0,0,302,2c-.16.18,0,.32.27.53.66-.08.42-.73,1.3-.47a2.72,2.72,0,0,1-.63.8c.78-.2,1.53-.6,2.33-.8.23.33-.46.53-.74.76.9-.19,2.34-.39,2.6-.94l-.59-.17c.33,0,.19.45-.05.56a.73.73,0,0,1-1.18-.34l.57-.14c-.64-1.13-2.31.27-3.47.24l.45-.85-1.16.74c-.26-.21-.45-.67.12-.81-.85-.38-.72.32-1.45-.11-.09-.07,0-.11,0-.15l-.8.28c.15-.18-.16-.58.34-.48-1.47-.42-2.32.71-2.89.1l.12-.05c-2,.36-.17.62-1.66,1.39L294.46.61l-.18.62c-.21,0-.62,0-.55-.29-.76.45.14.26-.3.67-1-.52-2.76.34-3-.62-.35.48,1,.33-.09.68-.34-1-1.23.22-2.16-.23.26-.55,1.14-.29.2-.75-.52.93-1.79-.14-2.55.06,0,.72-1.67.35-3,.63.07-.25-2.45-.33-3.66-.56l0-.12c-.21.74-1.46.64-2.36.82,0-.44.18-.62.66-.83l-.85,0a1.46,1.46,0,0,1-1,.47l.19-.55c-1.13.06-2.26.71-3.73.39-.07.51,1.2,1.39-.33,1.77-.07-.27-.14-.74.26-.87-.13,0-.46.25-.73.13l.6-.48c-.67-.18-.33.4-.87.37,0-.39-.4-.27-.33-.59.14,0,.47.16.67,0a2.84,2.84,0,0,1-1.58-.57.44.44,0,0,1-.42.59c-1.14.06-.4-.46-1.07-.65-.27.28-1,0-1,.6-.33,0-.4-.26-.53-.42-.58.27-2.74.14-2.06.75l.15,0-.1,0h0c-1.91.63-4-.24-5.9.05V1.59c-1.14.25-2.53.19-3.34.63-.33,0-.8-.34-.66-.58a3.45,3.45,0,0,1-2.23.1c.87-.36-.3-.3.9-.27-1.14-.15-1.4-.46-2.6.11.4-.51-.87-.61-1.4-.45l.8.34a7.86,7.86,0,0,1-1.67,0L249,.83C246.64.07,244.83,2.29,243,1c-.61.47,1.26.3.72.86-1.06-.07-2.19-1-2.52-1-1.47-.34-1.35,1-2.88.77.2.24.4.87-.74,1.11-1.06-.06-1.33-1-.66-1.17.26,0,.38.05.37.13.35-.09.8-.21.37-.45l-.13.24c-.54-.24-2-.18-1.67-.58-.8.24-.33.4.27.51-1.38-.32-2.14,0-3.55-.17.23.12.44.4.21.4-2.06-.25-.9.47-2.29.6-.8-.35.27-.87-1.13-.54-.87-.23-.2-.63.14-.83-1.27.49-2.4-.25-3.13-.32l.67-.2A3.85,3.85,0,0,1,226,.46l.39.46c-.4-.07-.73-.07-.73-.26-.4.31.33.78-.47,1.22-.54-.23-1.61.29-1.8-.34,1.66.19-.2-.63,1.21-.75a2.09,2.09,0,0,1-1,0c-.06-.07,0-.13.16-.17-1.6-.53-.72.73-2.37.74.2-.36-.39-.67-.66-.59.66,0,.33.59-.28.87-1.06-.26-1.14.23-1.7.2l.64.12c-.21.36-.74.32-1.48.45-.06-.28.67-.2.41-.32-.81.64-1.86-.62-3-.18-.53-.23-.06-.66-.53-.82-1.27.48-1.39-.46-2.73-.06.4.47.46.35-.48.83l2.21-.37-1.41.72c.67,0,1.4-.33,1.8-.25-.66.4-.6.28-.27.67-.93-.7-1.8.45-2.87,0l0-1.18c-1.6-.5-2.81.65-4.88.39l.67.19c-.27.47-1.27.09-1.94.29.06-.4-.36-.53-.65-.78,0,.3-1.5,0-1.68.79l-.93-.5c-1.66-.19-1.88,1.15-3.48,1,.48-.44-.25-.71.81-1-.53,0-1-.06-1,.21-.31-.24-1.47.55-2,.18-.22.18-.29.59-.88.57a.2.2,0,0,1,0-.2c0,.2-.93.28-.4.71-1.66-1.21-4.59.15-6-.88-1.16.14-2.56.29-3.62.33.06-.11,0-.19.2-.15-1.46-.35-.88,1.14-2.55.75-.85-.62.88-.35.35-.59-.25-1.29-2,.21-3.13-.54l.27-.08c-.86-.43-2.08.52-3.47.45a.22.22,0,0,0,0-.2,10.81,10.81,0,0,1-4.09,1.13c.41-.52.61-.28.35-.8-.6.09.18.83-1,1-.4-.27-1.27-.5-1.39-1l1.13-.05c-.59-.7-1.46,0-2.06-.07l.07-.32c-1.73.13-1.75.91-3.61.88l.19.23c-1,.79-.86-.43-1.87.16l-.32-.78a26.44,26.44,0,0,1-3.55,1,12.13,12.13,0,0,1,3-1.27c-.67,0-2.27.09-2.61.48.26-.08.6-.28.87-.16a5.11,5.11,0,0,1-3.21,1c.21-1.53-3.47-.35-4.45-1.52-2.34.59-4.67-.19-7.4-.07,1,1.18-.8,0-.62,1.26-.64.09-.88.07-.94,0l-1.94-.71c-.46-.35.6-.27.54-.55-1.4-.08-.59-.51-1.52-.83.2.44-.48.63-1.27.47l1.12.56c-1.94.67-1.7-1-3.66-.35l.62-.39c-1,.24-3.72,0-4.7,1-.18-.14-.42-.47,0-.56-2.41-.13-5.36,1.09-7.24.51l.18-.3c-.45.09-.78.57-1.34.27,0-.12.17-.3,0-.32a3.25,3.25,0,0,1-1.79.37l.5-.34c-2.35-.37-3.6.86-5.57,1.08,0-.88-1.86-1.16-2.79-1.29l0-.13c-2.75-.08-4.65.77-7.19,1.14-1.58-.94-5.34-.36-7.87-.87.38.15-.06.68-.51.78-.6-.18-1.64.62-1.55-.19h.21c-.45-.78-1.67-.56-2.63-.58l-.14,1.06c-2.51-1.52-6.54.61-7.91-.76-.6.27-1.34.27-1.94.54l0-.56a23.52,23.52,0,0,0-4.56,0l.42-.41c-1.16,0-1.46,1.64-2.53,1.68l-.33-.84c-2,0-4.09-.7-6.08.08a.46.46,0,0,1,.41-.41c-1,0-3.69-.55-3.34.61,0-.75-2.09-.06-3.19.28l.17-.56A3.48,3.48,0,0,1,65.57,3.9c-.3-.07-.27-.45.14-.31-1-.28-.79.53-2,.25l.46-.36c-1,0-1,.15-1.54.57-.66.23-2-.13-2.15-.63A1.27,1.27,0,0,1,59.12,4c-.08-.19.14-.31.25-.37-1.75-.37-2.6.66-3.81.12a.43.43,0,0,0-.21-.33,20.49,20.49,0,0,1,2.41.07c0-.51-1.12-.6-.23-1.31-.9.39-2.44,1.24-3.54,1A.54.54,0,0,1,53.84,3L54,3a1.15,1.15,0,0,0-.69.09,3.68,3.68,0,0,0-.91-.15c-.13-.43-1.29-.23-1.85-.24,0,.56-.69.47,0,.93-.09,0,.11-.06.48-.09a1,1,0,0,0,.24-.06l0,0,1.4,0a1.42,1.42,0,0,1-1.53.22,11.44,11.44,0,0,1-.78.91c-.77-.78-2.25-1.2-2.46-1.68-1.71.32-4,.23-5.11,1.29-.49.14-.56-.3-.74-.47.28-.11.61-.09.76-.24-1,.27-2.88.12-3.11.85-1.23-.32.68-.68-1-.55l.22-.23c-3.32-1.16-5.38,1.91-9.07.41.26.09.38.14.44.26-4.2-.65-8.65.66-12.79-.38-1.18-.21-1.31.26-2,.62l-.26-.6-1.23.7c-1.74.51-3-1.48-5.22-.51L9,4.45c-.79-.07-2.51.25-2.38-.22-.08.07-.26.42-.57.21l0-.31-1.94.54c-1.51-.22.23-1.25-2-1.31-.82.12-2.33.93-2,1.14.33,0,.84.19.87.51l-.75.16c-.13.94-.71,1.89,1.13,2.54L2.6,7.14,3,7.59l-1.07,0c.61.42,1,0,1.43-.22a.87.87,0,0,0,.54.5L5.16,7c.15.36-.56.72.28.92.59-.41-.57-.81.41-1.09.61.42.43.77,1.15.41.1.24,0,.39-.33.49.64-.28,1.69-.12,2-.62.64.52,2.16-.14,2.1.74a3.73,3.73,0,0,1,1.71-.73c-1.07,1.06,2.2,0,1.92,1.19.79-1,2.87-.44,4.27-1-.08.08-.23.23-.36.18a4.88,4.88,0,0,1,1.54.54c.1-.78,1.33-1,2-1.45,1,.75-.58.92-.28,1.65,0-.64,1.69-.64,1.36-1.17.74.46.64.22,1,.87.13-1,.69-.17,1.31-.77,1.07.48.28.92,1.45.61C27.29,8.11,26.24,8.46,26.24,8.46ZM54.3,6.64h0l-.58,0Zm2.36,0c-.29,0-.65,0-1,0a.25.25,0,0,1,.25-.38C55.75,6.35,56.31,6.46,56.66,6.62Zm-5-3.87c.37-.08.5,0,.55.14-.18,0-.38,0-.65.07l0,.07A.75.75,0,0,1,51.65,2.75Z" transform="translate(0 -0.15)"/><path class="cls-1" d="M51,3.49a.54.54,0,0,1-.15,0l.22.13.13-.18Z" transform="translate(0 -0.15)"/><path class="cls-1" d="M264.75,1.66h-.05a.2.2,0,0,1,.1.08S264.77,1.68,264.75,1.66Z" transform="translate(0 -0.15)"/><polygon class="cls-1" points="89.23 7.34 89.23 7.2 89.03 7.32 89.23 7.34"/><path class="cls-1" d="M277.78,3.24a.34.34,0,0,0,.18.14S277.87,3.3,277.78,3.24Z" transform="translate(0 -0.15)"/><path class="cls-1" d="M283.4,3.21l.8.17A4.64,4.64,0,0,0,283.4,3.21Z" transform="translate(0 -0.15)"/><path class="cls-1" d="M287.72,3.36a.79.79,0,0,0,.08-.25h0Z" transform="translate(0 -0.15)"/><path class="cls-1" d="M219.13,5.6a.45.45,0,0,0-.16,0C218.58,5.74,218.84,5.7,219.13,5.6Z" transform="translate(0 -0.15)"/><path class="cls-1" d="M239.52,3.9a3.75,3.75,0,0,1-.65.28C239.24,4.22,239.52,4.22,239.52,3.9Z" transform="translate(0 -0.15)"/><path class="cls-1" d="M196.35,6.64h0Z" transform="translate(0 -0.15)"/><path class="cls-1" d="M237.92,4.19a1.53,1.53,0,0,0,1,0A2.53,2.53,0,0,0,237.92,4.19Z" transform="translate(0 -0.15)"/><path class="cls-1" d="M306.43,3l.21,0a.16.16,0,0,1,0-.1Z" transform="translate(0 -0.15)"/><path class="cls-1" d="M306.66,2.87l.23-.07C306.78,2.8,306.69,2.81,306.66,2.87Z" transform="translate(0 -0.15)"/><path class="cls-1" d="M307.37,2.64l-.48.16C307.06,2.79,307.27,2.8,307.37,2.64Z" transform="translate(0 -0.15)"/><path class="cls-1" d="M300.71,2.9l-.06.21A.35.35,0,0,0,300.71,2.9Z" transform="translate(0 -0.15)"/><path class="cls-1" d="M299,3c.41,0,1,.39,1.62.25l0-.17C300.39,3.42,299.36,2.67,299,3Z" transform="translate(0 -0.15)"/><path class="cls-1" d="M291.65.77l1.46.12c-.26-.21-.61-.49.05-.56C291.31-.26,293.55.8,291.65.77Z" transform="translate(0 -0.15)"/><path class="cls-1" d="M287.13.59c.78-.12,0-.31,0-.44C286.66.37,286.54.42,287.13.59Z" transform="translate(0 -0.15)"/><path class="cls-1" d="M254.57,1.45l.06-.51C254,1,254.63,1.14,254.57,1.45Z" transform="translate(0 -0.15)"/><polygon class="cls-1" points="248.4 4.09 248.99 4.4 249.26 3.92 248.4 4.09"/><polygon class="cls-1" points="244.64 0.52 244.9 0.45 243.9 0.65 244.64 0.52"/><path class="cls-1" d="M189.94,1.79l.19.63C190.53,2.3,190.61,1.59,189.94,1.79Z" transform="translate(0 -0.15)"/><path class="cls-1" d="M166.32,2.74A1.06,1.06,0,0,0,165,2.55C165.52,2.58,166.05,2.82,166.32,2.74Z" transform="translate(0 -0.15)"/><polygon class="cls-1" points="95.46 2.24 95.94 2.03 95.04 2.21 95.46 2.24"/></g></g></svg>