<svg xmlns="http://www.w3.org/2000/svg" viewBox="0 0 110.81 120.84"><defs><style>.cls-1,.cls-2{fill:none;stroke-linecap:round;stroke-linejoin:round;}.cls-1{stroke:#163d6b;stroke-width:3.25px;}.cls-2{stroke:#ea0029;stroke-width:3.31px;}</style></defs><g id="Capa_2" data-name="Capa 2"><g id="Capa_1-2" data-name="Capa 1"><polygon class="cls-1" points="58.47 32.27 58.47 1.62 89.81 32.27 58.47 32.27"/><path class="cls-1" d="M89.81,45.58V32.27L58.47,1.62H4.54A2.89,2.89,0,0,0,1.62,4.47V116.36a2.89,2.89,0,0,0,2.92,2.85H86.9a2.88,2.88,0,0,0,2.91-2.85V103.22"/><line class="cls-1" x1="59.5" y1="99.37" x2="14.12" y2="99.37"/><line class="cls-1" x1="48.92" y1="86.38" x2="14.12" y2="86.38"/><line class="cls-1" x1="46.98" y1="73.4" x2="14.12" y2="73.4"/><line class="cls-1" x1="50.27" y1="60.42" x2="14.12" y2="60.42"/><line class="cls-1" x1="62.55" y1="47.43" x2="14.12" y2="47.43"/><line class="cls-1" x1="51.12" y1="34.45" x2="14.12" y2="34.45"/><line class="cls-1" x1="49.65" y1="21.47" x2="14.12" y2="21.47"/><circle class="cls-1" cx="78.07" cy="74.4" r="31.11" transform="matrix(0.16, -0.99, 0.99, 0.16, -7.88, 139.55)"/><polygon class="cls-2" points="78.07 53.09 83.74 66.28 98.03 67.59 87.24 77.06 90.41 91.06 78.07 83.72 65.73 91.06 68.9 77.06 58.11 67.59 72.4 66.28 78.07 53.09"/></g></g></svg>