<svg xmlns="http://www.w3.org/2000/svg" viewBox="0 0 31.85 31.85"><defs><style>.cls-1,.cls-2{fill:none;stroke:#fff;stroke-linecap:round;stroke-linejoin:round;}.cls-1{stroke-width:3.31px;}.cls-2{stroke-width:1.21px;}</style></defs><g id="Capa_2" data-name="Capa 2"><g id="Capa_1-2" data-name="Capa 1"><circle class="cls-1" cx="15.93" cy="15.93" r="14.27"/><path class="cls-2" d="M9.68,22.58h0a2.1,2.1,0,0,1-2.11-2.11V15.61a2.11,2.11,0,0,1,4.22,0v4.86A2.11,2.11,0,0,1,9.68,22.58Z"/><path class="cls-2" d="M13.2,21.11c1.38,0,2.48,1.54,3.65,1.54h4.41a1.08,1.08,0,0,0,1-.73l1.93-5.83c.64-1.91-2.46-2.52-5-3,0,0,.55-2.5.71-3.61s.25-2.18-1.28-2.18a1.16,1.16,0,0,0-1,.35V9a3.76,3.76,0,0,1-.53,1.93A12.89,12.89,0,0,0,16,13.21a3,3,0,0,1-2.91,1.63"/></g></g></svg>