<svg xmlns="http://www.w3.org/2000/svg" viewBox="0 0 415.75 353.51"><defs><style>.cls-1{fill:#f5f5f5;}.cls-2{fill:#e1e1e1;}.cls-3{fill:#ececec;}.cls-4{fill:#fafafa;}.cls-5{fill:#1a2e35;}.cls-13,.cls-6{opacity:0.3;}.cls-7{fill:none;stroke:#375a64;stroke-miterlimit:10;stroke-width:2px;}.cls-8{fill:#375a64;}.cls-9{fill:#ea0029;}.cls-10{fill:#ff735d;}.cls-11{fill:#ffc19d;}.cls-12{fill:#ff9c6a;}.cls-14{fill:#163d6b;}.cls-15{opacity:0.2;}.cls-16,.cls-19,.cls-21{fill:#fff;}.cls-17{fill:#f2f3f4;}.cls-18{fill:#bec2c6;}.cls-19{font-size:11.88px;font-family:VarelaRound-Regular, Varela Round;}.cls-20{letter-spacing:-0.01em;}.cls-21{font-size:18.3px;font-family:MADEGentle, MADE Gentle;}.cls-22{letter-spacing:-0.01em;}</style></defs><g id="Capa_2" data-name="Capa 2"><g id="Capa_1-2" data-name="Capa 1"><rect class="cls-1" x="13.69" y="211.98" width="56.39" height="45.09" transform="translate(-42.41 11.7) rotate(-10.6)"/><path class="cls-2" d="M65.46,207.18l-.27.07-.78.15-3,.59-11.34,2.17-40,7.59.15-.23c2.48,13.19,5.31,28.31,8.31,44.31h0l-.25-.17,55.44-10.34-.15.21c-2.45-13.34-4.49-24.4-5.91-32.14-.71-3.87-1.26-6.91-1.64-9-.18-1-.32-1.82-.42-2.38s-.14-.83-.14-.83.06.26.17.79l.46,2.34,1.72,8.94c1.47,7.76,3.58,18.85,6.12,32.22l0,.18-.17,0-55.43,10.4-.21.05,0-.22h0c-3-16-5.8-31.13-8.26-44.32l0-.19.19,0L50.15,210l11.32-2.06,3-.54.76-.13Z"/><rect class="cls-3" x="15.64" y="214.83" width="52.43" height="39.41" transform="translate(-42.41 11.7) rotate(-10.6)"/><polygon class="cls-2" points="19.71 258.72 33.2 231.28 47.17 244.26 53.23 234.79 71.25 249.08 19.71 258.72"/><path class="cls-2" d="M48.54,225.36a4.13,4.13,0,1,1-4.82-3.3A4.12,4.12,0,0,1,48.54,225.36Z"/><rect class="cls-4" x="112.72" y="51.42" width="159.33" height="117.97" transform="translate(49.47 280.05) rotate(-79.74)"/><path class="cls-2" d="M236.23,199.31s0-.26.13-.76.21-1.23.38-2.2c.35-1.94.86-4.81,1.53-8.53,1.33-7.46,3.29-18.36,5.76-32.17L264.42,42.49l.16.23-116.07-21h0l.25-.17C138.15,80,128.33,134.21,120.33,178.32l-.14-.2,84.34,15.36L228,197.77l6.15,1.13c1.4.26,2.12.41,2.12.41l-2.09-.36L228,197.86l-23.4-4.19-84.49-15.2-.17,0,0-.17c8-44.12,17.77-98.3,28.34-156.79l0-.21.22,0h0l116.06,21,.2,0,0,.19c-8.45,46.44-15.58,85.65-20.6,113.25-2.52,13.78-4.51,24.66-5.87,32.11-.68,3.7-1.2,6.55-1.56,8.48-.18,1-.31,1.68-.4,2.18Z"/><rect class="cls-2" x="154.05" y="42.19" width="50.08" height="43.64" transform="translate(14.27 -30.88) rotate(10.26)"/><rect class="cls-2" x="214.61" y="51.22" width="32.07" height="5.69" transform="translate(13.32 -40.22) rotate(10.26)"/><rect class="cls-2" x="148.36" y="97.98" width="91.52" height="5.69" transform="matrix(0.98, 0.18, -0.18, 0.98, 21.07, -32.97)"/><rect class="cls-2" x="146.57" y="107.84" width="91.52" height="5.69" transform="translate(22.8 -32.49) rotate(10.26)"/><rect class="cls-2" x="144.79" y="117.71" width="91.52" height="5.69" transform="translate(24.52 -32.02) rotate(10.26)"/><rect class="cls-2" x="143" y="127.57" width="91.52" height="5.69" transform="translate(26.25 -31.54) rotate(10.26)"/><rect class="cls-2" x="141.22" y="137.43" width="91.52" height="5.69" transform="translate(27.98 -31.07) rotate(10.26)"/><rect class="cls-2" x="135.1" y="171.24" width="91.52" height="5.69" transform="translate(33.91 -29.43) rotate(10.26)"/><rect class="cls-2" x="139.76" y="143.61" width="50.24" height="5.69" transform="translate(28.73 -27.03) rotate(10.26)"/><rect class="cls-2" x="212.97" y="60.29" width="32.07" height="5.69" transform="translate(14.91 -39.79) rotate(10.26)"/><rect class="cls-2" x="211.33" y="69.35" width="32.07" height="5.69" transform="translate(16.5 -39.35) rotate(10.26)"/><rect class="cls-2" x="209.79" y="77.32" width="19.77" height="5.69" transform="translate(17.8 -37.85) rotate(10.26)"/><path class="cls-2" d="M288.72,20.78l-10,.4L277.63,24a6.08,6.08,0,0,0-.49,2.3,1.88,1.88,0,0,0,1,1.72,8,8,0,0,0,2.8.39l0,.77-9.43.38,0-.77A4.25,4.25,0,0,0,274,27.41,16.46,16.46,0,0,0,276.25,23l9.23-23,.4,0L297,22.84a14.34,14.34,0,0,0,2.58,4.06,3.26,3.26,0,0,0,2,.67l0,.77L288,28.89l0-.77.56,0a4.45,4.45,0,0,0,2.31-.55,1.18,1.18,0,0,0,.42-1,2.65,2.65,0,0,0-.16-.76,16.93,16.93,0,0,0-.69-1.55ZM288,19.26l-4.61-9.59-4,9.94Z"/><rect class="cls-1" x="266.76" y="86.64" width="48.28" height="38.6" transform="translate(-18.58 97.6) rotate(-18.47)"/><rect class="cls-3" x="268.42" y="89.08" width="44.89" height="33.74" transform="translate(-18.58 97.59) rotate(-18.47)"/><polygon class="cls-2" points="274.92 129.06 283.15 104.2 296.52 113.57 300.54 104.83 317.5 114.84 274.92 129.06"/><path class="cls-2" d="M295.46,97.39A3.54,3.54,0,1,1,291,95.15,3.54,3.54,0,0,1,295.46,97.39Z"/><rect class="cls-1" x="309.99" y="36.56" width="58.32" height="72.95" transform="translate(202.3 391.83) rotate(-78.92)"/><path class="cls-2" d="M380.56,51.42l-.35-.05-1-.19-3.9-.74-14.66-2.82-51.71-10,.23-.15L298,94.67h0l-.17-.26,71.58,14.06-.21.14,8.22-41.49c1-5,1.78-8.91,2.32-11.59.27-1.33.48-2.35.62-3.06s.23-1.06.23-1.06-.06.35-.19,1l-.57,3c-.51,2.68-1.26,6.59-2.22,11.57-1.94,10-4.71,24.36-8.06,41.64l0,.18-.18,0-71.6-14-.21,0,0-.21h0c4.06-20.66,7.89-40.19,11.23-57.22l0-.2.19,0,51.8,10.25,14.6,2.91,3.85.78,1,.2Z"/><rect class="cls-3" x="313.62" y="39.11" width="50.98" height="67.82" transform="translate(202.27 391.77) rotate(-78.92)"/><polygon class="cls-2" points="300.93 91.52 330.27 64.97 340.86 87.25 352.66 78.76 367.49 104.55 300.93 91.52"/><path class="cls-2" d="M351.53,65.18a5.34,5.34,0,1,1-4.22-6.26A5.35,5.35,0,0,1,351.53,65.18Z"/><polygon class="cls-1" points="33.51 5.67 37.21 48.83 53.95 53.37 86.42 49.59 81.85 1 33.51 5.67"/><path class="cls-3" d="M42.32,45l-5.11,3.88a18.64,18.64,0,0,0,6.66,3.7A26.9,26.9,0,0,0,54,53.37S46.22,52,42.32,45Z"/><path class="cls-2" d="M78,16.87c0,.08-8.22.95-18.36,1.93S41.2,20.52,41.2,20.44s8.21-.94,18.36-1.93S77.94,16.79,78,16.87Z"/><path class="cls-2" d="M78.43,23.52c0,.08-8.22.94-18.36,1.92s-18.39,1.72-18.39,1.64,8.21-.94,18.36-1.93S78.42,23.44,78.43,23.52Z"/><path class="cls-2" d="M79.2,29.37c0,.08-8.21.95-18.36,1.93S42.46,33,42.45,32.94,50.66,32,60.81,31,79.19,29.29,79.2,29.37Z"/><path class="cls-2" d="M79.71,35c0,.08-8.21.95-18.36,1.93S43,38.68,43,38.6s8.21-1,18.36-1.93S79.7,35,79.71,35Z"/><path class="cls-5" d="M383.55,353.29c0,.12-85.87.22-191.77.22S0,353.41,0,353.29s85.85-.22,191.78-.22S383.55,353.17,383.55,353.29Z"/><polygon class="cls-2" points="23.08 80.73 57.43 277.42 202.26 254.68 208.98 238.46 169.8 56.59 34.03 64.69 23.08 80.73"/><polygon class="cls-6" points="57.43 277.42 67.72 261.65 33.37 64.96 23.08 80.73 57.43 277.42"/><polygon class="cls-4" points="33.37 64.96 67.72 261.65 208.98 238.46 173.29 45.01 33.37 64.96"/><path class="cls-5" d="M33.37,65l139.9-20.13.17,0,0,.17c10,54.05,22.35,121,35.72,193.44l0,.22-.22,0-2.33.38L67.75,261.85l-.19,0,0-.19C47.35,145.51,33.67,66.7,33.37,65c.3,1.74,14.14,80.52,34.55,196.66l-.23-.16,138.92-22.83,2.33-.38-.18.25C195.42,166.07,183.08,99.1,173.12,45l.2.14Z"/><rect class="cls-2" x="67.65" y="93.8" width="90.02" height="5.67" rx="2.35" transform="translate(-13.7 18.76) rotate(-8.98)"/><rect class="cls-2" x="85.51" y="105.51" width="58.49" height="5.67" rx="2.35" transform="translate(-15.5 19.23) rotate(-8.98)"/><rect class="cls-2" x="104.95" y="226.19" width="58.49" height="5.67" rx="2.35" transform="translate(-34.09 23.75) rotate(-8.98)"/><path class="cls-5" d="M201.71,243.93l-.69.13-2,.35-7.81,1.3-29,4.76-98,15.93-.21,0,0-.21c-1.38-7.77-2.82-15.93-4.28-24.23-7.85-44.6-15-85-20.09-114.2-2.55-14.61-4.62-26.44-6-34.62-.7-4.08-1.24-7.25-1.62-9.42-.17-1.07-.31-1.88-.41-2.45s-.12-.83-.12-.83.06.28.17.83.25,1.37.45,2.44c.39,2.16,1,5.33,1.7,9.4l6.18,34.59C45,157,52.17,197.33,60.07,241.92c1.46,8.3,2.9,16.45,4.27,24.23L64.1,266l98-15.78,29-4.63,7.83-1.23,2-.31C201.47,244,201.71,243.93,201.71,243.93Z"/><path class="cls-5" d="M190.94,251.33l-.65.12-1.91.34L181,253l-27.44,4.58L60.47,273l-.21,0,0-.21c-1.71-9.37-3.48-19.13-5.3-29.09-8-44-15.2-83.79-20.42-112.61-2.6-14.41-4.69-26.07-6.15-34.14-.71-4-1.26-7.15-1.64-9.28-.19-1.06-.33-1.87-.42-2.42s-.13-.83-.13-.83.07.28.17.82.26,1.36.46,2.41c.4,2.13,1,5.25,1.73,9.27,1.49,8.06,3.63,19.71,6.28,34.11,5.26,28.82,12.53,68.62,20.55,112.59,1.81,10,3.59,19.72,5.29,29.1l-.24-.18,93.12-15.26L181,252.89l7.39-1.18,1.91-.3Z"/><polygon class="cls-5" points="36.78 148.25 33.6 152.76 41.33 199.1 45.93 200.66 36.78 148.25"/><rect class="cls-5" x="41.19" y="145.93" width="22.39" height="53.2" transform="translate(-28.9 11.58) rotate(-9.91)"/><rect class="cls-5" x="61.5" y="142.06" width="4.47" height="56.9" rx="1.85" transform="translate(-28.38 13.51) rotate(-9.9)"/><path class="cls-7" d="M54.1,161.6l-14.32,8.12a9.27,9.27,0,0,0-8.13-2.85,9.29,9.29,0,1,0,3,18.35,9.29,9.29,0,0,0,7-5.56l16.15,2.58A1.08,1.08,0,0,0,58.94,181l-3.26-18.65A1.06,1.06,0,0,0,54.1,161.6Z"/><path class="cls-8" d="M66.05,196.75a3.37,3.37,0,0,1-.11-.52c-.08-.39-.17-.89-.29-1.51l-1-5.53c-.84-4.72-2-11.16-3.26-18.27S59,157.36,58.21,152.63c-.38-2.31-.69-4.19-.91-5.55-.1-.62-.17-1.13-.23-1.52a1.92,1.92,0,0,1,0-.53,3.57,3.57,0,0,1,.14.52c.07.38.18.88.3,1.5.26,1.35.62,3.23,1,5.52.87,4.67,2,11.13,3.3,18.27s2.36,13.61,3.13,18.3c.39,2.34.69,4.24.88,5.56.09.66.17,1.16.2,1.52A1.77,1.77,0,0,1,66.05,196.75Z"/><path class="cls-8" d="M45.5,200.84a2,2,0,0,1-.12-.52c-.07-.39-.16-.89-.28-1.5-.25-1.36-.59-3.24-1-5.54-.85-4.72-2-11.16-3.26-18.27s-2.35-13.56-3.17-18.29c-.38-2.3-.69-4.19-.92-5.55-.09-.62-.17-1.12-.22-1.51a2,2,0,0,1-.05-.54,3,3,0,0,1,.13.52c.08.39.18.89.31,1.5.26,1.36.61,3.23,1.05,5.53.87,4.67,2,11.13,3.3,18.27s2.36,13.6,3.13,18.29c.39,2.35.69,4.24.88,5.56.09.66.17,1.17.2,1.52A3.52,3.52,0,0,1,45.5,200.84Z"/><path class="cls-9" d="M154.46,244h66.19a0,0,0,0,1,0,0v36.45a0,0,0,0,1,0,0H154.46a17.65,17.65,0,0,1-17.65-17.65v-1.16A17.65,17.65,0,0,1,154.46,244Z"/><path class="cls-9" d="M202.49,244h146a2.93,2.93,0,0,1,2.93,2.93v.19a2.93,2.93,0,0,1-2.93,2.93h-146a0,0,0,0,1,0,0V244A0,0,0,0,1,202.49,244Z"/><path class="cls-9" d="M202.49,274.44h146a2.93,2.93,0,0,1,2.93,2.93v.19a2.93,2.93,0,0,1-2.93,2.93h-146a0,0,0,0,1,0,0v-6.05A0,0,0,0,1,202.49,274.44Z"/><path class="cls-1" d="M346.94,274.44H219.11a12.18,12.18,0,0,1-12.18-12.18h0a12.17,12.17,0,0,1,12.18-12.17H346.94A30.18,30.18,0,0,0,346.94,274.44Z"/><path class="cls-6" d="M206.93,280.49H151.47a14.67,14.67,0,0,1-14.66-14.66v-7.24A14.55,14.55,0,0,1,151.36,244h57C195.12,252,196.11,271.18,206.93,280.49Z"/><path class="cls-5" d="M331.41,263.39c0,.12-26.24.22-58.6.22s-58.6-.1-58.6-.22,26.23-.22,58.6-.22S331.41,263.27,331.41,263.39Z"/><path class="cls-5" d="M343.47,268.8c0,.12-26.24.22-58.6.22s-58.6-.1-58.6-.22,26.23-.21,58.6-.21S343.47,268.68,343.47,268.8Z"/><path class="cls-5" d="M339.92,255.72c0,.12-26.24.22-58.6.22s-58.61-.1-58.61-.22,26.24-.22,58.61-.22S339.92,255.6,339.92,255.72Z"/><path class="cls-5" d="M200.51,277.93c0,.12-12.28.22-27.43.22s-27.43-.1-27.43-.22,12.28-.22,27.43-.22S200.51,277.81,200.51,277.93Z"/><path class="cls-5" d="M200.51,247.06c0,.12-12.28.22-27.43.22s-27.43-.1-27.43-.22,12.28-.22,27.43-.22S200.51,246.94,200.51,247.06Z"/><path class="cls-9" d="M123.79,306.07h90.33a0,0,0,0,1,0,0V353a0,0,0,0,1,0,0H123.79a17.65,17.65,0,0,1-17.65-17.65V323.72A17.65,17.65,0,0,1,123.79,306.07Z"/><path class="cls-9" d="M190.73,306.07H379.55a2.93,2.93,0,0,1,2.93,2.93v1.93a2.93,2.93,0,0,1-2.93,2.93H190.73a0,0,0,0,1,0,0v-7.79A0,0,0,0,1,190.73,306.07Z"/><path class="cls-9" d="M190.73,345.22H379.55a2.93,2.93,0,0,1,2.93,2.93v1.93a2.93,2.93,0,0,1-2.93,2.93H190.73a0,0,0,0,1,0,0v-7.79A0,0,0,0,1,190.73,345.22Z"/><path class="cls-1" d="M376.76,345.22H212.13a15.67,15.67,0,0,1-15.68-15.67h0a15.68,15.68,0,0,1,15.68-15.68H376.76A38.8,38.8,0,0,0,376.76,345.22Z"/><path class="cls-6" d="M196.45,353H120.34a14.19,14.19,0,0,1-14.19-14.19V320.77a14.69,14.69,0,0,1,14.69-14.7h77.4C181.24,316.37,182.51,341,196.45,353Z"/><path class="cls-5" d="M356.76,331c0,.12-33.79.22-75.47.22s-75.47-.1-75.47-.22,33.78-.22,75.47-.22S356.76,330.88,356.76,331Z"/><path class="cls-5" d="M372.29,338c0,.12-33.79.22-75.46.22s-75.48-.1-75.48-.22,33.79-.22,75.48-.22S372.29,337.85,372.29,338Z"/><path class="cls-5" d="M367.71,324.53c0,.12-33.79.22-75.46.22s-75.48-.1-75.48-.22,33.79-.21,75.48-.21S367.71,324.41,367.71,324.53Z"/><path class="cls-5" d="M188.18,349.73c0,.12-15.81.22-35.32.22s-35.33-.1-35.33-.22,15.81-.22,35.33-.22S188.18,349.61,188.18,349.73Z"/><path class="cls-5" d="M188.18,310c0,.12-15.81.22-35.32.22s-35.33-.1-35.33-.22,15.81-.22,35.33-.22S188.18,309.85,188.18,310Z"/><path class="cls-8" d="M167.45,279.37h74.71a0,0,0,0,1,0,0v26.88a0,0,0,0,1,0,0H167.45a13,13,0,0,1-13-13v-.85A13,13,0,0,1,167.45,279.37Z"/><path class="cls-8" d="M223.16,279.37H375.88a3.07,3.07,0,0,1,3.07,3.07v.2a3.07,3.07,0,0,1-3.07,3.07H223.16a0,0,0,0,1,0,0v-6.33A0,0,0,0,1,223.16,279.37Z"/><path class="cls-8" d="M223.16,299.91H375.88a3.07,3.07,0,0,1,3.07,3.07v.2a3.07,3.07,0,0,1-3.07,3.07H223.16a0,0,0,0,1,0,0v-6.33a0,0,0,0,1,0,0Z"/><path class="cls-1" d="M374.3,299.91H234.91a7.1,7.1,0,0,1-7.11-7.1h0a7.11,7.11,0,0,1,7.11-7.11H374.3Q368.93,292.81,374.3,299.91Z"/><path class="cls-6" d="M227.8,306.25H165.1a10.68,10.68,0,0,1-10.67-10.68v-5.31a10.89,10.89,0,0,1,10.89-10.89h63.93C215.45,285.26,216.48,299.38,227.8,306.25Z"/><path class="cls-5" d="M358.05,291.69c0,.12-27.45.22-61.31.22s-61.33-.1-61.33-.22,27.45-.22,61.33-.22S358.05,291.57,358.05,291.69Z"/><path class="cls-5" d="M370.67,295.51c0,.12-27.45.22-61.31.22s-61.33-.1-61.33-.22,27.45-.21,61.33-.21S370.67,295.39,370.67,295.51Z"/><path class="cls-5" d="M221.09,303.57c0,.12-12.85.22-28.7.22s-28.71-.1-28.71-.22,12.85-.22,28.71-.22S221.09,303.45,221.09,303.57Z"/><path class="cls-5" d="M221.09,282.53c0,.12-12.85.22-28.7.22s-28.71-.1-28.71-.22,12.85-.21,28.71-.21S221.09,282.41,221.09,282.53Z"/><path class="cls-5" d="M377.12,279.37c0,.12-47.14.22-105.28.22s-105.3-.1-105.3-.22,47.13-.22,105.3-.22S377.12,279.25,377.12,279.37Z"/><polygon class="cls-10" points="292.57 255.32 292.57 269.92 297.63 266.67 303.28 269.92 303.28 255.32 292.57 255.32"/><path class="cls-11" d="M74,301.1l14.44-5.83,11-28.82L114.19,274s-1.42,2.85-4.46,9.89c-1.17,2.72-5.06,10.3-6.65,14a19.4,19.4,0,0,1-17.32,11.77L72.2,310Z"/><path class="cls-11" d="M66.83,295.52l-2.18-2.29a2.43,2.43,0,0,0-1.41-.39l-6.91.21a4.34,4.34,0,0,0-3.2,1.93l-2.52,4.28s-1.69,2.93-1.47,3.64a1.26,1.26,0,0,0,1.46.86s.24,1.35.69,1.62a2.12,2.12,0,0,0,1.68.11,1.43,1.43,0,0,0,1.36.83,1.53,1.53,0,0,0,.36-.07c.82-.25,1.19-1.84,1.19-1.84l3.51-.65s5,3.37,6.8,5.57,6.43.52,6.43.52l1.73-8.31Z"/><path class="cls-12" d="M61.74,296.52a6.41,6.41,0,0,1-1.51.25c-1,.1-2.31.14-3.82.34l.16-.12a14.19,14.19,0,0,1-.9,1.65,18.63,18.63,0,0,1-3.32,3.94,6.09,6.09,0,0,1-1.74,1.23c0-.05.61-.54,1.53-1.46a23,23,0,0,0,3.16-3.94,16.21,16.21,0,0,0,.89-1.6l.05-.11h.11c1.56-.18,2.91-.16,3.86-.19A6.69,6.69,0,0,1,61.74,296.52Z"/><path class="cls-12" d="M61.9,299.81a3.21,3.21,0,0,1-1.31.35,9.93,9.93,0,0,1-3.38-.12l.25-.14a10.08,10.08,0,0,1-.51,1.26,10.61,10.61,0,0,1-2.59,3.41,4.13,4.13,0,0,1-1.49,1c0-.05.51-.44,1.28-1.2A12.2,12.2,0,0,0,56.56,301c.19-.41.36-.81.5-1.2l.06-.18.18,0A16.73,16.73,0,0,0,61.9,299.81Z"/><path class="cls-11" d="M70.67,301.52l-6.16-2.87a6.48,6.48,0,0,0-2.69-.79,6.46,6.46,0,0,0-2.85.94l-3.32,1.72a.59.59,0,0,0-.15,1.1,4.87,4.87,0,0,0,6.42.26A13.17,13.17,0,0,0,64,306a4.51,4.51,0,0,0,4.06,1.73"/><path class="cls-12" d="M68.06,307.72s0,0-.16,0a2.63,2.63,0,0,1-.51.06,3.89,3.89,0,0,1-1.85-.45,5.94,5.94,0,0,1-2.19-2A16.15,16.15,0,0,1,61.74,302l.31.08a4.94,4.94,0,0,1-3.59,1.12,5.23,5.23,0,0,1-2-.56,4.9,4.9,0,0,1-.89-.62,2.48,2.48,0,0,1-.39-.4.81.81,0,0,1-.18-.68.83.83,0,0,1,.37-.46c.15-.09.27-.14.4-.21l.77-.4,1.5-.77a13.28,13.28,0,0,1,3-1.3,4.53,4.53,0,0,1,2.92.44c.84.38,1.59.75,2.28,1.09l3.29,1.6a6.32,6.32,0,0,1,1.17.64,8.19,8.19,0,0,1-1.25-.49l-3.34-1.47-2.29-1a4.23,4.23,0,0,0-2.7-.39,13.71,13.71,0,0,0-2.86,1.28l-1.5.79-.77.39c-.26.14-.53.27-.55.4s.19.44.44.65a4.17,4.17,0,0,0,.81.56,4.74,4.74,0,0,0,1.83.52,4.54,4.54,0,0,0,3.3-1l.22-.18.09.26a16.06,16.06,0,0,0,1.52,3.4,5.74,5.74,0,0,0,2,2A4.51,4.51,0,0,0,68.06,307.72Z"/><path class="cls-5" d="M150.88,220.8c.05-4.63.78-9.24.6-13.87s-1.39-9.44-4.62-12.76-8.83-4.58-12.6-1.9l-.78,3.94c1.49,17.84,1.29,36,2.77,53.81.2,2.35,2.1,4.47,3.17,6.57s3.2,3.82,5.55,3.68c3.07-.19,5.09-3.3,6-6.23C154.47,243.44,150.74,232,150.88,220.8Z"/><path class="cls-9" d="M139.75,196.8a13,13,0,0,0-2.36-3.18,4.38,4.38,0,0,0-3.64-1.22,1.82,1.82,0,0,0-1.44,1c-.21.59.23,1.38.85,1.33l.14.11q2.07,1.85,4.23,3.6a3.7,3.7,0,0,0,1.18.73,1.26,1.26,0,0,0,1.29-.28C140.51,198.36,140.14,197.47,139.75,196.8Z"/><path class="cls-5" d="M142.36,201.35a23.33,23.33,0,0,0-18.09-9c-4.1-.07-5.8.78-8.76,1.58a12.93,12.93,0,0,0-7.39,4.89,21.75,21.75,0,0,0-4.26,9.92,61.67,61.67,0,0,0-.53,11.19,20.39,20.39,0,0,0,3.49,10.51l9.48,1.65c5.24.18,10.55.35,15.66-.85s10.06-3.94,12.79-8.41C148.55,216.61,147,207,142.36,201.35Z"/><path class="cls-11" d="M133.92,201.28l-12.65-5-3.3.38c-7.43,0-12.56,8.23-12.61,14.25,0,6.69.15,14.85,1.21,19.78,2.14,9.92,10.6,10.74,10.6,10.74s-.18,5.29-.24,8.61l19.36-1.39,1-43.95A3.52,3.52,0,0,0,133.92,201.28Z"/><path class="cls-12" d="M121.44,228.35a2.13,2.13,0,0,0-.73-1.3,2.18,2.18,0,0,0-2.62-.15,2.92,2.92,0,0,0-1.1,2.71h0a2.6,2.6,0,0,0,1.88,1.09l.36,0a2.4,2.4,0,0,0,1.59-.63A2.14,2.14,0,0,0,121.44,228.35Z"/><path class="cls-5" d="M108.71,219.35a1.29,1.29,0,0,0,1.31,1.23,1.23,1.23,0,0,0,1.26-1.23,1.29,1.29,0,0,0-1.31-1.23A1.23,1.23,0,0,0,108.71,219.35Z"/><path class="cls-5" d="M107.63,214.23c.17.16,1.1-.61,2.48-.69s2.43.57,2.57.39-.11-.37-.57-.67a3.58,3.58,0,0,0-2.07-.51,3.34,3.34,0,0,0-2,.75C107.67,213.85,107.55,214.16,107.63,214.23Z"/><path class="cls-5" d="M116.5,225.05a9.78,9.78,0,0,0-2.27-.28c-.35,0-.69-.07-.76-.3a1.77,1.77,0,0,1,.18-1.06l.89-2.74a47.18,47.18,0,0,0,2-7.15c-.16-.05-1.29,3.07-2.53,7l-.85,2.76a2.1,2.1,0,0,0-.11,1.39.9.9,0,0,0,.61.49,2.69,2.69,0,0,0,.6.05A9.16,9.16,0,0,0,116.5,225.05Z"/><path class="cls-12" d="M117.15,241.4a25.43,25.43,0,0,0,13.2-4.31s-3.19,7.13-13.25,6.74Z"/><path class="cls-5" d="M120.61,225.79c-.22,0-.14,1.49-1.37,2.63s-2.83,1.05-2.83,1.26.38.28,1,.26a3.77,3.77,0,0,0,2.37-1,3.27,3.27,0,0,0,1-2.2C120.9,226.13,120.71,225.77,120.61,225.79Z"/><path class="cls-5" d="M108.1,209.4c.25.32,1.29,0,2.53.07s2.28.31,2.54,0c.11-.16,0-.48-.49-.79a3.66,3.66,0,0,0-2-.6,3.62,3.62,0,0,0-2,.55C108.15,208.92,108,209.24,108.1,209.4Z"/><path class="cls-5" d="M123.78,219a1.29,1.29,0,0,1-1.22,1.32,1.22,1.22,0,0,1-1.34-1.14,1.27,1.27,0,0,1,1.21-1.31A1.23,1.23,0,0,1,123.78,219Z"/><path class="cls-5" d="M126.31,213.7c-.16.17-1.15-.54-2.53-.51s-2.38.74-2.53.57.08-.38.51-.71a3.59,3.59,0,0,1,2-.66,3.36,3.36,0,0,1,2,.61C126.23,213.32,126.38,213.62,126.31,213.7Z"/><path class="cls-5" d="M125.48,209.27c-.27.32-1.34,0-2.63,0s-2.36.25-2.61-.07c-.12-.16.05-.47.52-.78a4.19,4.19,0,0,1,4.22,0C125.44,208.8,125.59,209.12,125.48,209.27Z"/><path class="cls-11" d="M135.55,221.49c0-.75.72-2.55,1.45-2.71,1.95-.41,5.5-.45,5.8,4.54.42,6.81-6.51,5.83-6.53,5.63S135.68,224.06,135.55,221.49Z"/><path class="cls-12" d="M138,226.35s.12.07.33.15a1.17,1.17,0,0,0,.88,0,2.94,2.94,0,0,0,1.2-2.72,3.9,3.9,0,0,0-.43-1.68,1.38,1.38,0,0,0-.95-.86.62.62,0,0,0-.69.37c-.07.2,0,.33-.06.34s-.15-.1-.11-.39a.78.78,0,0,1,.24-.44.86.86,0,0,1,.64-.21,1.66,1.66,0,0,1,1.31,1,4.13,4.13,0,0,1,.53,1.87,3.09,3.09,0,0,1-1.55,3.05,1.25,1.25,0,0,1-1.1-.11C138,226.51,138,226.36,138,226.35Z"/><path class="cls-5" d="M137.28,218.8l-1.73,1.8c-7.48-7.16-22.1-25.08-21.28-24A21.85,21.85,0,0,1,125,195.42c5.56,1,16.11,3.74,16,10.29S137.28,218.8,137.28,218.8Z"/><path class="cls-8" d="M147.18,217.3a1.64,1.64,0,0,0-.1-.4,6.73,6.73,0,0,0-.47-1.07,9.91,9.91,0,0,0-2.85-3.21,18.65,18.65,0,0,0-5.73-2.76c-2.28-.74-4.85-1.32-7.37-2.4a33.51,33.51,0,0,1-6.74-3.77,34.86,34.86,0,0,1-4.75-4.16,36,36,0,0,1-2.75-3.26l-.68-.94a1.57,1.57,0,0,0-.26-.31,2.49,2.49,0,0,0,.2.35c.14.23.34.57.63,1A31.86,31.86,0,0,0,119,199.7a33.11,33.11,0,0,0,4.74,4.25,32.59,32.59,0,0,0,6.79,3.83,74.9,74.9,0,0,0,7.41,2.39,18.82,18.82,0,0,1,5.69,2.65,10.21,10.21,0,0,1,2.87,3.07C147,216.76,147.15,217.31,147.18,217.3Z"/><path class="cls-8" d="M145.2,218.37a3.52,3.52,0,0,0-.27-1.49,6.91,6.91,0,0,0-2.56-3.21,15.43,15.43,0,0,0-5.69-2.23,33.58,33.58,0,0,1-7.06-2.24A30.11,30.11,0,0,1,119,201.06a32.53,32.53,0,0,1-2.41-3.31l-.58-.95a1.62,1.62,0,0,0-.22-.32,1.62,1.62,0,0,0,.16.35l.52,1a28.85,28.85,0,0,0,2.33,3.4,30.21,30.21,0,0,0,4.31,4.34,29.53,29.53,0,0,0,6.36,4,33.14,33.14,0,0,0,7.14,2.23,15.86,15.86,0,0,1,5.62,2.12,7,7,0,0,1,2.58,3.06A9,9,0,0,1,145.2,218.37Z"/><path class="cls-8" d="M137.05,230.34s.58-.12,1.59-.38a9.79,9.79,0,0,0,3.81-2.14A13.75,13.75,0,0,0,146,222.4a23.89,23.89,0,0,0,1.48-7.86,18.52,18.52,0,0,0-1.46-7.83,19.7,19.7,0,0,0-3.54-5.5,32.9,32.9,0,0,0-4.57-4,1.86,1.86,0,0,1,.38.2c.23.15.6.34,1,.65a21.74,21.74,0,0,1,3.4,2.93,19.33,19.33,0,0,1,3.68,5.55,18.6,18.6,0,0,1,1.53,8,23.67,23.67,0,0,1-1.55,8,13.58,13.58,0,0,1-3.72,5.51,9.5,9.5,0,0,1-4,2.07,9.36,9.36,0,0,1-1.2.19A1.28,1.28,0,0,1,137.05,230.34Z"/><path class="cls-5" d="M145.73,314.2l-40.32,5.85a132,132,0,0,1-47.77,4.09l60.67,28.31,24.36.37s7.41,0,8.71-6.47,2.74-26.17,2.74-26.17A53,53,0,0,0,145.73,314.2Z"/><g class="cls-13"><path d="M145.61,331.17a58.72,58.72,0,0,1,.71,12.21,12.11,12.11,0,0,0,3-10.18c-.36-2-1.19-4.18-.14-5.92.7-1.16,2.55-2.5,2.28-3.83,0,0-1.62,0-3.09-.06l-3.63-.12a13.05,13.05,0,0,1,.65,8"/></g><polygon class="cls-11" points="116.99 248.36 136.58 246.24 140.16 249.5 126.18 257.72 120.01 260.92 113.92 259.07 111.99 255.44 116.99 248.36"/><path class="cls-14" d="M90.59,272.21s6.14-11.79,7.66-14.36a20.68,20.68,0,0,1,7.43-6.88L117,248.36s-1.17,5.67,5.87,6.06c9,.5,14.52-8.09,14.52-8.09s10.22,1,13,2.23,10.81,4.53,12,15.14L165.13,281l-21.59,1.65.3,23.06-9.17,7.51s-26.35,9.07-28,9.67c-.8.28-.6-10.92-2.48-20.51l-3.56-8.63a33.59,33.59,0,0,1-2.52-10.85c-.14-2.46-.07-4.32-.07-4.32S92.47,276.71,90.59,272.21Z"/><path class="cls-11" d="M107.6,313.86,143.8,303l-.26-20.31L162,281.27s-1.48,10.53-1.69,15.93c-.31,7.76-4,18.61-6.54,20.91s-47.11,4.81-47.11,4.81Z"/><path class="cls-11" d="M87.07,320.24a1.42,1.42,0,0,0,1.43.7,1.78,1.78,0,0,0,.36-.1c.79-.33.58-2,.58-2l3.86-.94s5.32,2.88,7.3,4.91,6.44-.09,6.44-.09l.95-8.44-7.68-5.93s.47.35-.12-.83-2.81-.54-2.81-.54c-.4-.57-1.89-.68-1.89-.68l-6.24,1.22a4.35,4.35,0,0,0-3,2.23l-2.33,4.42S82.73,317.33,83,318a1.27,1.27,0,0,0,1.53.72s.46,2,1,2a4.27,4.27,0,0,0,1.53-.5Z"/><path class="cls-12" d="M100,313.23c0,.07-.85.06-2.19.22a19.21,19.21,0,0,0-5.07,1.36,17.51,17.51,0,0,0-2.56,1.34c-.73.48-1.49.9-1.7,1.47a.79.79,0,0,0,.13.75,1,1,0,0,0,.51.36,1.83,1.83,0,0,0,.56,0s-.18.19-.6.11a1.13,1.13,0,0,1-.64-.37,1,1,0,0,1-.23-1,2,2,0,0,1,.72-1c.32-.25.67-.51,1-.75a15.62,15.62,0,0,1,2.61-1.4,16.25,16.25,0,0,1,5.19-1.27A7.36,7.36,0,0,1,100,313.23Z"/><path class="cls-12" d="M100.77,317.21c0,.12-2.57.22-5.71.64s-5.64,1-5.67.9a6.37,6.37,0,0,1,1.61-.53,38.39,38.39,0,0,1,8.08-1.09A6.93,6.93,0,0,1,100.77,317.21Z"/><path class="cls-12" d="M87.1,320.08a2.36,2.36,0,0,1-.14-.66,14.77,14.77,0,0,1-.14-1.85,7.36,7.36,0,0,1,.07-1.29,4,4,0,0,1,.52-1.42,8.73,8.73,0,0,1,2.17-2.6,12,12,0,0,1,2.9-1.76,10.71,10.71,0,0,1,2.68-.62c.78-.09,1.41-.12,1.84-.14a2.25,2.25,0,0,1,.68,0,21.4,21.4,0,0,1-2.48.4,11.67,11.67,0,0,0-2.59.69,12.35,12.35,0,0,0-2.78,1.72,8.82,8.82,0,0,0-2.1,2.48,4.81,4.81,0,0,0-.63,2.52C87.07,319.11,87.18,320.08,87.1,320.08Z"/><path class="cls-12" d="M95.31,308c0,.06-.94.16-2.43.45s-3.74.62-4.91,2.72a21.29,21.29,0,0,0-2.79,5.18,12.61,12.61,0,0,0-.42,2.41,2,2,0,0,1-.09-.67,6.51,6.51,0,0,1,.23-1.81,18.69,18.69,0,0,1,2.74-5.34,6.58,6.58,0,0,1,1.13-1.33,4.38,4.38,0,0,1,1.43-.81,13.34,13.34,0,0,1,2.63-.63A9.28,9.28,0,0,1,95.31,308Z"/><path class="cls-12" d="M99.12,321.59a2.26,2.26,0,0,1-.4-.25l-1.12-.77A44.9,44.9,0,0,0,93.24,318h.09l-3.85,1,.12-.18a3.85,3.85,0,0,1,0,1,1.73,1.73,0,0,1-.37,1,1,1,0,0,1-.49.28,1.27,1.27,0,0,1-.55.07,1.55,1.55,0,0,1-1-.46,1.37,1.37,0,0,1-.19-.22l0-.06,0,0h0l.23.06h0l-.12.06-.49.22-.52.17a2.47,2.47,0,0,1-.29.06.66.66,0,0,1-.37-.05,1.23,1.23,0,0,1-.42-.48,3.93,3.93,0,0,1-.23-.52,10.56,10.56,0,0,1-.34-1.09l.24.14a1.49,1.49,0,0,1-1.49-.38,1.16,1.16,0,0,1-.33-.77,3.16,3.16,0,0,1,.08-.76,20.3,20.3,0,0,1,.86-2.89h0c.4-.76.82-1.56,1.25-2.36.26-.51.52-1,.79-1.5a7.66,7.66,0,0,1,.88-1.46,4.28,4.28,0,0,1,1.34-1,5.44,5.44,0,0,1,1.58-.45l5.89-1.13h0a5.22,5.22,0,0,1,1.06.19,1.83,1.83,0,0,1,1,.56l-.23,0a2.2,2.2,0,0,1,2,0,2.57,2.57,0,0,1,1.12,1.51l0-.07,5.29,4.06,1.43,1.13a2.86,2.86,0,0,1,.48.42,3.84,3.84,0,0,1-.53-.35l-1.48-1.06-5.37-4,0,0,0,0a2.23,2.23,0,0,0-1-1.32,1.85,1.85,0,0,0-1.71.06l-.13.07-.09-.12a1.44,1.44,0,0,0-.77-.42,5.56,5.56,0,0,0-1-.18h0l-5.88,1.16a5.27,5.27,0,0,0-1.48.43A4,4,0,0,0,87,309a7.52,7.52,0,0,0-.83,1.39l-.79,1.49-1.25,2.36v0a20.5,20.5,0,0,0-.84,2.82,3.31,3.31,0,0,0-.08.68.82.82,0,0,0,.23.52,1.08,1.08,0,0,0,1.09.27l.2,0,0,.18a8.4,8.4,0,0,0,.32,1,1.86,1.86,0,0,0,.47.81.32.32,0,0,0,.16,0l.24-.05.48-.15.47-.2.11-.06h0c-.21-.05.29.08.24.07h0l0,0,0,.05a1.22,1.22,0,0,0,.15.17,1.27,1.27,0,0,0,.78.37,1,1,0,0,0,.43-.06.69.69,0,0,0,.34-.18,2.4,2.4,0,0,0,.31-1.66v-.14l.13,0,3.86-.91h0l0,0a38.38,38.38,0,0,1,4.32,2.65c.48.35.85.63,1.08.83A2.9,2.9,0,0,1,99.12,321.59Z"/><path class="cls-5" d="M80.3,326.83s-25.54-8-33.56-10.62c-13.81-4.48-22.86,0-25.71,5-3.7,6.41,5.17,18.91,8.59,21.79,10.13,8.51,27.49,9.66,27.49,9.66h0l62.42-.12-18.22-24.71Z"/><path class="cls-2" d="M84.12,338.42a62.32,62.32,0,0,1-30.64-4.17,37.83,37.83,0,0,0-5.11-1.9,14.92,14.92,0,0,0-5.28-.38,5.24,5.24,0,0,0-3.72,1.69c-1.24,1.64-.6,4,.09,5.92A19.39,19.39,0,0,0,42.7,346a15.53,15.53,0,0,0,7.23,4.2,62.6,62.6,0,0,0,16.36,2.35l19-1Z"/><path class="cls-5" d="M47.49,332.36s.14.16.3.5a9.6,9.6,0,0,1,.5,1.52,9.83,9.83,0,0,1-3.1,9.62,8,8,0,0,1-1.29.94,1.56,1.56,0,0,1-.53.25c0-.06.68-.48,1.63-1.4a10.3,10.3,0,0,0,3-9.35C47.78,333.14,47.43,332.38,47.49,332.36Z"/><path class="cls-5" d="M145.49,325.27c-1.48-4.2-1.73-10.38-10.87-13.35s-16.07,2.72-20.76,4.7-30.4,16.06-30.4,16.06-4.83,8.63-3.46,12.44,7.64,7.58,7.64,7.58h28.73c7.42,0,21.21-.25,21.21-.25a84.62,84.62,0,0,0,4.94-9.39l.25-1.24C142.77,340.83,147,329.47,145.49,325.27Z"/><path class="cls-5" d="M129.57,347.09a.87.87,0,0,1-.21.4,5.4,5.4,0,0,1-1,.85,24.37,24.37,0,0,1-4.06,2.27,26.09,26.09,0,0,1-3,1.18,21.4,21.4,0,0,1-3.62.78,70.89,70.89,0,0,1-8.44.34c-6,.09-11.39.32-15.32.27-2,0-3.55-.09-4.65-.21a11.54,11.54,0,0,1-1.25-.17l-.43-.1c0-.05.6.06,1.7.12s2.67.1,4.63.08c3.92,0,9.32-.3,15.31-.4a74.7,74.7,0,0,0,8.4-.29,21.65,21.65,0,0,0,3.57-.73,26.84,26.84,0,0,0,3-1.13,27.34,27.34,0,0,0,4.08-2.14,5.6,5.6,0,0,0,1-.78C129.5,347.23,129.55,347.08,129.57,347.09Z"/><path class="cls-5" d="M87.64,352.7s-.13-.06-.38-.21-.61-.36-1.07-.66a26.3,26.3,0,0,1-3.78-3,11.87,11.87,0,0,1-2.14-2.75,6.45,6.45,0,0,1-.42-4.09,34.24,34.24,0,0,1,3.48-9.37l0,0,0,0c4.7-2.59,10.1-5.53,16-8.7,3-1.58,6-3.22,9.22-4.87,1.6-.82,3.21-1.66,4.91-2.42s3.3-1.65,5-2.51a27.93,27.93,0,0,1,7.42-2.79,18.11,18.11,0,0,1,3.87-.36,17.41,17.41,0,0,1,3.76.55,18,18,0,0,1,6.59,3.14,13.3,13.3,0,0,1,2.39,2.59,15,15,0,0,1,1.54,3c.4,1,.7,2.09,1,3.12a24.81,24.81,0,0,1,.82,3,19.78,19.78,0,0,1-.49,5.88c-.37,1.83-.82,3.54-1.27,5.14-.24.79-.46,1.56-.68,2.31a21,21,0,0,0-.56,2.12v0c-.1.46-.18.85-.26,1.23h0a30,30,0,0,1-3.3,7.16,12.45,12.45,0,0,1-1.75,2.2l.11-.15.34-.41a20.23,20.23,0,0,0,1.2-1.7,31.28,31.28,0,0,0,3.19-7.16h0c.46-.39.37-.78.24-1.24v0a19.65,19.65,0,0,1,.55-2.2l.66-2.31c.44-1.59.88-3.3,1.24-5.12a19.93,19.93,0,0,0,.45-5.77,24.53,24.53,0,0,0-.82-3c-.3-1-.59-2.06-1-3.08a14.25,14.25,0,0,0-1.51-3,12.57,12.57,0,0,0-2.33-2.51,18,18,0,0,0-10.12-3.58,17.28,17.28,0,0,0-3.78.35,27.51,27.51,0,0,0-7.32,2.76c-1.68.85-3.3,1.79-5,2.52s-3.29,1.59-4.89,2.4c-3.19,1.65-6.27,3.28-9.22,4.85l-16,8.65.06-.07A34.48,34.48,0,0,0,80.1,342a6.13,6.13,0,0,0,.37,4,11.45,11.45,0,0,0,2.07,2.73,27,27,0,0,0,3.7,3.05l1,.7Z"/><path class="cls-2" d="M134.41,342s8.55,1,7.79,5.21a7.77,7.77,0,0,1-3.55,5.6l-23.27,0S129.27,351.93,134.41,342Z"/><path class="cls-5" d="M135.24,340a3.18,3.18,0,0,1-.26,1.19,9.65,9.65,0,0,1-1.39,2.59,6.93,6.93,0,0,1-3.28,2.51,18.24,18.24,0,0,0,3-2.75A25.33,25.33,0,0,0,135.24,340Z"/><path class="cls-5" d="M132.26,341.65a5.5,5.5,0,0,1-.82,3,6.55,6.55,0,0,1-1.87,2.46c-.09-.07.75-1.15,1.51-2.65S132.15,341.63,132.26,341.65Z"/><path class="cls-8" d="M143.19,351.68c-.07,0,.48-1.1,1.15-2.89A30.68,30.68,0,0,0,146,334.05c-.25-1.9-.55-3.06-.48-3.08a3.53,3.53,0,0,1,.27.8,18.73,18.73,0,0,1,.49,2.24,28.1,28.1,0,0,1,.18,7.56,27.61,27.61,0,0,1-1.88,7.32,21.37,21.37,0,0,1-1,2.07A3.6,3.6,0,0,1,143.19,351.68Z"/><g class="cls-13"><path d="M138.34,339.78c-.06-.56-.28-1.23-.84-1.35s-1.14.64-1.41,1.28c-3,6.82-12.66,12.14-20.06,12.82a67.75,67.75,0,0,0,10.74-.87,16.44,16.44,0,0,0,8.2-3.75A9.89,9.89,0,0,0,138.34,339.78Z"/></g><path class="cls-5" d="M81.66,330.49a24.22,24.22,0,0,1-4.12-1.56,25.33,25.33,0,0,1-4-1.93,22.92,22.92,0,0,1,4.12,1.56A26.42,26.42,0,0,1,81.66,330.49Z"/><g class="cls-15"><path d="M90,326.9q-16.61-3.18-33.36-5.65l-8.31,2.63c2.33,4.33,6.94,7.09,11.72,8.23s9.79.87,14.68.42c5.4-.5,10.94-1.25,15.63-3.95.36-.21.76-.52.72-.93S90.42,327,90,326.9Z"/></g><path class="cls-2" d="M35.4,293.89l14,30.88a3.62,3.62,0,0,0,3.25,2.13l40.71.53,5.13-2.77-8-.58-12.51-30a2.6,2.6,0,0,0-2.37-1.59l-39-.3A1.23,1.23,0,0,0,35.4,293.89Z"/><path class="cls-5" d="M35.4,293.89a.91.91,0,0,1-.12-.37,1.25,1.25,0,0,1,.38-1.07,1.31,1.31,0,0,1,.79-.34H40l16.34.06,11.36.06,6.34,0,1.67,0a2.78,2.78,0,0,1,1.63.69,3.35,3.35,0,0,1,.93,1.5c.22.53.45,1.05.67,1.59L90.63,324l-.2-.14,7.77.57.27,0,.78.05-.69.38-5.13,2.76-.05,0h-.06l-30.88-.42-6.89-.1c-1.13,0-2.2,0-3.32-.07a3.81,3.81,0,0,1-2.76-1.7c-1.82-3.83-3.33-7.36-4.81-10.6l-6.82-15.27L36,295.35c-.2-.47-.35-.82-.47-1.08s-.14-.38-.14-.38.07.12.19.36.28.61.5,1.06l1.9,4.11,7,15.21c1.48,3.21,3,6.81,4.83,10.53a3.45,3.45,0,0,0,2.5,1.53c1,.05,2.16,0,3.27.05l6.89.08,30.88.38-.11,0,5.14-2.77.09.43-.28,0-7.76-.57h-.14l-.05-.13c-4.15-10-8.08-19.41-11.63-28l-.66-1.59a3.17,3.17,0,0,0-.82-1.36,2.44,2.44,0,0,0-1.4-.59l-1.64,0-6.35-.06-11.35-.11L40,292.27l-2.55,0h-1a1.19,1.19,0,0,0-.74.3,1.2,1.2,0,0,0-.4,1A2.61,2.61,0,0,0,35.4,293.89Z"/><path class="cls-5" d="M89.22,327.37A1.31,1.31,0,0,1,89,327l-.46-1-1.64-3.7c-1.36-3.13-3.21-7.47-5.2-12.29s-3.74-9.2-5-12.39c-.61-1.6-1.09-2.89-1.4-3.79-.14-.42-.26-.76-.36-1s-.11-.37-.09-.38a2,2,0,0,1,.17.35l.42,1c.38.94.9,2.21,1.52,3.75L82.1,309.9c2,4.79,3.77,9.12,5.09,12.33.63,1.54,1.14,2.81,1.52,3.75l.4,1A1.91,1.91,0,0,1,89.22,327.37Z"/><path class="cls-16" d="M64,308.86a2,2,0,1,1-2-2A2,2,0,0,1,64,308.86Z"/><path class="cls-5" d="M103.6,259.19c.06,0-.52,1.13-1.35,3a54.67,54.67,0,0,0-2.67,7.35,52.93,52.93,0,0,0-1.52,7.68c-.24,2-.31,3.23-.38,3.23a3.56,3.56,0,0,1,0-.88c0-.56,0-1.38.12-2.38A42.25,42.25,0,0,1,102,262c.45-.9.84-1.62,1.13-2.1A4.09,4.09,0,0,1,103.6,259.19Z"/><path class="cls-5" d="M165.13,281a2,2,0,0,1-.44.07l-1.3.13-4.84.4L142,282.88l-.21,0v-.22c-.14-2.19-.29-4.52-.44-6.9-.23-4.15-.44-8.11-.5-11.72a16.65,16.65,0,0,1,2.12-9.3,11.52,11.52,0,0,1,4.64-4.46,9.43,9.43,0,0,1,1.65-.63,4.15,4.15,0,0,1,.59-.15c0,.06-.82.23-2.16.93a11.6,11.6,0,0,0-4.45,4.47,16.49,16.49,0,0,0-2,9.13c.09,3.6.3,7.55.54,11.7.14,2.39.28,4.71.42,6.9l-.23-.19,16.56-1.1,4.85-.28,1.3-.05Z"/><path class="cls-5" d="M124.54,295.14a2.64,2.64,0,0,1-.72-.26,6.87,6.87,0,0,1-.81-.41,8.61,8.61,0,0,1-1-.63,14.59,14.59,0,0,1-2.39-2,15.82,15.82,0,0,1-3.76-6.61,15.11,15.11,0,0,1-.52-3.08c0-.45,0-.85,0-1.2a7.09,7.09,0,0,1,.06-.9,2.85,2.85,0,0,1,.14-.76c.09,0-.05,1.1.12,2.83a16.53,16.53,0,0,0,.6,3,16.65,16.65,0,0,0,3.67,6.45,16.11,16.11,0,0,0,2.26,2C123.57,294.63,124.58,295.06,124.54,295.14Z"/><path class="cls-14" d="M213.6,59.89H381.94a13.6,13.6,0,0,1,13.6,13.6V218.75a0,0,0,0,1,0,0H200a0,0,0,0,1,0,0V73.48A13.6,13.6,0,0,1,213.6,59.89Z"/><polygon class="cls-17" points="384.13 219.57 291.25 219.57 291.25 105.51 361.14 105.51 373.54 115.13 384.13 123.38 384.13 219.57"/><polyline class="cls-18" points="361.14 105.51 361.14 123.01 384.13 123.38"/><rect class="cls-2" x="298.59" y="128.87" width="76.58" height="3.44"/><rect class="cls-2" x="298.59" y="135.74" width="76.58" height="3.44"/><rect class="cls-2" x="298.59" y="142.61" width="76.58" height="3.44"/><rect class="cls-2" x="298.59" y="149.48" width="76.58" height="3.44"/><rect class="cls-2" x="298.59" y="156.36" width="76.58" height="3.44"/><rect class="cls-2" x="298.59" y="163.23" width="76.58" height="3.44"/><rect class="cls-2" x="298.59" y="170.1" width="76.58" height="3.44"/><rect class="cls-2" x="298.59" y="176.97" width="76.58" height="3.44"/><rect class="cls-2" x="298.59" y="183.84" width="76.58" height="3.44"/><rect class="cls-2" x="298.59" y="190.71" width="76.58" height="3.44"/><polygon class="cls-17" points="344.21 218.88 251.34 218.88 251.34 119.25 321.22 119.25 333.62 128.87 344.21 137.12 344.21 218.88"/><polyline class="cls-18" points="321.22 119.25 321.22 136.76 344.21 137.12"/><rect class="cls-2" x="258.67" y="142.61" width="76.58" height="3.44"/><rect class="cls-2" x="258.67" y="149.48" width="76.58" height="3.44"/><rect class="cls-2" x="258.67" y="156.36" width="76.58" height="3.44"/><rect class="cls-2" x="258.67" y="163.23" width="76.58" height="3.44"/><rect class="cls-2" x="258.67" y="170.1" width="76.58" height="3.44"/><rect class="cls-2" x="258.67" y="176.97" width="76.58" height="3.44"/><rect class="cls-2" x="258.67" y="183.84" width="76.58" height="3.44"/><rect class="cls-2" x="258.67" y="190.71" width="76.58" height="3.44"/><rect class="cls-2" x="258.67" y="197.58" width="76.58" height="3.44"/><rect class="cls-2" x="258.67" y="204.45" width="76.58" height="3.44"/><text class="cls-19" transform="translate(214.81 79.74)">PR<tspan class="cls-20" x="16.44" y="0">E</tspan><tspan x="23.93" y="0">CIO</tspan></text><text class="cls-21" transform="translate(209.66 97.14)">3,<tspan class="cls-22" x="15.88" y="0">0</tspan><tspan x="28.56" y="0">0€</tspan></text><rect class="cls-9" x="339.98" y="73.94" width="75.77" height="19.55" rx="9.78"/><text class="cls-19" transform="translate(352.71 88.06)">VENDER</text></g></g></svg>