<svg xmlns="http://www.w3.org/2000/svg" viewBox="0 0 194.17 61.27"><defs><style>.cls-1{fill:#e4122c;}.cls-2{fill:#183d6b;}.cls-3{fill:#e30613;}</style></defs><g id="Capa_2" data-name="Capa 2"><g id="Capa_1-2" data-name="Capa 1"><g id="Capa_2-2" data-name="Capa 2"><g id="Capa_1-2-2" data-name="Capa 1-2"><path class="cls-1" d="M24.81,44.12l3.48-3.48.13-.13a.33.33,0,0,0,.13-.26V30.74a8.16,8.16,0,0,0-8.14-8.14h-9.2a.35.35,0,0,0-.35.34V41.79A5.19,5.19,0,0,0,16,47H17.6a.35.35,0,0,0,.35-.34V30a.35.35,0,0,1,.34-.35h2.12a1.08,1.08,0,0,1,1.06,1.06v15.9a.34.34,0,0,0,.34.34h1.9a.34.34,0,0,0,.34-.36v0A2.73,2.73,0,0,1,24.81,44.12Z"/><path class="cls-1" d="M49.16,22.61H40a8.16,8.16,0,0,0-8.14,8.14v9.4a.37.37,0,0,0,.13.27,2.75,2.75,0,0,1,.26.22l3.47,3.48a2.75,2.75,0,0,1,.75,2.54.34.34,0,0,0,.26.4h4.68a8.15,8.15,0,0,0,8.15-8.15h0V23a.35.35,0,0,0-.3-.39ZM42.42,38.92a1.05,1.05,0,0,1-1,1.08H39.24a.35.35,0,0,1-.35-.35v-8.9A1.07,1.07,0,0,1,40,29.69h1.79a.71.71,0,0,1,.71.71h0Z"/><path class="cls-1" d="M34.37,45l-2.56-2.55-.72-.73a1.2,1.2,0,0,0-1.7,0l-.84.85L26.11,45a1.55,1.55,0,0,0-.18,2h0l3.32,4.87a1.21,1.21,0,0,0,1.66.34,1.22,1.22,0,0,0,.34-.34l3.26-4.78.06-.09A1.55,1.55,0,0,0,34.37,45Z"/><path class="cls-1" d="M46.05,15.26l-1-.1h0a.32.32,0,0,1-.31-.34v-5a.35.35,0,0,0-.33-.34h-1.1c-.34,0-7.82-.24-13.18,3.64a.33.33,0,0,1-.4,0c-5.42-4-12.93-3.75-13.28-3.74H15.3a.35.35,0,0,0-.33.34v5a.35.35,0,0,1-.31.34h-.07l-1,.11a.35.35,0,0,0-.31.34v4.9a.35.35,0,0,0,.35.34h2.28a.35.35,0,0,0,.35-.34V18.36A.34.34,0,0,1,16.6,18h0c2.83,0,8.56.42,11.73,3.84l.24.27H31.1l.11-.11.1-.12c3.17-3.42,8.9-3.9,11.69-3.85a.34.34,0,0,1,.34.34h0V20.5a.35.35,0,0,0,.35.35H46a.35.35,0,0,0,.35-.35V15.61A.36.36,0,0,0,46.05,15.26ZM28.3,17.38a.34.34,0,0,1-.34.34.37.37,0,0,1-.18,0,20.86,20.86,0,0,0-9.51-2.59.34.34,0,0,1-.32-.34v-2a.34.34,0,0,1,.33-.35h0c2.41.18,6.74.84,9.86,3.28a.35.35,0,0,1,.13.27Zm13.36-2.61a.34.34,0,0,1-.32.34,21.12,21.12,0,0,0-9.51,2.59.34.34,0,0,1-.47-.11.37.37,0,0,1-.05-.18V16a.37.37,0,0,1,.13-.27c3.12-2.44,7.45-3.1,9.86-3.27a.33.33,0,0,1,.36.3v2Z"/><path class="cls-2" d="M46.82,60.37H13.55A13.57,13.57,0,0,1,0,46.82V13.55A13.57,13.57,0,0,1,13.55,0H46.82A13.57,13.57,0,0,1,60.37,13.55V46.82A13.57,13.57,0,0,1,46.82,60.37ZM13.55,5.09a8.46,8.46,0,0,0-8.46,8.46V46.82a8.46,8.46,0,0,0,8.46,8.46H46.82a8.46,8.46,0,0,0,8.46-8.46V13.55a8.46,8.46,0,0,0-8.46-8.46Z"/><path class="cls-2" d="M114.73,45.29H103.86V27a8.57,8.57,0,0,1,8.57-8.57H123.3v18.3A8.57,8.57,0,0,1,114.73,45.29Zm-3.09-7.78h3.09a.79.79,0,0,0,.79-.79h0V26.61a.43.43,0,0,0-.41-.41h-2.68a.79.79,0,0,0-.79.79h0Z"/><path class="cls-2" d="M148.54,23.7a5.27,5.27,0,0,0-5.27-5.29H126.9v7.78h7v19h7.79v-19h6.8Z"/><path class="cls-2" d="M163.57,18.4v8.17h-3.64V18.4h-7.78V39a6.16,6.16,0,0,0,6.15,6.17h1.63V34.36h3.64V45.2h7.79V18.4Z"/><path class="cls-2" d="M193.92,18.41h-7.78v8.16h-3.4V18.41H175v9.2a6.75,6.75,0,0,0,6.75,6.75h4.43v2.35a.79.79,0,0,1-.79.79h-4.66A5.75,5.75,0,0,0,175,43.23v2.05h10.39A8.57,8.57,0,0,0,194,36.71Z"/><path class="cls-2" d="M69.42,30.9V45.2H77.2V25.53H74.79a5.36,5.36,0,0,0-5.37,5.37Z"/><path class="cls-2" d="M91.7,18.41H80.84V39.87a5.33,5.33,0,0,0,5.33,5.33h2.45v-19H91.7a.79.79,0,0,1,.79.79h0V45.2h7.78V27a8.57,8.57,0,0,0-8.55-8.59Z"/><path class="cls-2" d="M73.28,22.44a3.68,3.68,0,1,0-3.68-3.68,3.68,3.68,0,0,0,3.68,3.68Z"/></g></g><path class="cls-3" d="M152.09,60.05c0,.06-.05.12-.07.17s-.05.11-.08.17a1.39,1.39,0,0,1-1.28.88,1.36,1.36,0,0,1-1.31-.79,3.28,3.28,0,0,1-.33-.92,6.25,6.25,0,0,1-.13-1c-.1-.95-.17-1.93-.2-2.95s0-2,0-3a23.15,23.15,0,0,1,.37-2.94,13,13,0,0,1,.8-2.67l.18-.38c.07-.13.14-.25.23-.39a1.17,1.17,0,0,1,.44-.42.9.9,0,0,1,.61-.06,1.2,1.2,0,0,1,.58.31.94.94,0,0,1,.25.57,7.53,7.53,0,0,1,0,1c0,.32-.05.63-.06.94s0,.4,0,.59a2.52,2.52,0,0,0,0,.61,10.42,10.42,0,0,1,2.36-2.19,8.05,8.05,0,0,1,2.92-1.21,3.3,3.3,0,0,1,1.95.12,2.65,2.65,0,0,1,1.25,1.06,3.66,3.66,0,0,1,.54,1.64A5.07,5.07,0,0,1,161,51a4.55,4.55,0,0,1-.48,1.14,5.44,5.44,0,0,1-.71.93,6.62,6.62,0,0,1-.88.79c-.31.24-.63.47-.95.7a5.33,5.33,0,0,1,.92.27,4,4,0,0,1,1.86,1.58,2.36,2.36,0,0,1,.33,1.11,2.06,2.06,0,0,1-.24,1,3,3,0,0,1-.67.89,3.62,3.62,0,0,1-1,.65,3.57,3.57,0,0,1-1.2.33,13.63,13.63,0,0,1-3,0C154,60.38,153,60.24,152.09,60.05ZM152,58a4.41,4.41,0,0,0,1,.2c.4,0,.8.07,1.22.08s.83,0,1.23,0l1-.06a3.19,3.19,0,0,0,1.1-.28.85.85,0,0,0,.48-.47.63.63,0,0,0-.17-.58,2.52,2.52,0,0,0-.88-.62,6.25,6.25,0,0,0-1.2-.41,10.61,10.61,0,0,0-1.37-.24,10.74,10.74,0,0,0-1.37-.09c-.45,0-.86,0-1.23,0,0,.43.05.85.08,1.25Zm.28-4.44h1.17a8.77,8.77,0,0,0,1.15-.09,5.67,5.67,0,0,0,1.08-.26,3.86,3.86,0,0,0,1-.53,4.22,4.22,0,0,0,.91-.93,3.22,3.22,0,0,0,.52-1.15,1.93,1.93,0,0,0,0-1.3,1.25,1.25,0,0,0-.71-.63,1.85,1.85,0,0,0-1,0,3.2,3.2,0,0,0-1.1.49,4.82,4.82,0,0,0-1,.92,9.36,9.36,0,0,0-.81,1.14,12.17,12.17,0,0,0-.65,1.23C152.59,52.8,152.43,53.18,152.3,53.54Z"/><path class="cls-3" d="M165.45,56a1.7,1.7,0,0,0,.56,1,1.38,1.38,0,0,0,1.08.25,4.31,4.31,0,0,0,1.19-.35c.38-.17.74-.35,1.1-.53a1.59,1.59,0,0,1,.85-.15,1.31,1.31,0,0,1,.76.33,1.34,1.34,0,0,1,.41.7,1.58,1.58,0,0,1-.05.86,2.45,2.45,0,0,1-.68,1,4.21,4.21,0,0,1-1,.67,6,6,0,0,1-1.18.39,7,7,0,0,1-1.11.17,4.41,4.41,0,0,1-4.6-2.72,5,5,0,0,1-.42-1.79,5.72,5.72,0,0,1,.2-1.88,4.92,4.92,0,0,1,.89-1.73,6,6,0,0,1,1.75-1.51,5.17,5.17,0,0,1,2.08-.69,3.84,3.84,0,0,1,1.51.14,2.9,2.9,0,0,1,1.08.64,2.32,2.32,0,0,1,.61,1,2.36,2.36,0,0,1,.08,1.12,3,3,0,0,1-.48,1.16,3.34,3.34,0,0,1-1.07,1,5.38,5.38,0,0,1-1.69.67A15.8,15.8,0,0,1,165.45,56Zm-.15-1.63a7.38,7.38,0,0,0,1.55,0,2.92,2.92,0,0,0,1.21-.38,2,2,0,0,0,.74-.63,1,1,0,0,0,.19-.67.7.7,0,0,0-.39-.49,1.47,1.47,0,0,0-.93-.12,1.89,1.89,0,0,0-.76.25,3.73,3.73,0,0,0-1.27,1.23A2.55,2.55,0,0,0,165.3,54.38Z"/><path class="cls-3" d="M177.93,52.45h.51c.2,0,.4,0,.6,0a5.16,5.16,0,0,1,.58.06,1.34,1.34,0,0,1,.44.14,1.15,1.15,0,0,1,.5.42,1,1,0,0,1,.19.54,1.19,1.19,0,0,1-.13.57,1.14,1.14,0,0,1-.47.45,1.5,1.5,0,0,1-.48.19l-.59.11-.6.06L178,55a5.43,5.43,0,0,0,.25,2.07,4.37,4.37,0,0,0,.76,1.3l.5.57a1.62,1.62,0,0,1,.32.59,1.1,1.1,0,0,1-.05.76,1.2,1.2,0,0,1-.45.56,1.39,1.39,0,0,1-1.2.17,3.1,3.1,0,0,1-1.11-.58,3.71,3.71,0,0,1-.86-1,7.91,7.91,0,0,1-.6-1.36,8.06,8.06,0,0,1-.35-1.43,7.62,7.62,0,0,1-.09-1.3h-1.46a1.17,1.17,0,0,1-.75-.31,1.12,1.12,0,0,1-.33-.69,1.17,1.17,0,0,1,.18-.74,1.2,1.2,0,0,1,.63-.46,4.85,4.85,0,0,1,.49-.11l.49-.07.32-.07.33-.07c0-.33.07-.72.12-1.19s.11-1,.18-1.46.16-1,.26-1.48a6.52,6.52,0,0,1,.38-1.24,1.73,1.73,0,0,1,.74-.88,1.4,1.4,0,0,1,.89-.17,1.2,1.2,0,0,1,.73.47,1.51,1.51,0,0,1,.24,1c0,.27-.07.59-.14.94s-.13.72-.2,1.11-.14.81-.2,1.23A9.07,9.07,0,0,0,177.93,52.45Z"/><path class="cls-3" d="M192.24,51.63a.91.91,0,0,1,.6-.4,2.2,2.2,0,0,1,.71.06.75.75,0,0,1,.62.77,2.74,2.74,0,0,1-.09.66c-.09.43-.2,1-.33,1.63a18.22,18.22,0,0,0-.27,2,13.09,13.09,0,0,0,0,2,3,3,0,0,0,.44,1.5.63.63,0,0,1,.1.49.93.93,0,0,1-.22.43,1.17,1.17,0,0,1-.42.29,1,1,0,0,1-.46.09,1.7,1.7,0,0,1-1-.36,2.41,2.41,0,0,1-.65-.76,4.32,4.32,0,0,1-.38-1,8.45,8.45,0,0,1-.19-1.12c0-.37,0-.73,0-1.07s0-.63,0-.87c-.37.37-.73.75-1.07,1.12s-.68.74-1,1.09a14.54,14.54,0,0,1-1.07,1,10.11,10.11,0,0,1-1.18.85,2.9,2.9,0,0,1-2.24.31,3,3,0,0,1-1.75-1.44,4.31,4.31,0,0,1-.5-3.15A8.42,8.42,0,0,1,183.55,52a7.79,7.79,0,0,1,3.38-2.31,4.15,4.15,0,0,1,1.61-.28,4.85,4.85,0,0,1,1.61.32A3.61,3.61,0,0,1,192,51.3,1.62,1.62,0,0,0,192.24,51.63Zm-1.64,2a2.69,2.69,0,0,0-1.26-1,2.31,2.31,0,0,0-1.3-.05,3.25,3.25,0,0,0-1.23.67,5.94,5.94,0,0,0-1,1.14,5.7,5.7,0,0,0-.69,1.4,4,4,0,0,0-.22,1.44.94.94,0,0,0,.11.51.41.41,0,0,0,.29.19.85.85,0,0,0,.4,0,3.11,3.11,0,0,0,.45-.22,9.84,9.84,0,0,0,1.27-.88c.38-.32.76-.66,1.11-1s.71-.71,1.05-1.08S190.24,54,190.6,53.67Z"/></g></g></svg>