<svg xmlns="http://www.w3.org/2000/svg" viewBox="0 0 513.31 508.66"><defs><style>.cls-1{fill:#34567e;}</style></defs><g id="Capa_2" data-name="Capa 2"><g id="Capa_1-2" data-name="Capa 1"><path class="cls-1" d="M89.13,35.07c-.82.47-.19.65,2.22-.26l1.51-1.22Z"/><path class="cls-1" d="M105.91,30.57c2.78-1.23,5.94-2.83,3.88-2.81-2.65,1.54-3.45,1.45-6.26,3.24-2.41.92-4.31,1.27-4,.9-.81.45-3.84,1.17-5,2A52.1,52.1,0,0,0,106,30.1C106.91,29.94,106.08,30.39,105.91,30.57Z"/><path class="cls-1" d="M352.66,14.27l-1.53-.54C351.54,13.9,352.07,14.08,352.66,14.27Z"/><path class="cls-1" d="M472,107.83c-.61-1-.93-1.39-1-1.4C471.57,107.33,472.05,108.09,472,107.83Z"/><path class="cls-1" d="M483.56,131.56l-.59-1.44A7.31,7.31,0,0,0,483.56,131.56Z"/><path class="cls-1" d="M352.66,14.27c1.3.46,2.58,1,3.87,1.5C356.87,15.67,354.58,14.91,352.66,14.27Z"/><path class="cls-1" d="M138.66,18.88c-.83.26-1.52.51-2.14.77l2-.63A.76.76,0,0,1,138.66,18.88Z"/><path class="cls-1" d="M285.34,3.07,284.08,3c-.37.06-.72.13-1.06.22Z"/><path class="cls-1" d="M232.88,4.25a3.14,3.14,0,0,0,2-.94,9.8,9.8,0,0,1-2.55.59C232.31,4,232.47,4.12,232.88,4.25Z"/><path class="cls-1" d="M150.67,18l-1.41.47Z"/><path class="cls-1" d="M322.59,7.55a1.2,1.2,0,0,0,.44.29C323,7.77,322.87,7.67,322.59,7.55Z"/><path class="cls-1" d="M192.43,39.44s0,.06,0,.09C192.74,39.42,192.83,39.36,192.43,39.44Z"/><path class="cls-1" d="M253.68,36.55h-.84a.65.65,0,0,0-.2.31Z"/><path class="cls-1" d="M496.52,177.88l0-.21C496.16,176.43,496.32,177.14,496.52,177.88Z"/><path class="cls-1" d="M305.06,503.83c5.06.36-8.2.86-.58,1.22C303.77,504.86,311.35,504,305.06,503.83Z"/><path class="cls-1" d="M140,18.6l2.09-.58C141.14,18.26,140.49,18.44,140,18.6Z"/><path class="cls-1" d="M304.48,505.05h0l.78,0Z"/><path class="cls-1" d="M508.19,288.63a6.18,6.18,0,0,0,.29-1.13C508.42,287.54,508.34,287.8,508.19,288.63Z"/><path class="cls-1" d="M502.86,205.7l.26,2.05C503,206.93,503,206.28,502.86,205.7Z"/><path class="cls-1" d="M504.94,331.62a25.34,25.34,0,0,0-.56,3c.05-.13.1-.27.15-.44A12.52,12.52,0,0,1,504.94,331.62Z"/><path class="cls-1" d="M493.74,375c.13-.21.27-.49.4-.74l.46-1.34Z"/><path class="cls-1" d="M69.44,99.54a9.38,9.38,0,0,1,1.9-1.05C70.55,98.67,75.41,94.05,69.44,99.54Z"/><path class="cls-1" d="M138.77,19.18A3.32,3.32,0,0,1,140,18.6l-1.44.42C138.45,19.13,138.45,19.22,138.77,19.18Z"/><path class="cls-1" d="M509,334.18c-.45,2.37-.84,4.76-1.4,7.11C508.1,339.32,508.56,336.73,509,334.18Z"/><path class="cls-1" d="M31.22,402.73q-.51-.68-1-1.38A7.28,7.28,0,0,0,31.22,402.73Z"/><path class="cls-1" d="M502.56,362.22c-.56,1.19-1,2.48-1.52,3.82a6.26,6.26,0,0,0-.12.84C501.54,365.35,502,363.78,502.56,362.22Z"/><path class="cls-1" d="M71.35,98.48h0Z"/><path class="cls-1" d="M109.09,69.21c-6,3.53-2.43,2.28-3.47,3.4-1.75,1.08-2.82,1.77-3.51,2.16a2.61,2.61,0,0,1-1.16.46c-.35,0-.15-.49-1.44.11-2.15,1.44-3.88,3-5.52,4.29s-3.12,2.63-4.68,3.75c-.3.07-.93.48-.31-.16-2.06,1.81-5.22,4.32-8.45,6.92-1.58,1.35-3.18,2.72-4.66,4a52.19,52.19,0,0,0-3.8,3.88,3.29,3.29,0,0,1-.74.42c1-.41,1.38-.24,1.41.1-2.31,2-3.83,4.26-5,4.71A9.92,9.92,0,0,0,69.62,101l-2.17,2.4c-2.57,1.53,3-3.25,2.65-3.62-4.41,4.54-9.16,10.16-12.43,13.7-.58.17,1.22-2,2.65-3.62s2.44-2.68,0-.54c1.8-1.74,3.55-3.53,5.4-5.22-1.23.8-1.6,1-1.59.94a4.72,4.72,0,0,1,.85-.93c.86-.83,1.77-1.71-.53-.27a93.93,93.93,0,0,0-7.13,7.7c-1.78,2.12-3.56,4.23-6.73,8-1.12,2,.9-.22-.21,1.74-2,2.85-3.48,4.8-4.69,6.2s-2.06,2.35-2.89,3.17a24.29,24.29,0,0,0-5.41,7.54c-.53,1.24-.76,2.19-1.37,3.58a36,36,0,0,1-3.58,6.3l.59-2.54c-.61,1-1.1,1.89-1.49,2.61s-.65,1.34-.88,1.85c-.44,1-.66,1.71-.9,2.38-.44,1.38-1.1,2.69-3.46,7.1a33.43,33.43,0,0,1,1.63-3.92c.66-1.32,1.16-2.27.78-1.66a14.73,14.73,0,0,0-2.42,4.77,16.19,16.19,0,0,1-1.43,4l-1.07.64A239.35,239.35,0,0,0,13,194.09c0-.65.34-2.56-.62-.1a416.52,416.52,0,0,0-9.73,42.89c-.09,1.75,0,3.51-.06,5.26-.15,1.21-.52,2.21-.48.89-.84,5.27.33.32.27,2.88-.31,3-.8,4-.75,2-.14,2.35-.2,5.21-.35,8.31-.06,1.55-.18,3.16-.22,4.81s-.08,3.33-.13,5l-.18,5C.65,272.77.65,274.41.6,276c-.08,3.16-.25,6.09-.41,8.56-.08-.64-.11-1.28-.16-1.93a40.63,40.63,0,0,0,.53,8.14c.15,1.05.29,2.08.37,3.29,0,.61,0,1.26,0,2s0,1.52,0,2.42l-.19-1.37c.1,2.09.21,4.21.31,6.34s.2,4.27.46,6.4.44,4.27.66,6.38c.12,1.06.19,2.11.35,3.15s.31,2.08.46,3.11c.3,2.06.59,4.09.87,6.07s.69,3.9,1,5.78.63,3.68.9,5.43.66,3.39.93,5c1.23,2.18,4,16.16,5.66,16.76,1.34,4.6,1.64,6.31,2.33,8.41.33,1.05.72,2.22,1.32,3.91s1.37,3.94,2.77,7c1.52,3.3,2.88,4.61,5.14,8.45l-.49.39c1.16,1.68,2.24,3.38,3.45,5l1,3.14,2.29,3.51c-.83-1.45-1.59-3.19-1.3-3.06.92,1.35,1.79,2.95,2.79,4.45s1.91,3,2.72,4.42,1.51,2.6,2,3.45a5.65,5.65,0,0,1,.77,1.51c3.16,4.1,6.6,8,10.09,11.78-.45-.07-2.17-2-3.59-3.5,1.44,1.5,2.18,2.34,2.58,2.86a1.88,1.88,0,0,1,.5.83c.06.33.07.6,2.84,3.22-.58-.85.64.16.85.2,2.21,3.1,8.35,9.16,13.21,13.28l-1.19-.51a199,199,0,0,0,29.86,22c-1.93-1.28-2.52-2-2.28-2.09s1.35.43,3,1.35l1,1.33c2.29.9-3.25-2.24,1.29-.09,4.06,2.53,2.39,2.3-.09,1.06,1.72.93,3.4,1.91,5.16,2.76.2.33-1-.24-1.49-.2a42.83,42.83,0,0,1,5.55,3.17,29.87,29.87,0,0,0,6.44,3.18l.2.33c2.85,1.5,5.42,2.58,7.7,3.66s4.38,1.91,6.4,2.76,4,1.66,6,2.44,4.23,1.68,6.69,2.56c.4-.47,4.18,1.08,7.27,1.69a247.62,247.62,0,0,0,24.14,8c6.36,1.36,2,0,4.86.42.32.67,9.32,2.71,4.58,2a276.28,276.28,0,0,0,27.71,5.07c-1.46-.47-3.13-.85-2.23-.87,2.51.37,5.66,1.15,5.27,1.34l-.68-.05c7.82.9,16.75,2.44,25.34,3.69s16.83,2.17,23.11,2h-.71c4.34.08,8.66.11,13,.08,6,.31-3.59.25.81.74,14-.42,22.13.53,33.65-.31,4.48.64,12.41.33,20.71-.35,4.15-.35,8.39-.77,12.38-1.22s7.7-1.08,10.74-1.44l-.76-.22c3-1,3.77-.56,6.05-1-.38-.19-3.39.44-1.53-.17,6.46-1.57,13-3.38,19.43-5.48s12.94-4.46,19.3-7.13a200.6,200.6,0,0,0,36.35-19.65,30.56,30.56,0,0,0,4.16-3.3,28.1,28.1,0,0,0,2-2.15,18.48,18.48,0,0,1,2.37-2.39c.57-.49,1.28-1,2.15-1.72s1.9-1.49,3.17-2.42l-2.31,2.81A262.89,262.89,0,0,0,460,440.92a153.75,153.75,0,0,0,17.87-24.39,11.81,11.81,0,0,1-1.41,2.81,56.73,56.73,0,0,0,5-7.8c1.59-2.94,2.73-5.53,2.59-5.65,1.53-2.65.67-.44,1.74-2a60.2,60.2,0,0,0,3.08-6.38,30.06,30.06,0,0,1,2.37-5.09c.23-.31-.35,1.13-.63,1.84.44-1.3,1.86-4.13,2.75-6.48s1.57-4,.82-2.94c1.59-3.34,2.65-6.72,3.79-9.86s1.95-6.19,3-8.93a60.35,60.35,0,0,1,2-7.65c.82-2.7,1.36-5.15,1.11-5.84.18.19.52-.49.92-1.69a41,41,0,0,0,1.28-4.81,85.81,85.81,0,0,0,1.75-10.59c0,1.58,1-3.94,1-2.08l.61-3.78c.17-1.17.26-2.25.33-3.13.14-1.77.12-2.76-.17-2.34,1.27-4.76,1.48-9.7,1.77-14.07s.27-8.21,1.18-10.92a434.57,434.57,0,0,0-1.2-44.43c.46.22.69,4.13.92,7.89s.25,7.4.73,7.09c-.7-13.44-2-21.1-3.1-34.35-.25-3.43.6,1.91.88,3-.93-6.64-1.52-13.09-2.44-19.32-.44-3.11-.78-6.2-1.33-9.21s-1.06-6-1.66-8.89a14.89,14.89,0,0,1,.65,2.46c-.41-2.32-.75-5.42-1.11-5.09l.48,2.24c0,1.9-.66-.35-1.42-3.11s-1.65-6-1.84-6.19c1.89,3.7-1.87-11.6.75-5.67-.34-1.51-.93-3.37-1.13-3-.4-2.26-.39-3,.39-.79-2-8.19-1.76-5.17-3.33-12.62.2,0,.59,1.47,1,2.19a118.16,118.16,0,0,1-3.77-13.66c.2.35.18-.41.62,1.46-.68-2.68-1.23-5.16-2.05-7.58s-1.64-4.63-2.54-6.9c-1.79-4.53-3.76-9.1-6.06-14.73,1.12,1.46.76.49.18-1s-1.45-3.37-1.25-3.82c-1-1.94-2-3.88-3.11-5.78.29.84.59,1.66.87,2.51-2.55-5.15-5.48-9.31-7.77-13.68.83,1.16,1.61,2.35,2.4,3.54-.89-1.55-1.82-3.09-2.76-4.61s-1.9-3-2.87-4.54c1,1.76,2,3.53,2.93,5.33-3.32-4.76-.45,1-4.29-5.57.9,1.26-3.05-4.81-4.44-7.48v0c-1.8-2.2-3.7-4.4-6.11-7.87-.48-1,1.2.2.89-.46-1.1-.92-3.17-3.56-5.41-6.18-1.1-1.33-2.27-2.62-3.32-3.74a22.91,22.91,0,0,0-2.71-2.61c.92.77,1.24.56,1.05.22l-2-1.4c-1.67-2.06-1.87-2.4-1.35-2.3-5.44-5.84,1.08,2.46-5.19-4.62.54.5.35.19,1.48,1.25-6.5-7-13.48-12.47-20.16-18.06-1.55-2.21,6.07,4.63,4.17,2.3a182.06,182.06,0,0,0-15.74-11.22c-1.34-.91-2.75-1.71-4.11-2.57S405,36,403.61,35.23c-2.75-1.58-5.41-3.23-8.07-4.7l1.94,1.17c-1,.05-2.91-1.16-5.29-2.7A52.09,52.09,0,0,0,384,24.59c1.4.57,2,.35,1.62.27-7.46-3.78-15.64-7-27.69-10.72l1.57.24c-2.3-.88-5.34-2-8.5-2.93L346.34,10c-1.51-.46-3-.81-4.24-1.19-1.59-.13-4.52-.93-2.83-.09A57.91,57.91,0,0,0,333.46,7c-1.94-.51-3.86-1-5.78-1.41s-3.84-.69-5.74-1-3.79-.62-5.67-.81c-3.77-.42-7.46-.92-11.13-1.26q-2.75-.3-5.46-.7c-1.81-.27-3.62-.47-5.41-.79,1.73.14,4.15.09,2.77,0C292.92.74,288.81.4,284.68.35c.95.51,1.61.34,4.17.85a64,64,0,0,1-8.11.09c5.55-.05,0-.74-2.41-1.11.4.16-.43.28-.23.43-6.43-.94-1.1.91-9.88.22l.47-.24c-1.65,0-3.23.16-4.84.28s-3.26.21-5,.21c-1.49-.51,3.49-.31,3.72-.76-2.5.06-5,.35-7.35.58a36.13,36.13,0,0,1-7,.37c2.11-.25,5.15-.41,7.26-.65A61.31,61.31,0,0,0,246.3.49h.36c-2.82,0-5.64.16-8.46.28h2.16a46.87,46.87,0,0,1-9.66,1.55,98.88,98.88,0,0,0-11.25,1.62c8-1.74,1.28-.64,1.83-1.31-2.16,0-5.42.32-4.52,0-3.87,1-6.65.49-12.1,2-.28-.15-4.2.67-3.4,0-5.08,1,1.27.14.87.45-3.87,1-8.54,1.46-13.6,2.32-2.53.4-5.16.83-7.86,1.35a83.26,83.26,0,0,0-8.19,2.07c-9.59,2.43-11.17,3.66-20,6.12-3.08.43,2.29-1.29,2.29-1.29a92.41,92.41,0,0,0-13,3.42c.88-.42-.11-.3-1.55-.14-3.62,1.06-2.26,1.3-7.1,2.45a22.14,22.14,0,0,1,3.4-1.81c-4.23,1.41-8.33,3-12.69,4.5-1.27,0,2.51-1.29,4-2-2.45.82-5.66,1.81-8.39,2.81a35.18,35.18,0,0,0-5.69,2.43L117,26.6c-1.78.6-1.06-.15.24-.67,4.08-1.78,6.16-1.71,6.45-1.6-1,.35-2.07.69-3.1,1.06,1.78.05,4.92-.92,8.41-2.15s7.32-2.72,10.52-3.52l-2.42,1.52,6.34-2.43c1.44-.17,2.51,0-.6,1,4.67-.84,4-1.38,8-2,.45-.05.26,0-.13.18,1.47-.47,2.94-.9,4.42-1.35-.84.38.88.39-1.9.94,8.16-1.49,12.81-3.83,16-3.83l-.66.2c11.16-2.73,1-.83,9.22-3.38,2,0,4,.22,6,.34l1-.82c1.17-.2,3.48-.6,3.1-.27,4.26-1.25-.79-.12,1.66-1,2.84-.31,6.71-1,10.05-1.56s6.13-1,6.84-.6c2-.78-5.44.51.53-.76,1.87.8,7-1.13,12.18-1.36-1.52.75-6.44,1.13-1.22.91,3-1.31,10.1-.93,14.44-1.55.06-.37,2.44-.63,5.71-.91l5.41-.42c1.91-.11,3.87-.22,5.71-.37-.23.15,3.24,0,7.62,0s9.67,0,13.09.21l-.2.12c1.33-.7,8.4-.55,13.54-.37-.22.43-1.15.56-3.94.63l4.82.22a28.36,28.36,0,0,1,5.8-.12l-1.25.45c3.2.24,6.44.34,9.91.5s7.14.6,11.21,1.34C310,5,308.44,4.34,307.87,4s-.09-.71,4.28-.21c.28.32.53.83-1.75.61a32.32,32.32,0,0,1,4.16.51L311,4.81c3.7.76,2-.09,5,.39-.12.39,2.16.61,1.69.86-.77-.08-2.58-.55-3.74-.57,1.67.3,3.52.6,5.09,1a29.79,29.79,0,0,1,3.53,1c-.25-.27.1-.52,2.56-.12,3.17.55,3.66.86,3.85,1s0,.34,1.83.84c1.57.07,5.51,1.22,5.75.69a8.56,8.56,0,0,1,2.75,1.16c1.63.32,5.42,1.19,8.29,2s4.95,1.29,3.25.45l-.81-.28.53.13h0c10.64,2.6,21.34,7.68,31.2,12.08l-.1.17c1.5.61,3,1.34,4.58,2.11l4.62,2.26c3,1.6,5.78,3,7.85,4,1.64,1,3.69,2.63,2.86,2.41,2.17,1.19,3.34,1.9,4.75,2.76a58.74,58.74,0,0,1,5.83,4.1c-2.13-1.28-1.82-1-1.67-.83s.11.09-.22-.15-1-.75-2.45-1.67c5.22,3.72,6.21,4.79,12,8.5-1.1-.49-.21.32,1.21,1.55s3.4,2.82,4.63,3.72l-3.27-3.09c1.36,1.05,2.62,2,3.81,3l3.45,3L428,56.9c2.37,2.24,4.61,4.39,6.86,6.33l3.24,2.93c1.08.93,2.13,1.87,3.12,2.82l3,2.79c.94.94,1.84,1.89,2.72,2.85a44.83,44.83,0,0,1,4.67,6c2.61,2.32-4.39-5.58-2-3.6,3.95,4.57,7,10.14,8.16,11.62,1.2,1.67,2.08,2.9,2.87,3.85s1.48,1.66,2.14,2.4a37.35,37.35,0,0,1,5,6.64c-.2-.53-.31-1.09.09-.87s1.35,1.22,3.16,3.92c3.11,5.21,3,6.88.87,3.7-.75-1.24-1.06-1.87-1-1.85-1.11-1.61-2.55-3.72-1.5-1.56l.62.54,3.15,5.69c1,2,1.73,3.37,1.08,2.62,2.43,3.85,1.3,1.5-.25-1.49,3.49,6.88,5.78,10.59,8.92,17.89-.42-1.2-.66-2.37-.13-1.23,2.29,5.36,2.82,6.53,3.31,7.21s.8.92,2.29,4.59c1.22,4.34-1.32-1.22,1.63,6.15,1.29,4.67-.26,1.16-1.07-.58a45.61,45.61,0,0,1,2.85,9.43c.55,3,.95,5.56,1.38,7.59l-1.06-3.68c.63,2.2,1.06,4,1.5,5.89l0-2.24c.43,2.21.87,4.07.67,4.07.83,2.19.36-1.91,1.82,2.49.39,3,2.15,8.89,1.75,10-1.75-9.28-.41,1.14-2.16-6.65.4,1.49.78,3.33,1.17,5.56,0,.34-.2-.29-.36-.88,1.3,8.94,1.61,3.9,3.32,13.1-.56-1.1-.26,2.26.09,3.74-.68-3.7.26-1.88,1.16,1.48.44,3,.7,4.58,1,5.82s.54,2.13.77,3.68l-.44-3.56c.54,1.14,1,4.11,1.76,8.23-.22.4-.8-3.72-.68-2.23,1.42,4.49.85,10.49,2.17,16.84.13,3-.62.37-.49,3a52,52,0,0,1,.8,7.55c0,1,.09,2,.19,3.26s.21,2.7.46,4.59c.3-2.23.15-2.61,1.05,2.7l-.68-6.23c-.23-2.07-.55-4.14-.82-6.21.52,2.64,1.07,5.28,1.49,7.94-.08-1-.17-1.92-.28-2.87s-.27-1.9-.4-2.79c-.26-1.79-.49-3.39-.57-4.53.8,3.77.64,3.4.84,1.55-.1,5.22,1.41,10.2,1.41,16.22l-1.19-.1c.07,2.25.13,4.37.27,6.46s.33,4.17.54,6.32.33,4.41.46,6.84.22,5.06.14,8c.1-1.25.11-2.5.16-3.76.56,1.56.08,7.21.26,11-.41-.36-.53,2-.83,3.6.3-.18-.35,8.53.39,9.63-.25,1.72-.57,3.44-.86,5.16-.21,2.35-.3,4.19-.32,5.79s-.06,2.92,0,4.25,0,2.65,0,4.2a41.52,41.52,0,0,1-.56,5.58c-.07-2.76-.85,1.28-.41-4.77-.33,3-.84,5.67-.55,5.76a41.14,41.14,0,0,0-.58,5.17,37.77,37.77,0,0,1-1,5.88,16.76,16.76,0,0,1-.36,5.1c-.16.35-.19-.05-.19-.05.19.05-.83,5.26.2,2.44-1.51,4.46-3,10.8-4.63,16.94s-3.55,12.07-5.41,15.7c-1.09,3.11-2.24,6.56-3.61,9.85-.67,1.64-1.27,3.3-2,4.84l-2,4.38c.05-.4-.17-.1.34-1.11a29.45,29.45,0,0,0-2.63,6.29,18.25,18.25,0,0,1-.86,2.49,31.56,31.56,0,0,1-2.42,4.46c-2.89,3.89,2.13-4.53.46-2-.9.25-2.2,2.76-3.83,5.81-.85,1.5-1.77,3.15-2.71,4.73a33.58,33.58,0,0,1-3,4.26l.77-1.31a38.73,38.73,0,0,0-2.29,3.26l-2.55,3.91c-.9,1.41-1.84,2.89-2.93,4.36s-2.18,3.06-3.47,4.55c0,0,.16-.37-.12-.16-.73,1.14-1.69,2.49-2.77,4s-2.41,3-3.74,4.64c-2.7,3.19-5.76,6.46-8.46,9.14,1.35-2,2.3-2.59.9-2-2.42,2.4,1.34-.06-3.55,4.7-.91.64-2.32,1.74-3.61,2.68a10,10,0,0,1-2.93,1.64l2.43-2.08,2.37-2.15a31,31,0,0,0-4.53,3.61A52.14,52.14,0,0,1,433,460.9l.14-.51c-3.78,3.11-5.69,4.69-7.64,6.41A75.36,75.36,0,0,1,417,473l1.05-.4a16.3,16.3,0,0,1-4.42,3,25.12,25.12,0,0,0-4.57,2.7l-1.9.18c-.79.53-1.92,1.19-3.23,2s-2.82,1.72-4.44,2.63c-3.22,1.86-6.87,3.75-10,5.21,3.34-2.05,10.39-5.81,14.54-8.5-1.64.91-4.48,2.38-7.11,3.77s-5.09,2.63-5.91,3.19c1.36-.68,3-1.69,4.41-2.22a83.39,83.39,0,0,1-16.42,8c.35-1-4.25.73-9.73,2.44s-11.84,3.46-14.63,3.5a102.93,102.93,0,0,1-19.58,3.71c-6.84.61-14,.9-21.73,1.31,5.55.94-4.53.24-3.53,1.41a39.77,39.77,0,0,1-5.33.15c-3.66-.14-7.33-.32-11-.54-2.61-.33,3.43-.29,3.1-.57-7.92,0-3.33-.49-8.56-.8,1.07.43-2.75.64-7.26.38,2.11.24,4.23.44,6.35.64-11.09.52-9.55-1.11-20.7-.88L270,503c-2.86,0-8.12-.22-13.38-.46s-10.5-.46-13.33-.22c-1-.23-2.3-.69.21-.54-6.8-.66-14.38-1.25-21.58-2a162.22,162.22,0,0,1-19.16-2.93l1.07-.12c-2.52-.34-4.47-.21-7.54-1.13.18-.09,1.06-.09-.09-.34-.68-.08-2.37-.26-4.29-.56s-4.09-.71-5.72-1.15l2.89.28c-1.61-.4-3.14-.74-4.6-1.07s-2.83-.66-4.15-.94l-7.48-1.53-3.54-.69-3.55-.77c-2.39-.54-4.87-1.11-7.55-1.91.14-.42-2.28-1.44-5.32-2.64s-6.73-2.54-9.14-3.55l.21-.05-5.25-1.92L133.77,477c-3.21-1.16-6.2-2.41-9.2-3.56s-5.9-2.47-8.92-3.72l-4.53-2.11c-1.54-.72-3.12-1.45-4.7-2.3-.91-.64-2-1.36-3.25-2.13l-2-1.2-2.11-1.36-4.66-2.91-5-3.3a157.81,157.81,0,0,1-19.1-14.71c1.56,1.52-.72.29-2.72-1.27-2.36-2.38-7.25-5.81-6.3-6l.87.82a33.89,33.89,0,0,0-4.07-4.85c-1.91-1.9-4-4.15-5.75-6.14l-1.38.05c-.51-.72-1.09-1.43-1.64-2.2s-1.11-1.56-1.71-2.35c-1.16-1.6-2.5-3.18-3.74-4.88s-2.54-3.43-3.84-5.14-2.47-3.51-3.7-5.22l-1.77-2.54c-.57-.85-1.08-1.71-1.6-2.54-1-1.66-2-3.24-2.88-4.71a49.07,49.07,0,0,1-3.44-7.45,53.81,53.81,0,0,1-2.63-4.81c-.85-1.68-1.74-3.35-2.54-4.84l.59-.06c-.86-2.18-1.61-4.08-2.31-5.88-.36-.9-.7-1.78-1.05-2.65l-.91-2.65-2-5.73c-.69-2.1-1.38-4.46-2.25-7.23l1.06,2.15a43,43,0,0,0-2.76-6.83,31.42,31.42,0,0,1-2.5-6.58c.12-.65.27-1.3.44-2-2.46-11.19-3.14-22.77-4.72-34,.14.17.4.49.54,2.34L5.39,301c0-1.09-.1-2.22-.15-3.35s-.11-2.26-.11-3.33c-.07-4.29-.28-7.66-.85-6.68.67-.13.07-11.83,0-18.06l.51,1c-.22-2.63-.38-4-.46-5.61a58.72,58.72,0,0,1,.08-7.15c.22-1.73.57-1.48.24.8A29.29,29.29,0,0,0,5,253.32c0-.64,0-1.32,0-2.28a32,32,0,0,1,.45-3.92c0,.88,0,1.76.06,2.63A39.38,39.38,0,0,0,6,241a48.74,48.74,0,0,1,1-7.08,21.36,21.36,0,0,1,1.33-4.86,25.18,25.18,0,0,1,.8-7.54c.27-.42.15.85.09,1.49,1-4.86,1.76-8.47,2.33-11.73a55.45,55.45,0,0,1,2.36-9.35c.22-.09.42-.49.62-1-2.12,7.59-3.43,13.81-3.35,13.21.5.11,2-6.06,1.57-1l.62-4.37,1-5.11c.36-1.76.68-3.57,1.15-5.28s1-3.34,1.47-4.81a4.88,4.88,0,0,1,.4-.73l-.13.63c.48-1.35.77-2.6,1.09-3.76.72-1.84,1.19-3,1.82-4.8a21.58,21.58,0,0,0,1.7-4l2.2-5.72c-.62,0,1-3.8-.87-.35.22-.45-.16.59-.9,2.56-.16.45-.35,1-.44,1.28l0-.22-1.27,3.34c-.43,1.25-.9,2.62-1.39,4.09.27-1.24.56-2.49,1-3.84A31.69,31.69,0,0,1,22,177.74c.26-1.64.56-3.46.77-4.47,1.21-1.86,2.77-4.65,4.12-7.1A35.4,35.4,0,0,1,30,161.3l1.55-3.43c.59-1.15,1.19-2.34,1.79-3.53l1.83-3.61,1.93-3.49,1.82-3.38c.61-1.07,1.19-2.11,1.74-3.09,1.09-2,2-3.73,2.61-5.13A10.87,10.87,0,0,1,46,132.46c-.82,1.36-1.91,2.9-2.28,3.69,2.83-4.73,9.45-13.27,9.82-14.67,4.67-5.16-2,3.43,4-4-.22.37-.45.74-.66,1.12,6.52-6.73,11.52-12.44,17-18.12A98.33,98.33,0,0,1,94.46,83.87a12.82,12.82,0,0,1-2.14,1.23l1.83-1.27L96,82.61l3.75-2.49,3.83-2.41,1.91-1.21,2-1.17L111.38,73l4-2.25c1.32-.76,2.66-1.48,4-2.19s2.69-1.45,4.06-2.14c5.44-2.76,11-5.31,16.58-7.58A169.79,169.79,0,0,1,156.91,53c6.4-1.87,7-2.5,10.76-4l1.55.18c2.18-.83,4.35-1.7,6.55-2.49A81.62,81.62,0,0,1,189.33,44a152.66,152.66,0,0,0,15.54-2.75l-1.66-.14c4.44-.69,14.07-2.23,13.38-1.64a8.22,8.22,0,0,1,3.19-.58l.17.3q5.45-.85,10.94-1.51c4.29-.17,4,.18,4.14.46s.83.47,7,.3c2.31-.14,5.59-.42,8.09-.63s4.17-.38,3.33-.53c-1.85-.09-4.77-.28-4.91-.59,1.42,0,2.84-.09,4.26-.11.39-.45,1.44-.88,1.06-1.33s-2.2-1-7.49-1.25q-3.67.33-7.33.76l-2.38-.35c2.06-.11,4.12-.19,6.18-.26a28.79,28.79,0,0,0-8.2.55,10.42,10.42,0,0,0-3.11-.3c-2.37.45-4.75.94-7.1,1.45-.91-.28,3.15-1-1.69-.77-3.31.75,3.3.48-2.23,1.32-3.52-.06-2.55-.49-6.59.34-.61-.16.24-.43,1.85-.72-3.61.7-9.61,1.39-11.4,2.19-3.7,0-12.15,2.26-12,1.35-1.1.42-6.2,1.95-9.46,2.76,2.88-1.21-.19-.52-3.82.3-1.81.45-3.75.92-5.17,1.19s-2.28.38-2,0a34.7,34.7,0,0,1-4.34,1.68c-1.78.63-3.86,1.26-6,2-4.34,1.41-9.08,3-12.78,4.63a10,10,0,0,1,1.87-.87c-4.3,1.49-5.65,1.65-8.43,2.58-.12.48-1.83,1.38-3.89,2.46s-4.51,2.26-6.14,3.29c-5.37,1.61,2.71-2.23.83-2.17.5.45-8.57,4.59-6.61,4.3-4,1.44-3.4,1.38-5.66,1.78-.21,1.24-3.47,2-6.29,4.18a14.6,14.6,0,0,1-3.75,1.4c-.48.12-1,.32-3.83,2.21C104.06,72.6,109.09,69.21,109.09,69.21Zm-95.95,125h0c.39-1.33.72-2.46.94-3.18C13.87,191.64,13.61,192.56,13.14,194.17Zm-3.58,13c.43-1.58.95-3.56,1.51-5.66.31-.4.37.15,0,1.45C11.15,202.23,10.23,205.27,9.56,207.18Zm12-26a10.18,10.18,0,0,1-1.18,2.87c.33-.94.65-2.06,1.19-3.48,0-.07,0-.19,0-.26A2.65,2.65,0,0,1,21.57,181.23Z"/><path class="cls-1" d="M22.25,177.44c.1-.29.14-.45.28-.82L22,177.74l-.1.76Z"/><path class="cls-1" d="M350.87,13.64l.26.09a4.94,4.94,0,0,1-.54-.24C350.76,13.57,350.76,13.59,350.87,13.64Z"/><polygon class="cls-1" points="23.37 389.76 23.49 389.68 22.82 388.69 23.37 389.76"/><path class="cls-1" d="M278.33.18a3.83,3.83,0,0,0-1-.18C277.41,0,277.82.09,278.33.18Z"/><path class="cls-1" d="M246.3.49c-1.51,0-3,0-4.53.07C243.73.5,245.16.52,246.3.49Z"/><path class="cls-1" d="M221.73,2.34a1.24,1.24,0,0,0-.45.29h.05Z"/><path class="cls-1" d="M506.31,203.43c.05.32.11.64.17.93C507,206.55,506.66,205.06,506.31,203.43Z"/><path class="cls-1" d="M466.18,95c.79,1,1.58,1.9,2.34,3C467.41,96.16,466.47,94.85,466.18,95Z"/><path class="cls-1" d="M509.15,333.39h0l-.14.8Z"/><path class="cls-1" d="M471.47,102.48a40.56,40.56,0,0,0-3-4.55C469.42,99.38,470.51,101.06,471.47,102.48Z"/><path class="cls-1" d="M117.6,25.08l-1.13.34s0,.08-.11.13Z"/><path class="cls-1" d="M116.36,25.55l-1.23.47A6.77,6.77,0,0,0,116.36,25.55Z"/><path class="cls-1" d="M112.53,27l2.6-1A14.44,14.44,0,0,0,112.53,27Z"/><path class="cls-1" d="M149,16.3l.31-.3C149.11,16.1,149,16.19,149,16.3Z"/><path class="cls-1" d="M158.58,13.83c-2.3.53-5.87,1-9,1.93l-.26.24C150.71,15.27,156.49,14.72,158.58,13.83Z"/><path class="cls-1" d="M199.48,8c-2.72.41-5.46.74-8.17,1.23,1.46-.06,3.37-.13-.31.63,2.58-.35,3.75-.46,4.19-.55s.18-.12-.07-.18C194.61,9,194.13,8.82,199.48,8Z"/><path class="cls-1" d="M224.89,4.79c-4.4.58.08.31-.14.46C227.52,4.75,228.2,4.63,224.89,4.79Z"/><path class="cls-1" d="M403.09,37.65l-.65.2C405.36,39.6,402.58,37.69,403.09,37.65Z"/><path class="cls-1" d="M433,56.75c-.76-.84-1.55-1.63-2.33-2.44l-1.52-.69C430.47,54.66,431.78,55.68,433,56.75Z"/><path class="cls-1" d="M445.38,74l-1.05-1L448.27,77C447.32,76,446.34,75,445.38,74Z"/><path class="cls-1" d="M495.85,367.32l.92-.79C497.38,364.31,496.85,363.65,495.85,367.32Z"/><path class="cls-1" d="M417.81,472a33.07,33.07,0,0,0-6.49,3.8C413.9,474.32,416.58,473,417.81,472Z"/><polygon class="cls-1" points="47.28 416.63 49.14 418.55 45.81 414.78 47.28 416.63"/></g></g></svg>