<svg xmlns="http://www.w3.org/2000/svg" viewBox="0 0 31.85 31.85"><defs><style>.cls-1,.cls-2{fill:none;stroke:#fff;stroke-linecap:round;stroke-linejoin:round;}.cls-1{stroke-width:3.31px;}.cls-2{stroke-width:1.21px;}</style></defs><g id="Capa_2" data-name="Capa 2"><g id="Capa_1-2" data-name="Capa 1"><circle class="cls-1" cx="15.93" cy="15.93" r="14.27"/><path class="cls-2" d="M20.13,19.54H11.41L8.88,22.21V12.48a3,3,0,0,1,3-3h8.29a3,3,0,0,1,2.95,3v4.11A3,3,0,0,1,20.13,19.54Z"/><path class="cls-2" d="M12.08,13.1a.19.19,0,1,1-.19-.19A.18.18,0,0,1,12.08,13.1Z"/><path class="cls-2" d="M14.91,13.1a.19.19,0,0,1-.19.19.19.19,0,1,1,0-.38A.19.19,0,0,1,14.91,13.1Z"/><path class="cls-2" d="M17.73,13.1a.19.19,0,1,1-.19-.19A.18.18,0,0,1,17.73,13.1Z"/><path class="cls-2" d="M20.56,13.1a.19.19,0,0,1-.2.19.19.19,0,1,1,0-.38A.19.19,0,0,1,20.56,13.1Z"/><path class="cls-2" d="M12.08,16a.19.19,0,1,1-.19-.19A.18.18,0,0,1,12.08,16Z"/><path class="cls-2" d="M14.91,16a.19.19,0,0,1-.19.19.19.19,0,1,1,0-.38A.19.19,0,0,1,14.91,16Z"/><path class="cls-2" d="M17.73,16a.19.19,0,1,1-.19-.19A.18.18,0,0,1,17.73,16Z"/><path class="cls-2" d="M20.56,16a.19.19,0,0,1-.2.19.19.19,0,0,1,0-.38A.19.19,0,0,1,20.56,16Z"/></g></g></svg>