<svg xmlns="http://www.w3.org/2000/svg" viewBox="0 0 27.4 25.15"><defs><style>.cls-1,.cls-2,.cls-3{fill:none;stroke:#fff;stroke-linecap:round;stroke-linejoin:round;}.cls-1{stroke-width:1.43px;}.cls-2{stroke-width:1.08px;}.cls-3{stroke-width:0.67px;}</style></defs><g id="Capa_2" data-name="Capa 2"><g id="Capa_1-2" data-name="Capa 1"><path class="cls-1" d="M20.23,24.43H.71V7.82A7.11,7.11,0,0,1,7.82.71H21.7a5,5,0,0,1,5,5V18A6.46,6.46,0,0,1,20.23,24.43Z"/><path class="cls-1" d="M6.26,24.43a5.54,5.54,0,0,0,5.55-5.55V11a2.72,2.72,0,0,1,2.72-2.72H26.69"/><polygon class="cls-2" points="17.3 21.82 12.73 23.17 14.08 18.6 18.04 14.64 22 10.69 23.61 12.29 25.21 13.9 21.26 17.86 17.3 21.82"/><line class="cls-2" x1="19.31" y1="13.37" x2="22.53" y2="16.59"/><line class="cls-2" x1="14.08" y1="18.6" x2="17.3" y2="21.82"/><polyline class="cls-1" points="6.78 24.43 6.78 2.91 21.99 2.91 21.99 8.29"/><line class="cls-3" x1="8.45" y1="6.92" x2="20.31" y2="6.92"/><line class="cls-3" x1="8.45" y1="9.92" x2="12.04" y2="9.92"/><line class="cls-3" x1="8.45" y1="12.93" x2="11.57" y2="12.93"/><line class="cls-3" x1="8.45" y1="15.93" x2="11.54" y2="15.93"/><line class="cls-3" x1="8.45" y1="18.93" x2="11.64" y2="18.93"/></g></g></svg>