<svg xmlns="http://www.w3.org/2000/svg" viewBox="0 0 295.25 11.61"><defs><style>.cls-1{fill:#34567e;}</style></defs><g id="Capa_2" data-name="Capa 2"><g id="Capa_1-2" data-name="Capa 1"><path class="cls-1" d="M295.18,11.05c.15-.18.07-.56-.36-.49l-.31.66Z"/><path class="cls-1" d="M292.3,9.81c-.51.32-1.09.88-.76,1.49.5-.63.62-.37,1.15-1.12.43-.08.75.21.68.46.15-.17.67.14.9-.27a1.6,1.6,0,0,0-2-.12C292.11,10.11,292.26,9.93,292.3,9.81Z"/><path class="cls-1" d="M250.45,8.42l.27.08A.61.61,0,0,0,250.45,8.42Z"/><path class="cls-1" d="M224.52,7.58c.2,0,.29-.07.3-.13C224.63,7.49,224.48,7.53,224.52,7.58Z"/><path class="cls-1" d="M220.11,6.76l.26,0C220.27,6.75,220.18,6.71,220.11,6.76Z"/><path class="cls-1" d="M250.45,8.42l-.69-.22C249.71,8.41,250.11,8.36,250.45,8.42Z"/><path class="cls-1" d="M286.52,11.39a1.08,1.08,0,0,0,.38-.17l-.36.07Z"/><path class="cls-1" d="M261.88,8h.21a1.27,1.27,0,0,0,.18-.27Z"/><path class="cls-1" d="M270.66,8c-.2,0-.28.53-.35.78a.63.63,0,0,1,.43-.38A.94.94,0,0,0,270.66,8Z"/><path class="cls-1" d="M284.56,9.11,284.8,9Z"/><path class="cls-1" d="M255.61,7.84a.64.64,0,0,0-.08-.2A.32.32,0,0,0,255.61,7.84Z"/><path class="cls-1" d="M10.15,4.94v-.1C10.1,4.89,10.08,4.93,10.15,4.94Z"/><path class="cls-1" d="M.09,1.76l.14,0a1.75,1.75,0,0,0,0-.32Z"/><path class="cls-1" d="M212,5.87l0,0C212.28,5.83,212.16,5.83,212,5.87Z"/><path class="cls-1" d="M137.66,4.31c.82.53-1.39.61-.14,1.2C137.41,5.29,138.7,4.67,137.66,4.31Z"/><path class="cls-1" d="M286.29,11.32h-.36A1.05,1.05,0,0,0,286.29,11.32Z"/><path class="cls-1" d="M137.52,5.51h0l.13.06Z"/><path class="cls-1" d="M193.36,5.77a.72.72,0,0,0,.18.25C193.54,6,193.49,5.89,193.36,5.77Z"/><path class="cls-1" d="M207.24,6.9l-.34-.08A1.46,1.46,0,0,0,207.24,6.9Z"/><path class="cls-1" d="M186.12,6.39c-.19,0-.25-.13-.51-.06l.08.07C185.78,6.32,185.91,6.29,186.12,6.39Z"/><path class="cls-1" d="M178.6,6.19l.14.11.24,0Z"/><path class="cls-1" d="M33,5.52A1.63,1.63,0,0,1,32.67,5C32.77,5.4,31.66,5.5,33,5.52Z"/><path class="cls-1" d="M286.52,11.08a.31.31,0,0,1-.23.24l.25,0C286.56,11.2,286.57,11.13,286.52,11.08Z"/><path class="cls-1" d="M185.7,10.81l-1.19-.11A8.05,8.05,0,0,0,185.7,10.81Z"/><path class="cls-1" d="M86.91,7.32l-.28.06A.37.37,0,0,0,86.91,7.32Z"/><path class="cls-1" d="M181,10.68a1.77,1.77,0,0,0-.66-.4.49.49,0,0,0-.15.14Z"/><path class="cls-1" d="M32.66,5h0Z"/><path class="cls-1" d="M24.75,6c1.14,0,.56-.71.82-1.12,1.36-.16.61.56,1.05,1,.86-.16,1.53-.82,2.17-.77,0,.13.16.18,0,.32.92-.55,2.66.07,3.73-.63a.38.38,0,0,1,.13.19,1.9,1.9,0,0,1-.12-1c.51,0,1-.43,1.14.06-.32,0-.35.17-.5.31l.54-.19c.46.72-.74.22-.76.73C34,4.69,35.25,4.16,36,4.39c.14.68-1.87.16-.83.8L34,4.89c.91,1.1-.74-.11.08,1.07,1.62.26,1.83-.28,3.45,0,.38-.37-.1-.56.28-.93,2.33-.59,1.75,1.77,3.48.93.45-.44.65-1.29,1.84-.79l-.44.75c1.58.13.94-1.07,2.57-.49-.3.29-1.24.21-1,.31,1.05.64.77-.41,1.59-.38L46,6c1.68,0,3.54-.47,5.4-.53-.11.2-.43.4,0,.63a23.42,23.42,0,0,1,7.24.74l.89-.56c.2,0,.36.28.14.38.87.26.06-.37.49-.58.5,0,.65.36.32.52,1.57-.44,4.46-.91,6.08-.23l-.33.17c1.27.28,1.48-1.16,2.65-.57l-.23.1c2.75.35,5.83-.09,7.91.87.43-.83,2.72.47,2.94-.7,1.56.63,1.1.83,3.31,1.3.59.07.91-.71,1.65-.81v.62l1-.61.51.75.69-.13c-.27,0-.57-.3-.52-.48,1.08-.24,2.61.52,2.62.84l2.56-.44c-.06.25-.49.32-.83.47,1.38-.59.22.65,1.49.12-.16-.15.1-.37.13-.49a5.8,5.8,0,0,0,3.07.32l-.21.42c1.88.17,4-.08,6.11,0-.76-.22-.56-1,.06-1l.23.65c.42-.38-.64-.26.2-.73.79.1.51.76,0,1l1-.2c0,.2-.18.29-.25.54.41-.39,1.64.71,2.23,0l0,.2c2.12.07,3.09-.12,4.81-.1.06-.56.73-.41,1.25-.85a23.14,23.14,0,0,0,4.19.71c1.08-.25.33-.47.82-.79.06.52,1.59.52.79.86A27.11,27.11,0,0,0,121.13,8c-.25-.22-.53-.32-.38-.49.43-.07,1,.24.89.49l-.12.05c2.63-.69,6,1.68,8.07.67l-.12.05,2.17-.49c1,.12-.6.37.12.71,2.34-.79,3.66.24,5.59-.28,1.43,1.56,5.24.05,7.21,1.07l-.1-.36c.52-.33.61.22,1,.32,0-.28-.55-.34-.22-.52,4.38-.31,9,.78,13.47,1.23,1.64.14,1-1.81,3-.91l-.6.65c3.33-.7,6.76.21,10-.38-.19.15-.2.35-.52.34.67.5,2.53.09,2.55-.3.5.06.11.35.41.56.68.3,1.74-.56,2.09-.08.06.08-.2.15-.32.19.45-.22,2.08.11,1.67-.45,1.2.29,2.33-.19,3.29.17.64-.6,2.07.35,2.29-.52-.11.9,2.11.79,2.89.38-.26.27.66.3.35.67.88,0,1.69-.14,1.54-.6,1.59,1.12,3.27-.8,4.15.61,2.61-.42,5-.69,7.38-.85-.11.9-2.59,0-2.51,1,2.23-.32,3.53-1.06,5.73-.79.56.14-.34.38-.53.53,2.22-.32,4.29.19,6.27-.25,0,.08-.22.17-.42.23.39,0,.9.15.87-.26l-.39.1c-.6-.61,1.58-1.2,1.65-1.51-.68,1.16,2,.34.87,1.8.25-.07.58-.26.53-.54.38.09.49.25.1.56,1.4-.2.91-.64,2.18-.61,0,.2-.27.27-.4.5a3.15,3.15,0,0,1,2.36-.55c-.07.11,0,.27-.27.26,1.84,0,3.15-1,5.16-.55-.62.85.67.3.77,1.05l1.08-.2-.42-.37c.94,0,1.79-.5,2.6-.23l-.71.29,1.78-.11-1-.3c1-.37-.08-.95,1.17-.71-.25.07.95,0,1.44.48h0a2.13,2.13,0,0,1,1.66-.27c.18.24-.16.82-.05,1,.48-.61,2.23-.12,2.82-.78a.65.65,0,0,0-.15.63l.4-.5c.43.17.5.25.42.56,1.32.12-.4-1,1.16-.51-.13,0-.07.11-.33.18,1.57.25,3.05-.26,4.49,0,.42.76-1.27.16-.79.81,2.09-.11,4.34-.83,6.35-.62l-.37-.09c.29-1.06,1.49.55,2.52.06-.25.08-.34.59-.27.47,1.38.19,2.83-.21,4.93-.51l-.26.26a24.28,24.28,0,0,0,3,.32c.26-.27.77-.22.47-.62,2.69,1.6,5.18-.75,7.57.56-.29,0-.69.24-.46.24l2.06-.23c-.16-.46-.27-.28-.7-.65a2.12,2.12,0,0,1,1.36-.47c-.93.3,0,.74.39,1-.06-.15.07-.3,0-.45,1.06.84.19-.92,1.65-.35l-.08.24a4.65,4.65,0,0,1,1.64-.36c.24.54-.58.24-.62.68.82,0,1.64-1,2.39-.45-.36.14-.86.14-1.22.28a2.12,2.12,0,0,0,1.52.59l-.06,0,1.4.3-.36-.17c1.05-1.38,2.12-.23,3.52-1.13-1.36.85-.23.5-.34,1.1.36.17.9.37.74.54.67-.48,1.1.39,2-.31,0,.19.71,0,.56.51.86-.14-.2-.34-.13-.58,1.33-.65,3.11.82,5-.08,1.64-.38,1.95-1,3.47-1.36.52.32-.42.71-.42.71a3.35,3.35,0,0,0,2.23,0c-.15.17,0,.32.25.54.62,0,.42-.71,1.24-.42a2.78,2.78,0,0,1-.62.78c.74-.18,1.47-.54,2.23-.71.21.34-.46.51-.73.73.86-.15,2.23-.3,2.5-.84l-.56-.19c.32,0,.16.46-.07.56a.69.69,0,0,1-1.1-.39l.54-.12c-.56-1.15-2.19.18-3.28.11l.46-.83-1.13.68c-.24-.21-.4-.68.14-.8-.78-.42-.7.29-1.37-.17-.08-.07,0-.11,0-.14l-.77.24c.15-.17-.13-.58.34-.46-1.37-.49-2.22.61-2.74,0l.12,0c-1.92.28-.19.61-1.63,1.32l-1-1.51-.19.61c-.2,0-.59-.07-.51-.31-.74.42.12.27-.31.66-.94-.55-2.62.24-2.83-.73-.34.46.91.36-.11.68-.28-1-1.17.16-2-.33.27-.53,1.09-.24.22-.73-.53.91-1.69-.22-2.42-.05,0,.72-1.59.28-2.82.51.08-.24-2.31-.42-3.45-.7l0-.12c-.23.73-1.41.58-2.27.72,0-.44.19-.61.66-.8h-.81a1.38,1.38,0,0,1-1,.43l.21-.55c-1.07,0-2.17.63-3.54.24-.09.52,1.08,1.44-.39,1.77,0-.28-.1-.75.29-.86-.13,0-.45.22-.7.1l.59-.46c-.63-.21-.34.39-.84.34,0-.4-.37-.29-.29-.6.13,0,.43.17.63,0a2.48,2.48,0,0,1-1.47-.63.45.45,0,0,1-.43.58c-1.07,0-.36-.48-1-.7-.26.27-.94,0-1,.57-.32,0-.37-.29-.49-.45-.56.25-2.59,0-2,.67l.14.05-.09,0h0c-1.83.56-3.78-.4-5.59-.17v-.2c-1.08.21-2.4.09-3.18.5-.32,0-.75-.37-.61-.6a3.19,3.19,0,0,1-2.11,0c.84-.33-.28-.31.86-.24-1.07-.19-1.31-.51-2.47,0,.4-.5-.79-.65-1.31-.51l.75.38a7.47,7.47,0,0,1-1.58,0l.28-.66c-2.17-.84-4,1.3-5.62-.09-.59.46,1.19.35.66.89-1-.11-2-1.09-2.36-1.1-1.37-.4-1.31,1-2.75.66.18.25.35.88-.74,1.08-1-.11-1.22-1-.58-1.19.24,0,.36.06.35.14.32-.08.75-.17.36-.44l-.14.24c-.49-.26-1.88-.26-1.55-.64-.76.21-.33.38.23.51-1.29-.37-2,0-3.35-.31.21.14.4.42.19.41-1.95-.33-.87.44-2.2.51-.74-.37.29-.86-1.05-.58-.81-.26-.16-.63.17-.82-1.22.43-2.26-.35-2.95-.45l.64-.17a3.34,3.34,0,0,1-1,.08l.36.49c-.37-.09-.69-.1-.68-.3-.4.3.28.8-.5,1.2-.5-.25-1.53.23-1.69-.4,1.57.24-.16-.64,1.18-.71a1.94,1.94,0,0,1-.95,0c-.06-.07,0-.13.16-.17-1.5-.59-.71.7-2.27.65.2-.35-.35-.68-.6-.61.62,0,.28.6-.3.86-1-.3-1.09.18-1.62.13l.6.15c-.21.35-.71.29-1.41.38-.06-.28.64-.17.39-.3-.79.61-1.74-.69-2.83-.29-.49-.26,0-.67-.47-.85-1.22.44-1.3-.51-2.58-.16.36.48.42.37-.48.81l2.1-.28L201.2,7c.63,0,1.34-.27,1.71-.18-.65.37-.58.26-.28.66-.85-.74-1.73.37-2.71-.13L200,6.19c-1.49-.57-2.68.54-4.62.19l.62.22c-.27.47-1.21,0-1.84.22.07-.4-.33-.55-.59-.8,0,.29-1.43-.06-1.62.72l-.86-.54c-1.57-.25-1.83,1.08-3.34.91.47-.42-.21-.72.81-1-.5,0-1-.1-1,.18-.29-.26-1.42.5-1.87.11-.22.17-.3.58-.87.53-.06-.08,0-.2,0-.2,0,.2-.89.25-.41.7-1.52-1.28-4.35,0-5.68-1.13-1.11.11-2.44.2-3.44.2.06-.12,0-.2.19-.15-1.37-.4-.88,1.11-2.44.66-.78-.66.85-.32.35-.58-.18-1.3-1.9.13-2.94-.66l.26-.07c-.79-.46-2,.44-3.3.31a.23.23,0,0,0,0-.2,9.75,9.75,0,0,1-3.91,1c.41-.5.58-.26.35-.78-.57.06.15.83-1,1-.37-.29-1.18-.56-1.27-1.11h1.07c-.53-.73-1.39,0-2-.15l.08-.31c-1.65,0-1.69.83-3.46.73l.18.24c-1,.75-.8-.46-1.78.09l-.27-.8a22.85,22.85,0,0,1-3.4.81,11.42,11.42,0,0,1,2.85-1.15c-.63,0-2.15,0-2.49.38.26-.07.59-.25.83-.13a4.63,4.63,0,0,1-3.07.83c.26-1.53-3.27-.48-4.15-1.7-2.24.5-4.41-.37-7-.35.89,1.21-.75,0-.63,1.24-.61.06-.84,0-.89-.05l-1.81-.79c-.42-.37.59-.25.54-.52-1.32-.14-.54-.54-1.41-.89.17.44-.48.61-1.22.42l1,.6c-1.87.59-1.57-1.08-3.45-.49l.6-.37c-1,.2-3.52-.11-4.49.84-.17-.15-.38-.49.05-.56-2.28-.22-5.12.88-6.88.22l.18-.29c-.43.07-.76.54-1.28.22,0-.12.18-.29,0-.31a3,3,0,0,1-1.7.29l.49-.32c-2.22-.46-3.45.71-5.32.86,0-.88-1.71-1.22-2.58-1.39l0-.13c-2.59-.19-4.43.59-6.84.86-1.46-1-5-.57-7.42-1.18.36.17-.09.68-.51.76-.56-.2-1.58.56-1.46-.25l.2,0c-.4-.81-1.56-.64-2.47-.69l-.18,1.05c-2.31-1.61-6.21.36-7.45-1.06-.58.25-1.28.22-1.86.46l0-.56A21.39,21.39,0,0,0,78,2.1l.41-.39C77.35,1.64,77,3.3,76,3.29l-.28-.85c-1.92,0-3.84-.86-5.76-.16a.45.45,0,0,1,.41-.39c-.9,0-3.47-.69-3.19.48,0-.75-2-.14-3,.15L64.33,2a3.22,3.22,0,0,1-2.17,1c-.28-.08-.23-.45.14-.3-.95-.32-.77.51-1.93.17l.45-.34c-1-.08-.92.11-1.48.51-.63.2-1.88-.21-2-.72a1.15,1.15,0,0,1-1.28.53c-.07-.19.15-.3.26-.36-1.65-.43-2.5.57-3.62,0a.42.42,0,0,0-.18-.34,19.65,19.65,0,0,1,2.28.16c0-.51-1-.64-.17-1.32-.87.36-2.36,1.15-3.39.87a.66.66,0,0,1-.14-.18l.11,0a1.06,1.06,0,0,0-.66.06,3.25,3.25,0,0,0-.85-.19c-.11-.43-1.21-.27-1.74-.31,0,.56-.67.45,0,.93-.08,0,.11-.06.46-.07a.78.78,0,0,0,.23,0l0,0h1.32a1.27,1.27,0,0,1-1.45.16c-.29.35-.6.71-.78.88C47,2.27,45.57,1.8,45.39,1.31c-1.63.25-3.83.07-4.89,1.08-.46.12-.52-.32-.68-.49.27-.1.58-.07.73-.21-.93.23-2.73,0-3,.73-1.15-.37.68-.65-.92-.59l.22-.22c-3.1-1.29-5.18,1.7-8.6.06.23.1.35.15.4.27-4-.81-8.21.33-12.09-.88-1.11-.25-1.24.21-1.94.54L14.42,1l-1.19.65c-1.66.45-2.79-1.58-4.92-.7l.26.42c-.75-.11-2.39.15-2.24-.32-.08.07-.26.42-.55.19V.92l-1.86.47C2.49,1.1,4.18.14,2.1,0,1.32.09-.14.83.14,1.06c.31,0,.79.22.8.54l-.71.14c-.17.92-.75,1.86,1,2.57l1.23-.52.37.47h-1c.56.44.94.08,1.37-.16a.85.85,0,0,0,.48.52l1.23-.85c.13.37-.56.71.23.94.57-.39-.51-.84.43-1.08.56.45.38.79,1.07.45.09.25-.06.39-.34.49C6.87,4.29,7.86,4.5,8.19,4c.59.54,2.05-.06,2,.82a3.32,3.32,0,0,1,1.65-.67c-1.06,1,2.08.14,1.77,1.26.79-.92,2.73-.32,4.08-.79-.08.07-.23.21-.34.16a4.36,4.36,0,0,1,1.43.6c.12-.78,1.3-.91,1.94-1.37.89.78-.59.89-.33,1.63,0-.64,1.62-.57,1.33-1.11.68.49.6.25.93.91.16-1,.66-.14,1.27-.72,1,.52.23.92,1.36.67C25.76,5.73,24.75,6,24.75,6Zm26.63-.73h-.55Zm2.24.07a9,9,0,0,0-1-.06c-.07-.2,0-.39.24-.38C52.77,5.07,53.29,5.2,53.62,5.38ZM49,1.32c.36-.07.47,0,.52.16a5.45,5.45,0,0,0-.62.05l0,.06A.79.79,0,0,1,49,1.32Z"/><path class="cls-1" d="M48.37,2l-.15,0,.21.13L48.56,2Z"/><path class="cls-1" d="M250.76,8.51h0a.23.23,0,0,1,.09.08S250.78,8.53,250.76,8.51Z"/><polygon class="cls-1" points="84.41 7.51 84.42 7.37 84.22 7.49 84.41 7.51"/><path class="cls-1" d="M263,10.61a.28.28,0,0,0,.16.14S263.12,10.66,263,10.61Z"/><path class="cls-1" d="M268.36,10.79l.75.21A4.27,4.27,0,0,0,268.36,10.79Z"/><path class="cls-1" d="M272.44,11.11a.74.74,0,0,0,.08-.24h0Z"/><path class="cls-1" d="M207.44,10.67l-.16,0C206.91,10.79,207.16,10.75,207.44,10.67Z"/><path class="cls-1" d="M226.8,9.77a3.66,3.66,0,0,1-.62.25C226.52,10.07,226.79,10.09,226.8,9.77Z"/><path class="cls-1" d="M185.83,10.82h0Z"/><path class="cls-1" d="M225.28,10a1.47,1.47,0,0,0,.9,0A2.28,2.28,0,0,0,225.28,10Z"/><path class="cls-1" d="M290.17,11.45l.19,0a.12.12,0,0,1,0-.09Z"/><path class="cls-1" d="M290.39,11.39l.22-.07C290.5,11.32,290.42,11.33,290.39,11.39Z"/><path class="cls-1" d="M291.07,11.18l-.46.14C290.76,11.32,291,11.34,291.07,11.18Z"/><path class="cls-1" d="M284.75,11.18l-.06.2A.34.34,0,0,0,284.75,11.18Z"/><path class="cls-1" d="M283.11,11.23c.39,0,1,.44,1.53.31l.05-.16C284.43,11.68,283.48,10.89,283.11,11.23Z"/><path class="cls-1" d="M276.26,8.69l1.37.17c-.24-.22-.55-.51.08-.56C276,7.64,278.06,8.79,276.26,8.69Z"/><path class="cls-1" d="M272,8.33c.74-.1,0-.32,0-.44C271.55,8.08,271.44,8.13,272,8.33Z"/><path class="cls-1" d="M241.14,7.9l.08-.51C240.65,7.46,241.21,7.59,241.14,7.9Z"/><polygon class="cls-1" points="235.19 10.45 235.74 10.78 236.01 10.31 235.19 10.45"/><polygon class="cls-1" points="231.77 6.74 232.02 6.67 231.07 6.84 231.77 6.74"/><path class="cls-1" d="M180,5.73l.16.63C180.5,6.26,180.6,5.55,180,5.73Z"/><path class="cls-1" d="M157.56,5.76a1,1,0,0,0-1.25-.25C156.81,5.57,157.31,5.83,157.56,5.76Z"/><polygon class="cls-1" points="90.51 2.66 90.97 2.47 90.12 2.61 90.51 2.66"/></g></g></svg>