<svg xmlns="http://www.w3.org/2000/svg" viewBox="0 0 1188.46 7.95"><defs><style>.cls-1{fill:#34567e;}</style></defs><g id="Capa_2" data-name="Capa 2"><g id="Capa_1-2" data-name="Capa 1"><path class="cls-1" d="M1188.17,7.54c.63-.18.27-.56-1.45-.49l-1.22.66Z"/><path class="cls-1" d="M1176.58,6.27c-2,.32-4.37.87-3,1.49,2-.63,2.49-.37,4.65-1.12,1.72-.07,3,.23,2.72.47.61-.17,2.68.15,3.6-.26a23,23,0,0,0-8-.14C1175.81,6.57,1176.43,6.39,1176.58,6.27Z"/><path class="cls-1" d="M1008.1,4.67l1.09.09A10,10,0,0,0,1008.1,4.67Z"/><path class="cls-1" d="M903.72,4c.79,0,1.12-.08,1.16-.14C904.15,3.86,903.54,3.9,903.72,4Z"/><path class="cls-1" d="M885.89,3.17l1.05.05A3.56,3.56,0,0,0,885.89,3.17Z"/><path class="cls-1" d="M1008.1,4.67l-2.79-.21C1005.12,4.67,1006.74,4.62,1008.1,4.67Z"/><path class="cls-1" d="M1153.35,7.79a11.74,11.74,0,0,0,1.51-.17l-1.42.07Z"/><path class="cls-1" d="M1054.12,4.29h.84a5,5,0,0,0,.71-.26Z"/><path class="cls-1" d="M1089.43,4.31c-.8,0-1.08.53-1.38.78a4.44,4.44,0,0,1,1.74-.38C1089.8,4.6,1089.7,4.47,1089.43,4.31Z"/><path class="cls-1" d="M1145.43,5.49l1-.08Z"/><path class="cls-1" d="M1028.84,4.08a.77.77,0,0,0-.32-.2C1028.52,4,1028.64,4,1028.84,4.08Z"/><path class="cls-1" d="M41.1,5s0-.06,0-.1C40.89,4.94,40.82,5,41.1,5Z"/><path class="cls-1" d="M.17,2.06.74,2a.67.67,0,0,0,.12-.31Z"/><path class="cls-1" d="M853.28,2.34h.14C854.28,2.29,853.79,2.3,853.28,2.34Z"/><path class="cls-1" d="M553.86,1.75c3.39.51-5.52.62-.42,1.2C553,2.73,558.08,2.09,553.86,1.75Z"/><path class="cls-1" d="M1152.43,7.71H1151A13.64,13.64,0,0,0,1152.43,7.71Z"/><path class="cls-1" d="M553.44,3h0L554,3Z"/><path class="cls-1" d="M778.13,2.42a2.68,2.68,0,0,0,.76.25C778.87,2.61,778.69,2.54,778.13,2.42Z"/><path class="cls-1" d="M834.11,3.41l-1.38-.08C833.28,3.39,833.72,3.4,834.11,3.41Z"/><path class="cls-1" d="M749.06,3.12a10.88,10.88,0,0,0-2-.05l.31.07A5.48,5.48,0,0,1,749.06,3.12Z"/><path class="cls-1" d="M718.8,3l.56.12,1,0Z"/><path class="cls-1" d="M133.05,5a5.51,5.51,0,0,1-1.4-.51C132.12,4.91,127.67,5,133.05,5Z"/><path class="cls-1" d="M1153.33,7.48a1.5,1.5,0,0,1-.9.23l1,0C1153.53,7.6,1153.55,7.53,1153.33,7.48Z"/><path class="cls-1" d="M747.83,7.55,743,7.45C744.36,7.51,746.11,7.54,747.83,7.55Z"/><path class="cls-1" d="M350.12,5.67,349,5.74A4.63,4.63,0,0,0,350.12,5.67Z"/><path class="cls-1" d="M728.75,7.49a17.53,17.53,0,0,0-2.7-.4,3,3,0,0,0-.56.14Z"/><path class="cls-1" d="M131.64,4.51h0Z"/><path class="cls-1" d="M100,5.74c4.58,0,2.15-.72,3.12-1.14,5.47-.19,2.53.55,4.39.94,3.41-.19,6-.86,8.58-.82.19.12.68.17.1.32,3.62-.58,10.72,0,14.93-.72a1.43,1.43,0,0,1,.54.19c-.68-.37-.78-.75-.64-1,2.05,0,3.81-.45,4.58,0a4.49,4.49,0,0,0-2,.33l2.15-.21c1.94.71-2.93.24-2.94.75,4.2-.21,9.09-.77,12.31-.56.67.68-7.52.2-3.23.82l-5-.28c3.8,1.09-3-.08.47,1.07,6.54.22,7.32-.32,13.85-.1,1.47-.37-.48-.56,1-.93,9.28-.65,7.3,1.73,14.13.85,1.76-.45,2.45-1.3,7.31-.83L172,5.19c6.34.1,3.62-1.09,10.26-.55-1.18.3-5,.24-4,.33,4.3.62,3.05-.42,6.35-.41l.69.68c6.74-.09,14.18-.55,21.65-.65-.41.2-1.69.41.06.62,9.42-.31,20.12.15,29.21.59l3.47-.58c.81,0,1.5.27.62.38,3.55.24.19-.37,1.89-.59,2,0,2.67.34,1.39.51,6.25-.47,17.81-1,24.4-.36l-1.29.17c5.13.26,5.79-1.18,10.55-.62l-.91.1c11.13.3,23.44-.2,31.93.71,1.62-.84,11,.42,11.74-.76,6.35.61,4.53.81,13.49,1.24,2.39.06,3.56-.73,6.52-.84l.07.61,4-.63,2.14.75L349,5.74c-1.1,0-2.35-.29-2.18-.46,4.33-.27,10.56.46,10.67.78l10.25-.49c-.23.25-1.95.33-3.31.48,5.48-.61,1,.65,6,.09-.67-.14.36-.36.48-.49a89.64,89.64,0,0,0,12.39.26l-.81.43c7.6.13,16-.15,24.56-.12-3.06-.21-2.36-.94.15-1l1,.65c1.62-.4-2.61-.25.71-.73,3.18.08,2.14.74.31,1l3.87-.21c.23.19-.68.29-.91.54,1.59-.4,6.68.68,9,0l.21.19c8.53,0,12.4-.17,19.35-.18.13-.56,2.85-.43,4.92-.88,5.1.2,10.77.66,16.92.63,4.32-.26,1.26-.47,3.21-.8.31.52,6.46.49,3.27.85,7.38-.06,9.43-.07,18.77-.46-1-.21-2.16-.31-1.56-.48,1.69-.08,3.85.23,3.61.47l-.45.06c10.48-.74,24.18,1.57,32.53.53l-.47,0,8.66-.53c4,.11-2.39.38.56.71,9.33-.82,14.74.17,22.43-.37,6,1.53,21.12,0,29.15,1l-.46-.36c2.07-.34,2.51.21,4,.3-.22-.28-2.26-.33-1-.52,17.59-.37,36.3.64,54.33,1,6.59.12,3.74-1.82,12.06-1l-2.36.66c13.3-.75,27.21.11,40.23-.51a6.27,6.27,0,0,1-2.07.34c2.75.49,10.18.06,10.22-.34,2,0,.47.36,1.72.56,2.76.3,6.93-.59,8.4-.1.25.07-.78.15-1.28.18,1.8-.22,8.38.09,6.65-.47,4.89.28,9.36-.21,13.26.13,2.54-.61,8.37.32,9.17-.55-.35.91,8.58.76,11.67.35-1,.27,2.69.29,1.47.66,3.53,0,6.76-.16,6.15-.62,6.5,1.1,13.06-.83,16.72.57,10.48-.45,20.18-.75,29.61-.93-.34.9-10.42.06-10,1,8.94-.35,14.1-1.1,23-.86,2.3.14-1.3.39-2.08.54,8.94-.34,17.28.14,25.23-.32a7.11,7.11,0,0,1-1.69.24c1.56,0,3.64.14,3.46-.27L837.19,7c-2.5-.61,6.22-1.22,6.5-1.54-2.66,1.17,7.85.32,3.63,1.79,1-.07,2.32-.26,2.09-.53,1.53.08,2,.24.46.55,5.61-.2,3.62-.65,8.7-.62,0,.2-1,.27-1.57.5a44.52,44.52,0,0,1,9.46-.57c-.26.12.24.27-1,.27,7.38,0,12.58-1,20.67-.59-2.39.85,2.76.29,3.19,1l4.35-.21-1.75-.37c3.82,0,7.18-.5,10.46-.25l-2.83.3,7.15-.12-4-.29c3.86-.38-.41-1,4.66-.72-1,.07,3.82,0,5.8.46h0a30.61,30.61,0,0,1,6.65-.28c.73.24-.59.82-.11,1,1.86-.62,8.93-.14,11.28-.8-.78.15-.82.54-.56.63l1.56-.51c1.76.17,2,.25,1.74.56,5.31.11-1.69-1,4.61-.52a10.12,10.12,0,0,1-1.29.19c6.34.23,12.24-.28,18.06,0,1.72.76-5.08.16-3.12.81,8.39-.11,17.38-.85,25.5-.64l-1.51-.09c1.12-1.06,6,.54,10.15.06-1,.07-1.32.58-1,.46,5.56.19,11.37-.22,19.8-.52l-1,.27c3.27.25,8.63.17,12.17.3,1.05-.27,3.07-.22,1.84-.62,10.92,1.59,20.82-.76,30.51.57-1.16,0-2.76.23-1.84.23l8.25-.22c-.65-.47-1.08-.29-2.82-.65a26.66,26.66,0,0,1,5.42-.47c-3.71.29,0,.74,1.64,1-.27-.15.28-.3.14-.45,4.31.84.72-.92,6.6-.35l-.31.24c2.21-.11,4.23-.43,6.61-.35,1,.54-2.35.24-2.5.68,3.34,0,6.58-1,9.6-.45-1.41.15-3.45.14-4.87.28a27.34,27.34,0,0,0,6.12.59H1080l5.65.3-1.44-.17c4.18-1.38,8.5-.23,14.12-1.12-5.46.84-.9.49-1.32,1.1,1.44.17,3.62.37,3,.53,2.66-.47,4.44.4,8.19-.3.16.2,2.84,0,2.24.52,3.45-.14-.82-.34-.53-.59,5.33-.65,12.52.85,20.18,0,6.61-.35,7.83-1,14-1.31,2.06.32-1.7.71-1.7.71a54.17,54.17,0,0,0,9,0c-.64.16,0,.31,1,.53,2.52,0,1.68-.7,5-.4a11.84,11.84,0,0,1-2.52.77c3-.17,5.91-.52,9-.69.82.35-1.86.51-2.94.73,3.46-.14,9-.28,10-.81l-2.22-.2c1.26,0,.65.46-.28.56-3,.41-4.28-.2-4.44-.4l2.19-.12c-2.26-1.15-8.81.16-13.22.08l1.83-.83-4.52.68c-1-.22-1.62-.69.56-.81-3.17-.42-2.81.29-5.53-.18-.3-.07-.16-.11.12-.14l-3.09.23c.6-.17-.52-.59,1.38-.46-5.55-.5-9,.6-11,0l.47,0c-7.7.25-.75.61-6.52,1.3L1122.74,5l-.76.61c-.79,0-2.36-.07-2.07-.32-3,.41.5.27-1.22.66-3.82-.57-10.54.22-11.4-.75-1.37.46,3.66.37-.43.68-1.16-1-4.71.16-8.21-.33,1.07-.54,4.38-.24.89-.73-2.11.9-6.8-.23-9.75-.06-.14.72-6.41.28-11.35.5.31-.24-9.3-.43-13.9-.7l.13-.13c-.89.74-5.63.58-9.09.72.14-.44.76-.61,2.63-.8H1055a15.09,15.09,0,0,1-3.88.43l.81-.54c-4.32,0-8.7.61-14.26.23-.31.51,4.42,1.44-1.46,1.76-.21-.27-.43-.75,1.11-.86a13.9,13.9,0,0,1-2.82.1l2.35-.45c-2.53-.22-1.32.38-3.35.33,0-.39-1.5-.29-1.21-.6a17.68,17.68,0,0,0,2.55,0,31.19,31.19,0,0,1-6-.63c.2.23,0,.54-1.67.58-4.32,0-1.48-.48-4-.69-1,.27-3.81,0-3.88.57a4.15,4.15,0,0,1-2-.45c-2.23.26-10.45,0-7.92.68l.57,0-.37,0h0c-7.33.56-15.23-.39-22.5-.16v-.2c-4.34.21-9.67.1-12.77.52-1.28,0-3-.37-2.48-.61a48.94,48.94,0,0,1-8.49,0c3.34-.33-1.15-.31,3.42-.24-4.31-.19-5.29-.51-9.92,0,1.58-.5-3.25-.65-5.3-.51l3,.38c-2.31.06-4.32,0-6.37,0l1.1-.66c-8.82-.84-15.91,1.32-22.63-.06-2.34.46,4.79.35,2.7.89-4.06-.11-8.29-1.08-9.56-1.08-5.56-.39-5.19.95-11,.68.75.24,1.45.88-2.9,1.08-4.06-.1-5-1-2.43-1.19,1,0,1.44.06,1.4.14,1.32-.08,3-.18,1.43-.44l-.53.24c-2-.25-7.6-.25-6.29-.63-3.07.21-1.31.38,1,.51-5.21-.36-8.14,0-13.51-.28.86.13,1.64.41.79.41-7.86-.32-3.46.44-8.79.52-3-.37,1.08-.86-4.28-.57-3.28-.26-.7-.64.61-.82-4.89.44-9.14-.34-11.93-.43l2.57-.18c-1.54.11-2.8.1-4.08.09l1.47.48c-1.51-.08-2.79-.09-2.77-.29-1.55.31,1.2.8-1.9,1.21-2-.25-6.13.24-6.83-.39,6.34.23-.7-.64,4.66-.72a30.73,30.73,0,0,1-3.81,0c-.23-.07.21-.13.63-.16-6.07-.58-2.79.7-9.08.67.8-.36-1.46-.68-2.48-.61,2.53,0,1.21.6-1.11.86-4-.29-4.39.19-6.5.15l2.41.14c-.81.35-2.83.3-5.64.4-.24-.28,2.55-.18,1.55-.31-3.12.62-7-.66-11.4-.26-2-.25-.2-.67-2-.84-4.88.45-5.28-.5-10.41-.14,1.48.49,1.74.37-1.87.82l8.43-.3-5.41.67c2.54,0,5.37-.28,6.89-.19-2.58.38-2.31.26-1.1.66-3.48-.73-6.89.39-10.92-.11l.13-1.18c-6-.54-10.75.57-18.6.25l2.52.21c-1.05.47-4.85,0-7.39.23.24-.39-1.35-.54-2.44-.79.13.3-5.74,0-6.46.74l-3.5-.53c-6.34-.23-7.24,1.1-13.33,1,1.83-.43-.94-.72,3.14-1-2,0-3.86-.09-3.89.19-1.19-.26-5.65.51-7.52.13a8.59,8.59,0,0,1-3.42.54c-.25-.08,0-.2,0-.2,0,.2-3.58.26-1.58.7-6.27-1.25-17.52,0-23-1-4.44.11-9.79.22-13.82.24.25-.12,0-.2.77-.16-5.56-.38-3.42,1.13-9.75.7-3.23-.65,3.36-.34,1.35-.59-.88-1.3-7.64.15-11.9-.62l1-.07c-3.25-.45-7.94.46-13.26.35,0,0,.26-.11,0-.19-3.64.65-10.52.84-15.64,1,1.59-.5,2.33-.26,1.35-.78-2.29.06.68.83-3.9,1-1.49-.28-4.79-.54-5.23-1.09l4.32,0c-2.21-.72-5.59,0-7.87-.12l.29-.31c-6.62.08-6.71.86-13.82.78l.73.24c-3.88.77-3.26-.45-7.13.12l-1.18-.8c-2.56.19-9,.74-13.58.87,2.6-.58,8-.86,11.32-1.19-2.54,0-8.64,0-10,.41a19.63,19.63,0,0,1,3.33-.14,64.48,64.48,0,0,1-12.29.87c.9-1.52-13.21-.43-16.88-1.63-9,.54-17.78-.3-28.22-.24,3.7,1.2-3.05,0-2.41,1.25a20.44,20.44,0,0,1-3.58,0l-7.37-.75c-1.74-.37,2.32-.26,2.09-.54-5.32-.11-2.23-.53-5.75-.86.72.44-1.86.62-4.89.44l4.27.58c-7.44.62-6.43-1-13.93-.43L530.24,1c-3.85.22-14.2-.05-18,.92-.68-.15-1.58-.48.11-.57-9.2-.17-20.48,1-27.62.35l.69-.3c-1.71.09-3,.56-5.13.25.11-.13.69-.3-.11-.32a44.15,44.15,0,0,1-6.83.33l1.94-.33c-9-.42-13.77.77-21.29,1,0-.88-7-1.19-10.57-1.34l.13-.13c-10.45-.14-17.75.67-27.43,1-6-1-20.34-.47-30-1,1.47.16-.25.68-2,.77-2.27-.19-6.27.59-5.9-.22l.8,0c-1.7-.8-6.36-.61-10-.64l-.6,1.06C359,.19,343.6,2.24,338.42.84c-2.3.26-5.14.25-7.42.5l.13-.56C324.77.61,321.6.53,313.74.64l1.6-.4c-4.43,0-5.6,1.61-9.69,1.63L304.43,1c-7.74,0-15.56-.78-23.2,0,.12-.12.35-.37,1.6-.4-3.64,0-14.08-.62-12.76.55-.09-.76-8-.1-12.15.22l.65-.56A35.63,35.63,0,0,1,250,1.87c-1.17-.08-1-.45.52-.3-3.88-.31-3,.51-7.74.2l1.76-.35a17.87,17.87,0,0,0-5.88.54c-2.52.22-7.59-.16-8.18-.67a12.58,12.58,0,0,1-5.09.56c-.31-.19.54-.31,1-.37-6.69-.4-9.95.62-14.55.06-.09-.19-.39-.28-.77-.34,5.31,0,9.59.08,9.19.12,0-.52-4.29-.62-.88-1.32-3.44.38-9.34,1.2-13.52.94a2.54,2.54,0,0,1-.55-.18l.43-.05a16.15,16.15,0,0,0-2.64.07c-1.34-.09-2.18-.15-3.46-.17-.5-.42-4.92-.24-7.06-.27.17.56-2.63.46,0,.94-.34-.05.41-.07,1.83-.09.32,0,.7,0,.91-.05l-.14.05,5.32,0a18.24,18.24,0,0,1-5.83.19c-1.1.36-2.31.73-3,.9-2.92-.8-8.57-1.24-9.35-1.73-6.54.3-15.39.16-19.5,1.2A5.23,5.23,0,0,1,160,1.25c1.07-.1,2.35-.08,2.93-.23-3.72.26-11,.07-11.9.81-4.68-.35,2.64-.67-3.8-.58l.87-.22c-12.65-1.22-20.58,1.82-34.6.26a5.64,5.64,0,0,1,1.66.26c-16-.72-33,.52-48.75-.6-4.48-.22-5,.24-7.71.59l-1-.6L53,1.62C46.39,2.11,41.54.1,33.13,1l1.08.41c-3-.08-9.56.21-9-.25a4.14,4.14,0,0,1-2.17.2l-.1-.32-7.41.52C9.73,1.34,16.38.34,8,.25,4.88.36-.89,1.14.28,1.35c1.26,0,3.22.21,3.31.53L.74,2C.22,3-2,3.91,5,4.58L9.9,4l1.57.46H7.36a14.17,14.17,0,0,0,5.46-.19,5.25,5.25,0,0,0,2,.51l4.8-.88c.57.37-2.15.72,1.06.93,2.24-.41-2.15-.82,1.56-1.08,2.34.43,1.65.77,4.39.42.39.24-.19.39-1.28.49,2.44-.28,6.45-.1,7.71-.59,2.43.53,8.24-.11,8,.77a43.17,43.17,0,0,1,6.54-.7c-4.1,1,8.38.09,7.3,1.22,3-.94,10.93-.39,16.3-.9a4.15,4.15,0,0,1-1.36.18,58.53,58.53,0,0,1,5.83.56c.39-.78,5.09-.94,7.63-1.42,3.69.77-2.25.91-1.09,1.64-.19-.63,6.43-.61,5.17-1.14,2.83.47,2.44.23,3.89.89.5-1,2.64-.16,5-.75,4.09.49,1,.92,5.55.63C104,5.4,100,5.74,100,5.74ZM207,4.4h0l-2.21,0Zm9,0c-1.1,0-2.46,0-3.9,0-.32-.2,0-.4.93-.38C212.5,4.14,214.62,4.25,216,4.42Zm-19-4a4.36,4.36,0,0,1,2.1.16l-2.49.06-.17.06A1.61,1.61,0,0,1,197,.46Z"/><path class="cls-1" d="M194.39,1.19c-.21,0-.32,0-.59,0l.85.13.51-.17Z"/><path class="cls-1" d="M1009.38,4.77h-.19a1.66,1.66,0,0,1,.39.08C1009.46,4.81,1009.46,4.79,1009.38,4.77Z"/><polygon class="cls-1" points="340.1 5.92 340.09 5.78 339.3 5.9 340.1 5.92"/><path class="cls-1" d="M1058.9,6.87a2,2,0,0,0,.65.14A2.35,2.35,0,0,0,1058.9,6.87Z"/><path class="cls-1" d="M1080.29,7.06l3,.21C1082,7.16,1081.05,7.1,1080.29,7.06Z"/><path class="cls-1" d="M1096.73,7.4a.7.7,0,0,0,.32-.24h0Z"/><path class="cls-1" d="M835.25,7.18l-.64,0C833.12,7.3,834.14,7.27,835.25,7.18Z"/><path class="cls-1" d="M913.06,6.13c-.82.1-1.64.19-2.5.25C912,6.43,913,6.45,913.06,6.13Z"/><path class="cls-1" d="M748.35,7.56h0Z"/><path class="cls-1" d="M906.94,6.36a22,22,0,0,0,3.62,0C909.42,6.34,908.09,6.28,906.94,6.36Z"/><path class="cls-1" d="M1168,7.89l.79,0s0-.07.1-.09Z"/><path class="cls-1" d="M1168.9,7.83l.88-.07A3,3,0,0,0,1168.9,7.83Z"/><path class="cls-1" d="M1171.63,7.63l-1.85.13A6.19,6.19,0,0,0,1171.63,7.63Z"/><path class="cls-1" d="M1146.24,7.56l-.25.2A.33.33,0,0,0,1146.24,7.56Z"/><path class="cls-1" d="M1139.62,7.6c1.58.05,4,.44,6.17.32l.2-.16C1145,8.06,1141.12,7.26,1139.62,7.6Z"/><path class="cls-1" d="M1112,5l5.55.18c-1-.22-2.25-.51.28-.56C1110.84,3.93,1119.27,5.09,1112,5Z"/><path class="cls-1" d="M1094.81,4.61c3-.09,0-.32.13-.44C1093.05,4.36,1092.59,4.41,1094.81,4.61Z"/><path class="cls-1" d="M970.59,4.19l.3-.51C968.59,3.75,970.87,3.88,970.59,4.19Z"/><polygon class="cls-1" points="946.85 6.75 949.08 7.08 950.14 6.61 946.85 6.75"/><polygon class="cls-1" points="932.82 3.06 933.82 2.99 929.99 3.17 932.82 3.06"/><path class="cls-1" d="M724.18,2.54l.7.63C726.43,3.07,726.76,2.36,724.18,2.54Z"/><path class="cls-1" d="M634.12,2.88A13.2,13.2,0,0,0,629,2.66C631.07,2.71,633.08,3,634.12,2.88Z"/><polygon class="cls-1" points="364 0.94 365.81 0.74 362.4 0.9 364 0.94"/></g></g></svg>