<svg xmlns="http://www.w3.org/2000/svg" viewBox="0 0 384.3 25.45">
  <defs>
    <style>.cls-1{fill:#34567e;}</style>
  </defs>
  <g id="Capa_2" data-name="Capa 2">
    <g id="Capa_1-2" data-name="Capa 1">
      <path class="cls-1" d="M384.07,25.45c.26,0,.39-.42-.12-.65l-.7.34Z" />
      <path class="cls-1" d="M381.57,22.42c-.75,0-1.68.1-1.61.83.88-.25.89,0,1.86-.24.51.24.71.7.5.86.26,0,.65.58,1.13.39a2.58,2.58,0,0,0-2.14-1.48C381.2,22.56,381.47,22.5,381.57,22.42Z" />
      <path class="cls-1" d="M329,6.57l.34.13A1,1,0,0,0,329,6.57Z" />
      <path class="cls-1" d="M295,2.78c.26,0,.37-.06.39-.12C295.17,2.69,295,2.72,295,2.78Z" />
      <path class="cls-1" d="M289.24,1.68l.34.06A.37.37,0,0,0,289.24,1.68Z" />
      <path class="cls-1" d="M329,6.57l-.88-.33C328.05,6.45,328.58,6.46,329,6.57Z" />
      <path class="cls-1" d="M374.15,20.48a1.5,1.5,0,0,0,.51.05l-.45-.13Z" />
      <path class="cls-1" d="M344,8.49l.27,0a1.42,1.42,0,0,0,.28-.22Z" />
      <path class="cls-1" d="M355.39,10.87c-.25-.08-.48.44-.63.66a.8.8,0,0,1,.65-.24A.77.77,0,0,0,355.39,10.87Z" />
      <path class="cls-1" d="M372.66,17.39l.34.05Z" />
      <path class="cls-1" d="M335.85,6.94a.44.44,0,0,0-.08-.22A.3.3,0,0,0,335.85,6.94Z" />
      <path class="cls-1" d="M13.7,18.06s0-.07,0-.1S13.62,18.06,13.7,18.06Z" />
      <path class="cls-1" d="M.11,16.75l.18-.05c0-.11,0-.21,0-.32Z" />
      <path class="cls-1" d="M278.6.41h0C278.93.37,278.77.38,278.6.41Z" />
      <path class="cls-1" d="M180.52,1c1.12.46-1.79.71-.1,1.21C180.26,1.94,181.91,1.23,180.52,1Z" />
      <path class="cls-1" d="M373.91,20.29l-.42-.19A1.31,1.31,0,0,0,373.91,20.29Z" />
      <path class="cls-1" d="M180.42,2.16h0l.18,0Z" />
      <path class="cls-1" d="M254,0a.64.64,0,0,0,.24.25C254.19.19,254.14.12,254,0Z" />
      <path class="cls-1" d="M272.27,1.29l-.45-.09A1.78,1.78,0,0,0,272.27,1.29Z" />
      <path class="cls-1" d="M244.42.67a1.17,1.17,0,0,0-.66-.05l.1.07A.61.61,0,0,1,244.42.67Z" />
      <path class="cls-1" d="M234.52.63l.18.11.31,0Z" />
      <path class="cls-1" d="M43.56,14.81a1.73,1.73,0,0,1-.5-.46C43.25,14.74,41.82,15,43.56,14.81Z" />
      <path class="cls-1" d="M374.27,20.19a.33.33,0,0,1-.36.1l.3.11A.18.18,0,0,0,374.27,20.19Z" />
      <path class="cls-1" d="M244,5.1,242.42,5A12.2,12.2,0,0,0,244,5.1Z" />
      <path class="cls-1" d="M114.23,9l-.35.09A.54.54,0,0,0,114.23,9Z" />
      <path class="cls-1" d="M237.76,5.07a2.48,2.48,0,0,0-.88-.39.62.62,0,0,0-.18.14Z" />
      <path class="cls-1" d="M43.06,14.35Z" />
      <path class="cls-1" d="M32.89,16.66c1.49-.13.63-.79.9-1.24,1.76-.38.88.46,1.52.78,1.09-.3,1.88-1.06,2.71-1.11.07.12.24.14.06.31,1.12-.7,3.48-.36,4.78-1.22a.44.44,0,0,1,.2.17,1.5,1.5,0,0,1-.31-1c.67-.08,1.2-.58,1.5-.13-.41,0-.43.22-.61.39l.68-.27c.7.63-.93.33-.88.84,1.34-.36,2.88-1.08,3.94-1,.28.66-2.42.46-1,.93L44.77,14c1.33,1-1,0,.25,1.05,2.15,0,2.35-.56,4.49-.56.45-.42-.21-.54.24-1,3-1,2.53,1.49,4.67.38.53-.5.68-1.37,2.3-1.06l-.47.81c2.07-.11,1.08-1.2,3.28-.88-.35.33-1.6.4-1.28.46,1.46.48,1-.52,2-.62l.28.66c2.19-.3,4.57-1,7-1.32-.12.21-.51.46.07.62a39.77,39.77,0,0,1,9.55-.31l1.09-.68c.26,0,.5.23.23.36,1.17.13,0-.37.56-.65.66-.09.9.27.5.48,2-.66,5.71-1.53,7.91-1.07l-.41.21c1.69.1,1.8-1.35,3.39-.92l-.29.12c3.65,0,7.62-.86,10.45-.17.46-.88,3.62.12,3.77-1.08,2.11.44,1.53.69,4.47.88.79,0,1.12-.81,2.07-1l.07.61,1.26-.73.75.69.89-.22c-.36,0-.78-.23-.74-.41,1.39-.37,3.47.2,3.52.51L120,8.49c-.06.25-.61.38-1,.56,1.74-.74.36.63,2-.05-.23-.13.09-.37.12-.5a9.74,9.74,0,0,0,4.06,0l-.24.44c2.48-.05,5.21-.52,8-.68-1-.14-.82-.89,0-1l.36.63c.51-.43-.86-.19.19-.75,1,0,.74.7.16.95l1.25-.3c.08.19-.21.31-.27.56.5-.44,2.22.52,2.93-.22l.08.19c2.78-.15,4-.45,6.29-.61,0-.56.91-.48,1.56-1a40.05,40.05,0,0,0,5.55.28c1.39-.35.38-.5,1-.86.13.5,2.13.36,1.11.78a45.81,45.81,0,0,0,6.1-.82c-.34-.19-.72-.27-.53-.45.54-.11,1.26.15,1.2.4l-.15.06c3.39-.92,8,1.13,10.64,0l-.15.06,2.8-.67c1.3,0-.77.42.21.69,3-1,4.81-.06,7.3-.72,2,1.43,6.89-.35,9.54.54l-.16-.35c.67-.37.82.18,1.33.24-.08-.27-.75-.29-.33-.5,5.72-.61,11.86.19,17.74.4,2.15,0,1.19-1.86,3.92-1.06l-.76.67c4.33-.87,8.88-.1,13.12-.81-.25.16-.26.36-.67.36.9.47,3.32,0,3.33-.39.66,0,.16.35.57.55.9.28,2.25-.62,2.73-.15.09.08-.25.16-.41.2.58-.24,2.73.05,2.17-.5,1.59.25,3.05-.25,4.32.08.83-.62,2.73.31,3-.57-.12.91,2.79.73,3.8.33-.34.27.88.29.48.66,1.15,0,2.21-.16,2-.62,2.11,1.11,4.28-.84,5.45.58,3.42-.42,6.6-.72,9.68-.83-.14.89-3.41,0-3.29.95,2.92-.3,4.62-1,7.51-.73.74.14-.44.38-.69.52,2.92-.3,5.62.27,8.23-.13,0,.08-.29.16-.56.22.51,0,1.18.17,1.14-.24l-.5.1c-.79-.63,2.08-1.18,2.18-1.48-.91,1.14,2.55.41,1.11,1.83.34-.06.77-.23.71-.51.49.1.64.27.12.56,1.84-.14,1.21-.61,2.87-.53,0,.2-.35.26-.54.49a5.05,5.05,0,0,1,3.11-.46c-.09.11.07.28-.35.25,2.41.07,4.15-.8,6.77-.29-.83.82.88.33,1,1.09l1.43-.13-.55-.4c1.24.1,2.37-.37,3.43-.06l-1,.25h2.34l-1.3-.37c1.28-.3-.07-1,1.57-.63-.34,0,1.24.08,1.86.58h0A3.52,3.52,0,0,1,300.11,5c.22.25-.25.81-.11,1,.65-.58,2.92,0,3.74-.55a.51.51,0,0,0-.24.61l.55-.47c.56.21.64.3.52.6,1.72.25-.47-1,1.55-.4-.17,0-.1.11-.44.16,2,.4,4,0,5.88.46.48.8-1.67,0-1.1.72,2.74.13,5.73-.32,8.35.15l-.49-.14c.49-1,1.9.75,3.29.42-.34,0-.5.53-.4.42,1.78.4,3.71.18,6.48.24l-.37.22c1,.39,2.76.53,3.89.81.38-.22,1-.07.68-.53,3.27,2.09,6.85.24,9.73,2.1-.37-.06-.93.08-.63.13l2.68.23c-.12-.49-.29-.33-.78-.79a3.09,3.09,0,0,1,1.83-.14c-1.24.06-.13.73.33,1.09-.06-.16.15-.28.13-.43,1.21,1.09.42-.86,2.19.07l-.15.22a8.06,8.06,0,0,1,2.19.06c.2.59-.8.09-.94.51,1.07.18,2.31-.52,3.15.22-.48,0-1.13-.11-1.61-.07a3.35,3.35,0,0,0,1.81,1l-.07,0,1.72.69-.42-.27c1.66-1.06,2.75.4,4.75,0-1.95.37-.41.4-.7,1,.41.29,1,.65.8.76,1-.24,1.29.72,2.64.39,0,.2.88.28.55.7,1.11.17-.15-.41,0-.61,1.85-.14,3.63,1.91,6.24,1.89,2.15.33,2.75-.13,4.73.31.51.54-.77.46-.77.46a5.79,5.79,0,0,0,2.7,1.1c-.25.07-.12.29.08.62.75.29.78-.42,1.64.29a3.1,3.1,0,0,1-1.06.38c.94.23,1.95.3,2.93.56.09.41-.77.21-1.18.26,1.1.29,2.68,1,3.25.72l-.54-.51c.37.17,0,.51-.34.45-1-.07-1.13-.81-1.09-1l.68.22c-.11-1.41-2.67-1.06-3.92-1.73l.88-.51c-.54,0-1.08,0-1.62,0-.21-.32-.23-.83.48-.67-.8-.77-1-.07-1.62-.83-.06-.1,0-.12.09-.12l-1-.14c.25-.09.05-.61.59-.27a4.37,4.37,0,0,0-2.1-.78c-.61-.07-1.08-.1-1.3-.51H369c-2.49-.57-.44.49-2.46.55l-.73-1.84-.42.49c-.24-.1-.72-.29-.56-.49-1.05.11.08.3-.58.51-1-.89-3.37-.75-3.37-1.77-.56.32,1.05.7-.32.62-.08-1.12-1.54-.23-2.52-1,.48-.43,1.46.12.47-.64-.9.71-2.11-.76-3.09-.84-.22.69-2.12-.19-3.76-.32.08-.11-.64-.38-1.56-.7s-2-.64-2.76-.92l.07-.11c-.44.66-1.93.21-3.07.13.13-.42.36-.55,1-.62l-1.05-.21a2.16,2.16,0,0,1-1.34.2l.37-.49c-1.41-.22-2.93.13-4.66-.56-.19.49,1.18,1.66-.77,1.66,0-.28,0-.76.5-.79a1.77,1.77,0,0,1-.93,0l.84-.33c-.78-.35-.49.31-1.14.16.08-.39-.44-.36-.29-.65.17,0,.54.25.82.14a3.94,3.94,0,0,1-1.83-.9c0,.23-.09.52-.64.49-1.4-.2-.4-.55-1.19-.88-.38.22-1.23-.21-1.35.37-.41-.06-.44-.35-.58-.53-.76.15-3.4-.4-2.67.33l.18.07h-.12c-2.46.24-4.9-1-7.3-1l0-.19c-1.44.05-3.16-.26-4.21.05-.42,0-.95-.46-.75-.67a5.39,5.39,0,0,1-2.77-.25c1.13-.23-.34-.34,1.14-.13-1.38-.32-1.67-.67-3.24-.29.57-.45-1-.75-1.68-.65l.95.45a12.08,12.08,0,0,1-2.07-.21l.42-.63c-2.82-1.06-5.32.89-7.4-.62-.8.4,1.54.45.81.94-1.32-.2-2.63-1.26-3-1.29-1.8-.51-1.77.83-3.66.44.23.26.42.9-1,1-1.32-.17-1.56-1.1-.71-1.23.32,0,.47.08.45.16.43-.05,1-.12.49-.41l-.18.23c-.65-.29-2.48-.38-2-.75-1,.16-.46.37.28.54-1.69-.46-2.67-.19-4.41-.53.28.14.52.44.24.42-2.56-.43-1.16.39-2.91.4-1-.42.4-.85-1.37-.64-1.06-.3-.19-.64.24-.81-1.62.37-3-.47-3.89-.6l.86-.15a5.71,5.71,0,0,1-1.35,0l.46.5C281.37.8,281,.78,281,.58c-.52.29.35.81-.68,1.19-.65-.27-2,.17-2.22-.47,2.07.31-.2-.64,1.56-.67a3.43,3.43,0,0,1-1.25-.06c-.07-.08.08-.13.22-.16-2-.65-1,.67-3,.56.28-.34-.45-.69-.79-.63.83,0,.38.61-.4.85-1.31-.32-1.44.16-2.13.1l.79.16c-.29.34-.94.27-1.87.35-.07-.28.85-.16.52-.29-1,.59-2.28-.73-3.72-.36-.66-.26-.05-.67-.62-.85-1.61.41-1.72-.53-3.41-.2.47.49.56.37-.63.81l2.76-.26-1.79.64c.84,0,1.77-.25,2.27-.16-.86.37-.77.25-.38.66-1.12-.75-2.27.36-3.57-.16l.07-1.18c-2-.58-3.54.5-6.1.17l.82.22c-.35.46-1.59,0-2.42.21.08-.39-.44-.55-.79-.8,0,.29-1.88-.06-2.13.72L250.93.43c-2.07-.23-2.38,1.1-4.37,1,.6-.43-.3-.71,1-1-.67,0-1.27-.09-1.28.19-.39-.26-1.85.51-2.46.13-.28.17-.38.58-1.13.54-.08-.08,0-.2,0-.2,0,.2-1.17.27-.52.7-2.05-1.23-5.73.08-7.52-1-1.45.14-3.2.27-4.52.3.08-.11,0-.19.25-.15-1.82-.36-1.11,1.13-3.19.73-1.06-.63,1.1-.35.44-.59-.3-1.3-2.5.19-3.9-.55l.34-.08c-1.07-.43-2.6.52-4.34.44,0,0,.08-.11,0-.19-1.18.67-3.43.92-5.1,1.13.51-.52.75-.28.43-.79-.75.08.23.82-1.27,1-.49-.27-1.57-.5-1.72-1l1.41-.06c-.74-.7-1.83.06-2.58-.06l.09-.31c-2.16.13-2.18.93-4.51.92l.25.23c-1.26.8-1.08-.42-2.33.19l-.4-.78a40.72,40.72,0,0,1-4.42,1A16.38,16.38,0,0,1,203.31.76c-.83,0-2.83.12-3.25.53a2.06,2.06,0,0,1,1.08-.18,7.51,7.51,0,0,1-4,1c.25-1.54-4.33-.28-5.57-1.42-2.91.66-5.82-.07-9.24.15,1.25,1.14-1,.07-.74,1.28-.79.11-1.1.1-1.17,0L178,1.52c-.58-.34.75-.3.66-.57-1.74,0-.75-.49-1.91-.78.25.43-.58.65-1.58.53l1.42.5C174.17,2,174.43.26,172,1l.76-.42c-1.25.28-4.64.18-5.83,1.22-.23-.13-.54-.46,0-.57-3,0-6.65,1.34-9,.85l.21-.31c-.56.12-.95.61-1.67.35,0-.13.21-.31-.05-.32a4.86,4.86,0,0,1-2.21.46l.62-.37c-3-.25-4.47,1-6.91,1.38,0-.88-2.37-1-3.53-1.13l0-.12c-3.42.07-5.76,1.05-8.9,1.57-2-.83-6.67,0-9.86-.34.49.13,0,.69-.59.81-.75-.13-2,.74-1.94-.07h.26c-.6-.76-2.11-.45-3.3-.4L120,4.67c-3.2-1.33-8.09,1.09-9.88-.16-.73.32-1.66.38-2.38.7V4.64A36.65,36.65,0,0,0,102,5l.49-.44c-1.45.06-1.71,1.76-3,1.89L99,5.59c-2.53.2-5.14-.35-7.57.6a.52.52,0,0,1,.49-.44c-1.19.07-4.64-.22-4.12.91-.08-.75-2.61.13-3.94.56l.17-.57A4.79,4.79,0,0,1,81.34,8c-.38,0-.37-.41.15-.31-1.29-.19-.95.6-2.51.43l.55-.4a2.23,2.23,0,0,0-1.87.72c-.81.28-2.49.06-2.72-.43a1.74,1.74,0,0,1-1.61.71c-.12-.18.15-.32.28-.39-2.21-.2-3.19.91-4.73.49a.42.42,0,0,0-.28-.31,29.21,29.21,0,0,1,3-.16c0-.52-1.45-.49-.39-1.29-1.1.48-2.94,1.48-4.33,1.36a.61.61,0,0,1-.19-.17l.13-.07a1.82,1.82,0,0,0-.85.16,5.62,5.62,0,0,0-1.15-.06c-.19-.41-1.62-.09-2.32-.05.11.56-.81.55.08.93-.11,0,.13-.07.59-.14a1,1,0,0,0,.29-.08l0,.05,1.73-.18a2.08,2.08,0,0,1-1.88.37,12.84,12.84,0,0,1-.9,1c-1-.7-2.89-1-3.19-1.42-2.1.5-5,.65-6.24,1.83-.6.19-.73-.24-1-.39.34-.13.76-.16.93-.32-1.18.37-3.57.43-3.79,1.19-1.56-.19.79-.76-1.29-.45l.26-.25c-4.23-.79-6.53,2.5-11.24,1.43.33.06.49.09.57.21-5.28-.17-10.67,1.66-15.91,1.14-1.48-.06-1.59.42-2.45.87l-.38-.57-1.45.85c-2.1.74-3.89-1.08-6.53.17l.4.37c-1,0-3.08.57-3,.09-.09.09-.28.46-.68.29l-.07-.31L5,15.67c-1.89,0,.16-1.28-2.58-1-1,.23-2.79,1.24-2.38,1.41.41,0,1.07.07,1.13.38l-.9.27c-.06.95-.66,2,1.68,2.36l1.52-.74.56.39-1.33.18c.8.33,1.24-.09,1.74-.41a1.06,1.06,0,0,0,.72.42l1.46-1.06c.23.35-.62.8.45.89.68-.49-.79-.74.38-1.14.81.34.62.7,1.47.25.15.22,0,.39-.36.54C9.34,18,10.66,18,11,17.49c.84.44,2.66-.42,2.67.47A5.23,5.23,0,0,1,15.74,17c-1.22,1.19,2.73-.23,2.49.94.89-1.05,3.51-.79,5.2-1.49-.09.09-.26.26-.42.23A6.6,6.6,0,0,1,25,17c.05-.79,1.56-1.12,2.33-1.68,1.28.63-.64,1-.19,1.67-.12-.63,2-.84,1.57-1.32,1,.37.81.14,1.35.74.07-1,.84-.25,1.55-.92,1.37.35.43.88,1.86.44C34.16,16.19,32.89,16.66,32.89,16.66ZM67.54,11.8h0l-.72.09Zm2.93-.26c-.36,0-.81,0-1.28.09-.11-.19,0-.4.28-.41C69.32,11.36,70,11.41,70.47,11.54ZM63.94,8.19c.46-.12.62,0,.7.08-.22,0-.48.07-.81.14l0,.07A.75.75,0,0,1,63.94,8.19Z" />
      <path class="cls-1" d="M63.17,9a.85.85,0,0,1-.19.06l.29.1L63.42,9Z" />
      <path class="cls-1" d="M329.42,6.72l-.06,0a.4.4,0,0,1,.12.1A.33.33,0,0,1,329.42,6.72Z" />
      <polygon class="cls-1" points="110.99 9.53 110.98 9.39 110.73 9.53 110.99 9.53" />
      <path class="cls-1" d="M345.05,11.31a.42.42,0,0,0,.18.18S345.15,11.38,345.05,11.31Z" />
      <path class="cls-1" d="M351.82,12.9l.91.42A5.55,5.55,0,0,0,351.82,12.9Z" />
      <path class="cls-1" d="M356.94,14.45a.83.83,0,0,0,.16-.21h0Z" />
      <path class="cls-1" d="M272.5,5.06l-.21,0C271.8,5.17,272.14,5.14,272.5,5.06Z" />
      <path class="cls-1" d="M297.92,5.12a5.58,5.58,0,0,1-.83.2C297.54,5.4,297.89,5.44,297.92,5.12Z" />
      <path class="cls-1" d="M244.16,5.11h0Z" />
      <path class="cls-1" d="M295.91,5.24a2.44,2.44,0,0,0,1.18.08A3.6,3.6,0,0,0,295.91,5.24Z" />
      <path class="cls-1" d="M378.34,22.56l.21.14a.1.1,0,0,1,.07-.07Z" />
      <path class="cls-1" d="M378.62,22.63l.28.07C378.78,22.64,378.68,22.59,378.62,22.63Z" />
      <path class="cls-1" d="M379.48,22.86l-.58-.16C379.08,22.8,379.29,22.94,379.48,22.86Z" />
      <path class="cls-1" d="M372.13,19.41l-.16.16A.41.41,0,0,0,372.13,19.41Z" />
      <path class="cls-1" d="M370.13,18.67c.45.24,1,.88,1.72,1l.12-.12C371.55,19.73,370.7,18.53,370.13,18.67Z" />
      <path class="cls-1" d="M362.4,13.42l1.7.68c-.24-.29-.55-.7.26-.5C362.34,12.31,364.67,14.2,362.4,13.42Z" />
      <path class="cls-1" d="M357,11.6c1,.15.06-.31.15-.42C356.53,11.22,356.38,11.23,357,11.6Z" />
      <path class="cls-1" d="M316.86,4.7l.15-.5C316.25,4.19,317,4.39,316.86,4.7Z" />
      <polygon class="cls-1" points="308.87 6.55 309.56 6.93 309.95 6.5 308.87 6.55" />
      <polygon class="cls-1" points="304.62 2.5 304.95 2.46 303.68 2.54 304.62 2.5" />
      <path class="cls-1" d="M236.28.14l.23.63C237,.66,237.12,0,236.28.14Z" />
      <path class="cls-1" d="M206.8,1.07A1.56,1.56,0,0,0,205.14.9,10.59,10.59,0,0,0,206.8,1.07Z" />
      <polygon class="cls-1" points="118.45 3.97 119.02 3.72 117.92 3.97 118.45 3.97" />
    </g>
  </g>
</svg>