<svg xmlns="http://www.w3.org/2000/svg" viewBox="0 0 380.06 394"><defs><style>.cls-1{fill:#fafafa;}.cls-2,.cls-6{fill:#e1e1e1;}.cls-2,.cls-3,.cls-4{fill-rule:evenodd;}.cls-3,.cls-7{fill:#f5f5f5;}.cls-4,.cls-5{fill:#ececec;}.cls-8{fill:#375a64;}.cls-9{fill:#1a2e35;}.cls-10{fill:#ea0029;}.cls-11{fill:#e8505b;}.cls-12{opacity:0.2;}.cls-13{fill:#163d6b;}.cls-14{fill:#fff;}.cls-15{fill:#ffc19d;}.cls-16{fill:#ff9c6a;}.cls-17{opacity:0.3;}</style></defs><g id="Capa_2" data-name="Capa 2"><g id="Capa_1-2" data-name="Capa 1"><path class="cls-1" d="M50.74,123.57H47.12a2.74,2.74,0,0,0-1.09.12,1.63,1.63,0,0,0-.86.76,1.67,1.67,0,0,0-.2.58,3.35,3.35,0,0,0,0,.64v.66a3.2,3.2,0,0,1,0,.69,1.84,1.84,0,0,1-.81,1.16,1.64,1.64,0,0,1-.71.25c-.26,0-.51,0-.77,0H29.48a2.38,2.38,0,0,1-.53-.05,1.75,1.75,0,0,1-.9-.56,1.84,1.84,0,0,1-.44-1,3.25,3.25,0,0,1,0-.54v-.54a2.76,2.76,0,0,0-.11-1.07,1.78,1.78,0,0,0-.65-.84,1.64,1.64,0,0,0-1-.29H17.44a5.85,5.85,0,0,0-2.44.46,5.56,5.56,0,0,0-2,1.52,5.43,5.43,0,0,0-1.15,2.3c-.06.22-.07.44-.11.65l0,.56v89a5.77,5.77,0,0,0,.23,1.75,5.5,5.5,0,0,0,2.15,3,5.76,5.76,0,0,0,3.54,1H50.54c1.17,0,2.35,0,3.5,0a5.57,5.57,0,0,0,3.14-1.21,5.87,5.87,0,0,0,1.13-1.26,5.38,5.38,0,0,0,.7-1.52,6.2,6.2,0,0,0,.21-1.66v-8.33c0-17.52,0-33.29,0-46.54s0-24,0-31.38v-2.63a5.77,5.77,0,0,0-.41-2.24,5.56,5.56,0,0,0-1-1.65,5.34,5.34,0,0,0-1.26-1,5.45,5.45,0,0,0-2.08-.73,5.13,5.13,0,0,0-.56-.05H50.74Z"/><path class="cls-1" d="M365.24,123.57h-3.62a2.7,2.7,0,0,0-1.09.12,1.69,1.69,0,0,0-.87.76,2.21,2.21,0,0,0-.2.58,3.37,3.37,0,0,0,0,.64v.66a2.68,2.68,0,0,1-.05.69,1.77,1.77,0,0,1-.81,1.16,1.59,1.59,0,0,1-.71.25c-.25,0-.5,0-.76,0H344a2.29,2.29,0,0,1-.52-.05,1.78,1.78,0,0,1-.91-.56,1.91,1.91,0,0,1-.44-1,4.87,4.87,0,0,1,0-.54v-.54a3,3,0,0,0-.1-1.07,1.78,1.78,0,0,0-.65-.84,1.66,1.66,0,0,0-1-.29h-8.36a5.84,5.84,0,0,0-2.43.46,5.68,5.68,0,0,0-2,1.52,5.55,5.55,0,0,0-1.15,2.3c-.05.22-.07.44-.11.65s0,.37,0,.56v89a5.76,5.76,0,0,0,.22,1.75,5.61,5.61,0,0,0,2.15,3,5.79,5.79,0,0,0,3.55,1H365c1.17,0,2.34,0,3.5,0a5.56,5.56,0,0,0,3.13-1.21,6.2,6.2,0,0,0,1.14-1.26,5.64,5.64,0,0,0,.69-1.52,5.82,5.82,0,0,0,.21-1.66v-8.33c0-17.52,0-33.29,0-46.54s0-24,0-31.38v-2.63a5.57,5.57,0,0,0-2.71-4.92,5.58,5.58,0,0,0-2.65-.78h-3.17Z"/><path class="cls-2" d="M159.9,52.48a18.06,18.06,0,0,1,.12,4.81l3.7,2.48-2.65,6.88L156.66,66a17.91,17.91,0,0,1-3.31,3.49l.86,4.37-6.74,3-2.66-3.57a18,18,0,0,1-4.81.11l-2.48,3.7-6.88-2.65.65-4.41a17.91,17.91,0,0,1-3.49-3.31l-4.37.86-3-6.74L124,58.18a18,18,0,0,1-.12-4.8l-3.7-2.48L122.85,44l4.41.64a17.86,17.86,0,0,1,3.31-3.48l-.86-4.37,6.74-3,2.66,3.57a18,18,0,0,1,4.8-.12l2.49-3.7,6.88,2.65-.65,4.41a18.16,18.16,0,0,1,3.48,3.31l4.37-.86,3,6.74-3.57,2.66Zm-10.58,0a7.91,7.91,0,1,0-4,10.44A7.9,7.9,0,0,0,149.32,52.43Z"/><path class="cls-3" d="M154.54,12.5a12.11,12.11,0,0,1,.07,3.18l2.45,1.64-1.75,4.54-2.92-.42a11.62,11.62,0,0,1-2.19,2.3l.57,2.89-4.45,2-1.76-2.36a11.7,11.7,0,0,1-3.18.08l-1.64,2.45L135.2,27l.42-2.92a11.91,11.91,0,0,1-2.3-2.19l-2.89.57-2-4.45,2.37-1.76a11.7,11.7,0,0,1-.08-3.18l-2.45-1.64L130,6.9l2.92.43A11.91,11.91,0,0,1,135.15,5l-.57-2.89,4.45-2,1.76,2.36A11.69,11.69,0,0,1,144,2.45L145.61,0l4.54,1.75-.42,2.92A11.62,11.62,0,0,1,152,6.86l2.89-.57,2,4.45-2.36,1.76Zm-7,0a5.22,5.22,0,1,0-2.66,6.9A5.23,5.23,0,0,0,147.54,12.47Z"/><path class="cls-2" d="M281.91,308.46a21.35,21.35,0,0,1,.14,5.64l4.34,2.91-3.11,8.07-5.17-.76a21.49,21.49,0,0,1-3.89,4.09l1,5.12-7.9,3.51-3.12-4.19a20.93,20.93,0,0,1-5.64.13l-2.91,4.35-8.06-3.11.75-5.17a21.15,21.15,0,0,1-4.08-3.89l-5.13,1-3.5-7.9,4.18-3.12a20.93,20.93,0,0,1-.13-5.64l-4.34-2.91,3.11-8.07,5.17.76a21.13,21.13,0,0,1,3.88-4.09l-1-5.12,7.9-3.51,3.12,4.19a21.36,21.36,0,0,1,5.64-.14l2.91-4.34,8.07,3.11-.76,5.17a21.49,21.49,0,0,1,4.09,3.89l5.12-1,3.51,7.9-4.19,3.12Zm-12.41-.06a9.27,9.27,0,1,0-4.71,12.24A9.26,9.26,0,0,0,269.5,308.4Z"/><path class="cls-3" d="M261,356.34a12.11,12.11,0,0,1,.08,3.29l2.53,1.69-1.81,4.7-3-.44a12.42,12.42,0,0,1-2.26,2.38l.58,3-4.6,2-1.82-2.44a12,12,0,0,1-3.28.08l-1.7,2.53-4.7-1.81.44-3a12.46,12.46,0,0,1-2.38-2.27l-3,.59-2.05-4.6,2.45-1.82a12,12,0,0,1-.08-3.28l-2.53-1.7,1.81-4.7,3,.44a12.72,12.72,0,0,1,2.26-2.38l-.59-3,4.61-2,1.82,2.44a12.45,12.45,0,0,1,3.28-.08l1.7-2.53,4.7,1.81-.44,3a12.4,12.4,0,0,1,2.38,2.26l3-.59,2,4.61L261,356.34Zm-7.22,0a5.4,5.4,0,1,0-2.75,7.13A5.4,5.4,0,0,0,253.81,356.31Z"/><path class="cls-4" d="M184.17,34.63a11,11,0,0,1,.07,2.87L186.45,39l-1.59,4.11-2.63-.39a10.82,10.82,0,0,1-2,2.08l.52,2.61-4,1.79L175.15,47a10.18,10.18,0,0,1-2.86.07l-1.49,2.21-4.1-1.58.38-2.63a10.82,10.82,0,0,1-2.08-2l-2.61.51-1.78-4L162.74,38a11,11,0,0,1-.07-2.87l-2.21-1.48L162,29.57l2.64.39a10.77,10.77,0,0,1,2-2.08l-.51-2.61,4-1.79,1.59,2.14a10.25,10.25,0,0,1,2.87-.07l1.48-2.21,4.11,1.58-.39,2.63a10.82,10.82,0,0,1,2.08,2l2.61-.51,1.79,4-2.13,1.59Zm-6.32,0a4.72,4.72,0,1,0-2.4,6.23A4.71,4.71,0,0,0,177.85,34.6Z"/><path class="cls-5" d="M342.87,331.91a17.31,17.31,0,0,1,10.73-1.3,8.89,8.89,0,0,1,5.31,2.37c1.32,1.46,1.58,4,0,5.29a5.08,5.08,0,0,1-3.34.85c-2.84,0-6-.53-8.26,1.17-1.29,1-2.15,2.6-3.7,3.08a3.66,3.66,0,0,1-4-1.79,6.28,6.28,0,0,1-.46-4.61A7.07,7.07,0,0,1,342.87,331.91Z"/><path class="cls-5" d="M335.39,317.47c2,2.85,5.87,1.91,7.67.17s2.56-4.27,3.26-6.67c1.58-5.5,3.17-11.27,2-16.87a9.41,9.41,0,0,0-2.16-4.58,4.91,4.91,0,0,0-4.64-1.55c-1.95.52-3.17,2.44-4,4.26a40.25,40.25,0,0,0-4,17.25c0,2.78.32,5.7,1.89,8"/><path class="cls-5" d="M329.9,321.56a10.38,10.38,0,0,0,1.62-9.55,18.43,18.43,0,0,0-5.66-8.2,30.47,30.47,0,0,0-10.13-6,10.68,10.68,0,0,0-4.56-.77,4.75,4.75,0,0,0-3.82,2.31c-1.06,2,0,4.5,1.06,6.51A77.93,77.93,0,0,0,315.07,316c2,2.57,4.27,5.11,7.31,6.27s6.2,1,7.81-1.08"/><path class="cls-6" d="M335.25,360.49a5.7,5.7,0,0,0,.18-1.29c.09-.95.21-2.13.34-3.54s.39-3.26.8-5.19a39.63,39.63,0,0,1,1.89-6.12,22.46,22.46,0,0,1,3.12-5.54,11.67,11.67,0,0,1,4-3.29,10.87,10.87,0,0,1,3.33-1,6.32,6.32,0,0,0,1.29-.19,6.14,6.14,0,0,0-1.32,0,10.28,10.28,0,0,0-3.47.9,11.59,11.59,0,0,0-4.17,3.32,22,22,0,0,0-3.24,5.65,37.4,37.4,0,0,0-1.87,6.22,45.22,45.22,0,0,0-.69,5.26c-.11,1.5-.16,2.71-.18,3.56A5.47,5.47,0,0,0,335.25,360.49Z"/><path class="cls-6" d="M335.49,357.77a2.58,2.58,0,0,0,0-.6c0-.45,0-1,0-1.72,0-1.49,0-3.65.08-6.32.13-5.33.59-11.07,1.48-19.17.84-7.61,2-16.46,3.16-22.22.25-1.31.51-2.49.75-3.52s.43-1.93.62-2.65.29-1.23.4-1.67a2,2,0,0,0,.1-.59,3.67,3.67,0,0,0-.2.56c-.14.43-.3,1-.5,1.65s-.45,1.6-.71,2.63-.55,2.2-.83,3.51a193.15,193.15,0,0,0-3.32,20.62c-.89,8.11-1.29,15.5-1.33,20.85,0,2.67,0,4.83.1,6.33,0,.7.07,1.26.1,1.72A3.43,3.43,0,0,0,335.49,357.77Z"/><path class="cls-6" d="M335.53,343.53a11.27,11.27,0,0,0,0-1.8c-.07-1.15-.23-2.82-.55-4.86a64.7,64.7,0,0,0-1.59-7.09,55.85,55.85,0,0,0-3-8.39,44.53,44.53,0,0,0-8.71-13.56,21.66,21.66,0,0,0-2-1.91c-.31-.26-.59-.53-.87-.74l-.8-.55a11.9,11.9,0,0,0-1.51-1,55.46,55.46,0,0,1,5,4.43,47,47,0,0,1,8.49,13.51,65.76,65.76,0,0,1,3,8.31,71.48,71.48,0,0,1,1.68,7c.37,2,.59,3.68.72,4.82A11.54,11.54,0,0,0,335.53,343.53Z"/><polygon class="cls-6" points="321.76 368.65 323.19 388.21 348.31 388.21 349.74 368.65 321.76 368.65"/><rect class="cls-6" x="319.34" y="360.95" width="33.4" height="7.71"/><polygon class="cls-5" points="319.34 387.46 319.34 389.59 320.91 389.59 352.18 389.59 352.18 387.46 319.34 387.46"/><polygon class="cls-6" points="322.44 393.35 320.91 389.59 350.98 389.59 349.19 393.35 322.44 393.35"/><path class="cls-7" d="M349.27,375a1.13,1.13,0,0,1-.12.18l-.37.5-1.47,1.87-.06.09-.06-.09-3.6-5h.21l-3.54,5-.11.16-.13-.15-4.19-5h.24c-.08.09-.15.19-.23.29-1.31,1.63-2.57,3.21-3.76,4.71l-.12.15-.12-.16-3.54-5h.21l-4.36,5-.08.09-.06-.1c-.57-1-1-1.74-1.37-2.3-.14-.24-.25-.45-.35-.61a1.1,1.1,0,0,1-.1-.21,1.27,1.27,0,0,1,.14.19c.11.15.23.35.39.59.35.54.83,1.3,1.43,2.25H324l4.29-5,.11-.13.1.14,3.57,5h-.24l3.74-4.71.23-.29.12-.15.13.14c1.46,1.76,2.88,3.45,4.18,5H340l3.57-5,.11-.15.1.15,3.52,5h-.13l1.52-1.82.41-.47A.75.75,0,0,1,349.27,375Z"/><path class="cls-7" d="M350.08,368.52c0,.09-6.29.16-14.05.16s-14.06-.07-14.06-.16,6.29-.15,14.06-.15S350.08,368.44,350.08,368.52Z"/><path class="cls-7" d="M351.35,389.8c0,.09-6.84.16-15.27.16s-15.28-.07-15.28-.16,6.84-.15,15.28-.15S351.35,389.72,351.35,389.8Z"/><path class="cls-8" d="M380.06,393.77c0,.13-85.09.23-190,.23s-190-.1-190-.23,85.07-.24,190-.24S380.06,393.64,380.06,393.77Z"/><rect class="cls-9" x="45.26" y="351.39" width="50.46" height="6.93"/><path class="cls-9" d="M95.8,358.41H45.17v-7.1H95.8Zm-50.46-.17H95.63v-6.76H45.34Z"/><polygon class="cls-9" points="49.94 356.02 57.2 391.85 84.07 391.85 91.09 358.33 49.94 356.02"/><polygon class="cls-8" points="49.94 388.46 53.81 393.79 86.47 393.79 91.09 388.46 49.94 388.46"/><path class="cls-9" d="M68.59,357.07c-.1,0-.22-16.6-.28-37.08s0-37.07.07-37.07.23,16.59.29,37.07S68.69,357.07,68.59,357.07Z"/><path class="cls-9" d="M79.83,315.52a1.53,1.53,0,0,1-.13.39L79.25,317l-.33.77c-.11.29-.22.61-.34.94l-.39,1.08c-.13.39-.24.8-.37,1.23a50,50,0,0,0-1.41,6.18,72.35,72.35,0,0,0-.78,7.73A102.23,102.23,0,0,0,76,349c.16,1.8.32,3.26.44,4.26,0,.48.09.86.13,1.16a2.53,2.53,0,0,1,0,.41,1.42,1.42,0,0,1-.09-.4c0-.3-.12-.68-.2-1.15-.16-1-.36-2.45-.56-4.25a92.37,92.37,0,0,1-.5-14.16,70.15,70.15,0,0,1,.81-7.76,45.62,45.62,0,0,1,1.5-6.2c.14-.43.25-.85.4-1.23s.28-.74.41-1.08.26-.65.37-.94.25-.53.36-.76l.51-1.05A2.14,2.14,0,0,1,79.83,315.52Z"/><path class="cls-9" d="M78.54,302.1a3.39,3.39,0,0,1-.16.55l-.52,1.54-.39,1.11c-.13.42-.26.86-.41,1.34-.29,1-.63,2.05-.94,3.28l-.5,1.92q-.23,1-.48,2.1c-.35,1.45-.6,3-.93,4.65-.55,3.3-1,7-1.38,10.79s-.46,7.53-.51,10.87,0,6.36.17,8.89c.05,1.26.13,2.4.19,3.41s.12,1.86.19,2.57l.12,1.62a3.05,3.05,0,0,1,0,.57,3.85,3.85,0,0,1-.09-.56c0-.4-.11-.94-.19-1.62s-.17-1.57-.25-2.57-.18-2.14-.24-3.41c-.17-2.53-.24-5.55-.25-8.9s.16-7,.48-10.9.84-7.51,1.42-10.81c.33-1.65.6-3.22,1-4.67l.5-2.1c.18-.66.36-1.3.53-1.91.32-1.23.68-2.32,1-3.28.16-.48.3-.92.44-1.33s.29-.77.41-1.11c.25-.63.45-1.14.59-1.52A3,3,0,0,1,78.54,302.1Z"/><path class="cls-9" d="M65.4,360s0-.06,0-.19,0-.34-.05-.57c0-.53-.08-1.27-.14-2.2-.13-1.94-.3-4.69-.51-8.09-.44-6.82-1.07-16.25-2.22-26.62-.59-5.19-1.27-10.11-2-14.58-.37-2.23-.71-4.35-1.1-6.32s-.74-3.81-1.09-5.48-.7-3.18-1-4.51-.57-2.46-.81-3.39-.4-1.62-.52-2.14l-.13-.56c0-.12,0-.19,0-.19a.94.94,0,0,1,.06.19c0,.14.1.32.17.54.14.52.34,1.23.59,2.13s.56,2.05.87,3.37.7,2.83,1.05,4.5.76,3.51,1.13,5.48.76,4.1,1.14,6.33c.73,4.47,1.42,9.4,2,14.59,1.15,10.38,1.74,19.82,2.11,26.65.19,3.42.32,6.18.4,8.09l.08,2.2v.58C65.41,359.94,65.41,360,65.4,360Z"/><path class="cls-10" d="M68.18,290.9a5,5,0,0,0-5-4.15,7.8,7.8,0,0,0-6,3.26,18.84,18.84,0,0,0-2.89,6.42,43.61,43.61,0,0,0-1.78,17.08,25.86,25.86,0,0,0,7.11,15.41A3,3,0,0,0,62.1,330a3,3,0,0,0,1.29-.8A38.24,38.24,0,0,0,75.8,300.16a11.81,11.81,0,0,0-1.55-6.25c-1.21-1.82-4-3.74-6.07-3"/><path class="cls-11" d="M50.54,272.06c-1.11,2-2.21,4-3.32,6-.08.14-.18.3-.34.31s-.31-.15-.4-.29q-4.41-6.75-8.8-13.5l2-1.15Z"/><g class="cls-12"><path d="M50.54,272.06c-1.11,2-2.21,4-3.32,6-.08.14-.18.3-.34.31s-.31-.15-.4-.29q-4.41-6.75-8.8-13.5l2-1.15Z"/></g><path class="cls-10" d="M68.38,282.92l-30-17.71c-.3-.18-.64-.39-.73-.73s.22-.88.54-1.21a20.71,20.71,0,0,1,16-6.3,18.33,18.33,0,0,1,14.49,9c2.9,5.17,3,12-.33,16.93"/><path class="cls-9" d="M42.71,259.56a1.69,1.69,0,0,1,.39-.05c.26,0,.64-.06,1.13-.05a22.12,22.12,0,0,1,4.17.33,24,24,0,0,1,17,11.85,24,24,0,0,1,2.38,5.72,22.62,22.62,0,0,1,.75,4.11,8.27,8.27,0,0,1,0,.87,1.48,1.48,0,0,1-.23.66,4.88,4.88,0,0,0,0-1.52,25.92,25.92,0,0,0-.85-4.05A24.47,24.47,0,0,0,48.35,260a25.59,25.59,0,0,0-4.12-.44C43.25,259.58,42.71,259.59,42.71,259.56Z"/><path class="cls-9" d="M64.32,270.7a7.72,7.72,0,0,1-1.51.69c-1,.37-2.3.85-3.79,1.33s-2.86.85-3.86,1.09a7.74,7.74,0,0,1-1.64.32,8.36,8.36,0,0,1,1.57-.56l3.82-1.19,3.81-1.23A7.55,7.55,0,0,1,64.32,270.7Z"/><path class="cls-9" d="M59.6,258a12.3,12.3,0,0,1,.35,3.34,13.1,13.1,0,0,1-.18,3.36,20.91,20.91,0,0,1-.18-3.35A21.44,21.44,0,0,1,59.6,258Z"/><path class="cls-9" d="M38.12,264.88a13.13,13.13,0,0,1,2.18-.77c1.36-.42,3.26-.95,5.38-1.46s4-.9,5.45-1.15a12.8,12.8,0,0,1,2.29-.31,16,16,0,0,1-2.24.56c-1.39.31-3.31.74-5.42,1.25s-4,1-5.39,1.35A16.12,16.12,0,0,1,38.12,264.88Z"/><path class="cls-10" d="M55.73,285.79c-2.58-2-5.31-2.34-8.55-2.21A26.17,26.17,0,0,0,37.83,286C32.77,288.21,28,291.47,25,296.1s-4.08,10.74-1.81,15.78a2.21,2.21,0,0,0,1,1.24A2.43,2.43,0,0,0,25.9,313c5.76-1.88,11.55-3.77,16.84-6.71s10.11-7,12.95-12.37a10.62,10.62,0,0,0,1.36-4.11,5.12,5.12,0,0,0-1.32-4"/><path class="cls-9" d="M55.78,285.19a2.11,2.11,0,0,1-.41.16l-1.21.42-.87.29c-.32.11-.66.26-1,.4-.73.29-1.58.59-2.47,1l-1.41.64c-.49.23-1,.5-1.49.77-1,.51-2.1,1.16-3.22,1.83a55.51,55.51,0,0,0-6.82,5A56.43,56.43,0,0,0,31,301.88c-.8,1-1.58,2-2.22,3-.33.48-.67.93-1,1.38L27,307.55c-.54.83-.94,1.63-1.33,2.31-.18.35-.37.66-.52,1l-.4.83c-.23.47-.42.85-.56,1.15a2.09,2.09,0,0,1-.22.38,1.61,1.61,0,0,1,.15-.41l.5-1.18c.12-.25.24-.54.38-.84s.32-.63.5-1c.37-.7.75-1.51,1.28-2.35.26-.43.53-.87.8-1.34s.62-.92.94-1.4c.64-1,1.42-2,2.22-3A49.2,49.2,0,0,1,43.5,290.44c1.14-.66,2.21-1.31,3.26-1.82.52-.26,1-.53,1.51-.75l1.43-.62c.9-.42,1.76-.7,2.5-1,.37-.13.71-.27,1-.37l.89-.26,1.23-.35A1.44,1.44,0,0,1,55.78,285.19Z"/><path class="cls-9" d="M35.62,296.1a58.91,58.91,0,0,1-6.27,2A57.53,57.53,0,0,1,23,299.8a61.77,61.77,0,0,1,6.27-2A63.42,63.42,0,0,1,35.62,296.1Z"/><path class="cls-9" d="M35.36,310a10,10,0,0,1-.13-1.95c0-1.21,0-2.88,0-4.73s.15-3.51.25-4.72a9.57,9.57,0,0,1,.25-1.94,11.2,11.2,0,0,1,0,2c0,1.32-.09,2.93-.14,4.71s-.09,3.39-.12,4.72A10.74,10.74,0,0,1,35.36,310Z"/><path class="cls-9" d="M47.23,303.91c-.1,0-.42-3.39-.71-7.59s-.44-7.6-.34-7.61.41,3.39.7,7.59S47.33,303.9,47.23,303.91Z"/><path class="cls-9" d="M32.46,288.38a11,11,0,0,1,2-.06c1.24,0,3,.05,4.84.11s3.61.14,4.84.21a11.58,11.58,0,0,1,2,.2,11,11,0,0,1-2,.06c-1.24,0-2.95,0-4.85-.11s-3.6-.14-4.84-.21A11.36,11.36,0,0,1,32.46,288.38Z"/><path class="cls-9" d="M60.94,329.71a1.65,1.65,0,0,1,0-.41c0-.3,0-.68-.06-1.15,0-1-.05-2.45,0-4.25s.15-3.93.37-6.29.57-4.95,1-7.65,1.1-5.24,1.71-7.54,1.27-4.34,1.87-6,1.12-3.06,1.52-4c.18-.44.33-.79.45-1.07A2.32,2.32,0,0,1,68,291s0,.14-.11.39l-.39,1.09c-.36.94-.84,2.31-1.41,4s-1.18,3.74-1.79,6-1.18,4.83-1.67,7.52-.83,5.27-1.08,7.62-.39,4.48-.45,6.27-.1,3.24-.1,4.24c0,.47,0,.85,0,1.15A2.18,2.18,0,0,1,60.94,329.71Z"/><path class="cls-9" d="M62.52,310.06a8.27,8.27,0,0,1-1.2,1.32c-.77.77-1.87,1.81-3.13,2.91s-2.43,2.06-3.3,2.73a7.82,7.82,0,0,1-1.46,1,10.22,10.22,0,0,1,1.3-1.21L58,314l3.2-2.83A11,11,0,0,1,62.52,310.06Z"/><path class="cls-9" d="M72,317.71A12.93,12.93,0,0,1,70.74,316l-3-4.33-3-4.28a14.28,14.28,0,0,1-1.21-1.81A12.27,12.27,0,0,1,65,307.18c.84,1.06,2,2.55,3.12,4.24s2.18,3.24,2.89,4.39A13,13,0,0,1,72,317.71Z"/><path class="cls-9" d="M67,293.66c.06.08-3.1,2.2-7,4.74s-7.19,4.52-7.24,4.44,3.1-2.21,7-4.74S67,293.57,67,293.66Z"/><path class="cls-9" d="M75.94,303.26a59.39,59.39,0,0,1-4.77-4.41,58.37,58.37,0,0,1-4.52-4.67,61.18,61.18,0,0,1,4.77,4.41A60.59,60.59,0,0,1,75.94,303.26Z"/><path class="cls-10" d="M78.17,303.06l2.71-.22a13.51,13.51,0,0,0,5.47-1.67,21,21,0,0,1,2.55-1.28c3.35-1.35,7.08-1.11,10.68-1.29a44,44,0,0,0,17-4.35,1.56,1.56,0,0,0,.74-.67c.56-1-.47-1.91-1.36-2.46-4.56-2.81-9.21-5.66-14.38-7.05s-11-1.16-15.46,1.87c-5.18,3.57-7.07,10.89-8,17.12"/><path class="cls-9" d="M117.39,293.25a2.26,2.26,0,0,1-.46-.21l-1.29-.68c-1.11-.58-2.71-1.45-4.74-2.42a43.8,43.8,0,0,0-7.34-2.82,24.09,24.09,0,0,0-9.51-.78,16.3,16.3,0,0,0-8.67,3.73,19.23,19.23,0,0,0-4.51,6.34,51.57,51.57,0,0,0-2,4.94l-.49,1.36a1.8,1.8,0,0,1-.19.47,3,3,0,0,1,.12-.49c.11-.35.25-.81.42-1.39a46.35,46.35,0,0,1,1.87-5,19.13,19.13,0,0,1,4.52-6.48A16.46,16.46,0,0,1,94,286a24.15,24.15,0,0,1,9.64.81,42.73,42.73,0,0,1,7.36,2.91c2,1,3.61,1.91,4.7,2.53L117,293A2.79,2.79,0,0,1,117.39,293.25Z"/><path class="cls-9" d="M110.88,296.74c0,.09-3.59-2.21-7.91-5.11s-7.76-5.34-7.71-5.42,3.6,2.21,7.91,5.12S110.94,296.66,110.88,296.74Z"/><path class="cls-9" d="M107.11,286a9.22,9.22,0,0,1-2.58.46,8.89,8.89,0,0,1-2.63,0,15.94,15.94,0,0,1,2.6-.27A15.45,15.45,0,0,1,107.11,286Z"/><path class="cls-9" d="M91.6,284a6.73,6.73,0,0,1-1.16,1.81A8.08,8.08,0,0,1,89,287.49a6.56,6.56,0,0,1,1.16-1.81A7.77,7.77,0,0,1,91.6,284Z"/><path class="cls-9" d="M94.78,298.83a8.89,8.89,0,0,1-1.71-.92c-1-.63-2.4-1.54-3.88-2.61s-2.78-2.08-3.72-2.83A10.6,10.6,0,0,1,84,291.21a10.27,10.27,0,0,1,1.62,1.06L89.4,295c1.47,1.07,2.82,2,3.81,2.68A14.25,14.25,0,0,1,94.78,298.83Z"/><path class="cls-10" d="M82.16,314.57c-2.58-.68-5.66,1.83-6.19,4.45s.45,5.29,1.6,7.7a39.25,39.25,0,0,0,10.68,14,26.41,26.41,0,0,0,16.33,6c-1.09-5.07.29-10.37-.32-15.52a20.21,20.21,0,0,0-17.88-17.71c-1.65-.18-3.56-.43-4.22,1.09"/><path class="cls-9" d="M104.58,346.71a1.92,1.92,0,0,1-.37-.17,7,7,0,0,1-1-.65,10.11,10.11,0,0,1-2.55-3.41c-.41-.8-.87-1.67-1.32-2.63s-.9-2-1.39-3.07a27.85,27.85,0,0,0-1.71-3.28,23.82,23.82,0,0,0-2.35-3.2c-1.76-2.08-3.66-3.87-5.31-5.59a36.31,36.31,0,0,1-4-4.86,17.42,17.42,0,0,1-2-3.78,10.58,10.58,0,0,1-.35-1.11,2.2,2.2,0,0,1-.08-.39s.18.53.56,1.45a18.7,18.7,0,0,0,2.06,3.69,38.69,38.69,0,0,0,4.07,4.77c1.65,1.7,3.56,3.49,5.35,5.59a26.34,26.34,0,0,1,2.38,3.24,28.34,28.34,0,0,1,1.7,3.33c.48,1.09.94,2.12,1.36,3.09s.88,1.83,1.28,2.63a10.53,10.53,0,0,0,2.41,3.42C104.09,346.43,104.6,346.68,104.58,346.71Z"/><path class="cls-9" d="M91.22,342.5a7.82,7.82,0,0,1,.24-1.74c.2-1.07.53-2.53,1-4.12s.93-3,1.31-4a7.5,7.5,0,0,1,.71-1.61A10.66,10.66,0,0,1,94,332.7c-.32,1-.76,2.46-1.2,4s-.82,3-1.08,4.07A9.72,9.72,0,0,1,91.22,342.5Z"/><path class="cls-9" d="M104.09,330.05a10.7,10.7,0,0,1-1.82-.42c-1.11-.29-2.65-.69-4.36-1.08s-3.27-.68-4.4-.89a10.8,10.8,0,0,1-1.82-.41,9.36,9.36,0,0,1,1.86.15c1.14.15,2.72.42,4.44.8s3.25.83,4.35,1.18A8.63,8.63,0,0,1,104.09,330.05Z"/><path class="cls-9" d="M81.64,333.66a10,10,0,0,1,.28-2c.22-1.23.59-2.93,1.07-4.78s1-3.51,1.4-4.69a9.39,9.39,0,0,1,.74-1.89,12.81,12.81,0,0,1-.5,2c-.34,1.21-.81,2.87-1.29,4.71s-.88,3.53-1.17,4.74A12.12,12.12,0,0,1,81.64,333.66Z"/><path class="cls-9" d="M98.16,319.2a70.42,70.42,0,0,1-7.2-.59,71.78,71.78,0,0,1-7.16-.94c0-.09,3.23.17,7.2.59A71.78,71.78,0,0,1,98.16,319.2Z"/><path class="cls-8" d="M95.8,358.3c0,.1-11.33.18-25.31.18s-25.32-.08-25.32-.18,11.33-.18,25.32-.18S95.8,358.2,95.8,358.3Z"/><path class="cls-8" d="M87.91,372.88c0,.1-7.63.18-17,.18S53.8,373,53.8,372.88s7.64-.18,17.06-.18S87.91,372.79,87.91,372.88Z"/><path class="cls-8" d="M87.62,375c0,.1-7.51.18-16.76.18S54.1,375.07,54.1,375s7.5-.18,16.76-.18S87.62,374.87,87.62,375Z"/><path class="cls-8" d="M88.21,371.17c0,.1-7.9.18-17.64.18s-17.64-.08-17.64-.18,7.9-.18,17.64-.18S88.21,371.07,88.21,371.17Z"/><path class="cls-1" d="M99.86,86H94.08a4.32,4.32,0,0,0-1.74.19A2.7,2.7,0,0,0,91,87.42a2.89,2.89,0,0,0-.33.92,6.85,6.85,0,0,0,0,1v1.06a4.56,4.56,0,0,1-.07,1.1,2.91,2.91,0,0,1-1.28,1.85,2.68,2.68,0,0,1-1.14.4c-.41,0-.81,0-1.22,0h-21a3.92,3.92,0,0,1-.84-.08,2.8,2.8,0,0,1-1.44-.89,2.93,2.93,0,0,1-.7-1.56,6.38,6.38,0,0,1,0-.87v-.86a4.59,4.59,0,0,0-.18-1.7,2.75,2.75,0,0,0-1-1.35A2.68,2.68,0,0,0,60.06,86H46.73a9.15,9.15,0,0,0-3.88.74,9,9,0,0,0-3.23,2.41,8.82,8.82,0,0,0-1.84,3.68c-.08.34-.11.69-.17,1s0,.58,0,.88v142a9.12,9.12,0,0,0,.35,2.8,8.89,8.89,0,0,0,3.43,4.72A9.15,9.15,0,0,0,47,245.86H64.93l23.27,0H99.54c1.87,0,3.74,0,5.58,0a8.68,8.68,0,0,0,5-1.93,9.29,9.29,0,0,0,1.81-2,8.63,8.63,0,0,0,1.11-2.43,9.06,9.06,0,0,0,.33-2.64v-2.69c0-3.58,0-7.11,0-10.61,0-27.94,0-53.1,0-74.24s0-38.23,0-50.05c0-1.48,0-2.87,0-4.18a9.28,9.28,0,0,0-.65-3.58,8.74,8.74,0,0,0-1.68-2.63,8.43,8.43,0,0,0-2-1.64,8.52,8.52,0,0,0-3.32-1.17,6.07,6.07,0,0,0-.9-.08l-.3,0H99.86Z"/><path class="cls-9" d="M104.72,86.1h.3a7.54,7.54,0,0,1,.9.07,8.35,8.35,0,0,1,3.33,1.15,8.23,8.23,0,0,1,2,1.64A8.67,8.67,0,0,1,113,91.62a9.2,9.2,0,0,1,.67,3.6V99.4c0,11.82,0,28.93,0,50.06s0,46.3,0,74.24V237a9.6,9.6,0,0,1-.34,2.71,9,9,0,0,1-1.14,2.5,9.47,9.47,0,0,1-1.85,2.05,8.94,8.94,0,0,1-5.12,2c-1.86,0-3.71,0-5.58,0H47.32a9.38,9.38,0,0,1-5.78-1.6A9.07,9.07,0,0,1,38,239.78a9.84,9.84,0,0,1-.37-3v-3c0-4,0-7.94,0-11.86v-23.2c0-15.2,0-29.87,0-43.84s0-27.25,0-39.68q0-9.31,0-18V95.08c0-.36,0-.72,0-1.08s.09-.71.18-1.06a9.13,9.13,0,0,1,1.87-3.76A9,9,0,0,1,47,86H60.32a2.88,2.88,0,0,1,1.75.49,3,3,0,0,1,1.08,1.43,4.75,4.75,0,0,1,.18,1.75v.86a5.93,5.93,0,0,0,0,.85A2.78,2.78,0,0,0,64,92.85a2.61,2.61,0,0,0,1.36.85,3,3,0,0,0,.79.07h4l11.7,0h5.16c.41,0,.82,0,1.21,0a2.54,2.54,0,0,0,1.08-.38,2.8,2.8,0,0,0,1.25-1.79,4.87,4.87,0,0,0,.07-1.08V89.48a5.08,5.08,0,0,1,0-1,2.82,2.82,0,0,1,.33-1,2.74,2.74,0,0,1,1.42-1.25,4.28,4.28,0,0,1,1.76-.19H100l3.54,0H94.22a4.44,4.44,0,0,0-1.73.19,2.66,2.66,0,0,0-1.37,1.22,3,3,0,0,0-.33.92,5.73,5.73,0,0,0,0,1v1.06a4.56,4.56,0,0,1-.07,1.1A2.89,2.89,0,0,1,89.4,93.5a2.78,2.78,0,0,1-1.13.4c-.41,0-.81,0-1.22,0H66.17a2.93,2.93,0,0,1-.83-.08A2.77,2.77,0,0,1,63.91,93a2.9,2.9,0,0,1-.7-1.56,6.33,6.33,0,0,1,0-.87v-.86A4.61,4.61,0,0,0,63,88a2.75,2.75,0,0,0-1-1.35,2.63,2.63,0,0,0-1.65-.45H47A8.8,8.8,0,0,0,40,89.3,8.83,8.83,0,0,0,38.13,93c-.09.33-.12.69-.18,1s0,.7-.05,1.06v2.15q0,8.65,0,18V221.93c0,3.92,0,7.88,0,11.86v3a9.58,9.58,0,0,0,.36,2.93,8.84,8.84,0,0,0,3.42,4.72A9.12,9.12,0,0,0,47.32,246H99.66c1.86,0,3.72,0,5.56,0a8.7,8.7,0,0,0,5-1.94,9.2,9.2,0,0,0,1.8-2,8.82,8.82,0,0,0,1.11-2.44,9.37,9.37,0,0,0,.33-2.64V223.7c0-27.94,0-53.11,0-74.24s0-38.24.05-50.06V95.22A8.9,8.9,0,0,0,111.23,89a8.68,8.68,0,0,0-2-1.64,8.41,8.41,0,0,0-3.3-1.16,8.62,8.62,0,0,0-.9-.09Z"/><path class="cls-9" d="M106.43,100.47s-1.46.08-3.27.1-3.28,0-3.28,0,1.47-.08,3.28-.09S106.43,100.43,106.43,100.47Z"/><path class="cls-9" d="M106.45,102.15s-1.47.08-3.28.09-3.27,0-3.27,0,1.46-.08,3.27-.1S106.45,102.11,106.45,102.15Z"/><path class="cls-9" d="M106.46,103.82s-1.46.08-3.27.1-3.28,0-3.28,0,1.47-.08,3.28-.1S106.46,103.78,106.46,103.82Z"/><path class="cls-9" d="M46.86,105.73H47l.38,0,1.4,0,0,0c0-.31,0-.65,0-1a5.8,5.8,0,0,1,0-.59.53.53,0,0,1,.47-.43h.67a.55.55,0,0,1,.46.54c0,.47,0,1,0,1.48l-.06-.07,1.76,0-.07.07c0-.71,0-1.44,0-2.2v-.56c0-.17-.11-.28-.25-.41l-.77-.76-.74-.74-.36-.35c-.13-.12-.23-.25-.37-.28a.51.51,0,0,0-.4.08c-.11.09-.22.22-.33.32s-.43.44-.64.64c-.39.42-.81.8-1.11,1.15a1.24,1.24,0,0,0-.09.66v.62c0,.38,0,.72,0,1v.64c0,.15,0,.23,0,.23a1.31,1.31,0,0,1,0-.21c0-.17,0-.38,0-.63l0-1c0-.2,0-.41,0-.63v-.35a.74.74,0,0,1,.1-.37c.32-.4.71-.75,1.11-1.18.21-.2.42-.42.63-.64s.21-.22.34-.34a.62.62,0,0,1,.51-.1,1,1,0,0,1,.43.3l.36.36.75.73.77.76c.06.07.13.12.2.21a.65.65,0,0,1,.09.3v.56c0,.76,0,1.49,0,2.2v.07H50.2v-1.54a.43.43,0,0,0-.36-.43H49.2a.43.43,0,0,0-.38.34,5.28,5.28,0,0,0,0,.56v1.06h-2Z"/><path class="cls-9" d="M91.33,164.44c0,.25-7,.46-15.67.46S60,164.69,60,164.44s7-.46,15.67-.46S91.33,164.18,91.33,164.44Z"/><rect class="cls-10" x="60.5" y="118.47" width="30.43" height="40.48" transform="translate(-63.42 213.65) rotate(-89.68)"/><polygon class="cls-11" points="55.39 153.81 69.63 134.98 78.33 146.86 84.3 140.57 95.87 154.04 55.39 153.81"/><path class="cls-11" d="M82.12,132.73a3.19,3.19,0,1,1-3.17-3.2A3.18,3.18,0,0,1,82.12,132.73Z"/><polygon class="cls-13" points="55.39 153.81 69.63 134.98 78.33 146.86 84.3 140.57 95.87 154.04 55.39 153.81"/><path class="cls-13" d="M82.12,132.73a3.19,3.19,0,1,1-3.17-3.2A3.18,3.18,0,0,1,82.12,132.73Z"/><path class="cls-9" d="M103.53,175.63c0,.26-12.44.46-27.78.46S48,175.89,48,175.63s12.44-.46,27.79-.46S103.53,175.38,103.53,175.63Z"/><path class="cls-9" d="M103.53,183.38c0,.25-12.44.46-27.78.46S48,183.63,48,183.38s12.44-.46,27.79-.46S103.53,183.13,103.53,183.38Z"/><path class="cls-9" d="M103.53,191.13c0,.25-12.44.46-27.78.46S48,191.38,48,191.13s12.44-.46,27.79-.46S103.53,190.87,103.53,191.13Z"/><path class="cls-9" d="M103.53,198.87c0,.26-12.44.46-27.78.46S48,199.13,48,198.87s12.44-.46,27.79-.46S103.53,198.62,103.53,198.87Z"/><path class="cls-9" d="M103.53,206.62c0,.25-12.44.46-27.78.46S48,206.87,48,206.62s12.44-.46,27.79-.46S103.53,206.37,103.53,206.62Z"/><path class="cls-9" d="M91.58,213.69a22.86,22.86,0,0,1-4.67.33c-2.89.08-6.88.13-11.28.13s-8.39-.05-11.28-.13a22.75,22.75,0,0,1-4.67-.33,24.27,24.27,0,0,1,4.67-.32c2.89-.08,6.87-.14,11.28-.14s8.39.06,11.28.14A24.39,24.39,0,0,1,91.58,213.69Z"/><path class="cls-1" d="M155.41,73H149a5.08,5.08,0,0,0-1.93.21,3.06,3.06,0,0,0-1.53,1.36,3.41,3.41,0,0,0-.36,1,7.15,7.15,0,0,0,0,1.14v1.18a5.68,5.68,0,0,1-.07,1.23,3.27,3.27,0,0,1-1.43,2.07,3.11,3.11,0,0,1-1.26.44c-.46,0-.9,0-1.36,0H117.71a3.71,3.71,0,0,1-.93-.09,3.11,3.11,0,0,1-1.6-1,3.37,3.37,0,0,1-.78-1.74,7.92,7.92,0,0,1,0-1v-1a5.24,5.24,0,0,0-.19-1.9,3.1,3.1,0,0,0-1.15-1.5,3,3,0,0,0-1.85-.51H96.37a9.87,9.87,0,0,0-7.91,3.51,9.86,9.86,0,0,0-2,4.11c-.1.37-.13.76-.2,1.15s0,.65,0,1V241.17a10.56,10.56,0,0,0,.39,3.12,9.87,9.87,0,0,0,3.82,5.26,10.14,10.14,0,0,0,6.28,1.74h58.37c2.08,0,4.16,0,6.21,0a9.74,9.74,0,0,0,5.56-2.16,10.12,10.12,0,0,0,2-2.23,9.78,9.78,0,0,0,1.24-2.71,10.85,10.85,0,0,0,.37-2.95V226.43c0-31.17,0-59.23,0-82.8s0-42.64.05-55.83c0-1.65,0-3.2,0-4.66a10.17,10.17,0,0,0-.72-4A10,10,0,0,0,168,76.21a9.3,9.3,0,0,0-2.23-1.82A9.54,9.54,0,0,0,162,73.08c-.44-.08-.78-.06-1-.09l-.34,0h-5.29Z"/><path class="cls-9" d="M160.77,72.9h.34a7.72,7.72,0,0,1,1,.08,9.29,9.29,0,0,1,3.71,1.28,9.47,9.47,0,0,1,2.26,1.83,9.69,9.69,0,0,1,1.88,3,10.27,10.27,0,0,1,.75,4v4.67c0,13.18,0,32.25,0,55.82s0,51.64,0,82.8v14.83a10.7,10.7,0,0,1-.38,3,10.31,10.31,0,0,1-1.26,2.79,10.66,10.66,0,0,1-2.07,2.28,10,10,0,0,1-5.71,2.22c-2.07.06-4.13,0-6.22,0H96.75a10.48,10.48,0,0,1-6.44-1.78,10,10,0,0,1-3.92-5.42A10.85,10.85,0,0,1,86,241v-3.33q0-6.66,0-13.23V198.52c0-17,0-33.32,0-48.9s0-30.39,0-44.25Q86,95,86,85.31c0-.8,0-1.6,0-2.4,0-.4,0-.8,0-1.2s.1-.79.2-1.18A10,10,0,0,1,92,73.6a10.38,10.38,0,0,1,4.4-.83h14.81a3.17,3.17,0,0,1,3.16,2.14,5.41,5.41,0,0,1,.2,2v1a7.42,7.42,0,0,0,0,1,3.12,3.12,0,0,0,.74,1.65,2.84,2.84,0,0,0,1.51.94,2.93,2.93,0,0,0,.89.09h4.49l13,0h5.75c.46,0,.92,0,1.35,0a2.84,2.84,0,0,0,1.21-.43,3.13,3.13,0,0,0,1.39-2,5.39,5.39,0,0,0,.08-1.2V76.67a6.33,6.33,0,0,1,0-1.15,3.2,3.2,0,0,1,.38-1.06,3.14,3.14,0,0,1,1.57-1.4,5.17,5.17,0,0,1,2-.21l6.42,0,3.94,0h1.35l-1.35,0H149.06a4.71,4.71,0,0,0-1.93.21,2.93,2.93,0,0,0-1.53,1.36,3,3,0,0,0-.36,1,7,7,0,0,0-.05,1.13v1.19a5.63,5.63,0,0,1-.07,1.22,3.23,3.23,0,0,1-1.44,2.07,3,3,0,0,1-1.25.45c-.46,0-.91,0-1.37,0H117.78a3.3,3.3,0,0,1-.93-.09,3.11,3.11,0,0,1-1.6-1,3.37,3.37,0,0,1-.78-1.74,7.92,7.92,0,0,1,0-1v-1a5,5,0,0,0-.2-1.89,3,3,0,0,0-3-2H96.44a10.34,10.34,0,0,0-4.31.82,10.2,10.2,0,0,0-3.6,2.69,9.86,9.86,0,0,0-2,4.11c-.1.38-.13.77-.2,1.15s0,.79,0,1.18v22.46c0,13.86,0,28.66,0,44.25v48.9q0,12.72,0,25.87V241a10.56,10.56,0,0,0,.4,3.27,9.88,9.88,0,0,0,3.82,5.27,10.2,10.2,0,0,0,6.28,1.73h19.91l25.86,0h12.6c2.08,0,4.16,0,6.2,0a9.8,9.8,0,0,0,5.57-2.15,10.59,10.59,0,0,0,2-2.23,9.47,9.47,0,0,0,1.23-2.71,10.16,10.16,0,0,0,.37-2.95c0-1,0-2,0-3V226.36c0-31.16,0-59.23.05-82.8s0-42.64,0-55.82c0-1.65,0-3.21,0-4.67a10.12,10.12,0,0,0-.72-4A9.74,9.74,0,0,0,168,76.15,9.89,9.89,0,0,0,162.11,73a6.54,6.54,0,0,0-1-.09Z"/><path class="cls-9" d="M162.68,88.93s-1.63.09-3.65.1-3.65,0-3.65,0,1.63-.09,3.65-.11S162.68,88.89,162.68,88.93Z"/><path class="cls-9" d="M162.7,90.8s-1.64.09-3.65.1-3.66,0-3.66,0,1.64-.09,3.65-.11S162.7,90.75,162.7,90.8Z"/><path class="cls-9" d="M162.71,92.67s-1.63.09-3.65.1-3.65,0-3.65,0,1.63-.09,3.65-.11S162.71,92.62,162.71,92.67Z"/><path class="cls-9" d="M96.24,94.8h.57l1.56,0,0,0c0-.34,0-.72,0-1.13,0-.21,0-.41,0-.65a.61.61,0,0,1,.53-.48,6.09,6.09,0,0,1,.74,0,.6.6,0,0,1,.51.6c0,.52,0,1.08,0,1.65L100,94.7l2,0-.08.07c0-.79,0-1.61,0-2.45v-.62a.62.62,0,0,0-.28-.47l-.86-.85-.83-.82-.4-.39a1,1,0,0,0-.41-.31.52.52,0,0,0-.45.09c-.12.1-.25.24-.37.36l-.7.71c-.45.46-.91.88-1.25,1.28a1.53,1.53,0,0,0-.1.74v1.81c0,.28,0,.52,0,.71s0,.26,0,.26a2.17,2.17,0,0,1,0-.24c0-.19,0-.42,0-.7s0-.7,0-1.13c0-.22,0-.45,0-.7v-.39a.87.87,0,0,1,.11-.41c.36-.45.8-.84,1.25-1.32l.7-.72c.12-.12.23-.24.38-.37a.64.64,0,0,1,.57-.11,1,1,0,0,1,.47.33l.4.4.84.82.86.84a1.74,1.74,0,0,1,.22.24.64.64,0,0,1,.1.33c0,.21,0,.42,0,.63,0,.84,0,1.66,0,2.45v.08H100v-.07c0-.57,0-1.12,0-1.65a.48.48,0,0,0-.4-.48c-.22,0-.49,0-.71,0a.48.48,0,0,0-.42.38c0,.2,0,.43,0,.63v1.18h0l-1.58,0h-.55Z"/><path class="cls-10" d="M136,105a6.6,6.6,0,1,1-6.6-6.59A6.6,6.6,0,0,1,136,105Z"/><path class="cls-14" d="M131.68,107.69h-4.52v-.55a2.27,2.27,0,0,1,2.26-2.27h0a2.27,2.27,0,0,1,2.26,2.27Z"/><path class="cls-14" d="M130.75,103.7a1.33,1.33,0,1,1-1.33-1.33A1.32,1.32,0,0,1,130.75,103.7Z"/><path class="cls-9" d="M145.84,122.46c0,.29-7.82.52-17.47.52s-17.48-.23-17.48-.52,7.82-.51,17.48-.51S145.84,122.18,145.84,122.46Z"/><rect class="cls-10" x="96.4" y="136.17" width="22.68" height="30.18" transform="translate(-44.12 258.15) rotate(-89.68)"/><polygon class="cls-11" points="92.58 162.51 103.2 148.47 109.68 157.33 114.14 152.64 122.76 162.68 92.58 162.51"/><path class="cls-11" d="M112.51,146.8a2.38,2.38,0,1,1-2.36-2.39A2.36,2.36,0,0,1,112.51,146.8Z"/><polygon class="cls-13" points="92.58 162.51 103.2 148.47 109.68 157.33 114.14 152.64 122.76 162.68 92.58 162.51"/><path class="cls-13" d="M112.51,146.8a2.38,2.38,0,1,1-2.36-2.39A2.36,2.36,0,0,1,112.51,146.8Z"/><rect class="cls-10" x="101.12" y="161.04" width="52.44" height="69.76" transform="translate(-69.29 322.17) rotate(-89.68)"/><polygon class="cls-11" points="92.31 221.95 116.86 189.49 131.84 209.97 142.14 199.12 162.07 222.34 92.31 221.95"/><path class="cls-11" d="M138.38,185.62a5.49,5.49,0,1,1-5.46-5.53A5.49,5.49,0,0,1,138.38,185.62Z"/><polygon class="cls-13" points="92.31 221.95 116.86 189.49 131.84 209.97 142.14 199.12 162.07 222.34 92.31 221.95"/><path class="cls-13" d="M138.38,185.62a5.49,5.49,0,1,1-5.46-5.53A5.49,5.49,0,0,1,138.38,185.62Z"/><rect class="cls-10" x="136.24" y="136.17" width="22.68" height="30.18" transform="translate(-4.5 297.99) rotate(-89.68)"/><polygon class="cls-11" points="132.43 162.51 143.04 148.47 149.52 157.33 153.98 152.64 162.6 162.68 132.43 162.51"/><circle class="cls-11" cx="149.98" cy="146.79" r="2.38"/><g class="cls-12"><polygon points="132.43 162.51 143.04 148.47 149.52 157.33 153.98 152.64 162.6 162.68 132.43 162.51"/></g><g class="cls-12"><circle cx="149.98" cy="146.79" r="2.38"/></g><path class="cls-1" d="M342.81,81.84h-5.75a4.69,4.69,0,0,0-1.74.19A2.7,2.7,0,0,0,334,83.25a3.24,3.24,0,0,0-.32.92,5.77,5.77,0,0,0,0,1v1.07a5,5,0,0,1-.07,1.09,2.9,2.9,0,0,1-1.28,1.86,2.84,2.84,0,0,1-1.13.4c-.41,0-.81,0-1.22,0H309a2.93,2.93,0,0,1-.83-.08,2.77,2.77,0,0,1-1.44-.89,3,3,0,0,1-.7-1.56,6.24,6.24,0,0,1,0-.86v-.87a4.61,4.61,0,0,0-.17-1.7,2.79,2.79,0,0,0-1-1.34,2.67,2.67,0,0,0-1.65-.46H289.88a9.07,9.07,0,0,0-3.87.73A8.83,8.83,0,0,0,281,88.7c-.09.33-.11.69-.17,1s0,.59,0,.89v142a9,9,0,0,0,.35,2.79,8.9,8.9,0,0,0,3.42,4.73,9.13,9.13,0,0,0,5.63,1.55h52.34c1.86,0,3.73,0,5.56,0a8.79,8.79,0,0,0,5-1.93,9.77,9.77,0,0,0,1.8-2,8.87,8.87,0,0,0,1.1-2.43,9.45,9.45,0,0,0,.34-2.65V219.41c0-27.94,0-53.11,0-74.24s0-38.23.05-50.06c0-1.47,0-2.87,0-4.18a9.23,9.23,0,0,0-.65-3.57,8.9,8.9,0,0,0-1.67-2.64,8.65,8.65,0,0,0-2-1.64,8.39,8.39,0,0,0-3.31-1.16,8.48,8.48,0,0,0-.89-.09l-.3,0-1.21,0Z"/><rect class="cls-5" x="293.18" y="142.01" width="49.94" height="10.2"/><path class="cls-9" d="M347.72,81.75H348a7.69,7.69,0,0,1,.9.07A8.47,8.47,0,0,1,352.25,83a8.71,8.71,0,0,1,2,1.64A9.07,9.07,0,0,1,356,87.27a9.24,9.24,0,0,1,.66,3.6c0,1.31,0,2.71,0,4.18,0,11.83,0,28.93,0,50.06s0,46.3,0,74.24v13.29a9.55,9.55,0,0,1-.34,2.71,9.24,9.24,0,0,1-1.13,2.5,9.76,9.76,0,0,1-1.85,2.05,8.94,8.94,0,0,1-5.13,2c-1.86.05-3.7,0-5.57,0H290.32a9.4,9.4,0,0,1-5.78-1.6,9.11,9.11,0,0,1-3.51-4.85,9.6,9.6,0,0,1-.37-3V217.58q0-11.78,0-23.19c0-15.21,0-29.88,0-43.85s0-27.25,0-39.68q0-9.31,0-18V90.73c0-.36,0-.72.05-1.08s.09-.71.19-1.05a9,9,0,0,1,1.86-3.76,9,9,0,0,1,7.24-3.21h13.27a2.85,2.85,0,0,1,1.75.48,2.93,2.93,0,0,1,1.08,1.43,4.57,4.57,0,0,1,.18,1.75v.87a5.85,5.85,0,0,0,0,.84,2.81,2.81,0,0,0,.66,1.49,2.7,2.7,0,0,0,1.36.84,3.5,3.5,0,0,0,.8.08h4l11.7,0h5.15c.41,0,.83,0,1.21,0a2.63,2.63,0,0,0,1.09-.38,2.8,2.8,0,0,0,1.24-1.79,4.78,4.78,0,0,0,.07-1.07V85.14a7.18,7.18,0,0,1,0-1,3.06,3.06,0,0,1,.33-.95,2.83,2.83,0,0,1,1.42-1.25,4.46,4.46,0,0,1,1.76-.19l5.76,0h4.74l-1.2,0h-9.3a4.45,4.45,0,0,0-1.73.18,2.79,2.79,0,0,0-1.69,2.15,5.69,5.69,0,0,0,0,1V86.2a5,5,0,0,1-.07,1.09,2.92,2.92,0,0,1-1.29,1.86,2.73,2.73,0,0,1-1.13.4c-.41,0-.8,0-1.22,0H309.18a3,3,0,0,1-.84-.08,2.71,2.71,0,0,1-1.43-.89,3,3,0,0,1-.7-1.56,6.24,6.24,0,0,1,0-.86v-.87a4.83,4.83,0,0,0-.17-1.7,2.79,2.79,0,0,0-1-1.34,2.68,2.68,0,0,0-1.66-.46H290.05A8.77,8.77,0,0,0,283,85a8.85,8.85,0,0,0-1.82,3.68c-.09.34-.11.69-.18,1s0,.7,0,1.06v141.7a9.38,9.38,0,0,0,.36,2.94,8.77,8.77,0,0,0,3.42,4.72,9.13,9.13,0,0,0,5.63,1.55h52.34c1.86,0,3.73,0,5.56,0a8.82,8.82,0,0,0,5-1.93,9.51,9.51,0,0,0,1.8-2,8.87,8.87,0,0,0,1.1-2.43,9.09,9.09,0,0,0,.33-2.65V230c0-3.57,0-7.11,0-10.6,0-27.94,0-53.11,0-74.24s0-38.23.05-50.06c0-1.47,0-2.87,0-4.18a9.27,9.27,0,0,0-.65-3.57,8.9,8.9,0,0,0-1.67-2.64,8.9,8.9,0,0,0-5.31-2.8,6.07,6.07,0,0,0-.89-.08Z"/><path class="cls-9" d="M349.44,96.12s-1.47.08-3.28.1-3.27,0-3.27,0,1.46-.08,3.27-.1S349.44,96.08,349.44,96.12Z"/><path class="cls-9" d="M349.45,97.8s-1.46.08-3.27.09-3.28,0-3.28,0,1.47-.08,3.28-.09S349.45,97.76,349.45,97.8Z"/><path class="cls-9" d="M349.47,99.47s-1.47.09-3.28.1-3.27,0-3.27,0,1.46-.08,3.27-.1S349.46,99.44,349.47,99.47Z"/><path class="cls-9" d="M289.86,101.39s.05,0,.14,0h.38l1.4,0,0,0c0-.31,0-.65,0-1a5.8,5.8,0,0,1,0-.59.54.54,0,0,1,.47-.43c.23,0,.43,0,.67,0a.54.54,0,0,1,.46.54c0,.47,0,1,0,1.48l-.07-.07H295l-.07.06c0-.71,0-1.44,0-2.19,0-.19,0-.38,0-.56a.56.56,0,0,0-.24-.42l-.78-.76-.74-.73-.36-.36a.82.82,0,0,0-.36-.27.49.49,0,0,0-.41.07c-.11.09-.22.22-.33.33l-.63.64c-.4.41-.81.79-1.12,1.14a1.24,1.24,0,0,0-.08.66c0,.22,0,.43,0,.62v1c0,.25,0,.46,0,.64a.93.93,0,0,1,0,.23s0-.07,0-.21,0-.38,0-.64l0-1c0-.2,0-.42,0-.64s0-.23,0-.35a.68.68,0,0,1,.1-.36c.33-.4.72-.76,1.12-1.18l.63-.65c.11-.11.2-.22.34-.34a.65.65,0,0,1,.51-.1,1,1,0,0,1,.42.31l.36.35.75.73.77.76a1.46,1.46,0,0,1,.2.22.5.5,0,0,1,.09.29c0,.19,0,.38,0,.57,0,.75,0,1.48,0,2.19v.07h-1.89v-.06c0-.51,0-1,0-1.48a.43.43,0,0,0-.36-.43c-.2,0-.44,0-.64,0a.45.45,0,0,0-.38.34c0,.18,0,.39,0,.57v1h-2Z"/><rect class="cls-5" x="293.28" y="157.22" width="49.94" height="10.2"/><rect class="cls-5" x="293.28" y="172.02" width="49.94" height="10.2"/><path class="cls-10" d="M331.22,202.49H306.15a5.1,5.1,0,0,1-5.1-5.1h0a5.11,5.11,0,0,1,5.1-5.1h25.07a5.1,5.1,0,0,1,5.1,5.1h0A5.1,5.1,0,0,1,331.22,202.49Z"/><path class="cls-9" d="M334.23,131.46c0,.26-7,.46-15.67.46s-15.67-.2-15.67-.46,7-.46,15.67-.46S334.23,131.21,334.23,131.46Z"/><path class="cls-1" d="M301.87,71.28h-6.41a4.76,4.76,0,0,0-1.94.21A3,3,0,0,0,292,72.86a3.22,3.22,0,0,0-.35,1,6,6,0,0,0-.05,1.13v1.19a5.08,5.08,0,0,1-.08,1.22,3.25,3.25,0,0,1-1.43,2.07,3.06,3.06,0,0,1-1.26.44c-.46,0-.9,0-1.36,0H264.18a3.27,3.27,0,0,1-.93-.09,3,3,0,0,1-1.6-1,3.22,3.22,0,0,1-.78-1.74,8,8,0,0,1,0-1v-1a5,5,0,0,0-.19-1.89,3.08,3.08,0,0,0-1.15-1.51,3,3,0,0,0-1.84-.51H242.84a9.84,9.84,0,0,0-7.91,3.51,9.86,9.86,0,0,0-2,4.11c-.1.38-.13.77-.2,1.15s0,.66,0,1V239.45a10.57,10.57,0,0,0,.4,3.12,9.86,9.86,0,0,0,3.81,5.27,10.24,10.24,0,0,0,6.29,1.73h19.91l25.86,0h12.6c2.07,0,4.16,0,6.2,0a9.74,9.74,0,0,0,5.56-2.16,10.34,10.34,0,0,0,2-2.22,9.68,9.68,0,0,0,1.23-2.72,10.05,10.05,0,0,0,.37-2.94v-3c0-4,0-7.94,0-11.83,0-31.16,0-59.23,0-82.8s.05-42.64.06-55.82c0-1.65,0-3.21,0-4.67a10.12,10.12,0,0,0-.73-4,9.55,9.55,0,0,0-1.86-2.94,9.81,9.81,0,0,0-5.92-3.13,6.35,6.35,0,0,0-1-.09l-.33,0-1.35,0Z"/><path class="cls-9" d="M307.23,71.39h.34a6.28,6.28,0,0,1,1,.08,9.34,9.34,0,0,1,3.71,1.28,9.47,9.47,0,0,1,2.26,1.83,10,10,0,0,1,1.88,3,10.32,10.32,0,0,1,.74,4c0,1.46,0,3,0,4.66,0,13.19,0,32.26,0,55.83s0,51.63,0,82.8v14.83a10.24,10.24,0,0,1-.38,3,9.89,9.89,0,0,1-1.26,2.79,10.43,10.43,0,0,1-2.06,2.29,10.06,10.06,0,0,1-5.71,2.22c-2.08.06-4.14,0-6.22,0H243.22a10.51,10.51,0,0,1-6.45-1.78,10.18,10.18,0,0,1-3.92-5.42,10.88,10.88,0,0,1-.41-3.35V222.87q0-13.12,0-25.86c0-17,0-33.32,0-48.91s0-30.39,0-44.25q0-10.39,0-20V81.4q0-.6.06-1.2c.07-.39.1-.8.2-1.18a10.08,10.08,0,0,1,2.08-4.19,10,10,0,0,1,8.07-3.58h14.81a3.18,3.18,0,0,1,1.94.54,3.32,3.32,0,0,1,1.21,1.59,5.07,5.07,0,0,1,.2,2v1a7.26,7.26,0,0,0,0,.94,3.15,3.15,0,0,0,.74,1.66,3,3,0,0,0,1.52.94,3.74,3.74,0,0,0,.89.09h4.48l13,0h5.75c.45,0,.92,0,1.35,0a2.88,2.88,0,0,0,1.21-.43,3.11,3.11,0,0,0,1.38-2,4.9,4.9,0,0,0,.08-1.21V75.16a7.32,7.32,0,0,1,.06-1.15,3.22,3.22,0,0,1,1.95-2.46,4.93,4.93,0,0,1,2-.21l6.42,0h3.95l1.34,0H295.52a5.1,5.1,0,0,0-1.93.21A3.1,3.1,0,0,0,292.06,73a3.71,3.71,0,0,0-.36,1,7.16,7.16,0,0,0,0,1.14v1.18a5.7,5.7,0,0,1-.08,1.23,3.25,3.25,0,0,1-1.43,2.07,3.06,3.06,0,0,1-1.26.44c-.46,0-.9,0-1.36,0H264.25a3.27,3.27,0,0,1-.93-.09,3,3,0,0,1-1.6-1,3.22,3.22,0,0,1-.78-1.74,6.35,6.35,0,0,1,0-1v-1a5.24,5.24,0,0,0-.19-1.9,3.1,3.1,0,0,0-1.15-1.5,3,3,0,0,0-1.84-.51H242.91A9.84,9.84,0,0,0,235,75a9.86,9.86,0,0,0-2,4.11c-.1.37-.13.77-.2,1.15s-.05.78-.06,1.18c0,.8,0,1.6,0,2.4V239.44a10.59,10.59,0,0,0,.4,3.27,9.86,9.86,0,0,0,3.81,5.27,10.21,10.21,0,0,0,6.29,1.73h19.9l25.87,0h12.6c2.07,0,4.16,0,6.2,0a9.74,9.74,0,0,0,5.56-2.16,10.34,10.34,0,0,0,2-2.22,9.81,9.81,0,0,0,1.23-2.72,10.05,10.05,0,0,0,.37-2.94v-3c0-4,0-7.93,0-11.82,0-31.17,0-59.23,0-82.8s0-42.64.06-55.83V81.56a10.17,10.17,0,0,0-.72-4,9.62,9.62,0,0,0-1.86-2.93,9.81,9.81,0,0,0-5.92-3.13,8.27,8.27,0,0,0-1-.1Z"/><path class="cls-9" d="M309.15,87.41s-1.64.1-3.65.11-3.66,0-3.66,0,1.64-.1,3.65-.11S309.15,87.37,309.15,87.41Z"/><path class="cls-9" d="M309.16,89.28s-1.63.09-3.65.11-3.65,0-3.65,0,1.63-.09,3.65-.1S309.16,89.24,309.16,89.28Z"/><path class="cls-9" d="M309.18,91.15s-1.64.09-3.65.11-3.66,0-3.66-.05,1.64-.09,3.66-.1S309.18,91.11,309.18,91.15Z"/><path class="cls-9" d="M242.7,93.29h.16l.42,0,1.56,0-.05,0c0-.35,0-.72,0-1.13,0-.21,0-.41,0-.65a.58.58,0,0,1,.52-.48c.25,0,.48,0,.75,0a.61.61,0,0,1,.51.6c0,.53,0,1.08,0,1.65l-.07-.07,2,0-.07.08c0-.79,0-1.61,0-2.45,0-.21,0-.42,0-.63a.62.62,0,0,0-.28-.46l-.86-.85L246.4,88l-.4-.4c-.14-.13-.24-.27-.4-.3a.54.54,0,0,0-.46.09c-.12.1-.24.24-.36.36l-.71.71c-.44.46-.91.88-1.24,1.28a1.4,1.4,0,0,0-.1.73v.7c0,.42,0,.8,0,1.11s0,.53,0,.72a1.17,1.17,0,0,1,0,.26s0-.08,0-.24,0-.42,0-.7,0-.7,0-1.13c0-.22,0-.46,0-.71v-.38a.83.83,0,0,1,.1-.41c.37-.45.8-.85,1.25-1.32l.7-.72c.13-.12.23-.25.38-.37a.65.65,0,0,1,.57-.12,1,1,0,0,1,.47.34l.41.4.83.81.86.85a1.31,1.31,0,0,1,.22.24.62.62,0,0,1,.11.33v.63c0,.84,0,1.66,0,2.45v.07h-.08l-2,0h-.08V91.61a.49.49,0,0,0-.4-.48h-.72a.47.47,0,0,0-.42.38c0,.2,0,.43,0,.63v1.17H242.7Z"/><circle class="cls-10" cx="275.97" cy="130.16" r="16.52" transform="translate(105.11 382.96) rotate(-81.2)"/><path class="cls-14" d="M281.64,136.83H270.3v-1.4a5.67,5.67,0,0,1,5.67-5.67h0a5.67,5.67,0,0,1,5.67,5.67Z"/><circle class="cls-14" cx="275.97" cy="126.83" r="3.33"/><rect class="cls-5" x="246.52" y="165.61" width="55.7" height="11.38"/><rect class="cls-5" x="246.52" y="182.12" width="55.7" height="11.38"/><path class="cls-10" d="M288.83,216.1h-28a5.69,5.69,0,0,1-5.69-5.69h0a5.68,5.68,0,0,1,5.69-5.68h28a5.68,5.68,0,0,1,5.69,5.68h0A5.69,5.69,0,0,1,288.83,216.1Z"/><path class="cls-9" d="M292.31,158.75c0,.29-7.83.52-17.48.52s-17.48-.23-17.48-.52,7.83-.51,17.48-.51S292.31,158.47,292.31,158.75Z"/><path class="cls-6" d="M254.21,173.8h-2.46a.44.44,0,0,1-.44-.43h0a1.64,1.64,0,0,1,1.64-1.64H253a1.64,1.64,0,0,1,1.64,1.64h0A.44.44,0,0,1,254.21,173.8Z"/><path class="cls-6" d="M254,170.86a1,1,0,1,1-1-1A1,1,0,0,1,254,170.86Z"/><rect class="cls-6" x="251.51" y="187.99" width="2.94" height="2.08"/><path class="cls-6" d="M254.78,188.43h-1v-.64a.83.83,0,1,0-1.66,0v.64h-1v-.64a1.82,1.82,0,1,1,3.64,0Z"/><path class="cls-1" d="M242.89,36.37h-9.56a7.27,7.27,0,0,0-2.88.31,4.52,4.52,0,0,0-2.27,2,4.81,4.81,0,0,0-.54,1.53,10.43,10.43,0,0,0-.07,1.69V43.7a8.11,8.11,0,0,1-.11,1.83,4.83,4.83,0,0,1-2.14,3.07,4.38,4.38,0,0,1-1.87.67c-.68.06-1.34,0-2,0H186.75a5.05,5.05,0,0,1-1.39-.14A4.56,4.56,0,0,1,183,47.7a4.84,4.84,0,0,1-1.16-2.59,10,10,0,0,1,0-1.44V42.24a7.82,7.82,0,0,0-.29-2.82,4.57,4.57,0,0,0-1.71-2.24,4.41,4.41,0,0,0-2.75-.76H155a15.18,15.18,0,0,0-6.43,1.22,15,15,0,0,0-5.35,4,14.77,14.77,0,0,0-3,6.11c-.15.56-.19,1.14-.29,1.71s-.06,1-.07,1.47V286.67a15.09,15.09,0,0,0,.59,4.64,14.65,14.65,0,0,0,5.68,7.84,15.14,15.14,0,0,0,9.36,2.57h29.65l38.51,0h18.77c3.09,0,6.2.05,9.24,0a14.44,14.44,0,0,0,8.28-3.21,15.44,15.44,0,0,0,3-3.31,14.44,14.44,0,0,0,1.83-4,15.07,15.07,0,0,0,.55-4.39c0-1.49,0-3,0-4.46V264.72c0-46.37.05-88.14.07-123.22s.07-63.47.08-83.09c0-2.45,0-4.77,0-6.94a15.23,15.23,0,0,0-1.08-5.94,14.74,14.74,0,0,0-2.77-4.37,14.74,14.74,0,0,0-8.82-4.66,11.6,11.6,0,0,0-1.49-.13l-.5,0-2,0Z"/><path class="cls-9" d="M250.92,36.42h.5a13.42,13.42,0,0,1,1.49.12,13.89,13.89,0,0,1,5.51,1.9,14.29,14.29,0,0,1,3.36,2.72,14.77,14.77,0,0,1,2.8,4.39,15.38,15.38,0,0,1,1.1,6q0,3.26,0,6.93c0,19.58,0,47.92,0,82.93s0,76.71,0,123v22a16,16,0,0,1-.57,4.49,14.6,14.6,0,0,1-1.88,4.14,15.7,15.7,0,0,1-3.06,3.4,14.89,14.89,0,0,1-8.49,3.29c-3.08.09-6.14,0-9.23,0H223.81l-38.42,0H155.81a15.48,15.48,0,0,1-9.57-2.65,15.07,15.07,0,0,1-5.83-8,16.17,16.17,0,0,1-.61-5V261.46q0-19.51,0-38.43c0-25.19,0-49.49,0-72.64s0-45.15,0-65.74q0-15.45,0-29.79V51.29c0-.59.05-1.19.09-1.78a16.82,16.82,0,0,1,.3-1.75,14.86,14.86,0,0,1,3.09-6.23,14.87,14.87,0,0,1,12-5.31h22a4.74,4.74,0,0,1,2.9.81A4.8,4.8,0,0,1,182,39.41a7.84,7.84,0,0,1,.3,2.91v1.43a9.27,9.27,0,0,0,0,1.4,4.64,4.64,0,0,0,1.09,2.46A4.34,4.34,0,0,0,185.73,49a4.89,4.89,0,0,0,1.33.13h6.65l19.39,0,8.54,0c.68,0,1.36,0,2,0a4.31,4.31,0,0,0,1.8-.63,4.63,4.63,0,0,0,2.06-3,7.67,7.67,0,0,0,.12-1.79V42a9.75,9.75,0,0,1,.08-1.71,5.29,5.29,0,0,1,.55-1.58,4.68,4.68,0,0,1,2.35-2.07,7.37,7.37,0,0,1,2.92-.31l9.53,0,5.87,0,2,0-2,0-5.87,0h-9.53a7.22,7.22,0,0,0-2.87.31,4.5,4.5,0,0,0-2.27,2,5.07,5.07,0,0,0-.54,1.53,10.43,10.43,0,0,0-.07,1.69c0,.58,0,1.17,0,1.76a8.66,8.66,0,0,1-.12,1.82,4.79,4.79,0,0,1-2.13,3.07,4.32,4.32,0,0,1-1.87.66c-.68.06-1.33,0-2,0H187.05a5.44,5.44,0,0,1-1.38-.14,4.49,4.49,0,0,1-2.37-1.47,4.84,4.84,0,0,1-1.16-2.59,9.82,9.82,0,0,1,0-1.43V42.32a7.82,7.82,0,0,0-.29-2.82,4.63,4.63,0,0,0-1.7-2.23,4.43,4.43,0,0,0-2.75-.76h-22a14.63,14.63,0,0,0-11.75,5.22,14.77,14.77,0,0,0-3,6.1c-.15.56-.19,1.14-.29,1.71s-.07,1.16-.08,1.75v3.57q0,14.33,0,29.79V261.46q0,9.77,0,19.66v4.95a16.2,16.2,0,0,0,.6,4.86,14.63,14.63,0,0,0,5.67,7.82,15.05,15.05,0,0,0,9.33,2.57h29.58l38.42,0h18.72c3.08,0,6.18.05,9.21,0a14.53,14.53,0,0,0,8.26-3.2,15.37,15.37,0,0,0,3-3.31,14.38,14.38,0,0,0,1.83-4,15,15,0,0,0,.55-4.38c0-1.49,0-3,0-4.46V264.39c0-46.29.05-88,.07-123s.06-63.35.08-82.93q0-3.68,0-6.93a14.91,14.91,0,0,0-1.07-5.92,14.52,14.52,0,0,0-2.76-4.37,14.74,14.74,0,0,0-8.8-4.65,11.62,11.62,0,0,0-1.48-.13Z"/><path class="cls-9" d="M253.76,60.23c0,.06-2.43.13-5.43.16s-5.42,0-5.43-.07,2.43-.14,5.43-.16S253.76,60.16,253.76,60.23Z"/><path class="cls-9" d="M253.78,63c0,.07-2.43.14-5.42.16s-5.43,0-5.43-.07,2.43-.13,5.42-.16S253.78,62.94,253.78,63Z"/><path class="cls-9" d="M253.8,65.78c0,.06-2.43.13-5.42.16s-5.43,0-5.43-.07,2.43-.13,5.43-.16S253.8,65.72,253.8,65.78Z"/><path class="cls-9" d="M155.05,69l.23,0,.62,0,2.32,0-.06.06q0-.77,0-1.68c0-.31,0-.6,0-1a.92.92,0,0,1,.78-.72c.37,0,.7,0,1.11,0a.9.9,0,0,1,.76.89c0,.78,0,1.6,0,2.45l-.11-.1,2.92,0-.11.11c0-1.18,0-2.4,0-3.64,0-.31,0-.62,0-.93a.94.94,0,0,0-.41-.69l-1.28-1.26-1.23-1.22-.6-.59a1.38,1.38,0,0,0-.6-.45.79.79,0,0,0-.67.13c-.18.15-.37.36-.55.53l-1,1.06c-.66.69-1.34,1.31-1.84,1.91a2,2,0,0,0-.15,1.09v1c0,.63,0,1.18,0,1.66s0,.77,0,1.06a2.39,2.39,0,0,1,0,.38s0-.12,0-.35,0-.63,0-1,0-1,0-1.67c0-.33,0-.68,0-1v-.57a1.15,1.15,0,0,1,.16-.62c.54-.66,1.18-1.25,1.85-2,.33-.35.68-.7,1-1.07.19-.18.34-.36.56-.56a1,1,0,0,1,.85-.16,1.58,1.58,0,0,1,.7.5l.6.59c.41.39.82.8,1.24,1.21l1.28,1.26a2.81,2.81,0,0,1,.33.35,1.08,1.08,0,0,1,.15.49c0,.31,0,.62,0,.94,0,1.24,0,2.46,0,3.64V69h-.12l-2.92,0h-.11V68.9c0-.85,0-1.66,0-2.45a.71.71,0,0,0-.59-.71h-1.06a.71.71,0,0,0-.63.57c0,.29,0,.63,0,.93V69h-.07l-2.35,0h-.82Z"/><rect class="cls-7" x="150.69" y="83.62" width="102.5" height="18.64" rx="7.86"/><path class="cls-9" d="M245.33,102.27l.58,0a8.73,8.73,0,0,0,1.7-.33,8,8,0,0,0,2.46-1.3,7.61,7.61,0,0,0,2.34-3,7.4,7.4,0,0,0,.62-2.17A20.52,20.52,0,0,0,253.1,93a18,18,0,0,0-.12-2.73,7.76,7.76,0,0,0-6.19-6.33,20.91,20.91,0,0,0-3.57-.14h-3.78l-80.88.06a7.68,7.68,0,0,0-7.65,7c-.06.93,0,1.91,0,2.86a9.13,9.13,0,0,0,.29,2.77,7.74,7.74,0,0,0,3.17,4.34,7.41,7.41,0,0,0,2.49,1.06,11,11,0,0,0,2.69.2h15.94l36.36,0,24.52.06,6.66,0,1.74,0,.59,0-.59,0-1.74,0-6.66,0-24.52.06-36.36,0H159.52a11.41,11.41,0,0,1-2.78-.21,7.76,7.76,0,0,1-2.6-1.1,8.14,8.14,0,0,1-3.33-4.56,9.3,9.3,0,0,1-.31-2.87c0-1,0-1.9,0-2.89a8.08,8.08,0,0,1,8-7.39l80.88.06h3.78a20.53,20.53,0,0,1,3.61.15,8,8,0,0,1,5.31,3.72,7.79,7.79,0,0,1,1,2.81,17.48,17.48,0,0,1,.11,2.77,20.94,20.94,0,0,1-.09,2.53,7.59,7.59,0,0,1-.65,2.21,7.68,7.68,0,0,1-2.4,3,7.85,7.85,0,0,1-2.51,1.28,7.75,7.75,0,0,1-1.71.3Z"/><path class="cls-9" d="M246.91,92.5s0-.3-.18-.8a3.34,3.34,0,0,0-1.24-1.77,3.21,3.21,0,1,0,0,5.15,3.34,3.34,0,0,0,1.24-1.77c.15-.51.14-.81.18-.81a.68.68,0,0,1,0,.22,2.76,2.76,0,0,1-.07.62,3.3,3.3,0,0,1-1.21,2,3.5,3.5,0,0,1-3.34.55,3.54,3.54,0,0,1,0-6.67,3.5,3.5,0,0,1,3.34.54,3.32,3.32,0,0,1,1.21,2,2.81,2.81,0,0,1,.07.62C246.93,92.43,246.92,92.5,246.91,92.5Z"/><path class="cls-9" d="M248.77,98.33a6.72,6.72,0,0,1-1.65-1.51,7,7,0,0,1-1.38-1.77,6.61,6.61,0,0,1,1.66,1.51A6.48,6.48,0,0,1,248.77,98.33Z"/><path class="cls-6" d="M164.53,91.08H162.7v-.47h4.21v.47h-1.83v4.73h-.55Z"/><path class="cls-6" d="M170.67,94H167.4a1.44,1.44,0,0,0,1.53,1.36,1.55,1.55,0,0,0,1.2-.51l.3.34a2.07,2.07,0,0,1-3.56-1.36,1.88,1.88,0,0,1,1.91-2,1.86,1.86,0,0,1,1.89,2Zm-3.27-.4h2.77a1.37,1.37,0,0,0-1.39-1.3A1.35,1.35,0,0,0,167.4,93.62Z"/><path class="cls-6" d="M174.13,95.81l-1.24-1.64-1.25,1.64H171l1.55-2-1.47-1.9h.59l1.18,1.53,1.17-1.53h.58l-1.47,1.9,1.56,2Z"/><path class="cls-6" d="M177.67,95.57a1.25,1.25,0,0,1-.83.28,1,1,0,0,1-1.14-1.14V92.35H175V91.9h.7V91h.53v.86h1.18v.45h-1.18v2.33a.62.62,0,0,0,.67.71.84.84,0,0,0,.58-.2Z"/><path class="cls-11" d="M220.61,120c0,.11-7.5.2-16.76.2s-16.75-.09-16.75-.2,7.5-.19,16.75-.19S220.61,119.92,220.61,120Z"/><path class="cls-9" d="M247.33,126.9c0,.11-13.49.19-30.12.19s-30.11-.08-30.11-.19,13.48-.19,30.11-.19S247.33,126.8,247.33,126.9Z"/><path class="cls-9" d="M246.62,131.81c0,.11-13.33.19-29.76.19s-29.76-.08-29.76-.19,13.32-.19,29.76-.19S246.62,131.71,246.62,131.81Z"/><path class="cls-9" d="M222.24,136.5c0,.1-7.87.19-17.57.19s-17.57-.09-17.57-.19,7.86-.19,17.57-.19S222.24,136.39,222.24,136.5Z"/><path class="cls-11" d="M220.61,157.4c0,.11-7.5.19-16.76.19s-16.75-.08-16.75-.19,7.5-.19,16.75-.19S220.61,157.3,220.61,157.4Z"/><path class="cls-9" d="M247.33,164.28c0,.11-13.49.19-30.12.19s-30.11-.08-30.11-.19,13.48-.19,30.11-.19S247.33,164.18,247.33,164.28Z"/><path class="cls-9" d="M246.62,169.19c0,.11-13.33.19-29.76.19s-29.76-.08-29.76-.19,13.32-.19,29.76-.19S246.62,169.09,246.62,169.19Z"/><path class="cls-9" d="M222.24,173.88c0,.1-7.87.19-17.57.19s-17.57-.09-17.57-.19,7.86-.19,17.57-.19S222.24,173.77,222.24,173.88Z"/><path class="cls-11" d="M220.61,194.78c0,.11-7.5.19-16.76.19s-16.75-.08-16.75-.19,7.5-.19,16.75-.19S220.61,194.68,220.61,194.78Z"/><path class="cls-9" d="M247.33,201.66c0,.1-13.49.19-30.12.19s-30.11-.09-30.11-.19,13.48-.19,30.11-.19S247.33,201.55,247.33,201.66Z"/><path class="cls-9" d="M246.62,206.57c0,.11-13.33.19-29.76.19s-29.76-.08-29.76-.19,13.32-.19,29.76-.19S246.62,206.47,246.62,206.57Z"/><path class="cls-9" d="M222.24,211.26c0,.1-7.87.19-17.57.19s-17.57-.09-17.57-.19,7.86-.2,17.57-.2S222.24,211.15,222.24,211.26Z"/><path class="cls-11" d="M220.61,232.16c0,.11-7.5.19-16.76.19s-16.75-.08-16.75-.19,7.5-.19,16.75-.19S220.61,232.06,220.61,232.16Z"/><path class="cls-9" d="M247.33,239c0,.1-13.49.19-30.12.19s-30.11-.09-30.11-.19,13.48-.19,30.11-.19S247.33,238.93,247.33,239Z"/><path class="cls-9" d="M246.62,244c0,.1-13.33.19-29.76.19s-29.76-.09-29.76-.19,13.32-.19,29.76-.19S246.62,243.84,246.62,244Z"/><path class="cls-9" d="M222.24,248.63c0,.11-7.87.2-17.57.2s-17.57-.09-17.57-.2,7.86-.19,17.57-.19S222.24,248.53,222.24,248.63Z"/><path class="cls-11" d="M220.61,269.28c0,.1-7.5.19-16.76.19s-16.75-.09-16.75-.19,7.5-.19,16.75-.19S220.61,269.17,220.61,269.28Z"/><path class="cls-9" d="M247.33,276.15c0,.11-13.49.19-30.12.19s-30.11-.08-30.11-.19,13.48-.19,30.11-.19S247.33,276.05,247.33,276.15Z"/><path class="cls-9" d="M246.62,281.07c0,.1-13.33.19-29.76.19s-29.76-.09-29.76-.19,13.32-.2,29.76-.2S246.62,281,246.62,281.07Z"/><path class="cls-9" d="M222.24,285.75c0,.11-7.87.19-17.57.19s-17.57-.08-17.57-.19,7.86-.19,17.57-.19S222.24,285.65,222.24,285.75Z"/><rect class="cls-10" x="154.54" y="116.43" width="20.52" height="27.3" transform="translate(33.8 294.16) rotate(-89.68)"/><polygon class="cls-11" points="151.1 140.26 160.7 127.56 166.56 135.57 170.59 131.33 178.39 140.41 151.1 140.26"/><path class="cls-11" d="M169.12,126.05a2.15,2.15,0,1,1-2.13-2.16A2.15,2.15,0,0,1,169.12,126.05Z"/><polygon class="cls-13" points="151.1 140.26 160.7 127.56 166.56 135.57 170.59 131.33 178.39 140.41 151.1 140.26"/><path class="cls-13" d="M169.12,126.05a2.15,2.15,0,1,1-2.13-2.16A2.15,2.15,0,0,1,169.12,126.05Z"/><rect class="cls-10" x="154.54" y="153.34" width="20.52" height="27.3" transform="translate(-3.1 330.85) rotate(-89.68)"/><path class="cls-11" d="M169.12,163a2.15,2.15,0,1,1-2.13-2.16A2.14,2.14,0,0,1,169.12,163Z"/><g class="cls-12"><path d="M169.12,163a2.15,2.15,0,1,1-2.13-2.16A2.14,2.14,0,0,1,169.12,163Z"/></g><rect class="cls-10" x="154.54" y="190.24" width="20.52" height="27.3" transform="translate(-40 367.55) rotate(-89.68)"/><polygon class="cls-11" points="151.1 214.07 160.7 201.37 166.56 209.38 170.59 205.14 178.39 214.22 151.1 214.07"/><path class="cls-13" d="M169.12,199.85a2.15,2.15,0,1,1-2.13-2.16A2.14,2.14,0,0,1,169.12,199.85Z"/><polygon class="cls-13" points="151.1 214.07 160.7 201.37 166.56 209.38 170.59 205.14 178.39 214.22 151.1 214.07"/><rect class="cls-10" x="154.54" y="227.14" width="20.52" height="27.3" transform="translate(-76.9 404.25) rotate(-89.68)"/><polygon class="cls-11" points="151.1 250.97 160.7 238.27 166.56 246.28 170.59 242.04 178.39 251.12 151.1 250.97"/><path class="cls-11" d="M169.12,236.76A2.15,2.15,0,1,1,167,234.6,2.14,2.14,0,0,1,169.12,236.76Z"/><polygon class="cls-13" points="151.1 250.97 160.7 238.27 166.56 246.28 170.59 242.04 178.39 251.12 151.1 250.97"/><path class="cls-13" d="M169.12,236.76A2.15,2.15,0,1,1,167,234.6,2.14,2.14,0,0,1,169.12,236.76Z"/><rect class="cls-10" x="154.54" y="263.87" width="20.52" height="27.3" transform="translate(-113.63 440.77) rotate(-89.68)"/><polygon class="cls-11" points="151.1 287.69 160.7 275 166.56 283.01 170.59 278.76 178.39 287.85 151.1 287.69"/><path class="cls-11" d="M169.12,273.48a2.15,2.15,0,1,1-2.13-2.16A2.15,2.15,0,0,1,169.12,273.48Z"/><polygon class="cls-13" points="151.1 287.69 160.7 275 166.56 283.01 170.59 278.76 178.39 287.85 151.1 287.69"/><g class="cls-12"><path d="M169.12,273.48a2.15,2.15,0,1,1-2.13-2.16A2.15,2.15,0,0,1,169.12,273.48Z"/></g><circle class="cls-10" cx="356.38" cy="84.59" r="9.73" transform="translate(192.53 412.18) rotate(-76.78)"/><path class="cls-14" d="M355.8,87.76a.48.48,0,0,1-.29-.1L352.24,85a.45.45,0,0,1-.06-.63.43.43,0,0,1,.62-.06l2.93,2.41,4.16-5.09a.45.45,0,1,1,.69.57l-4.44,5.43a.43.43,0,0,1-.3.16Z"/><circle class="cls-10" cx="314.39" cy="71.25" r="13.34"/><path class="cls-14" d="M313.59,75.87a.94.94,0,0,1-.57-.2L308.53,72a.89.89,0,1,1,1.14-1.38l3.8,3.13L319,67a.89.89,0,1,1,1.38,1.13l-6.08,7.45a.91.91,0,0,1-.61.33Z"/><path class="cls-9" d="M257.81,252.43a27.79,27.79,0,0,1-19.66-32.19c-.25.68-.49,1.38-.69,2.1A27.8,27.8,0,0,0,291,237.54c.2-.72.37-1.43.51-2.15A27.79,27.79,0,0,1,257.81,252.43Z"/><path class="cls-8" d="M271.51,203.28a27.8,27.8,0,0,1,19.66,32.2c.25-.69.49-1.39.69-2.1a27.81,27.81,0,0,0-53.49-15.21c-.2.72-.36,1.44-.51,2.16A27.81,27.81,0,0,1,271.51,203.28Z"/><path class="cls-9" d="M292.18,233.2s0-.16.08-.45.16-.74.27-1.29c.07-.29.14-.6.21-1s.09-.75.15-1.17a20.33,20.33,0,0,0,.22-2.91,26.63,26.63,0,0,0-.95-7.93,27.74,27.74,0,0,0-14.41-17.6,25.05,25.05,0,0,0-3.24-1.34c-.57-.18-1.13-.4-1.72-.56l-1.78-.41c-.3-.06-.6-.15-.9-.19l-.93-.12c-.62-.07-1.24-.17-1.86-.21a29.87,29.87,0,0,0-7.73.57c-.65.14-1.29.34-1.93.52a13.1,13.1,0,0,0-1.92.64,33,33,0,0,0-3.74,1.71,31.39,31.39,0,0,0-3.47,2.33,27,27,0,0,0-5.87,6.23,27.47,27.47,0,0,0-4.76,16.74,26.8,26.8,0,0,0,1.72,8.39,31.19,31.19,0,0,0,1.72,3.81,32.78,32.78,0,0,0,2.28,3.42,16.19,16.19,0,0,0,1.29,1.56c.46.48.9,1,1.37,1.45a29.65,29.65,0,0,0,3,2.51,30.88,30.88,0,0,0,3.24,2.05c.56.29,1.14.53,1.71.79l.84.39c.29.13.59.21.87.31l1.74.59c.57.18,1.17.29,1.75.43a26.26,26.26,0,0,0,3.46.57,27.74,27.74,0,0,0,21.51-7.4,26.49,26.49,0,0,0,5-6.24,19.77,19.77,0,0,0,1.35-2.59c.17-.39.35-.74.48-1.07l.33-.92c.19-.53.34-.94.44-1.24l.17-.42a4.4,4.4,0,0,1-.12.43c-.1.3-.23.72-.4,1.26-.1.28-.2.59-.31.93s-.3.69-.47,1.08a18.83,18.83,0,0,1-1.31,2.63,26.13,26.13,0,0,1-5,6.34,27.89,27.89,0,0,1-21.72,7.59,25.49,25.49,0,0,1-3.52-.56c-.59-.14-1.19-.25-1.78-.43l-1.76-.59c-.29-.11-.59-.19-.88-.31l-.86-.4c-.57-.26-1.16-.51-1.73-.8a30.51,30.51,0,0,1-6.38-4.61c-.48-.47-.93-1-1.4-1.48a15.47,15.47,0,0,1-1.31-1.58,26,26,0,0,1-4.08-7.34,27.4,27.4,0,0,1-1.75-8.53,27.78,27.78,0,0,1,4.84-17,27.28,27.28,0,0,1,6-6.33,33.09,33.09,0,0,1,3.54-2.37,31.32,31.32,0,0,1,3.79-1.72,16,16,0,0,1,1.95-.66c.66-.17,1.31-.37,2-.52a28.18,28.18,0,0,1,3.95-.54,29.73,29.73,0,0,1,3.89,0c.64,0,1.27.15,1.9.22l.94.12c.31,0,.61.14.91.2l1.81.42c.59.16,1.16.38,1.74.57a25.87,25.87,0,0,1,3.29,1.37,28,28,0,0,1,14.48,17.88,26.52,26.52,0,0,1,.88,8,18.66,18.66,0,0,1-.27,2.93c-.06.42-.1.82-.16,1.17s-.16.66-.23.95c-.14.55-.25,1-.32,1.28S292.18,233.2,292.18,233.2Z"/><path class="cls-9" d="M281.62,249.05c.35.24,26.68,24.53,36.37,33.61a4.23,4.23,0,0,0,5.83-.05h0a4.24,4.24,0,0,0-.06-6.13L287.62,243.1Z"/><path class="cls-15" d="M146.34,160.94l.54-2.11a7.92,7.92,0,0,0-.09-4.21l-2.21-7.37a2.79,2.79,0,0,0-1.27-1.61c-1.68-1-5-2.82-5.28-2.58-2,1.68,2.51,4.67,2.51,4.67s1.75,2,.36,3.4c-1.57,1.64-4.54-2-4.54-2s.16-.37.3-.3a6,6,0,0,0,2.86,1.22v-2.39L136.83,146a2.68,2.68,0,0,0-2-.35l-.93.2a2.37,2.37,0,0,0-1.47,1l-.88,1.32-.38.51a1.7,1.7,0,0,0-.18,1.7l.43.94-.59.82a2.55,2.55,0,0,0-.3,2.36l4.53,6.23,6.72,11,7.26-7.8Z"/><path class="cls-16" d="M132.28,154.46A1.76,1.76,0,0,1,132,154a1.29,1.29,0,0,1,.22-1.16l0,0,0-.05-.08-.16a12.87,12.87,0,0,0-1-1.78,10.8,10.8,0,0,0,.8,1.86l.08.16v-.1a1.33,1.33,0,0,0-.19,1.31C132.06,154.38,132.28,154.49,132.28,154.46Z"/><path class="cls-16" d="M132.84,146.34a2.07,2.07,0,0,0-.14,1.25,9.69,9.69,0,0,0,1.22,2.89,3.91,3.91,0,0,1,.43.84,2.48,2.48,0,0,1,.05.89,2.2,2.2,0,0,0,.16,1.34,2.44,2.44,0,0,0,.88.91s-.59-.06-1.05-.81a2.32,2.32,0,0,1-.25-1.46,2.09,2.09,0,0,0,0-.79,3.92,3.92,0,0,0-.41-.78,8.54,8.54,0,0,1-1.18-3C132.39,146.75,132.82,146.29,132.84,146.34Z"/><path class="cls-16" d="M136.42,149.05a6.69,6.69,0,0,0-.34-1c-.27-.51-.58-.91-.51-1s.45.27.76.83S136.5,149.09,136.42,149.05Z"/><polygon class="cls-8" points="148.83 198.41 151.59 201.88 165.95 184.63 147.15 159.89 137.86 167.19 148.83 198.41"/><polygon class="cls-11" points="212.72 365.32 213.91 393.35 229.04 393.01 227.91 364.93 212.72 365.32"/><path class="cls-9" d="M221.34,392.13c.13,0-.11-6.15-.52-13.71s-.86-13.69-1-13.68.1,6.14.52,13.71S221.22,392.14,221.34,392.13Z"/><polygon class="cls-9" points="213.83 391.42 228.97 391.03 229.04 393.01 213.91 393.35 213.83 391.42"/><path class="cls-9" d="M228.68,384s-.11-.24-.41-.6a11.22,11.22,0,0,0-1.42-1.37,10.07,10.07,0,0,0-2.52-1.53,8.06,8.06,0,0,0-9.33,2.18,6.57,6.57,0,0,0-1,1.7,1.74,1.74,0,0,0-.21.7,14.7,14.7,0,0,1,1.48-2.18,8.06,8.06,0,0,1,5.56-2.59,9.24,9.24,0,0,1,5.85,2C228,383.29,228.62,384.09,228.68,384Z"/><g class="cls-17"><polygon points="228.23 372.92 228.36 376.01 213.19 376.28 213.09 373.96 228.23 372.92"/></g><path class="cls-11" d="M177.09,367l.74,17.06s-17.09,6.48-17.26,9.65l33.13-.25-.06-26.62Z"/><path class="cls-6" d="M187.85,382.61a1.38,1.38,0,0,1,1,1.55,1.31,1.31,0,0,1-1.53,1,1.43,1.43,0,0,1-1-1.64,1.36,1.36,0,0,1,1.7-.83"/><path class="cls-9" d="M193.7,393.46V390.8L161.64,392s-1.48.65-1.31,1.7Z"/><path class="cls-9" d="M177.53,384.17c0,.17.82.23,1.63.75s1.24,1.2,1.39,1.14-.1-1-1.09-1.62S177.5,384,177.53,384.17Z"/><path class="cls-9" d="M174,385.65c0,.15.67.43,1.23,1.11s.73,1.41.89,1.41.26-.93-.45-1.77S174.05,385.49,174,385.65Z"/><path class="cls-9" d="M172.09,389.85c.14,0,.36-.78-.06-1.67s-1.19-1.24-1.26-1.1.41.61.75,1.34S171.92,389.83,172.09,389.85Z"/><path class="cls-9" d="M177.8,380.24c.07.15.81-.08,1.73,0s1.64.34,1.73.2-.61-.71-1.7-.76S177.72,380.11,177.8,380.24Z"/><path class="cls-9" d="M177.18,376.57a3.26,3.26,0,0,0,1.67,0,8.18,8.18,0,0,0,1.74-.55,9,9,0,0,0,1-.52,2.08,2.08,0,0,0,.5-.4.71.71,0,0,0,.07-.87.91.91,0,0,0-.72-.36,2,2,0,0,0-.63.09,6.24,6.24,0,0,0-1,.36,6.06,6.06,0,0,0-1.54,1c-.76.72-1,1.33-1,1.36s.45-.46,1.23-1.06a7.06,7.06,0,0,1,1.49-.85,6.22,6.22,0,0,1,1-.3c.36-.1.66-.1.75.06s0,.08,0,.18a1.32,1.32,0,0,1-.37.29,6.56,6.56,0,0,1-.87.51,8.23,8.23,0,0,1-1.62.63A10.89,10.89,0,0,0,177.18,376.57Z"/><path class="cls-9" d="M177.39,376.8a2.64,2.64,0,0,0,.43-1.62,5.72,5.72,0,0,0-.24-1.83,5.84,5.84,0,0,0-.44-1,1.34,1.34,0,0,0-1.07-.83.77.77,0,0,0-.69.47,2.26,2.26,0,0,0-.17.61,3.56,3.56,0,0,0,0,1.13,3.88,3.88,0,0,0,.72,1.72c.66.86,1.34,1.05,1.36,1s-.52-.39-1-1.22a3.84,3.84,0,0,1-.55-1.56,3.53,3.53,0,0,1,0-1c.05-.36.18-.64.31-.61s.45.26.59.55a5.62,5.62,0,0,1,.42.9,6.29,6.29,0,0,1,.34,1.66C177.47,376.16,177.3,376.77,177.39,376.8Z"/><g class="cls-17"><polygon points="193.7 377.06 193.67 380.85 177.69 380.85 177.69 377.42 193.7 377.06"/></g><path class="cls-15" d="M247.27,93.14l2.38,9.19s.88,5.08-1.49,5.07c-2.1,0-2.3-2.72-2.3-2.72s1-5.57-1.69-5.26c-.38,0-1.38,3.88-1.87,5.84a2.89,2.89,0,0,0,.29,2.11l3.94,7a8.26,8.26,0,0,0,3.1,3.11l2,1.12.26,4.15,11.1.18-3.38-13-1.42-7.9a2.62,2.62,0,0,0-2-1.47l-1-.16-.4-1a1.77,1.77,0,0,0-1.41-1.09l-.65-.08L251.77,96c-.3-.75-2.48-5.64-3.28-5.63C248.49,90.38,246.68,90.87,247.27,93.14Z"/><path class="cls-16" d="M255.19,104.27a8.2,8.2,0,0,0-.21-1,3.86,3.86,0,0,0-1.51-1.92,11.46,11.46,0,0,1-.84-2.41,3.5,3.5,0,0,1-.11-1s.07.39.24,1a15.87,15.87,0,0,0,.85,2.32c.17.14.36.28.54.45a3.14,3.14,0,0,1,.95,1.55,2.9,2.9,0,0,1,.12.77A.71.71,0,0,1,255.19,104.27Z"/><path class="cls-16" d="M256.88,103.33a1.63,1.63,0,0,0-.16-.5,1.31,1.31,0,0,0-1-.67h-.05l0-.05-.07-.18a12.35,12.35,0,0,1-.63-2,12.57,12.57,0,0,1,.81,2l.06.17-.07-.06a1.4,1.4,0,0,1,1.12.8C257,103.11,256.91,103.35,256.88,103.33Z"/><path class="cls-15" d="M191.55,147.81l20.12-.26-2.24-17.14s1.37-.29,1.46-7.75.44-20.12.44-20.12h0a25.91,25.91,0,0,0-26,3.27l-1.1.85Z"/><path class="cls-15" d="M186.52,115.83c-.12-.06-5.12-1.52-5,3.58s5.25,3.88,5.25,3.74S186.52,115.83,186.52,115.83Z"/><path class="cls-15" d="M210.46,114.76c.13-.05,4.67-1.28,4.51,3.82s-5.25,3.88-5.25,3.74S210.46,114.76,210.46,114.76Z"/><path class="cls-9" d="M184.87,115.26c.76,4.27.61,6.52,1.32,9.37,1.11,4.51,3.35,8,7.42,10.23s9.57,2.21,13.06-.86c2.43-2.13,4.14-4.53,4.5-7.74s.72-8.89.75-12.11c0-5.82.43-11.39.43-11.39l-16.63-3-9.46,5.62Z"/><path class="cls-9" d="M202,137.43a5.27,5.27,0,0,1-2.91.26,5.45,5.45,0,0,1-2.79-.88c.05-.13,1.28.25,2.84.42S202,137.3,202,137.43Z"/><path class="cls-9" d="M185.67,122.52c-.48-4.38-.8-9.38-1.48-14-.26-1.73-.88-4.22-.72-6a14.31,14.31,0,0,1,1.09-5.12,7.19,7.19,0,0,1,11.22-2.26,5.4,5.4,0,0,1,9.84,2.28,3.75,3.75,0,0,1,6.19,3.75,3.67,3.67,0,0,1,2.47,5.61c-.77,1.19-2.16,1.84-3,3a4.26,4.26,0,0,0-.26,4.6"/><path class="cls-8" d="M208.76,106.71s0,.18-.18.47a3.37,3.37,0,0,1-1,1.09,3.54,3.54,0,0,1-2.16.69,3.79,3.79,0,0,1-2.67-1.25l.36-.1a3.48,3.48,0,0,1-2.23,2.55,4,4,0,0,1-3.75-.47,5.71,5.71,0,0,1-2.11-2.76l.41,0a4.71,4.71,0,0,1-3.77,2.07,4.44,4.44,0,0,1-4.31-3.25,1.8,1.8,0,0,1-.1-.81s.07.28.25.76a4.42,4.42,0,0,0,1.19,1.79,4.08,4.08,0,0,0,3,1.11,4.3,4.3,0,0,0,3.4-1.91l.24-.38.16.42a5.2,5.2,0,0,0,1.94,2.53,3.53,3.53,0,0,0,3.33.44,3.08,3.08,0,0,0,2-2.2l.07-.42.28.33a3.41,3.41,0,0,0,2.37,1.18,3.38,3.38,0,0,0,2-.55A4.9,4.9,0,0,0,208.76,106.71Z"/><path class="cls-8" d="M208.73,104.68a4.49,4.49,0,0,0-.71-1.85,3.08,3.08,0,0,0-1.75-1.18,3.13,3.13,0,0,0-2.53.49l-.41.29,0-.5a3.93,3.93,0,0,0-.17-1.47,4,4,0,0,0-2.05-2.38,4,4,0,0,0-2.59-.22,5.32,5.32,0,0,0-2.16,1.22s.09-.25.41-.57a4,4,0,0,1,1.66-1,4.15,4.15,0,0,1,2.86.15,4.37,4.37,0,0,1,2.31,2.63,4.26,4.26,0,0,1,.18,1.65l-.36-.2a3.51,3.51,0,0,1,2.9-.51,3.31,3.31,0,0,1,2.41,2.87C208.8,104.49,208.76,104.69,208.73,104.68Z"/><path class="cls-8" d="M198.13,104.83c-.06,0,0-.29,0-.7a3.37,3.37,0,0,0-.52-1.5,16.33,16.33,0,0,0-1-1.35c-.26-.27-.5-.08-.54-.11s0-.11.11-.2a.57.57,0,0,1,.63,0,3.92,3.92,0,0,1,.57.58,4.62,4.62,0,0,1,.58.79,2.83,2.83,0,0,1,.46,1.75C198.38,104.62,198.18,104.86,198.13,104.83Z"/><path class="cls-8" d="M188.27,98.42c-.06,0,0-.39.31-.93a2.34,2.34,0,0,1,.76-.79,2,2,0,0,1,1.35-.3,3.25,3.25,0,0,1,2,1.27c.37.47.54.79.49.83s-.32-.21-.74-.61a3.47,3.47,0,0,0-1.83-1,1.94,1.94,0,0,0-1.78.82C188.5,98.12,188.33,98.45,188.27,98.42Z"/><path class="cls-8" d="M190.86,120a11.33,11.33,0,0,1-2.38-6.89c.14,0,.4,1.6,1.06,3.49S191,120,190.86,120Z"/><path class="cls-8" d="M193.09,121.26a5.89,5.89,0,0,1-1.24-2.31,6.24,6.24,0,0,1-.6-2.56,10.29,10.29,0,0,1,1,2.39A10.28,10.28,0,0,1,193.09,121.26Z"/><path class="cls-8" d="M207.09,121.61a7.9,7.9,0,0,1-.57,4.48,8.1,8.1,0,0,1-2.53,3.74,29.63,29.63,0,0,0,2.09-3.9A26.28,26.28,0,0,0,207.09,121.61Z"/><path class="cls-8" d="M209.33,117.89a7.9,7.9,0,0,1-1.4,7.7,22.78,22.78,0,0,0,1.26-3.75A22.43,22.43,0,0,0,209.33,117.89Z"/><polyline class="cls-9" points="202.89 258.4 207.78 305.59 211.3 376.65 230.05 376.65 230.56 225.41 176.87 229.24 165.75 308.59 175.38 378.04 195.95 378.04 191.14 312 202.89 258.4"/><path class="cls-8" d="M202.89,258.41a29.61,29.61,0,0,1-3.65,3.59,27.67,27.67,0,0,1-4,3.25,29.61,29.61,0,0,1,3.65-3.59A27.67,27.67,0,0,1,202.89,258.41Z"/><path class="cls-8" d="M202.83,257.46a55,55,0,0,1,.1-6.06,55.26,55.26,0,0,1,.35-6,31.14,31.14,0,0,1,.12,6.06A31.32,31.32,0,0,1,202.83,257.46Z"/><path class="cls-8" d="M209,239.85a1.2,1.2,0,0,1,.31,0l.92-.06,3.56-.17,12.71-.53h.22v.22c0,4,0,8.45,0,13.19v.42l-.14.06-8.27,3.31-.08,0-.08,0-7.31-2.54-.12,0v-.12c-.53-4.11-1-7.54-1.3-10-.14-1.14-.25-2.06-.34-2.75s-.1-.95-.09-.94a1.37,1.37,0,0,1,.06.27c0,.2.08.45.13.74.11.69.26,1.63.44,2.79.36,2.42.87,5.8,1.48,9.85l-.12-.16,7.33,2.49h-.16l8.26-3.34-.14.22v-.26c0-4.74,0-9.23,0-13.19l.22.21-12.58.31-3.61.06H209Z"/><path class="cls-8" d="M182,240.08s.08,0,.27,0l.83,0,3.22-.1,11.59-.27h.22v.22c-.13,3.91-.27,8.43-.42,13.24v.12l-.1.06-1.34.88-6.8,4.43-.12.08-.12-.07-7.66-4.67-.1-.06v-.11c.14-4.11.26-7.54.35-10l.12-2.74a5.68,5.68,0,0,1,.07-.94s0,.1,0,.27v.75c0,.69,0,1.62,0,2.79,0,2.43-.08,5.82-.14,9.88l-.1-.17,7.69,4.61h-.24l6.79-4.45,1.35-.88-.11.19c.18-4.81.34-9.32.48-13.24l.21.21-11.47.07h-4.14Z"/><path class="cls-8" d="M224.76,261.45a12.05,12.05,0,0,1-2.54-.08c-1.56-.11-3.72-.32-6.09-.63s-4.52-.66-6.06-.94a13.57,13.57,0,0,1-2.48-.57,13.79,13.79,0,0,1,2.53.24l6.07.81,6.06.77A15.56,15.56,0,0,1,224.76,261.45Z"/><path class="cls-8" d="M224.33,314.05s-.08.27-.45.6a3,3,0,0,1-1.91.65,4.54,4.54,0,0,1-2.81-1.08,18.89,18.89,0,0,1-2.55-2.58,36.22,36.22,0,0,1-3.8-5.34,11.66,11.66,0,0,1-1.18-2.44,24.72,24.72,0,0,1,1.47,2.27,45.17,45.17,0,0,0,3.87,5.21,22.32,22.32,0,0,0,2.46,2.55A4.42,4.42,0,0,0,222,315a3,3,0,0,0,1.8-.47C224.15,314.25,224.29,314,224.33,314.05Z"/><path class="cls-8" d="M187.29,315.71a1.27,1.27,0,0,1-.25.6,3.78,3.78,0,0,1-1.3,1.23,5,5,0,0,1-2.57.68,6.05,6.05,0,0,1-3.1-1,11,11,0,0,1-3.73-4.44,9.69,9.69,0,0,1-.92-2.21,16.17,16.17,0,0,1,1.21,2.05,11.73,11.73,0,0,0,3.69,4.21,5.85,5.85,0,0,0,2.86,1,4.84,4.84,0,0,0,2.4-.54A5.19,5.19,0,0,0,187.29,315.71Z"/><path class="cls-8" d="M188.49,308.59a4.8,4.8,0,0,1-1.54.89,12.11,12.11,0,0,1-8.47.35,4.54,4.54,0,0,1-1.61-.76,15.51,15.51,0,0,0,11.62-.48Z"/><path class="cls-8" d="M249.52,142.06H222.18s-3.72-2.14-5.52-1.78a7.13,7.13,0,0,0-3.35,2.28l3.62,30.12,8.85-6.55,33-3.43a10.51,10.51,0,0,0,7.54-3.3h0a10.47,10.47,0,0,0,2.77-8.43L263,118.57l-12.51.42-.49,8.22Z"/><path class="cls-8" d="M174.26,149.66a16.69,16.69,0,0,0-6.61,7.67c-1.59,3.83-12.48,22.94-18.22,32.94a9.46,9.46,0,0,0,1.37,11.24h0c3.49,3.65,7.65,2.22,12.74.57,2.28-.74,12.54-16.49,12.54-16.49Z"/><polygon class="cls-8" points="179.01 217.97 172.74 164.03 174.26 149.66 190.21 142.85 210.88 141.5 230.56 143.67 225.96 198.99 231 230.19 175.87 232.68 179.01 217.97"/><path class="cls-9" d="M179,217.74c-.12,0-1.62-12-3.35-26.83s-3-26.87-2.89-26.88,1.63,12,3.36,26.83S179.11,217.72,179,217.74Z"/><path class="cls-9" d="M230.16,155.77a2.27,2.27,0,0,1,0,.49q0,.56-.12,1.38c-.13,1.27-.3,3-.52,5.09-.43,4.36-1,10.26-1.68,16.78s-1.13,12.5-1.46,16.8c-.15,2.1-.27,3.83-.36,5.1-.05.56-.08,1-.11,1.38a2.46,2.46,0,0,1-.07.49,1.56,1.56,0,0,1,0-.49c0-.37,0-.83,0-1.39,0-1.21.1-3,.22-5.11.23-4.31.69-10.26,1.31-16.82s1.3-12.49,1.83-16.78c.26-2.14.49-3.87.66-5.07.09-.55.16-1,.21-1.37A1.9,1.9,0,0,1,230.16,155.77Z"/><path class="cls-9" d="M220.67,209.47a6.83,6.83,0,0,1-.87,1.07,11.65,11.65,0,0,1-1.12,1.16,18.12,18.12,0,0,1-1.59,1.44,20.86,20.86,0,0,1-2.08,1.57,29.15,29.15,0,0,1-2.53,1.59,33.71,33.71,0,0,1-6.3,2.66,34.2,34.2,0,0,1-6.73,1.23,27.76,27.76,0,0,1-3,.06,22.59,22.59,0,0,1-2.6-.18,20.43,20.43,0,0,1-2.12-.32,11.48,11.48,0,0,1-1.57-.37,8.49,8.49,0,0,1-1.32-.41c0-.11,1.91.48,5.05.78.78.06,1.64.13,2.56.12s1.91-.05,2.95-.11a35.4,35.4,0,0,0,6.63-1.25,35,35,0,0,0,6.24-2.59c.89-.52,1.76-1,2.52-1.53a25.62,25.62,0,0,0,2.08-1.5C219.34,210.92,220.6,209.4,220.67,209.47Z"/><g class="cls-17"><path d="M191.53,219.54c-2.68-.77-2.83-3.3-1.8-4.38a4.8,4.8,0,0,1,4.21-1,21.93,21.93,0,0,0,4.46.6c2.45-.17,4.51-1.87,6.21-3.64s3.31-3.76,5.55-4.77,5.35-.66,6.53,1.49a4.68,4.68,0,0,1-.27,4.48,10.41,10.41,0,0,1-3.32,3.25,27.13,27.13,0,0,1-21.57,4"/></g><path class="cls-9" d="M224.13,143.16a7.27,7.27,0,0,1,3.59,2.86,7.17,7.17,0,0,1,1.57,4.3,18.41,18.41,0,0,0-1.95-4A18.82,18.82,0,0,0,224.13,143.16Z"/><path class="cls-1" d="M222.22,142.55s-.14-.12-.46-.27a2.3,2.3,0,0,0-1.48-.09,4.11,4.11,0,0,0-2,1.21,22.91,22.91,0,0,1-2.26,2.29,6.57,6.57,0,0,1-3.7,1.14c-1.41.07-2.9-.08-4.47-.12a87.08,87.08,0,0,0-10.21.23,65.27,65.27,0,0,0-18.06,4,55.73,55.73,0,0,0-5.14,2.29l-1.36.71-.48.24.46-.27,1.34-.75a50.94,50.94,0,0,1,5.13-2.34,64.48,64.48,0,0,1,18.1-4.05,85.07,85.07,0,0,1,10.23-.21c1.57.05,3.06.2,4.45.14a6.63,6.63,0,0,0,3.64-1.09,23.85,23.85,0,0,0,2.25-2.26,4.23,4.23,0,0,1,2.09-1.21,2.29,2.29,0,0,1,1.52.13A1.49,1.49,0,0,1,222.22,142.55Z"/><path class="cls-1" d="M228.41,153.6s-.19,0-.55-.12a6.13,6.13,0,0,0-1.62,0,8.7,8.7,0,0,0-2.47.66,29.24,29.24,0,0,0-3,1.55,16.88,16.88,0,0,1-3.81,1.64,24.06,24.06,0,0,1-4.69.76c-3.35.21-7,.26-10.87.56-7.71.53-14.64,1.46-19.63,2.28-2.5.4-4.51.78-5.91,1l-1.6.3-.56.1.56-.13,1.59-.34c1.39-.28,3.4-.68,5.89-1.09,5-.85,11.93-1.81,19.64-2.34,3.85-.29,7.54-.34,10.87-.54a23.76,23.76,0,0,0,4.67-.74,17.08,17.08,0,0,0,3.79-1.6,28.21,28.21,0,0,1,3-1.54,8.76,8.76,0,0,1,2.51-.63,5.5,5.5,0,0,1,1.63.09A2.76,2.76,0,0,1,228.41,153.6Z"/><path class="cls-1" d="M228.55,168.81s-.7.33-2,.83a58.4,58.4,0,0,1-5.56,1.85,83.27,83.27,0,0,1-19.09,2.86,178.34,178.34,0,0,1-19.33-.46l-5.84-.46-1.58-.14-.55-.06s.19,0,.55,0l1.59.1,5.84.39a185.22,185.22,0,0,0,19.31.41A86.38,86.38,0,0,0,221,171.37c2.38-.66,4.28-1.31,5.57-1.79.65-.24,1.14-.45,1.49-.58Z"/><path class="cls-1" d="M226.45,186.36s-.65.29-1.85.7a37.36,37.36,0,0,1-5.25,1.34,52.54,52.54,0,0,1-8,.82c-3,.1-6.35,0-9.83-.2-6.95-.46-13.25-1-17.82-.79-2.28.06-4.12.2-5.39.35-.63.06-1.12.15-1.46.18s-.51.06-.51.06a47,47,0,0,1,7.36-.72c4.57-.2,10.88.27,17.83.73,3.48.21,6.8.31,9.81.22a54,54,0,0,0,8-.78,39,39,0,0,0,5.24-1.28c.62-.17,1.07-.36,1.39-.47Z"/><path class="cls-1" d="M224.75,200s-2.52.83-6.71,1.79c-2.09.49-4.6,1-7.4,1.4s-5.91.76-9.18,1-6.39.21-9.23.14-5.39-.26-7.52-.49c-4.27-.45-6.87-1-6.87-1l.47.06,1.37.19c1.19.18,2.91.39,5,.59s4.68.38,7.51.46,6,0,9.22-.16,6.36-.55,9.16-.95,5.31-.89,7.41-1.36,3.77-.88,4.93-1.2l1.33-.35Z"/><path class="cls-1" d="M226.64,204.91s-.15.07-.46.18l-1.35.48c-1.16.44-2.83,1.11-4.86,2s-4.43,2-7.15,3.14a46.81,46.81,0,0,1-9.15,2.79,75.88,75.88,0,0,1-17.32,1c-2.22-.09-4-.21-5.26-.29l-1.43-.1a4.9,4.9,0,0,1-.49-.05h.5l1.43.07,5.25.23a78.37,78.37,0,0,0,17.29-1,47.31,47.31,0,0,0,9.11-2.77c2.72-1.11,5.12-2.22,7.17-3.1s3.71-1.54,4.89-2S226.64,204.91,226.64,204.91Z"/><path class="cls-1" d="M229.44,219.72s-.61.42-1.78,1.08a35.27,35.27,0,0,1-5.16,2.36,57,57,0,0,1-18.41,3.12c-7.33.13-13.94-.45-18.73-.66-2.39-.11-4.33-.18-5.67-.21l-1.54,0-.54,0,.54,0h1.54c1.34,0,3.28,0,5.68.15,4.79.17,11.4.73,18.71.6A57.78,57.78,0,0,0,222.45,223a37,37,0,0,0,5.18-2.31c.6-.3,1-.59,1.34-.75Z"/><path class="cls-1" d="M237.77,165.11a2.16,2.16,0,0,1,0-.22c.05-.2.11-.41.17-.64.16-.54.35-1.35.56-2.34a36.39,36.39,0,0,0,.75-7.9,36.78,36.78,0,0,0-1-7.88c-.23-1-.45-1.79-.63-2.33l-.19-.63a.8.8,0,0,1-.05-.22s0,.07.09.21l.22.62a23,23,0,0,1,.69,2.32,34.05,34.05,0,0,1,1.05,7.9,35,35,0,0,1-.81,7.94c-.23,1-.44,1.79-.62,2.33l-.2.63C237.81,165,237.78,165.12,237.77,165.11Z"/><path class="cls-1" d="M251,161.88a.67.67,0,0,1,0-.21c0-.18,0-.37,0-.58,0-.51.05-1.24,0-2.14a34.34,34.34,0,0,0-.83-7,33.85,33.85,0,0,0-2.29-6.67c-.39-.82-.72-1.48-1-1.92l-.28-.52c-.06-.12-.09-.18-.08-.18l.11.16.31.5c.26.44.62,1.08,1,1.9a31.53,31.53,0,0,1,2.35,6.69,31,31,0,0,1,.78,7.05c0,.91,0,1.65-.09,2.16l-.06.58Z"/><path class="cls-1" d="M268.91,155.67l-.17-.18-.45-.54c-.39-.47-1-1.13-1.71-1.92a43.17,43.17,0,0,0-13.72-9.82c-1-.45-1.81-.79-2.38-1l-.65-.26-.22-.1.24.06.66.23c.58.19,1.4.51,2.4,1a40.57,40.57,0,0,1,13.76,9.85c.74.81,1.31,1.48,1.67,2l.43.56C268.87,155.59,268.92,155.66,268.91,155.67Z"/><path class="cls-1" d="M264.85,130.33h-.57l-1.55,0c-1.3,0-3.11,0-5.11,0s-3.8.11-5.11.18l-1.54.08a3.52,3.52,0,0,1-.57,0,3.89,3.89,0,0,1,.56-.08l1.55-.14c1.3-.1,3.11-.2,5.11-.24s3.81,0,5.12.06l1.55.09A2.88,2.88,0,0,1,264.85,130.33Z"/><path class="cls-1" d="M163.54,165.82a2.58,2.58,0,0,1,.34.35c.2.24.51.57.9,1a23.61,23.61,0,0,0,3.35,2.79,43.73,43.73,0,0,0,3.74,2.27l1.16.64a2.16,2.16,0,0,1,.42.25l-.45-.19-1.19-.58a34.16,34.16,0,0,1-3.78-2.24,19.82,19.82,0,0,1-3.34-2.85,12.33,12.33,0,0,1-.87-1A2.35,2.35,0,0,1,163.54,165.82Z"/><path class="cls-1" d="M167.31,158.66s.21.31.63.72a14.66,14.66,0,0,0,1.81,1.43c.75.5,1.46.92,2,1.2a8,8,0,0,1,.84.45,13,13,0,0,1-4.72-3A2.12,2.12,0,0,1,167.31,158.66Z"/><path class="cls-1" d="M173.67,189.18l-.19-.09-.55-.29a21.51,21.51,0,0,1-1.93-1.15,40,40,0,0,1-5.83-4.62,37,37,0,0,1-4.85-5.63,21.15,21.15,0,0,1-1.21-1.91l-.29-.54c-.07-.12-.1-.19-.09-.19a1.44,1.44,0,0,1,.12.18l.32.51c.28.46.7,1.1,1.25,1.87a40.47,40.47,0,0,0,4.88,5.57,43.9,43.9,0,0,0,5.77,4.65c.79.53,1.44.93,1.9,1.2l.52.31C173.61,189.13,173.68,189.17,173.67,189.18Z"/><path class="cls-9" d="M148.83,198.41a4.5,4.5,0,0,1-.17-1,17.31,17.31,0,0,1-.06-2.83,18.15,18.15,0,0,1,3-8.79c1.92-3.07,3.68-5.84,5-7.84l1.55-2.34a4.26,4.26,0,0,1,.63-.83,4.52,4.52,0,0,1-.47.92l-1.43,2.43c-1.23,2-2.94,4.83-4.86,7.9a19.12,19.12,0,0,0-3,8.58C148.72,196.93,148.93,198.41,148.83,198.41Z"/><path class="cls-1" d="M164.48,202a11.79,11.79,0,0,1-3.09-.46,14.5,14.5,0,0,1-10.24-10.24,11.79,11.79,0,0,1-.46-3.09.71.71,0,0,1,0,.21c0,.14,0,.35.08.62a14.67,14.67,0,0,0,.47,2.22,15.05,15.05,0,0,0,12.37,10.63l.62.07Z"/><path class="cls-1" d="M155.5,171.5l-.16.11-.46.28c-.41.24-1,.61-1.67,1.1a24,24,0,0,0-4.77,4.52,24.31,24.31,0,0,0-3.35,5.64c-.32.78-.56,1.42-.7,1.87-.06.18-.12.35-.17.52a1.78,1.78,0,0,1-.07.17s0-.06,0-.18l.14-.53a18.08,18.08,0,0,1,.65-1.9,22.74,22.74,0,0,1,8.16-10.22,19.8,19.8,0,0,1,1.71-1l.48-.25Z"/><path class="cls-1" d="M150.48,164.88a2,2,0,0,1-.51.18c-.33.1-.8.27-1.37.5a16.22,16.22,0,0,0-4.11,2.49,22.94,22.94,0,0,0-3.32,3.48c-.39.49-.69.89-.89,1.17a2.75,2.75,0,0,1-.34.42,3,3,0,0,1,.28-.46c.18-.3.47-.71.84-1.21a21.48,21.48,0,0,1,3.31-3.55,15.42,15.42,0,0,1,4.18-2.46A11.83,11.83,0,0,1,150,165Z"/></g></g></svg>