<svg xmlns="http://www.w3.org/2000/svg" viewBox="0 0 350.41 355.46"><defs><style>.cls-1{fill:#f5f5f5;}.cls-2{fill:#ececec;}.cls-3{fill:#e1e1e1;}.cls-4{fill:#fff;}.cls-5{opacity:0.5;}.cls-6{fill:#1a2e35;}.cls-7{fill:#163d6b;}.cls-8{opacity:0.3;}.cls-9{fill:#ea0029;}.cls-10{opacity:0.1;}.cls-11{fill:#ff735d;}.cls-12{opacity:0.2;}.cls-13{fill:#fafafa;}.cls-14{fill:#ffc19d;}.cls-15{fill:#ff9c6a;}.cls-16{fill:#375a64;}.cls-17{opacity:0.6;}</style></defs><g id="Capa_2" data-name="Capa 2"><g id="Capa_1-2" data-name="Capa 1"><path class="cls-1" d="M124.37,32.62A26.48,26.48,0,1,1,94.25,10.44,26.46,26.46,0,0,1,124.37,32.62Z"/><path class="cls-2" d="M118.14,33.56a20.18,20.18,0,1,1-23-16.9A20.15,20.15,0,0,1,118.14,33.56Z"/><path class="cls-3" d="M118,32.93a11.52,11.52,0,0,1-.89-2.32,21.57,21.57,0,0,0-3.22-5.77,20.57,20.57,0,0,0-3.19-3.22,19.68,19.68,0,0,0-4.42-2.7,19.73,19.73,0,0,0-5.5-1.55,18.79,18.79,0,0,0-3-.17,21.74,21.74,0,0,0-3.09.32,22.54,22.54,0,0,0-3,.8,20.93,20.93,0,0,0-2.77,1.22,18.83,18.83,0,0,0-2.47,1.57,17.87,17.87,0,0,0-2.12,1.83A20.19,20.19,0,0,0,81.16,27a21.23,21.23,0,0,0-1.84,4.15,21.7,21.7,0,0,0-1,6.53,12.47,12.47,0,0,1,0,2.49,6,6,0,0,1-.6-2.45,18.76,18.76,0,0,1,.52-6.87A21,21,0,0,1,80,26.4a20.65,20.65,0,0,1,3.29-4.46,18.84,18.84,0,0,1,2.24-2,20.31,20.31,0,0,1,2.64-1.72,21,21,0,0,1,3-1.34A24.63,24.63,0,0,1,94.43,16a23.9,23.9,0,0,1,3.34-.33,19.49,19.49,0,0,1,3.26.2,20.25,20.25,0,0,1,5.88,1.75,20.49,20.49,0,0,1,7.9,6.57,18.73,18.73,0,0,1,2.92,6.24A6,6,0,0,1,118,32.93Z"/><path class="cls-3" d="M102.24,48.12l.57,3.47-3.09.51-.56-3.37A14.88,14.88,0,0,1,91,47.53l1.08-4.06a12.57,12.57,0,0,0,6.37,1.2l-.86-5.17c-3.57-.26-7.6-.77-8.34-5.2-.54-3.28,1.38-6.49,6.18-7.86L94.9,23l3.1-.51.55,3.38a14.19,14.19,0,0,1,6.6.84l-.92,4.07a12.75,12.75,0,0,0-5-.83l.87,5.26c3.57.24,7.54.76,8.26,5.13C108.89,43.56,107,46.73,102.24,48.12ZM96.88,35l-.73-4.39c-1.58.64-2.08,1.65-1.91,2.67S95.44,34.75,96.88,35Zm6.56,6.58c-.18-1.08-1.18-1.52-2.58-1.77l.7,4.28C103.05,43.44,103.6,42.52,103.44,41.53Z"/><path class="cls-1" d="M283.1,176.25a16.25,16.25,0,1,1-18.48-13.61A16.23,16.23,0,0,1,283.1,176.25Z"/><path class="cls-2" d="M279.28,176.82a12.38,12.38,0,1,1-14.09-10.37A12.36,12.36,0,0,1,279.28,176.82Z"/><path class="cls-3" d="M279.22,176.44a7,7,0,0,1-.55-1.43,13,13,0,0,0-2-3.54,12.5,12.5,0,0,0-1.95-2,12.31,12.31,0,0,0-2.72-1.65,10.63,10.63,0,0,0-1.61-.59,12.29,12.29,0,0,0-5.51-.27,14,14,0,0,0-1.85.49,13.68,13.68,0,0,0-1.7.75,11.06,11.06,0,0,0-1.51,1,12.93,12.93,0,0,0-1.3,1.12,12.46,12.46,0,0,0-3.08,5.06,13,13,0,0,0-.6,4,7.66,7.66,0,0,1,0,1.53,3.71,3.71,0,0,1-.37-1.51,11.51,11.51,0,0,1,.32-4.21,12.27,12.27,0,0,1,1.09-2.75,12.53,12.53,0,0,1,3.39-4,13.3,13.3,0,0,1,1.62-1.06,13.76,13.76,0,0,1,1.83-.82,13,13,0,0,1,4-.74,13.18,13.18,0,0,1,2,.13,11.41,11.41,0,0,1,1.88.41,12.45,12.45,0,0,1,4.58,2.51,12.41,12.41,0,0,1,2,2.18,11.72,11.72,0,0,1,1.8,3.83A3.91,3.91,0,0,1,279.22,176.44Z"/><path class="cls-3" d="M269.52,185.76l.35,2.13-1.9.31-.34-2.07a9.13,9.13,0,0,1-5-.73l.66-2.49a7.79,7.79,0,0,0,3.91.73l-.53-3.17c-2.19-.16-4.66-.48-5.11-3.19-.34-2,.84-4,3.79-4.83l-.35-2.11,1.9-.31.34,2.07a8.78,8.78,0,0,1,4.05.52l-.56,2.5a8,8,0,0,0-3.08-.51l.54,3.23c2.19.14,4.62.46,5.07,3.14C273.6,183,272.44,184.91,269.52,185.76Zm-3.29-8.08-.45-2.7c-1,.39-1.27,1-1.17,1.64S265.35,177.55,266.23,177.68Zm4,4c-.11-.67-.72-.94-1.59-1.09l.44,2.62C270,182.89,270.36,182.32,270.26,181.72Z"/><path class="cls-1" d="M53.56,192.11a22,22,0,1,1-25.07-18.47A22,22,0,0,1,53.56,192.11Z"/><path class="cls-2" d="M48.37,192.89a16.8,16.8,0,1,1-19.11-14.07A16.77,16.77,0,0,1,48.37,192.89Z"/><path class="cls-3" d="M48.29,192.37a10,10,0,0,1-.74-1.93,17.69,17.69,0,0,0-2.68-4.81A16.79,16.79,0,0,0,42.21,183a16.51,16.51,0,0,0-3.68-2.25,15,15,0,0,0-2.19-.8,14.35,14.35,0,0,0-2.38-.49,16.11,16.11,0,0,0-2.52-.14,17.38,17.38,0,0,0-2.57.27,17.12,17.12,0,0,0-2.51.66,15.89,15.89,0,0,0-2.3,1,15.3,15.3,0,0,0-2.06,1.3A16.41,16.41,0,0,0,20.23,184a17.11,17.11,0,0,0-2.64,3.41,16.91,16.91,0,0,0-1.53,3.46,17.79,17.79,0,0,0-.81,5.44,9.47,9.47,0,0,1,0,2.06,4.89,4.89,0,0,1-.49-2,15.76,15.76,0,0,1,.43-5.73,17.24,17.24,0,0,1,1.48-3.72,16.88,16.88,0,0,1,2.73-3.72,17.77,17.77,0,0,1,1.87-1.67,16.5,16.5,0,0,1,2.19-1.43A17.33,17.33,0,0,1,25.93,179a18.85,18.85,0,0,1,2.7-.73,20.6,20.6,0,0,1,2.79-.28,17.3,17.3,0,0,1,2.71.17,16.4,16.4,0,0,1,2.56.56,16,16,0,0,1,2.34.9,16.89,16.89,0,0,1,6.57,5.47,15.61,15.61,0,0,1,2.43,5.2A4.85,4.85,0,0,1,48.29,192.37Z"/><path class="cls-3" d="M35.14,205l.47,2.88-2.57.43-.47-2.81a12.39,12.39,0,0,1-6.76-1l.9-3.38a10.54,10.54,0,0,0,5.3,1l-.71-4.3c-3-.22-6.33-.65-6.94-4.33-.45-2.74,1.14-5.41,5.14-6.55L29,184.1l2.57-.43.47,2.81a11.85,11.85,0,0,1,5.49.71l-.76,3.38a10.86,10.86,0,0,0-4.17-.69l.73,4.39c3,.19,6.27.63,6.87,4.26C40.68,201.21,39.1,203.86,35.14,205Zm-4.47-11-.6-3.66c-1.32.53-1.74,1.37-1.6,2.22S29.48,193.88,30.67,194.05Zm5.46,5.48c-.15-.91-1-1.27-2.15-1.47l.59,3.55C35.81,201.12,36.27,200.35,36.13,199.53Z"/><path class="cls-3" d="M313.41,137.88,178.8,96a6.56,6.56,0,0,1-4.31-8.22L200.37,4.61A6.56,6.56,0,0,1,208.59.3L343.2,42.2a6.57,6.57,0,0,1,4.31,8.21l-25.89,83.15A6.56,6.56,0,0,1,313.41,137.88Z"/><path class="cls-4" d="M196.3,63.62l-2.54,8.17-.84-.26,2.31-7.42-1.93-.6.24-.75Z"/><path class="cls-4" d="M202.39,73.66l-.23.74-5.73-1.78.18-.59,4.44-2.27c1.2-.63,1.55-1.12,1.72-1.68.29-1-.19-1.74-1.44-2.12a2.9,2.9,0,0,0-2.51.21l-.43-.7a3.82,3.82,0,0,1,3.25-.26c1.66.51,2.45,1.68,2,3.05-.24.78-.7,1.4-2.13,2.13l-3.63,1.87Z"/><path class="cls-4" d="M211.43,74.93l-1.64-.51-.67,2.15-.84-.26.67-2.15-4.61-1.43.19-.61,6-4.06.93.29-5.82,4,3.55,1.1.59-1.89.81.26L210,73.68l1.64.51Z"/><path class="cls-4" d="M223.94,78.83l-1.63-.51-.67,2.15-.84-.26.67-2.15-4.61-1.43.19-.61,6-4.07.94.29-5.82,4,3.54,1.1.59-1.89.82.25-.59,1.89,1.63.51Z"/><path class="cls-4" d="M231.16,80.8c-.43,1.38-1.74,2.17-3.73,1.55a4.42,4.42,0,0,1-2.6-2l.61-.53a3.72,3.72,0,0,0,2.21,1.72c1.39.43,2.34,0,2.65-1s-.13-1.9-2.2-2.55l-1.74-.54,1.69-4,4.47,1.39-.23.74-3.73-1.16L227.47,77l1.05.32C231,78.09,231.61,79.35,231.16,80.8Z"/><path class="cls-4" d="M239.24,83.27a2.66,2.66,0,0,1-3.57,1.64c-2.16-.67-2.88-2.54-2.07-5.12.86-2.78,2.83-3.75,5.05-3.06a3.85,3.85,0,0,1,1.79,1l-.54.57a3,3,0,0,0-1.47-.88c-1.76-.54-3.25.24-3.94,2.45a6.73,6.73,0,0,0-.17.68,2.72,2.72,0,0,1,2.93-.62A2.57,2.57,0,0,1,239.24,83.27Zm-.83-.23a1.88,1.88,0,0,0-1.51-2.4,1.88,1.88,0,1,0-1,3.55A1.87,1.87,0,0,0,238.41,83Z"/><path class="cls-4" d="M250.39,86.84c-.42,1.37-1.74,2.11-3.71,1.5a4.47,4.47,0,0,1-2.62-2l.62-.54a3.69,3.69,0,0,0,2.24,1.74c1.35.42,2.29,0,2.61-1s-.19-1.84-1.7-2.31l-.59-.18.2-.62,3.14-2.13L246.41,80l.23-.75,5.25,1.63-.19.6-3.21,2.19C250.21,84.34,250.8,85.54,250.39,86.84Z"/><path class="cls-4" d="M258.61,89.3A2.66,2.66,0,0,1,255,90.94c-2.17-.67-2.88-2.55-2.08-5.13.87-2.77,2.83-3.75,5-3.06a3.9,3.9,0,0,1,1.8,1l-.55.57a3,3,0,0,0-1.47-.88c-1.76-.55-3.24.23-3.93,2.45a6.11,6.11,0,0,0-.17.68,2.72,2.72,0,0,1,2.93-.63A2.6,2.6,0,0,1,258.61,89.3Zm-.84-.23a1.87,1.87,0,0,0-1.5-2.4,2,2,0,0,0-2.66,1.13c-.28.89.2,2,1.62,2.42A1.86,1.86,0,0,0,257.77,89.07Z"/><path class="cls-4" d="M267.91,85.91l-.19.6L261.94,93l-.91-.28,5.67-6.37-4.2-1.31L262,86.58l-.83-.26.71-2.28Z"/><path class="cls-4" d="M279.58,89.54l-.18.6-5.78,6.51-.91-.29L278.38,90l-4.2-1.31-.47,1.53-.83-.26.71-2.27Z"/><path class="cls-4" d="M285.79,97.94c-.45,1.45-2,2-3.91,1.36S279,97.42,279.46,96a2.15,2.15,0,0,1,2.2-1.52,1.92,1.92,0,0,1-.72-2.19c.41-1.33,1.8-1.81,3.53-1.27s2.62,1.72,2.21,3.05a1.93,1.93,0,0,1-1.87,1.39A2.17,2.17,0,0,1,285.79,97.94Zm-.86-.28c.31-1-.36-1.9-1.81-2.35s-2.49-.09-2.8.91.34,1.91,1.78,2.36S284.61,98.67,284.93,97.66Zm-1.6-3c1.27.4,2.21.06,2.49-.83s-.35-1.73-1.57-2.11-2.2-.07-2.48.84S282.06,94.25,283.33,94.64Z"/><path class="cls-4" d="M294.3,98.53c-.86,2.78-2.83,3.75-5,3.06a3.92,3.92,0,0,1-1.8-1L288,100a3.09,3.09,0,0,0,1.47.88c1.76.55,3.25-.23,3.94-2.45a5.89,5.89,0,0,0,.17-.67,2.74,2.74,0,0,1-2.93.62,2.59,2.59,0,0,1-2-3.31,2.66,2.66,0,0,1,3.56-1.64C294.4,94.08,295.11,96,294.3,98.53Zm-.65-2A2,2,0,0,0,292,94.13a1.87,1.87,0,1,0-1,3.55A2,2,0,0,0,293.65,96.55Z"/><path class="cls-4" d="M303.83,97.09l-2.54,8.17-.84-.26,2.31-7.42-1.92-.6.23-.75Z"/><path class="cls-4" d="M309.92,107.13l-.23.75L304,106.09l.19-.59,4.43-2.27c1.2-.62,1.55-1.12,1.72-1.68.3-.94-.19-1.73-1.43-2.12a2.92,2.92,0,0,0-2.52.21l-.43-.69a3.85,3.85,0,0,1,3.26-.27c1.65.52,2.44,1.68,2,3-.25.78-.71,1.4-2.14,2.14l-3.63,1.86Z"/><path class="cls-4" d="M317.75,107.81c-.43,1.37-1.74,2.11-3.72,1.49a4.39,4.39,0,0,1-2.61-2l.61-.54a3.78,3.78,0,0,0,2.24,1.73c1.36.43,2.3,0,2.61-1s-.18-1.83-1.7-2.31l-.58-.18.19-.62,3.15-2.13-4.18-1.3.24-.74,5.25,1.63-.19.6-3.21,2.18C317.57,105.31,318.15,106.5,317.75,107.81Z"/><rect class="cls-4" x="282.71" y="74.37" width="3.71" height="68.52" transform="translate(96.28 348.06) rotate(-72.71)"/><rect class="cls-4" x="296.44" y="103.1" width="3.72" height="35.14" transform="translate(94.44 369.64) rotate(-72.71)"/><g class="cls-5"><rect class="cls-2" x="196.05" y="38.31" width="28.75" height="21.48" rx="4.96" transform="translate(24.09 -60.33) rotate(17.29)"/></g><path class="cls-3" d="M195.28,49.35l.41-1.31,14.13,4.4a3.1,3.1,0,1,0,1.84-5.92l-14.13-4.4.41-1.32,14.13,4.4a4.48,4.48,0,1,1-2.66,8.55Z"/><rect class="cls-3" x="218.52" y="47.03" width="1.38" height="10.16" transform="translate(104.12 245.82) rotate(-72.66)"/><rect class="cls-4" x="205.77" y="29.5" width="73.94" height="6.35" transform="translate(20.69 -70.68) rotate(17.29)"/><rect class="cls-4" x="314.07" y="49.76" width="14.88" height="14.88" rx="3.15" transform="translate(31.54 -92.99) rotate(17.29)"/><path class="cls-6" d="M350.41,342.48c0,.11-78.45.2-175.2.2S0,342.59,0,342.48s78.43-.21,175.21-.21S350.41,342.36,350.41,342.48Z"/><rect class="cls-7" x="10.24" y="235.96" width="121.5" height="106.49" rx="8.76"/><g class="cls-8"><path d="M10.24,305.79H54.5a3.08,3.08,0,0,0,3.08-3.08H10.36Z"/></g><rect class="cls-7" x="6.99" y="275.46" width="52.41" height="27.64" rx="3.85"/><path class="cls-6" d="M55.55,303.1a4.85,4.85,0,0,0,1.5-.35,3.92,3.92,0,0,0,1.45-1.14,3.76,3.76,0,0,0,.82-2.35c0-3.9,0-9.51-.06-16.44,0-.87,0-1.76,0-2.67a12,12,0,0,0,0-1.35,4,4,0,0,0-.43-1.28,3.75,3.75,0,0,0-2.1-1.72,4.17,4.17,0,0,0-1.42-.18H40.71l-29.87,0a3.66,3.66,0,0,0-3.12,1.76,3.62,3.62,0,0,0-.53,1.75c0,.64,0,1.29,0,1.94q0,3.87,0,7.62v7.35c0,1.19,0,2.41,0,3.55a3.64,3.64,0,0,0,3.21,3.25c.53.06,1.12,0,1.67,0h9.63l11.36,0,16.45.07,4.47,0,1.16,0,.4,0-.4,0-1.16,0-4.47,0-16.45.07-11.36,0H12.08c-.57,0-1.11,0-1.71,0a4,4,0,0,1-3.55-3.58c-.05-1.22,0-2.38,0-3.59v-15c0-.65,0-1.29,0-1.95a3.94,3.94,0,0,1,.59-2,4,4,0,0,1,3.46-1.95H40.71l13,0h1.52a4.6,4.6,0,0,1,1.52.19,4,4,0,0,1,2.27,1.88,4.09,4.09,0,0,1,.46,1.38,13.39,13.39,0,0,1,0,1.4c0,.91,0,1.8,0,2.67,0,6.93,0,12.54-.06,16.44a4,4,0,0,1-.88,2.43,4.1,4.1,0,0,1-1.52,1.13,4.37,4.37,0,0,1-1.14.28Z"/><g class="cls-8"><circle cx="46.48" cy="292.27" r="7.76"/></g><circle class="cls-2" cx="46.48" cy="289.57" r="7.76" transform="translate(-191.14 117.68) rotate(-45)"/><path class="cls-6" d="M54.24,289.57a16.52,16.52,0,0,0-.32-1.88,7.71,7.71,0,0,0-2.83-4.17,7.56,7.56,0,0,0-7.19-1.06,7.09,7.09,0,0,0-1.91,1,7.19,7.19,0,0,0-1.6,1.61,7.53,7.53,0,0,0,0,8.94,7,7,0,0,0,1.6,1.61,7.09,7.09,0,0,0,1.91,1,7.67,7.67,0,0,0,10-5.23,16.52,16.52,0,0,0,.32-1.88,5.88,5.88,0,0,1-.17,1.91,7.68,7.68,0,0,1-2.81,4.37A7.82,7.82,0,0,1,43.77,297a7.91,7.91,0,0,1-3.7-2.76,7.9,7.9,0,0,1,0-9.4,7.91,7.91,0,0,1,3.7-2.76,7.82,7.82,0,0,1,7.49,1.18,7.68,7.68,0,0,1,2.81,4.37A5.88,5.88,0,0,1,54.24,289.57Z"/><circle class="cls-9" cx="294.17" cy="250.43" r="26.95" transform="translate(-38.85 54.6) rotate(-9.95)"/><g class="cls-10"><path class="cls-4" d="M284.5,225.28A26.94,26.94,0,0,0,269,260.1s18-6,19.5-14.76S284.5,225.28,284.5,225.28Z"/></g><circle class="cls-11" cx="293.62" cy="250.19" r="20.49" transform="translate(-69.9 121.13) rotate(-20.89)"/><g class="cls-12"><circle cx="293.62" cy="250.19" r="20.49" transform="translate(-69.9 121.13) rotate(-20.89)"/></g><path class="cls-11" d="M313.59,243.42a20.22,20.22,0,1,1-26.12-11.61A20.22,20.22,0,0,1,313.59,243.42Z"/><g class="cls-12"><path class="cls-4" d="M313.59,243.42a20.22,20.22,0,1,1-26.12-11.61A20.22,20.22,0,0,1,313.59,243.42Z"/></g><path class="cls-11" d="M294.84,248.75,293,243.93h0a10.34,10.34,0,0,1,2.82-.32,8.55,8.55,0,0,1,1.5.29v-.17l.08-2,0-.47-1.21-.57-.34.34a9.74,9.74,0,0,0-3.89.34l-1-2.66-1.08-.34.26.66-1.14.44,1,2.7c-3.59,1.79-4.54,4.6-3.61,7,1.28,3.33,4.46,3.09,7.36,2.72l1.84,4.78a9.81,9.81,0,0,1-5.48,0l-.15,2.83a11.18,11.18,0,0,0,6.62-.27l.77,2-.92.37,1.17.28,2-.76-1-2.68c3.6-1.82,4.59-4.62,3.65-7.05C301,248.1,297.75,248.38,294.84,248.75Zm-2.15.25c-1.54.13-2.78,0-3.22-1.15s0-2.19,1.58-3.1Zm.3-5.08Zm4.59,12L296,251.65c1.59-.15,2.85,0,3.3,1.17S299.23,254.94,297.58,255.88Z"/><g class="cls-8"><path d="M294.84,248.75,293,243.93h0a10.34,10.34,0,0,1,2.82-.32,8.55,8.55,0,0,1,1.5.29v-.17l.08-2,0-.47-1.21-.57-.34.34a9.74,9.74,0,0,0-3.89.34l-1-2.66-1.08-.34.26.66-1.14.44,1,2.7c-3.59,1.79-4.54,4.6-3.61,7,1.28,3.33,4.46,3.09,7.36,2.72l1.84,4.78a9.81,9.81,0,0,1-5.48,0l-.15,2.83a11.18,11.18,0,0,0,6.62-.27l.77,2-.92.37,1.17.28,2-.76-1-2.68c3.6-1.82,4.59-4.62,3.65-7.05C301,248.1,297.75,248.38,294.84,248.75Zm-2.15.25c-1.54.13-2.78,0-3.22-1.15s0-2.19,1.58-3.1Zm.3-5.08Zm4.59,12L296,251.65c1.59-.15,2.85,0,3.3,1.17S299.23,254.94,297.58,255.88Z"/></g><path class="cls-11" d="M297.52,258.14l1,2.68-2,.75-1-2.65a11.18,11.18,0,0,1-6.62.27l.14-2.83a9.94,9.94,0,0,0,5.49,0l-1.84-4.79c-2.91.38-6.08.61-7.36-2.71-.94-2.44,0-5.25,3.61-7.05l-1-2.7,2-.75,1,2.65a11.06,11.06,0,0,1,5.42-.41l-.06,2.8a10.39,10.39,0,0,0-4.37.2l1.86,4.83c2.9-.38,6.12-.65,7.4,2.67C302.12,253.52,301.13,256.31,297.52,258.14Zm-5.89-9.48L290,244.4c-1.6.92-2,2-1.58,3.11S290.08,248.79,291.63,248.66Zm6.57,3.81c-.45-1.17-1.72-1.31-3.31-1.17l1.63,4.23C298.17,254.6,298.59,253.5,298.2,252.47Z"/><path class="cls-4" d="M277.28,270.47l-.19-.15-.52-.46a10.5,10.5,0,0,1-.8-.76c-.3-.31-.66-.64-1-1.06l-.56-.64c-.19-.23-.37-.48-.57-.72-.4-.5-.78-1.07-1.18-1.66a28.1,28.1,0,0,1-2.21-4.1,30.18,30.18,0,0,1-1.47-4.43c-.15-.7-.3-1.36-.38-2-.05-.31-.11-.62-.14-.91s-.05-.58-.08-.85c-.06-.53-.06-1-.08-1.46a10,10,0,0,1,0-1.1l0-.7a1.22,1.22,0,0,1,0-.24,1.27,1.27,0,0,1,0,.25c0,.18,0,.41,0,.69s0,.67,0,1.1,0,.92.11,1.45c0,.27.06.55.1.84s.09.59.14.91c.09.62.25,1.28.4,2a27.64,27.64,0,0,0,3.65,8.47c.4.59.77,1.16,1.16,1.65.2.25.37.51.56.73l.55.65c.34.42.69.76,1,1.07s.55.58.77.78l.5.49C277.23,270.4,277.29,270.46,277.28,270.47Z"/><path class="cls-4" d="M287.78,250.21a1.71,1.71,0,0,1-.76-.34,3.19,3.19,0,0,1-1.24-1.6,3.25,3.25,0,0,1,0-2,1.52,1.52,0,0,1,.4-.73s-.14.29-.27.77a3.31,3.31,0,0,0,1.2,3.48C287.5,250.06,287.8,250.18,287.78,250.21Z"/><path class="cls-4" d="M289.24,241.24c-.05,0-.23-.31-.4-.75a2,2,0,0,1-.21-.82c.06,0,.23.32.4.75A1.85,1.85,0,0,1,289.24,241.24Z"/><path class="cls-4" d="M287.8,229.91a4,4,0,0,1-.62.21c-.2.06-.45.13-.73.24s-.61.2-1,.35-.73.3-1.13.49-.82.41-1.26.64a25,25,0,0,0-2.72,1.77,23.69,23.69,0,0,0-2.41,2.17c-.34.37-.66.71-.94,1.06a11.83,11.83,0,0,0-.76,1,10.18,10.18,0,0,0-.59.83,7.58,7.58,0,0,0-.42.64,4.67,4.67,0,0,1-.37.55s.1-.21.3-.59c.1-.18.23-.41.39-.66s.34-.55.57-.86.46-.65.75-1,.6-.7.94-1.08a22,22,0,0,1,2.42-2.2,21.13,21.13,0,0,1,2.75-1.77c.45-.23.87-.46,1.28-.63s.8-.34,1.15-.47.69-.23,1-.33l.75-.21A3,3,0,0,1,287.8,229.91Z"/><path class="cls-4" d="M306.4,273.11a2.31,2.31,0,0,1-.4.29c-.26.18-.66.42-1.16.7a19.83,19.83,0,0,1-4.16,1.65,19.3,19.3,0,0,1-4.42.67c-.57,0-1,0-1.36,0a1.61,1.61,0,0,1-.49-.06,2.76,2.76,0,0,1,.49,0c.32,0,.78,0,1.35-.05a21.81,21.81,0,0,0,8.52-2.31c.51-.26.92-.48,1.19-.64A2.27,2.27,0,0,1,306.4,273.11Z"/><rect class="cls-11" x="267.97" y="275.63" width="57.05" height="11.5" transform="translate(592.99 562.77) rotate(180)"/><path class="cls-6" d="M321.35,275.83a62.29,62.29,0,0,0,0,11.15,62.29,62.29,0,0,0,0-11.15Z"/><path class="cls-6" d="M316.06,275.83a62.29,62.29,0,0,0,0,11.15,62.29,62.29,0,0,0,0-11.15Z"/><path class="cls-6" d="M310.83,275.83a64.87,64.87,0,0,0,0,11.15,62.29,62.29,0,0,0,0-11.15Z"/><path class="cls-6" d="M305.63,275.83a64.87,64.87,0,0,0,0,11.15,62.29,62.29,0,0,0,0-11.15Z"/><path class="cls-6" d="M300.43,275.83a64.87,64.87,0,0,0,0,11.15,62.29,62.29,0,0,0,0-11.15Z"/><path class="cls-6" d="M295.23,275.83a64.87,64.87,0,0,0,0,11.15,62.29,62.29,0,0,0,0-11.15Z"/><path class="cls-6" d="M290,275.83A64.87,64.87,0,0,0,290,287a62.29,62.29,0,0,0,0-11.15Z"/><path class="cls-6" d="M284.83,275.83a64.87,64.87,0,0,0,0,11.15,62.29,62.29,0,0,0,0-11.15Z"/><path class="cls-6" d="M279.63,275.83a64.87,64.87,0,0,0,0,11.15,62.29,62.29,0,0,0,0-11.15Z"/><path class="cls-6" d="M274.43,275.83a64.87,64.87,0,0,0,0,11.15,62.29,62.29,0,0,0,0-11.15Z"/><path class="cls-6" d="M269.23,275.83a64.87,64.87,0,0,0,0,11.15,62.29,62.29,0,0,0,0-11.15Z"/><g class="cls-8"><path d="M324.1,275.65a207.93,207.93,0,0,1-55.22,0Z"/></g><path class="cls-6" d="M268,275.67c0,.14,12.75.25,28.48.25s28.47-.11,28.47-.25-12.74-.25-28.47-.25S268,275.53,268,275.67Z"/><rect class="cls-11" x="266.68" y="286.95" width="57.05" height="11.5" transform="translate(590.42 585.4) rotate(180)"/><path class="cls-6" d="M320.07,287.14a62.29,62.29,0,0,0,0,11.15,62.29,62.29,0,0,0,0-11.15Z"/><path class="cls-6" d="M314.78,287.14a62.29,62.29,0,0,0,0,11.15,62.29,62.29,0,0,0,0-11.15Z"/><path class="cls-6" d="M309.55,287.14a62.29,62.29,0,0,0,0,11.15,62.29,62.29,0,0,0,0-11.15Z"/><path class="cls-6" d="M304.35,287.14a62.29,62.29,0,0,0,0,11.15,62.29,62.29,0,0,0,0-11.15Z"/><path class="cls-6" d="M299.15,287.14a62.29,62.29,0,0,0,0,11.15,62.29,62.29,0,0,0,0-11.15Z"/><path class="cls-6" d="M294,287.14a62.29,62.29,0,0,0,0,11.15,62.29,62.29,0,0,0,0-11.15Z"/><path class="cls-6" d="M288.75,287.14a62.29,62.29,0,0,0,0,11.15,62.29,62.29,0,0,0,0-11.15Z"/><path class="cls-6" d="M283.55,287.14a62.29,62.29,0,0,0,0,11.15,62.29,62.29,0,0,0,0-11.15Z"/><path class="cls-6" d="M278.35,287.14a62.29,62.29,0,0,0,0,11.15,62.29,62.29,0,0,0,0-11.15Z"/><path class="cls-6" d="M273.15,287.14a62.29,62.29,0,0,0,0,11.15,62.29,62.29,0,0,0,0-11.15Z"/><path class="cls-6" d="M268,287.14a62.29,62.29,0,0,0,0,11.15,62.29,62.29,0,0,0,0-11.15Z"/><g class="cls-8"><path d="M322.82,287a207.93,207.93,0,0,1-55.22,0Z"/></g><path class="cls-6" d="M266.67,287c0,.14,12.75.25,28.48.25s28.47-.11,28.47-.25-12.74-.24-28.47-.24S266.67,286.85,266.67,287Z"/><rect class="cls-11" x="272.1" y="298.08" width="57.05" height="11.5" transform="translate(601.26 607.67) rotate(180)"/><path class="cls-6" d="M325.49,298.27a62.4,62.4,0,0,0,0,11.16,62.4,62.4,0,0,0,0-11.16Z"/><path class="cls-6" d="M320.2,298.27a62.4,62.4,0,0,0,0,11.16,62.4,62.4,0,0,0,0-11.16Z"/><path class="cls-6" d="M315,298.27a62.4,62.4,0,0,0,0,11.16,62.4,62.4,0,0,0,0-11.16Z"/><path class="cls-6" d="M309.77,298.27a62.4,62.4,0,0,0,0,11.16,62.4,62.4,0,0,0,0-11.16Z"/><path class="cls-6" d="M304.57,298.27a62.4,62.4,0,0,0,0,11.16,62.4,62.4,0,0,0,0-11.16Z"/><path class="cls-6" d="M299.37,298.27a62.4,62.4,0,0,0,0,11.16,62.4,62.4,0,0,0,0-11.16Z"/><path class="cls-6" d="M294.17,298.27a62.4,62.4,0,0,0,0,11.16,62.4,62.4,0,0,0,0-11.16Z"/><path class="cls-6" d="M289,298.27a62.4,62.4,0,0,0,0,11.16,62.4,62.4,0,0,0,0-11.16Z"/><path class="cls-6" d="M283.77,298.27a62.4,62.4,0,0,0,0,11.16,62.4,62.4,0,0,0,0-11.16Z"/><path class="cls-6" d="M278.57,298.27a62.4,62.4,0,0,0,0,11.16,62.4,62.4,0,0,0,0-11.16Z"/><path class="cls-6" d="M273.37,298.27a62.4,62.4,0,0,0,0,11.16,62.4,62.4,0,0,0,0-11.16Z"/><g class="cls-8"><path d="M328.24,298.09a207.59,207.59,0,0,1-55.23,0Z"/></g><path class="cls-6" d="M272.09,298.12c0,.13,12.75.24,28.47.24s28.48-.11,28.48-.24-12.75-.25-28.48-.25S272.09,298,272.09,298.12Z"/><rect class="cls-11" x="265.42" y="309.5" width="57.05" height="11.06" transform="translate(587.89 630.06) rotate(180)"/><path class="cls-6" d="M318.8,309.68a60.09,60.09,0,0,0,0,10.73,57.69,57.69,0,0,0,0-10.73Z"/><path class="cls-6" d="M313.51,309.68a60.09,60.09,0,0,0,0,10.73,57.69,57.69,0,0,0,0-10.73Z"/><path class="cls-6" d="M308.29,309.68a57.69,57.69,0,0,0,0,10.73,60.09,60.09,0,0,0,0-10.73Z"/><path class="cls-6" d="M303.09,309.68a57.69,57.69,0,0,0,0,10.73,60.09,60.09,0,0,0,0-10.73Z"/><path class="cls-6" d="M297.89,309.68a57.69,57.69,0,0,0,0,10.73,60.09,60.09,0,0,0,0-10.73Z"/><path class="cls-6" d="M292.69,309.68a57.69,57.69,0,0,0,0,10.73,60.09,60.09,0,0,0,0-10.73Z"/><path class="cls-6" d="M287.49,309.68a57.69,57.69,0,0,0,0,10.73,60.09,60.09,0,0,0,0-10.73Z"/><path class="cls-6" d="M282.29,309.68a57.69,57.69,0,0,0,0,10.73,60.09,60.09,0,0,0,0-10.73Z"/><path class="cls-6" d="M277.08,309.68a60.09,60.09,0,0,0,0,10.73,57.69,57.69,0,0,0,0-10.73Z"/><path class="cls-6" d="M271.88,309.68a60.09,60.09,0,0,0,0,10.73,57.69,57.69,0,0,0,0-10.73Z"/><path class="cls-6" d="M266.68,309.68a60.09,60.09,0,0,0,0,10.73,57.69,57.69,0,0,0,0-10.73Z"/><g class="cls-8"><path d="M321.55,309.51a163.28,163.28,0,0,1-55.22,0Z"/></g><path class="cls-6" d="M265.4,309.53c0,.14,12.75.25,28.48.25s28.48-.11,28.48-.25-12.75-.24-28.48-.24S265.4,309.4,265.4,309.53Z"/><rect class="cls-11" x="269.09" y="320.57" width="57.05" height="11.06" transform="translate(595.23 652.21) rotate(180)"/><path class="cls-6" d="M322.47,320.76a57.58,57.58,0,0,0,0,10.72,57.58,57.58,0,0,0,0-10.72Z"/><path class="cls-6" d="M317.18,320.76a57.58,57.58,0,0,0,0,10.72,57.58,57.58,0,0,0,0-10.72Z"/><path class="cls-6" d="M312,320.76a60,60,0,0,0,0,10.72,57.58,57.58,0,0,0,0-10.72Z"/><path class="cls-6" d="M306.75,320.76a60,60,0,0,0,0,10.72,57.58,57.58,0,0,0,0-10.72Z"/><path class="cls-6" d="M301.55,320.76a60,60,0,0,0,0,10.72,57.58,57.58,0,0,0,0-10.72Z"/><path class="cls-6" d="M296.35,320.76a60,60,0,0,0,0,10.72,57.58,57.58,0,0,0,0-10.72Z"/><path class="cls-6" d="M291.15,320.76a60,60,0,0,0,0,10.72,57.58,57.58,0,0,0,0-10.72Z"/><path class="cls-6" d="M286,320.76a60,60,0,0,0,0,10.72,57.58,57.58,0,0,0,0-10.72Z"/><path class="cls-6" d="M280.75,320.76a60,60,0,0,0,0,10.72,57.58,57.58,0,0,0,0-10.72Z"/><path class="cls-6" d="M275.55,320.76a60,60,0,0,0,0,10.72,57.58,57.58,0,0,0,0-10.72Z"/><path class="cls-6" d="M270.35,320.76a60,60,0,0,0,0,10.72,57.58,57.58,0,0,0,0-10.72Z"/><g class="cls-8"><path d="M325.22,320.58a144.49,144.49,0,0,1-55.22,0Z"/></g><path class="cls-6" d="M269.07,320.61c0,.13,12.75.24,28.48.24s28.47-.11,28.47-.24-12.74-.25-28.47-.25S269.07,320.47,269.07,320.61Z"/><rect class="cls-11" x="265.83" y="331.48" width="57.05" height="11.06" transform="translate(588.71 674.03) rotate(180)"/><path class="cls-6" d="M319.21,331.67a60.09,60.09,0,0,0,0,10.73,57.69,57.69,0,0,0,0-10.73Z"/><path class="cls-6" d="M313.92,331.67a60.09,60.09,0,0,0,0,10.73,57.69,57.69,0,0,0,0-10.73Z"/><path class="cls-6" d="M308.69,331.67a60.09,60.09,0,0,0,0,10.73,57.69,57.69,0,0,0,0-10.73Z"/><path class="cls-6" d="M303.49,331.67a60.09,60.09,0,0,0,0,10.73,57.69,57.69,0,0,0,0-10.73Z"/><path class="cls-6" d="M298.29,331.67a60.09,60.09,0,0,0,0,10.73,57.69,57.69,0,0,0,0-10.73Z"/><path class="cls-6" d="M293.09,331.67a60.09,60.09,0,0,0,0,10.73,57.69,57.69,0,0,0,0-10.73Z"/><path class="cls-6" d="M287.89,331.67a60.09,60.09,0,0,0,0,10.73,57.69,57.69,0,0,0,0-10.73Z"/><path class="cls-6" d="M282.69,331.67a60.09,60.09,0,0,0,0,10.73,57.69,57.69,0,0,0,0-10.73Z"/><path class="cls-6" d="M277.49,331.67a60.09,60.09,0,0,0,0,10.73,57.69,57.69,0,0,0,0-10.73Z"/><path class="cls-6" d="M272.29,331.67a60.09,60.09,0,0,0,0,10.73,57.69,57.69,0,0,0,0-10.73Z"/><path class="cls-6" d="M267.09,331.67a60.09,60.09,0,0,0,0,10.73,57.69,57.69,0,0,0,0-10.73Z"/><g class="cls-8"><path d="M322,331.5a163.28,163.28,0,0,1-55.22,0Z"/></g><path class="cls-6" d="M265.81,331.52c0,.14,12.75.25,28.48.25s28.48-.11,28.48-.25-12.75-.25-28.48-.25S265.81,331.38,265.81,331.52Z"/><path class="cls-6" d="M322.88,342.55s0-.06,0-.19,0-.33,0-.56c0-.51,0-1.23,0-2.15,0-1.9,0-4.62-.05-8v-.13H326l-.13.14c0-3.24,0-7,0-11.08l.16.17h-3.84v-.18c0-3.42,0-7.12,0-11v-.18H329l-.19.18c0-4.09,0-8,0-11.71l.18.17h-5.58v-.16c0-4,0-7.62,0-10.73V287H325l-.13.13c0-3.56,0-6.43,0-8.42,0-1,0-1.72,0-2.27,0-.24,0-.43,0-.58a1.57,1.57,0,0,1,0-.2s0,.07,0,.2,0,.34,0,.58c0,.54,0,1.3.05,2.27,0,2,.09,4.85.15,8.42v.12h-1.53l.14-.13c0,3.11,0,6.72,0,10.73l-.17-.17h5.6v.18c0,3.69,0,7.62,0,11.71v.19h-6.87l.18-.19c0,3.86,0,7.56,0,11l-.17-.17h3.83v.16c0,4.1,0,7.84,0,11.08v.13h-3.28l.12-.12c0,3.39,0,6.11-.05,8,0,.92,0,1.64,0,2.15,0,.23,0,.42,0,.56S322.89,342.55,322.88,342.55Z"/><path class="cls-9" d="M343.78,180a23.47,23.47,0,1,1-24.28-22.63A23.48,23.48,0,0,1,343.78,180Z"/><g class="cls-10"><path class="cls-4" d="M319.5,157.37a23.47,23.47,0,0,0-22.64,24.27s16.51.17,20.24-6.61S319.5,157.37,319.5,157.37Z"/></g><path class="cls-11" d="M337.77,179.84a17.85,17.85,0,1,1-18.46-17.21A17.85,17.85,0,0,1,337.77,179.84Z"/><g class="cls-12"><path d="M337.77,179.84a17.85,17.85,0,1,1-18.46-17.21A17.85,17.85,0,0,1,337.77,179.84Z"/></g><path class="cls-11" d="M338.3,180.57a17.61,17.61,0,1,1-18.21-17A17.61,17.61,0,0,1,338.3,180.57Z"/><g class="cls-12"><path class="cls-4" d="M338.3,180.57a17.61,17.61,0,1,1-18.21-17A17.61,17.61,0,0,1,338.3,180.57Z"/></g><path class="cls-11" d="M321.35,179.63l-.16-4.5h0a9,9,0,0,1,2.42.54,7,7,0,0,1,1.14.67l.06-.14.64-1.65.14-.38-.83-.81-.38.19a8.33,8.33,0,0,0-3.29-.83l-.09-2.48-.79-.59,0,.62-1.06,0,.09,2.52c-3.47.45-5,2.5-5,4.77.11,3.1,2.79,3.81,5.29,4.33l.16,4.46a8.62,8.62,0,0,1-4.52-1.54l-.93,2.29a9.83,9.83,0,0,0,5.53,1.66l.07,1.87-.87,0,.89.56,1.83-.06-.09-2.5c3.49-.48,5.09-2.5,5-4.78C326.57,180.83,323.85,180.15,321.35,179.63Zm-1.84-.4c-1.31-.34-2.29-.79-2.33-1.86s.61-1.81,2.19-2.11Zm1.68-4.1Zm.39,11.15-.14-3.95c1.36.33,2.35.81,2.39,1.91C323.87,185.19,323.2,186,321.58,186.28Z"/><g class="cls-8"><path d="M321.35,179.63l-.16-4.5h0a9,9,0,0,1,2.42.54,7,7,0,0,1,1.14.67l.06-.14.64-1.65.14-.38-.83-.81-.38.19a8.33,8.33,0,0,0-3.29-.83l-.09-2.48-.79-.59,0,.62-1.06,0,.09,2.52c-3.47.45-5,2.5-5,4.77.11,3.1,2.79,3.81,5.29,4.33l.16,4.46a8.62,8.62,0,0,1-4.52-1.54l-.93,2.29a9.83,9.83,0,0,0,5.53,1.66l.07,1.87-.87,0,.89.56,1.83-.06-.09-2.5c3.49-.48,5.09-2.5,5-4.78C326.57,180.83,323.85,180.15,321.35,179.63Zm-1.84-.4c-1.31-.34-2.29-.79-2.33-1.86s.61-1.81,2.19-2.11Zm1.68-4.1Zm.39,11.15-.14-3.95c1.36.33,2.35.81,2.39,1.91C323.87,185.19,323.2,186,321.58,186.28Z"/></g><path class="cls-11" d="M320.89,188.12l.09,2.5-1.83.07-.09-2.48a9.83,9.83,0,0,1-5.53-1.66l.93-2.29A8.45,8.45,0,0,0,319,185.8l-.16-4.46c-2.5-.51-5.18-1.22-5.29-4.32-.08-2.28,1.51-4.32,5-4.78l-.08-2.52,1.82-.06.09,2.47a9.7,9.7,0,0,1,4.58,1.2l-.84,2.29a9.22,9.22,0,0,0-3.66-1.08l.16,4.51c2.5.51,5.23,1.2,5.33,4.3C326,185.62,324.38,187.65,320.89,188.12Zm-2.16-9.48-.14-4c-1.58.3-2.22,1.13-2.18,2.11S317.42,178.31,318.73,178.64Zm4.33,5c0-1.09-1-1.57-2.39-1.9l.14,3.94C322.42,185.39,323.09,184.61,323.06,183.65Z"/><path class="cls-6" d="M321,199l.14,0,.43-.05.69-.06a7.62,7.62,0,0,0,.93-.13l1.16-.22c.21,0,.43-.11.65-.17l.7-.21a7.07,7.07,0,0,0,.74-.24l.77-.32c.26-.11.54-.2.81-.34l.82-.43a18.6,18.6,0,0,0,3.39-2.36l.82-.79c.13-.14.27-.27.41-.41l.38-.45c.25-.31.53-.6.77-.93l.71-1,.18-.26.16-.28c.1-.18.2-.37.31-.55l.31-.57a4,4,0,0,0,.28-.59c.17-.4.36-.8.52-1.22s.28-.85.43-1.28a17.57,17.57,0,0,0-.39-11.07l-.51-1.25c-.19-.41-.41-.79-.61-1.18a6.38,6.38,0,0,0-.32-.57l-.35-.54-.35-.53-.18-.27-.2-.24-.77-1c-.27-.31-.56-.58-.84-.87l-.41-.42-.44-.38-.87-.73a18.6,18.6,0,0,0-3.54-2.12l-.85-.37c-.28-.12-.56-.19-.83-.29l-.79-.26c-.26-.09-.52-.12-.76-.18l-.71-.16a4.27,4.27,0,0,0-.66-.13L322,163.4a6.49,6.49,0,0,0-.94-.06l-.69,0-.42,0c-.1,0-.15,0-.15,0H321a6.32,6.32,0,0,1,.94,0l1.18.13a4.11,4.11,0,0,1,.67.12l.71.15a7.74,7.74,0,0,1,.77.18l.79.26c.27.09.56.16.84.28l.86.37a18.77,18.77,0,0,1,3.58,2.11l.88.74.45.38.41.42c.28.29.58.57.85.88l.78,1,.2.25a2.4,2.4,0,0,1,.18.26l.36.54.36.54c.12.18.21.39.32.58.2.39.42.78.61,1.19l.52,1.26a17.73,17.73,0,0,1,.39,11.18l-.43,1.29c-.16.42-.35.83-.53,1.23a4.66,4.66,0,0,1-.28.6l-.32.57-.32.56a2.4,2.4,0,0,1-.16.27l-.18.26-.71,1c-.25.33-.53.62-.78.93l-.39.45c-.14.15-.28.28-.42.41l-.82.8a18.82,18.82,0,0,1-3.43,2.36l-.83.43c-.27.13-.55.23-.82.34l-.77.31c-.25.1-.51.15-.75.23l-.71.2a4.16,4.16,0,0,1-.65.17l-1.17.21a5.92,5.92,0,0,1-.94.11l-.69.05-.42,0Z"/><path class="cls-4" d="M300.73,192.53a.74.74,0,0,1-.12-.18l-.3-.53c-.13-.22-.29-.51-.45-.85s-.35-.72-.52-1.16c-.09-.22-.18-.45-.28-.68s-.17-.5-.26-.76c-.2-.52-.34-1.1-.51-1.7a23.5,23.5,0,0,1-.6-8.07,17.12,17.12,0,0,1,.25-1.75c.05-.28.09-.54.14-.79s.12-.49.18-.72c.1-.46.24-.87.35-1.23a8.63,8.63,0,0,1,.31-.91l.22-.56c.05-.13.08-.2.09-.19l-.06.2-.19.58c-.08.24-.19.55-.28.91s-.23.77-.32,1.23c-.05.23-.11.47-.16.72s-.09.51-.14.78c-.11.54-.16,1.13-.23,1.75a23.83,23.83,0,0,0,.6,8c.16.6.3,1.17.48,1.69.09.26.17.52.26.76l.26.69c.16.44.35.82.5,1.16s.3.63.42.86l.27.54Z"/><path class="cls-4" d="M315.12,178.83a1.54,1.54,0,0,1-.53-.5,2.77,2.77,0,0,1,0-3.34c.28-.36.53-.51.54-.49s-.2.2-.44.56a2.86,2.86,0,0,0,0,3.2C314.93,178.63,315.14,178.81,315.12,178.83Z"/><path class="cls-4" d="M318.87,171.86a1.65,1.65,0,0,1-.12-.73,1.59,1.59,0,0,1,.07-.74,1.74,1.74,0,0,1,.11.73A1.67,1.67,0,0,1,318.87,171.86Z"/><path class="cls-4" d="M320.91,162.12h-.58c-.18,0-.41,0-.67,0s-.56,0-.89,0-.68,0-1.07.08-.79.1-1.22.16a22,22,0,0,0-2.74.69,20.33,20.33,0,0,0-2.6,1.1c-.38.21-.75.4-1.07.6s-.64.4-.91.59-.51.36-.72.51l-.53.42a3.56,3.56,0,0,1-.45.34,2.71,2.71,0,0,1,.41-.4c.13-.12.3-.27.51-.43s.44-.36.71-.55.57-.4.9-.6.69-.41,1.08-.62a17.64,17.64,0,0,1,2.62-1.12,19.18,19.18,0,0,1,2.76-.69c.44-.06.85-.12,1.24-.15s.75-.05,1.08-.06a8.55,8.55,0,0,1,.89,0,6.23,6.23,0,0,1,.68,0A3.57,3.57,0,0,1,320.91,162.12Z"/><path class="cls-4" d="M324,203a1.7,1.7,0,0,1-.41.13c-.27.07-.67.16-1.16.24a17,17,0,0,1-3.89.18,16.71,16.71,0,0,1-3.83-.71,9.43,9.43,0,0,1-1.11-.39l-.4-.18a1.83,1.83,0,0,1,.42.12c.26.09.65.2,1.12.34a20.55,20.55,0,0,0,3.81.65,19.91,19.91,0,0,0,3.86-.13c.5-.07.89-.14,1.16-.19A2.3,2.3,0,0,1,324,203Z"/><path class="cls-6" d="M244.51,342.25l-104.66-.49a22.79,22.79,0,0,1-22.69-22.89l1.11-262.38a22.8,22.8,0,0,1,22.9-22.71l104.66.49a22.8,22.8,0,0,1,22.7,22.89l-1.11,262.39A22.81,22.81,0,0,1,244.51,342.25Z"/><path class="cls-13" d="M245.68,43.32l-20.29-.09L166.13,43l-7.14,0-17.76-.08a16,16,0,0,0-16,15.9l-1.08,256.11a16,16,0,0,0,15.89,16l104.45.48a16,16,0,0,0,16-15.9l1.09-256.1A16,16,0,0,0,245.68,43.32Z"/><path class="cls-6" d="M246.46,66.6a1.31,1.31,0,1,1-1.3-1.31A1.31,1.31,0,0,1,246.46,66.6Z"/><path class="cls-6" d="M246.44,71.3a1.31,1.31,0,1,1-1.3-1.31A1.31,1.31,0,0,1,246.44,71.3Z"/><path class="cls-6" d="M246.42,76a1.31,1.31,0,1,1-1.3-1.31A1.3,1.3,0,0,1,246.42,76Z"/><rect class="cls-2" x="143.04" y="111.23" width="111.34" height="70.63" rx="4.3"/><rect class="cls-3" x="139.98" y="106.64" width="111.34" height="70.63" rx="4.3"/><rect class="cls-9" x="136.45" y="102.83" width="111.34" height="70.63" rx="4.3"/><path class="cls-4" d="M153.81,140.7h-1V142h-.5V140.7h-2.7v-.36l2.54-3.18h.55l-2.46,3.1h2.09v-1.11h.48v1.11h1Z"/><path class="cls-4" d="M157.33,140.58c0,.8-.58,1.42-1.74,1.42a2.49,2.49,0,0,1-1.73-.62l.24-.39a2.07,2.07,0,0,0,1.49.56c.79,0,1.23-.37,1.23-1s-.4-1-1.29-1h-.35v-.36l1.33-1.67h-2.45v-.44h3.08v.35l-1.35,1.71C156.82,139.27,157.33,139.81,157.33,140.58Z"/><path class="cls-4" d="M161.21,140.55c0,.81-.57,1.45-1.74,1.45a2.47,2.47,0,0,1-1.72-.62L158,141a2,2,0,0,0,1.47.56c.82,0,1.25-.4,1.25-1s-.39-1-1.61-1h-1l.25-2.41H161v.44h-2.19l-.16,1.53h.61C160.66,139.13,161.21,139.7,161.21,140.55Z"/><path class="cls-4" d="M165.44,140.53A1.49,1.49,0,0,1,163.8,142c-1.28,0-2-.88-2-2.4s.89-2.48,2.19-2.48a2.24,2.24,0,0,1,1.14.26l-.2.4a1.61,1.61,0,0,0-.93-.23c-1,0-1.7.67-1.7,2,0,.11,0,.25,0,.39a1.53,1.53,0,0,1,1.47-.82A1.46,1.46,0,0,1,165.44,140.53Zm-.49,0c0-.63-.47-1-1.21-1a1.11,1.11,0,0,0-1.23,1c0,.53.44,1,1.27,1A1,1,0,0,0,165,140.54Z"/><path class="cls-4" d="M175.8,142l-1.14-1.51L173.51,142H173l1.43-1.85L173,138.36h.55l1.08,1.41,1.08-1.41h.54l-1.36,1.75,1.44,1.85Z"/><path class="cls-4" d="M179.46,142l-1.14-1.51L177.17,142h-.55l1.43-1.85-1.36-1.75h.55l1.08,1.41,1.08-1.41h.54l-1.36,1.75L180,142Z"/><path class="cls-4" d="M183.12,142,182,140.45,180.83,142h-.55l1.42-1.85-1.35-1.75h.55l1.08,1.41,1.08-1.41h.54l-1.36,1.75,1.44,1.85Z"/><path class="cls-4" d="M186.78,142l-1.14-1.51L184.49,142h-.55l1.42-1.85L184,138.36h.55l1.08,1.41,1.08-1.41h.54l-1.36,1.75,1.44,1.85Z"/><path class="cls-4" d="M199.42,142l-1.15-1.51L197.12,142h-.55l1.43-1.85-1.36-1.75h.55l1.08,1.41,1.09-1.41h.53l-1.36,1.75L200,142Z"/><path class="cls-4" d="M203.08,142l-1.15-1.51L200.78,142h-.55l1.43-1.85-1.36-1.75h.55l1.08,1.41,1.09-1.41h.53l-1.36,1.75,1.44,1.85Z"/><path class="cls-4" d="M206.74,142l-1.15-1.51L204.44,142h-.55l1.43-1.85L204,138.36h.55l1.08,1.41,1.09-1.41h.53l-1.36,1.75,1.44,1.85Z"/><path class="cls-4" d="M210.4,142l-1.15-1.51L208.1,142h-.55l1.43-1.85-1.36-1.75h.55l1.08,1.41,1.08-1.41h.54l-1.36,1.75L211,142Z"/><path class="cls-4" d="M221.75,137.16V142h-.5V137.6h-1.13v-.44Z"/><path class="cls-4" d="M226.06,140.58c0,.8-.58,1.42-1.74,1.42a2.49,2.49,0,0,1-1.73-.62l.24-.39a2.09,2.09,0,0,0,1.49.56c.8,0,1.24-.37,1.24-1s-.41-1-1.3-1h-.34v-.36l1.33-1.67h-2.46v-.44h3.09v.35l-1.36,1.71C225.55,139.27,226.06,139.81,226.06,140.58Z"/><path class="cls-4" d="M230.83,140.7h-1V142h-.49V140.7h-2.71v-.36l2.54-3.18h.55l-2.45,3.1h2.08v-1.11h.48v1.11h1Z"/><path class="cls-4" d="M234.53,141.52V142h-3.36v-.35l2-2c.54-.54.65-.86.65-1.19,0-.55-.39-.9-1.13-.9a1.62,1.62,0,0,0-1.31.54l-.35-.3a2.16,2.16,0,0,1,1.7-.69c1,0,1.59.49,1.59,1.3a2,2,0,0,1-.78,1.5l-1.64,1.6Z"/><path class="cls-4" d="M147.18,151.92a1.25,1.25,0,0,1,2.18-.78l-.34.31a.74.74,0,0,0-.57-.27.71.71,0,0,0-.73.74.7.7,0,0,0,.73.73.71.71,0,0,0,.57-.27l.34.31a1.14,1.14,0,0,1-.94.41A1.17,1.17,0,0,1,147.18,151.92Z"/><path class="cls-4" d="M151.19,152.57h-1.07l-.2.49h-.54l1-2.29h.52l1,2.29h-.56Zm-.17-.4-.36-.88-.37.88Z"/><path class="cls-4" d="M153.65,153.06l-.45-.64h-.48v.64h-.53v-2.29h1c.61,0,1,.32,1,.83a.75.75,0,0,1-.47.73l.52.73Zm-.5-1.86h-.43v.8h.43c.32,0,.49-.15.49-.4S153.47,151.2,153.15,151.2Z"/><path class="cls-4" d="M154.42,152.84l.18-.4a1.34,1.34,0,0,0,.75.24c.32,0,.44-.11.44-.25,0-.43-1.33-.13-1.33-1,0-.39.32-.72,1-.72a1.48,1.48,0,0,1,.79.21l-.16.4a1.32,1.32,0,0,0-.64-.18c-.31,0-.43.12-.43.26,0,.42,1.33.13,1.33,1,0,.38-.32.71-1,.71A1.66,1.66,0,0,1,154.42,152.84Z"/><path class="cls-4" d="M159.71,150.77v2.29h-.53v-.94h-1v.94h-.53v-2.29h.53v.91h1v-.91Z"/><path class="cls-4" d="M160.11,151.92a1.26,1.26,0,1,1,1.26,1.18A1.19,1.19,0,0,1,160.11,151.92Zm2,0a.7.7,0,0,0-.71-.74.74.74,0,0,0,0,1.47A.69.69,0,0,0,162.08,151.92Z"/><path class="cls-4" d="M163,150.77h.53v1.86h1.15v.43H163Z"/><path class="cls-4" d="M165,150.77h1a1.15,1.15,0,1,1,0,2.29h-1Zm1,1.86a.71.71,0,1,0,0-1.42h-.48v1.42Z"/><path class="cls-4" d="M169.48,152.64v.42h-1.77v-2.29h1.73v.43h-1.21v.5h1.07v.41h-1.07v.53Z"/><path class="cls-4" d="M171.36,153.06l-.44-.64h-.49v.64h-.53v-2.29h1c.62,0,1,.32,1,.83a.75.75,0,0,1-.47.73l.51.73Zm-.49-1.86h-.44v.8h.44c.32,0,.48-.15.48-.4S171.19,151.2,170.87,151.2Z"/><rect class="cls-4" x="146.65" y="158.75" width="33.96" height="2.94" rx="1.26"/><rect class="cls-4" x="217.88" y="158.75" width="18.87" height="2.94" rx="1.26"/><g class="cls-12"><path class="cls-4" d="M244.1,102.83h-104a3.69,3.69,0,0,0-3.69,3.69v18.65c6.57,4.58,15.59,5.39,23.59,3.71,9.44-2,18-6.79,26.77-10.75s18.45-7.13,27.95-5.5c9,1.54,16.61,7.12,24.71,11.26a48.71,48.71,0,0,0,8.32,3.35V106.52A3.69,3.69,0,0,0,244.1,102.83Z"/></g><rect class="cls-9" x="138.78" y="200.99" width="28.9" height="28.9" rx="8.78"/><path class="cls-4" d="M156.08,219.86h-6.31a.4.4,0,0,1-.37-.28l-2.33-9.3h-2.2a.38.38,0,0,1,0-.75h2.49a.37.37,0,0,1,.36.29l2.34,9.29h6a.38.38,0,0,1,0,.75Z"/><circle class="cls-11" cx="150.96" cy="221.64" r="1.18"/><path class="cls-4" d="M151,223.2a1.56,1.56,0,1,1,1.56-1.56A1.55,1.55,0,0,1,151,223.2Zm0-2.37a.81.81,0,0,0,0,1.62.81.81,0,0,0,0-1.62Z"/><circle class="cls-11" cx="157.53" cy="221.64" r="1.18"/><path class="cls-4" d="M157.53,223.2a1.56,1.56,0,1,1,1.56-1.56A1.55,1.55,0,0,1,157.53,223.2Zm0-2.37a.81.81,0,0,0,0,1.62.81.81,0,0,0,0-1.62Z"/><path class="cls-4" d="M158.55,218.14h-9a.37.37,0,0,1,0-.74h8.69l1-5.57H147.88a.37.37,0,0,1-.37-.38.38.38,0,0,1,.37-.37h11.79a.37.37,0,0,1,.29.14.36.36,0,0,1,.08.3l-1.12,6.31A.38.38,0,0,1,158.55,218.14Z"/><rect class="cls-3" x="177.27" y="206.06" width="58.63" height="6.98" rx="3"/><rect class="cls-3" x="177.27" y="219.78" width="29.64" height="6.98" rx="3"/><path class="cls-3" d="M260.26,190.1c0,.11-30.51.2-68.14.2s-68.14-.09-68.14-.2,30.5-.2,68.14-.2S260.26,190,260.26,190.1Z"/><rect class="cls-9" x="152.92" y="243" width="79.84" height="26.92" rx="12.87"/><circle class="cls-9" cx="140.55" cy="73.4" r="5.77" transform="translate(36.73 193.24) rotate(-76.67)"/><rect class="cls-3" x="170.51" y="70.44" width="43.22" height="5.06" rx="2.17"/><rect class="cls-6" x="153.1" y="280.09" width="88.22" height="5.89"/><path class="cls-13" d="M157.28,283c.77.26,11.11.26,11.11,20.67s-.52,45.72,10.33,46.5,67.94,0,67.94,0V299a15.52,15.52,0,0,0-15.43-15.52Z"/><path class="cls-6" d="M157.28,283l42.91.13,21.77.08,6,0a34.76,34.76,0,0,1,6.17.3A15.7,15.7,0,0,1,246.71,297a27.78,27.78,0,0,1,.14,3.41v3.43q0,6.88,0,14.06v32.46h-.2c-20,.24-38.95.42-56.21.28q-3.22,0-6.38-.1a61.48,61.48,0,0,1-6.24-.34,7.07,7.07,0,0,1-2.8-1.31,10.31,10.31,0,0,1-2-2.28,20.47,20.47,0,0,1-2.31-5.4,59.38,59.38,0,0,1-1.83-10.94c-.32-3.55-.46-7-.54-10.22-.17-6.51,0-12.4-.11-17.56s-.9-9.6-2.49-12.86a13.83,13.83,0,0,0-2.77-3.9,10.69,10.69,0,0,0-2.91-1.95,14.25,14.25,0,0,0-2.79-.79l.73.11a10,10,0,0,1,2.09.61,10.51,10.51,0,0,1,3,1.93,13.9,13.9,0,0,1,2.83,3.92c1.62,3.28,2.45,7.76,2.57,12.93s0,11.05.17,17.55c.09,3.26.24,6.66.56,10.2A59.26,59.26,0,0,0,171,341.16a20.16,20.16,0,0,0,2.27,5.31,10.1,10.1,0,0,0,1.94,2.19,6.66,6.66,0,0,0,2.65,1.24c2,.27,4.09.25,6.17.32s4.23.08,6.39.09c17.24.12,36.23-.07,56.2-.31l-.2.2V317.93q0-7.17,0-14.06v-3.43a28.69,28.69,0,0,0-.13-3.36,15.4,15.4,0,0,0-2.17-6.16,15.65,15.65,0,0,0-4.4-4.62,15.44,15.44,0,0,0-5.74-2.38,35.41,35.41,0,0,0-6.08-.31l-5.94,0-21.67-.17Z"/><path class="cls-3" d="M179,350.2s8.93,0,10.85-13.18c2.28-15.69,0-29.45,12.14-30s44.69,0,44.69,0V350.2Z"/><path class="cls-13" d="M200.44,307.21s9.8-1.19,9.8,15.09.25,27,11.1,28.24,77.5,0,77.5,0-10.59-5-11.37-19.72-3.87-23.71-14.46-24S200.44,307.21,200.44,307.21Z"/><path class="cls-6" d="M200.44,307.21l.66,0,1.93,0,7.42-.11,27.32-.3,18.88-.13h10.53c1.81,0,3.64,0,5.51.05a15.81,15.81,0,0,1,5.59,1.08,11.33,11.33,0,0,1,4.54,3.65,18.8,18.8,0,0,1,2.68,5.33,52.62,52.62,0,0,1,2,12.1c.07,1,.12,2.09.24,3.12l.15,1.56.29,1.55.15.78.21.76.44,1.52a26,26,0,0,0,1.22,2.94,21.26,21.26,0,0,0,8.68,9.33l.68.37h-.76l-1.84,0c-17.89.3-34.93.49-50.43.49-7.75,0-15.11,0-22-.33a31.34,31.34,0,0,1-5.07-.55,10.15,10.15,0,0,1-4.39-2.21,11,11,0,0,1-2.73-3.86,20.62,20.62,0,0,1-1.3-4.33,55.58,55.58,0,0,1-.84-8.33c-.1-2.65-.1-5.14-.11-7.46,0-1.17,0-2.29-.05-3.37,0-.54,0-1.07-.07-1.58s-.13-1-.19-1.51l-.09-.73-.16-.71q-.15-.69-.3-1.35l-.43-1.26-.21-.6-.27-.55a9.81,9.81,0,0,0-2.57-3.44,7.72,7.72,0,0,0-2.75-1.52,7.4,7.4,0,0,0-1.92-.35h-.67a1.06,1.06,0,0,0,.17,0,3.66,3.66,0,0,1,.5,0,7.27,7.27,0,0,1,1.94.32,7.46,7.46,0,0,1,2.81,1.5,9.7,9.7,0,0,1,2.63,3.46c1.53,3,1.88,7.09,1.86,11.73,0,2.32,0,4.81.14,7.45a54.55,54.55,0,0,0,.86,8.28,19.52,19.52,0,0,0,1.3,4.26,10.44,10.44,0,0,0,2.65,3.75,9.92,9.92,0,0,0,4.27,2.14,30.15,30.15,0,0,0,5,.52c6.88.28,14.24.29,22,.3,15.5,0,32.53-.23,50.42-.52l1.84,0-.08.38a21.65,21.65,0,0,1-8.87-9.51,27.71,27.71,0,0,1-1.24-3l-.44-1.55-.22-.77-.15-.79-.29-1.57-.16-1.58c-.11-1-.16-2.09-.23-3.13a52.54,52.54,0,0,0-2-12,18.46,18.46,0,0,0-2.62-5.23,11.1,11.1,0,0,0-4.39-3.54,15.52,15.52,0,0,0-5.45-1.05c-1.86,0-3.7-.05-5.5-.06H256.65l-18.88.09-27.32.17-7.42,0h-2.59Z"/><path class="cls-6" d="M203,307.18c0,.05-.79,0-2.17.16a9.35,9.35,0,0,0-5.19,2.53,14.76,14.76,0,0,0-3.86,7.68,66.53,66.53,0,0,0-.91,10.71A53.48,53.48,0,0,1,189.66,339a26.69,26.69,0,0,1-1.6,4.45A16.91,16.91,0,0,1,186,347a8.85,8.85,0,0,1-2.61,2.2,8.75,8.75,0,0,1-2.44.84,9.58,9.58,0,0,1-1.61.15,3.06,3.06,0,0,1-.57,0,2.26,2.26,0,0,1,.56-.07,11,11,0,0,0,1.59-.22,8.24,8.24,0,0,0,4.86-3.07,16.5,16.5,0,0,0,2-3.51,26.85,26.85,0,0,0,1.55-4.41,54.74,54.74,0,0,0,1.2-10.68,64.41,64.41,0,0,1,.95-10.77,14.82,14.82,0,0,1,4-7.8,9.3,9.3,0,0,1,5.37-2.48,8.52,8.52,0,0,1,.94-.07,4.88,4.88,0,0,1,.68,0A3.74,3.74,0,0,1,203,307.18Z"/><path class="cls-3" d="M235.53,294.86c0,.11-12.51.2-27.95.2s-28-.09-28-.2,12.52-.2,28-.2S235.53,294.75,235.53,294.86Z"/><path class="cls-3" d="M236.69,303.18c0,.11-12.11.2-27,.2s-27-.09-27-.2,12.1-.21,27-.21S236.69,303.06,236.69,303.18Z"/><path class="cls-3" d="M274.81,319.35c0,.11-12.52.2-28,.2s-27.95-.09-27.95-.2,12.51-.2,27.95-.2S274.81,319.24,274.81,319.35Z"/><path class="cls-3" d="M275.5,329.05c0,.11-11.48.2-25.64.2s-25.65-.09-25.65-.2,11.48-.2,25.65-.2S275.5,328.94,275.5,329.05Z"/><path class="cls-4" d="M38.34,101.31l-5.11-.62a19.64,19.64,0,1,1,5.05-4.89h0Z"/><path class="cls-6" d="M38.34,101.31s0-.13,0-.38,0-.6,0-1.06c0-1,0-2.31-.07-4.08l.11.06h0a.07.07,0,0,1-.1-.09A19.58,19.58,0,0,0,41.66,87a19.92,19.92,0,0,0-.16-6.18A19.47,19.47,0,0,0,39,74.29a19.81,19.81,0,0,0-5.29-5.66A18.93,18.93,0,0,0,26,65.31a19.84,19.84,0,0,0-8.88.38A19.11,19.11,0,0,0,9,70.3,20.28,20.28,0,0,0,6,74c-.39.68-.8,1.36-1.14,2.07l-.46,1.08-.23.54L4,78.23a19.75,19.75,0,0,0-.81,9,19,19,0,0,0,3,7.88,19.43,19.43,0,0,0,12,8.33l1.62.29c.54.08,1.07.09,1.59.14a17.4,17.4,0,0,0,3-.06,19.6,19.6,0,0,0,8.83-3.13h0l3.77.5,1,.13.35.06-.33,0-1-.1-3.82-.42h0A19.52,19.52,0,0,1,24.39,104a18,18,0,0,1-3,.07c-.52,0-1.06,0-1.6-.13l-1.64-.28A19.78,19.78,0,0,1,5.9,95.24a19.26,19.26,0,0,1-3.09-8,20.3,20.3,0,0,1,.8-9.11l.18-.56L4,77c.16-.37.32-.73.47-1.1.35-.72.76-1.41,1.16-2.11A20.31,20.31,0,0,1,8.77,70,19.26,19.26,0,0,1,17,65.36a20.16,20.16,0,0,1,9-.38,19.21,19.21,0,0,1,7.8,3.39,19.59,19.59,0,0,1,7.9,12.42,20.4,20.4,0,0,1,.13,6.26,19.65,19.65,0,0,1-3.55,8.79l-.11-.1h0a.06.06,0,0,1,.1,0,.08.08,0,0,1,0,0c0,1.79,0,3.17,0,4.12v1C38.34,101.19,38.34,101.31,38.34,101.31Z"/><polygon class="cls-9" points="13.7 85.58 16.16 82.95 21.2 87.14 30.51 77.56 32.96 80.02 21.01 92.06 13.7 85.58"/><path class="cls-14" d="M56.92,76.31A14.84,14.84,0,0,1,72.66,63.78l.76.06C81.65,64.92,85.32,72.51,84,80.7l-2.86,29.07-.14,6-19.59,1.77.42-12.68s-7.85-1.82-7.37-9.76C54.71,91.27,55.83,83.41,56.92,76.31Z"/><path class="cls-15" d="M61.78,104.85a19.32,19.32,0,0,0,10.62-2.29s-2.76,5.73-10.63,4.44Z"/><path class="cls-6" d="M60,84.22a1.14,1.14,0,0,0,1,1.23,1.09,1.09,0,0,0,1.24-.94,1.12,1.12,0,0,0-1-1.22A1.08,1.08,0,0,0,60,84.22Z"/><path class="cls-6" d="M58.35,80.31c.13.16,1-.41,2.25-.32s2.07.77,2.21.63-.05-.34-.42-.65a3.18,3.18,0,0,0-1.76-.69,3,3,0,0,0-1.8.44C58.43,80,58.28,80.24,58.35,80.31Z"/><path class="cls-6" d="M71.43,85.31a1.14,1.14,0,0,0,1,1.23,1.08,1.08,0,0,0,1.24-.94,1.12,1.12,0,0,0-1-1.22A1.08,1.08,0,0,0,71.43,85.31Z"/><path class="cls-6" d="M70.32,81.42c.13.15,1-.42,2.26-.33s2.06.77,2.21.63-.06-.34-.43-.65a3.14,3.14,0,0,0-1.75-.69,3,3,0,0,0-1.81.45C70.4,81.09,70.26,81.34,70.32,81.42Z"/><path class="cls-6" d="M65.23,90.14a7.44,7.44,0,0,0-2-.5c-.31-.06-.6-.14-.64-.36a1.66,1.66,0,0,1,.28-.91L64,86.07a39.18,39.18,0,0,0,2.52-6,42,42,0,0,0-3,5.83c-.37.81-.72,1.59-1.06,2.32a1.89,1.89,0,0,0-.25,1.22.83.83,0,0,0,.48.49,2.39,2.39,0,0,0,.53.11A7.68,7.68,0,0,0,65.23,90.14Z"/><path class="cls-6" d="M68.76,91.24c-.19,0-.29,1.3-1.5,2.16s-2.6.61-2.62.79.3.28.89.34a3.31,3.31,0,0,0,2.19-.59,2.89,2.89,0,0,0,1.17-1.81C69,91.58,68.85,91.24,68.76,91.24Z"/><path class="cls-6" d="M70.35,76.61c.1.34,1.33.27,2.75.55s2.55.75,2.76.47-.09-.46-.53-.82a4.7,4.7,0,0,0-2-.87,4.5,4.5,0,0,0-2.18.1C70.6,76.21,70.31,76.45,70.35,76.61Z"/><path class="cls-6" d="M59.05,76.82c.2.29,1.06.06,2.07.12s1.85.33,2.07,0c.1-.13,0-.42-.37-.71a3,3,0,0,0-3.34-.14C59.11,76.4,59,76.68,59.05,76.82Z"/><path class="cls-14" d="M82.17,88.33a2.17,2.17,0,0,1,2.48-1.91c1.47.25,3,1.21,2.73,4.27-.57,5.41-5.88,3.72-5.88,3.57S81.91,90.6,82.17,88.33Z"/><path class="cls-15" d="M82.9,92.34s.08.08.23.17a1,1,0,0,0,.71.09,2.36,2.36,0,0,0,1.3-2A3.29,3.29,0,0,0,85,89.24a1.13,1.13,0,0,0-.64-.8.47.47,0,0,0-.58.2c-.09.14-.07.26-.1.26s-.1-.1,0-.32a.66.66,0,0,1,.25-.32.75.75,0,0,1,.54-.08,1.35,1.35,0,0,1,.9.94,3.16,3.16,0,0,1,.16,1.55,2.46,2.46,0,0,1-1.62,2.19,1,1,0,0,1-.84-.23C82.89,92.47,82.88,92.35,82.9,92.34Z"/><path class="cls-6" d="M86.51,82.81c-.45,1.55-.29,4.13-1.68,3.78-2.75-.69-2.09,5-3.41,4.4S79,88.84,78.88,85.37c-.1-4.41,1.67-7.6-.06-12.65a6.69,6.69,0,0,0-5.58-3.45,6.76,6.76,0,0,0-5.84,3.09c-.25-1.53-1-3.85-2.37-4.6a4,4,0,0,0-4.38.37,3.24,3.24,0,0,0-.58,4.21,1.57,1.57,0,0,1-1.73-.62,2.68,2.68,0,0,0,.69,2,2.5,2.5,0,0,1-1.4-1c.14.64.28,1.28.41,1.91-2.32.06-4.59-2.18-5.23-4.18a10.31,10.31,0,0,1,1.47-8.79,9.53,9.53,0,0,1,7.91-4.57,7.33,7.33,0,0,1,7.08,4.48,10.28,10.28,0,0,1,8.56-.93,7.45,7.45,0,0,1,4.24,5.9,4.43,4.43,0,0,1,4.39.85l.29.26a6.61,6.61,0,0,1,1.93,6.1c-.17.89-.48,1.8-.66,2.51C87.49,78.36,86.51,82.81,86.51,82.81Z"/><path class="cls-16" d="M58,71.57s-.07,0-.18-.14a3.44,3.44,0,0,1-.46-.5,4.63,4.63,0,0,1-.91-2.31,4.39,4.39,0,0,1,1.08-3.47,4.78,4.78,0,0,1,4.14-1.57,5.51,5.51,0,0,1,2.2.86,7.46,7.46,0,0,1,1.62,1.48,8.58,8.58,0,0,1,1.66,3.29,8.4,8.4,0,0,1,.27,2.47,6,6,0,0,1-.07.67.65.65,0,0,1,0,.23A9.85,9.85,0,0,0,67,69.25a8.79,8.79,0,0,0-1.67-3.19,6.13,6.13,0,0,0-3.68-2.24,4.57,4.57,0,0,0-3.94,1.47A4.28,4.28,0,0,0,56.6,68.6a4.76,4.76,0,0,0,.82,2.27C57.75,71.35,58,71.55,58,71.57Z"/><path class="cls-16" d="M56.92,74a1.34,1.34,0,0,1-.17-.27c-.1-.17-.24-.44-.42-.78a17,17,0,0,1-1.28-3,8.63,8.63,0,0,1-.35-2.25,6.31,6.31,0,0,1,.47-2.58A5,5,0,0,1,57,62.89a6.09,6.09,0,0,1,2.94-1A7.46,7.46,0,0,1,63,62.4a9.6,9.6,0,0,1,2.51,1.43,7.52,7.52,0,0,1,2.75,4,5.47,5.47,0,0,1-.16,3.26,4.4,4.4,0,0,1-.41.8c-.12.16-.18.25-.19.24A6.84,6.84,0,0,0,68.05,71a5.53,5.53,0,0,0,.08-3.19A7.39,7.39,0,0,0,65.42,64,8.26,8.26,0,0,0,60,62.15a5.84,5.84,0,0,0-2.83.93,4.83,4.83,0,0,0-1.79,2.11,6,6,0,0,0-.47,2.49,8.33,8.33,0,0,0,.32,2.2,19.28,19.28,0,0,0,1.19,3l.39.8A2.34,2.34,0,0,1,56.92,74Z"/><path class="cls-16" d="M84.59,79.3s.5-.4,1.16-1.19a7.87,7.87,0,0,0,1.55-7.47c-.29-1-.63-1.53-.59-1.55s.11.12.26.37a7.17,7.17,0,0,1,.5,1.13,7.67,7.67,0,0,1-1.59,7.64,6.72,6.72,0,0,1-.9.83C84.74,79.24,84.6,79.32,84.59,79.3Z"/><path class="cls-16" d="M79.66,79.15s.27-.12.7-.42a3.88,3.88,0,0,0,1.36-1.64l.23-.52,0,.56c-.07.77-.15,1.65-.23,2.6l-.18-.11a7.14,7.14,0,0,0,3-4.59,7.45,7.45,0,0,0,0-2.55,9.91,9.91,0,0,0-.77-2.24s0,0,.11.14.14.23.24.41a6.84,6.84,0,0,1,.59,1.66,7.28,7.28,0,0,1,.06,2.62,7.07,7.07,0,0,1-1.23,3,7.19,7.19,0,0,1-1.84,1.78l-.2.14,0-.24c.1-.95.2-1.83.28-2.59l.17,0a3.79,3.79,0,0,1-1.48,1.66,3,3,0,0,1-.55.27C79.73,79.14,79.66,79.16,79.66,79.15Z"/><path class="cls-16" d="M78.15,67.73a5.3,5.3,0,0,0-1.25-1.57,4.69,4.69,0,0,0-2-.9,4.86,4.86,0,0,0-2.61.23A5.62,5.62,0,0,0,70.15,67,6.63,6.63,0,0,0,69,68.8a13.42,13.42,0,0,0-.59,1.94,2.27,2.27,0,0,1,0-.55A6.61,6.61,0,0,1,70,66.82a5.67,5.67,0,0,1,2.27-1.55A4.93,4.93,0,0,1,75,65a4.62,4.62,0,0,1,2,1,4,4,0,0,1,1,1.18,3.31,3.31,0,0,1,.17.38C78.15,67.68,78.16,67.73,78.15,67.73Z"/><path class="cls-16" d="M76.88,63.59A7.57,7.57,0,0,0,75.39,63a5.45,5.45,0,0,0-3.73.53A6.78,6.78,0,0,0,69,66.28c-.47.88-.62,1.49-.67,1.47a1.52,1.52,0,0,1,.09-.43,5.79,5.79,0,0,1,.43-1.12,6.5,6.5,0,0,1,2.67-2.87,5.33,5.33,0,0,1,3.88-.48,3.9,3.9,0,0,1,1.1.47A1.21,1.21,0,0,1,76.88,63.59Z"/><path class="cls-6" d="M59.44,319.44,60,334.3s-14.92,5.55-15.09,8.3l28.85,0,.1-23.19Z"/><path class="cls-3" d="M68.91,333a1.17,1.17,0,0,1,.81,1.35,1.13,1.13,0,0,1-1.32.82,1.25,1.25,0,0,1-.86-1.43,1.18,1.18,0,0,1,1.48-.7"/><path class="cls-6" d="M73.75,342.58l-.08-2.34-27.63.9s-1.28.56-1.14,1.46Z"/><path class="cls-4" d="M59.52,334.15c0,.14.71.21,1.4.66s1.07,1,1.2,1-.08-.87-.93-1.4S59.49,334,59.52,334.15Z"/><path class="cls-4" d="M56.5,335.41c0,.13.58.37,1,1s.62,1.22.76,1.22.23-.81-.38-1.53S56.5,335.27,56.5,335.41Z"/><path class="cls-4" d="M54.78,339c.13,0,.33-.67,0-1.44s-1-1.08-1.08-1,.35.53.64,1.17S54.64,339,54.78,339Z"/><path class="cls-4" d="M59.77,330.75c.06.13.71-.06,1.5,0s1.42.3,1.5.18-.53-.62-1.47-.67S59.7,330.64,59.77,330.75Z"/><path class="cls-6" d="M92.55,320.8l1.15,17.95-3.19,14.46A1.84,1.84,0,0,0,92,355.43h0a1.81,1.81,0,0,0,1.59-.54c2.64-2.74,12.28-12.88,12.12-14.19-.18-1.51,0-19,0-19Z"/><path class="cls-6" d="M92,355.43l13.66-15.94,0,.76a2.77,2.77,0,0,1-.59,1.82c-1.08,1.39-4.17,5.16-11.46,12.82a1.83,1.83,0,0,1-1.65.54Z"/><g class="cls-17"><path class="cls-4" d="M101.78,333.84a1.12,1.12,0,0,0-.25,1.47,1.08,1.08,0,0,0,1.46.26,1.19,1.19,0,0,0,.25-1.56,1.11,1.11,0,0,0-1.54-.1"/></g><path class="cls-4" d="M95.82,347.41c-.1.06-.54-.87-1.63-1.33a5.51,5.51,0,0,0-2.09-.31s.21-.19.63-.27a2.94,2.94,0,0,1,2.87,1.27C95.83,347.13,95.87,347.4,95.82,347.41Z"/><path class="cls-4" d="M94.64,349.87a14.49,14.49,0,0,0-1.62-.71,16.77,16.77,0,0,0-1.77-.15,2,2,0,0,1,1.86-.23C94.19,349.05,94.73,349.82,94.64,349.87Z"/><path class="cls-4" d="M98.08,344.23A18.2,18.2,0,0,0,95.65,343a17.69,17.69,0,0,0-2.7-.51,4.07,4.07,0,0,1,2.83.14A4.12,4.12,0,0,1,98.08,344.23Z"/><path class="cls-4" d="M98.19,338.74c0,.11-1.06-.26-2.35-.25s-2.31.35-2.35.24a3.62,3.62,0,0,1,2.35-.64A3.66,3.66,0,0,1,98.19,338.74Z"/><path class="cls-4" d="M98,333.46a9.12,9.12,0,0,0-2.43-.33,8.55,8.55,0,0,0-2.36.7s.15-.27.56-.53a3.81,3.81,0,0,1,1.77-.56,3.93,3.93,0,0,1,1.83.29C97.79,333.22,98,333.42,98,333.46Z"/><path class="cls-4" d="M95.54,332.13a1.38,1.38,0,0,1-.06-.68,5,5,0,0,1,.47-1.81,2.08,2.08,0,0,1,.86-1,.74.74,0,0,1,.84.13,1.21,1.21,0,0,1,.32.8,2.62,2.62,0,0,1-2.19,2.5,3,3,0,0,1-3-1.46,1,1,0,0,1-.08-.87.71.71,0,0,1,.74-.41,2.53,2.53,0,0,1,1.21.56,5.38,5.38,0,0,1,1.29,1.35,1.61,1.61,0,0,1,.3.61,8.48,8.48,0,0,0-1.75-1.73,2.47,2.47,0,0,0-1.06-.47.39.39,0,0,0-.41.23.72.72,0,0,0,.09.57,2.71,2.71,0,0,0,2.64,1.23,2.25,2.25,0,0,0,1.88-2.1.87.87,0,0,0-.19-.57.41.41,0,0,0-.47-.07,1.89,1.89,0,0,0-.74.86A7,7,0,0,0,95.54,332.13Z"/><path class="cls-6" d="M46.8,193.85A63.85,63.85,0,0,0,45,212.6C45.19,216.6,58,332.13,58,332.13l16.34-1.47-2.82-108,.68.62S82,268.7,82.61,275.88c.58,6.46,8.35,58.33,8.35,58.33l15.85-.75-3.59-65.58-4.81-59.53L96.49,191Z"/><path class="cls-16" d="M74.69,213.33a3.89,3.89,0,0,1-.77.41,8.82,8.82,0,0,1-2.27.74,4.72,4.72,0,0,1-1.67,0,3.48,3.48,0,0,1-1.74-.88,4.26,4.26,0,0,1-1-1.88c-.19-.71-.3-1.45-.43-2.2-.51-3-.84-5.75-1-7.74-.09-1-.15-1.81-.17-2.36a4.45,4.45,0,0,1,0-.87,3.52,3.52,0,0,1,.16.85c.08.64.18,1.42.29,2.35.26,2,.63,4.7,1.14,7.7.26,1.49.42,3,1.32,3.9a3.83,3.83,0,0,0,3.12.89,10.57,10.57,0,0,0,2.25-.61A5,5,0,0,1,74.69,213.33Z"/><path class="cls-16" d="M69.54,199.13s.12-.09.38-.1a1.59,1.59,0,0,1,1,.35,1.79,1.79,0,0,1,.73,1.42,1.8,1.8,0,0,1-3.09,1.08,1.8,1.8,0,0,1-.31-1.57,1.56,1.56,0,0,1,.57-.9.61.61,0,0,1,.36-.16,2,2,0,0,0-.67,1.12,1.59,1.59,0,0,0,.32,1.28,1.34,1.34,0,0,0,1.49.32,1.38,1.38,0,0,0,1-1.18,1.59,1.59,0,0,0-.55-1.2A2.08,2.08,0,0,0,69.54,199.13Z"/><path class="cls-16" d="M98.19,207.28a2,2,0,0,1-.63.08,11,11,0,0,1-1.7,0,16.46,16.46,0,0,1-10.11-4.53,12.08,12.08,0,0,1-1.15-1.26,2,2,0,0,1-.35-.52c0-.05.62.64,1.68,1.58a18.9,18.9,0,0,0,4.64,3,18.64,18.64,0,0,0,5.32,1.47C97.3,207.24,98.18,207.21,98.19,207.28Z"/><path class="cls-16" d="M54.15,199.11a8.29,8.29,0,0,1-1,1.83,20.72,20.72,0,0,1-3.25,3.84,20.17,20.17,0,0,1-4.07,2.95,7.66,7.66,0,0,1-1.9.85,19.74,19.74,0,0,1,1.77-1.08,26.06,26.06,0,0,0,3.94-3,26.33,26.33,0,0,0,3.29-3.71A16.74,16.74,0,0,1,54.15,199.11Z"/><path class="cls-14" d="M37.93,133.85c-2.43,7.08-2.16,6.48-6.7,27.65-.83,3.9.64,10,4.16,11.89s9.79-.18,11.88-3.58l3.38-31.95Z"/><path class="cls-7" d="M96.5,172.24l-.09-16.83.06-1.65,17.09-4s-3.36-11.05-6.43-22.93c-1.78-6.85-7.69-10.3-9.12-11h0l-.31-.15h0l-16.45-7c-3.32,3.54-8.16,6.38-12.82,5a14.53,14.53,0,0,1-6.76-4.61l-11.08,3.8h0a14.36,14.36,0,0,0-7.66,6.21c-2.32,4.11-9.73,22.92-9.86,23.34l13.72,1.23s-2.43,44.51-1.57,52.47c0,0,3.33,2.3,11.75,2.7,17,.8,42.43-.41,42.43-.41-.4-2.57-.82-6.86-1.05-9Z"/><path class="cls-6" d="M47.26,127.09c.07,0-.3,10.62-.81,23.71s-1,23.7-1.07,23.7.3-10.62.81-23.71S47.19,127.09,47.26,127.09Z"/><path class="cls-6" d="M94.62,130.06c-.12,0,.23,9.42.77,21s1.09,21,1.21,21-.22-9.43-.77-21.05S94.74,130.05,94.62,130.06Z"/><path class="cls-14" d="M113.63,157.78c-.55-4.18-1-7.87-1-7.87L99,153.08l.59,2.2L89,144.55l-1.67.15L82,150.23s4.63,9.78,7.33,13.6c3.5,4.95,9,12.51,16.57,11.88C112.87,175.12,114.63,165.28,113.63,157.78Z"/><path class="cls-15" d="M106.23,160.28a11.73,11.73,0,0,0-3-2.76,12.1,12.1,0,0,0-3.57-2c-.06.12,1.51,1,3.31,2.33S106.15,160.37,106.23,160.28Z"/><path class="cls-14" d="M70.54,130.55l4.69-2.39,6.09,1.93,3,2.78L89,144.55l3.71,4.71-6.55,8.54L82,150.23s-3.52-1.54-4.93-3.76S75,143,75,143s-2-1-2.41-1.91a4.58,4.58,0,0,1-.36-1.67l1-1.5a3.79,3.79,0,0,1,.31-1.92,1.85,1.85,0,0,1,.81-.64s-.3-1.27.17-1.72a14.34,14.34,0,0,1,2.81-1.29h0l-2-1.16S70.79,132.63,70.54,130.55Z"/><path class="cls-15" d="M77.51,134.8c0,.06-.72.07-1.58.26s-1.53.45-1.55.4a3.52,3.52,0,0,1,1.51-.6A3.41,3.41,0,0,1,77.51,134.8Z"/><path class="cls-15" d="M76.1,137.42c0,.06-.62.05-1.36.17s-1.32.29-1.34.24a4,4,0,0,1,2.7-.41Z"/><path class="cls-15" d="M74.11,141.52s-.09-.27-.08-.6,0-.59.11-.59.09.27.09.6S74.17,141.52,74.11,141.52Z"/><path class="cls-15" d="M75,142.79a2.65,2.65,0,0,0-.43-1.08,2.57,2.57,0,0,0-1-.68s.15,0,.38,0a1.58,1.58,0,0,1,1.06,1.36C75.09,142.66,75,142.79,75,142.79Z"/><path class="cls-15" d="M78.68,139a3.1,3.1,0,0,0-.82-.8,2.78,2.78,0,0,0-1.11-.27s.12-.09.35-.11a1.59,1.59,0,0,1,.86.21,1.62,1.62,0,0,1,.63.62C78.69,138.89,78.71,139,78.68,139Z"/><path class="cls-15" d="M80.82,136.45a3.26,3.26,0,0,0-.75-.78,3.77,3.77,0,0,0-1-.36s.12-.07.33-.06a1.54,1.54,0,0,1,.8.25,1.57,1.57,0,0,1,.56.61C80.83,136.31,80.84,136.44,80.82,136.45Z"/><path class="cls-15" d="M82.25,135.17s0-.16,0-.4a2,2,0,0,0-.35-.86,1.74,1.74,0,0,0-.72-.57c-.22-.11-.38-.14-.37-.17s.16,0,.42,0a1.61,1.61,0,0,1,.83.59,1.66,1.66,0,0,1,.33,1C82.34,135,82.28,135.18,82.25,135.17Z"/><path class="cls-15" d="M80.27,132.12c0,.07-1,.09-2.17.27s-2.08.6-2.11.54a5,5,0,0,1,2.08-.74,9.56,9.56,0,0,1,1.55-.12A2.23,2.23,0,0,1,80.27,132.12Z"/><g class="cls-8"><path d="M66.9,158.5a8.41,8.41,0,0,0-1.16-3.89c-1.37-1.94-4.07-2.35-6.44-2.23s-4.83.58-7.06-.23l-6.66,19.76a9.89,9.89,0,0,0,6-4.37,10.72,10.72,0,0,1,2.21-3.18c1.41-1.09,3.38-.93,5.17-1a20.72,20.72,0,0,0,5.53-.81,3.71,3.71,0,0,0,2-1.16A4,4,0,0,0,66.9,158.5Z"/></g><path class="cls-6" d="M49.76,135.36l2.06,22a3.1,3.1,0,0,0,1.36,2.53l13.34-.28a5.23,5.23,0,0,0,1-3.74l-1.47-21.05c-.09-1.27-.57-2.18-1.14-2.2l-14.05-.32C50.17,132.28,49.61,133.8,49.76,135.36Z"/><path class="cls-14" d="M47.82,139.79a1.94,1.94,0,0,1,0-2.39,2.92,2.92,0,0,1,2.29-1,6.26,6.26,0,0,1,2.5.58,16.18,16.18,0,0,1,2.82,1.49,2.74,2.74,0,0,1,1.38,1.69c.11.74-.72,1.57-1.36,1.18a3.18,3.18,0,0,1,1.79,2.24c.11.94-.4,1.43-1.32,1.68a1.42,1.42,0,0,1,.78,1.83,1.62,1.62,0,0,1-2.05.57A4.71,4.71,0,0,1,53,146.12a5.35,5.35,0,0,1,.24,3.36c-2-.74-3.95-2.95-3.36-5A2.87,2.87,0,0,1,49,141a2.77,2.77,0,0,1-1.6-2.37"/><path class="cls-14" d="M47.59,137.87l-.16,9.4L45,150.94l-11.19,10s1.66,13.59,6.71,12.1,6.27-2.45,9.25-7.93c1.6-2.94,2.59-7.71,3.51-10.45.54-1.61.06-6.78.06-6.78Z"/><path class="cls-15" d="M56,145.26a6.5,6.5,0,0,1-.86-.68,5.66,5.66,0,0,0-2.26-1.22,3.13,3.13,0,0,0-1.39,0,2.62,2.62,0,0,0-1,.49,3,3,0,0,0-.68.82.58.58,0,0,1,.08-.29,2,2,0,0,1,.5-.65,2.57,2.57,0,0,1,1.08-.56,3.13,3.13,0,0,1,1.49,0,5.27,5.27,0,0,1,2.3,1.32A4.84,4.84,0,0,1,56,145.26Z"/><path class="cls-15" d="M55.81,141.43a4.65,4.65,0,0,1-1-.46,11.92,11.92,0,0,0-1.11-.52,9.27,9.27,0,0,0-1.43-.4,4.1,4.1,0,0,0-1.47-.05,2.76,2.76,0,0,0-1.1.44,2.71,2.71,0,0,0-.72.83A.56.56,0,0,1,49,141a1.86,1.86,0,0,1,.54-.66,2.61,2.61,0,0,1,1.15-.52,4.27,4.27,0,0,1,1.55,0,9.31,9.31,0,0,1,1.46.43,11.18,11.18,0,0,1,1.11.57A9.2,9.2,0,0,1,55.81,141.43Z"/><path class="cls-15" d="M35,166.34a9.16,9.16,0,0,1-.14-3.5,10.78,10.78,0,0,1,1.32-3.56,17.32,17.32,0,0,1,3-3.62c1.2-1.16,2.44-2.17,3.54-3.13a36.37,36.37,0,0,0,2.83-2.66,16.69,16.69,0,0,0,1.63-2.06,3.8,3.8,0,0,0,.46-.84,6,6,0,0,0-.58.76,22.46,22.46,0,0,1-1.7,2c-.77.78-1.75,1.65-2.86,2.58s-2.36,1.95-3.58,3.13a16.69,16.69,0,0,0-3,3.71,10.64,10.64,0,0,0-1.28,3.69,7.19,7.19,0,0,0,.09,2.63,5.74,5.74,0,0,0,.2.69C35,166.27,35,166.35,35,166.34Z"/></g></g></svg>