<svg xmlns="http://www.w3.org/2000/svg" viewBox="0 0 34.41 20.7"><defs><style>.cls-1,.cls-2{fill:none;stroke-linecap:round;stroke-linejoin:round;stroke-width:1.5px;}.cls-1{stroke:#ea0029;}.cls-2{stroke:#163d6b;}</style></defs><g id="Capa_2" data-name="Capa 2"><g id="Capa_1-2" data-name="Capa 1"><polyline class="cls-1" points="20.3 7 20.3 12.2 22.24 12.2 18.19 16.95 14.15 12.2 16.08 12.2 16.08 7"/><path class="cls-2" d="M6,11c0-.11,0-.22,0-.33A4.52,4.52,0,0,1,10.49,6.1a4.43,4.43,0,0,1,1.92.43A6,6,0,1,1,24,9.07,6,6,0,1,1,27.63,20H5.28a4.53,4.53,0,1,1,0-9A5.21,5.21,0,0,1,6,11Z"/></g></g></svg>