<svg xmlns="http://www.w3.org/2000/svg" viewBox="0 0 38.9 38.9"><defs><style>.cls-1{fill:#fff;}</style></defs><g id="Capa_2" data-name="Capa 2"><g id="Capa_1-2" data-name="Capa 1"><path class="cls-1" d="M29.75,6.94A2.29,2.29,0,1,0,32,9.23,2.29,2.29,0,0,0,29.75,6.94Z"/><path class="cls-1" d="M19.61,9.87a9.58,9.58,0,1,0,9.58,9.58A9.59,9.59,0,0,0,19.61,9.87Zm0,15.71a6.14,6.14,0,1,1,6.13-6.13A6.14,6.14,0,0,1,19.61,25.58Z"/><path class="cls-1" d="M27.21,38.9H11.68A11.7,11.7,0,0,1,0,27.21V11.68A11.69,11.69,0,0,1,11.68,0H27.21A11.7,11.7,0,0,1,38.9,11.68V27.21A11.7,11.7,0,0,1,27.21,38.9ZM11.68,3.66a8,8,0,0,0-8,8V27.21a8,8,0,0,0,8,8H27.21a8,8,0,0,0,8-8V11.68a8,8,0,0,0-8-8Z"/></g></g></svg>