<svg xmlns="http://www.w3.org/2000/svg" viewBox="0 0 27.95 27.95"><defs><style>.cls-1{fill:none;stroke:#fff;stroke-linecap:round;stroke-linejoin:round;stroke-width:1.5px;}</style></defs><g id="Capa_2" data-name="Capa 2"><g id="Capa_1-2" data-name="Capa 1"><path class="cls-1" d="M17.73,11.17c0,2.85-2,5.16-3.76,5.16-1.46,0-3.76-2.31-3.76-5.16S11.9,6.9,14,6.9,17.73,8.32,17.73,11.17Z"/><path class="cls-1" d="M16.14,16.1A11.94,11.94,0,0,1,14,18.31a12.07,12.07,0,0,1-2.16-2.21,12.1,12.1,0,0,0-4.12,3.82A18.83,18.83,0,0,0,14,21a18.93,18.93,0,0,0,6.29-1.12A12.1,12.1,0,0,0,16.14,16.1Z"/><circle class="cls-1" cx="13.97" cy="13.97" r="13.22"/></g></g></svg>