<svg xmlns="http://www.w3.org/2000/svg" viewBox="0 0 27.45 27.45"><defs><style>.cls-1,.cls-2{fill:none;stroke-linecap:round;stroke-linejoin:round;}.cls-1{stroke:#163d6b;}.cls-2{stroke:#ea0029;}</style></defs><g id="Capa_2" data-name="Capa 2"><g id="Capa_1-2" data-name="Capa 1"><path class="cls-1" d="M17.48,10.92c0,2.85-2,5.16-3.76,5.16-1.46,0-3.76-2.31-3.76-5.16s1.69-4.27,3.76-4.27S17.48,8.07,17.48,10.92Z"/><path class="cls-1" d="M15.89,15.85a11.94,11.94,0,0,1-2.17,2.21,12.07,12.07,0,0,1-2.16-2.21,12.1,12.1,0,0,0-4.12,3.82,18.83,18.83,0,0,0,6.28,1.12A18.93,18.93,0,0,0,20,19.67,12.1,12.1,0,0,0,15.89,15.85Z"/><circle class="cls-2" cx="13.72" cy="13.72" r="13.22"/></g></g></svg>