<svg xmlns="http://www.w3.org/2000/svg" viewBox="0 0 32 36"><defs><style>.cls-1{fill:#163d6b;}</style></defs><g id="Capa_2" data-name="Capa 2"><g id="Capa_1-2" data-name="Capa 1"><path class="cls-1" d="M5.05,36A2.88,2.88,0,0,1,3,35.1a2.88,2.88,0,0,1-.9-2.1V4.5H1.5A1.42,1.42,0,0,1,.43,4.07,1.42,1.42,0,0,1,0,3,1.42,1.42,0,0,1,.43,1.93,1.42,1.42,0,0,1,1.5,1.5H9.4A1.45,1.45,0,0,1,10.9,0H21.1a1.42,1.42,0,0,1,1.07.43A1.42,1.42,0,0,1,22.6,1.5h7.9A1.45,1.45,0,0,1,32,3a1.45,1.45,0,0,1-1.5,1.5H30V33a3.08,3.08,0,0,1-3,3Zm0-31.5V33H27V4.5Zm5.3,22.7a1.5,1.5,0,1,0,3,0V10.25a1.5,1.5,0,1,0-3,0Zm8.3,0a1.45,1.45,0,0,0,1.5,1.5,1.44,1.44,0,0,0,1.5-1.5V10.25a1.45,1.45,0,0,0-1.5-1.5,1.47,1.47,0,0,0-1.5,1.5ZM5.05,4.5v0Z"/></g></g></svg>