<svg xmlns="http://www.w3.org/2000/svg" viewBox="0 0 36.18 29.78"><defs><style>.cls-1{fill:#fff;}</style></defs><g id="Capa_2" data-name="Capa 2"><g id="Capa_1-2" data-name="Capa 1"><path class="cls-1" d="M36,3.57a15,15,0,0,1-3.66,1c.59-.1,1.46-1.16,1.8-1.59A6.79,6.79,0,0,0,35.39.8a.15.15,0,0,0,0-.19.23.23,0,0,0-.2,0,18.63,18.63,0,0,1-4.33,1.66.29.29,0,0,1-.3-.08,4.72,4.72,0,0,0-.38-.39A8,8,0,0,0,28.07.53,7.27,7.27,0,0,0,24.84,0a7.43,7.43,0,0,0-3.05.86,7.76,7.76,0,0,0-2.47,2,7.52,7.52,0,0,0-1.47,2.95A7.81,7.81,0,0,0,17.77,9c0,.17,0,.2-.15.17-6-.88-10.9-3-14.91-7.58-.17-.2-.27-.2-.41,0C.55,4.19,1.4,8.42,3.59,10.49a11.69,11.69,0,0,0,.91.81,7.8,7.8,0,0,1-2.87-.81c-.18-.11-.26,0-.28.15a5.08,5.08,0,0,0,0,.86,7.65,7.65,0,0,0,4.71,6.09,4,4,0,0,0,1,.29A8.42,8.42,0,0,1,4.24,18c-.2,0-.28.06-.2.26,1.24,3.38,3.92,4.39,5.93,5,.26,0,.53,0,.8.11,0,0,0,0,0,.05-.67,1-3,1.77-4.05,2.15a14.45,14.45,0,0,1-6.15.78c-.33,0-.4,0-.49,0s0,.14.09.23c.42.27.85.52,1.28.75a20.53,20.53,0,0,0,4.11,1.65c7.39,2,15.71.54,21.26-5,4.35-4.33,5.88-10.29,5.88-16.27,0-.23.27-.36.44-.49a14.68,14.68,0,0,0,2.89-3,.93.93,0,0,0,.19-.58v0C36.18,3.47,36.18,3.5,36,3.57Z"/></g></g></svg>