<svg xmlns="http://www.w3.org/2000/svg" viewBox="0 0 164.85 164.85"><defs><style>.cls-1{fill:#163d6b;}.cls-2{fill:#fafafa;}.cls-3{fill:#e1e1e1;}.cls-4{fill:#f5f5f5;}.cls-5{fill:#ececec;}.cls-6{opacity:0.3;}.cls-7{fill:#1a2e35;}.cls-8{fill:none;stroke:#375a64;stroke-miterlimit:10;stroke-width:2px;}.cls-9{fill:#375a64;}</style></defs><g id="Capa_2" data-name="Capa 2"><g id="Capa_1-2" data-name="Capa 1"><circle class="cls-1" cx="82.42" cy="82.42" r="82.42"/><rect class="cls-2" x="70.28" y="41.93" width="80.07" height="59.28" transform="translate(20.24 167.37) rotate(-79.74)"/><path class="cls-3" d="M132.35,116.24l.06-.37c0-.26.11-.63.2-1.11l.76-4.29c.67-3.75,1.65-9.23,2.9-16.16,2.5-13.86,6-33.55,10.24-56.87l.08.11L88.27,27h0l.13-.08L74.1,105.7l-.07-.1,42.39,7.72,11.77,2.15,3.09.57,1.07.2s-.36,0-1-.18l-3.08-.54-11.76-2.11L74,105.77h-.09l0-.09c4-22.17,8.93-49.4,14.24-78.79l0-.11.11,0h0l58.33,10.57.1,0,0,.1c-4.25,23.33-7.83,43-10.35,56.91-1.27,6.92-2.27,12.39-3,16.13-.34,1.86-.61,3.3-.79,4.27-.09.48-.15.84-.2,1.09S132.35,116.24,132.35,116.24Z"/><rect class="cls-3" x="91.05" y="37.29" width="25.17" height="21.93" transform="translate(10.25 -17.69) rotate(10.26)"/><rect class="cls-3" x="121.48" y="41.83" width="16.12" height="2.86" transform="translate(9.78 -22.39) rotate(10.26)"/><rect class="cls-3" x="88.19" y="65.33" width="45.99" height="2.86" transform="translate(13.67 -18.74) rotate(10.26)"/><rect class="cls-3" x="87.29" y="70.28" width="45.99" height="2.86" transform="translate(14.54 -18.5) rotate(10.26)"/><rect class="cls-3" x="86.39" y="75.24" width="45.99" height="2.86" transform="translate(15.41 -18.26) rotate(10.26)"/><rect class="cls-3" x="85.5" y="80.19" width="45.99" height="2.86" transform="translate(16.28 -18.02) rotate(10.26)"/><rect class="cls-3" x="84.6" y="85.15" width="45.99" height="2.86" transform="translate(17.15 -17.78) rotate(10.26)"/><rect class="cls-3" x="81.52" y="102.14" width="45.99" height="2.86" transform="translate(20.12 -16.96) rotate(10.26)"/><rect class="cls-3" x="83.87" y="88.26" width="25.25" height="2.86" transform="translate(17.52 -15.76) rotate(10.26)"/><rect class="cls-3" x="120.66" y="46.38" width="16.12" height="2.86" transform="translate(10.58 -22.17) rotate(10.26)"/><rect class="cls-3" x="119.83" y="50.94" width="16.12" height="2.86" transform="translate(11.38 -21.95) rotate(10.26)"/><rect class="cls-3" x="119.06" y="54.94" width="9.94" height="2.86" transform="translate(12.03 -21.19) rotate(10.26)"/><polygon class="cls-4" points="30.48 18.93 32.34 40.63 40.75 42.91 57.06 41.01 54.77 16.59 30.48 18.93"/><path class="cls-5" d="M34.9,38.68l-2.56,2a9.39,9.39,0,0,0,3.34,1.86,13.72,13.72,0,0,0,5.07.42A9,9,0,0,1,34.9,38.68Z"/><path class="cls-3" d="M52.8,24.57s-4.12.47-9.22,1-9.24.86-9.24.82,4.12-.48,9.22-1S52.8,24.53,52.8,24.57Z"/><path class="cls-3" d="M53.05,27.91s-4.13.47-9.23,1-9.24.87-9.24.83,4.12-.48,9.23-1S53,27.87,53.05,27.91Z"/><path class="cls-3" d="M53.44,30.85s-4.13.47-9.23,1-9.24.86-9.24.82,4.12-.47,9.22-1S53.43,30.81,53.44,30.85Z"/><path class="cls-3" d="M53.69,33.69s-4.13.48-9.22,1-9.24.86-9.25.82,4.13-.47,9.23-1S53.69,33.65,53.69,33.69Z"/><polygon class="cls-3" points="25.23 56.66 42.49 155.5 115.28 144.07 118.65 135.92 98.96 44.53 30.74 48.6 25.23 56.66"/><polygon class="cls-6" points="42.49 155.5 47.67 147.57 30.4 48.73 25.23 56.66 42.49 155.5"/><polygon class="cls-2" points="30.4 48.73 47.67 147.57 118.65 135.92 100.72 38.7 30.4 48.73"/><path class="cls-7" d="M30.4,48.73l70.31-10.11h.08l0,.08c5,27.16,11.23,60.81,18,97.21l0,.11-.11,0-1.17.19L47.68,147.67l-.1,0v-.1c-10.14-58.38-17-98-17.17-98.86.16.87,7.11,40.46,17.36,98.83l-.11-.08L117.46,136l1.17-.2-.09.13c-6.7-36.4-12.9-70-17.91-97.22l.1.07Z"/><rect class="cls-3" x="47.63" y="63.23" width="45.24" height="2.85" rx="1.33" transform="translate(-9.23 11.75) rotate(-8.98)"/><rect class="cls-3" x="56.61" y="69.11" width="29.39" height="2.85" rx="1.33" transform="translate(-10.13 11.99) rotate(-8.98)"/><rect class="cls-3" x="66.38" y="129.75" width="29.39" height="2.85" rx="1.33" transform="translate(-19.48 14.26) rotate(-8.98)"/><path class="cls-7" d="M115,138.67l-.35.06-1,.18-3.93.65L95.13,142l-49.25,8-.11,0v-.11c-.69-3.91-1.42-8-2.16-12.17C39.66,115.28,36.09,95,33.51,80.3,32.23,73,31.19,67,30.47,62.91c-.35-2-.63-3.65-.81-4.73l-.21-1.24-.06-.42s0,.14.08.42.13.69.23,1.23c.2,1.08.49,2.67.86,4.72.73,4.11,1.79,10,3.1,17.39,2.6,14.68,6.19,35,10.16,57.38.74,4.17,1.46,8.27,2.15,12.17l-.13-.08,49.27-7.94,14.59-2.32,3.93-.62,1-.16Z"/><path class="cls-7" d="M109.59,142.39l-.33.06-1,.17-3.71.63-13.78,2.3L44,153.29l-.1,0,0-.1c-.86-4.71-1.75-9.61-2.67-14.62C37.23,116.49,33.6,96.48,31,82c-1.3-7.24-2.36-13.1-3.09-17.16-.36-2-.63-3.59-.82-4.66L26.85,59c-.05-.27-.07-.41-.07-.41l.09.41.23,1.21c.2,1.07.49,2.64.87,4.66.74,4,1.82,9.9,3.15,17.14,2.65,14.48,6.3,34.48,10.33,56.58.91,5,1.8,9.91,2.66,14.62l-.12-.09,46.79-7.67,13.8-2.24,3.72-.59,1-.15Z"/><polygon class="cls-7" points="32.12 90.59 30.52 92.85 34.4 116.14 36.72 116.93 32.12 90.59"/><rect class="cls-7" x="34.33" y="89.42" width="11.25" height="26.74" transform="translate(-17.09 8.41) rotate(-9.91)"/><rect class="cls-7" x="44.54" y="87.47" width="2.25" height="28.59" rx="1.05" transform="translate(-16.83 9.37) rotate(-9.9)"/><path class="cls-8" d="M40.82,97.29l-7.19,4.09a4.67,4.67,0,1,0,.89,5l8.12,1.3a.54.54,0,0,0,.61-.63l-1.63-9.37A.55.55,0,0,0,40.82,97.29Z"/><path class="cls-9" d="M46.83,115a1,1,0,0,1-.06-.26c0-.2-.08-.45-.14-.76-.13-.68-.3-1.63-.51-2.78-.43-2.37-1-5.61-1.64-9.18l-1.59-9.19c-.19-1.16-.35-2.11-.46-2.79l-.12-.76a1.1,1.1,0,0,1,0-.27,1.23,1.23,0,0,1,.07.26l.15.75L43,92.76c.44,2.35,1,5.59,1.66,9.18s1.18,6.84,1.57,9.19c.19,1.18.35,2.14.44,2.8,0,.33.09.58.1.76S46.83,115,46.83,115Z"/><path class="cls-9" d="M36.5,117a1.16,1.16,0,0,1-.06-.27L36.3,116c-.13-.69-.3-1.63-.51-2.78-.42-2.38-1-5.61-1.64-9.18l-1.59-9.2c-.19-1.15-.35-2.1-.46-2.79L32,91.29A1,1,0,0,1,32,91s0,.08.07.26l.15.75.53,2.78c.44,2.34,1,5.59,1.66,9.18s1.19,6.84,1.57,9.19c.2,1.18.35,2.13.44,2.79,0,.34.09.59.1.77A1.1,1.1,0,0,1,36.5,117Z"/></g></g></svg>